<svg version="1.1" xmlns="http://www.w3.org/2000/svg" viewBox="0 0 10020 639.4124755859375" width="10020" height="639.4124755859375">
  <!-- svg-source:excalidraw -->
  
  <defs>
    <style>
      @font-face {
        font-family: "Virgil";
        src: url("https://excalidraw.com/Virgil.woff2");
      }
      @font-face {
        font-family: "Cascadia";
        src: url("https://excalidraw.com/Cascadia.woff2");
      }
    </style>
  </defs>
  <rect x="0" y="0" width="10020" height="639.4124755859375" fill="#fff0"></rect><g stroke-linecap="round" transform="translate(10 10) rotate(0 5000 0.5)"><path d="M-0.52 -0.26 C3022.65 -30.2, 6044.59 -29.2, 9999.32 0.22 M0.38 -0.31 C3948.03 -0.44, 7895.41 0.2, 9999.95 0.08 M10000.08 -0.06 C10000.09 0.27, 10000.05 0.48, 10000.09 0.92 M9999.97 0.01 C9999.95 0.33, 9999.98 0.72, 10000 0.99 M10000.22 1.51 C7095.77 35.76, 4193.15 34.95, -0.25 0.75 M10000.01 1.13 C7827.97 2.74, 5656.23 3.35, -0.33 0.84 M-0.04 1.01 C0 0.63, -0.06 0.15, 0.05 -0.03 M-0.04 0.95 C-0.04 0.73, -0.03 0.59, -0.05 -0.02" stroke="transparent" stroke-width="1" fill="none"></path></g><g transform="translate(574.7999877929688 575.8125) rotate(0 86.4000244140625 -10)" stroke="none"><path fill="#000" d="M -0.64,-1.48 Q -0.64,-1.48 4.54,-4.00 9.74,-6.53 19.25,-9.19 28.76,-11.84 41.37,-13.89 53.98,-15.94 68.35,-17.04 82.72,-18.13 101.02,-18.76 119.33,-19.39 132.84,-19.80 146.35,-20.20 153.93,-20.49 161.50,-20.78 164.73,-20.90 167.95,-21.02 168.16,-21.00 168.38,-20.98 168.57,-20.89 168.76,-20.80 168.92,-20.66 169.07,-20.51 169.17,-20.32 169.27,-20.14 169.31,-19.93 169.34,-19.72 169.31,-19.51 169.28,-19.30 169.18,-19.11 169.08,-18.92 168.93,-18.77 168.77,-18.63 168.58,-18.54 168.39,-18.45 168.18,-18.42 167.97,-18.40 167.76,-18.44 167.55,-18.49 167.37,-18.60 167.19,-18.70 167.05,-18.87 166.91,-19.03 166.83,-19.22 166.75,-19.42 166.74,-19.63 166.73,-19.85 166.78,-20.05 166.84,-20.26 166.96,-20.43 167.07,-20.61 167.24,-20.74 167.41,-20.87 167.61,-20.94 167.81,-21.01 168.02,-21.01 168.24,-21.01 168.44,-20.94 168.64,-20.87 168.81,-20.75 168.98,-20.62 169.10,-20.44 169.22,-20.27 169.28,-20.06 169.34,-19.86 169.33,-19.65 169.32,-19.43 169.24,-19.24 169.16,-19.04 169.02,-18.88 168.89,-18.71 168.71,-18.60 168.52,-18.49 168.32,-18.45 168.11,-18.40 168.11,-18.40 168.11,-18.40 164.89,-18.14 161.67,-17.87 154.08,-17.25 146.49,-16.63 132.99,-15.99 119.48,-15.35 101.26,-14.60 83.05,-13.84 68.86,-12.76 54.67,-11.68 42.28,-9.69 29.90,-7.70 20.66,-5.18 11.41,-2.66 6.03,-0.59 0.64,1.48 0.45,1.53 0.27,1.59 0.07,1.60 -0.11,1.61 -0.30,1.57 -0.50,1.53 -0.67,1.45 -0.85,1.37 -1.00,1.25 -1.15,1.12 -1.27,0.97 -1.39,0.81 -1.47,0.64 -1.55,0.46 -1.58,0.26 -1.61,0.07 -1.60,-0.11 -1.58,-0.31 -1.52,-0.49 -1.46,-0.68 -1.36,-0.84 -1.26,-1.01 -1.12,-1.15 -0.98,-1.28 -0.81,-1.38 -0.64,-1.48 -0.64,-1.48 L -0.64,-1.48 Z"></path></g><g transform="translate(574.7999877929688 575.8125) rotate(0 116.4000244140625 13.199981689453125)" stroke="none"><path fill="#000" d="M 1.41,-0.12 Q 1.41,-0.12 1.87,2.38 2.34,4.88 2.46,7.62 2.58,10.36 2.66,13.36 2.75,16.36 2.79,20.63 2.83,24.89 2.84,28.08 2.86,31.28 2.87,33.32 2.88,35.37 2.88,36.93 2.89,38.49 3.85,39.67 4.81,40.86 6.30,41.60 7.79,42.35 9.07,42.66 10.35,42.98 12.50,43.36 14.65,43.73 17.55,43.89 20.45,44.04 25.60,44.11 30.75,44.18 35.89,43.98 41.03,43.78 48.99,43.47 56.95,43.15 95.53,42.09 134.12,41.04 151.20,40.59 168.29,40.14 177.16,39.95 186.04,39.76 190.73,39.68 195.43,39.61 198.34,39.57 201.26,39.54 203.20,39.52 205.13,39.50 206.64,39.50 208.15,39.49 210.18,39.49 212.20,39.48 213.85,39.26 215.49,39.04 217.24,38.93 218.99,38.83 220.25,38.57 221.52,38.32 223.78,37.82 226.04,37.31 227.83,36.90 229.62,36.48 230.88,36.19 232.14,35.90 232.39,35.91 232.64,35.93 232.88,36.00 233.12,36.08 233.33,36.20 233.55,36.33 233.73,36.51 233.90,36.68 234.03,36.90 234.16,37.11 234.24,37.35 234.31,37.59 234.33,37.84 234.34,38.09 234.30,38.33 234.26,38.58 234.15,38.81 234.05,39.03 233.90,39.23 233.75,39.43 233.55,39.58 233.35,39.74 233.13,39.84 232.90,39.94 232.65,39.99 232.41,40.04 231.27,39.36 230.14,38.69 229.28,37.54 228.42,36.39 227.95,35.29 227.48,34.19 227.05,32.76 226.62,31.34 226.42,29.93 226.22,28.52 225.78,26.40 225.35,24.28 225.09,23.24 224.83,22.20 224.47,20.53 224.11,18.85 223.75,17.52 223.38,16.19 222.64,14.37 221.90,12.56 221.48,11.43 221.06,10.30 220.30,8.61 219.53,6.92 218.71,5.00 217.89,3.09 213.48,-2.62 209.07,-8.34 206.95,-10.82 204.84,-13.30 203.46,-14.19 202.07,-15.07 200.34,-15.39 198.60,-15.71 196.70,-15.89 194.80,-16.06 192.84,-16.14 190.88,-16.22 189.13,-16.26 187.38,-16.29 185.71,-16.31 184.05,-16.32 182.42,-16.33 180.80,-16.33 178.83,-16.57 176.86,-16.81 175.45,-16.91 174.04,-17.00 172.96,-17.05 171.89,-17.09 170.53,-17.46 169.17,-17.83 167.91,-17.87 166.65,-17.92 165.01,-17.93 163.36,-17.94 161.91,-18.37 160.46,-18.79 160.46,-18.58 160.46,-18.37 160.39,-18.17 160.32,-17.97 160.18,-17.80 160.05,-17.63 159.88,-17.52 159.70,-17.40 159.49,-17.35 159.29,-17.29 159.08,-17.31 158.86,-17.32 158.67,-17.40 158.47,-17.49 158.31,-17.63 158.15,-17.77 158.04,-17.95 157.94,-18.13 157.89,-18.34 157.85,-18.55 157.88,-18.76 157.90,-18.97 158.00,-19.16 158.09,-19.35 158.24,-19.51 158.38,-19.66 158.57,-19.75 158.76,-19.85 158.97,-19.88 159.18,-19.91 159.39,-19.88 159.60,-19.84 159.79,-19.74 159.97,-19.63 160.12,-19.48 160.26,-19.32 160.35,-19.13 160.43,-18.93 160.45,-18.72 160.47,-18.51 160.43,-18.30 160.38,-18.10 160.26,-17.92 160.15,-17.74 159.99,-17.60 159.82,-17.47 159.63,-17.39 159.43,-17.31 159.22,-17.31 159.00,-17.30 158.80,-17.36 158.60,-17.42 158.42,-17.54 158.25,-17.66 158.12,-17.83 158.00,-18.00 157.93,-18.21 157.87,-18.41 157.87,-18.41 157.87,-18.41 160.62,-20.23 163.37,-22.04 165.06,-22.03 166.76,-22.02 168.36,-21.93 169.97,-21.85 171.04,-21.51 172.11,-21.18 173.21,-21.14 174.31,-21.10 175.84,-20.99 177.38,-20.89 179.10,-20.66 180.82,-20.44 182.45,-20.43 184.09,-20.42 185.77,-20.41 187.46,-20.39 189.26,-20.36 191.05,-20.32 193.12,-20.24 195.19,-20.15 197.34,-19.94 199.49,-19.73 201.88,-19.13 204.27,-18.53 206.10,-17.27 207.94,-16.00 210.14,-13.41 212.34,-10.83 217.02,-4.62 221.69,1.57 222.46,3.38 223.24,5.18 224.07,7.03 224.90,8.87 225.70,10.85 226.49,12.83 226.91,13.97 227.33,15.11 227.72,16.55 228.12,18.00 228.46,19.61 228.81,21.23 229.20,23.45 229.60,25.67 229.94,26.82 230.27,27.97 230.41,29.07 230.54,30.17 230.91,31.40 231.27,32.62 231.71,34.26 232.14,35.90 232.39,35.91 232.64,35.93 232.88,36.00 233.12,36.08 233.33,36.20 233.55,36.33 233.73,36.51 233.90,36.68 234.03,36.90 234.16,37.11 234.24,37.35 234.31,37.59 234.33,37.84 234.34,38.09 234.30,38.33 234.26,38.58 234.15,38.81 234.05,39.03 233.90,39.23 233.75,39.43 233.55,39.58 233.35,39.74 233.13,39.84 232.90,39.94 232.65,39.99 232.41,40.04 232.14,40.28 231.88,40.52 230.35,40.68 228.82,40.85 226.75,41.28 224.69,41.72 223.51,42.10 222.33,42.47 220.79,42.76 219.24,43.05 217.64,43.14 216.04,43.24 214.12,43.48 212.21,43.72 210.19,43.72 208.17,43.72 206.67,43.72 205.16,43.73 203.24,43.74 201.31,43.76 198.41,43.79 195.50,43.82 190.81,43.91 186.13,43.99 177.26,44.18 168.40,44.37 151.31,44.82 134.23,45.26 95.67,46.32 57.11,47.37 49.15,47.68 41.19,48.00 35.94,48.20 30.69,48.40 25.45,48.33 20.21,48.25 17.07,48.07 13.92,47.89 11.60,47.47 9.27,47.05 6.83,46.20 4.39,45.35 3.09,44.71 1.79,44.07 0.62,43.10 -0.53,42.13 -0.91,40.31 -1.29,38.49 -1.29,36.93 -1.29,35.37 -1.29,33.33 -1.28,31.29 -1.28,28.10 -1.28,24.91 -1.27,20.66 -1.27,16.42 -1.27,13.46 -1.27,10.50 -1.34,7.86 -1.42,5.23 -1.41,2.67 -1.41,0.12 -1.40,-0.04 -1.40,-0.21 -1.35,-0.37 -1.30,-0.54 -1.22,-0.69 -1.14,-0.83 -1.02,-0.96 -0.90,-1.08 -0.76,-1.18 -0.62,-1.27 -0.45,-1.32 -0.29,-1.38 -0.12,-1.40 0.04,-1.41 0.21,-1.39 0.38,-1.36 0.53,-1.29 0.69,-1.23 0.83,-1.13 0.97,-1.03 1.08,-0.90 1.19,-0.76 1.26,-0.61 1.33,-0.46 1.37,-0.29 1.41,-0.12 1.41,-0.12 L 1.41,-0.12 Z"></path></g><g transform="translate(797.2000122070312 571.012451171875) rotate(0 50.399993896484375 -8.399993896484375)" stroke="none"><path fill="#000" d="M -0.34,1.36 Q -0.34,1.36 -1.31,1.35 -2.29,1.34 -2.91,1.26 -3.54,1.18 -3.75,1.09 -3.96,1.01 -4.15,0.88 -4.34,0.75 -4.49,0.58 -4.64,0.41 -4.74,0.21 -4.85,0.00 -4.90,-0.21 -4.96,-0.43 -4.96,-0.66 -4.95,-0.88 -4.90,-1.11 -4.84,-1.33 -4.74,-1.53 -4.63,-1.73 -4.48,-1.90 -4.33,-2.07 -4.14,-2.20 -3.95,-2.33 -3.74,-2.41 -3.52,-2.49 -3.30,-2.52 -3.07,-2.54 -2.84,-2.51 -2.62,-2.49 28.06,-6.89 58.74,-11.29 71.93,-13.23 85.11,-15.18 85.33,-15.17 85.54,-15.17 85.74,-15.10 85.94,-15.03 86.11,-14.90 86.27,-14.77 86.39,-14.59 86.51,-14.41 86.56,-14.21 86.62,-14.00 86.60,-13.79 86.59,-13.58 86.51,-13.38 86.42,-13.19 86.28,-13.03 86.14,-12.87 85.96,-12.76 85.78,-12.65 85.57,-12.61 85.36,-12.57 85.15,-12.59 84.94,-12.62 84.75,-12.71 84.56,-12.80 84.40,-12.95 84.25,-13.10 84.16,-13.29 84.06,-13.48 84.03,-13.69 84.00,-13.90 84.03,-14.11 84.07,-14.32 84.17,-14.50 84.27,-14.69 84.43,-14.83 84.59,-14.98 84.78,-15.06 84.98,-15.15 85.19,-15.17 85.40,-15.19 85.61,-15.14 85.81,-15.09 85.99,-14.98 86.17,-14.87 86.31,-14.70 86.44,-14.54 86.52,-14.34 86.60,-14.14 86.60,-13.93 86.61,-13.72 86.55,-13.51 86.49,-13.31 86.37,-13.14 86.25,-12.96 86.08,-12.84 85.91,-12.71 85.71,-12.64 85.50,-12.58 85.50,-12.58 85.50,-12.58 72.33,-10.58 59.15,-8.58 27.80,-3.70 -3.54,1.18 -3.75,1.09 -3.96,1.01 -4.15,0.88 -4.34,0.75 -4.49,0.58 -4.64,0.41 -4.74,0.21 -4.85,0.00 -4.90,-0.21 -4.96,-0.43 -4.96,-0.66 -4.95,-0.88 -4.90,-1.11 -4.84,-1.33 -4.74,-1.53 -4.63,-1.73 -4.48,-1.90 -4.33,-2.07 -4.14,-2.20 -3.95,-2.33 -3.74,-2.41 -3.52,-2.49 -3.30,-2.52 -3.07,-2.54 -2.84,-2.51 -2.62,-2.49 -2.00,-2.37 -1.38,-2.26 -0.52,-1.81 0.34,-1.36 0.50,-1.30 0.65,-1.24 0.79,-1.14 0.93,-1.05 1.05,-0.92 1.16,-0.79 1.24,-0.64 1.31,-0.49 1.35,-0.33 1.39,-0.16 1.39,0.00 1.39,0.17 1.35,0.33 1.31,0.50 1.23,0.65 1.15,0.80 1.04,0.93 0.93,1.05 0.79,1.15 0.65,1.25 0.49,1.31 0.33,1.36 0.16,1.38 -0.00,1.40 -0.17,1.38 -0.34,1.36 -0.34,1.36 L -0.34,1.36 Z"></path></g><g transform="translate(812.4000244140625 596.6124877929688) rotate(0 59.600006103515625 -6.399993896484375)" stroke="none"><path fill="#000" d="M -0.49,-1.33 Q -0.49,-1.33 1.24,-2.28 2.98,-3.24 5.25,-3.82 7.52,-4.40 11.79,-4.87 16.06,-5.35 39.48,-6.93 62.90,-8.51 73.07,-9.13 83.24,-9.75 88.03,-10.03 92.81,-10.31 95.47,-10.66 98.12,-11.01 100.40,-11.38 102.67,-11.75 104.65,-11.92 106.62,-12.09 108.27,-12.38 109.91,-12.67 111.16,-12.80 112.41,-12.93 113.59,-13.32 114.77,-13.72 116.41,-12.93 118.06,-12.14 117.99,-12.34 117.93,-12.54 117.93,-12.76 117.93,-12.97 118.01,-13.17 118.08,-13.37 118.21,-13.53 118.34,-13.70 118.52,-13.82 118.70,-13.93 118.90,-13.99 119.11,-14.04 119.32,-14.03 119.53,-14.01 119.73,-13.93 119.92,-13.85 120.08,-13.71 120.24,-13.57 120.35,-13.38 120.46,-13.20 120.50,-12.99 120.54,-12.78 120.51,-12.57 120.49,-12.36 120.39,-12.17 120.30,-11.98 120.15,-11.82 120.00,-11.67 119.81,-11.58 119.62,-11.48 119.41,-11.45 119.20,-11.42 118.99,-11.46 118.79,-11.50 118.60,-11.60 118.41,-11.70 118.27,-11.86 118.13,-12.01 118.04,-12.21 117.96,-12.40 117.94,-12.62 117.92,-12.83 117.97,-13.03 118.02,-13.24 118.13,-13.42 118.24,-13.60 118.41,-13.74 118.57,-13.87 118.77,-13.94 118.97,-14.02 119.18,-14.03 119.39,-14.04 119.60,-13.97 119.80,-13.91 119.97,-13.79 120.15,-13.67 120.27,-13.50 120.40,-13.33 120.40,-13.33 120.40,-13.33 118.00,-11.62 115.61,-9.92 114.23,-9.50 112.85,-9.08 111.71,-8.96 110.57,-8.84 108.76,-8.53 106.95,-8.22 105.13,-8.07 103.30,-7.92 100.96,-7.53 98.62,-7.15 95.83,-6.79 93.04,-6.44 88.27,-6.15 83.49,-5.86 73.33,-5.15 63.17,-4.43 39.83,-2.87 16.50,-1.30 12.49,-0.87 8.47,-0.45 6.42,0.01 4.37,0.48 2.43,0.90 0.49,1.33 0.33,1.37 0.16,1.41 -0.00,1.41 -0.17,1.40 -0.34,1.36 -0.50,1.32 -0.66,1.24 -0.81,1.16 -0.93,1.05 -1.06,0.93 -1.16,0.79 -1.26,0.65 -1.32,0.49 -1.38,0.33 -1.40,0.16 -1.42,-0.00 -1.39,-0.17 -1.37,-0.34 -1.31,-0.50 -1.25,-0.66 -1.15,-0.80 -1.05,-0.94 -0.93,-1.05 -0.80,-1.17 -0.65,-1.25 -0.49,-1.33 -0.49,-1.33 L -0.49,-1.33 Z"></path></g><g transform="translate(906.7999877929688 567.012451171875) rotate(0 91.20001220703125 13.20001220703125)" stroke="none"><path fill="#000" d="M -0.98,-0.98 Q -0.98,-0.98 0.05,-2.24 1.10,-3.50 2.83,-4.77 4.57,-6.04 6.91,-7.52 9.26,-9.00 11.45,-10.12 13.64,-11.24 15.91,-12.40 18.19,-13.56 20.79,-14.77 23.40,-15.97 26.57,-17.40 29.74,-18.83 32.25,-19.90 34.76,-20.97 36.72,-21.87 38.67,-22.78 40.42,-23.62 42.16,-24.46 43.82,-25.28 45.49,-26.10 47.65,-26.94 49.81,-27.79 51.30,-28.56 52.79,-29.32 54.49,-29.94 56.19,-30.56 58.00,-31.26 59.80,-31.95 61.56,-32.51 63.31,-33.06 64.72,-33.51 66.12,-33.96 67.40,-34.38 68.69,-34.80 70.19,-35.23 71.70,-35.66 72.71,-36.04 73.72,-36.42 74.79,-36.76 75.86,-37.10 77.10,-37.50 78.33,-37.91 81.33,-37.48 84.33,-37.05 110.73,-26.72 137.12,-16.39 148.74,-12.01 160.35,-7.63 165.55,-5.54 170.74,-3.44 173.41,-2.31 176.08,-1.18 177.69,-0.47 179.29,0.23 181.18,0.91 183.08,1.58 184.16,2.08 185.24,2.58 186.51,2.98 187.78,3.39 188.85,4.75 189.93,6.11 188.63,7.25 187.33,8.40 184.54,9.59 181.75,10.78 179.72,11.87 177.68,12.97 175.94,14.09 174.20,15.22 172.34,16.60 170.47,17.98 168.58,19.67 166.69,21.36 164.50,23.46 162.31,25.56 160.41,27.19 158.50,28.83 156.69,30.04 154.88,31.25 153.55,32.36 152.22,33.47 150.11,34.75 148.00,36.03 146.20,37.02 144.41,38.00 142.25,39.12 140.10,40.23 137.81,41.39 135.52,42.55 133.35,43.52 131.19,44.50 128.93,45.58 126.67,46.66 123.61,48.05 120.55,49.45 110.73,53.72 100.91,57.99 96.50,59.81 92.08,61.63 89.95,62.42 87.81,63.21 86.62,63.56 85.43,63.90 83.45,63.89 81.46,63.87 79.50,62.81 77.53,61.74 75.77,60.93 74.01,60.11 73.02,59.73 72.03,59.34 70.91,58.94 69.80,58.55 68.26,58.18 66.71,57.81 64.97,57.14 63.23,56.47 61.69,55.99 60.15,55.52 58.46,54.81 56.76,54.11 55.42,53.61 54.09,53.11 53.00,52.64 51.91,52.17 50.67,51.47 49.43,50.76 48.37,49.94 47.30,49.12 46.26,48.38 45.21,47.63 43.91,46.90 42.61,46.16 41.45,45.29 40.28,44.41 39.45,43.47 38.62,42.52 37.06,41.43 35.49,40.34 34.23,39.28 32.97,38.22 31.58,36.96 30.19,35.69 28.93,34.46 27.67,33.23 26.42,31.89 25.17,30.55 24.41,29.78 23.65,29.00 22.78,27.89 21.92,26.77 16.39,21.39 10.86,16.00 8.24,13.43 5.62,10.87 4.28,9.55 2.93,8.22 2.00,7.51 1.06,6.81 0.06,6.11 -0.92,5.42 -2.09,4.68 -3.26,3.94 -4.31,2.83 -5.35,1.71 -6.24,1.35 -7.13,0.98 -7.31,0.80 -7.48,0.62 -7.60,0.40 -7.72,0.19 -7.79,-0.04 -7.86,-0.28 -7.87,-0.53 -7.88,-0.78 -7.83,-1.02 -7.78,-1.26 -7.67,-1.49 -7.56,-1.71 -7.41,-1.91 -7.25,-2.10 -7.05,-2.25 -6.85,-2.39 -6.62,-2.49 -6.39,-2.59 -6.15,-2.63 -5.90,-2.67 -5.65,-2.65 -5.41,-2.62 -5.17,-2.55 -4.93,-2.47 -4.72,-2.33 -4.52,-2.20 -3.38,-1.90 -2.25,-1.60 -2.05,-1.54 -1.84,-1.48 -1.67,-1.36 -1.50,-1.24 -1.37,-1.07 -1.25,-0.90 -1.18,-0.69 -1.12,-0.49 -1.12,-0.28 -1.12,-0.07 -1.20,0.12 -1.27,0.32 -1.40,0.49 -1.53,0.66 -1.71,0.77 -1.89,0.89 -2.09,0.94 -2.30,1.00 -2.51,0.98 -2.72,0.97 -2.92,0.88 -3.11,0.80 -3.27,0.66 -3.43,0.52 -3.54,0.34 -3.64,0.15 -3.69,-0.04 -3.73,-0.25 -3.70,-0.46 -3.68,-0.67 -3.58,-0.87 -3.49,-1.06 -3.34,-1.21 -3.19,-1.36 -3.00,-1.46 -2.81,-1.55 -2.60,-1.58 -2.39,-1.61 -2.18,-1.58 -1.98,-1.54 -1.79,-1.44 -1.60,-1.33 -1.46,-1.18 -1.32,-1.02 -1.23,-0.82 -1.15,-0.63 -1.13,-0.42 -1.11,-0.21 -1.16,-0.00 -1.21,0.20 -1.32,0.38 -1.43,0.56 -1.59,0.69 -1.76,0.83 -1.96,0.90 -2.16,0.98 -2.37,0.98 -2.58,0.99 -2.58,0.99 -2.58,0.99 -4.86,0.98 -7.13,0.98 -7.31,0.80 -7.48,0.62 -7.60,0.40 -7.72,0.19 -7.79,-0.04 -7.86,-0.28 -7.87,-0.53 -7.88,-0.78 -7.83,-1.02 -7.78,-1.26 -7.67,-1.49 -7.56,-1.71 -7.41,-1.91 -7.25,-2.10 -7.05,-2.25 -6.85,-2.39 -6.62,-2.49 -6.39,-2.59 -6.15,-2.63 -5.90,-2.67 -5.65,-2.65 -5.41,-2.62 -5.17,-2.55 -4.93,-2.47 -4.73,-2.33 -4.52,-2.20 -3.94,-1.89 -3.35,-1.58 -2.28,-0.61 -1.21,0.35 -0.18,1.01 0.84,1.68 2.21,2.60 3.58,3.52 4.70,4.40 5.83,5.27 7.17,6.59 8.52,7.91 11.14,10.47 13.76,13.04 19.48,18.64 25.20,24.24 25.91,25.17 26.61,26.11 27.39,26.90 28.17,27.69 28.93,28.49 29.68,29.28 30.85,30.70 32.02,32.12 32.78,32.88 33.54,33.63 34.64,34.37 35.73,35.12 36.80,36.02 37.87,36.92 38.92,37.65 39.96,38.38 41.38,39.75 42.80,41.13 43.74,41.84 44.67,42.56 46.14,43.40 47.61,44.24 49.56,45.70 51.51,47.15 52.54,47.75 53.56,48.35 54.56,48.78 55.55,49.21 56.96,49.74 58.37,50.27 59.88,50.91 61.39,51.54 63.06,52.07 64.74,52.59 66.23,53.18 67.71,53.77 69.45,54.21 71.18,54.64 72.35,55.06 73.53,55.48 75.56,56.35 77.60,57.22 79.36,58.26 81.12,59.31 82.70,59.61 84.27,59.92 85.33,59.61 86.38,59.30 88.44,58.55 90.50,57.79 94.88,55.99 99.26,54.18 109.04,49.92 118.82,45.65 121.84,44.27 124.87,42.90 127.17,41.79 129.47,40.68 131.55,39.75 133.63,38.82 135.90,37.66 138.18,36.51 140.29,35.42 142.40,34.33 144.12,33.39 145.85,32.45 147.71,31.35 149.56,30.25 151.07,29.01 152.57,27.78 154.18,26.71 155.79,25.65 157.61,24.10 159.43,22.55 161.67,20.40 163.91,18.25 165.95,16.43 167.99,14.62 169.96,13.17 171.94,11.71 173.82,10.50 175.70,9.29 177.85,8.14 180.00,6.98 182.37,5.89 184.74,4.81 185.92,4.77 187.09,4.73 186.25,5.92 185.40,7.10 184.01,6.44 182.61,5.78 181.39,5.28 180.17,4.77 178.89,4.42 177.60,4.07 176.03,3.37 174.45,2.68 171.81,1.56 169.16,0.45 164.02,-1.62 158.87,-3.71 147.23,-8.10 135.59,-12.49 109.45,-22.78 83.30,-33.07 81.83,-33.49 80.36,-33.92 79.26,-33.96 78.17,-34.00 76.62,-33.39 75.07,-32.78 73.91,-32.35 72.75,-31.92 71.32,-31.53 69.89,-31.13 68.60,-30.71 67.30,-30.29 65.88,-29.83 64.46,-29.37 62.83,-28.86 61.19,-28.36 59.34,-27.65 57.50,-26.94 56.02,-26.41 54.54,-25.89 52.87,-25.05 51.20,-24.21 49.18,-23.44 47.17,-22.67 45.49,-21.84 43.82,-21.02 42.04,-20.17 40.26,-19.32 38.26,-18.40 36.25,-17.47 33.77,-16.42 31.29,-15.37 28.12,-13.96 24.96,-12.55 22.40,-11.40 19.85,-10.25 17.55,-9.13 15.26,-8.00 13.18,-6.99 11.11,-5.99 8.84,-4.62 6.57,-3.26 5.03,-2.18 3.49,-1.09 2.24,-0.05 0.98,0.98 0.85,1.09 0.72,1.19 0.56,1.26 0.41,1.33 0.25,1.36 0.08,1.39 -0.08,1.38 -0.25,1.37 -0.41,1.32 -0.57,1.27 -0.71,1.18 -0.86,1.10 -0.98,0.98 -1.10,0.86 -1.18,0.71 -1.27,0.57 -1.32,0.41 -1.37,0.25 -1.38,0.08 -1.39,-0.08 -1.36,-0.25 -1.33,-0.41 -1.26,-0.56 -1.19,-0.72 -1.09,-0.85 -0.98,-0.98 -0.98,-0.98 L -0.98,-0.98 Z"></path></g><g transform="translate(596.4000244140625 588.6124877929688) rotate(0 -1.600006103515625 14)" stroke="none"><path fill="#000" d="M 1.56,0.39 Q 1.56,0.39 1.08,3.20 0.60,6.01 0.11,8.74 -0.38,11.46 -0.58,13.93 -0.78,16.39 -0.88,18.81 -0.97,21.22 -1.48,23.18 -1.99,25.13 -1.78,25.13 -1.57,25.13 -1.37,25.20 -1.17,25.27 -1.00,25.40 -0.83,25.54 -0.71,25.71 -0.60,25.89 -0.54,26.10 -0.49,26.30 -0.50,26.51 -0.52,26.72 -0.60,26.92 -0.68,27.12 -0.82,27.28 -0.96,27.44 -1.14,27.54 -1.33,27.65 -1.54,27.69 -1.74,27.74 -1.95,27.71 -2.17,27.69 -2.36,27.59 -2.55,27.50 -2.70,27.35 -2.85,27.21 -2.95,27.02 -3.05,26.83 -3.08,26.62 -3.11,26.41 -3.07,26.20 -3.04,25.99 -2.93,25.80 -2.83,25.62 -2.67,25.47 -2.52,25.33 -2.32,25.24 -2.13,25.15 -1.92,25.13 -1.71,25.11 -1.50,25.16 -1.29,25.21 -1.11,25.32 -0.93,25.44 -0.80,25.60 -0.66,25.76 -0.59,25.96 -0.51,26.16 -0.50,26.37 -0.49,26.59 -0.55,26.79 -0.61,26.99 -0.73,27.17 -0.86,27.34 -1.03,27.47 -1.20,27.59 -1.40,27.66 -1.60,27.72 -1.60,27.72 -1.60,27.72 -3.37,24.39 -5.14,21.06 -5.05,18.55 -4.95,16.03 -4.70,13.36 -4.46,10.70 -3.91,7.86 -3.36,5.02 -2.46,2.31 -1.56,-0.39 -1.49,-0.57 -1.43,-0.75 -1.31,-0.91 -1.20,-1.07 -1.06,-1.20 -0.91,-1.33 -0.74,-1.42 -0.56,-1.51 -0.37,-1.56 -0.18,-1.60 0.00,-1.60 0.20,-1.60 0.38,-1.55 0.57,-1.51 0.75,-1.41 0.92,-1.32 1.06,-1.19 1.21,-1.06 1.32,-0.90 1.43,-0.74 1.50,-0.56 1.57,-0.38 1.59,-0.18 1.61,0.00 1.59,0.19 1.56,0.39 1.56,0.39 L 1.56,0.39 Z"></path></g><g transform="translate(576.4000244140625 582.2124633789062) rotate(0 19.199981689453125 0.4000244140625)" stroke="none"><path fill="#000" d="M -1.39,-1.16 Q -1.39,-1.16 -0.27,-2.59 0.84,-4.03 2.96,-5.29 5.08,-6.56 7.35,-7.51 9.63,-8.47 12.73,-9.35 15.84,-10.23 18.54,-10.84 21.25,-11.44 23.63,-11.71 26.01,-11.98 28.23,-12.08 30.45,-12.18 32.91,-11.23 35.37,-10.27 36.78,-8.98 38.19,-7.69 38.88,-5.98 39.58,-4.26 39.82,-2.74 40.06,-1.23 39.38,0.71 38.71,2.66 36.62,4.76 34.54,6.85 31.95,8.41 29.37,9.98 26.78,10.90 24.20,11.81 21.57,12.03 18.94,12.26 18.73,12.26 18.51,12.27 18.31,12.22 18.11,12.16 17.93,12.04 17.76,11.91 17.63,11.74 17.50,11.57 17.44,11.37 17.37,11.17 17.37,10.96 17.38,10.74 17.45,10.54 17.52,10.34 17.65,10.18 17.78,10.01 17.95,9.89 18.13,9.77 18.34,9.72 18.54,9.66 18.75,9.68 18.97,9.69 19.16,9.77 19.36,9.85 19.52,9.99 19.68,10.13 19.79,10.31 19.89,10.50 19.94,10.70 19.98,10.91 19.96,11.12 19.93,11.33 19.84,11.53 19.75,11.72 19.60,11.87 19.45,12.02 19.26,12.12 19.08,12.22 18.87,12.25 18.66,12.28 18.45,12.25 18.24,12.21 18.05,12.11 17.86,12.01 17.72,11.85 17.58,11.70 17.49,11.50 17.40,11.31 17.38,11.10 17.36,10.89 17.41,10.68 17.45,10.47 17.57,10.29 17.68,10.11 17.84,9.97 18.00,9.84 18.20,9.76 18.40,9.68 18.40,9.68 18.40,9.68 20.65,8.88 22.89,8.08 25.11,7.31 27.33,6.54 29.55,5.23 31.78,3.91 33.42,2.46 35.07,1.01 35.61,0.04 36.14,-0.92 35.75,-2.98 35.35,-5.04 34.55,-5.87 33.76,-6.71 32.12,-7.50 30.47,-8.29 28.46,-8.18 26.44,-8.07 24.27,-7.84 22.10,-7.61 19.50,-7.03 16.90,-6.46 14.02,-5.65 11.13,-4.85 9.06,-3.99 6.99,-3.14 5.37,-2.31 3.75,-1.48 2.57,-0.16 1.39,1.16 1.23,1.31 1.07,1.46 0.88,1.57 0.69,1.67 0.48,1.73 0.27,1.79 0.05,1.80 -0.16,1.81 -0.37,1.76 -0.59,1.71 -0.79,1.62 -0.98,1.52 -1.15,1.38 -1.32,1.24 -1.45,1.06 -1.58,0.89 -1.66,0.69 -1.75,0.48 -1.78,0.27 -1.81,0.05 -1.79,-0.16 -1.77,-0.38 -1.70,-0.58 -1.63,-0.79 -1.51,-0.98 -1.39,-1.16 -1.39,-1.16 L -1.39,-1.16 Z"></path></g><g transform="translate(610 598.2124633789062) rotate(0 60.800018310546875 -5.600006103515625)" stroke="none"><path fill="#000" d="M -0.94,-1.64 Q -0.94,-1.64 0.64,-2.59 2.23,-3.53 3.18,-4.50 4.12,-5.46 4.46,-3.87 4.80,-2.28 4.76,-0.74 4.71,0.80 5.02,1.98 5.32,3.15 6.55,3.82 7.77,4.48 8.93,4.82 10.08,5.16 11.10,4.75 12.12,4.33 13.34,3.02 14.57,1.71 15.30,0.15 16.04,-1.40 16.37,-2.48 16.70,-3.57 16.87,-4.32 17.03,-5.08 17.13,-5.30 17.23,-5.52 17.38,-5.71 17.53,-5.90 17.72,-6.05 17.91,-6.20 18.13,-6.30 18.36,-6.40 18.59,-6.45 18.83,-6.49 19.08,-6.47 19.32,-6.46 19.55,-6.39 19.78,-6.31 19.99,-6.19 20.20,-6.06 20.37,-5.89 20.54,-5.72 20.66,-5.51 20.79,-5.30 20.86,-5.07 20.93,-4.84 20.95,-4.60 20.96,-4.36 20.92,-4.12 20.87,-3.88 22.33,-3.12 23.79,-2.37 24.98,-1.22 26.17,-0.07 27.16,0.49 28.15,1.06 29.37,-0.27 30.59,-1.62 31.62,-3.72 32.64,-5.82 33.50,-8.21 34.35,-10.59 34.73,-11.88 35.11,-13.17 35.22,-13.39 35.33,-13.62 35.49,-13.80 35.65,-13.99 35.85,-14.13 36.05,-14.28 36.28,-14.37 36.51,-14.46 36.75,-14.50 37.00,-14.53 37.24,-14.51 37.49,-14.48 37.72,-14.40 37.95,-14.32 38.16,-14.18 38.36,-14.04 38.53,-13.86 38.70,-13.68 38.81,-13.47 38.93,-13.25 39.00,-13.01 39.06,-12.77 39.07,-12.53 39.07,-12.28 39.02,-12.04 38.96,-11.80 40.17,-10.58 41.38,-9.35 42.57,-8.05 43.77,-6.75 45.21,-5.27 46.64,-3.78 48.18,-2.22 49.71,-0.67 50.53,0.94 51.34,2.56 51.09,2.35 50.83,2.14 50.96,2.37 51.09,2.60 51.16,2.86 51.23,3.11 51.23,3.37 51.24,3.64 51.19,3.89 51.13,4.15 51.01,4.39 50.90,4.63 50.73,4.83 50.56,5.03 50.35,5.19 50.13,5.34 49.89,5.44 49.65,5.54 49.39,5.58 49.12,5.62 48.86,5.60 48.60,5.57 48.35,5.48 48.10,5.40 47.88,5.25 47.66,5.11 47.48,4.92 47.30,4.73 55.68,-1.01 64.06,-6.76 67.34,-8.93 70.62,-11.11 71.55,-12.69 72.49,-14.28 70.79,-15.33 69.09,-16.37 67.88,-16.55 66.66,-16.72 65.92,-15.94 65.18,-15.17 65.09,-14.09 65.00,-13.01 65.75,-11.89 66.50,-10.77 67.79,-10.63 69.08,-10.49 70.82,-10.82 72.57,-11.15 74.21,-11.72 75.85,-12.28 77.31,-12.77 78.78,-13.25 79.80,-13.66 80.82,-14.07 82.56,-14.70 84.30,-15.33 85.52,-14.99 86.74,-14.65 87.63,-13.29 88.53,-11.93 89.02,-10.21 89.51,-8.48 89.94,-6.11 90.37,-3.75 90.76,-2.16 91.16,-0.57 91.33,0.35 91.50,1.29 91.53,1.55 91.56,1.82 91.53,2.09 91.50,2.35 91.40,2.60 91.30,2.85 91.15,3.07 91.00,3.29 90.80,3.47 90.60,3.65 90.36,3.77 90.12,3.89 89.86,3.96 89.60,4.02 89.33,4.02 89.07,4.02 88.81,3.95 88.55,3.89 88.31,3.76 88.07,3.64 87.87,3.46 87.67,3.28 87.52,3.06 87.37,2.84 87.28,2.59 87.18,2.34 87.97,1.29 88.75,0.24 88.94,-1.02 89.12,-2.30 90.12,-4.44 91.12,-6.58 92.28,-8.48 93.44,-10.39 94.44,-11.71 95.44,-13.04 96.56,-13.81 97.67,-14.57 99.23,-14.67 100.79,-14.78 101.71,-14.10 102.63,-13.42 103.49,-10.99 104.36,-8.57 105.09,-6.58 105.82,-4.59 106.75,-2.72 107.68,-0.85 108.72,-0.13 109.75,0.59 110.78,0.95 111.81,1.30 115.46,-0.90 119.10,-3.11 119.30,-3.20 119.49,-3.29 119.70,-3.31 119.91,-3.33 120.12,-3.28 120.33,-3.23 120.51,-3.12 120.69,-3.01 120.83,-2.85 120.96,-2.69 121.04,-2.49 121.12,-2.29 121.13,-2.08 121.14,-1.87 121.08,-1.66 121.02,-1.46 120.90,-1.28 120.78,-1.11 120.61,-0.98 120.44,-0.85 120.24,-0.79 120.04,-0.72 119.83,-0.72 119.61,-0.72 119.41,-0.79 119.21,-0.86 119.04,-0.99 118.88,-1.12 118.76,-1.30 118.64,-1.47 118.58,-1.68 118.53,-1.88 118.54,-2.10 118.55,-2.31 118.63,-2.51 118.71,-2.70 118.85,-2.86 118.99,-3.02 119.17,-3.13 119.36,-3.24 119.56,-3.29 119.77,-3.33 119.98,-3.31 120.19,-3.28 120.39,-3.19 120.58,-3.10 120.73,-2.95 120.89,-2.81 120.98,-2.62 121.08,-2.43 121.11,-2.22 121.15,-2.01 121.11,-1.80 121.08,-1.59 120.98,-1.40 120.87,-1.22 120.72,-1.07 120.56,-0.93 120.56,-0.93 120.56,-0.93 116.23,2.19 111.89,5.32 109.47,4.75 107.06,4.18 105.40,2.74 103.74,1.29 102.65,-0.87 101.57,-3.03 100.82,-5.12 100.07,-7.21 99.34,-8.87 98.62,-10.52 97.77,-9.40 96.93,-8.28 95.91,-6.57 94.89,-4.87 94.01,-2.86 93.13,-0.86 92.31,0.21 91.50,1.29 91.53,1.55 91.56,1.82 91.53,2.09 91.50,2.35 91.40,2.60 91.30,2.85 91.15,3.07 91.00,3.29 90.80,3.47 90.60,3.64 90.36,3.77 90.12,3.89 89.86,3.96 89.60,4.02 89.33,4.02 89.07,4.02 88.81,3.95 88.55,3.89 88.31,3.76 88.07,3.64 87.87,3.46 87.68,3.28 87.52,3.06 87.37,2.84 87.28,2.59 87.18,2.34 87.01,1.40 86.84,0.47 86.43,-1.25 86.01,-2.97 85.63,-5.16 85.25,-7.35 85.15,-9.34 85.05,-11.33 83.72,-10.78 82.39,-10.22 81.25,-9.75 80.12,-9.29 78.67,-8.79 77.22,-8.29 75.27,-7.62 73.31,-6.96 70.93,-6.56 68.54,-6.16 66.60,-6.47 64.66,-6.78 63.15,-7.67 61.65,-8.56 61.04,-9.88 60.43,-11.20 60.54,-12.52 60.65,-13.84 61.14,-15.78 61.63,-17.72 62.77,-18.91 63.91,-20.10 65.52,-20.54 67.13,-20.97 68.75,-20.67 70.38,-20.38 72.46,-19.60 74.53,-18.82 75.50,-17.52 76.47,-16.22 76.20,-14.19 75.92,-12.16 74.44,-10.00 72.95,-7.84 69.45,-5.51 65.96,-3.18 58.39,-0.52 50.83,2.14 50.96,2.37 51.09,2.60 51.16,2.86 51.23,3.11 51.23,3.37 51.24,3.64 51.19,3.89 51.13,4.15 51.01,4.39 50.90,4.63 50.73,4.83 50.56,5.03 50.35,5.19 50.13,5.34 49.89,5.44 49.65,5.54 49.39,5.58 49.12,5.62 48.86,5.60 48.60,5.57 48.35,5.48 48.10,5.40 47.88,5.25 47.66,5.11 47.48,4.92 47.30,4.73 46.91,3.59 46.53,2.45 44.98,0.88 43.43,-0.68 41.95,-2.21 40.47,-3.75 39.13,-5.23 37.80,-6.71 36.80,-8.71 35.81,-10.71 35.46,-11.94 35.11,-13.17 35.22,-13.39 35.33,-13.62 35.49,-13.80 35.65,-13.99 35.85,-14.13 36.05,-14.28 36.28,-14.37 36.51,-14.46 36.75,-14.50 37.00,-14.53 37.24,-14.51 37.49,-14.48 37.72,-14.40 37.95,-14.32 38.16,-14.18 38.36,-14.05 38.53,-13.86 38.70,-13.68 38.81,-13.47 38.93,-13.25 39.00,-13.01 39.06,-12.77 39.07,-12.53 39.07,-12.28 39.02,-12.04 38.96,-11.80 38.58,-10.51 38.21,-9.22 37.28,-6.62 36.36,-4.02 35.37,-1.95 34.37,0.10 33.40,2.06 32.43,4.02 31.19,4.83 29.95,5.64 27.93,5.23 25.92,4.82 24.53,3.97 23.14,3.12 21.98,2.00 20.82,0.88 19.50,-0.37 18.18,-1.62 17.60,-3.35 17.03,-5.08 17.13,-5.30 17.23,-5.52 17.38,-5.71 17.53,-5.90 17.72,-6.05 17.91,-6.20 18.13,-6.30 18.36,-6.40 18.59,-6.45 18.83,-6.49 19.07,-6.47 19.32,-6.46 19.55,-6.39 19.78,-6.31 19.99,-6.19 20.20,-6.06 20.37,-5.89 20.54,-5.72 20.66,-5.51 20.79,-5.30 20.86,-5.07 20.93,-4.84 20.95,-4.60 20.96,-4.36 20.92,-4.12 20.87,-3.88 20.71,-3.12 20.55,-2.37 20.10,-0.99 19.66,0.39 18.58,2.48 17.50,4.57 15.53,6.42 13.56,8.28 11.39,8.83 9.22,9.38 7.21,8.74 5.20,8.10 3.30,6.47 1.40,4.83 0.84,2.75 0.28,0.67 0.38,-1.10 0.48,-2.87 0.80,-4.43 1.12,-5.99 1.95,-6.90 2.78,-7.80 3.88,-8.01 4.99,-8.21 6.20,-7.25 7.42,-6.30 7.47,-5.14 7.52,-3.98 6.95,-3.05 6.38,-2.12 5.29,-1.13 4.20,-0.14 2.57,0.75 0.94,1.64 0.73,1.73 0.52,1.82 0.29,1.86 0.06,1.89 -0.16,1.87 -0.38,1.85 -0.60,1.78 -0.82,1.71 -1.01,1.58 -1.20,1.46 -1.36,1.29 -1.52,1.13 -1.63,0.93 -1.75,0.73 -1.81,0.51 -1.87,0.29 -1.88,0.06 -1.89,-0.16 -1.84,-0.38 -1.79,-0.60 -1.69,-0.81 -1.60,-1.02 -1.45,-1.19 -1.30,-1.37 -1.12,-1.51 -0.94,-1.64 -0.94,-1.64 L -0.94,-1.64 Z"></path></g><g transform="translate(940.4000244140625 565.4124755859375) rotate(0 24.4000244140625 6.399993896484375)" stroke="none"><path fill="#000" d="M 1.75,-0.43 Q 1.75,-0.43 2.12,0.44 2.48,1.33 2.51,1.58 2.54,1.83 2.51,2.08 2.49,2.33 2.40,2.56 2.31,2.80 2.17,3.01 2.02,3.22 1.84,3.38 1.65,3.55 1.42,3.67 1.20,3.79 0.96,3.85 0.71,3.91 0.46,3.91 0.21,3.91 -0.02,3.85 -0.27,3.79 -0.49,3.67 -0.72,3.56 -0.91,3.39 -1.09,3.23 -1.24,3.02 -1.38,2.81 -1.47,2.58 -1.56,2.34 -1.21,0.77 -0.85,-0.79 -0.44,-1.77 -0.02,-2.75 1.73,-3.51 3.48,-4.28 5.04,-2.67 6.60,-1.07 7.46,1.94 8.33,4.95 8.89,7.30 9.44,9.65 9.88,11.00 10.31,12.36 10.81,13.43 11.30,14.50 11.33,14.77 11.36,15.04 11.32,15.30 11.29,15.57 11.19,15.82 11.09,16.07 10.93,16.29 10.78,16.51 10.57,16.68 10.37,16.86 10.13,16.98 9.89,17.10 9.63,17.16 9.37,17.22 9.10,17.22 8.83,17.21 8.57,17.14 8.31,17.08 8.08,16.95 7.84,16.82 7.64,16.64 7.44,16.46 7.29,16.23 7.15,16.01 7.05,15.76 6.96,15.51 7.35,13.64 7.74,11.77 8.40,9.99 9.06,8.20 9.54,6.61 10.02,5.02 10.22,3.95 10.41,2.87 10.72,2.41 11.03,1.95 11.10,1.70 11.18,1.46 11.31,1.24 11.44,1.02 11.62,0.83 11.80,0.65 12.02,0.52 12.24,0.38 12.49,0.31 12.73,0.23 12.99,0.21 13.25,0.20 13.50,0.24 13.75,0.29 13.99,0.39 14.22,0.50 14.42,0.66 14.63,0.81 14.78,1.01 14.94,1.22 15.05,1.45 15.16,1.68 15.20,1.94 15.25,2.19 15.23,2.44 15.22,2.70 16.59,4.61 17.96,6.52 18.46,7.86 18.96,9.20 20.38,10.01 21.79,10.83 23.44,10.38 25.08,9.93 26.87,8.77 28.66,7.60 30.06,6.08 31.47,4.55 31.96,2.96 32.45,1.36 32.55,0.23 32.65,-0.88 32.11,1.68 31.57,4.25 31.23,5.83 30.89,7.41 31.19,8.58 31.48,9.74 32.38,7.85 33.28,5.96 33.54,4.70 33.79,3.44 33.91,3.24 34.03,3.03 34.20,2.85 34.37,2.68 34.58,2.55 34.79,2.43 35.02,2.35 35.25,2.28 35.49,2.26 35.73,2.24 35.97,2.28 36.21,2.32 36.43,2.42 36.65,2.52 36.84,2.67 37.04,2.81 37.19,3.00 37.34,3.19 37.44,3.41 37.54,3.63 37.59,3.87 37.64,4.11 37.62,4.35 37.61,4.59 37.54,4.82 37.47,5.06 40.56,4.96 43.64,4.86 45.21,5.46 46.78,6.06 46.97,6.15 47.16,6.24 47.31,6.38 47.47,6.53 47.57,6.72 47.66,6.91 47.70,7.12 47.73,7.33 47.69,7.54 47.66,7.75 47.56,7.93 47.46,8.12 47.30,8.27 47.15,8.41 46.95,8.50 46.76,8.59 46.55,8.61 46.34,8.63 46.13,8.58 45.92,8.54 45.74,8.42 45.56,8.31 45.42,8.15 45.29,7.99 45.21,7.79 45.13,7.59 45.12,7.38 45.11,7.17 45.17,6.96 45.23,6.76 45.35,6.58 45.47,6.41 45.64,6.28 45.81,6.15 46.01,6.09 46.21,6.02 46.43,6.02 46.64,6.02 46.84,6.09 47.04,6.16 47.21,6.29 47.38,6.42 47.49,6.60 47.61,6.77 47.67,6.98 47.72,7.19 47.71,7.40 47.70,7.61 47.62,7.81 47.54,8.00 47.40,8.16 47.26,8.33 47.08,8.43 46.90,8.54 46.69,8.59 46.48,8.63 46.27,8.61 46.06,8.58 46.06,8.58 46.06,8.58 44.41,8.27 42.76,7.95 38.27,5.70 33.79,3.44 33.91,3.24 34.03,3.03 34.20,2.85 34.37,2.68 34.58,2.55 34.79,2.43 35.02,2.35 35.25,2.28 35.49,2.26 35.73,2.24 35.97,2.28 36.21,2.32 36.43,2.42 36.65,2.52 36.84,2.67 37.04,2.81 37.19,3.00 37.34,3.19 37.44,3.41 37.54,3.63 37.59,3.87 37.64,4.11 37.62,4.35 37.61,4.59 37.54,4.82 37.47,5.06 37.23,6.31 36.99,7.56 36.26,9.14 35.54,10.72 34.23,11.97 32.92,13.22 31.32,13.28 29.72,13.33 28.17,11.87 26.63,10.41 26.48,8.41 26.34,6.40 26.84,4.35 27.34,2.29 28.61,-0.12 29.89,-2.55 31.20,-3.36 32.50,-4.16 34.48,-3.05 36.47,-1.93 36.53,-0.79 36.59,0.34 36.28,1.47 35.97,2.60 35.12,4.78 34.28,6.95 32.55,8.89 30.82,10.82 28.46,12.39 26.11,13.96 23.43,14.51 20.74,15.07 18.92,14.37 17.09,13.68 15.93,12.28 14.76,10.88 14.27,9.58 13.78,8.27 13.15,6.40 12.51,4.53 11.77,3.24 11.03,1.95 11.10,1.70 11.18,1.46 11.31,1.24 11.44,1.02 11.62,0.83 11.80,0.65 12.02,0.52 12.24,0.38 12.49,0.31 12.73,0.23 12.99,0.21 13.25,0.20 13.50,0.24 13.75,0.29 13.99,0.39 14.22,0.50 14.42,0.66 14.62,0.81 14.78,1.01 14.94,1.22 15.05,1.45 15.16,1.68 15.20,1.94 15.25,2.19 15.23,2.44 15.22,2.70 14.89,3.22 14.56,3.75 14.34,4.99 14.12,6.24 13.62,7.95 13.11,9.65 12.21,12.08 11.30,14.50 11.33,14.77 11.36,15.04 11.32,15.30 11.29,15.57 11.19,15.82 11.09,16.07 10.93,16.29 10.78,16.51 10.57,16.68 10.37,16.86 10.13,16.98 9.89,17.10 9.63,17.16 9.37,17.22 9.10,17.22 8.83,17.21 8.57,17.14 8.31,17.08 8.08,16.95 7.84,16.82 7.64,16.64 7.44,16.46 7.29,16.23 7.15,16.01 7.05,15.76 6.96,15.51 6.90,15.73 6.83,15.95 6.38,14.85 5.92,13.76 5.44,12.22 4.96,10.69 4.43,8.41 3.91,6.12 3.33,3.65 2.74,1.17 3.23,0.06 3.73,-1.03 3.10,0.14 2.48,1.33 2.51,1.58 2.54,1.83 2.51,2.08 2.49,2.33 2.40,2.56 2.31,2.80 2.17,3.01 2.02,3.22 1.84,3.38 1.65,3.55 1.42,3.67 1.20,3.79 0.96,3.85 0.71,3.91 0.46,3.91 0.21,3.91 -0.02,3.85 -0.27,3.79 -0.49,3.67 -0.72,3.56 -0.91,3.39 -1.09,3.23 -1.24,3.02 -1.38,2.81 -1.47,2.58 -1.56,2.34 -1.66,1.39 -1.75,0.43 -1.78,0.22 -1.81,0.00 -1.78,-0.21 -1.76,-0.42 -1.68,-0.63 -1.60,-0.83 -1.48,-1.01 -1.35,-1.19 -1.19,-1.34 -1.03,-1.48 -0.84,-1.58 -0.64,-1.69 -0.43,-1.74 -0.22,-1.79 -0.00,-1.79 0.21,-1.79 0.42,-1.74 0.63,-1.69 0.83,-1.59 1.02,-1.49 1.18,-1.34 1.35,-1.20 1.47,-1.02 1.60,-0.84 1.67,-0.64 1.75,-0.43 1.75,-0.43 L 1.75,-0.43 Z"></path></g><g transform="translate(994 563.8125) rotate(0 16.4000244140625 3.199981689453125)" stroke="none"><path fill="#000" d="M 1.56,-0.93 Q 1.56,-0.93 3.12,1.25 4.68,3.45 5.82,6.45 6.96,9.45 7.64,11.35 8.32,13.25 8.53,14.81 8.74,16.37 7.22,17.82 5.70,19.28 4.55,18.91 3.40,18.53 2.58,16.64 1.77,14.75 1.57,12.03 1.38,9.32 2.30,6.50 3.21,3.69 4.61,1.53 6.02,-0.63 7.37,-2.06 8.72,-3.49 9.61,-4.16 10.50,-4.83 12.03,-5.02 13.55,-5.21 15.15,-3.89 16.75,-2.57 18.05,-0.49 19.36,1.58 20.38,3.64 21.39,5.70 21.86,7.15 22.33,8.61 22.55,9.76 22.76,10.92 22.56,12.23 22.36,13.54 22.19,13.24 22.03,12.93 22.02,13.20 22.02,13.47 21.95,13.73 21.89,13.98 21.76,14.22 21.64,14.45 21.46,14.65 21.28,14.85 21.06,15.00 20.84,15.15 20.59,15.24 20.34,15.33 20.07,15.36 19.81,15.39 19.54,15.36 19.28,15.32 19.03,15.22 18.78,15.13 18.57,14.97 18.35,14.82 18.17,14.62 18.00,14.42 17.88,14.18 17.75,13.94 17.69,13.69 17.63,13.43 17.41,11.12 17.18,8.82 18.64,4.98 20.09,1.15 21.68,-1.77 23.26,-4.70 24.94,-6.75 26.62,-8.80 29.03,-10.66 31.45,-12.53 31.62,-12.65 31.80,-12.76 32.00,-12.82 32.21,-12.88 32.42,-12.87 32.63,-12.86 32.83,-12.78 33.03,-12.70 33.19,-12.56 33.35,-12.43 33.46,-12.24 33.57,-12.06 33.62,-11.85 33.66,-11.65 33.64,-11.44 33.62,-11.22 33.53,-11.03 33.44,-10.84 33.29,-10.68 33.15,-10.53 32.96,-10.43 32.77,-10.33 32.56,-10.29 32.35,-10.26 32.14,-10.29 31.93,-10.33 31.75,-10.43 31.56,-10.53 31.41,-10.68 31.27,-10.84 31.18,-11.03 31.09,-11.22 31.06,-11.43 31.04,-11.64 31.09,-11.85 31.13,-12.06 31.24,-12.24 31.35,-12.42 31.51,-12.56 31.67,-12.70 31.87,-12.78 32.07,-12.86 32.28,-12.87 32.49,-12.88 32.70,-12.82 32.90,-12.77 33.08,-12.65 33.25,-12.53 33.38,-12.36 33.51,-12.19 33.58,-11.99 33.65,-11.79 33.65,-11.57 33.65,-11.36 33.58,-11.16 33.51,-10.96 33.38,-10.79 33.26,-10.62 33.26,-10.62 33.26,-10.62 31.41,-8.50 29.57,-6.38 28.14,-4.63 26.71,-2.87 25.31,-0.11 23.92,2.64 22.68,5.71 21.44,8.77 21.73,10.85 22.03,12.93 22.02,13.20 22.02,13.47 21.95,13.73 21.89,13.98 21.76,14.22 21.64,14.45 21.46,14.65 21.28,14.85 21.06,15.00 20.84,15.15 20.59,15.24 20.34,15.33 20.07,15.36 19.81,15.39 19.54,15.36 19.28,15.32 19.03,15.23 18.78,15.13 18.57,14.97 18.35,14.82 18.17,14.62 18.00,14.42 17.88,14.18 17.75,13.95 17.69,13.69 17.63,13.43 17.84,11.69 18.05,9.95 17.70,8.81 17.36,7.67 16.45,5.79 15.54,3.92 13.58,1.61 11.63,-0.69 10.51,0.45 9.40,1.59 8.24,3.33 7.09,5.07 6.32,7.11 5.55,9.14 5.72,11.34 5.89,13.55 4.99,14.15 4.08,14.76 3.41,12.89 2.74,11.01 1.78,8.38 0.83,5.74 -0.36,3.34 -1.56,0.93 -1.65,0.73 -1.74,0.53 -1.78,0.32 -1.82,0.10 -1.80,-0.11 -1.79,-0.33 -1.72,-0.54 -1.66,-0.75 -1.54,-0.94 -1.43,-1.13 -1.27,-1.28 -1.12,-1.44 -0.93,-1.55 -0.74,-1.66 -0.53,-1.73 -0.32,-1.79 -0.10,-1.80 0.11,-1.82 0.33,-1.78 0.54,-1.74 0.74,-1.64 0.94,-1.55 1.12,-1.42 1.29,-1.28 1.43,-1.11 1.56,-0.93 1.56,-0.93 L 1.56,-0.93 Z"></path></g><g transform="translate(1029.2000732421875 565.4124755859375) rotate(0 -0.4000244140625 5.20001220703125)" stroke="none"><path fill="#000" d="M 1.91,0.14 Q 1.91,0.14 1.28,4.38 0.65,8.62 0.60,8.82 0.55,9.03 0.43,9.21 0.32,9.39 0.16,9.52 -0.00,9.66 -0.20,9.73 -0.40,9.81 -0.61,9.81 -0.82,9.82 -1.03,9.76 -1.23,9.70 -1.40,9.57 -1.58,9.45 -1.70,9.28 -1.82,9.11 -1.89,8.90 -1.95,8.70 -1.95,8.49 -1.94,8.27 -1.87,8.07 -1.80,7.88 -1.66,7.71 -1.53,7.54 -1.35,7.43 -1.17,7.31 -0.97,7.26 -0.76,7.21 -0.55,7.22 -0.34,7.24 -0.14,7.32 0.04,7.41 0.20,7.55 0.36,7.69 0.46,7.87 0.57,8.06 0.61,8.27 0.65,8.48 0.62,8.69 0.60,8.90 0.50,9.09 0.41,9.28 0.26,9.43 0.11,9.58 -0.07,9.68 -0.26,9.77 -0.47,9.80 -0.68,9.83 -0.89,9.79 -1.10,9.75 -1.28,9.65 -1.47,9.54 -1.61,9.39 -1.75,9.23 -1.84,9.03 -1.92,8.84 -1.94,8.63 -1.96,8.42 -1.96,8.42 -1.96,8.42 -1.94,4.13 -1.91,-0.14 -1.87,-0.37 -1.82,-0.60 -1.72,-0.81 -1.62,-1.02 -1.48,-1.20 -1.33,-1.38 -1.15,-1.52 -0.96,-1.66 -0.75,-1.75 -0.54,-1.84 -0.31,-1.88 -0.08,-1.92 0.14,-1.90 0.37,-1.88 0.59,-1.81 0.81,-1.74 1.01,-1.61 1.21,-1.49 1.37,-1.32 1.53,-1.16 1.65,-0.96 1.76,-0.76 1.83,-0.53 1.89,-0.31 1.90,-0.08 1.91,0.14 1.91,0.14 L 1.91,0.14 Z"></path></g><g transform="translate(1030.800048828125 552.6124877929688) rotate(0 0.79998779296875 0)" stroke="none"><path fill="#000" d="M 1.99,-0.62 Q 1.99,-0.62 2.02,-0.12 2.05,0.37 1.84,0.83 1.64,1.28 1.25,1.59 0.85,1.90 0.36,1.99 -0.12,2.08 -0.60,1.93 -1.08,1.78 -1.43,1.43 -1.78,1.08 -1.93,0.60 -2.08,0.12 -1.99,-0.36 -1.90,-0.85 -1.59,-1.25 -1.28,-1.64 -0.83,-1.84 -0.37,-2.05 0.12,-2.02 0.62,-1.99 1.04,-1.73 1.47,-1.47 1.73,-1.04 L 1.99,-0.62 Z"></path></g><g transform="translate(1040.4000244140625 568.6124877929688) rotate(0 15.20001220703125 -12.399993896484375)" stroke="none"><path fill="#000" d="M 0.93,-0.93 Q 0.93,-0.93 1.77,-0.82 2.61,-0.71 3.41,0.85 4.22,2.42 5.48,3.03 6.74,3.64 8.64,3.98 10.54,4.31 12.99,3.85 15.43,3.40 18.03,2.38 20.63,1.36 22.49,-0.28 24.35,-1.94 25.25,-2.96 26.14,-3.99 26.34,-4.12 26.54,-4.26 26.77,-4.34 26.99,-4.43 27.23,-4.46 27.47,-4.49 27.71,-4.46 27.95,-4.43 28.18,-4.34 28.40,-4.25 28.60,-4.12 28.80,-3.98 28.96,-3.80 29.12,-3.62 29.23,-3.40 29.34,-3.19 29.40,-2.95 29.45,-2.72 29.45,-2.48 29.45,-2.24 29.39,-2.00 29.33,-1.77 29.22,-1.56 29.11,-1.34 28.95,-1.16 28.79,-0.98 26.97,-1.28 25.14,-1.58 23.70,-0.95 22.26,-0.32 23.43,-0.47 24.60,-0.61 25.66,-2.03 26.73,-3.44 27.14,-5.64 27.56,-7.84 27.78,-11.53 28.01,-15.22 27.42,-19.42 26.82,-23.62 26.33,-25.82 25.83,-28.01 25.29,-28.58 24.75,-29.14 24.72,-29.42 24.70,-29.70 24.75,-29.98 24.79,-30.26 24.90,-30.52 25.01,-30.78 25.18,-31.00 25.35,-31.23 25.57,-31.41 25.78,-31.59 26.04,-31.71 26.29,-31.83 26.57,-31.88 26.84,-31.94 27.13,-31.93 27.41,-31.92 27.68,-31.84 27.95,-31.76 28.19,-31.62 28.44,-31.48 28.64,-31.29 28.84,-31.09 28.99,-30.85 29.14,-30.62 29.23,-30.35 29.32,-30.08 29.16,-19.97 28.99,-9.86 29.06,-5.65 29.13,-1.45 29.11,-1.24 29.08,-1.03 28.98,-0.84 28.89,-0.65 28.74,-0.50 28.59,-0.35 28.40,-0.25 28.21,-0.16 28.00,-0.13 27.79,-0.10 27.58,-0.14 27.37,-0.18 27.18,-0.28 27.00,-0.39 26.86,-0.55 26.72,-0.70 26.63,-0.90 26.55,-1.09 26.53,-1.31 26.51,-1.52 26.56,-1.72 26.61,-1.93 26.73,-2.11 26.84,-2.29 27.01,-2.42 27.17,-2.55 27.37,-2.63 27.57,-2.70 27.79,-2.71 28.00,-2.71 28.20,-2.65 28.40,-2.59 28.58,-2.46 28.75,-2.34 28.87,-2.17 29.00,-2.00 29.06,-1.79 29.12,-1.59 29.12,-1.38 29.11,-1.16 29.04,-0.97 28.97,-0.77 28.83,-0.60 28.70,-0.43 28.52,-0.32 28.34,-0.21 28.14,-0.15 27.93,-0.10 27.72,-0.12 27.51,-0.14 27.31,-0.22 27.11,-0.30 26.96,-0.45 26.80,-0.59 26.69,-0.77 26.59,-0.96 26.55,-1.17 26.51,-1.38 26.51,-1.38 26.51,-1.37 26.35,-5.58 26.18,-9.78 25.46,-19.46 24.75,-29.14 24.72,-29.42 24.70,-29.70 24.75,-29.98 24.79,-30.26 24.90,-30.52 25.01,-30.78 25.18,-31.00 25.35,-31.23 25.57,-31.41 25.78,-31.58 26.04,-31.71 26.29,-31.83 26.57,-31.88 26.84,-31.94 27.13,-31.93 27.41,-31.92 27.68,-31.84 27.95,-31.76 28.19,-31.62 28.44,-31.48 28.64,-31.29 28.84,-31.09 28.99,-30.85 29.14,-30.62 29.23,-30.35 29.32,-30.08 29.65,-29.59 29.97,-29.10 30.43,-26.63 30.89,-24.16 31.47,-19.57 32.04,-14.98 31.76,-10.96 31.49,-6.95 30.72,-4.01 29.96,-1.06 28.25,0.96 26.55,2.99 24.34,3.93 22.12,4.87 20.29,4.36 18.47,3.85 17.67,2.55 16.86,1.25 17.41,-0.74 17.96,-2.74 19.13,-3.71 20.30,-4.67 22.28,-5.32 24.26,-5.96 25.20,-4.97 26.14,-3.99 26.34,-4.12 26.54,-4.26 26.77,-4.34 26.99,-4.43 27.23,-4.46 27.47,-4.49 27.71,-4.46 27.95,-4.43 28.18,-4.34 28.40,-4.25 28.60,-4.12 28.80,-3.98 28.96,-3.80 29.12,-3.62 29.23,-3.40 29.34,-3.19 29.40,-2.95 29.45,-2.72 29.45,-2.48 29.45,-2.24 29.39,-2.00 29.33,-1.77 29.22,-1.56 29.11,-1.34 28.95,-1.16 28.79,-0.98 27.89,0.03 26.99,1.05 24.62,3.11 22.25,5.18 19.23,6.43 16.21,7.68 13.01,8.23 9.80,8.78 7.08,8.24 4.35,7.70 2.29,6.24 0.24,4.79 -0.26,3.67 -0.77,2.55 -0.85,1.74 -0.93,0.93 -1.03,0.81 -1.13,0.68 -1.19,0.53 -1.26,0.39 -1.29,0.23 -1.32,0.07 -1.31,-0.07 -1.30,-0.23 -1.25,-0.39 -1.20,-0.54 -1.12,-0.68 -1.04,-0.81 -0.92,-0.92 -0.81,-1.04 -0.68,-1.12 -0.54,-1.20 -0.39,-1.25 -0.23,-1.30 -0.07,-1.31 0.08,-1.32 0.23,-1.29 0.39,-1.26 0.53,-1.19 0.68,-1.13 0.81,-1.03 0.93,-0.93 0.93,-0.93 L 0.93,-0.93 Z"></path></g><g transform="translate(941.2000122070312 564.6124877929688) rotate(0 -2.79998779296875 11.600006103515625)" stroke="none"><path fill="#000" d="M 1.58,0.41 Q 1.58,0.41 0.22,6.68 -1.13,12.96 -1.81,15.80 -2.49,18.64 -2.77,20.45 -3.05,22.25 -2.96,22.44 -2.87,22.63 -2.85,22.85 -2.82,23.06 -2.86,23.26 -2.91,23.47 -3.02,23.66 -3.13,23.84 -3.29,23.98 -3.45,24.12 -3.64,24.20 -3.84,24.28 -4.05,24.29 -4.27,24.30 -4.47,24.25 -4.68,24.19 -4.85,24.07 -5.03,23.96 -5.16,23.79 -5.29,23.62 -5.36,23.42 -5.43,23.22 -5.43,23.00 -5.43,22.79 -5.36,22.59 -5.30,22.39 -5.17,22.22 -5.04,22.05 -4.87,21.93 -4.69,21.81 -4.49,21.75 -4.28,21.69 -4.07,21.70 -3.86,21.71 -3.66,21.79 -3.46,21.87 -3.30,22.00 -3.14,22.14 -3.03,22.32 -2.92,22.50 -2.87,22.71 -2.82,22.91 -2.84,23.13 -2.86,23.34 -2.95,23.53 -3.04,23.72 -3.19,23.88 -3.33,24.04 -3.52,24.14 -3.70,24.24 -3.91,24.27 -4.12,24.31 -4.33,24.28 -4.54,24.24 -4.73,24.14 -4.92,24.05 -5.07,23.89 -5.21,23.74 -5.21,23.74 -5.21,23.74 -5.94,20.70 -6.67,17.66 -5.99,14.77 -5.30,11.87 -3.44,5.73 -1.58,-0.41 -1.51,-0.59 -1.44,-0.77 -1.32,-0.94 -1.21,-1.10 -1.06,-1.23 -0.91,-1.36 -0.73,-1.45 -0.56,-1.53 -0.37,-1.58 -0.17,-1.62 0.01,-1.62 0.21,-1.62 0.40,-1.57 0.59,-1.52 0.77,-1.43 0.94,-1.33 1.09,-1.20 1.24,-1.07 1.35,-0.90 1.46,-0.74 1.52,-0.55 1.59,-0.37 1.61,-0.17 1.63,0.01 1.61,0.21 1.58,0.41 1.58,0.41 L 1.58,0.41 Z"></path></g><g transform="translate(985.2000732421875 586.2124633789062) rotate(0 -3.20001220703125 14.800018310546875)" stroke="none"><path fill="#000" d="M 1.68,0.84 Q 1.68,0.84 0.98,2.78 0.28,4.72 -0.20,7.10 -0.69,9.48 -1.39,12.45 -2.09,15.42 -2.61,18.65 -3.12,21.88 -3.34,23.92 -3.57,25.96 -3.95,26.73 -4.34,27.50 -4.13,27.52 -3.92,27.54 -3.72,27.63 -3.53,27.72 -3.37,27.86 -3.22,28.00 -3.11,28.19 -3.01,28.38 -2.97,28.59 -2.94,28.80 -2.97,29.01 -3.00,29.22 -3.10,29.41 -3.20,29.59 -3.35,29.74 -3.50,29.89 -3.69,29.98 -3.89,30.07 -4.10,30.10 -4.31,30.12 -4.51,30.08 -4.72,30.04 -4.91,29.93 -5.09,29.82 -5.23,29.66 -5.37,29.50 -5.45,29.31 -5.53,29.11 -5.54,28.90 -5.56,28.69 -5.50,28.48 -5.45,28.27 -5.33,28.10 -5.22,27.92 -5.05,27.79 -4.88,27.66 -4.68,27.59 -4.48,27.52 -4.27,27.52 -4.05,27.51 -3.85,27.58 -3.65,27.64 -3.48,27.77 -3.31,27.90 -3.19,28.07 -3.07,28.25 -3.01,28.45 -2.95,28.65 -2.96,28.87 -2.97,29.08 -3.04,29.28 -3.12,29.48 -3.25,29.64 -3.39,29.80 -3.57,29.91 -3.75,30.03 -3.96,30.07 -4.16,30.12 -4.16,30.12 -4.16,30.12 -6.36,27.77 -8.55,25.41 -8.31,23.25 -8.08,21.08 -7.52,17.66 -6.96,14.23 -6.21,11.29 -5.46,8.35 -4.71,5.49 -3.96,2.63 -2.82,0.89 -1.68,-0.84 -1.55,-1.03 -1.43,-1.21 -1.26,-1.37 -1.09,-1.52 -0.90,-1.63 -0.70,-1.74 -0.48,-1.80 -0.26,-1.86 -0.03,-1.86 0.19,-1.87 0.41,-1.82 0.63,-1.77 0.83,-1.67 1.03,-1.56 1.21,-1.42 1.38,-1.27 1.51,-1.09 1.64,-0.90 1.73,-0.69 1.81,-0.48 1.84,-0.26 1.88,-0.03 1.85,0.18 1.83,0.41 1.75,0.62 1.68,0.84 1.68,0.84 L 1.68,0.84 Z"></path></g><g transform="translate(976.4000244140625 603.8125) rotate(0 16.79998779296875 -3.20001220703125)" stroke="none"><path fill="#000" d="M 0,-1.91 Q 0,-1.91 2.29,-2.06 4.59,-2.21 12.88,-2.58 21.16,-2.94 24.55,-3.32 27.95,-3.71 26.41,-3.80 24.87,-3.90 23.68,-3.37 22.50,-2.85 21.55,-1.56 20.59,-0.28 20.52,-0.08 20.44,0.11 20.31,0.27 20.17,0.44 19.99,0.55 19.81,0.66 19.61,0.71 19.40,0.76 19.19,0.74 18.98,0.73 18.78,0.64 18.59,0.56 18.43,0.41 18.27,0.27 18.17,0.09 18.07,-0.09 18.03,-0.30 17.99,-0.51 18.02,-0.72 18.05,-0.93 18.14,-1.12 18.24,-1.31 18.39,-1.46 18.54,-1.61 18.73,-1.70 18.92,-1.79 19.13,-1.82 19.34,-1.85 19.55,-1.81 19.76,-1.77 19.95,-1.66 20.13,-1.56 20.27,-1.40 20.41,-1.24 20.50,-1.04 20.58,-0.85 20.59,-0.63 20.61,-0.42 20.56,-0.22 20.51,-0.01 20.39,0.16 20.27,0.34 20.11,0.47 19.94,0.60 19.74,0.67 19.54,0.74 19.33,0.75 19.12,0.75 18.91,0.69 18.71,0.63 18.54,0.50 18.37,0.38 18.25,0.20 18.12,0.03 18.06,-0.16 18.00,-0.37 18.01,-0.58 18.01,-0.79 18.01,-0.79 18.01,-0.79 19.43,-3.86 20.84,-6.92 23.00,-7.60 25.17,-8.28 27.33,-7.93 29.50,-7.57 30.71,-6.62 31.91,-5.67 31.97,-4.11 32.03,-2.56 30.40,-1.19 28.77,0.16 25.08,0.63 21.38,1.10 12.99,1.66 4.60,2.21 2.30,2.06 0,1.91 -0.22,1.88 -0.45,1.86 -0.67,1.77 -0.89,1.69 -1.08,1.56 -1.27,1.43 -1.42,1.26 -1.57,1.08 -1.68,0.88 -1.79,0.67 -1.84,0.45 -1.90,0.23 -1.90,-0.00 -1.90,-0.23 -1.84,-0.45 -1.79,-0.67 -1.68,-0.88 -1.57,-1.08 -1.42,-1.26 -1.27,-1.43 -1.08,-1.56 -0.89,-1.69 -0.67,-1.77 -0.45,-1.86 -0.22,-1.88 0.00,-1.91 0.00,-1.91 L 0,-1.91 Z"></path></g><g transform="translate(1006 598.2124633789062) rotate(0 7.60003662109375 5.600006103515625)" stroke="none"><path fill="#000" d="M 1.29,0.86 Q 1.29,0.86 0.61,2.37 -0.06,3.89 -0.30,5.10 -0.53,6.31 -0.91,7.87 -1.29,9.44 -1.39,9.68 -1.49,9.93 -1.64,10.14 -1.79,10.36 -1.99,10.53 -2.19,10.70 -2.42,10.82 -2.66,10.94 -2.92,11.00 -3.17,11.06 -3.44,11.06 -3.70,11.06 -3.95,10.99 -4.21,10.92 -4.44,10.80 -4.67,10.67 -4.87,10.50 -5.06,10.32 -5.21,10.10 -5.36,9.88 -5.45,9.63 -5.54,9.39 -5.57,9.12 -5.60,8.86 -5.56,8.60 -5.53,8.34 1.95,7.36 9.43,6.37 11.13,5.44 12.83,4.51 11.63,4.58 10.42,4.65 8.97,4.59 7.51,4.52 6.07,4.49 4.62,4.45 3.41,4.44 2.19,4.43 0.49,3.01 -1.20,1.58 -1.18,1.37 -1.16,1.16 -1.07,0.97 -0.99,0.77 -0.84,0.61 -0.70,0.46 -0.51,0.35 -0.33,0.25 -0.12,0.21 0.08,0.18 0.29,0.21 0.50,0.24 0.69,0.33 0.88,0.43 1.03,0.58 1.18,0.73 1.27,0.92 1.36,1.12 1.39,1.33 1.41,1.54 1.37,1.75 1.33,1.95 1.22,2.14 1.12,2.32 0.96,2.46 0.80,2.60 0.60,2.68 0.41,2.77 0.19,2.78 -0.01,2.80 -0.21,2.74 -0.42,2.69 -0.60,2.57 -0.77,2.46 -0.91,2.29 -1.04,2.12 -1.11,1.92 -1.18,1.72 -1.18,1.51 -1.19,1.30 -1.12,1.10 -1.06,0.89 -0.93,0.72 -0.81,0.55 -0.63,0.43 -0.46,0.31 -0.26,0.25 -0.05,0.19 0.15,0.19 0.36,0.20 0.56,0.28 0.76,0.35 0.92,0.49 1.09,0.62 1.20,0.80 1.31,0.98 1.36,1.19 1.41,1.40 1.41,1.40 1.41,1.40 1.33,0.90 1.25,0.40 2.53,0.38 3.81,0.36 5.14,0.34 6.48,0.33 7.91,0.37 9.34,0.41 11.27,0.71 13.20,1.00 14.86,2.23 16.52,3.45 16.62,4.51 16.72,5.58 15.67,6.85 14.63,8.12 12.18,9.25 9.74,10.38 4.22,9.91 -1.29,9.44 -1.39,9.68 -1.49,9.93 -1.64,10.14 -1.79,10.36 -1.99,10.53 -2.19,10.70 -2.42,10.82 -2.66,10.94 -2.92,11.00 -3.17,11.06 -3.44,11.06 -3.70,11.06 -3.95,10.99 -4.21,10.92 -4.44,10.80 -4.67,10.67 -4.87,10.50 -5.06,10.32 -5.21,10.10 -5.36,9.88 -5.45,9.63 -5.54,9.39 -5.57,9.12 -5.60,8.86 -5.56,8.60 -5.53,8.34 -5.11,6.78 -4.70,5.23 -4.15,3.42 -3.61,1.62 -2.45,0.38 -1.29,-0.86 -1.17,-1.00 -1.05,-1.14 -0.89,-1.25 -0.74,-1.36 -0.57,-1.43 -0.39,-1.50 -0.21,-1.53 -0.02,-1.55 0.16,-1.53 0.34,-1.51 0.52,-1.45 0.70,-1.38 0.85,-1.28 1.01,-1.18 1.13,-1.04 1.26,-0.90 1.35,-0.73 1.44,-0.57 1.49,-0.39 1.54,-0.21 1.54,-0.02 1.54,0.16 1.50,0.34 1.46,0.52 1.37,0.69 1.29,0.86 1.29,0.86 L 1.29,0.86 Z"></path></g></svg>