<svg version="1.1" xmlns="http://www.w3.org/2000/svg" viewBox="0 0 10020 732.4000938964843" width="10020" height="732.4000938964843">
  <!-- svg-source:excalidraw -->
  
  <defs>
    <style>
      @font-face {
        font-family: "Virgil";
        src: url("https://excalidraw.com/Virgil.woff2");
      }
      @font-face {
        font-family: "Cascadia";
        src: url("https://excalidraw.com/Cascadia.woff2");
      }
    </style>
  </defs>
  <rect x="0" y="0" width="10020" height="732.4000938964843" fill="#fff0"></rect><g stroke-linecap="round" transform="translate(10 10) rotate(0 5000 0.5)"><path d="M-0.52 -0.26 C3022.65 -30.2, 6044.59 -29.2, 9999.32 0.22 M0.38 -0.31 C3948.03 -0.44, 7895.41 0.2, 9999.95 0.08 M10000.08 -0.06 C10000.09 0.27, 10000.05 0.48, 10000.09 0.92 M9999.97 0.01 C9999.95 0.33, 9999.98 0.72, 10000 0.99 M10000.22 1.51 C7095.77 35.76, 4193.15 34.95, -0.25 0.75 M10000.01 1.13 C7827.97 2.74, 5656.23 3.35, -0.33 0.84 M-0.04 1.01 C0 0.63, -0.06 0.15, 0.05 -0.03 M-0.04 0.95 C-0.04 0.73, -0.03 0.59, -0.05 -0.02" stroke="transparent" stroke-width="1" fill="none"></path></g><g transform="translate(832.4000244140625 538.3999938964844) rotate(0 0.399993896484375 6.8000030517578125)" stroke="none"><path fill="#000" d="M 1.59,-0.22 Q 1.59,-0.22 1.98,1.35 2.38,2.94 2.45,5.10 2.52,7.25 2.30,9.85 2.08,12.44 2.05,12.65 2.02,12.86 1.93,13.05 1.83,13.24 1.68,13.39 1.53,13.54 1.34,13.63 1.15,13.72 0.94,13.75 0.73,13.78 0.52,13.74 0.31,13.70 0.13,13.59 -0.05,13.49 -0.19,13.33 -0.33,13.17 -0.41,12.97 -0.50,12.78 -0.51,12.57 -0.53,12.35 -0.48,12.15 -0.43,11.94 -0.31,11.76 -0.20,11.58 -0.03,11.45 0.13,11.32 0.33,11.25 0.53,11.18 0.74,11.17 0.95,11.17 1.15,11.23 1.36,11.29 1.53,11.42 1.70,11.54 1.82,11.71 1.95,11.89 2.01,12.09 2.07,12.29 2.06,12.51 2.06,12.72 1.98,12.92 1.91,13.12 1.78,13.28 1.64,13.45 1.46,13.56 1.28,13.67 1.08,13.72 0.87,13.78 0.66,13.76 0.45,13.74 0.25,13.65 0.06,13.57 -0.09,13.43 -0.25,13.28 -0.35,13.10 -0.46,12.91 -0.49,12.70 -0.53,12.50 -0.53,12.50 -0.53,12.50 -0.87,9.96 -1.21,7.43 -1.33,5.46 -1.46,3.49 -1.52,1.86 -1.59,0.22 -1.59,0.03 -1.60,-0.16 -1.56,-0.34 -1.51,-0.53 -1.43,-0.71 -1.34,-0.88 -1.21,-1.03 -1.09,-1.18 -0.93,-1.29 -0.77,-1.41 -0.59,-1.48 -0.41,-1.55 -0.22,-1.58 -0.03,-1.61 0.15,-1.59 0.35,-1.57 0.53,-1.50 0.71,-1.44 0.88,-1.33 1.04,-1.22 1.17,-1.08 1.30,-0.94 1.39,-0.77 1.49,-0.60 1.54,-0.41 1.59,-0.22 1.59,-0.22 L 1.59,-0.22 Z"></path></g><g transform="translate(831.6000366210938 586.3999938964844) rotate(0 1.199981689453125 3.600006103515625)" stroke="none"><path fill="#000" d="M 1.85,-0.61 Q 1.85,-0.61 0.59,0.77 -0.65,2.17 -0.69,1.96 -0.72,1.75 -0.69,1.54 -0.65,1.33 -0.55,1.14 -0.45,0.96 -0.30,0.81 -0.14,0.67 0.04,0.58 0.23,0.49 0.45,0.47 0.66,0.44 0.86,0.49 1.07,0.54 1.25,0.65 1.44,0.76 1.57,0.92 1.71,1.08 1.79,1.28 1.87,1.48 1.88,1.69 1.89,1.90 1.83,2.11 1.77,2.31 1.65,2.49 1.53,2.66 1.36,2.79 1.19,2.92 0.99,2.98 0.79,3.05 0.58,3.05 0.36,3.05 0.16,2.98 -0.03,2.91 -0.20,2.78 -0.37,2.65 -0.48,2.48 -0.60,2.30 -0.66,2.10 -0.71,1.89 -0.70,1.68 -0.69,1.47 -0.61,1.27 -0.53,1.07 -0.39,0.91 -0.26,0.75 -0.07,0.64 0.10,0.53 0.31,0.49 0.51,0.44 0.73,0.47 0.94,0.49 1.13,0.58 1.32,0.67 1.48,0.82 1.63,0.96 1.73,1.15 1.83,1.34 1.83,1.34 1.83,1.34 -0.01,0.98 -1.85,0.61 -1.90,0.38 -1.94,0.15 -1.93,-0.07 -1.92,-0.31 -1.86,-0.54 -1.79,-0.76 -1.68,-0.97 -1.56,-1.17 -1.39,-1.34 -1.23,-1.51 -1.03,-1.64 -0.83,-1.76 -0.61,-1.84 -0.39,-1.91 -0.15,-1.93 0.07,-1.95 0.31,-1.91 0.54,-1.87 0.76,-1.78 0.97,-1.69 1.16,-1.55 1.35,-1.40 1.50,-1.22 1.65,-1.04 1.75,-0.83 1.85,-0.61 1.85,-0.61 L 1.85,-0.61 Z"></path></g><g transform="translate(833.2000122070312 613.6000061035156) rotate(0 -0.79998779296875 5.1999969482421875)" stroke="none"><path fill="#000" d="M 1.87,0.41 Q 1.87,0.41 1.35,2.47 0.83,4.52 0.32,6.96 -0.17,9.41 -0.22,9.61 -0.28,9.82 -0.40,9.99 -0.52,10.17 -0.69,10.30 -0.86,10.42 -1.06,10.49 -1.26,10.56 -1.47,10.56 -1.68,10.56 -1.89,10.49 -2.09,10.42 -2.26,10.30 -2.43,10.17 -2.54,9.99 -2.66,9.82 -2.72,9.61 -2.78,9.41 -2.77,9.19 -2.75,8.98 -2.68,8.78 -2.60,8.59 -2.46,8.43 -2.32,8.26 -2.14,8.15 -1.96,8.04 -1.75,8.00 -1.54,7.95 -1.33,7.98 -1.12,8.00 -0.93,8.09 -0.74,8.18 -0.58,8.32 -0.43,8.47 -0.33,8.66 -0.23,8.85 -0.19,9.05 -0.16,9.26 -0.19,9.47 -0.23,9.68 -0.33,9.87 -0.43,10.06 -0.58,10.21 -0.74,10.35 -0.93,10.44 -1.12,10.53 -1.33,10.55 -1.54,10.58 -1.75,10.53 -1.96,10.48 -2.14,10.37 -2.32,10.27 -2.46,10.10 -2.60,9.94 -2.68,9.74 -2.75,9.55 -2.77,9.33 -2.78,9.12 -2.78,9.12 -2.78,9.12 -2.72,6.43 -2.67,3.75 -2.27,1.66 -1.87,-0.41 -1.79,-0.63 -1.71,-0.85 -1.59,-1.04 -1.46,-1.23 -1.29,-1.39 -1.12,-1.55 -0.92,-1.66 -0.72,-1.77 -0.49,-1.83 -0.27,-1.89 -0.04,-1.90 0.18,-1.90 0.41,-1.85 0.63,-1.80 0.84,-1.70 1.05,-1.60 1.22,-1.45 1.40,-1.30 1.54,-1.11 1.67,-0.92 1.76,-0.71 1.84,-0.50 1.88,-0.27 1.91,-0.04 1.89,0.18 1.87,0.41 1.87,0.41 L 1.87,0.41 Z"></path></g><g transform="translate(832.4000244140625 646.3999938964844) rotate(0 1.199981689453125 0.8000030517578125)" stroke="none"><path fill="#000" d="M 1.63,-0.50 Q 1.63,-0.50 1.65,-0.10 1.67,0.30 1.51,0.68 1.34,1.05 1.02,1.30 0.70,1.55 0.29,1.63 -0.10,1.70 -0.49,1.58 -0.88,1.46 -1.17,1.17 -1.46,0.88 -1.58,0.49 -1.70,0.10 -1.63,-0.29 -1.55,-0.70 -1.30,-1.02 -1.05,-1.34 -0.68,-1.51 -0.30,-1.68 0.10,-1.65 0.50,-1.63 0.85,-1.41 1.20,-1.20 1.41,-0.85 L 1.63,-0.50 Z"></path></g><g transform="translate(839.6000366210938 661.6000061035156) rotate(0 0.399993896484375 4)" stroke="none"><path fill="#000" d="M 1.93,-0.21 Q 1.93,-0.21 2.03,1.86 2.12,3.95 2.08,5.57 2.04,7.18 2.03,7.39 2.01,7.61 1.93,7.80 1.84,8.00 1.70,8.16 1.56,8.32 1.38,8.42 1.19,8.53 0.99,8.57 0.78,8.61 0.57,8.58 0.36,8.56 0.17,8.46 -0.02,8.37 -0.17,8.22 -0.32,8.07 -0.41,7.88 -0.51,7.69 -0.54,7.48 -0.57,7.27 -0.53,7.06 -0.49,6.85 -0.39,6.67 -0.29,6.48 -0.13,6.34 0.02,6.20 0.21,6.11 0.41,6.03 0.62,6.01 0.83,5.99 1.04,6.04 1.24,6.09 1.42,6.20 1.60,6.31 1.74,6.48 1.87,6.64 1.95,6.84 2.02,7.04 2.03,7.25 2.04,7.47 1.97,7.67 1.91,7.87 1.79,8.05 1.67,8.22 1.50,8.35 1.32,8.47 1.12,8.53 0.92,8.60 0.71,8.59 0.49,8.59 0.29,8.52 0.09,8.45 -0.06,8.31 -0.23,8.18 -0.34,8.00 -0.46,7.82 -0.51,7.62 -0.56,7.41 -0.56,7.41 -0.56,7.41 -0.88,5.87 -1.20,4.32 -1.57,2.27 -1.93,0.21 -1.93,-0.01 -1.93,-0.25 -1.87,-0.48 -1.81,-0.71 -1.70,-0.91 -1.59,-1.12 -1.43,-1.29 -1.27,-1.47 -1.08,-1.60 -0.88,-1.73 -0.66,-1.81 -0.44,-1.89 -0.21,-1.92 0.01,-1.95 0.25,-1.92 0.48,-1.88 0.70,-1.80 0.92,-1.71 1.11,-1.58 1.30,-1.44 1.46,-1.26 1.61,-1.09 1.72,-0.88 1.83,-0.67 1.88,-0.44 1.93,-0.21 1.93,-0.21 L 1.93,-0.21 Z"></path></g><g transform="translate(840.4000244140625 688) rotate(0 0.399993896484375 3.5999908447265625)" stroke="none"><path fill="#000" d="M 1.84,-0.20 Q 1.84,-0.20 0.36,0.84 -1.10,1.90 -1.09,1.69 -1.08,1.48 -1.00,1.28 -0.93,1.08 -0.79,0.92 -0.65,0.76 -0.47,0.65 -0.29,0.54 -0.08,0.49 0.12,0.44 0.33,0.47 0.54,0.49 0.73,0.58 0.93,0.67 1.08,0.81 1.23,0.96 1.33,1.14 1.43,1.33 1.47,1.54 1.50,1.75 1.47,1.96 1.44,2.17 1.34,2.36 1.24,2.55 1.08,2.69 0.93,2.84 0.74,2.93 0.54,3.02 0.33,3.04 0.12,3.07 -0.08,3.02 -0.28,2.98 -0.47,2.87 -0.65,2.76 -0.79,2.60 -0.92,2.43 -1.00,2.24 -1.08,2.04 -1.09,1.83 -1.11,1.62 -1.05,1.41 -0.99,1.21 -0.87,1.03 -0.75,0.85 -0.59,0.72 -0.42,0.60 -0.22,0.53 -0.01,0.46 0.19,0.46 0.40,0.46 0.60,0.53 0.80,0.59 0.97,0.72 1.14,0.85 1.26,1.02 1.38,1.20 1.44,1.41 1.50,1.61 1.50,1.61 1.50,1.61 -0.17,0.90 -1.84,0.20 -1.84,-0.01 -1.84,-0.24 -1.78,-0.46 -1.73,-0.67 -1.62,-0.87 -1.52,-1.07 -1.36,-1.23 -1.21,-1.40 -1.03,-1.53 -0.84,-1.65 -0.63,-1.73 -0.42,-1.81 -0.20,-1.83 0.01,-1.86 0.24,-1.83 0.46,-1.80 0.67,-1.72 0.88,-1.63 1.06,-1.50 1.24,-1.37 1.39,-1.21 1.54,-1.04 1.64,-0.84 1.74,-0.64 1.79,-0.42 1.84,-0.20 1.84,-0.20 L 1.84,-0.20 Z"></path></g><g transform="translate(607.6000366210938 671.1999816894531) rotate(0 -3.20001220703125 15.20001220703125)" stroke="none"><path fill="#000" d="M 1.74,0.72 Q 1.74,0.72 0.70,3.53 -0.33,6.33 -1.22,9.47 -2.12,12.61 -2.72,15.52 -3.33,18.43 -3.60,20.96 -3.87,23.49 -4.44,26.34 -5.01,29.18 -5.06,29.39 -5.10,29.60 -5.21,29.78 -5.32,29.96 -5.49,30.10 -5.65,30.24 -5.85,30.31 -6.04,30.39 -6.26,30.40 -6.47,30.41 -6.67,30.36 -6.88,30.30 -7.05,30.18 -7.23,30.06 -7.36,29.89 -7.48,29.72 -7.55,29.52 -7.62,29.32 -7.62,29.11 -7.62,28.89 -7.55,28.69 -7.48,28.49 -7.35,28.32 -7.22,28.15 -7.05,28.04 -6.87,27.92 -6.67,27.86 -6.46,27.80 -6.25,27.82 -6.04,27.83 -5.84,27.91 -5.64,27.99 -5.48,28.12 -5.32,28.26 -5.21,28.44 -5.10,28.63 -5.06,28.83 -5.01,29.04 -5.04,29.25 -5.06,29.46 -5.15,29.66 -5.24,29.85 -5.38,30.00 -5.53,30.16 -5.72,30.26 -5.91,30.35 -6.12,30.39 -6.33,30.42 -6.54,30.39 -6.74,30.35 -6.93,30.25 -7.12,30.15 -7.27,30.00 -7.41,29.84 -7.50,29.65 -7.59,29.46 -7.61,29.25 -7.63,29.04 -7.63,29.04 -7.63,29.04 -7.88,26.05 -8.12,23.06 -7.85,20.30 -7.59,17.53 -6.93,14.46 -6.27,11.39 -5.27,8.05 -4.26,4.70 -3.00,1.98 -1.74,-0.72 -1.63,-0.92 -1.52,-1.12 -1.36,-1.29 -1.21,-1.45 -1.01,-1.58 -0.82,-1.70 -0.61,-1.78 -0.39,-1.85 -0.16,-1.87 0.06,-1.89 0.28,-1.85 0.51,-1.82 0.72,-1.73 0.93,-1.64 1.11,-1.51 1.30,-1.37 1.44,-1.20 1.59,-1.02 1.69,-0.82 1.79,-0.61 1.84,-0.39 1.88,-0.16 1.88,0.06 1.87,0.28 1.81,0.50 1.74,0.72 1.74,0.72 L 1.74,0.72 Z"></path></g><g transform="translate(593.2000122070312 692) rotate(0 17.20001220703125 -4.8000030517578125)" stroke="none"><path fill="#000" d="M -0.63,-2.00 Q -0.63,-2.00 3.73,-3.40 8.09,-4.81 12.36,-5.64 16.64,-6.47 20.29,-7.00 23.94,-7.53 26.57,-8.03 29.20,-8.53 31.05,-9.40 32.90,-10.27 33.10,-10.34 33.30,-10.41 33.51,-10.41 33.72,-10.42 33.92,-10.35 34.13,-10.29 34.30,-10.16 34.47,-10.04 34.59,-9.86 34.72,-9.69 34.78,-9.49 34.84,-9.28 34.83,-9.07 34.82,-8.86 34.75,-8.66 34.67,-8.46 34.54,-8.30 34.40,-8.13 34.22,-8.02 34.04,-7.91 33.84,-7.86 33.63,-7.81 33.42,-7.83 33.21,-7.85 33.01,-7.93 32.82,-8.02 32.66,-8.16 32.50,-8.30 32.40,-8.49 32.30,-8.68 32.26,-8.88 32.22,-9.09 32.25,-9.30 32.28,-9.51 32.38,-9.70 32.47,-9.89 32.63,-10.04 32.78,-10.19 32.97,-10.28 33.16,-10.38 33.37,-10.40 33.58,-10.43 33.79,-10.39 34.00,-10.35 34.18,-10.24 34.37,-10.13 34.51,-9.97 34.65,-9.82 34.73,-9.62 34.81,-9.42 34.83,-9.21 34.84,-9.00 34.79,-8.79 34.74,-8.59 34.62,-8.41 34.50,-8.23 34.34,-8.10 34.17,-7.97 34.17,-7.97 34.17,-7.97 32.11,-6.67 30.06,-5.37 27.32,-4.46 24.58,-3.56 21.02,-2.93 17.46,-2.30 13.42,-1.50 9.38,-0.70 5.00,0.64 0.63,2.00 0.38,2.04 0.13,2.09 -0.11,2.08 -0.37,2.06 -0.61,1.99 -0.85,1.91 -1.07,1.78 -1.28,1.65 -1.46,1.47 -1.64,1.30 -1.77,1.08 -1.91,0.86 -1.98,0.62 -2.06,0.38 -2.07,0.13 -2.09,-0.11 -2.05,-0.36 -2.00,-0.61 -1.90,-0.84 -1.80,-1.07 -1.64,-1.27 -1.48,-1.47 -1.29,-1.63 -1.09,-1.79 -0.86,-1.89 -0.63,-2.00 -0.63,-2.00 L -0.63,-2.00 Z"></path></g><g transform="translate(628.4000244140625 674.3999938964844) rotate(0 -2.399993896484375 14.399993896484375)" stroke="none"><path fill="#000" d="M 1.33,0.95 Q 1.33,0.95 0.43,2.71 -0.46,4.47 -1.01,6.67 -1.55,8.88 -1.82,11.60 -2.09,14.32 -2.02,17.02 -1.94,19.71 -2.33,23.43 -2.71,27.15 -2.74,27.36 -2.77,27.57 -2.87,27.76 -2.96,27.95 -3.12,28.09 -3.27,28.24 -3.46,28.33 -3.65,28.43 -3.86,28.45 -4.07,28.48 -4.28,28.44 -4.49,28.40 -4.67,28.29 -4.86,28.18 -5.00,28.02 -5.14,27.86 -5.22,27.67 -5.30,27.47 -5.31,27.26 -5.33,27.05 -5.28,26.84 -5.22,26.64 -5.11,26.46 -4.99,26.28 -4.82,26.15 -4.66,26.02 -4.46,25.95 -4.26,25.88 -4.04,25.87 -3.83,25.87 -3.63,25.93 -3.43,26.00 -3.25,26.12 -3.08,26.25 -2.96,26.42 -2.84,26.60 -2.78,26.80 -2.72,27.00 -2.73,27.22 -2.73,27.43 -2.81,27.63 -2.89,27.83 -3.02,27.99 -3.16,28.15 -3.34,28.27 -3.52,28.38 -3.72,28.43 -3.93,28.48 -4.14,28.46 -4.35,28.44 -4.55,28.35 -4.74,28.27 -4.90,28.12 -5.05,27.98 -5.16,27.79 -5.26,27.61 -5.30,27.40 -5.33,27.19 -5.33,27.19 -5.33,27.19 -5.84,23.53 -6.34,19.86 -6.47,16.86 -6.60,13.86 -6.25,10.75 -5.91,7.65 -5.02,4.80 -4.13,1.96 -2.73,0.50 -1.33,-0.95 -1.20,-1.09 -1.06,-1.24 -0.90,-1.35 -0.73,-1.46 -0.55,-1.53 -0.36,-1.59 -0.17,-1.61 0.02,-1.63 0.22,-1.61 0.41,-1.58 0.60,-1.51 0.78,-1.43 0.94,-1.32 1.10,-1.20 1.23,-1.05 1.36,-0.90 1.45,-0.73 1.54,-0.55 1.58,-0.36 1.63,-0.17 1.62,0.02 1.62,0.22 1.57,0.41 1.52,0.60 1.42,0.77 1.33,0.95 1.33,0.95 L 1.33,0.95 Z"></path></g><g transform="translate(637.2000122070312 699.1999816894531) rotate(0 0 -0.79998779296875)" stroke="none"><path fill="#000" d="M 2.04,-0.63 Q 2.04,-0.63 2.08,-0.12 2.11,0.38 1.90,0.85 1.68,1.32 1.28,1.64 0.88,1.95 0.37,2.05 -0.12,2.14 -0.62,1.98 -1.11,1.83 -1.47,1.47 -1.83,1.11 -1.99,0.61 -2.14,0.12 -2.05,-0.37 -1.95,-0.88 -1.64,-1.28 -1.32,-1.69 -0.85,-1.90 -0.38,-2.11 0.12,-2.08 0.63,-2.04 1.07,-1.78 1.51,-1.51 1.78,-1.07 L 2.04,-0.63 Z"></path></g><g transform="translate(650.7999877929688 684) rotate(0 -2 7.5999908447265625)" stroke="none"><path fill="#000" d="M 1.99,0.54 Q 1.99,0.54 1.40,3.10 0.82,5.66 0.21,7.82 -0.38,9.98 -1.41,12.56 -2.43,15.13 -2.52,15.33 -2.60,15.52 -2.74,15.68 -2.88,15.84 -3.07,15.95 -3.25,16.05 -3.46,16.09 -3.67,16.14 -3.88,16.11 -4.09,16.08 -4.28,15.99 -4.47,15.89 -4.62,15.74 -4.77,15.60 -4.87,15.41 -4.96,15.22 -4.99,15.01 -5.02,14.79 -4.98,14.59 -4.95,14.38 -4.84,14.19 -4.74,14.01 -4.58,13.86 -4.42,13.72 -4.23,13.64 -4.04,13.55 -3.82,13.53 -3.61,13.51 -3.41,13.56 -3.20,13.61 -3.02,13.73 -2.84,13.84 -2.71,14.01 -2.57,14.17 -2.50,14.37 -2.42,14.57 -2.42,14.78 -2.41,14.99 -2.47,15.20 -2.53,15.40 -2.65,15.57 -2.78,15.75 -2.95,15.87 -3.12,16.00 -3.32,16.06 -3.53,16.12 -3.74,16.12 -3.95,16.11 -4.15,16.04 -4.35,15.97 -4.52,15.84 -4.68,15.71 -4.80,15.53 -4.91,15.35 -4.97,15.14 -5.02,14.94 -5.00,14.72 -4.99,14.51 -4.99,14.51 -4.99,14.51 -4.72,11.77 -4.46,9.03 -4.02,6.74 -3.58,4.45 -2.78,1.95 -1.99,-0.54 -1.90,-0.77 -1.80,-1.00 -1.66,-1.20 -1.51,-1.40 -1.32,-1.57 -1.13,-1.73 -0.90,-1.84 -0.68,-1.95 -0.44,-2.00 -0.19,-2.05 0.05,-2.05 0.29,-2.04 0.54,-1.98 0.78,-1.91 0.99,-1.79 1.21,-1.67 1.39,-1.50 1.58,-1.33 1.71,-1.12 1.85,-0.91 1.93,-0.68 2.02,-0.44 2.04,-0.19 2.06,0.05 2.03,0.29 1.99,0.54 1.99,0.54 L 1.99,0.54 Z"></path></g><g transform="translate(646.7999877929688 677.6000061035156) rotate(0 10 18.399993896484375)" stroke="none"><path fill="#000" d="M 0.43,-2.02 Q 0.43,-2.02 3.71,-1.33 7.00,-0.65 10.19,1.90 13.37,4.47 15.67,8.01 17.98,11.55 19.22,15.54 20.46,19.53 20.26,24.04 20.05,28.56 18.35,31.48 16.64,34.39 14.19,35.70 11.74,37.00 8.81,36.76 5.89,36.52 5.68,36.48 5.47,36.45 5.29,36.35 5.10,36.24 4.96,36.09 4.81,35.93 4.73,35.74 4.64,35.54 4.62,35.33 4.60,35.12 4.65,34.91 4.69,34.71 4.81,34.53 4.92,34.35 5.08,34.21 5.24,34.07 5.44,34.00 5.64,33.92 5.85,33.91 6.07,33.90 6.27,33.96 6.47,34.02 6.65,34.14 6.82,34.26 6.95,34.44 7.08,34.61 7.14,34.81 7.21,35.01 7.20,35.22 7.20,35.44 7.13,35.64 7.06,35.84 6.93,36.00 6.80,36.17 6.62,36.29 6.45,36.41 6.24,36.46 6.04,36.51 5.82,36.50 5.61,36.49 5.41,36.41 5.22,36.33 5.06,36.19 4.90,36.05 4.79,35.86 4.68,35.68 4.64,35.47 4.60,35.26 4.62,35.05 4.65,34.84 4.74,34.65 4.83,34.46 4.98,34.31 5.13,34.15 5.31,34.06 5.50,33.96 5.71,33.93 5.92,33.89 5.92,33.89 5.92,33.89 8.05,33.71 10.18,33.53 11.74,32.77 13.30,32.00 14.54,30.05 15.77,28.09 16.00,24.40 16.23,20.71 15.23,17.29 14.24,13.87 12.37,10.80 10.49,7.73 8.18,5.57 5.87,3.41 2.72,2.71 -0.43,2.02 -0.66,1.94 -0.90,1.86 -1.11,1.72 -1.32,1.58 -1.49,1.40 -1.66,1.22 -1.78,1.00 -1.91,0.79 -1.97,0.55 -2.04,0.31 -2.05,0.06 -2.06,-0.18 -2.00,-0.43 -1.95,-0.67 -1.84,-0.89 -1.73,-1.12 -1.57,-1.31 -1.41,-1.50 -1.21,-1.65 -1.01,-1.80 -0.78,-1.89 -0.55,-1.99 -0.30,-2.03 -0.06,-2.06 0.18,-2.04 0.43,-2.02 0.43,-2.02 L 0.43,-2.02 Z"></path></g><g transform="translate(679.6000366210938 706.3999938964844) rotate(0 -1.20001220703125 0.399993896484375)" stroke="none"><path fill="#000" d="M 2.01,-0.62 Q 2.01,-0.62 2.04,-0.12 2.07,0.38 1.87,0.84 1.66,1.30 1.26,1.61 0.86,1.92 0.36,2.01 -0.12,2.10 -0.61,1.95 -1.09,1.80 -1.45,1.45 -1.80,1.09 -1.95,0.61 -2.10,0.12 -2.01,-0.37 -1.92,-0.86 -1.61,-1.26 -1.30,-1.66 -0.84,-1.87 -0.38,-2.07 0.12,-2.04 0.62,-2.01 1.06,-1.75 1.49,-1.49 1.75,-1.06 L 2.01,-0.62 Z"></path></g><g transform="translate(694 689.6000061035156) rotate(0 -1.600006103515625 7.5999908447265625)" stroke="none"><path fill="#000" d="M 1.99,0.79 Q 1.99,0.79 1.14,3.12 0.29,5.44 -0.11,7.54 -0.52,9.65 -0.82,11.87 -1.12,14.08 -1.15,14.29 -1.18,14.50 -1.27,14.70 -1.36,14.89 -1.51,15.04 -1.66,15.19 -1.85,15.29 -2.04,15.38 -2.25,15.41 -2.46,15.45 -2.67,15.41 -2.87,15.37 -3.06,15.27 -3.25,15.16 -3.39,15.01 -3.53,14.85 -3.62,14.66 -3.71,14.46 -3.73,14.25 -3.75,14.04 -3.70,13.83 -3.65,13.63 -3.53,13.45 -3.42,13.27 -3.26,13.13 -3.09,13.00 -2.89,12.92 -2.70,12.84 -2.48,12.84 -2.27,12.83 -2.07,12.89 -1.86,12.95 -1.69,13.07 -1.52,13.19 -1.39,13.36 -1.26,13.54 -1.20,13.74 -1.14,13.94 -1.14,14.15 -1.14,14.37 -1.21,14.57 -1.29,14.77 -1.42,14.93 -1.55,15.10 -1.73,15.22 -1.90,15.33 -2.11,15.39 -2.31,15.44 -2.53,15.42 -2.74,15.41 -2.93,15.33 -3.13,15.25 -3.29,15.11 -3.45,14.97 -3.56,14.78 -3.66,14.60 -3.71,14.39 -3.75,14.18 -3.75,14.18 -3.75,14.18 -4.23,11.58 -4.71,8.97 -4.34,6.36 -3.97,3.75 -2.98,1.47 -1.99,-0.79 -1.86,-1.02 -1.74,-1.25 -1.56,-1.44 -1.39,-1.63 -1.17,-1.77 -0.96,-1.91 -0.71,-2.00 -0.47,-2.09 -0.21,-2.11 0.03,-2.14 0.29,-2.11 0.55,-2.07 0.79,-1.97 1.03,-1.88 1.24,-1.73 1.45,-1.58 1.62,-1.38 1.78,-1.18 1.90,-0.95 2.02,-0.72 2.07,-0.47 2.13,-0.22 2.13,0.03 2.12,0.29 2.05,0.54 1.99,0.79 1.99,0.79 L 1.99,0.79 Z"></path></g><g transform="translate(690 684) rotate(0 11.600006103515625 18.79998779296875)" stroke="none"><path fill="#000" d="M 0,-1.96 Q 0,-1.96 2.82,-2.12 5.64,-2.29 9.17,-0.56 12.70,1.16 15.69,4.41 18.68,7.66 20.72,13.29 22.77,18.93 21.90,23.59 21.03,28.25 18.06,31.57 15.09,34.88 11.79,36.51 8.48,38.13 5.38,38.39 2.28,38.64 2.06,38.65 1.85,38.65 1.65,38.59 1.44,38.53 1.27,38.41 1.10,38.29 0.97,38.11 0.85,37.94 0.78,37.74 0.72,37.54 0.73,37.32 0.73,37.11 0.80,36.91 0.87,36.71 1.01,36.55 1.14,36.38 1.32,36.26 1.50,36.15 1.70,36.10 1.91,36.04 2.12,36.06 2.33,36.08 2.53,36.16 2.72,36.24 2.88,36.38 3.04,36.52 3.15,36.71 3.25,36.89 3.29,37.10 3.33,37.31 3.31,37.52 3.28,37.73 3.19,37.92 3.09,38.11 2.94,38.26 2.79,38.42 2.60,38.51 2.41,38.61 2.20,38.64 1.99,38.67 1.78,38.63 1.57,38.59 1.39,38.48 1.20,38.38 1.06,38.22 0.92,38.07 0.83,37.87 0.75,37.68 0.73,37.46 0.71,37.25 0.76,37.05 0.81,36.84 0.93,36.66 1.04,36.48 1.20,36.35 1.37,36.21 1.57,36.14 1.77,36.06 1.77,36.06 1.77,36.06 4.23,35.22 6.69,34.38 9.32,33.10 11.95,31.83 14.29,29.41 16.63,26.99 17.44,23.57 18.24,20.15 16.64,15.43 15.05,10.71 12.72,7.99 10.39,5.27 7.89,3.78 5.39,2.29 2.69,2.12 0,1.96 -0.23,1.93 -0.47,1.90 -0.69,1.82 -0.91,1.74 -1.10,1.60 -1.30,1.47 -1.46,1.29 -1.61,1.11 -1.72,0.90 -1.83,0.69 -1.89,0.46 -1.95,0.23 -1.95,-0.00 -1.95,-0.23 -1.89,-0.46 -1.83,-0.69 -1.72,-0.90 -1.61,-1.11 -1.46,-1.29 -1.30,-1.47 -1.10,-1.60 -0.91,-1.74 -0.69,-1.82 -0.47,-1.90 -0.23,-1.93 0.00,-1.96 0.00,-1.96 L 0,-1.96 Z"></path></g><g transform="translate(996.4000244140625 683.1999816894531) rotate(0 0.4000244140625 11.20001220703125)" stroke="none"><path fill="#000" d="M 2.09,0 Q 2.09,0 2.16,2.3 2.22,4.6 2.16,7.64 2.11,10.69 2.03,15.44 1.96,20.19 1.94,20.40 1.92,20.61 1.83,20.81 1.75,21.00 1.60,21.16 1.46,21.32 1.27,21.42 1.09,21.52 0.88,21.56 0.67,21.59 0.46,21.56 0.25,21.53 0.06,21.43 -0.12,21.34 -0.27,21.19 -0.42,21.03 -0.51,20.84 -0.60,20.65 -0.63,20.44 -0.65,20.23 -0.61,20.02 -0.57,19.81 -0.46,19.63 -0.35,19.44 -0.19,19.30 -0.03,19.17 0.15,19.08 0.35,19.00 0.56,18.99 0.77,18.97 0.98,19.03 1.19,19.08 1.36,19.20 1.54,19.31 1.67,19.48 1.80,19.65 1.87,19.85 1.94,20.05 1.95,20.26 1.95,20.48 1.88,20.68 1.82,20.88 1.69,21.05 1.57,21.22 1.39,21.34 1.22,21.46 1.01,21.52 0.81,21.58 0.60,21.58 0.39,21.57 0.19,21.49 -0.00,21.42 -0.16,21.28 -0.33,21.14 -0.44,20.96 -0.55,20.78 -0.60,20.58 -0.65,20.37 -0.65,20.37 -0.65,20.37 -1.38,15.53 -2.11,10.69 -2.16,7.64 -2.22,4.6 -2.16,2.3 -2.09,0 -2.06,-0.25 -2.03,-0.50 -1.94,-0.73 -1.85,-0.97 -1.71,-1.18 -1.57,-1.39 -1.38,-1.55 -1.19,-1.72 -0.96,-1.84 -0.74,-1.96 -0.49,-2.02 -0.25,-2.08 0.00,-2.08 0.25,-2.08 0.49,-2.02 0.74,-1.96 0.96,-1.84 1.19,-1.72 1.38,-1.55 1.57,-1.39 1.71,-1.18 1.85,-0.97 1.94,-0.73 2.03,-0.50 2.06,-0.25 2.09,0.00 2.09,0.00 L 2.09,0 Z"></path></g><g transform="translate(982 701.6000061035156) rotate(0 15.60003662109375 -4.800018310546875)" stroke="none"><path fill="#000" d="M -0.54,-2.00 Q -0.54,-2.00 1.98,-2.68 4.52,-3.35 7.70,-4.10 10.88,-4.84 13.99,-5.81 17.10,-6.78 20.36,-8.50 23.62,-10.23 25.33,-11.77 27.04,-13.32 27.60,-14.67 28.17,-16.03 27.91,-17.36 27.66,-18.69 27.72,-18.95 27.78,-19.21 27.90,-19.45 28.02,-19.69 28.19,-19.89 28.36,-20.09 28.58,-20.25 28.79,-20.40 29.04,-20.50 29.29,-20.60 29.55,-20.64 29.82,-20.68 30.08,-20.65 30.35,-20.63 30.60,-20.54 30.85,-20.45 31.07,-20.30 31.29,-20.15 31.47,-19.96 31.65,-19.76 31.78,-19.53 31.91,-19.30 31.98,-19.04 32.05,-18.78 32.06,-18.51 32.06,-18.25 31.44,-17.29 30.81,-16.34 30.55,-15.06 30.29,-13.77 29.86,-11.15 29.43,-8.53 29.00,-5.54 28.57,-2.54 27.76,0.83 26.94,4.21 25.85,6.58 24.77,8.94 24.67,9.13 24.58,9.32 24.43,9.47 24.28,9.62 24.09,9.71 23.90,9.81 23.69,9.84 23.48,9.87 23.27,9.83 23.06,9.79 22.88,9.68 22.69,9.58 22.55,9.42 22.41,9.26 22.32,9.07 22.24,8.87 22.22,8.66 22.20,8.45 22.25,8.24 22.30,8.04 22.42,7.86 22.53,7.68 22.70,7.55 22.86,7.41 23.06,7.34 23.26,7.26 23.47,7.26 23.69,7.25 23.89,7.31 24.09,7.38 24.27,7.50 24.44,7.62 24.56,7.80 24.69,7.97 24.75,8.17 24.81,8.37 24.81,8.59 24.80,8.80 24.73,9.00 24.66,9.20 24.52,9.36 24.39,9.53 24.21,9.64 24.03,9.76 23.83,9.81 23.62,9.86 23.41,9.85 23.20,9.83 23.00,9.75 22.81,9.66 22.65,9.52 22.49,9.38 22.39,9.19 22.28,9.01 22.24,8.80 22.20,8.59 22.23,8.38 22.26,8.17 22.26,8.17 22.26,8.17 22.61,5.81 22.96,3.45 23.43,0.11 23.90,-3.21 24.34,-6.27 24.78,-9.33 25.31,-12.31 25.85,-15.29 26.75,-16.99 27.66,-18.69 27.72,-18.95 27.78,-19.21 27.90,-19.45 28.02,-19.69 28.19,-19.89 28.36,-20.09 28.58,-20.25 28.79,-20.40 29.04,-20.50 29.29,-20.60 29.55,-20.64 29.82,-20.68 30.08,-20.65 30.35,-20.63 30.60,-20.54 30.85,-20.45 31.07,-20.30 31.29,-20.15 31.47,-19.96 31.65,-19.76 31.78,-19.53 31.91,-19.30 31.98,-19.04 32.05,-18.78 32.06,-18.52 32.06,-18.25 32.20,-17.81 32.35,-17.37 32.08,-15.84 31.82,-14.32 30.76,-12.40 29.69,-10.48 27.57,-8.65 25.46,-6.81 21.88,-4.92 18.30,-3.02 15.06,-1.97 11.82,-0.92 8.70,-0.16 5.59,0.59 3.07,1.30 0.54,2.00 0.29,2.04 0.05,2.08 -0.19,2.05 -0.44,2.03 -0.68,1.95 -0.92,1.86 -1.13,1.72 -1.34,1.59 -1.51,1.40 -1.68,1.22 -1.80,1.00 -1.92,0.78 -1.99,0.54 -2.06,0.30 -2.06,0.05 -2.07,-0.20 -2.01,-0.44 -1.96,-0.69 -1.85,-0.91 -1.74,-1.14 -1.58,-1.33 -1.41,-1.52 -1.21,-1.67 -1.01,-1.81 -0.78,-1.91 -0.54,-2.00 -0.54,-2.00 L -0.54,-2.00 Z"></path></g><g transform="translate(1018 705.6000061035156) rotate(0 0.79998779296875 -1.20001220703125)" stroke="none"><path fill="#000" d="M 2.03,-0.63 Q 2.03,-0.63 2.06,-0.12 2.09,0.38 1.88,0.85 1.67,1.31 1.27,1.63 0.87,1.94 0.37,2.03 -0.12,2.12 -0.61,1.97 -1.10,1.82 -1.46,1.46 -1.82,1.10 -1.97,0.61 -2.12,0.12 -2.03,-0.37 -1.94,-0.87 -1.63,-1.27 -1.31,-1.67 -0.84,-1.88 -0.38,-2.09 0.12,-2.06 0.63,-2.03 1.07,-1.77 1.50,-1.50 1.77,-1.07 L 2.03,-0.63 Z"></path></g><g transform="translate(1034.800048828125 692) rotate(0 -4 10.399993896484375)" stroke="none"><path fill="#000" d="M 1.86,1.11 Q 1.86,1.11 0.59,3.47 -0.66,5.83 -1.38,8.16 -2.11,10.49 -2.73,12.87 -3.34,15.24 -4.84,17.72 -6.33,20.19 -6.44,20.37 -6.56,20.55 -6.72,20.69 -6.88,20.83 -7.08,20.91 -7.28,20.98 -7.49,20.99 -7.70,21.00 -7.91,20.95 -8.11,20.89 -8.28,20.77 -8.46,20.65 -8.59,20.48 -8.72,20.31 -8.78,20.11 -8.85,19.91 -8.85,19.69 -8.85,19.48 -8.78,19.28 -8.71,19.08 -8.58,18.91 -8.45,18.74 -8.27,18.62 -8.10,18.50 -7.89,18.45 -7.69,18.39 -7.47,18.41 -7.26,18.42 -7.07,18.50 -6.87,18.58 -6.71,18.72 -6.55,18.85 -6.44,19.04 -6.33,19.22 -6.28,19.43 -6.24,19.64 -6.26,19.85 -6.29,20.06 -6.38,20.25 -6.47,20.44 -6.62,20.60 -6.76,20.75 -6.95,20.85 -7.14,20.95 -7.35,20.98 -7.56,21.01 -7.77,20.98 -7.98,20.94 -8.17,20.84 -8.35,20.74 -8.50,20.59 -8.64,20.43 -8.73,20.24 -8.82,20.04 -8.84,19.83 -8.86,19.62 -8.82,19.41 -8.77,19.21 -8.77,19.21 -8.77,19.21 -8.25,16.71 -7.74,14.21 -7.20,11.63 -6.67,9.05 -5.76,6.20 -4.85,3.36 -3.35,1.12 -1.86,-1.11 -1.70,-1.32 -1.53,-1.52 -1.33,-1.69 -1.12,-1.85 -0.89,-1.96 -0.65,-2.06 -0.39,-2.11 -0.13,-2.16 0.12,-2.15 0.38,-2.13 0.63,-2.05 0.88,-1.98 1.10,-1.84 1.33,-1.71 1.51,-1.52 1.70,-1.34 1.84,-1.12 1.97,-0.89 2.05,-0.64 2.13,-0.39 2.15,-0.13 2.16,0.12 2.12,0.38 2.07,0.63 1.96,0.87 1.86,1.11 1.86,1.11 L 1.86,1.11 Z"></path></g><g transform="translate(1026 689.6000061035156) rotate(0 10.79998779296875 12)" stroke="none"><path fill="#000" d="M 0.49,-1.99 Q 0.49,-1.99 4.19,-1.13 7.89,-0.27 11.30,1.32 14.70,2.93 17.24,5.16 19.79,7.39 20.97,10.46 22.15,13.52 20.41,16.71 18.66,19.89 15.78,21.75 12.89,23.62 10.14,24.37 7.40,25.12 4.23,24.84 1.06,24.56 0.86,24.50 0.66,24.43 0.49,24.31 0.32,24.18 0.20,24.01 0.07,23.83 0.01,23.63 -0.03,23.42 -0.03,23.21 -0.02,23.00 0.05,22.80 0.12,22.60 0.26,22.44 0.40,22.27 0.58,22.16 0.76,22.05 0.96,22.00 1.17,21.95 1.38,21.97 1.59,21.99 1.79,22.08 1.98,22.17 2.14,22.31 2.29,22.46 2.40,22.64 2.50,22.83 2.53,23.04 2.57,23.25 2.54,23.46 2.51,23.67 2.41,23.86 2.31,24.05 2.16,24.19 2.01,24.34 1.82,24.43 1.63,24.53 1.42,24.55 1.20,24.58 1.00,24.53 0.79,24.49 0.60,24.38 0.42,24.28 0.28,24.12 0.14,23.96 0.06,23.76 -0.01,23.56 -0.02,23.35 -0.04,23.14 0.01,22.93 0.06,22.73 0.18,22.55 0.29,22.37 0.46,22.24 0.63,22.11 0.83,22.04 1.03,21.97 1.24,21.97 1.45,21.97 1.45,21.97 1.45,21.97 3.86,21.44 6.27,20.92 8.45,20.35 10.62,19.79 12.83,18.55 15.04,17.32 16.61,15.37 18.19,13.43 17.44,12.01 16.69,10.59 14.70,8.75 12.71,6.91 9.76,5.43 6.82,3.95 3.16,2.97 -0.49,1.99 -0.72,1.90 -0.96,1.81 -1.16,1.67 -1.36,1.53 -1.53,1.34 -1.69,1.16 -1.80,0.94 -1.92,0.72 -1.98,0.48 -2.04,0.24 -2.03,-0.00 -2.03,-0.25 -1.97,-0.49 -1.91,-0.73 -1.80,-0.95 -1.68,-1.17 -1.52,-1.35 -1.35,-1.54 -1.15,-1.68 -0.94,-1.82 -0.71,-1.90 -0.48,-1.99 -0.23,-2.02 0.00,-2.05 0.25,-2.02 0.49,-1.99 0.49,-1.99 L 0.49,-1.99 Z"></path></g><g transform="translate(1057.2000732421875 697.6000061035156) rotate(0 -1.20001220703125 6)" stroke="none"><path fill="#000" d="M 2.08,0.41 Q 2.08,0.41 1.66,2.72 1.25,5.03 0.13,8.30 -0.99,11.57 -1.06,11.77 -1.13,11.97 -1.26,12.14 -1.39,12.31 -1.57,12.42 -1.74,12.54 -1.95,12.60 -2.15,12.65 -2.36,12.64 -2.58,12.62 -2.77,12.54 -2.97,12.46 -3.13,12.32 -3.29,12.18 -3.40,12.00 -3.51,11.82 -3.55,11.61 -3.59,11.40 -3.57,11.19 -3.54,10.98 -3.45,10.79 -3.36,10.60 -3.21,10.44 -3.07,10.29 -2.88,10.19 -2.69,10.09 -2.48,10.06 -2.27,10.03 -2.06,10.07 -1.85,10.10 -1.66,10.21 -1.48,10.31 -1.33,10.46 -1.19,10.62 -1.10,10.81 -1.01,11.01 -0.99,11.22 -0.97,11.43 -1.02,11.64 -1.07,11.84 -1.18,12.02 -1.29,12.20 -1.45,12.34 -1.62,12.48 -1.81,12.55 -2.01,12.63 -2.22,12.64 -2.44,12.65 -2.64,12.59 -2.85,12.53 -3.02,12.41 -3.19,12.29 -3.32,12.12 -3.45,11.95 -3.51,11.74 -3.58,11.54 -3.58,11.33 -3.58,11.12 -3.58,11.12 -3.58,11.12 -3.33,7.64 -3.09,4.16 -2.58,1.87 -2.08,-0.41 -2.00,-0.65 -1.92,-0.90 -1.78,-1.11 -1.64,-1.33 -1.46,-1.51 -1.28,-1.69 -1.06,-1.82 -0.83,-1.94 -0.59,-2.02 -0.34,-2.09 -0.09,-2.10 0.16,-2.11 0.41,-2.06 0.66,-2.01 0.89,-1.90 1.12,-1.79 1.32,-1.63 1.52,-1.47 1.67,-1.27 1.83,-1.06 1.93,-0.83 2.03,-0.59 2.07,-0.34 2.12,-0.09 2.10,0.16 2.08,0.41 2.08,0.41 L 2.08,0.41 Z"></path></g><g transform="translate(1054.800048828125 692) rotate(0 7.20001220703125 15.199996948242188)" stroke="none"><path fill="#000" d="M 0.86,-1.73 Q 0.86,-1.73 4.15,-0.19 7.43,1.34 10.08,4.11 12.72,6.89 13.93,11.40 15.14,15.91 14.87,19.18 14.60,22.44 13.16,25.04 11.72,27.63 9.70,29.06 7.68,30.50 4.80,30.71 1.92,30.92 1.71,30.88 1.50,30.84 1.32,30.73 1.13,30.62 0.99,30.46 0.86,30.30 0.77,30.11 0.69,29.91 0.68,29.70 0.66,29.49 0.72,29.28 0.77,29.08 0.89,28.90 1.00,28.72 1.17,28.59 1.34,28.46 1.54,28.39 1.74,28.32 1.95,28.31 2.17,28.31 2.37,28.38 2.57,28.44 2.74,28.57 2.91,28.69 3.03,28.87 3.15,29.04 3.21,29.25 3.27,29.45 3.27,29.66 3.26,29.87 3.18,30.07 3.11,30.27 2.97,30.44 2.83,30.60 2.65,30.71 2.47,30.82 2.27,30.87 2.06,30.92 1.85,30.90 1.64,30.88 1.44,30.79 1.25,30.71 1.09,30.56 0.94,30.42 0.83,30.23 0.73,30.05 0.69,29.84 0.66,29.63 0.69,29.42 0.72,29.21 0.82,29.02 0.91,28.83 1.07,28.68 1.22,28.53 1.41,28.44 1.60,28.35 1.81,28.32 2.02,28.30 2.02,28.30 2.02,28.30 3.66,27.61 5.31,26.92 6.66,26.07 8.02,25.23 9.11,23.53 10.21,21.84 10.49,19.36 10.77,16.87 10.04,13.25 9.30,9.64 7.37,7.36 5.44,5.09 2.28,3.41 -0.86,1.73 -1.06,1.60 -1.25,1.47 -1.41,1.30 -1.57,1.13 -1.68,0.92 -1.80,0.72 -1.86,0.49 -1.92,0.27 -1.92,0.03 -1.93,-0.19 -1.87,-0.42 -1.82,-0.65 -1.72,-0.86 -1.61,-1.07 -1.46,-1.24 -1.31,-1.42 -1.12,-1.56 -0.93,-1.70 -0.71,-1.78 -0.50,-1.87 -0.26,-1.90 -0.03,-1.94 0.19,-1.91 0.42,-1.89 0.64,-1.81 0.86,-1.73 0.86,-1.73 L 0.86,-1.73 Z"></path></g><g transform="translate(1082.800048828125 722.3999938964844) rotate(0 0.00004999999998744897 0.00005000000000165983)" stroke="none"><path fill="#000" d="M 2.12,-2.12 Q 2.12,-2.12 2.40,-1.73 2.69,-1.33 2.83,-0.87 2.97,-0.40 2.96,0.08 2.95,0.56 2.78,1.02 2.61,1.47 2.31,1.85 2.00,2.23 1.59,2.49 1.18,2.76 0.71,2.87 0.24,2.99 -0.24,2.95 -0.72,2.91 -1.17,2.72 -1.61,2.53 -1.98,2.20 -2.34,1.88 -2.58,1.45 -2.82,1.03 -2.91,0.55 -3.00,0.08 -2.93,-0.40 -2.87,-0.88 -2.65,-1.31 -2.44,-1.75 -2.09,-2.09 -1.75,-2.44 -1.31,-2.65 -0.88,-2.87 -0.39,-2.93 0.08,-3.00 0.55,-2.91 1.03,-2.82 1.46,-2.58 1.88,-2.34 2.20,-1.97 2.53,-1.61 2.72,-1.17 2.91,-0.72 2.95,-0.23 2.99,0.24 2.87,0.71 2.76,1.18 2.49,1.59 2.23,2.00 1.85,2.31 1.47,2.61 1.02,2.78 0.56,2.95 0.07,2.96 -0.40,2.97 -0.87,2.83 -1.33,2.69 -1.73,2.40 -2.12,2.12 -2.12,2.12 -2.12,2.12 -2.34,1.83 -2.57,1.55 -2.72,1.22 -2.86,0.89 -2.93,0.53 -2.99,0.18 -2.97,-0.18 -2.95,-0.54 -2.84,-0.88 -2.74,-1.23 -2.55,-1.54 -2.36,-1.85 -2.10,-2.10 -1.85,-2.36 -1.54,-2.55 -1.23,-2.74 -0.88,-2.84 -0.54,-2.95 -0.17,-2.97 0.18,-2.99 0.53,-2.93 0.89,-2.86 1.22,-2.72 1.55,-2.57 1.84,-2.34 2.12,-2.12 2.12,-2.12 L 2.12,-2.12 Z"></path></g><g transform="translate(658 651.1999816894531) rotate(0 1.600006103515625 -13.599990844726562)" stroke="none"><path fill="#000" d="M -1.52,-0.21 Q -1.52,-0.21 -1.14,-3.44 -0.76,-6.68 -0.39,-9.23 -0.02,-11.77 0.33,-14.67 0.69,-17.56 0.84,-19.66 0.98,-21.76 2.70,-23.91 4.42,-26.06 4.46,-25.85 4.50,-25.64 4.47,-25.43 4.44,-25.22 4.34,-25.03 4.25,-24.84 4.09,-24.69 3.94,-24.54 3.75,-24.45 3.56,-24.36 3.35,-24.33 3.14,-24.31 2.93,-24.35 2.72,-24.39 2.54,-24.50 2.35,-24.60 2.21,-24.76 2.07,-24.92 1.99,-25.12 1.91,-25.31 1.89,-25.53 1.88,-25.74 1.93,-25.94 1.99,-26.15 2.10,-26.33 2.22,-26.50 2.38,-26.64 2.55,-26.77 2.75,-26.84 2.95,-26.91 3.16,-26.91 3.38,-26.92 3.58,-26.85 3.78,-26.79 3.95,-26.66 4.12,-26.54 4.25,-26.36 4.37,-26.19 4.43,-25.99 4.49,-25.78 4.48,-25.57 4.47,-25.36 4.40,-25.16 4.32,-24.96 4.19,-24.80 4.05,-24.63 3.87,-24.52 3.69,-24.41 3.49,-24.36 3.28,-24.31 3.07,-24.33 2.86,-24.35 2.66,-24.43 2.47,-24.52 2.31,-24.66 2.16,-24.81 2.05,-24.99 1.95,-25.18 1.95,-25.18 1.95,-25.18 3.42,-23.31 4.89,-21.45 4.69,-19.24 4.49,-17.02 4.02,-14.10 3.56,-11.17 3.08,-8.68 2.60,-6.19 2.06,-2.99 1.52,0.21 1.48,0.39 1.43,0.57 1.34,0.74 1.25,0.90 1.12,1.04 1.00,1.17 0.84,1.28 0.68,1.38 0.51,1.44 0.33,1.50 0.15,1.52 -0.03,1.54 -0.21,1.51 -0.40,1.49 -0.57,1.42 -0.74,1.35 -0.89,1.24 -1.04,1.13 -1.16,0.99 -1.29,0.85 -1.37,0.68 -1.45,0.51 -1.49,0.33 -1.53,0.15 -1.53,-0.03 -1.52,-0.21 -1.52,-0.21 L -1.52,-0.21 Z"></path></g><g transform="translate(591.6000366210938 579.1999816894531) rotate(0 68.79995727539062 18.000015258789062)" stroke="none"><path fill="#000" d="M 0.55,1.66 Q 0.55,1.66 -1.50,2.37 -3.56,3.09 -6.63,4.55 -9.70,6.02 -13.21,8.23 -16.73,10.44 -18.77,12.39 -20.80,14.34 -21.50,16.45 -22.20,18.56 -21.86,21.46 -21.52,24.37 -19.67,27.46 -17.82,30.54 -14.40,33.84 -10.98,37.13 -2.82,40.94 5.32,44.75 14.89,47.08 24.47,49.40 35.81,50.40 47.16,51.40 63.38,50.25 79.59,49.09 93.13,46.78 106.66,44.47 117.61,41.21 128.57,37.95 136.54,33.86 144.50,29.78 149.30,25.25 154.10,20.72 155.58,16.45 157.06,12.19 153.52,7.00 149.97,1.81 143.90,-2.18 137.82,-6.18 128.96,-8.79 120.09,-11.41 104.90,-12.98 89.71,-14.56 75.22,-14.78 60.73,-15.01 47.95,-14.19 35.16,-13.37 25.16,-12.14 15.16,-10.90 8.67,-9.41 2.18,-7.91 -0.67,-7.45 -3.53,-6.98 -3.75,-6.97 -3.96,-6.95 -4.16,-7.00 -4.37,-7.05 -4.55,-7.16 -4.73,-7.27 -4.87,-7.44 -5.00,-7.60 -5.07,-7.80 -5.15,-8.00 -5.16,-8.21 -5.16,-8.42 -5.10,-8.63 -5.04,-8.83 -4.92,-9.00 -4.80,-9.18 -4.63,-9.30 -4.45,-9.43 -4.25,-9.49 -4.05,-9.56 -3.84,-9.55 -3.62,-9.55 -3.42,-9.48 -3.22,-9.40 -3.06,-9.27 -2.89,-9.14 -2.77,-8.96 -2.66,-8.78 -2.61,-8.58 -2.55,-8.37 -2.57,-8.16 -2.58,-7.95 -2.67,-7.75 -2.75,-7.56 -2.89,-7.40 -3.03,-7.24 -3.21,-7.13 -3.40,-7.03 -3.61,-6.99 -3.82,-6.94 -4.03,-6.97 -4.24,-7.00 -4.43,-7.09 -4.62,-7.18 -4.77,-7.33 -4.92,-7.48 -5.02,-7.67 -5.11,-7.86 -5.14,-8.07 -5.17,-8.28 -5.14,-8.49 -5.10,-8.70 -4.99,-8.89 -4.89,-9.07 -4.73,-9.21 -4.58,-9.36 -4.38,-9.44 -4.19,-9.53 -4.19,-9.53 -4.19,-9.53 -1.46,-10.50 1.27,-11.47 7.94,-13.36 14.61,-15.24 24.74,-16.54 34.88,-17.84 47.84,-18.67 60.80,-19.49 75.49,-19.25 90.18,-19.01 105.77,-17.33 121.35,-15.65 130.79,-12.76 140.24,-9.87 146.92,-5.25 153.60,-0.64 157.35,5.79 161.11,12.22 159.19,17.98 157.27,23.74 151.92,28.72 146.56,33.71 138.20,37.95 129.84,42.18 118.63,45.51 107.41,48.84 93.66,51.21 79.92,53.58 63.34,54.77 46.77,55.96 35.07,54.92 23.38,53.87 13.37,51.38 3.36,48.89 -5.34,44.61 -14.04,40.34 -17.80,36.52 -21.57,32.70 -23.64,28.79 -25.72,24.88 -25.94,21.06 -26.17,17.24 -24.97,14.35 -23.76,11.45 -21.31,9.21 -18.86,6.98 -15.08,4.74 -11.29,2.51 -8.00,1.09 -4.71,-0.33 -2.63,-0.99 -0.55,-1.66 -0.34,-1.70 -0.14,-1.74 0.07,-1.74 0.28,-1.73 0.48,-1.67 0.68,-1.61 0.87,-1.50 1.05,-1.40 1.20,-1.25 1.35,-1.10 1.47,-0.93 1.58,-0.75 1.65,-0.55 1.71,-0.35 1.73,-0.13 1.75,0.07 1.71,0.28 1.68,0.48 1.60,0.68 1.51,0.87 1.39,1.04 1.26,1.21 1.10,1.34 0.93,1.48 0.74,1.57 0.55,1.66 0.55,1.66 L 0.55,1.66 Z"></path></g><g transform="translate(612.4000244140625 585.6000061035156) rotate(0 -2.800018310546875 6.79998779296875)" stroke="none"><path fill="#000" d="M 1.20,1.51 Q 1.20,1.51 0.13,2.49 -0.93,3.47 -1.64,4.73 -2.36,5.99 -2.65,7.69 -2.94,9.39 -3.56,11.48 -4.18,13.56 -4.24,13.77 -4.30,13.97 -4.42,14.15 -4.54,14.32 -4.70,14.45 -4.87,14.58 -5.08,14.65 -5.28,14.71 -5.49,14.71 -5.70,14.71 -5.90,14.65 -6.10,14.58 -6.27,14.45 -6.44,14.32 -6.56,14.14 -6.68,13.97 -6.74,13.76 -6.79,13.56 -6.78,13.35 -6.77,13.13 -6.69,12.94 -6.61,12.74 -6.47,12.58 -6.34,12.42 -6.15,12.31 -5.97,12.20 -5.76,12.15 -5.56,12.11 -5.35,12.13 -5.13,12.15 -4.94,12.24 -4.75,12.33 -4.59,12.48 -4.44,12.63 -4.34,12.81 -4.24,13.00 -4.21,13.21 -4.17,13.42 -4.21,13.63 -4.24,13.84 -4.34,14.03 -4.44,14.21 -4.60,14.36 -4.75,14.51 -4.95,14.60 -5.14,14.68 -5.35,14.71 -5.56,14.73 -5.77,14.68 -5.98,14.64 -6.16,14.53 -6.34,14.42 -6.48,14.26 -6.61,14.09 -6.69,13.90 -6.77,13.70 -6.78,13.49 -6.79,13.27 -6.79,13.27 -6.79,13.27 -6.92,10.93 -7.06,8.58 -6.54,6.21 -6.03,3.84 -4.84,2.02 -3.66,0.20 -2.43,-0.65 -1.20,-1.51 -1.00,-1.63 -0.81,-1.75 -0.58,-1.82 -0.36,-1.89 -0.13,-1.91 0.09,-1.93 0.32,-1.89 0.55,-1.85 0.77,-1.75 0.98,-1.66 1.16,-1.52 1.35,-1.38 1.49,-1.19 1.64,-1.01 1.74,-0.80 1.84,-0.59 1.88,-0.36 1.92,-0.13 1.91,0.09 1.90,0.32 1.83,0.55 1.77,0.77 1.65,0.97 1.53,1.17 1.37,1.34 1.20,1.51 1.20,1.51 L 1.20,1.51 Z"></path></g><g transform="translate(609.2000122070312 577.6000061035156) rotate(0 14.399993896484375 -2.4000091552734375)" stroke="none"><path fill="#000" d="M -1.20,-1.80 Q -1.20,-1.80 0.88,-3.19 2.97,-4.59 5.80,-5.31 8.62,-6.04 12.39,-6.31 16.16,-6.58 19.54,-5.91 22.93,-5.24 25.47,-4.20 28.01,-3.16 28.20,-3.08 28.39,-2.99 28.55,-2.85 28.71,-2.70 28.81,-2.51 28.91,-2.33 28.95,-2.12 28.98,-1.91 28.95,-1.70 28.92,-1.49 28.82,-1.30 28.72,-1.11 28.57,-0.96 28.42,-0.82 28.22,-0.72 28.03,-0.63 27.82,-0.61 27.61,-0.58 27.40,-0.63 27.20,-0.67 27.01,-0.78 26.83,-0.89 26.69,-1.05 26.55,-1.21 26.47,-1.40 26.39,-1.60 26.38,-1.81 26.36,-2.02 26.42,-2.23 26.47,-2.44 26.59,-2.61 26.71,-2.79 26.87,-2.92 27.04,-3.05 27.24,-3.12 27.44,-3.19 27.66,-3.19 27.87,-3.19 28.07,-3.13 28.27,-3.06 28.44,-2.93 28.61,-2.81 28.73,-2.63 28.86,-2.46 28.91,-2.25 28.97,-2.05 28.96,-1.84 28.95,-1.63 28.88,-1.43 28.80,-1.23 28.66,-1.07 28.53,-0.90 28.35,-0.79 28.17,-0.68 27.96,-0.63 27.75,-0.58 27.54,-0.61 27.33,-0.63 27.33,-0.63 27.33,-0.63 24.76,-0.95 22.19,-1.27 19.31,-1.77 16.42,-2.27 13.02,-2.04 9.61,-1.81 7.45,-1.37 5.30,-0.92 3.25,0.43 1.20,1.80 0.96,1.91 0.73,2.03 0.48,2.09 0.22,2.15 -0.03,2.14 -0.29,2.14 -0.54,2.07 -0.79,2.01 -1.02,1.88 -1.25,1.76 -1.45,1.58 -1.64,1.40 -1.78,1.19 -1.93,0.97 -2.02,0.72 -2.10,0.48 -2.13,0.22 -2.16,-0.03 -2.12,-0.29 -2.09,-0.55 -1.99,-0.79 -1.89,-1.03 -1.74,-1.24 -1.59,-1.46 -1.39,-1.63 -1.19,-1.80 -1.20,-1.80 L -1.20,-1.80 Z"></path></g><g transform="translate(616.4000244140625 592) rotate(0 9.199981689453125 -1.600006103515625)" stroke="none"><path fill="#000" d="M -0.42,-1.92 Q -0.42,-1.92 1.63,-2.40 3.70,-2.89 6.65,-3.53 9.60,-4.17 13.17,-4.24 16.73,-4.32 16.95,-4.31 17.16,-4.30 17.36,-4.23 17.55,-4.15 17.72,-4.01 17.88,-3.88 17.99,-3.70 18.10,-3.51 18.15,-3.31 18.20,-3.10 18.17,-2.89 18.15,-2.68 18.06,-2.48 17.98,-2.29 17.83,-2.14 17.69,-1.98 17.50,-1.88 17.31,-1.78 17.10,-1.74 16.89,-1.71 16.68,-1.74 16.47,-1.77 16.29,-1.87 16.10,-1.97 15.95,-2.12 15.80,-2.28 15.71,-2.47 15.62,-2.66 15.60,-2.87 15.57,-3.08 15.62,-3.29 15.66,-3.50 15.77,-3.68 15.88,-3.86 16.04,-4.00 16.20,-4.14 16.40,-4.22 16.59,-4.30 16.81,-4.31 17.02,-4.33 17.22,-4.27 17.43,-4.22 17.60,-4.10 17.78,-3.98 17.91,-3.81 18.04,-3.64 18.11,-3.44 18.18,-3.24 18.18,-3.03 18.18,-2.82 18.12,-2.61 18.05,-2.41 17.92,-2.24 17.79,-2.07 17.62,-1.95 17.44,-1.83 17.24,-1.77 17.04,-1.72 17.04,-1.72 17.04,-1.72 13.75,-1.00 10.46,-0.29 7.52,0.38 4.57,1.05 2.50,1.48 0.42,1.92 0.19,1.94 -0.04,1.96 -0.28,1.93 -0.51,1.90 -0.73,1.81 -0.95,1.72 -1.14,1.58 -1.33,1.44 -1.49,1.26 -1.64,1.08 -1.75,0.86 -1.85,0.65 -1.90,0.42 -1.95,0.19 -1.95,-0.04 -1.94,-0.28 -1.88,-0.51 -1.82,-0.74 -1.70,-0.94 -1.59,-1.15 -1.43,-1.32 -1.27,-1.50 -1.07,-1.63 -0.87,-1.76 -0.65,-1.84 -0.42,-1.92 -0.42,-1.92 L -0.42,-1.92 Z"></path></g><g transform="translate(643.6000366210938 593.6000061035156) rotate(0 -0.800018310546875 0.79998779296875)" stroke="none"><path fill="#000" d="M 1.64,1.09 Q 1.64,1.09 1.23,1.82 0.83,2.54 0.66,2.74 0.50,2.93 0.29,3.08 0.08,3.22 -0.14,3.32 -0.38,3.41 -0.63,3.45 -0.88,3.48 -1.13,3.45 -1.39,3.43 -1.62,3.34 -1.86,3.26 -2.07,3.11 -2.29,2.97 -2.46,2.79 -2.63,2.60 -2.75,2.38 -2.87,2.15 -2.94,1.91 -3.00,1.66 -3.01,1.41 -3.01,1.15 -2.95,0.91 -2.90,0.66 -2.78,0.43 -2.67,0.21 -2.76,1.27 -2.85,2.34 -1.41,0.41 0.01,-1.52 0.17,-1.38 0.34,-1.24 0.45,-1.06 0.56,-0.88 0.60,-0.67 0.65,-0.46 0.63,-0.25 0.60,-0.04 0.51,0.14 0.43,0.34 0.28,0.49 0.13,0.64 -0.04,0.74 -0.23,0.84 -0.44,0.88 -0.65,0.91 -0.86,0.88 -1.07,0.85 -1.26,0.75 -1.45,0.65 -1.59,0.49 -1.74,0.34 -1.83,0.15 -1.92,-0.03 -1.94,-0.25 -1.96,-0.46 -1.92,-0.66 -1.87,-0.87 -1.76,-1.05 -1.66,-1.24 -1.49,-1.37 -1.33,-1.51 -1.14,-1.59 -0.94,-1.67 -0.73,-1.68 -0.51,-1.69 -0.31,-1.64 -0.10,-1.58 0.06,-1.46 0.24,-1.34 0.37,-1.18 0.50,-1.01 0.56,-0.81 0.63,-0.60 0.63,-0.39 0.63,-0.18 0.57,0.01 0.50,0.21 0.37,0.38 0.24,0.55 0.07,0.67 -0.10,0.79 -0.30,0.85 -0.51,0.91 -0.72,0.90 -0.93,0.88 -1.13,0.81 -1.33,0.73 -1.33,0.73 -1.33,0.73 -0.55,0.24 0.22,-0.24 0.53,1.15 0.83,2.54 0.66,2.74 0.50,2.93 0.29,3.08 0.08,3.22 -0.14,3.32 -0.38,3.41 -0.63,3.45 -0.88,3.48 -1.13,3.45 -1.39,3.43 -1.62,3.34 -1.86,3.26 -2.07,3.11 -2.29,2.97 -2.46,2.79 -2.63,2.60 -2.75,2.38 -2.87,2.15 -2.94,1.91 -3.00,1.66 -3.01,1.41 -3.01,1.15 -2.95,0.91 -2.90,0.66 -2.78,0.43 -2.67,0.21 -2.15,-0.44 -1.64,-1.09 -1.48,-1.27 -1.33,-1.45 -1.14,-1.59 -0.94,-1.73 -0.72,-1.82 -0.50,-1.91 -0.26,-1.94 -0.03,-1.97 0.20,-1.95 0.44,-1.92 0.66,-1.84 0.88,-1.76 1.08,-1.63 1.28,-1.49 1.44,-1.32 1.60,-1.14 1.72,-0.93 1.83,-0.73 1.89,-0.49 1.95,-0.26 1.96,-0.03 1.96,0.20 1.91,0.43 1.85,0.67 1.75,0.88 1.64,1.09 1.64,1.09 L 1.64,1.09 Z"></path></g><g transform="translate(677.2000122070312 580) rotate(0 -12 12.399993896484375)" stroke="none"><path fill="#000" d="M -0.37,1.89 Q -0.37,1.89 -2.68,1.56 -5.00,1.24 -7.02,1.56 -9.04,1.87 -10.89,2.66 -12.75,3.45 -12.85,4.78 -12.94,6.12 -11.53,7.65 -10.12,9.18 -8.32,11.10 -6.53,13.03 -4.89,15.89 -3.25,18.76 -4.10,21.39 -4.94,24.02 -7.82,25.66 -10.71,27.29 -14.19,27.59 -17.66,27.90 -20.39,27.10 -23.12,26.29 -23.32,26.22 -23.52,26.15 -23.69,26.02 -23.86,25.88 -23.97,25.71 -24.09,25.53 -24.14,25.32 -24.19,25.12 -24.17,24.90 -24.16,24.69 -24.07,24.50 -23.99,24.30 -23.85,24.14 -23.71,23.98 -23.52,23.88 -23.34,23.77 -23.13,23.73 -22.92,23.69 -22.71,23.72 -22.50,23.75 -22.31,23.84 -22.12,23.93 -21.97,24.08 -21.82,24.23 -21.72,24.42 -21.63,24.61 -21.60,24.82 -21.57,25.03 -21.61,25.24 -21.65,25.45 -21.75,25.64 -21.85,25.82 -22.01,25.96 -22.17,26.11 -22.36,26.19 -22.56,26.28 -22.77,26.29 -22.98,26.31 -23.19,26.26 -23.40,26.21 -23.58,26.10 -23.75,25.98 -23.89,25.82 -24.02,25.65 -24.10,25.46 -24.17,25.26 -24.18,25.04 -24.18,24.83 -24.12,24.63 -24.06,24.42 -23.94,24.25 -23.81,24.08 -23.64,23.95 -23.47,23.83 -23.27,23.77 -23.06,23.70 -22.85,23.71 -22.64,23.71 -22.64,23.71 -22.64,23.71 -20.32,23.86 -18.00,24.00 -15.31,23.70 -12.61,23.40 -10.72,22.53 -8.82,21.66 -8.15,20.57 -7.49,19.48 -8.79,17.91 -10.10,16.35 -11.98,14.34 -13.86,12.33 -15.69,10.01 -17.52,7.70 -17.96,5.40 -18.40,3.10 -16.44,1.03 -14.48,-1.02 -12.03,-1.84 -9.58,-2.65 -6.89,-2.87 -4.19,-3.08 -1.91,-2.48 0.37,-1.89 0.59,-1.82 0.82,-1.74 1.01,-1.62 1.21,-1.50 1.37,-1.33 1.53,-1.16 1.65,-0.96 1.77,-0.76 1.83,-0.54 1.90,-0.31 1.91,-0.08 1.92,0.14 1.87,0.37 1.83,0.60 1.73,0.81 1.63,1.02 1.48,1.20 1.34,1.38 1.15,1.52 0.97,1.66 0.75,1.76 0.54,1.85 0.31,1.89 0.08,1.92 -0.14,1.91 -0.37,1.89 -0.37,1.89 L -0.37,1.89 Z"></path></g><g transform="translate(714.7999877929688 552.7999877929688) rotate(0 22 -1.5999908447265625)" stroke="none"><path fill="#000" d="M -0.97,-1.22 Q -0.97,-1.22 0.00,-2.34 0.99,-3.46 1.71,-4.25 2.43,-5.05 4.25,-5.23 6.07,-5.40 7.32,-4.13 8.58,-2.86 9.59,-1.50 10.61,-0.13 11.91,-0.68 13.22,-1.23 13.67,-2.24 14.11,-3.25 15.27,-4.51 16.43,-5.77 18.14,-6.41 19.85,-7.05 21.27,-7.26 22.69,-7.46 24.05,-7.27 25.41,-7.08 26.49,-6.36 27.58,-5.64 28.91,-4.87 30.23,-4.11 31.82,-4.20 33.41,-4.30 32.77,-3.34 32.14,-2.39 33.22,-2.14 34.30,-1.89 35.53,-3.03 36.75,-4.16 38.70,-4.92 40.65,-5.68 42.47,-3.93 44.30,-2.18 44.45,-2.03 44.61,-1.88 44.71,-1.70 44.81,-1.51 44.84,-1.30 44.87,-1.09 44.84,-0.88 44.81,-0.67 44.71,-0.48 44.61,-0.29 44.45,-0.15 44.30,-0.00 44.11,0.08 43.91,0.17 43.70,0.19 43.49,0.21 43.28,0.17 43.08,0.12 42.89,0.01 42.71,-0.09 42.57,-0.25 42.44,-0.41 42.36,-0.61 42.28,-0.80 42.27,-1.02 42.26,-1.23 42.31,-1.43 42.37,-1.64 42.49,-1.81 42.61,-1.99 42.78,-2.12 42.94,-2.25 43.15,-2.32 43.35,-2.38 43.56,-2.38 43.77,-2.38 43.97,-2.32 44.17,-2.25 44.34,-2.12 44.51,-1.99 44.63,-1.82 44.75,-1.64 44.81,-1.44 44.87,-1.23 44.86,-1.02 44.84,-0.81 44.77,-0.61 44.69,-0.41 44.55,-0.25 44.41,-0.09 44.23,0.01 44.05,0.12 43.84,0.17 43.63,0.21 43.42,0.19 43.21,0.17 43.02,0.08 42.83,-0.00 42.83,-0.00 42.83,-0.00 41.20,-0.79 39.57,-1.57 38.70,-0.65 37.82,0.27 36.31,1.16 34.79,2.06 33.27,2.03 31.74,2.00 30.62,1.24 29.50,0.48 28.87,-1.09 28.25,-2.68 28.97,-4.55 29.69,-6.42 31.00,-7.23 32.31,-8.05 34.77,-7.87 37.24,-7.68 37.22,-5.72 37.20,-3.75 36.09,-2.36 34.98,-0.96 33.26,-0.40 31.55,0.16 29.06,-0.54 26.58,-1.24 24.90,-2.23 23.22,-3.22 22.15,-3.09 21.09,-2.96 19.54,-2.19 18.00,-1.42 17.45,-0.19 16.90,1.04 16.04,2.32 15.19,3.59 13.78,4.41 12.38,5.23 10.80,4.81 9.23,4.38 8.19,3.41 7.16,2.43 6.10,0.20 5.04,-2.02 4.32,-1.12 3.60,-0.21 2.29,0.50 0.97,1.22 0.81,1.32 0.65,1.42 0.47,1.48 0.29,1.53 0.10,1.55 -0.07,1.56 -0.26,1.53 -0.45,1.50 -0.62,1.42 -0.79,1.34 -0.94,1.23 -1.09,1.11 -1.21,0.97 -1.33,0.82 -1.41,0.65 -1.49,0.48 -1.52,0.29 -1.56,0.11 -1.55,-0.07 -1.54,-0.26 -1.48,-0.44 -1.43,-0.62 -1.33,-0.79 -1.24,-0.95 -1.11,-1.08 -0.97,-1.22 -0.97,-1.22 L -0.97,-1.22 Z"></path></g><g transform="translate(761.2000122070312 546.3999938964844) rotate(0 19.20001220703125 14.399993896484375)" stroke="none"><path fill="#000" d="M 1.84,0 Q 1.84,0 1.95,1.50 2.05,3.01 2.87,1.13 3.68,-0.75 5.30,-1.59 6.93,-2.44 9.44,-1.80 11.95,-1.15 13.49,-0.71 15.02,-0.27 16.23,-0.08 17.44,0.09 18.61,-0.50 19.78,-1.11 21.02,-2.11 22.26,-3.11 23.99,-3.30 25.72,-3.49 27.30,-3.55 28.87,-3.60 30.31,-3.83 31.74,-4.06 33.12,-4.54 34.49,-5.02 35.24,-6.71 36.00,-8.41 34.77,-8.91 33.53,-9.40 32.89,-8.52 32.24,-7.63 33.48,-7.68 34.71,-7.73 36.05,-7.40 37.39,-7.06 37.70,-6.04 38.02,-5.03 38.10,-1.69 38.19,1.63 37.99,5.60 37.79,9.57 37.24,14.28 36.69,19.00 35.75,23.38 34.81,27.77 33.42,31.39 32.03,35.02 29.76,37.33 27.48,39.64 24.70,39.84 21.93,40.04 20.67,37.61 19.42,35.19 19.34,34.99 19.26,34.79 19.25,34.58 19.24,34.37 19.30,34.16 19.35,33.96 19.47,33.78 19.59,33.61 19.76,33.48 19.93,33.35 20.13,33.28 20.33,33.22 20.55,33.22 20.76,33.22 20.96,33.28 21.16,33.35 21.33,33.48 21.50,33.61 21.62,33.79 21.74,33.96 21.79,34.17 21.85,34.37 21.84,34.59 21.83,34.80 21.75,34.99 21.67,35.19 21.53,35.35 21.39,35.51 21.21,35.62 21.03,35.73 20.82,35.78 20.61,35.82 20.40,35.80 20.19,35.78 20.00,35.69 19.80,35.60 19.65,35.45 19.50,35.30 19.40,35.12 19.30,34.93 19.26,34.72 19.23,34.51 19.27,34.30 19.30,34.09 19.40,33.90 19.50,33.71 19.65,33.57 19.81,33.42 20.00,33.33 20.20,33.25 20.41,33.22 20.62,33.20 20.83,33.25 21.03,33.29 21.21,33.40 21.40,33.51 21.53,33.68 21.67,33.84 21.67,33.84 21.67,33.84 23.16,35.06 24.64,36.28 26.24,34.76 27.84,33.24 29.08,30.01 30.32,26.79 31.23,22.62 32.13,18.46 32.69,13.88 33.24,9.31 33.48,5.49 33.72,1.67 34.23,-1.41 34.74,-4.50 33.74,-4.12 32.73,-3.75 31.43,-4.08 30.13,-4.41 29.35,-5.30 28.57,-6.20 28.53,-7.82 28.48,-9.44 29.42,-10.78 30.36,-12.12 32.25,-12.73 34.13,-13.35 35.95,-12.62 37.76,-11.90 38.71,-10.31 39.65,-8.73 39.11,-6.25 38.57,-3.77 37.29,-2.53 36.01,-1.30 34.21,-0.64 32.41,0.01 30.71,0.28 29.01,0.55 27.54,0.59 26.07,0.64 24.51,0.85 22.95,1.07 21.46,1.86 19.98,2.64 18.11,1.97 16.25,1.30 15.86,0.26 15.47,-0.77 16.14,-2.30 16.81,-3.83 18.22,-4.30 19.63,-4.77 20.88,-4.27 22.12,-3.77 22.73,-2.78 23.35,-1.80 22.84,-0.03 22.34,1.73 21.01,2.73 19.69,3.72 18.30,3.92 16.92,4.13 15.40,3.93 13.88,3.73 12.25,3.26 10.62,2.80 8.64,2.36 6.66,1.92 5.88,2.81 5.11,3.70 3.78,5.03 2.45,6.36 1.05,6.21 -0.35,6.07 -1.20,4.74 -2.05,3.42 -1.95,1.71 -1.84,0 -1.81,-0.22 -1.78,-0.44 -1.71,-0.64 -1.63,-0.85 -1.50,-1.03 -1.37,-1.22 -1.21,-1.36 -1.04,-1.51 -0.85,-1.62 -0.65,-1.72 -0.43,-1.77 -0.22,-1.82 0.00,-1.82 0.22,-1.82 0.43,-1.77 0.65,-1.72 0.85,-1.61 1.04,-1.51 1.21,-1.36 1.37,-1.22 1.50,-1.03 1.63,-0.85 1.71,-0.64 1.78,-0.44 1.81,-0.22 1.84,0.00 1.84,0.00 L 1.84,0 Z"></path></g><g transform="translate(798.7999877929688 536) rotate(0 0 3.1999969482421875)" stroke="none"><path fill="#000" d="M 1.90,0 Q 1.90,0 0.29,0.78 -1.31,1.56 -1.27,1.35 -1.24,1.14 -1.14,0.95 -1.04,0.76 -0.89,0.62 -0.73,0.47 -0.54,0.38 -0.35,0.29 -0.14,0.27 0.07,0.25 0.27,0.29 0.48,0.34 0.66,0.45 0.85,0.56 0.98,0.72 1.12,0.88 1.20,1.08 1.28,1.28 1.29,1.49 1.30,1.70 1.24,1.91 1.19,2.11 1.07,2.29 0.95,2.46 0.78,2.59 0.61,2.72 0.41,2.79 0.21,2.86 -0.00,2.86 -0.21,2.85 -0.41,2.79 -0.61,2.72 -0.78,2.59 -0.95,2.46 -1.07,2.29 -1.19,2.11 -1.24,1.91 -1.30,1.70 -1.29,1.49 -1.28,1.28 -1.20,1.08 -1.12,0.88 -0.98,0.72 -0.84,0.56 -0.66,0.45 -0.48,0.34 -0.27,0.29 -0.07,0.25 0.14,0.27 0.35,0.29 0.54,0.38 0.73,0.47 0.89,0.62 1.04,0.76 1.14,0.95 1.24,1.14 1.27,1.35 1.31,1.56 1.31,1.56 1.31,1.56 -0.29,0.78 -1.90,0 -1.88,-0.22 -1.85,-0.45 -1.77,-0.67 -1.69,-0.88 -1.56,-1.07 -1.42,-1.26 -1.25,-1.41 -1.08,-1.57 -0.88,-1.67 -0.67,-1.78 -0.45,-1.84 -0.23,-1.89 0.00,-1.89 0.23,-1.89 0.45,-1.84 0.67,-1.78 0.88,-1.67 1.08,-1.57 1.25,-1.41 1.42,-1.26 1.56,-1.07 1.69,-0.88 1.77,-0.67 1.85,-0.45 1.88,-0.22 1.90,0.00 1.90,0.00 L 1.90,0 Z"></path></g><g transform="translate(802.7999877929688 539.1999816894531) rotate(0 1.60003662109375 22.800018310546875)" stroke="none"><path fill="#000" d="M -0.84,-1.41 Q -0.84,-1.41 0.17,-2.31 1.19,-3.22 2.34,-3.96 3.49,-4.69 4.51,-5.27 5.52,-5.84 7.47,-6.04 9.42,-6.24 10.89,-5.17 12.36,-4.10 13.86,-4.19 15.35,-4.28 17.34,-5.76 19.32,-7.25 20.46,-6.85 21.60,-6.46 22.80,-6.42 24.01,-6.38 25.03,-5.92 26.04,-5.47 26.45,-3.96 26.86,-2.45 26.03,2.86 25.19,8.18 23.89,14.26 22.59,20.35 21.12,26.41 19.64,32.46 17.08,37.79 14.52,43.12 10.84,47.00 7.15,50.89 1.42,51.88 -4.30,52.87 -8.80,50.94 -13.30,49.02 -16.08,45.38 -18.86,41.73 -19.91,40.30 -20.97,38.87 -21.07,38.68 -21.18,38.50 -21.22,38.29 -21.26,38.08 -21.23,37.87 -21.20,37.66 -21.11,37.47 -21.01,37.28 -20.86,37.13 -20.71,36.98 -20.52,36.88 -20.33,36.79 -20.12,36.76 -19.91,36.73 -19.70,36.77 -19.49,36.81 -19.31,36.92 -19.12,37.02 -18.98,37.18 -18.84,37.34 -18.76,37.53 -18.67,37.73 -18.65,37.94 -18.64,38.15 -18.69,38.36 -18.74,38.56 -18.85,38.74 -18.97,38.92 -19.13,39.05 -19.30,39.19 -19.50,39.26 -19.70,39.33 -19.91,39.34 -20.12,39.35 -20.33,39.28 -20.53,39.22 -20.70,39.10 -20.88,38.97 -21.00,38.80 -21.12,38.63 -21.19,38.43 -21.25,38.22 -21.24,38.01 -21.24,37.80 -21.16,37.60 -21.09,37.40 -20.96,37.23 -20.82,37.07 -20.64,36.95 -20.47,36.84 -20.26,36.79 -20.05,36.74 -19.84,36.75 -19.63,36.77 -19.43,36.85 -19.24,36.94 -19.08,37.08 -18.92,37.22 -18.92,37.22 -18.92,37.22 -17.75,38.56 -16.58,39.90 -14.11,42.79 -11.64,45.67 -8.12,47.19 -4.61,48.71 -0.13,48.07 4.34,47.43 7.35,44.23 10.35,41.03 12.72,36.18 15.10,31.33 16.56,25.35 18.02,19.37 19.31,13.37 20.60,7.38 22.28,2.35 23.97,-2.66 22.34,-2.55 20.71,-2.43 19.66,-2.94 18.62,-3.45 17.88,-4.56 17.14,-5.66 17.28,-7.09 17.42,-8.51 19.23,-9.61 21.05,-10.71 22.45,-10.17 23.85,-9.63 22.85,-6.90 21.85,-4.17 20.52,-3.06 19.18,-1.94 17.55,-1.04 15.91,-0.14 14.19,-0.01 12.48,0.11 10.42,-1.16 8.36,-2.43 7.09,-1.75 5.81,-1.07 4.61,-0.30 3.40,0.46 2.12,0.93 0.84,1.41 0.66,1.49 0.48,1.57 0.28,1.60 0.09,1.64 -0.10,1.63 -0.30,1.61 -0.49,1.55 -0.68,1.49 -0.85,1.39 -1.01,1.29 -1.15,1.15 -1.29,1.01 -1.40,0.84 -1.50,0.67 -1.56,0.48 -1.62,0.29 -1.63,0.09 -1.64,-0.10 -1.60,-0.30 -1.57,-0.49 -1.48,-0.67 -1.40,-0.85 -1.28,-1.01 -1.16,-1.16 -1.00,-1.29 -0.84,-1.41 -0.84,-1.41 L -0.84,-1.41 Z"></path></g><g transform="translate(800.4000244140625 521.6000061035156) rotate(0 0.00004999999998744897 0.00004999999999988347)" stroke="none"><path fill="#000" d="M 2.12,-2.12 Q 2.12,-2.12 2.40,-1.73 2.69,-1.33 2.83,-0.87 2.97,-0.40 2.96,0.08 2.95,0.56 2.78,1.02 2.61,1.47 2.31,1.85 2.00,2.23 1.59,2.49 1.18,2.76 0.71,2.87 0.24,2.99 -0.24,2.95 -0.72,2.91 -1.17,2.72 -1.61,2.53 -1.98,2.20 -2.34,1.88 -2.58,1.45 -2.82,1.03 -2.91,0.55 -3.00,0.08 -2.93,-0.40 -2.87,-0.88 -2.65,-1.31 -2.44,-1.75 -2.09,-2.09 -1.75,-2.44 -1.31,-2.65 -0.88,-2.87 -0.39,-2.93 0.08,-3.00 0.55,-2.91 1.03,-2.82 1.46,-2.58 1.88,-2.34 2.20,-1.97 2.53,-1.61 2.72,-1.17 2.91,-0.72 2.95,-0.23 2.99,0.24 2.87,0.71 2.76,1.18 2.49,1.59 2.23,2.00 1.85,2.31 1.47,2.61 1.02,2.78 0.56,2.95 0.07,2.96 -0.40,2.97 -0.87,2.83 -1.33,2.69 -1.73,2.40 -2.12,2.12 -2.12,2.12 -2.12,2.12 -2.34,1.83 -2.57,1.55 -2.72,1.22 -2.86,0.89 -2.93,0.53 -2.99,0.18 -2.97,-0.18 -2.95,-0.54 -2.84,-0.88 -2.74,-1.23 -2.55,-1.54 -2.36,-1.85 -2.10,-2.10 -1.85,-2.36 -1.54,-2.55 -1.23,-2.74 -0.88,-2.84 -0.54,-2.95 -0.17,-2.97 0.18,-2.99 0.53,-2.93 0.89,-2.86 1.22,-2.72 1.55,-2.57 1.84,-2.34 2.12,-2.12 2.12,-2.12 L 2.12,-2.12 Z"></path></g><g transform="translate(690 557.6000061035156) rotate(0 9.600006103515625 -1.600006103515625)" stroke="none"><path fill="#000" d="M -0.34,-1.85 Q -0.34,-1.85 3.32,-2.58 6.99,-3.30 10.03,-3.56 13.06,-3.82 15.46,-4.04 17.85,-4.26 18.07,-4.27 18.28,-4.28 18.48,-4.22 18.69,-4.16 18.86,-4.04 19.03,-3.91 19.16,-3.74 19.29,-3.57 19.35,-3.37 19.42,-3.17 19.42,-2.96 19.41,-2.74 19.34,-2.54 19.27,-2.34 19.14,-2.18 19.01,-2.01 18.83,-1.89 18.66,-1.77 18.45,-1.72 18.25,-1.66 18.03,-1.68 17.82,-1.69 17.63,-1.77 17.43,-1.86 17.27,-1.99 17.11,-2.13 17.00,-2.32 16.89,-2.50 16.85,-2.71 16.81,-2.92 16.83,-3.13 16.86,-3.34 16.95,-3.53 17.04,-3.72 17.19,-3.88 17.34,-4.03 17.53,-4.12 17.72,-4.22 17.93,-4.25 18.14,-4.29 18.35,-4.25 18.55,-4.21 18.74,-4.11 18.93,-4.01 19.07,-3.85 19.22,-3.70 19.30,-3.50 19.39,-3.31 19.41,-3.10 19.43,-2.88 19.38,-2.68 19.33,-2.47 19.22,-2.29 19.11,-2.11 18.95,-1.97 18.78,-1.84 18.58,-1.76 18.39,-1.69 18.39,-1.69 18.39,-1.69 15.91,-0.90 13.43,-0.11 10.57,0.21 7.72,0.54 4.03,1.20 0.34,1.85 0.12,1.87 -0.10,1.88 -0.33,1.84 -0.55,1.80 -0.76,1.71 -0.97,1.62 -1.15,1.48 -1.33,1.34 -1.47,1.16 -1.61,0.98 -1.70,0.77 -1.80,0.57 -1.84,0.34 -1.88,0.12 -1.87,-0.10 -1.86,-0.33 -1.79,-0.55 -1.72,-0.76 -1.61,-0.96 -1.49,-1.16 -1.33,-1.32 -1.17,-1.48 -0.97,-1.60 -0.78,-1.72 -0.56,-1.79 -0.34,-1.85 -0.34,-1.85 L -0.34,-1.85 Z"></path></g><g transform="translate(702 542.3999938964844) rotate(0 7.20001220703125 14.399993896484375)" stroke="none"><path fill="#000" d="M 1.36,-1.36 Q 1.36,-1.36 3.02,0.13 4.68,1.63 6.84,2.31 9.00,3.00 10.44,3.35 11.87,3.71 13.38,4.98 14.90,6.26 13.66,9.38 12.42,12.51 10.62,15.85 8.82,19.19 6.27,23.31 3.71,27.43 3.59,27.61 3.47,27.78 3.30,27.90 3.13,28.03 2.92,28.09 2.72,28.16 2.51,28.16 2.30,28.15 2.10,28.08 1.90,28.01 1.73,27.88 1.56,27.75 1.45,27.57 1.33,27.39 1.28,27.18 1.22,26.98 1.24,26.77 1.25,26.55 1.34,26.36 1.42,26.16 1.56,26.00 1.70,25.84 1.88,25.74 2.07,25.63 2.28,25.59 2.48,25.55 2.69,25.57 2.91,25.60 3.10,25.69 3.29,25.79 3.44,25.93 3.59,26.08 3.69,26.27 3.78,26.46 3.81,26.67 3.84,26.88 3.81,27.09 3.77,27.30 3.67,27.49 3.56,27.67 3.41,27.82 3.25,27.96 3.06,28.05 2.86,28.13 2.65,28.15 2.44,28.17 2.23,28.12 2.02,28.07 1.84,27.96 1.66,27.85 1.53,27.68 1.39,27.52 1.32,27.32 1.24,27.12 1.24,26.91 1.23,26.69 1.29,26.49 1.35,26.29 1.35,26.29 1.35,26.29 3.04,21.63 4.74,16.97 6.71,13.39 8.67,9.81 9.73,8.87 10.79,7.93 9.16,7.51 7.52,7.09 4.64,5.95 1.75,4.80 0.19,3.08 -1.36,1.36 -1.51,1.18 -1.65,1.00 -1.75,0.78 -1.84,0.57 -1.88,0.34 -1.93,0.11 -1.91,-0.11 -1.90,-0.34 -1.83,-0.57 -1.76,-0.79 -1.64,-0.99 -1.52,-1.19 -1.35,-1.35 -1.19,-1.52 -0.99,-1.64 -0.79,-1.76 -0.57,-1.83 -0.34,-1.90 -0.11,-1.91 0.11,-1.93 0.34,-1.88 0.57,-1.84 0.78,-1.75 1.00,-1.65 1.18,-1.51 1.36,-1.36 1.36,-1.36 L 1.36,-1.36 Z"></path></g><g transform="translate(1017.2000732421875 660.7999877929688) rotate(0 0.39996337890625 4)" stroke="none"><path fill="#000" d="M 1.40,0.23 Q 1.40,0.23 1.22,1.62 1.04,3.01 1.39,4.82 1.74,6.64 1.92,6.75 2.10,6.86 2.24,7.02 2.38,7.18 2.45,7.38 2.53,7.58 2.54,7.79 2.55,8.00 2.50,8.20 2.44,8.41 2.32,8.59 2.20,8.76 2.03,8.89 1.86,9.02 1.66,9.09 1.46,9.15 1.25,9.15 1.04,9.15 0.83,9.08 0.63,9.02 0.46,8.89 0.30,8.76 0.18,8.58 0.06,8.41 0.00,8.20 -0.05,8.00 -0.03,7.79 -0.02,7.57 0.05,7.38 0.12,7.18 0.26,7.02 0.40,6.86 0.58,6.75 0.76,6.64 0.97,6.59 1.18,6.55 1.39,6.57 1.60,6.59 1.79,6.68 1.99,6.77 2.14,6.92 2.30,7.06 2.39,7.25 2.49,7.44 2.53,7.65 2.56,7.86 2.53,8.07 2.49,8.28 2.39,8.47 2.29,8.65 2.14,8.80 1.99,8.94 1.79,9.03 1.60,9.12 1.39,9.15 1.18,9.17 0.97,9.12 0.76,9.08 0.76,9.08 0.76,9.08 -0.70,6.89 -2.17,4.71 -2.06,3.61 -1.96,2.50 -1.68,1.13 -1.40,-0.23 -1.35,-0.39 -1.30,-0.56 -1.22,-0.71 -1.13,-0.86 -1.01,-0.98 -0.89,-1.10 -0.75,-1.19 -0.60,-1.28 -0.44,-1.34 -0.27,-1.39 -0.10,-1.40 0.06,-1.42 0.23,-1.39 0.40,-1.36 0.55,-1.29 0.71,-1.23 0.85,-1.12 0.99,-1.02 1.09,-0.88 1.20,-0.75 1.27,-0.60 1.35,-0.44 1.38,-0.27 1.42,-0.10 1.41,0.06 1.40,0.23 1.40,0.23 L 1.40,0.23 Z"></path></g><g transform="translate(1022 674.3999938964844) rotate(0 3.5999755859375 -20.399993896484375)" stroke="none"><path fill="#000" d="M -1.31,0.21 Q -1.31,0.21 -1.74,-1.12 -2.17,-2.47 -2.30,-4.06 -2.44,-5.65 -2.51,-7.25 -2.58,-8.84 -2.62,-10.90 -2.66,-12.96 -2.68,-15.44 -2.69,-17.93 -2.70,-21.05 -2.70,-24.18 -2.47,-26.97 -2.24,-29.75 -2.15,-31.12 -2.05,-32.49 -3.48,-30.41 -4.90,-28.34 -5.85,-27.39 -6.81,-26.44 -7.40,-25.32 -7.98,-24.19 -8.14,-24.03 -8.30,-23.86 -8.50,-23.73 -8.69,-23.60 -8.91,-23.53 -9.13,-23.45 -9.36,-23.43 -9.59,-23.41 -9.82,-23.45 -10.05,-23.48 -10.27,-23.57 -10.48,-23.66 -10.67,-23.80 -10.86,-23.94 -11.01,-24.12 -11.15,-24.29 -11.25,-24.50 -11.36,-24.71 -11.40,-24.94 -11.45,-25.17 -11.45,-25.40 -11.44,-25.63 -11.38,-25.86 -11.31,-26.08 -11.20,-26.28 -11.08,-26.48 -9.90,-27.27 -8.71,-28.06 -6.97,-29.16 -5.23,-30.26 -3.44,-32.14 -1.66,-34.03 -0.14,-35.62 1.36,-37.21 2.18,-38.27 3.00,-39.33 3.91,-40.50 4.83,-41.68 6.48,-41.76 8.13,-41.85 9.65,-40.59 11.18,-39.32 12.02,-38.51 12.85,-37.69 13.66,-36.88 14.47,-36.08 16.12,-34.75 17.76,-33.42 17.92,-33.29 18.08,-33.15 18.20,-32.97 18.31,-32.79 18.35,-32.58 18.40,-32.37 18.38,-32.16 18.36,-31.95 18.27,-31.76 18.18,-31.56 18.04,-31.41 17.90,-31.25 17.71,-31.15 17.52,-31.05 17.31,-31.02 17.10,-30.98 16.89,-31.01 16.68,-31.04 16.49,-31.14 16.31,-31.24 16.16,-31.39 16.01,-31.55 15.92,-31.74 15.83,-31.93 15.80,-32.14 15.78,-32.35 15.82,-32.56 15.87,-32.77 15.97,-32.95 16.08,-33.13 16.24,-33.27 16.40,-33.41 16.60,-33.49 16.80,-33.57 17.01,-33.59 17.22,-33.60 17.43,-33.54 17.63,-33.49 17.81,-33.37 17.99,-33.25 18.12,-33.09 18.25,-32.92 18.32,-32.72 18.39,-32.52 18.39,-32.30 18.39,-32.09 18.32,-31.89 18.26,-31.69 18.13,-31.52 18.00,-31.35 17.83,-31.23 17.65,-31.10 17.45,-31.05 17.24,-30.99 17.03,-31.00 16.82,-31.01 16.62,-31.08 16.42,-31.16 16.42,-31.16 16.42,-31.16 14.17,-32.32 11.92,-33.49 11.11,-34.29 10.30,-35.09 9.48,-35.89 8.67,-36.69 7.15,-37.00 5.63,-37.32 4.72,-36.11 3.80,-34.90 2.32,-33.33 0.84,-31.76 -1.16,-29.45 -3.17,-27.14 -5.58,-25.67 -7.98,-24.19 -8.14,-24.03 -8.30,-23.86 -8.50,-23.73 -8.69,-23.60 -8.91,-23.53 -9.13,-23.45 -9.36,-23.43 -9.59,-23.41 -9.82,-23.45 -10.05,-23.48 -10.27,-23.57 -10.48,-23.66 -10.67,-23.80 -10.86,-23.94 -11.01,-24.12 -11.15,-24.29 -11.25,-24.50 -11.36,-24.71 -11.40,-24.94 -11.45,-25.17 -11.45,-25.40 -11.44,-25.63 -11.38,-25.86 -11.31,-26.08 -11.20,-26.28 -11.08,-26.48 -11.07,-26.79 -11.06,-27.10 -10.30,-28.14 -9.53,-29.17 -8.57,-30.13 -7.60,-31.09 -6.40,-32.25 -5.21,-33.41 -3.99,-34.57 -2.77,-35.72 -1.30,-36.32 0.16,-36.91 0.96,-34.57 1.77,-32.22 1.67,-30.83 1.56,-29.43 1.34,-26.81 1.11,-24.18 1.11,-21.06 1.12,-17.94 1.12,-15.46 1.12,-12.99 1.11,-10.96 1.10,-8.94 1.11,-7.41 1.13,-5.88 1.19,-4.46 1.25,-3.04 1.28,-1.63 1.31,-0.21 1.32,-0.05 1.33,0.10 1.30,0.25 1.26,0.41 1.20,0.56 1.13,0.70 1.03,0.83 0.92,0.95 0.80,1.05 0.67,1.15 0.52,1.21 0.37,1.28 0.21,1.30 0.05,1.33 -0.10,1.32 -0.26,1.30 -0.41,1.25 -0.56,1.20 -0.70,1.12 -0.84,1.03 -0.95,0.92 -1.06,0.80 -1.14,0.66 -1.22,0.52 -1.27,0.37 -1.31,0.21 -1.31,0.21 L -1.31,0.21 Z"></path></g><g transform="translate(1008.4000244140625 587.1999816894531) rotate(0 38 15.600006103515625)" stroke="none"><path fill="#000" d="M -0.17,1.72 Q -0.17,1.72 -2.45,1.59 -4.74,1.47 -6.51,2.04 -8.28,2.62 -10.23,4.14 -12.19,5.66 -14.08,8.23 -15.97,10.80 -17.43,13.85 -18.88,16.91 -19.24,20.84 -19.59,24.76 -18.08,27.43 -16.57,30.10 -13.45,32.03 -10.33,33.96 -5.48,35.27 -0.63,36.57 7.57,37.42 15.79,38.27 23.87,38.40 31.95,38.53 39.95,38.14 47.96,37.75 55.50,37.15 63.04,36.54 69.69,35.89 76.34,35.24 82.31,34.05 88.28,32.86 91.04,31.55 93.81,30.24 94.76,28.54 95.71,26.83 94.84,24.56 93.97,22.29 90.30,18.46 86.63,14.63 82.57,11.36 78.51,8.09 74.06,5.10 69.60,2.10 65.01,-0.27 60.41,-2.65 55.79,-4.32 51.16,-6.00 44.54,-6.68 37.91,-7.36 32.14,-7.20 26.37,-7.04 21.17,-6.52 15.98,-6.01 12.29,-5.13 8.60,-4.25 5.43,-2.16 2.25,-0.06 2.06,0.03 1.88,0.13 1.67,0.16 1.46,0.20 1.25,0.16 1.04,0.13 0.85,0.03 0.66,-0.06 0.52,-0.21 0.37,-0.37 0.28,-0.56 0.19,-0.75 0.17,-0.97 0.14,-1.18 0.19,-1.38 0.24,-1.59 0.35,-1.77 0.46,-1.96 0.62,-2.09 0.78,-2.23 0.98,-2.31 1.17,-2.39 1.39,-2.40 1.60,-2.41 1.80,-2.35 2.01,-2.30 2.18,-2.18 2.36,-2.06 2.49,-1.89 2.62,-1.72 2.68,-1.52 2.75,-1.32 2.75,-1.11 2.75,-0.89 2.68,-0.69 2.62,-0.49 2.49,-0.32 2.36,-0.15 2.18,-0.03 2.01,0.08 1.80,0.13 1.60,0.19 1.39,0.18 1.17,0.17 0.98,0.09 0.78,0.01 0.62,-0.12 0.45,-0.26 0.35,-0.44 0.24,-0.62 0.19,-0.83 0.14,-1.03 0.17,-1.25 0.19,-1.46 0.28,-1.65 0.37,-1.84 0.52,-2.00 0.66,-2.15 0.66,-2.15 0.66,-2.15 4.11,-5.09 7.57,-8.03 11.58,-8.98 15.59,-9.93 20.93,-10.46 26.27,-10.98 32.30,-11.12 38.33,-11.26 45.40,-10.47 52.47,-9.68 57.35,-7.90 62.22,-6.11 66.99,-3.60 71.76,-1.09 76.35,2.00 80.94,5.11 85.17,8.60 89.40,12.10 93.34,16.62 97.28,21.14 98.08,24.43 98.87,27.73 97.24,30.47 95.61,33.21 92.31,34.79 89.02,36.37 82.88,37.64 76.74,38.91 70.05,39.71 63.37,40.52 55.77,41.18 48.17,41.84 40.03,42.26 31.89,42.69 23.63,42.56 15.37,42.44 6.79,41.60 -1.79,40.77 -7.24,39.21 -12.70,37.65 -16.50,34.98 -20.30,32.32 -22.09,28.51 -23.88,24.71 -23.34,19.90 -22.80,15.09 -21.07,11.66 -19.35,8.22 -17.00,5.27 -14.65,2.31 -12.03,0.57 -9.42,-1.17 -6.94,-1.78 -4.45,-2.39 -2.14,-2.05 0.17,-1.72 0.37,-1.67 0.57,-1.62 0.76,-1.53 0.95,-1.44 1.11,-1.30 1.26,-1.17 1.39,-1.00 1.51,-0.83 1.59,-0.64 1.67,-0.44 1.69,-0.24 1.72,-0.03 1.70,0.17 1.68,0.37 1.61,0.57 1.54,0.77 1.43,0.94 1.31,1.11 1.16,1.26 1.01,1.40 0.82,1.50 0.64,1.60 0.44,1.65 0.24,1.71 0.03,1.71 -0.17,1.72 -0.17,1.72 L -0.17,1.72 Z"></path></g><g transform="translate(1028.4000244140625 598.3999938964844) rotate(0 -0.79998779296875 7.600006103515625)" stroke="none"><path fill="#000" d="M 1.80,0.36 Q 1.80,0.36 1.36,2.66 0.91,4.96 0.73,7.21 0.55,9.46 0.15,11.83 -0.23,14.20 -0.28,14.40 -0.32,14.61 -0.43,14.79 -0.54,14.98 -0.70,15.12 -0.86,15.25 -1.06,15.33 -1.25,15.41 -1.47,15.43 -1.68,15.44 -1.88,15.38 -2.09,15.33 -2.26,15.21 -2.44,15.09 -2.57,14.92 -2.70,14.75 -2.77,14.55 -2.84,14.35 -2.84,14.14 -2.84,13.93 -2.77,13.72 -2.71,13.52 -2.58,13.35 -2.45,13.18 -2.28,13.06 -2.10,12.94 -1.90,12.88 -1.69,12.83 -1.48,12.84 -1.27,12.85 -1.07,12.93 -0.87,13.00 -0.71,13.14 -0.55,13.28 -0.44,13.46 -0.33,13.64 -0.28,13.85 -0.23,14.05 -0.25,14.27 -0.28,14.48 -0.36,14.67 -0.45,14.86 -0.60,15.02 -0.74,15.17 -0.93,15.27 -1.12,15.37 -1.33,15.41 -1.54,15.45 -1.75,15.41 -1.96,15.38 -2.14,15.28 -2.33,15.18 -2.48,15.03 -2.63,14.87 -2.72,14.68 -2.81,14.49 -2.83,14.28 -2.85,14.07 -2.85,14.07 -2.85,14.07 -3.01,11.61 -3.17,9.16 -2.96,6.69 -2.75,4.23 -2.28,1.93 -1.80,-0.36 -1.73,-0.57 -1.66,-0.78 -1.54,-0.96 -1.42,-1.15 -1.27,-1.31 -1.11,-1.46 -0.91,-1.57 -0.72,-1.68 -0.51,-1.75 -0.30,-1.81 -0.08,-1.82 0.14,-1.83 0.35,-1.79 0.57,-1.74 0.77,-1.65 0.97,-1.55 1.14,-1.41 1.32,-1.27 1.45,-1.10 1.58,-0.92 1.67,-0.72 1.76,-0.51 1.80,-0.29 1.83,-0.08 1.82,0.13 1.80,0.36 1.80,0.36 L 1.80,0.36 Z"></path></g><g transform="translate(1026 593.6000061035156) rotate(0 6.79998779296875 -2)" stroke="none"><path fill="#000" d="M -0.86,-1.56 Q -0.86,-1.56 1.18,-2.76 3.24,-3.97 6.01,-4.47 8.78,-4.97 10.68,-5.06 12.58,-5.16 12.79,-5.16 13.00,-5.16 13.20,-5.09 13.40,-5.02 13.57,-4.89 13.74,-4.77 13.86,-4.59 13.98,-4.41 14.04,-4.21 14.09,-4.00 14.08,-3.79 14.07,-3.58 13.99,-3.38 13.91,-3.18 13.77,-3.02 13.63,-2.86 13.45,-2.75 13.27,-2.64 13.06,-2.60 12.85,-2.55 12.64,-2.58 12.43,-2.60 12.24,-2.69 12.05,-2.78 11.89,-2.93 11.74,-3.07 11.64,-3.26 11.54,-3.45 11.51,-3.66 11.47,-3.87 11.51,-4.08 11.54,-4.29 11.64,-4.47 11.74,-4.66 11.90,-4.81 12.05,-4.95 12.24,-5.04 12.44,-5.13 12.65,-5.15 12.86,-5.18 13.07,-5.13 13.28,-5.08 13.46,-4.97 13.64,-4.86 13.78,-4.70 13.91,-4.54 13.99,-4.34 14.07,-4.14 14.08,-3.93 14.09,-3.72 14.03,-3.51 13.98,-3.31 13.86,-3.13 13.74,-2.96 13.57,-2.83 13.40,-2.70 13.20,-2.64 12.99,-2.57 12.99,-2.57 12.99,-2.57 11.22,-2.07 9.45,-1.58 7.24,-1.10 5.03,-0.62 2.95,0.46 0.86,1.56 0.66,1.64 0.46,1.72 0.25,1.75 0.04,1.78 -0.17,1.76 -0.38,1.74 -0.59,1.67 -0.79,1.60 -0.97,1.48 -1.15,1.36 -1.30,1.20 -1.44,1.05 -1.55,0.86 -1.65,0.67 -1.71,0.46 -1.77,0.25 -1.77,0.04 -1.78,-0.17 -1.73,-0.38 -1.68,-0.59 -1.59,-0.78 -1.49,-0.98 -1.35,-1.14 -1.21,-1.31 -1.04,-1.43 -0.86,-1.56 -0.86,-1.56 L -0.86,-1.56 Z"></path></g><g transform="translate(1024.4000244140625 601.6000061035156) rotate(0 5.20001220703125 0)" stroke="none"><path fill="#000" d="M 0,-1.90 Q 0,-1.90 2.53,-1.86 5.06,-1.82 7.24,-1.57 9.43,-1.31 9.64,-1.27 9.85,-1.24 10.04,-1.14 10.23,-1.04 10.37,-0.89 10.52,-0.73 10.61,-0.54 10.70,-0.35 10.72,-0.14 10.74,0.07 10.70,0.27 10.65,0.48 10.54,0.66 10.43,0.85 10.27,0.98 10.11,1.12 9.91,1.20 9.71,1.28 9.50,1.29 9.29,1.30 9.08,1.24 8.88,1.19 8.70,1.07 8.53,0.95 8.40,0.78 8.27,0.61 8.20,0.41 8.13,0.21 8.13,-0.00 8.13,-0.21 8.20,-0.41 8.27,-0.61 8.40,-0.78 8.53,-0.95 8.70,-1.07 8.88,-1.19 9.08,-1.24 9.29,-1.30 9.50,-1.29 9.71,-1.28 9.91,-1.20 10.11,-1.12 10.27,-0.98 10.43,-0.84 10.54,-0.66 10.65,-0.48 10.70,-0.27 10.74,-0.07 10.72,0.14 10.70,0.35 10.61,0.54 10.52,0.73 10.37,0.89 10.22,1.04 10.04,1.14 9.85,1.24 9.64,1.27 9.43,1.31 9.43,1.31 9.43,1.31 7.24,1.57 5.06,1.82 2.53,1.86 0,1.90 -0.22,1.88 -0.45,1.85 -0.67,1.77 -0.88,1.69 -1.07,1.56 -1.26,1.42 -1.41,1.25 -1.57,1.08 -1.67,0.88 -1.78,0.67 -1.84,0.45 -1.89,0.23 -1.89,-0.00 -1.89,-0.23 -1.84,-0.45 -1.78,-0.67 -1.67,-0.88 -1.57,-1.08 -1.41,-1.25 -1.26,-1.42 -1.07,-1.56 -0.88,-1.69 -0.67,-1.77 -0.45,-1.85 -0.22,-1.88 0.00,-1.90 0.00,-1.90 L 0,-1.90 Z"></path></g><g transform="translate(1042.800048828125 608) rotate(0 -0.4000244140625 2.399993896484375)" stroke="none"><path fill="#000" d="M 1.72,0.24 Q 1.72,0.24 1.58,1.86 1.43,3.49 1.31,3.94 1.20,4.39 1.14,4.61 1.08,4.83 0.97,5.02 0.86,5.22 0.71,5.39 0.55,5.55 0.36,5.68 0.18,5.80 -0.03,5.88 -0.24,5.95 -0.47,5.98 -0.69,6.00 -0.91,5.97 -1.14,5.93 -1.35,5.85 -1.56,5.76 -1.74,5.63 -1.92,5.50 -2.07,5.33 -2.22,5.16 -2.32,4.95 -2.42,4.75 -2.47,4.53 -2.52,4.31 -2.51,4.08 -2.51,3.86 -1.59,1.34 -0.67,-1.17 -0.46,-1.19 -0.25,-1.22 -0.04,-1.17 0.15,-1.12 0.34,-1.01 0.52,-0.90 0.65,-0.73 0.79,-0.57 0.87,-0.37 0.94,-0.17 0.95,0.03 0.96,0.24 0.90,0.44 0.84,0.65 0.72,0.82 0.60,1.00 0.43,1.12 0.26,1.25 0.06,1.32 -0.13,1.38 -0.35,1.38 -0.56,1.38 -0.76,1.31 -0.96,1.24 -1.13,1.11 -1.29,0.98 -1.41,0.80 -1.53,0.63 -1.59,0.42 -1.64,0.22 -1.63,0.00 -1.61,-0.20 -1.53,-0.40 -1.45,-0.59 -1.31,-0.75 -1.17,-0.91 -0.99,-1.02 -0.81,-1.13 -0.60,-1.17 -0.39,-1.22 -0.18,-1.19 0.02,-1.17 0.21,-1.08 0.40,-0.98 0.56,-0.84 0.71,-0.69 0.81,-0.50 0.91,-0.31 0.94,-0.10 0.97,0.10 0.93,0.31 0.90,0.52 0.80,0.70 0.69,0.89 0.54,1.03 0.38,1.18 0.19,1.27 0.00,1.35 0.00,1.35 0.00,1.35 0.60,2.87 1.20,4.39 1.14,4.61 1.08,4.82 0.97,5.02 0.86,5.22 0.71,5.39 0.55,5.55 0.36,5.68 0.18,5.80 -0.03,5.88 -0.24,5.95 -0.47,5.98 -0.69,6.00 -0.91,5.97 -1.14,5.93 -1.35,5.85 -1.56,5.76 -1.74,5.63 -1.92,5.50 -2.07,5.33 -2.22,5.16 -2.32,4.95 -2.42,4.75 -2.47,4.53 -2.52,4.31 -2.51,4.08 -2.51,3.86 -2.43,3.40 -2.35,2.94 -2.04,1.35 -1.72,-0.24 -1.67,-0.44 -1.61,-0.65 -1.51,-0.83 -1.41,-1.02 -1.27,-1.17 -1.12,-1.32 -0.95,-1.44 -0.77,-1.56 -0.57,-1.63 -0.38,-1.70 -0.17,-1.72 0.03,-1.74 0.24,-1.71 0.45,-1.68 0.64,-1.60 0.84,-1.52 1.01,-1.40 1.18,-1.28 1.31,-1.12 1.45,-0.95 1.54,-0.77 1.64,-0.58 1.68,-0.37 1.73,-0.17 1.73,0.03 1.72,0.24 1.72,0.24 L 1.72,0.24 Z"></path></g><g transform="translate(1072.4000244140625 597.6000061035156) rotate(0 -7.20001220703125 8.79998779296875)" stroke="none"><path fill="#000" d="M -0.59,1.78 Q -0.59,1.78 -1.97,1.39 -3.35,0.99 -4.97,1.70 -6.60,2.40 -7.24,3.55 -7.88,4.70 -7.38,5.88 -6.87,7.06 -5.77,7.88 -4.66,8.70 -3.44,9.61 -2.22,10.52 -0.65,12.22 0.90,13.91 0.95,15.46 1.00,17.00 -0.21,18.33 -1.42,19.66 -3.63,20.18 -5.84,20.70 -8.10,20.29 -10.35,19.87 -12.33,18.34 -14.31,16.81 -14.47,16.67 -14.63,16.53 -14.73,16.34 -14.83,16.16 -14.87,15.95 -14.91,15.74 -14.88,15.53 -14.85,15.32 -14.75,15.13 -14.66,14.94 -14.51,14.79 -14.36,14.64 -14.16,14.55 -13.97,14.45 -13.76,14.43 -13.55,14.40 -13.34,14.44 -13.14,14.48 -12.95,14.59 -12.77,14.70 -12.63,14.86 -12.49,15.02 -12.40,15.21 -12.32,15.41 -12.31,15.62 -12.29,15.83 -12.34,16.04 -12.40,16.24 -12.51,16.42 -12.63,16.60 -12.79,16.73 -12.96,16.86 -13.16,16.93 -13.36,17.01 -13.57,17.01 -13.79,17.01 -13.99,16.95 -14.19,16.89 -14.36,16.76 -14.53,16.63 -14.66,16.46 -14.78,16.29 -14.84,16.08 -14.90,15.88 -14.89,15.67 -14.89,15.46 -14.81,15.26 -14.74,15.06 -14.60,14.89 -14.47,14.73 -14.29,14.62 -14.11,14.50 -13.90,14.45 -13.69,14.40 -13.48,14.42 -13.27,14.44 -13.08,14.53 -12.88,14.61 -12.88,14.61 -12.88,14.61 -11.25,15.44 -9.62,16.26 -8.07,16.48 -6.51,16.70 -4.53,16.31 -2.55,15.93 -3.63,14.90 -4.72,13.87 -6.04,12.89 -7.35,11.91 -8.97,10.44 -10.58,8.97 -11.19,7.54 -11.80,6.12 -11.85,4.81 -11.89,3.50 -11.30,2.07 -10.70,0.64 -9.63,-0.32 -8.56,-1.28 -6.78,-2.08 -5.00,-2.88 -3.58,-2.86 -2.16,-2.83 -0.78,-2.31 0.59,-1.78 0.80,-1.69 1.00,-1.59 1.18,-1.45 1.35,-1.30 1.49,-1.12 1.63,-0.94 1.72,-0.73 1.81,-0.52 1.84,-0.30 1.88,-0.07 1.86,0.14 1.84,0.37 1.77,0.59 1.70,0.80 1.58,0.99 1.46,1.19 1.29,1.34 1.13,1.50 0.93,1.62 0.73,1.73 0.52,1.79 0.30,1.86 0.07,1.86 -0.15,1.87 -0.37,1.83 -0.59,1.78 -0.59,1.78 L -0.59,1.78 Z"></path></g><g transform="translate(1030 548) rotate(0 -0.79998779296875 16)" stroke="none"><path fill="#000" d="M 1.60,0.29 Q 1.60,0.29 1.29,2.84 0.98,5.40 0.57,7.85 0.15,10.30 -0.00,12.41 -0.16,14.51 -0.48,16.66 -0.79,18.80 -1.14,21.30 -1.50,23.79 -1.64,25.49 -1.78,27.18 -1.84,28.35 -1.91,29.52 -3.50,31.35 -5.10,33.17 -6.66,32.16 -8.22,31.15 -9.01,30.40 -9.80,29.65 -10.68,28.56 -11.56,27.46 -12.31,26.62 -13.06,25.78 -13.71,24.85 -14.35,23.91 -14.98,22.91 -15.60,21.91 -15.73,21.72 -15.85,21.52 -15.92,21.30 -15.99,21.08 -16.01,20.84 -16.03,20.61 -15.99,20.38 -15.95,20.15 -15.86,19.94 -15.76,19.73 -15.62,19.54 -15.48,19.36 -15.30,19.21 -15.12,19.06 -14.91,18.97 -14.70,18.87 -14.47,18.82 -14.24,18.78 -14.01,18.79 -13.78,18.80 -13.55,18.87 -13.33,18.93 -13.13,19.05 -12.93,19.17 -12.76,19.33 -12.60,19.49 -11.20,20.47 -9.81,21.45 -8.75,22.18 -7.69,22.90 -6.29,23.92 -4.89,24.94 -3.78,25.87 -2.68,26.80 -1.69,27.53 -0.70,28.27 0.63,27.20 1.97,26.13 3.31,24.91 4.64,23.69 5.90,22.33 7.15,20.98 9.15,19.54 11.15,18.09 11.33,17.98 11.51,17.86 11.72,17.82 11.93,17.77 12.14,17.79 12.35,17.80 12.55,17.89 12.74,17.98 12.90,18.12 13.05,18.26 13.16,18.45 13.26,18.63 13.30,18.84 13.33,19.05 13.30,19.26 13.27,19.47 13.18,19.66 13.08,19.85 12.93,20.00 12.78,20.15 12.59,20.24 12.39,20.33 12.18,20.36 11.97,20.39 11.77,20.35 11.56,20.30 11.37,20.20 11.19,20.09 11.05,19.93 10.91,19.77 10.83,19.58 10.74,19.38 10.73,19.17 10.71,18.96 10.77,18.75 10.82,18.55 10.94,18.37 11.05,18.19 11.22,18.06 11.39,17.93 11.59,17.86 11.79,17.78 12.00,17.78 12.21,17.78 12.41,17.84 12.62,17.90 12.79,18.03 12.96,18.16 13.08,18.33 13.20,18.50 13.26,18.71 13.32,18.91 13.32,19.12 13.31,19.34 13.23,19.53 13.16,19.73 13.02,19.90 12.89,20.06 12.89,20.06 12.89,20.06 11.38,21.70 9.87,23.35 8.58,24.93 7.29,26.51 5.88,27.86 4.47,29.22 3.21,30.21 1.95,31.20 -0.23,31.48 -2.42,31.76 -3.81,30.76 -5.20,29.77 -6.19,28.92 -7.18,28.08 -8.53,27.09 -9.89,26.10 -10.98,25.34 -12.08,24.59 -13.84,23.25 -15.60,21.91 -15.73,21.72 -15.85,21.52 -15.92,21.30 -15.99,21.08 -16.01,20.84 -16.03,20.61 -15.99,20.38 -15.95,20.15 -15.86,19.94 -15.76,19.73 -15.62,19.54 -15.48,19.36 -15.30,19.21 -15.12,19.06 -14.91,18.97 -14.70,18.87 -14.47,18.82 -14.24,18.78 -14.01,18.79 -13.78,18.80 -13.55,18.87 -13.33,18.93 -13.13,19.05 -12.93,19.17 -12.76,19.33 -12.60,19.49 -12.39,19.98 -12.18,20.47 -11.19,21.84 -10.19,23.22 -9.36,24.14 -8.52,25.07 -7.11,26.64 -5.70,28.21 -4.74,29.05 -3.78,29.88 -4.83,29.60 -5.89,29.31 -5.82,28.07 -5.76,26.83 -5.59,25.03 -5.42,23.22 -5.06,20.73 -4.69,18.23 -4.39,16.21 -4.09,14.19 -3.89,11.91 -3.70,9.63 -3.26,7.17 -2.82,4.71 -2.21,2.21 -1.60,-0.29 -1.54,-0.47 -1.48,-0.66 -1.38,-0.83 -1.28,-1.00 -1.14,-1.14 -1.00,-1.28 -0.84,-1.38 -0.67,-1.48 -0.48,-1.54 -0.29,-1.60 -0.10,-1.61 0.09,-1.62 0.28,-1.59 0.48,-1.55 0.66,-1.47 0.84,-1.39 0.99,-1.27 1.15,-1.15 1.27,-1.00 1.39,-0.84 1.47,-0.66 1.55,-0.48 1.59,-0.29 1.62,-0.10 1.61,0.09 1.60,0.29 1.60,0.29 L 1.60,0.29 Z"></path></g><g transform="translate(1031.5999755859375 546.3999938964844) rotate(0 -5.199951171875 6)" stroke="none"><path fill="#000" d="M 1.29,1.03 Q 1.29,1.03 0.45,2.25 -0.37,3.46 -1.48,4.71 -2.58,5.95 -3.74,7.16 -4.91,8.38 -6.95,10.32 -8.99,12.27 -9.14,12.42 -9.29,12.58 -9.47,12.68 -9.66,12.78 -9.87,12.81 -10.08,12.84 -10.29,12.81 -10.50,12.78 -10.69,12.68 -10.88,12.58 -11.02,12.42 -11.17,12.27 -11.26,12.07 -11.35,11.88 -11.37,11.67 -11.39,11.46 -11.35,11.25 -11.30,11.04 -11.19,10.86 -11.08,10.68 -10.92,10.54 -10.76,10.41 -10.56,10.33 -10.36,10.25 -10.15,10.24 -9.94,10.23 -9.73,10.28 -9.53,10.34 -9.35,10.46 -9.18,10.58 -9.05,10.75 -8.92,10.92 -8.85,11.12 -8.78,11.32 -8.78,11.53 -8.78,11.74 -8.85,11.95 -8.92,12.15 -9.05,12.32 -9.18,12.48 -9.35,12.60 -9.53,12.72 -9.73,12.78 -9.94,12.84 -10.15,12.83 -10.36,12.81 -10.56,12.73 -10.76,12.66 -10.92,12.52 -11.08,12.38 -11.19,12.20 -11.30,12.02 -11.35,11.81 -11.39,11.60 -11.37,11.39 -11.35,11.18 -11.26,10.99 -11.17,10.79 -11.17,10.79 -11.17,10.79 -9.43,8.24 -7.69,5.69 -6.55,4.52 -5.41,3.35 -4.36,2.24 -3.30,1.13 -2.29,0.04 -1.29,-1.03 -1.14,-1.17 -1.00,-1.31 -0.83,-1.41 -0.66,-1.51 -0.47,-1.57 -0.28,-1.62 -0.08,-1.63 0.11,-1.64 0.31,-1.61 0.50,-1.57 0.68,-1.49 0.87,-1.40 1.02,-1.28 1.18,-1.15 1.30,-0.99 1.42,-0.84 1.50,-0.65 1.58,-0.47 1.61,-0.27 1.65,-0.08 1.63,0.11 1.62,0.31 1.56,0.50 1.50,0.69 1.39,0.86 1.29,1.03 1.29,1.03 L 1.29,1.03 Z"></path></g><g transform="translate(1034 545.6000061035156) rotate(0 4.79998779296875 4.79998779296875)" stroke="none"><path fill="#000" d="M 1.25,-0.89 Q 1.25,-0.89 2.55,0.60 3.85,2.10 4.75,3.19 5.65,4.27 7.78,6.22 9.92,8.17 10.06,8.33 10.20,8.49 10.29,8.68 10.37,8.88 10.39,9.09 10.41,9.30 10.36,9.51 10.31,9.71 10.19,9.89 10.08,10.07 9.91,10.21 9.75,10.34 9.55,10.41 9.35,10.49 9.14,10.49 8.92,10.50 8.72,10.44 8.52,10.38 8.34,10.25 8.17,10.13 8.05,9.96 7.92,9.79 7.86,9.58 7.80,9.38 7.80,9.17 7.81,8.95 7.88,8.76 7.95,8.56 8.08,8.39 8.22,8.22 8.40,8.11 8.57,7.99 8.78,7.94 8.99,7.89 9.20,7.91 9.41,7.92 9.61,8.01 9.80,8.09 9.96,8.23 10.12,8.37 10.22,8.56 10.33,8.74 10.37,8.95 10.41,9.16 10.38,9.37 10.35,9.58 10.26,9.77 10.17,9.96 10.02,10.11 9.87,10.26 9.68,10.36 9.49,10.45 9.28,10.48 9.07,10.51 8.86,10.47 8.65,10.43 8.46,10.33 8.28,10.22 8.28,10.22 8.28,10.22 5.50,8.48 2.73,6.74 1.73,5.53 0.74,4.33 -0.25,2.61 -1.25,0.89 -1.34,0.73 -1.42,0.56 -1.47,0.38 -1.52,0.20 -1.52,0.02 -1.52,-0.16 -1.48,-0.34 -1.44,-0.52 -1.36,-0.68 -1.27,-0.85 -1.15,-0.99 -1.03,-1.13 -0.88,-1.24 -0.73,-1.35 -0.56,-1.41 -0.39,-1.48 -0.20,-1.51 -0.02,-1.53 0.15,-1.51 0.34,-1.49 0.51,-1.43 0.69,-1.37 0.84,-1.27 1.00,-1.16 1.12,-1.03 1.25,-0.89 1.25,-0.89 L 1.25,-0.89 Z"></path></g><g transform="translate(1025.2000732421875 526.3999938964844) rotate(0 -2.4000244140625 7.600006103515625)" stroke="none"><path fill="#000" d="M 1.67,0.41 Q 1.67,0.41 1.32,2.28 0.98,4.15 0.81,5.94 0.65,7.74 0.56,9.22 0.48,10.70 -1.52,13.27 -3.53,15.84 -3.71,15.95 -3.89,16.06 -4.10,16.11 -4.31,16.15 -4.52,16.13 -4.73,16.10 -4.92,16.01 -5.11,15.92 -5.27,15.78 -5.42,15.63 -5.52,15.44 -5.62,15.25 -5.65,15.05 -5.69,14.84 -5.65,14.63 -5.62,14.42 -5.52,14.23 -5.42,14.04 -5.26,13.90 -5.11,13.75 -4.91,13.66 -4.72,13.57 -4.51,13.55 -4.30,13.53 -4.09,13.57 -3.88,13.62 -3.70,13.73 -3.52,13.84 -3.38,14.00 -3.25,14.17 -3.17,14.36 -3.09,14.56 -3.08,14.77 -3.07,14.99 -3.13,15.19 -3.18,15.39 -3.30,15.57 -3.42,15.75 -3.59,15.87 -3.76,16.00 -3.96,16.07 -4.17,16.14 -4.38,16.14 -4.59,16.13 -4.79,16.07 -4.99,16.00 -5.16,15.87 -5.33,15.74 -5.45,15.56 -5.57,15.39 -5.62,15.18 -5.68,14.98 -5.67,14.77 -5.66,14.55 -5.58,14.36 -5.50,14.16 -5.36,14.00 -5.22,13.84 -5.22,13.84 -5.22,13.84 -4.33,12.13 -3.43,10.43 -3.35,8.88 -3.27,7.34 -3.04,5.27 -2.82,3.20 -2.24,1.39 -1.67,-0.41 -1.59,-0.61 -1.52,-0.80 -1.40,-0.97 -1.28,-1.14 -1.13,-1.28 -0.97,-1.42 -0.79,-1.51 -0.60,-1.61 -0.40,-1.66 -0.20,-1.71 0.00,-1.71 0.21,-1.71 0.41,-1.66 0.61,-1.61 0.80,-1.51 0.98,-1.41 1.14,-1.27 1.29,-1.14 1.41,-0.96 1.53,-0.79 1.60,-0.60 1.67,-0.40 1.70,-0.20 1.72,0.00 1.70,0.21 1.67,0.41 1.67,0.41 L 1.67,0.41 Z"></path></g><g transform="translate(1011.5999755859375 528.7999877929688) rotate(0 15.20001220703125 5.1999969482421875)" stroke="none"><path fill="#000" d="M -1.01,-1.01 Q -1.01,-1.01 0.91,-3.24 2.84,-5.48 5.33,-6.77 7.83,-8.05 9.63,-8.59 11.44,-9.12 13.50,-9.35 15.56,-9.58 18.61,-8.47 21.66,-7.35 23.93,-5.62 26.21,-3.89 27.72,-1.87 29.23,0.14 30.13,2.06 31.03,3.98 30.94,6.17 30.84,8.37 28.49,11.16 26.15,13.95 23.36,15.37 20.57,16.79 18.49,17.56 16.42,18.34 15.25,18.54 14.07,18.74 13.96,18.93 13.85,19.11 13.69,19.24 13.52,19.38 13.33,19.46 13.13,19.53 12.92,19.54 12.70,19.55 12.50,19.50 12.29,19.44 12.12,19.32 11.94,19.20 11.82,19.03 11.69,18.86 11.62,18.65 11.56,18.45 11.56,18.24 11.56,18.03 11.63,17.83 11.70,17.63 11.83,17.46 11.96,17.29 12.14,17.17 12.31,17.05 12.52,17.00 12.72,16.94 12.93,16.96 13.15,16.97 13.34,17.05 13.54,17.13 13.70,17.27 13.86,17.41 13.97,17.59 14.08,17.77 14.12,17.98 14.17,18.19 14.14,18.40 14.12,18.61 14.03,18.80 13.94,18.99 13.79,19.15 13.64,19.30 13.45,19.40 13.26,19.50 13.05,19.53 12.84,19.56 12.64,19.53 12.43,19.49 12.24,19.39 12.05,19.29 11.91,19.13 11.76,18.98 11.67,18.78 11.59,18.59 11.56,18.38 11.54,18.17 11.59,17.96 11.64,17.75 11.64,17.75 11.64,17.75 13.34,16.20 15.04,14.65 16.95,13.94 18.85,13.23 21.08,12.22 23.32,11.21 25.21,9.39 27.11,7.56 27.26,6.48 27.41,5.39 26.72,3.92 26.04,2.44 24.90,0.79 23.76,-0.84 21.96,-2.31 20.17,-3.78 17.96,-4.80 15.75,-5.82 14.11,-5.64 12.47,-5.47 10.98,-5.06 9.48,-4.66 7.46,-3.72 5.43,-2.79 3.22,-0.89 1.01,1.01 0.87,1.12 0.74,1.22 0.58,1.29 0.42,1.37 0.25,1.40 0.08,1.43 -0.08,1.42 -0.25,1.41 -0.42,1.36 -0.58,1.30 -0.73,1.21 -0.88,1.12 -1.00,1.00 -1.13,0.88 -1.21,0.73 -1.30,0.58 -1.36,0.42 -1.41,0.25 -1.42,0.08 -1.43,-0.08 -1.40,-0.25 -1.37,-0.42 -1.29,-0.58 -1.22,-0.74 -1.12,-0.87 -1.01,-1.01 -1.01,-1.01 L -1.01,-1.01 Z"></path></g><g transform="translate(1051.5999755859375 529.6000061035156) rotate(0 2.800048828125 6.79998779296875)" stroke="none"><path fill="#000" d="M 1.73,0.63 Q 1.73,0.63 0.84,3.16 -0.05,5.70 -0.40,7.77 -0.75,9.83 -0.91,10.98 -1.07,12.12 -1.14,12.85 -1.21,13.58 -1.27,13.80 -1.33,14.03 -1.44,14.23 -1.55,14.43 -1.70,14.60 -1.86,14.76 -2.05,14.89 -2.24,15.02 -2.46,15.10 -2.67,15.17 -2.90,15.20 -3.13,15.22 -3.35,15.19 -3.58,15.15 -3.79,15.07 -4.01,14.98 -4.19,14.85 -4.38,14.72 -4.53,14.54 -4.68,14.37 -4.78,14.16 -4.88,13.96 -4.93,13.73 -4.98,13.51 -4.98,13.28 -4.97,13.05 -5.38,11.00 -5.78,8.95 -5.83,6.60 -5.87,4.24 -5.66,2.22 -5.44,0.19 -5.03,-1.51 -4.62,-3.23 -3.27,-4.54 -1.92,-5.85 -0.21,-6.39 1.50,-6.93 3.09,-6.88 4.69,-6.83 6.16,-6.11 7.64,-5.38 8.42,-3.70 9.21,-2.03 8.69,-0.09 8.18,1.84 6.87,3.43 5.57,5.02 4.52,5.91 3.48,6.79 5.25,6.85 7.01,6.90 8.29,8.05 9.56,9.20 10.21,10.73 10.87,12.27 10.60,13.96 10.33,15.66 9.31,17.00 8.28,18.34 6.72,19.21 5.16,20.07 2.94,19.90 0.72,19.73 0.52,19.65 0.33,19.56 0.17,19.41 0.02,19.27 -0.07,19.08 -0.17,18.89 -0.21,18.68 -0.24,18.47 -0.21,18.26 -0.18,18.05 -0.08,17.87 0.01,17.68 0.17,17.53 0.32,17.38 0.51,17.29 0.70,17.20 0.92,17.18 1.13,17.16 1.33,17.20 1.54,17.25 1.72,17.35 1.91,17.46 2.05,17.62 2.18,17.79 2.26,17.98 2.34,18.18 2.36,18.39 2.37,18.60 2.31,18.81 2.26,19.01 2.14,19.19 2.02,19.37 1.85,19.50 1.68,19.63 1.48,19.69 1.28,19.76 1.07,19.76 0.85,19.76 0.65,19.70 0.45,19.63 0.28,19.50 0.11,19.38 -0.00,19.20 -0.12,19.02 -0.18,18.82 -0.23,18.62 -0.22,18.40 -0.21,18.19 -0.13,17.99 -0.06,17.80 0.07,17.63 0.21,17.47 0.39,17.36 0.57,17.25 0.78,17.20 0.98,17.16 1.20,17.18 1.41,17.20 1.41,17.20 1.41,17.20 3.35,16.42 5.30,15.64 6.18,14.47 7.07,13.30 6.15,11.90 5.23,10.51 4.03,9.94 2.83,9.37 1.46,8.56 0.08,7.75 0.49,5.73 0.90,3.70 1.74,3.04 2.58,2.37 3.55,1.39 4.52,0.41 4.96,-1.02 5.40,-2.46 3.92,-2.82 2.45,-3.17 0.66,-2.55 -1.11,-1.94 -1.34,-0.65 -1.57,0.62 -1.77,2.39 -1.98,4.17 -1.93,6.43 -1.88,8.69 -1.85,10.03 -1.81,11.37 -1.51,12.47 -1.21,13.58 -1.27,13.80 -1.32,14.03 -1.44,14.23 -1.55,14.43 -1.70,14.60 -1.86,14.76 -2.05,14.89 -2.24,15.02 -2.46,15.10 -2.67,15.17 -2.90,15.20 -3.13,15.22 -3.35,15.19 -3.58,15.15 -3.79,15.07 -4.01,14.98 -4.19,14.85 -4.38,14.72 -4.53,14.54 -4.68,14.37 -4.78,14.16 -4.88,13.96 -4.93,13.73 -4.98,13.51 -4.98,13.28 -4.97,13.05 -4.90,12.32 -4.83,11.59 -4.66,10.38 -4.49,9.18 -4.05,6.79 -3.62,4.41 -2.68,1.89 -1.73,-0.63 -1.63,-0.82 -1.53,-1.02 -1.38,-1.19 -1.24,-1.36 -1.06,-1.49 -0.88,-1.62 -0.67,-1.70 -0.46,-1.78 -0.24,-1.81 -0.02,-1.84 0.19,-1.82 0.41,-1.79 0.62,-1.72 0.83,-1.64 1.02,-1.52 1.20,-1.39 1.35,-1.23 1.50,-1.06 1.61,-0.87 1.71,-0.67 1.77,-0.46 1.82,-0.24 1.83,-0.02 1.83,0.19 1.78,0.41 1.73,0.63 1.73,0.63 L 1.73,0.63 Z"></path></g><g transform="translate(1074 531.1999816894531) rotate(0 5.60003662109375 2.4000091552734375)" stroke="none"><path fill="#000" d="M 1.77,0.71 Q 1.77,0.71 0.86,3.01 -0.03,5.31 -0.38,6.84 -0.73,8.37 -0.98,9.91 -1.23,11.44 -1.20,11.40 -1.18,11.36 -1.24,11.59 -1.29,11.83 -1.40,12.04 -1.51,12.25 -1.67,12.43 -1.82,12.61 -2.02,12.75 -2.21,12.89 -2.44,12.97 -2.66,13.06 -2.90,13.09 -3.13,13.12 -3.37,13.10 -3.61,13.07 -3.83,12.99 -4.06,12.90 -4.25,12.77 -4.45,12.64 -4.61,12.46 -4.77,12.28 -4.89,12.07 -5.00,11.86 -5.06,11.63 -5.12,11.40 -5.12,11.16 -5.12,10.92 -4.07,7.37 -3.02,3.83 -2.47,1.89 -1.91,-0.04 -1.38,-1.24 -0.85,-2.44 -0.44,-2.88 -0.02,-3.32 0.09,-3.52 0.21,-3.72 0.37,-3.89 0.54,-4.06 0.74,-4.19 0.94,-4.31 1.17,-4.38 1.39,-4.45 1.63,-4.47 1.86,-4.49 2.10,-4.44 2.33,-4.40 2.55,-4.31 2.76,-4.21 2.95,-4.07 3.14,-3.92 3.28,-3.74 3.43,-3.55 3.53,-3.34 3.63,-3.12 3.67,-2.89 3.72,-2.66 3.71,-2.42 3.69,-2.19 3.62,-1.96 3.56,-1.73 4.44,-0.49 5.33,0.74 6.12,1.97 6.90,3.20 8.01,0.92 9.11,-1.35 9.89,-2.82 10.68,-4.29 11.31,-5.68 11.95,-7.08 12.04,-7.30 12.14,-7.52 12.29,-7.71 12.43,-7.90 12.62,-8.05 12.81,-8.20 13.03,-8.29 13.24,-8.39 13.48,-8.44 13.71,-8.48 13.95,-8.47 14.19,-8.46 14.42,-8.39 14.65,-8.32 14.85,-8.19 15.06,-8.07 15.23,-7.90 15.40,-7.74 15.52,-7.53 15.65,-7.33 15.72,-7.10 15.79,-6.87 15.81,-6.63 15.82,-6.40 15.78,-6.16 15.74,-5.92 16.04,-4.27 16.34,-2.62 16.38,-0.71 16.41,1.18 16.43,2.91 16.44,4.64 15.70,7.33 14.96,10.02 14.90,10.23 14.84,10.43 14.72,10.60 14.60,10.78 14.43,10.91 14.26,11.04 14.06,11.10 13.86,11.17 13.65,11.17 13.43,11.17 13.23,11.10 13.03,11.03 12.86,10.90 12.70,10.77 12.58,10.59 12.46,10.42 12.40,10.21 12.35,10.01 12.36,9.79 12.37,9.58 12.45,9.38 12.53,9.19 12.67,9.03 12.81,8.87 12.99,8.76 13.18,8.65 13.38,8.60 13.59,8.56 13.80,8.58 14.01,8.61 14.21,8.70 14.40,8.79 14.55,8.94 14.71,9.08 14.80,9.27 14.90,9.46 14.94,9.67 14.97,9.88 14.93,10.09 14.90,10.30 14.80,10.49 14.70,10.67 14.54,10.82 14.39,10.96 14.19,11.05 14.00,11.14 13.79,11.16 13.58,11.18 13.37,11.14 13.16,11.09 12.98,10.98 12.80,10.87 12.66,10.70 12.53,10.54 12.45,10.34 12.37,10.15 12.36,9.93 12.35,9.72 12.35,9.72 12.35,9.72 12.33,7.19 12.31,4.66 12.30,2.95 12.29,1.24 12.27,-0.60 12.25,-2.46 12.10,-4.77 11.95,-7.08 12.04,-7.30 12.14,-7.52 12.29,-7.71 12.43,-7.90 12.62,-8.05 12.81,-8.20 13.03,-8.29 13.24,-8.39 13.48,-8.44 13.71,-8.48 13.95,-8.47 14.19,-8.46 14.42,-8.39 14.65,-8.32 14.85,-8.19 15.06,-8.07 15.23,-7.90 15.40,-7.74 15.52,-7.53 15.65,-7.33 15.72,-7.10 15.79,-6.87 15.81,-6.63 15.82,-6.40 15.78,-6.16 15.74,-5.93 15.35,-5.44 14.96,-4.95 14.57,-3.70 14.18,-2.46 13.38,-0.92 12.58,0.61 11.77,2.07 10.95,3.53 9.88,4.88 8.81,6.23 7.56,6.61 6.32,6.99 5.17,6.53 4.02,6.08 3.18,5.12 2.34,4.16 1.90,3.09 1.46,2.02 1.14,0.96 0.82,-0.08 0.39,-1.70 -0.03,-3.32 0.09,-3.52 0.21,-3.72 0.37,-3.89 0.54,-4.06 0.74,-4.19 0.94,-4.31 1.17,-4.38 1.39,-4.45 1.63,-4.47 1.86,-4.49 2.10,-4.44 2.33,-4.40 2.55,-4.31 2.76,-4.21 2.95,-4.07 3.14,-3.92 3.28,-3.74 3.43,-3.55 3.53,-3.34 3.63,-3.12 3.67,-2.89 3.72,-2.66 3.71,-2.42 3.69,-2.19 3.62,-1.96 3.56,-1.74 2.70,-0.34 1.85,1.04 1.28,3.03 0.71,5.02 -0.23,8.19 -1.18,11.36 -1.24,11.59 -1.29,11.83 -1.40,12.04 -1.51,12.25 -1.67,12.43 -1.82,12.61 -2.02,12.75 -2.21,12.89 -2.44,12.97 -2.66,13.06 -2.90,13.09 -3.13,13.12 -3.37,13.10 -3.61,13.07 -3.83,12.99 -4.06,12.90 -4.25,12.77 -4.45,12.64 -4.61,12.46 -4.77,12.28 -4.89,12.07 -5.00,11.86 -5.06,11.63 -5.12,11.40 -5.12,11.16 -5.12,10.92 -5.04,10.81 -4.95,10.69 -4.73,9.09 -4.51,7.49 -4.07,5.68 -3.63,3.88 -2.70,1.58 -1.77,-0.71 -1.66,-0.91 -1.55,-1.11 -1.40,-1.28 -1.24,-1.45 -1.05,-1.58 -0.85,-1.71 -0.64,-1.79 -0.42,-1.86 -0.19,-1.89 0.03,-1.91 0.26,-1.88 0.49,-1.85 0.70,-1.76 0.92,-1.68 1.10,-1.54 1.29,-1.41 1.44,-1.23 1.59,-1.06 1.70,-0.85 1.80,-0.64 1.85,-0.42 1.90,-0.19 1.90,0.03 1.89,0.26 1.83,0.48 1.77,0.71 1.77,0.71 L 1.77,0.71 Z"></path></g><g transform="translate(1107.5999755859375 524.7999877929688) rotate(0 -5.5999755859375 11.600006103515625)" stroke="none"><path fill="#000" d="M 0.26,1.85 Q 0.26,1.85 -1.30,2.17 -2.88,2.48 -4.36,3.41 -5.85,4.33 -6.65,5.09 -7.45,5.84 -6.29,7.71 -5.14,9.58 -3.75,10.90 -2.35,12.23 -1.38,13.44 -0.40,14.64 -0.05,16.61 0.29,18.57 -1.50,20.55 -3.30,22.52 -5.25,23.35 -7.20,24.17 -9.25,23.95 -11.31,23.73 -11.50,23.64 -11.69,23.55 -11.84,23.40 -12.00,23.25 -12.10,23.07 -12.20,22.88 -12.23,22.67 -12.26,22.46 -12.23,22.25 -12.19,22.04 -12.09,21.85 -11.99,21.66 -11.83,21.52 -11.68,21.37 -11.49,21.29 -11.29,21.20 -11.08,21.18 -10.87,21.15 -10.66,21.20 -10.45,21.25 -10.27,21.36 -10.09,21.47 -9.96,21.63 -9.82,21.79 -9.74,21.99 -9.66,22.19 -9.65,22.40 -9.64,22.61 -9.70,22.82 -9.76,23.02 -9.88,23.20 -10.00,23.37 -10.17,23.50 -10.34,23.63 -10.54,23.70 -10.74,23.76 -10.96,23.76 -11.17,23.76 -11.37,23.69 -11.57,23.62 -11.74,23.49 -11.91,23.36 -12.03,23.19 -12.14,23.01 -12.20,22.80 -12.25,22.60 -12.24,22.39 -12.23,22.18 -12.15,21.98 -12.07,21.78 -11.93,21.62 -11.79,21.46 -11.61,21.35 -11.43,21.24 -11.22,21.20 -11.01,21.15 -10.80,21.18 -10.59,21.20 -10.59,21.20 -10.59,21.20 -9.67,20.74 -8.76,20.28 -7.44,19.79 -6.12,19.30 -4.96,18.30 -3.80,17.30 -4.59,16.31 -5.38,15.32 -7.05,13.65 -8.73,11.98 -9.71,10.49 -10.69,8.99 -11.19,7.36 -11.69,5.74 -11.03,4.22 -10.36,2.71 -9.14,1.68 -7.92,0.65 -5.74,-0.45 -3.55,-1.56 -1.91,-1.71 -0.26,-1.85 -0.03,-1.86 0.18,-1.86 0.40,-1.81 0.62,-1.76 0.82,-1.66 1.03,-1.56 1.20,-1.41 1.37,-1.27 1.50,-1.08 1.64,-0.90 1.72,-0.69 1.81,-0.48 1.84,-0.26 1.87,-0.03 1.85,0.18 1.82,0.41 1.75,0.62 1.67,0.83 1.55,1.02 1.42,1.21 1.26,1.36 1.09,1.52 0.89,1.62 0.70,1.73 0.48,1.79 0.26,1.85 0.26,1.85 L 0.26,1.85 Z"></path></g></svg>