<svg version="1.1" xmlns="http://www.w3.org/2000/svg" viewBox="0 0 10020 839.3750305175781" width="10020" height="839.3750305175781">
  <!-- svg-source:excalidraw -->
  
  <defs>
    <style>
      @font-face {
        font-family: "Virgil";
        src: url("https://excalidraw.com/Virgil.woff2");
      }
      @font-face {
        font-family: "Cascadia";
        src: url("https://excalidraw.com/Cascadia.woff2");
      }
    </style>
  </defs>
  <rect x="0" y="0" width="10020" height="839.3750305175781" fill="#fff0"></rect><g stroke-linecap="round" transform="translate(10 10) rotate(0 5000 0.5)"><path d="M-0.52 -0.26 C3022.65 -30.2, 6044.59 -29.2, 9999.32 0.22 M0.38 -0.31 C3948.03 -0.44, 7895.41 0.2, 9999.95 0.08 M10000.08 -0.06 C10000.09 0.27, 10000.05 0.48, 10000.09 0.92 M9999.97 0.01 C9999.95 0.33, 9999.98 0.72, 10000 0.99 M10000.22 1.51 C7095.77 35.76, 4193.15 34.95, -0.25 0.75 M10000.01 1.13 C7827.97 2.74, 5656.23 3.35, -0.33 0.84 M-0.04 1.01 C0 0.63, -0.06 0.15, 0.05 -0.03 M-0.04 0.95 C-0.04 0.73, -0.03 0.59, -0.05 -0.02" stroke="transparent" stroke-width="1" fill="none"></path></g><g transform="translate(835.6000366210938 535.7749938964844) rotate(0 13.199981689453125 32.399993896484375)" stroke="none"><path fill="#000" d="M -0.61,1.64 Q -0.61,1.64 -4.31,0.30 -8.00,-1.04 -11.57,-2.04 -15.14,-3.04 -19.51,-3.44 -23.88,-3.84 -29.88,-4.01 -35.88,-4.19 -45.87,-2.62 -55.86,-1.06 -65.34,1.66 -74.81,4.38 -82.40,8.03 -89.98,11.67 -94.81,15.72 -99.65,19.77 -100.63,25.89 -101.62,32.00 -99.68,37.54 -97.74,43.09 -92.77,48.03 -87.79,52.98 -79.86,57.13 -71.92,61.27 -57.66,64.40 -43.40,67.52 -29.54,68.90 -15.67,70.27 -1.51,70.86 12.65,71.45 26.72,71.70 40.79,71.95 53.89,71.84 66.98,71.73 78.20,70.54 89.43,69.35 99.56,66.12 109.69,62.89 115.92,59.08 122.15,55.27 125.30,51.12 128.45,46.96 129.27,42.75 130.09,38.55 128.71,34.31 127.33,30.08 122.11,24.79 116.89,19.49 110.15,14.91 103.41,10.33 95.33,6.57 87.26,2.81 78.40,0.31 69.55,-2.19 57.59,-3.71 45.63,-5.23 35.72,-5.88 25.81,-6.53 18.15,-6.81 10.49,-7.09 4.71,-7.29 -1.06,-7.48 -5.59,-7.71 -10.11,-7.95 -12.04,-8.10 -13.96,-8.25 -14.17,-8.29 -14.38,-8.32 -14.57,-8.43 -14.75,-8.53 -14.90,-8.68 -15.04,-8.84 -15.13,-9.03 -15.22,-9.23 -15.24,-9.44 -15.26,-9.65 -15.21,-9.86 -15.16,-10.06 -15.05,-10.24 -14.94,-10.42 -14.77,-10.56 -14.61,-10.70 -14.41,-10.77 -14.21,-10.85 -14.00,-10.86 -13.79,-10.87 -13.59,-10.81 -13.38,-10.75 -13.21,-10.63 -13.03,-10.51 -12.91,-10.34 -12.78,-10.17 -12.71,-9.96 -12.65,-9.76 -12.65,-9.55 -12.65,-9.34 -12.72,-9.14 -12.79,-8.94 -12.92,-8.77 -13.05,-8.60 -13.23,-8.48 -13.41,-8.37 -13.61,-8.31 -13.82,-8.26 -14.03,-8.27 -14.24,-8.28 -14.44,-8.36 -14.64,-8.45 -14.80,-8.59 -14.96,-8.72 -15.06,-8.91 -15.17,-9.09 -15.22,-9.30 -15.26,-9.51 -15.23,-9.72 -15.21,-9.93 -15.12,-10.12 -15.02,-10.31 -14.88,-10.47 -14.73,-10.62 -14.54,-10.72 -14.35,-10.81 -14.14,-10.84 -13.93,-10.88 -13.93,-10.88 -13.93,-10.88 -12.00,-10.99 -10.07,-11.09 -5.53,-11.23 -0.98,-11.36 4.82,-11.32 10.64,-11.27 18.36,-10.99 26.08,-10.72 36.12,-10.05 46.16,-9.39 58.43,-7.82 70.70,-6.25 79.87,-3.65 89.05,-1.04 97.43,2.88 105.81,6.81 112.88,11.67 119.96,16.53 125.60,22.61 131.24,28.70 132.69,33.93 134.14,39.17 132.96,44.24 131.78,49.32 128.06,54.01 124.34,58.71 117.64,62.74 110.95,66.77 100.41,70.08 89.87,73.39 78.45,74.61 67.02,75.83 53.87,75.97 40.72,76.10 26.60,75.86 12.48,75.61 -1.80,75.04 -16.09,74.47 -30.21,73.10 -44.33,71.74 -59.12,68.42 -73.90,65.10 -82.36,60.57 -90.82,56.04 -96.28,50.32 -101.74,44.60 -103.79,38.04 -105.84,31.47 -104.29,24.25 -102.75,17.03 -97.30,12.43 -91.85,7.82 -83.91,4.09 -75.96,0.37 -66.21,-2.34 -56.47,-5.05 -46.12,-6.55 -35.77,-8.04 -29.64,-7.84 -23.51,-7.64 -18.81,-7.15 -14.11,-6.65 -10.41,-5.56 -6.71,-4.47 -3.04,-3.06 0.61,-1.64 0.80,-1.54 0.99,-1.45 1.15,-1.31 1.31,-1.17 1.43,-0.99 1.55,-0.82 1.62,-0.62 1.70,-0.42 1.73,-0.21 1.75,-0.00 1.73,0.20 1.70,0.41 1.63,0.61 1.55,0.81 1.43,0.98 1.32,1.16 1.16,1.30 1.00,1.44 0.81,1.54 0.62,1.64 0.42,1.69 0.21,1.74 0.00,1.74 -0.20,1.74 -0.41,1.69 -0.61,1.64 -0.61,1.64 L -0.61,1.64 Z"></path></g><g transform="translate(783.6000366210938 557.375) rotate(0 23.199951171875 12.400009155273438)" stroke="none"><path fill="#000" d="M 1.02,1.36 Q 1.02,1.36 0.20,2.08 -0.61,2.80 -0.96,3.90 -1.30,5.01 -1.71,7.93 -2.12,10.85 -2.32,13.48 -2.52,16.10 -1.98,18.04 -1.44,19.97 -0.35,20.98 0.72,21.99 2.47,22.16 4.22,22.33 6.66,21.83 9.10,21.33 12.30,19.39 15.50,17.44 17.59,15.92 19.69,14.39 21.07,13.63 22.45,12.87 24.03,12.99 25.60,13.12 26.92,14.36 28.23,15.61 29.26,16.69 30.28,17.77 31.23,18.99 32.17,20.21 33.72,20.50 35.28,20.80 36.56,18.87 37.84,16.95 38.09,15.46 38.35,13.96 37.47,12.53 36.58,11.10 35.31,10.37 34.04,9.64 32.59,9.32 31.14,8.99 29.98,9.43 28.82,9.86 29.28,11.08 29.74,12.29 31.44,12.53 33.14,12.77 35.99,12.05 38.83,11.33 41.17,10.22 43.50,9.11 45.11,7.63 46.72,6.16 48.11,4.34 49.50,2.53 49.65,2.37 49.80,2.22 49.99,2.12 50.18,2.03 50.39,2.00 50.60,1.96 50.81,2.00 51.02,2.04 51.20,2.14 51.39,2.24 51.53,2.40 51.68,2.55 51.76,2.75 51.85,2.94 51.87,3.15 51.89,3.36 51.84,3.57 51.80,3.78 51.68,3.96 51.57,4.14 51.41,4.27 51.25,4.41 51.05,4.49 50.85,4.56 50.64,4.57 50.42,4.58 50.22,4.52 50.02,4.46 49.84,4.34 49.67,4.22 49.54,4.05 49.41,3.88 49.35,3.68 49.28,3.47 49.29,3.26 49.29,3.05 49.36,2.85 49.43,2.65 49.56,2.48 49.69,2.31 49.87,2.20 50.04,2.08 50.25,2.02 50.46,1.97 50.67,1.98 50.88,2.00 51.08,2.08 51.27,2.16 51.43,2.30 51.59,2.44 51.70,2.62 51.81,2.81 51.85,3.01 51.89,3.22 51.87,3.43 51.84,3.64 51.75,3.84 51.66,4.03 51.66,4.03 51.66,4.03 50.27,6.21 48.88,8.40 46.98,10.28 45.07,12.16 42.39,13.54 39.71,14.92 36.16,15.73 32.61,16.54 30.10,16.05 27.58,15.55 26.10,14.21 24.62,12.86 24.59,11.14 24.55,9.43 25.96,7.84 27.38,6.26 29.60,5.70 31.82,5.14 34.01,5.73 36.20,6.32 38.07,7.73 39.94,9.14 41.04,11.67 42.13,14.19 41.64,16.59 41.15,18.99 40.13,20.51 39.12,22.03 37.67,23.24 36.23,24.44 34.39,24.56 32.54,24.68 30.83,23.71 29.13,22.74 28.26,21.64 27.38,20.53 26.29,19.38 25.21,18.23 24.47,17.26 23.73,16.29 22.81,16.86 21.89,17.43 19.64,19.04 17.40,20.65 13.64,22.83 9.88,25.02 6.76,25.58 3.65,26.13 0.98,25.54 -1.68,24.95 -3.40,23.08 -5.13,21.20 -5.79,18.53 -6.45,15.86 -6.23,13.05 -6.01,10.24 -5.43,6.88 -4.85,3.51 -3.96,1.73 -3.06,-0.04 -2.04,-0.70 -1.02,-1.36 -0.84,-1.46 -0.66,-1.57 -0.47,-1.62 -0.27,-1.68 -0.06,-1.69 0.13,-1.70 0.34,-1.66 0.54,-1.61 0.72,-1.53 0.91,-1.44 1.07,-1.31 1.23,-1.18 1.35,-1.01 1.47,-0.85 1.56,-0.66 1.64,-0.47 1.67,-0.27 1.70,-0.06 1.68,0.13 1.67,0.34 1.60,0.53 1.54,0.73 1.43,0.90 1.32,1.08 1.17,1.22 1.02,1.36 1.02,1.36 L 1.02,1.36 Z"></path></g><g transform="translate(835.6000366210938 552.5750122070312) rotate(0 41.199981689453125 26.79998779296875)" stroke="none"><path fill="#000" d="M 1.43,0.52 Q 1.43,0.52 0.75,3.13 0.07,5.74 -0.26,8.45 -0.59,11.15 -0.52,13.59 -0.45,16.03 0.02,17.35 0.50,18.66 2.34,17.77 4.18,16.87 6.17,14.71 8.17,12.55 10.13,9.20 12.09,5.85 13.56,0.87 15.03,-4.10 15.66,-7.36 16.28,-10.63 16.54,-12.24 16.80,-13.86 16.69,-14.58 16.58,-15.30 16.64,-15.53 16.71,-15.76 16.84,-15.97 16.96,-16.18 17.13,-16.35 17.30,-16.52 17.51,-16.65 17.71,-16.78 17.94,-16.85 18.17,-16.93 18.41,-16.95 18.66,-16.96 18.89,-16.92 19.13,-16.88 19.36,-16.78 19.58,-16.69 19.77,-16.54 19.96,-16.39 20.11,-16.20 20.27,-16.01 20.37,-15.79 20.47,-15.58 20.52,-15.34 20.56,-15.10 20.55,-14.86 20.54,-14.62 19.26,-13.82 17.99,-13.02 17.66,-11.90 17.32,-10.78 16.34,-8.62 15.36,-6.46 14.78,-2.10 14.21,2.25 13.93,5.09 13.66,7.93 13.54,10.45 13.42,12.98 13.93,14.32 14.45,15.66 15.49,16.24 16.53,16.81 18.06,16.87 19.60,16.94 21.19,16.39 22.79,15.85 24.22,14.41 25.65,12.98 26.61,11.52 27.57,10.06 27.75,9.89 27.92,9.73 28.13,9.60 28.33,9.48 28.57,9.42 28.80,9.35 29.04,9.34 29.28,9.33 29.51,9.37 29.75,9.42 29.97,9.52 30.18,9.63 30.37,9.78 30.56,9.93 30.70,10.12 30.85,10.31 30.94,10.53 31.04,10.76 31.08,10.99 31.12,11.23 31.10,11.47 31.08,11.71 31.01,11.94 30.93,12.17 30.80,12.37 30.67,12.57 30.48,14.78 30.28,16.98 30.74,18.03 31.20,19.08 33.15,20.08 35.11,21.07 37.63,21.56 40.16,22.05 42.88,21.62 45.60,21.18 47.79,20.15 49.98,19.12 51.00,18.11 52.02,17.10 52.55,16.36 53.09,15.63 53.28,15.49 53.47,15.36 53.68,15.27 53.90,15.18 54.13,15.15 54.37,15.12 54.60,15.14 54.83,15.17 55.05,15.25 55.27,15.33 55.47,15.46 55.66,15.59 55.82,15.76 55.98,15.93 56.09,16.14 56.20,16.35 56.26,16.57 56.32,16.80 56.33,17.03 56.33,17.27 56.28,17.50 56.23,17.72 56.12,17.93 56.02,18.14 55.86,18.32 55.71,18.50 54.18,18.41 52.65,18.33 50.47,19.92 48.30,21.52 47.25,22.41 46.20,23.30 45.70,24.17 45.20,25.04 45.00,25.17 44.79,25.31 44.57,25.39 44.34,25.47 44.10,25.49 43.86,25.52 43.62,25.49 43.38,25.45 43.16,25.36 42.93,25.27 42.74,25.13 42.54,24.99 42.38,24.81 42.23,24.63 42.12,24.41 42.01,24.20 41.95,23.96 41.90,23.72 41.90,23.48 41.91,23.24 41.97,23.01 42.03,22.77 42.15,22.56 42.26,22.35 42.43,22.17 42.59,21.99 44.88,22.18 47.18,22.36 48.64,22.27 50.10,22.17 51.70,21.52 53.30,20.86 54.41,20.17 55.51,19.48 56.04,18.90 56.57,18.32 56.79,18.22 57.01,18.12 57.24,18.07 57.48,18.03 57.72,18.04 57.96,18.06 58.19,18.13 58.41,18.20 58.62,18.33 58.83,18.45 59.00,18.62 59.17,18.79 59.29,18.99 59.41,19.20 59.49,19.43 59.56,19.66 59.57,19.90 59.59,20.13 59.54,20.37 59.50,20.61 59.40,20.83 59.30,21.04 59.16,21.23 59.01,21.42 58.82,21.57 58.63,21.72 58.08,24.24 57.54,26.76 56.77,30.41 56.01,34.06 54.98,39.77 53.96,45.48 52.82,50.28 51.69,55.07 50.24,58.83 48.80,62.59 47.43,64.99 46.06,67.39 44.85,68.31 43.64,69.24 43.48,69.44 43.33,69.64 43.14,69.80 42.94,69.96 42.71,70.07 42.49,70.18 42.24,70.23 41.99,70.28 41.74,70.27 41.49,70.26 41.25,70.19 41.00,70.12 40.79,69.99 40.57,69.87 40.38,69.69 40.20,69.52 40.07,69.31 39.93,69.09 39.85,68.85 39.77,68.61 39.75,68.36 39.73,68.11 39.77,67.86 39.81,67.61 39.91,67.38 40.01,67.15 40.35,63.30 40.69,59.45 43.58,56.08 46.47,52.71 50.56,49.70 54.64,46.70 60.27,42.75 65.89,38.80 70.02,35.10 74.15,31.41 76.74,28.07 79.32,24.73 80.58,22.46 81.83,20.18 80.05,22.21 78.28,24.24 77.57,26.29 76.85,28.35 76.75,30.02 76.66,31.69 79.54,33.62 82.43,35.56 82.59,35.70 82.75,35.84 82.85,36.02 82.96,36.21 83.00,36.42 83.04,36.63 83.01,36.84 82.99,37.05 82.89,37.24 82.80,37.43 82.65,37.58 82.50,37.73 82.31,37.83 82.12,37.92 81.91,37.95 81.70,37.98 81.49,37.94 81.28,37.90 81.10,37.80 80.91,37.70 80.77,37.54 80.63,37.38 80.54,37.19 80.46,36.99 80.44,36.78 80.42,36.57 80.47,36.36 80.52,36.15 80.63,35.98 80.75,35.80 80.91,35.66 81.08,35.53 81.28,35.45 81.48,35.38 81.69,35.37 81.90,35.37 82.10,35.43 82.31,35.49 82.48,35.61 82.65,35.73 82.78,35.91 82.90,36.08 82.97,36.28 83.03,36.48 83.02,36.70 83.02,36.91 82.95,37.11 82.88,37.31 82.74,37.48 82.61,37.64 82.43,37.76 82.25,37.87 82.05,37.92 81.84,37.98 81.63,37.96 81.42,37.94 81.22,37.86 81.03,37.78 81.03,37.78 81.03,37.78 77.26,35.51 73.50,33.23 73.24,30.13 72.99,27.02 74.06,24.32 75.14,21.63 77.13,19.56 79.12,17.49 80.73,17.02 82.34,16.55 83.81,18.84 85.28,21.13 83.77,24.08 82.26,27.03 79.43,30.57 76.60,34.12 72.32,37.96 68.03,41.79 62.52,45.83 57.00,49.87 53.28,52.66 49.55,55.46 47.05,58.16 44.56,60.86 43.63,63.09 42.70,65.32 43.17,67.28 43.64,69.24 43.48,69.44 43.33,69.64 43.14,69.80 42.94,69.96 42.71,70.07 42.49,70.18 42.24,70.23 41.99,70.28 41.74,70.27 41.49,70.26 41.25,70.19 41.00,70.12 40.79,69.99 40.57,69.87 40.38,69.69 40.20,69.52 40.07,69.31 39.93,69.09 39.85,68.85 39.77,68.61 39.75,68.36 39.73,68.11 39.77,67.86 39.81,67.61 39.91,67.38 40.01,67.15 41.27,66.18 42.53,65.21 43.73,63.15 44.93,61.09 46.28,57.60 47.64,54.11 48.75,49.42 49.87,44.74 50.90,38.97 51.93,33.20 52.76,29.32 53.58,25.45 54.38,23.08 55.17,20.72 55.87,19.52 56.57,18.32 56.79,18.22 57.01,18.12 57.24,18.07 57.48,18.03 57.72,18.04 57.96,18.06 58.19,18.13 58.41,18.20 58.62,18.33 58.83,18.45 59.00,18.62 59.17,18.79 59.29,18.99 59.41,19.20 59.49,19.43 59.56,19.66 59.57,19.89 59.59,20.13 59.54,20.37 59.50,20.61 59.40,20.83 59.30,21.04 59.16,21.23 59.01,21.42 58.82,21.57 58.63,21.72 58.09,22.25 57.54,22.77 56.12,23.62 54.69,24.47 52.51,25.25 50.32,26.03 47.76,25.54 45.20,25.04 45.00,25.17 44.79,25.31 44.57,25.39 44.34,25.47 44.10,25.49 43.86,25.52 43.62,25.49 43.38,25.45 43.16,25.36 42.93,25.27 42.74,25.13 42.54,24.99 42.38,24.81 42.23,24.63 42.12,24.41 42.01,24.20 41.95,23.96 41.90,23.72 41.90,23.48 41.91,23.24 41.97,23.01 42.03,22.78 42.15,22.56 42.26,22.35 42.43,22.17 42.59,22.00 43.03,21.13 43.48,20.27 44.65,19.26 45.83,18.25 47.60,16.95 49.37,15.66 51.23,15.65 53.08,15.63 53.28,15.49 53.47,15.36 53.68,15.27 53.90,15.18 54.13,15.15 54.37,15.12 54.60,15.14 54.83,15.17 55.05,15.25 55.27,15.33 55.47,15.46 55.66,15.59 55.82,15.76 55.98,15.93 56.09,16.14 56.20,16.35 56.26,16.57 56.32,16.80 56.33,17.03 56.33,17.27 56.28,17.50 56.23,17.72 56.12,17.93 56.02,18.14 55.86,18.32 55.71,18.50 55.17,19.21 54.62,19.93 53.11,21.23 51.59,22.54 48.89,23.73 46.19,24.92 42.83,25.37 39.46,25.82 36.33,25.15 33.19,24.48 30.48,22.74 27.76,21.01 26.99,18.88 26.22,16.75 26.45,14.86 26.68,12.97 27.12,11.51 27.57,10.06 27.75,9.89 27.92,9.73 28.13,9.60 28.33,9.48 28.56,9.42 28.80,9.35 29.04,9.34 29.28,9.33 29.51,9.37 29.75,9.42 29.97,9.52 30.18,9.63 30.37,9.78 30.56,9.93 30.70,10.12 30.85,10.31 30.94,10.53 31.04,10.75 31.08,10.99 31.12,11.23 31.10,11.47 31.08,11.71 31.01,11.94 30.93,12.17 30.80,12.37 30.67,12.57 30.34,13.18 30.01,13.79 29.17,14.82 28.32,15.85 26.21,17.70 24.10,19.54 21.72,20.21 19.33,20.88 16.89,20.56 14.45,20.24 12.65,18.82 10.85,17.41 10.09,15.16 9.33,12.91 9.44,10.22 9.56,7.53 9.85,4.60 10.14,1.67 10.89,-3.22 11.64,-8.11 12.70,-10.40 13.75,-12.69 15.16,-13.99 16.58,-15.30 16.64,-15.53 16.71,-15.76 16.84,-15.97 16.96,-16.18 17.13,-16.35 17.30,-16.52 17.51,-16.65 17.71,-16.78 17.94,-16.85 18.17,-16.93 18.41,-16.95 18.66,-16.96 18.89,-16.92 19.13,-16.88 19.36,-16.78 19.58,-16.69 19.77,-16.54 19.96,-16.39 20.11,-16.20 20.27,-16.01 20.37,-15.80 20.47,-15.58 20.52,-15.34 20.56,-15.10 20.55,-14.86 20.54,-14.62 20.64,-13.93 20.75,-13.25 20.44,-11.55 20.13,-9.86 19.42,-6.42 18.70,-2.99 17.03,2.37 15.35,7.75 13.15,11.44 10.95,15.13 8.57,17.63 6.19,20.13 3.78,21.33 1.36,22.54 -0.63,21.67 -2.62,20.80 -3.57,18.51 -4.52,16.22 -4.58,13.42 -4.64,10.62 -4.20,7.49 -3.75,4.37 -2.59,1.92 -1.43,-0.52 -1.34,-0.68 -1.26,-0.84 -1.14,-0.98 -1.02,-1.12 -0.87,-1.23 -0.72,-1.33 -0.55,-1.40 -0.38,-1.47 -0.20,-1.49 -0.02,-1.52 0.16,-1.50 0.34,-1.48 0.51,-1.42 0.68,-1.35 0.84,-1.25 0.99,-1.15 1.11,-1.01 1.24,-0.88 1.32,-0.72 1.41,-0.55 1.46,-0.38 1.50,-0.20 1.51,-0.02 1.51,0.16 1.47,0.34 1.43,0.52 1.43,0.52 L 1.43,0.52 Z"></path></g><g transform="translate(764.4000244140625 598.1749877929688) rotate(0 -25.600006103515625 23.600021362304688)" stroke="none"><path fill="#000" d="M 1.32,1.32 Q 1.32,1.32 -0.23,2.98 -1.78,4.65 -3.84,6.72 -5.90,8.79 -9.30,12.20 -12.70,15.62 -16.21,19.14 -19.73,22.66 -23.54,26.25 -27.36,29.84 -31.46,34.09 -35.57,38.33 -38.52,41.10 -41.47,43.87 -43.53,45.31 -45.59,46.74 -48.35,47.51 -51.10,48.29 -51.31,48.32 -51.52,48.35 -51.73,48.31 -51.94,48.28 -52.13,48.18 -52.31,48.07 -52.46,47.92 -52.60,47.76 -52.69,47.57 -52.78,47.37 -52.80,47.16 -52.82,46.95 -52.77,46.74 -52.72,46.54 -52.61,46.36 -52.50,46.18 -52.34,46.04 -52.17,45.90 -51.98,45.83 -51.78,45.75 -51.57,45.74 -51.35,45.73 -51.15,45.79 -50.94,45.85 -50.77,45.97 -50.60,46.09 -50.47,46.26 -50.34,46.43 -50.28,46.64 -50.21,46.84 -50.21,47.05 -50.22,47.26 -50.29,47.46 -50.36,47.66 -50.49,47.83 -50.62,48.00 -50.79,48.12 -50.97,48.23 -51.18,48.29 -51.38,48.34 -51.59,48.33 -51.81,48.32 -52.00,48.24 -52.20,48.15 -52.36,48.02 -52.52,47.88 -52.63,47.69 -52.73,47.51 -52.78,47.30 -52.82,47.09 -52.80,46.88 -52.77,46.67 -52.68,46.48 -52.59,46.29 -52.44,46.14 -52.29,45.98 -52.10,45.89 -51.91,45.79 -51.92,45.79 -51.92,45.79 -49.91,44.66 -47.90,43.53 -46.11,42.18 -44.32,40.83 -41.45,38.12 -38.58,35.42 -34.39,31.11 -30.21,26.80 -26.44,23.27 -22.66,19.73 -19.14,16.21 -15.62,12.70 -12.20,9.30 -8.79,5.90 -6.72,3.84 -4.65,1.78 -2.98,0.23 -1.32,-1.32 -1.14,-1.46 -0.97,-1.60 -0.76,-1.70 -0.55,-1.79 -0.33,-1.83 -0.11,-1.87 0.11,-1.86 0.33,-1.84 0.55,-1.78 0.77,-1.71 0.96,-1.59 1.15,-1.47 1.31,-1.31 1.47,-1.15 1.59,-0.96 1.71,-0.77 1.78,-0.55 1.84,-0.33 1.86,-0.11 1.87,0.11 1.83,0.33 1.79,0.55 1.70,0.76 1.60,0.97 1.46,1.15 1.32,1.32 1.32,1.32 L 1.32,1.32 Z"></path></g><g transform="translate(703.6000366210938 622.9750061035156) rotate(0 7.5999755859375 8.79998779296875)" stroke="none"><path fill="#000" d="M 1.03,-1.20 Q 1.03,-1.20 2.78,0.00 4.54,1.21 6.46,3.25 8.37,5.30 10.36,8.09 12.34,10.89 13.88,13.33 15.42,15.77 15.52,15.96 15.62,16.14 15.66,16.35 15.70,16.56 15.67,16.77 15.65,16.98 15.55,17.17 15.46,17.36 15.31,17.51 15.16,17.66 14.96,17.75 14.77,17.85 14.56,17.88 14.35,17.90 14.14,17.86 13.94,17.82 13.75,17.72 13.57,17.61 13.42,17.46 13.28,17.30 13.20,17.10 13.12,16.91 13.10,16.69 13.08,16.48 13.13,16.28 13.19,16.07 13.30,15.89 13.41,15.71 13.58,15.58 13.75,15.45 13.95,15.37 14.15,15.30 14.36,15.30 14.57,15.29 14.77,15.35 14.98,15.42 15.15,15.54 15.32,15.66 15.44,15.84 15.57,16.01 15.63,16.21 15.69,16.42 15.69,16.63 15.68,16.84 15.61,17.04 15.53,17.24 15.40,17.41 15.27,17.57 15.09,17.68 14.91,17.80 14.70,17.85 14.50,17.90 14.28,17.88 14.07,17.87 13.88,17.78 13.68,17.70 13.52,17.55 13.37,17.41 13.37,17.41 13.37,17.41 11.26,15.30 9.15,13.19 7.27,10.63 5.39,8.08 3.64,6.19 1.89,4.30 0.43,2.75 -1.03,1.20 -1.16,1.06 -1.28,0.92 -1.38,0.75 -1.47,0.58 -1.52,0.40 -1.57,0.21 -1.57,0.02 -1.57,-0.16 -1.53,-0.35 -1.49,-0.53 -1.40,-0.70 -1.31,-0.87 -1.19,-1.02 -1.07,-1.16 -0.91,-1.28 -0.75,-1.39 -0.58,-1.46 -0.40,-1.53 -0.21,-1.55 -0.02,-1.58 0.16,-1.56 0.35,-1.54 0.53,-1.48 0.71,-1.41 0.87,-1.30 1.03,-1.20 1.03,-1.20 L 1.03,-1.20 Z"></path></g><g transform="translate(750.7999877929688 630.1749877929688) rotate(0 -15.199981689453125 9.199996948242188)" stroke="none"><path fill="#000" d="M 0.96,1.93 Q 0.96,1.93 -2.26,3.52 -5.48,5.12 -9.61,7.18 -13.74,9.25 -16.62,10.79 -19.50,12.33 -21.64,13.57 -23.78,14.82 -26.13,16.62 -28.49,18.42 -28.67,18.53 -28.84,18.65 -29.05,18.71 -29.25,18.76 -29.47,18.75 -29.68,18.74 -29.88,18.65 -30.07,18.57 -30.23,18.44 -30.39,18.30 -30.50,18.11 -30.61,17.93 -30.65,17.72 -30.70,17.52 -30.67,17.30 -30.65,17.09 -30.56,16.90 -30.47,16.71 -30.32,16.56 -30.17,16.40 -29.98,16.30 -29.80,16.21 -29.59,16.17 -29.38,16.14 -29.17,16.18 -28.96,16.21 -28.77,16.31 -28.58,16.42 -28.44,16.57 -28.29,16.73 -28.21,16.92 -28.12,17.11 -28.10,17.33 -28.08,17.54 -28.12,17.74 -28.17,17.95 -28.28,18.13 -28.39,18.31 -28.56,18.45 -28.72,18.59 -28.92,18.66 -29.11,18.74 -29.33,18.75 -29.54,18.76 -29.74,18.70 -29.95,18.64 -30.12,18.52 -30.30,18.40 -30.42,18.23 -30.55,18.06 -30.62,17.86 -30.68,17.66 -30.68,17.44 -30.68,17.23 -30.61,17.03 -30.54,16.83 -30.41,16.66 -30.28,16.49 -30.28,16.49 -30.28,16.49 -28.06,14.03 -25.84,11.56 -23.67,10.09 -21.50,8.62 -18.57,7.03 -15.64,5.44 -11.52,3.37 -7.39,1.31 -4.17,-0.30 -0.96,-1.93 -0.72,-2.01 -0.47,-2.10 -0.21,-2.13 0.04,-2.15 0.30,-2.12 0.55,-2.08 0.79,-1.98 1.04,-1.89 1.25,-1.74 1.46,-1.58 1.63,-1.39 1.80,-1.19 1.91,-0.95 2.03,-0.72 2.09,-0.47 2.14,-0.21 2.14,0.04 2.13,0.30 2.07,0.55 2.00,0.80 1.87,1.03 1.75,1.26 1.57,1.45 1.40,1.64 1.18,1.78 0.96,1.93 0.96,1.93 L 0.96,1.93 Z"></path></g><g transform="translate(904.4000244140625 617.375) rotate(0 33.5999755859375 28.400009155273438)" stroke="none"><path fill="#000" d="M 0.59,-1.18 Q 0.59,-1.18 4.91,0.52 9.23,2.23 13.82,4.98 18.42,7.74 23.40,11.23 28.38,14.73 33.54,19.26 38.71,23.79 43.24,28.77 47.77,33.75 52.20,39.36 56.63,44.96 59.38,47.95 62.13,50.94 62.84,52.07 63.55,53.20 64.65,52.09 65.75,50.98 65.89,50.83 66.04,50.68 66.23,50.58 66.42,50.48 66.63,50.45 66.84,50.41 67.05,50.45 67.26,50.49 67.44,50.59 67.63,50.69 67.78,50.84 67.92,51.00 68.01,51.19 68.10,51.39 68.12,51.60 68.14,51.81 68.09,52.02 68.04,52.22 67.93,52.40 67.82,52.59 67.66,52.72 67.50,52.86 67.30,52.94 67.10,53.01 66.89,53.02 66.68,53.03 66.47,52.97 66.27,52.92 66.09,52.79 65.92,52.67 65.79,52.50 65.66,52.33 65.60,52.13 65.53,51.93 65.53,51.72 65.53,51.51 65.60,51.30 65.67,51.10 65.80,50.94 65.93,50.77 66.11,50.65 66.29,50.53 66.49,50.48 66.70,50.42 66.91,50.43 67.12,50.45 67.32,50.53 67.51,50.61 67.67,50.75 67.84,50.89 67.94,51.07 68.05,51.25 68.10,51.46 68.14,51.67 68.12,51.88 68.09,52.09 68.00,52.28 67.91,52.47 67.91,52.47 67.91,52.47 65.67,54.52 63.44,56.58 61.31,55.12 59.18,53.66 56.33,50.57 53.48,47.49 49.06,42.04 44.64,36.60 40.26,31.81 35.87,27.02 30.88,22.63 25.90,18.25 21.05,14.83 16.21,11.41 11.77,8.73 7.32,6.04 3.36,3.61 -0.59,1.18 -0.72,1.09 -0.86,1.01 -0.96,0.89 -1.07,0.77 -1.15,0.63 -1.23,0.49 -1.27,0.34 -1.31,0.18 -1.31,0.02 -1.32,-0.13 -1.28,-0.29 -1.25,-0.44 -1.17,-0.58 -1.10,-0.73 -1.00,-0.85 -0.90,-0.97 -0.77,-1.07 -0.64,-1.16 -0.49,-1.22 -0.34,-1.28 -0.18,-1.30 -0.02,-1.32 0.13,-1.31 0.29,-1.29 0.44,-1.24 0.59,-1.18 0.59,-1.18 L 0.59,-1.18 Z"></path></g><g transform="translate(976.4000244140625 647.7749938964844) rotate(0 -5.20001220703125 16.399993896484375)" stroke="none"><path fill="#000" d="M 2.03,0.22 Q 2.03,0.22 1.80,2.29 1.58,4.36 1.71,7.38 1.85,10.41 2.35,13.23 2.86,16.06 3.72,18.54 4.58,21.02 5.58,22.93 6.57,24.83 7.56,25.98 8.55,27.13 8.45,28.35 8.34,29.56 6.31,28.55 4.28,27.54 1.58,27.59 -1.12,27.64 -3.71,28.52 -6.31,29.39 -9.09,30.44 -11.88,31.49 -15.36,32.47 -18.84,33.44 -19.05,33.49 -19.25,33.53 -19.46,33.51 -19.68,33.48 -19.87,33.39 -20.06,33.30 -20.21,33.15 -20.37,33.01 -20.46,32.82 -20.56,32.63 -20.59,32.42 -20.63,32.21 -20.59,32.00 -20.56,31.79 -20.45,31.60 -20.35,31.42 -20.20,31.27 -20.04,31.13 -19.85,31.04 -19.66,30.95 -19.44,30.93 -19.23,30.91 -19.03,30.96 -18.82,31.00 -18.64,31.11 -18.46,31.22 -18.32,31.39 -18.18,31.55 -18.11,31.75 -18.03,31.95 -18.02,32.16 -18.01,32.37 -18.07,32.58 -18.13,32.78 -18.25,32.95 -18.37,33.13 -18.54,33.26 -18.71,33.38 -18.91,33.45 -19.11,33.52 -19.32,33.51 -19.54,33.51 -19.74,33.44 -19.94,33.37 -20.11,33.24 -20.28,33.11 -20.39,32.94 -20.51,32.76 -20.57,32.56 -20.62,32.35 -20.61,32.14 -20.59,31.93 -20.51,31.73 -20.43,31.53 -20.30,31.37 -20.16,31.21 -19.97,31.10 -19.79,30.99 -19.79,30.99 -19.79,30.99 -16.55,29.35 -13.31,27.71 -10.42,26.61 -7.52,25.51 -4.33,24.57 -1.14,23.63 2.19,23.73 5.53,23.84 7.59,24.71 9.66,25.58 10.46,26.67 11.26,27.76 10.61,29.34 9.96,30.91 7.80,30.32 5.64,29.73 4.34,28.23 3.04,26.72 1.88,24.54 0.72,22.36 -0.23,19.57 -1.18,16.77 -1.71,13.68 -2.24,10.58 -2.37,7.25 -2.50,3.91 -2.26,1.84 -2.03,-0.22 -1.97,-0.46 -1.92,-0.70 -1.80,-0.92 -1.69,-1.14 -1.53,-1.33 -1.37,-1.51 -1.17,-1.66 -0.97,-1.80 -0.74,-1.89 -0.51,-1.98 -0.26,-2.01 -0.02,-2.04 0.22,-2.02 0.47,-1.99 0.70,-1.90 0.93,-1.82 1.13,-1.68 1.34,-1.54 1.50,-1.36 1.67,-1.18 1.79,-0.96 1.90,-0.74 1.96,-0.50 2.03,-0.26 2.03,-0.02 2.03,0.22 2.03,0.22 L 2.03,0.22 Z"></path></g><g transform="translate(726 660.5749816894531) rotate(0 8.4000244140625 25.60003662109375)" stroke="none"><path fill="#000" d="M -0.53,1.34 Q -0.53,1.34 -4.08,0.19 -7.62,-0.95 -11.06,-1.97 -14.51,-2.98 -18.60,-3.39 -22.69,-3.79 -28.08,-3.74 -33.46,-3.68 -41.37,-2.26 -49.29,-0.83 -55.82,1.13 -62.35,3.11 -68.05,5.54 -73.75,7.97 -78.34,10.99 -82.94,14.02 -86.40,17.49 -89.87,20.97 -91.70,24.11 -93.54,27.25 -94.04,30.98 -94.55,34.71 -93.08,37.55 -91.60,40.39 -88.47,42.85 -85.33,45.32 -77.99,47.73 -70.65,50.14 -62.02,51.66 -53.40,53.18 -43.34,53.83 -33.29,54.48 -21.88,54.76 -10.47,55.04 1.48,54.92 13.44,54.81 25.63,54.31 37.83,53.80 52.15,52.22 66.48,50.63 78.48,48.15 90.48,45.66 97.06,43.28 103.65,40.90 106.37,38.33 109.08,35.76 109.51,33.11 109.93,30.47 107.31,26.62 104.69,22.77 102.31,20.42 99.94,18.06 95.28,16.28 90.62,14.49 80.48,13.48 70.35,12.47 59.99,11.80 49.63,11.13 39.73,10.84 29.83,10.56 20.79,10.43 11.75,10.31 2.39,10.24 -6.96,10.17 -12.97,10.25 -18.99,10.34 -22.94,10.52 -26.89,10.70 -27.10,10.69 -27.31,10.68 -27.51,10.60 -27.71,10.52 -27.87,10.39 -28.03,10.25 -28.14,10.07 -28.25,9.89 -28.30,9.68 -28.35,9.47 -28.32,9.26 -28.30,9.05 -28.21,8.86 -28.13,8.66 -27.98,8.51 -27.83,8.35 -27.65,8.25 -27.46,8.15 -27.25,8.12 -27.04,8.08 -26.83,8.12 -26.62,8.15 -26.43,8.25 -26.24,8.35 -26.10,8.50 -25.95,8.65 -25.86,8.85 -25.77,9.04 -25.75,9.25 -25.72,9.46 -25.77,9.67 -25.81,9.88 -25.92,10.06 -26.03,10.24 -26.19,10.38 -26.35,10.52 -26.55,10.60 -26.75,10.68 -26.96,10.69 -27.17,10.70 -27.38,10.65 -27.58,10.59 -27.76,10.47 -27.93,10.35 -28.06,10.18 -28.19,10.02 -28.26,9.81 -28.33,9.61 -28.33,9.40 -28.33,9.19 -28.26,8.99 -28.20,8.79 -28.07,8.62 -27.94,8.45 -27.77,8.33 -27.59,8.21 -27.39,8.15 -27.18,8.09 -27.18,8.09 -27.18,8.09 -23.15,7.36 -19.11,6.64 -13.02,6.31 -6.93,5.98 2.43,6.01 11.81,6.05 20.88,6.17 29.95,6.30 39.93,6.60 49.91,6.90 60.35,7.61 70.79,8.32 81.45,9.47 92.12,10.63 97.44,12.85 102.75,15.08 105.45,17.84 108.15,20.60 110.98,25.53 113.81,30.46 112.98,34.41 112.14,38.35 108.66,41.54 105.18,44.74 98.26,47.25 91.34,49.77 79.14,52.32 66.95,54.87 52.48,56.48 38.01,58.09 25.74,58.60 13.48,59.11 1.45,59.21 -10.58,59.32 -22.07,59.04 -33.57,58.76 -43.86,58.08 -54.15,57.41 -63.08,55.82 -72.01,54.22 -80.00,51.47 -88.00,48.72 -91.72,45.55 -95.44,42.37 -97.12,38.42 -98.80,34.48 -98.06,29.81 -97.32,25.15 -95.14,21.53 -92.97,17.91 -89.15,14.14 -85.34,10.38 -80.39,7.18 -75.44,3.98 -69.50,1.51 -63.56,-0.94 -56.78,-2.92 -50.00,-4.89 -41.75,-6.26 -33.50,-7.63 -27.89,-7.65 -22.29,-7.68 -17.86,-7.20 -13.42,-6.71 -9.80,-5.64 -6.17,-4.56 -2.81,-2.95 0.53,-1.34 0.69,-1.26 0.84,-1.18 0.97,-1.06 1.10,-0.94 1.20,-0.79 1.29,-0.65 1.35,-0.48 1.41,-0.32 1.43,-0.14 1.45,0.02 1.42,0.19 1.40,0.37 1.34,0.53 1.27,0.69 1.17,0.84 1.07,0.98 0.93,1.09 0.80,1.21 0.64,1.28 0.49,1.36 0.31,1.40 0.14,1.44 -0.02,1.44 -0.20,1.43 -0.37,1.39 -0.54,1.34 -0.54,1.34 L -0.53,1.34 Z"></path></g><g transform="translate(680.4000244140625 674.1750183105469) rotate(0 2.399993896484375 11.199981689453125)" stroke="none"><path fill="#000" d="M 0,1.61 Q 0,1.61 -1.12,1.79 -2.25,1.96 -4.02,3.14 -5.80,4.31 -6.53,5.39 -7.27,6.48 -7.75,8.53 -8.23,10.59 -8.26,12.44 -8.28,14.29 -7.56,15.38 -6.83,16.48 -4.74,17.53 -2.65,18.59 -0.28,19.10 2.09,19.62 4.70,19.89 7.31,20.17 10.76,19.94 14.22,19.72 14.43,19.72 14.64,19.73 14.84,19.80 15.04,19.87 15.21,20.01 15.37,20.14 15.49,20.32 15.60,20.50 15.65,20.70 15.71,20.91 15.69,21.12 15.67,21.33 15.59,21.53 15.51,21.72 15.36,21.88 15.22,22.04 15.04,22.14 14.85,22.25 14.65,22.29 14.44,22.33 14.23,22.30 14.02,22.27 13.82,22.18 13.63,22.09 13.48,21.94 13.33,21.79 13.24,21.60 13.14,21.41 13.11,21.20 13.08,20.99 13.12,20.78 13.16,20.57 13.27,20.38 13.37,20.20 13.53,20.06 13.69,19.91 13.88,19.83 14.08,19.74 14.29,19.73 14.50,19.71 14.71,19.76 14.91,19.81 15.09,19.92 15.27,20.04 15.40,20.20 15.54,20.37 15.61,20.57 15.69,20.77 15.69,20.98 15.70,21.19 15.64,21.39 15.58,21.60 15.45,21.77 15.33,21.94 15.16,22.07 14.98,22.19 14.78,22.26 14.58,22.32 14.58,22.32 14.58,22.32 10.78,23.10 6.99,23.88 4.12,23.67 1.25,23.45 -1.66,22.79 -4.59,22.14 -7.41,20.45 -10.23,18.75 -11.31,16.62 -12.38,14.50 -12.32,12.02 -12.27,9.53 -11.47,6.81 -10.66,4.08 -9.47,2.57 -8.27,1.06 -6.84,0.06 -5.40,-0.94 -3.87,-1.45 -2.34,-1.96 -1.17,-1.79 0,-1.61 0.19,-1.59 0.38,-1.57 0.56,-1.50 0.75,-1.43 0.91,-1.32 1.07,-1.21 1.20,-1.06 1.33,-0.91 1.42,-0.74 1.51,-0.57 1.55,-0.38 1.60,-0.19 1.60,0.00 1.60,0.19 1.55,0.38 1.51,0.57 1.42,0.74 1.33,0.91 1.20,1.06 1.07,1.21 0.91,1.32 0.75,1.43 0.56,1.50 0.38,1.57 0.19,1.59 -0.00,1.61 -0.00,1.61 L 0,1.61 Z"></path></g><g transform="translate(723.6000366210938 675.7749938964844) rotate(0 -6.4000244140625 8.800018310546875)" stroke="none"><path fill="#000" d="M -0.18,1.81 Q -0.18,1.81 -2.47,1.64 -4.77,1.46 -6.64,1.83 -8.50,2.20 -9.57,2.70 -10.64,3.20 -10.69,4.33 -10.74,5.47 -9.73,6.02 -8.72,6.57 -6.89,7.60 -5.07,8.64 -3.16,9.53 -1.26,10.43 0.04,11.07 1.35,11.70 1.90,12.19 2.44,12.68 2.64,12.81 2.84,12.94 3.00,13.11 3.17,13.28 3.29,13.49 3.40,13.70 3.47,13.93 3.54,14.16 3.54,14.39 3.55,14.63 3.50,14.87 3.45,15.10 3.35,15.31 3.25,15.53 3.09,15.71 2.94,15.90 2.75,16.04 2.56,16.18 2.34,16.27 2.12,16.37 1.88,16.40 1.65,16.44 1.41,16.42 1.17,16.40 0.95,16.32 0.72,16.25 -1.76,17.50 -4.26,18.76 -7.11,19.20 -9.97,19.64 -12.05,19.61 -14.13,19.58 -14.34,19.57 -14.56,19.56 -14.75,19.49 -14.95,19.42 -15.12,19.28 -15.29,19.15 -15.40,18.97 -15.51,18.79 -15.56,18.59 -15.62,18.38 -15.60,18.17 -15.58,17.96 -15.50,17.76 -15.41,17.57 -15.27,17.41 -15.13,17.25 -14.94,17.15 -14.76,17.04 -14.55,17.00 -14.34,16.96 -14.13,16.99 -13.92,17.02 -13.73,17.11 -13.54,17.21 -13.39,17.36 -13.24,17.51 -13.14,17.70 -13.05,17.89 -13.02,18.10 -12.99,18.31 -13.03,18.52 -13.07,18.73 -13.18,18.91 -13.28,19.10 -13.44,19.24 -13.60,19.38 -13.80,19.47 -13.99,19.55 -14.20,19.57 -14.41,19.58 -14.62,19.53 -14.83,19.48 -15.01,19.37 -15.18,19.25 -15.32,19.09 -15.45,18.92 -15.52,18.72 -15.60,18.52 -15.60,18.31 -15.61,18.10 -15.54,17.89 -15.48,17.69 -15.36,17.52 -15.23,17.34 -15.06,17.22 -14.89,17.10 -14.68,17.04 -14.48,16.97 -14.48,16.97 -14.48,16.97 -12.53,16.40 -10.58,15.82 -7.86,15.37 -5.14,14.91 -3.25,14.55 -1.35,14.18 0.54,13.43 2.44,12.68 2.64,12.81 2.84,12.94 3.00,13.11 3.17,13.28 3.29,13.49 3.40,13.70 3.47,13.93 3.54,14.16 3.54,14.39 3.55,14.63 3.50,14.87 3.45,15.10 3.35,15.31 3.25,15.53 3.10,15.71 2.94,15.90 2.75,16.04 2.56,16.18 2.34,16.27 2.12,16.37 1.88,16.40 1.65,16.44 1.41,16.42 1.17,16.40 0.95,16.32 0.72,16.25 0.16,15.74 -0.39,15.24 -1.67,14.63 -2.95,14.02 -4.99,13.06 -7.03,12.10 -9.07,10.93 -11.10,9.76 -12.69,8.38 -14.27,7.00 -14.61,5.17 -14.94,3.34 -13.73,1.56 -12.52,-0.22 -10.86,-0.94 -9.20,-1.67 -6.81,-2.02 -4.42,-2.38 -2.12,-2.10 0.18,-1.81 0.39,-1.76 0.60,-1.71 0.80,-1.61 1.00,-1.52 1.17,-1.37 1.33,-1.23 1.46,-1.05 1.59,-0.88 1.67,-0.67 1.75,-0.47 1.79,-0.25 1.82,-0.03 1.79,0.18 1.77,0.39 1.70,0.60 1.63,0.81 1.50,0.99 1.38,1.17 1.22,1.32 1.06,1.47 0.87,1.58 0.68,1.68 0.46,1.74 0.25,1.80 0.03,1.80 -0.18,1.81 -0.18,1.81 L -0.18,1.81 Z"></path></g><g transform="translate(741.2000122070312 681.3750305175781) rotate(0 -0.399993896484375 8.79998779296875)" stroke="none"><path fill="#000" d="M 1.68,0.93 Q 1.68,0.93 0.55,3.01 -0.56,5.10 -1.22,6.78 -1.88,8.47 -2.12,9.97 -2.36,11.46 -2.54,12.57 -2.72,13.68 -1.20,14.43 0.30,15.18 1.86,15.68 3.42,16.18 3.62,16.24 3.82,16.31 3.99,16.44 4.16,16.56 4.28,16.74 4.40,16.91 4.46,17.12 4.52,17.32 4.51,17.53 4.50,17.75 4.43,17.94 4.35,18.14 4.21,18.30 4.08,18.47 3.90,18.58 3.72,18.69 3.51,18.74 3.30,18.79 3.09,18.76 2.88,18.74 2.68,18.66 2.49,18.57 2.34,18.42 2.18,18.28 2.08,18.09 1.98,17.91 1.94,17.70 1.90,17.49 1.94,17.28 1.97,17.07 2.07,16.88 2.16,16.69 2.32,16.54 2.47,16.39 2.66,16.30 2.85,16.21 3.07,16.19 3.28,16.16 3.48,16.21 3.69,16.25 3.88,16.36 4.06,16.47 4.20,16.63 4.34,16.79 4.42,16.98 4.50,17.18 4.51,17.39 4.52,17.61 4.47,17.81 4.41,18.02 4.30,18.19 4.18,18.37 4.01,18.50 3.84,18.63 3.64,18.70 3.44,18.77 3.23,18.77 3.02,18.77 3.02,18.77 3.02,18.77 1.05,18.73 -0.90,18.68 -2.59,18.03 -4.27,17.37 -5.38,15.76 -6.49,14.15 -6.41,12.45 -6.33,10.75 -5.96,8.87 -5.59,7.00 -4.81,5.09 -4.03,3.17 -2.85,1.12 -1.68,-0.93 -1.54,-1.12 -1.41,-1.31 -1.23,-1.46 -1.05,-1.61 -0.84,-1.71 -0.64,-1.81 -0.41,-1.86 -0.18,-1.91 0.04,-1.91 0.27,-1.90 0.50,-1.84 0.72,-1.78 0.92,-1.67 1.13,-1.55 1.30,-1.40 1.47,-1.24 1.59,-1.04 1.72,-0.85 1.80,-0.63 1.88,-0.41 1.90,-0.18 1.92,0.04 1.89,0.27 1.85,0.50 1.77,0.72 1.68,0.93 1.68,0.93 L 1.68,0.93 Z"></path></g><g transform="translate(743.6000366210938 691.7749938964844) rotate(0 0.39996337890625 -0.79998779296875)" stroke="none"><path fill="#000" d="M -0.74,-1.49 Q -0.74,-1.49 0.31,-0.35 1.36,0.78 1.16,0.84 0.96,0.90 0.75,0.90 0.53,0.89 0.33,0.82 0.13,0.75 -0.02,0.62 -0.19,0.48 -0.30,0.31 -0.42,0.13 -0.47,-0.07 -0.52,-0.28 -0.51,-0.49 -0.49,-0.70 -0.41,-0.89 -0.32,-1.09 -0.18,-1.25 -0.04,-1.41 0.14,-1.51 0.32,-1.62 0.53,-1.66 0.74,-1.70 0.95,-1.67 1.16,-1.64 1.35,-1.55 1.54,-1.46 1.69,-1.31 1.84,-1.16 1.94,-0.97 2.03,-0.78 2.06,-0.56 2.09,-0.35 2.05,-0.15 2.01,0.05 1.91,0.24 1.80,0.42 1.65,0.57 1.49,0.71 1.29,0.79 1.10,0.88 0.89,0.90 0.67,0.91 0.47,0.86 0.26,0.81 0.08,0.70 -0.09,0.58 -0.22,0.42 -0.35,0.25 -0.43,0.05 -0.50,-0.13 -0.51,-0.35 -0.51,-0.56 -0.45,-0.76 -0.39,-0.97 -0.27,-1.14 -0.14,-1.31 0.02,-1.44 0.19,-1.56 0.19,-1.56 0.19,-1.56 0.47,-0.03 0.74,1.49 0.55,1.56 0.36,1.63 0.16,1.65 -0.03,1.67 -0.23,1.64 -0.43,1.61 -0.61,1.54 -0.80,1.46 -0.96,1.34 -1.13,1.22 -1.26,1.07 -1.39,0.92 -1.48,0.74 -1.57,0.56 -1.61,0.36 -1.66,0.16 -1.65,-0.03 -1.65,-0.23 -1.60,-0.42 -1.55,-0.62 -1.45,-0.80 -1.35,-0.97 -1.22,-1.12 -1.08,-1.27 -0.91,-1.38 -0.74,-1.49 -0.74,-1.49 L -0.74,-1.49 Z"></path></g><g transform="translate(741.2000122070312 680.5749816894531) rotate(0 10.399993896484375 -0.399993896484375)" stroke="none"><path fill="#000" d="M -0.18,-1.83 Q -0.18,-1.83 2.11,-2.09 4.41,-2.35 6.58,-2.45 8.76,-2.55 11.54,-2.57 14.31,-2.58 16.96,-2.34 19.62,-2.10 19.83,-2.06 20.04,-2.03 20.22,-1.93 20.41,-1.84 20.56,-1.68 20.71,-1.53 20.80,-1.34 20.89,-1.15 20.92,-0.94 20.94,-0.73 20.90,-0.52 20.85,-0.31 20.75,-0.13 20.64,0.05 20.48,0.19 20.32,0.33 20.12,0.41 19.92,0.49 19.71,0.50 19.50,0.51 19.29,0.46 19.09,0.40 18.91,0.29 18.73,0.17 18.60,0.00 18.47,-0.16 18.40,-0.36 18.33,-0.56 18.33,-0.77 18.33,-0.98 18.40,-1.19 18.46,-1.39 18.59,-1.56 18.72,-1.73 18.89,-1.85 19.07,-1.97 19.27,-2.03 19.47,-2.09 19.69,-2.08 19.90,-2.07 20.10,-1.99 20.30,-1.92 20.46,-1.78 20.62,-1.64 20.73,-1.46 20.84,-1.28 20.89,-1.07 20.94,-0.87 20.92,-0.66 20.90,-0.44 20.81,-0.25 20.72,-0.06 20.58,0.09 20.43,0.24 20.25,0.35 20.06,0.45 19.85,0.48 19.64,0.52 19.64,0.52 19.64,0.52 17.00,0.81 14.37,1.11 11.65,1.17 8.94,1.24 6.86,1.34 4.78,1.43 2.48,1.63 0.18,1.83 -0.03,1.82 -0.26,1.82 -0.47,1.76 -0.68,1.70 -0.88,1.59 -1.07,1.49 -1.23,1.34 -1.40,1.19 -1.52,1.00 -1.64,0.82 -1.72,0.61 -1.79,0.40 -1.81,0.18 -1.83,-0.03 -1.80,-0.25 -1.77,-0.47 -1.69,-0.68 -1.61,-0.88 -1.48,-1.06 -1.35,-1.24 -1.18,-1.39 -1.01,-1.53 -0.81,-1.63 -0.61,-1.73 -0.39,-1.78 -0.18,-1.83 -0.18,-1.83 L -0.18,-1.83 Z"></path></g><g transform="translate(795.6000366210938 699.7749938964844) rotate(0 11.5999755859375 -0.79998779296875)" stroke="none"><path fill="#000" d="M -0.92,1.22 Q -0.92,1.22 -1.94,0.69 -2.96,0.16 -3.93,1.03 -4.91,1.91 -4.35,3.51 -3.78,5.10 -2.34,5.27 -0.90,5.44 0.61,4.99 2.12,4.53 3.29,3.37 4.46,2.21 5.63,0.23 6.79,-1.74 7.50,-3.87 8.21,-6.00 8.50,-8.40 8.80,-10.81 8.93,-13.22 9.06,-15.64 9.12,-17.12 9.18,-18.59 8.97,-19.26 8.76,-19.92 8.79,-20.15 8.83,-20.38 8.92,-20.60 9.02,-20.81 9.16,-21.00 9.30,-21.19 9.48,-21.34 9.66,-21.48 9.87,-21.58 10.08,-21.68 10.31,-21.73 10.54,-21.78 10.77,-21.77 11.01,-21.76 11.23,-21.69 11.46,-21.63 11.66,-21.51 11.86,-21.39 12.03,-21.23 12.20,-21.07 12.33,-20.87 12.45,-20.68 12.52,-20.45 12.60,-20.23 12.62,-20.00 12.64,-19.76 12.27,-18.60 11.90,-17.43 11.56,-16.20 11.22,-14.98 11.10,-13.23 10.98,-11.49 10.92,-9.57 10.86,-7.64 10.83,-6.13 10.80,-4.63 11.74,-3.97 12.68,-3.32 14.33,-4.05 15.97,-4.78 17.49,-5.15 19.00,-5.51 19.92,-4.52 20.84,-3.53 21.90,-4.51 22.96,-5.48 23.10,-5.60 23.25,-5.72 23.42,-5.80 23.59,-5.88 23.77,-5.91 23.96,-5.95 24.14,-5.94 24.33,-5.93 24.51,-5.88 24.69,-5.83 24.85,-5.73 25.01,-5.64 25.15,-5.51 25.28,-5.37 25.38,-5.22 25.48,-5.06 25.54,-4.88 25.59,-4.70 25.61,-4.51 25.62,-4.33 25.59,-4.14 25.56,-3.96 25.49,-3.79 25.41,-3.62 25.30,-3.47 25.18,-3.32 25.90,-1.47 26.61,0.36 26.64,3.02 26.67,5.68 26.66,8.42 26.64,11.15 26.39,13.36 26.14,15.56 25.48,16.97 24.81,18.37 24.58,18.60 24.34,18.83 24.22,19.01 24.10,19.19 23.94,19.33 23.78,19.48 23.60,19.58 23.41,19.69 23.20,19.74 23.00,19.80 22.78,19.80 22.57,19.81 22.36,19.76 22.15,19.71 21.96,19.62 21.76,19.52 21.60,19.38 21.44,19.24 21.31,19.07 21.19,18.90 21.11,18.70 21.03,18.50 20.99,18.29 20.96,18.07 20.99,17.86 21.01,17.65 21.08,17.44 21.15,17.24 20.98,14.09 20.80,10.94 21.52,6.73 22.23,2.53 22.99,-0.19 23.76,-2.92 24.59,-4.64 25.42,-6.36 26.02,-7.34 26.62,-8.33 27.07,-8.70 27.52,-9.08 27.65,-9.23 27.77,-9.39 27.92,-9.51 28.08,-9.62 28.26,-9.70 28.44,-9.78 28.63,-9.81 28.82,-9.85 29.02,-9.83 29.21,-9.82 29.40,-9.76 29.59,-9.70 29.75,-9.60 29.92,-9.49 30.05,-9.35 30.19,-9.21 30.29,-9.04 30.39,-8.88 30.45,-8.69 30.50,-8.50 30.51,-8.31 30.52,-8.11 30.48,-7.92 30.45,-7.73 30.36,-7.55 30.28,-7.37 29.44,-5.07 28.60,-2.76 28.43,-2.64 28.26,-2.51 28.06,-2.44 27.85,-2.37 27.64,-2.37 27.43,-2.37 27.23,-2.44 27.03,-2.51 26.86,-2.63 26.69,-2.76 26.57,-2.94 26.45,-3.11 26.39,-3.32 26.34,-3.52 26.35,-3.74 26.36,-3.95 26.44,-4.15 26.52,-4.34 26.65,-4.51 26.79,-4.67 26.97,-4.78 27.15,-4.89 27.36,-4.93 27.57,-4.98 27.78,-4.96 27.99,-4.93 28.18,-4.84 28.38,-4.75 28.53,-4.61 28.69,-4.46 28.79,-4.27 28.89,-4.09 28.92,-3.88 28.95,-3.67 28.92,-3.46 28.89,-3.25 28.79,-3.06 28.69,-2.87 28.53,-2.73 28.38,-2.58 28.19,-2.49 27.99,-2.40 27.78,-2.38 27.57,-2.36 27.36,-2.40 27.16,-2.45 26.97,-2.56 26.79,-2.67 26.65,-2.83 26.52,-2.99 26.44,-3.19 26.36,-3.38 26.35,-3.60 26.34,-3.81 26.39,-4.01 26.45,-4.22 26.57,-4.39 26.69,-4.57 26.69,-4.57 26.69,-4.57 27.53,-5.50 28.37,-6.44 27.95,-7.76 27.52,-9.08 27.65,-9.23 27.77,-9.39 27.92,-9.51 28.08,-9.62 28.26,-9.70 28.44,-9.78 28.63,-9.81 28.82,-9.85 29.02,-9.83 29.21,-9.82 29.40,-9.76 29.59,-9.70 29.75,-9.60 29.92,-9.49 30.05,-9.35 30.19,-9.21 30.29,-9.04 30.39,-8.88 30.45,-8.69 30.50,-8.50 30.51,-8.31 30.52,-8.11 30.48,-7.92 30.45,-7.73 30.36,-7.55 30.28,-7.37 29.28,-6.16 28.28,-4.95 27.55,-3.50 26.83,-2.05 26.10,0.50 25.38,3.06 24.74,6.97 24.11,10.89 24.16,13.34 24.20,15.78 24.27,17.31 24.34,18.83 24.22,19.01 24.10,19.19 23.94,19.33 23.79,19.48 23.60,19.58 23.41,19.69 23.20,19.74 23.00,19.80 22.78,19.80 22.57,19.81 22.36,19.76 22.15,19.71 21.96,19.62 21.76,19.52 21.60,19.38 21.44,19.24 21.31,19.07 21.19,18.90 21.11,18.70 21.03,18.50 20.99,18.29 20.96,18.07 20.99,17.86 21.01,17.65 21.08,17.44 21.15,17.24 21.83,16.16 22.51,15.09 22.71,13.13 22.90,11.17 22.85,8.46 22.81,5.74 22.76,3.14 22.72,0.55 22.70,-1.03 22.67,-2.62 22.82,-4.05 22.96,-5.48 23.10,-5.60 23.25,-5.72 23.42,-5.80 23.59,-5.88 23.77,-5.91 23.96,-5.95 24.14,-5.94 24.33,-5.93 24.51,-5.88 24.69,-5.83 24.85,-5.73 25.01,-5.64 25.15,-5.51 25.28,-5.38 25.38,-5.22 25.48,-5.06 25.54,-4.88 25.59,-4.70 25.61,-4.51 25.62,-4.33 25.59,-4.14 25.56,-3.96 25.49,-3.79 25.41,-3.62 25.30,-3.47 25.18,-3.32 24.66,-3.08 24.13,-2.83 23.29,-2.11 22.45,-1.39 21.16,-0.86 19.88,-0.34 18.84,-0.93 17.80,-1.52 16.52,-0.85 15.24,-0.19 13.50,0.06 11.75,0.32 9.90,-0.48 8.04,-1.29 7.46,-2.99 6.87,-4.68 6.90,-6.23 6.93,-7.77 7.00,-9.79 7.06,-11.80 7.25,-13.92 7.44,-16.03 8.10,-17.98 8.76,-19.92 8.79,-20.15 8.83,-20.38 8.92,-20.60 9.02,-20.81 9.16,-21.00 9.30,-21.19 9.48,-21.34 9.66,-21.48 9.87,-21.58 10.08,-21.68 10.31,-21.73 10.54,-21.78 10.77,-21.77 11.01,-21.76 11.23,-21.69 11.46,-21.63 11.66,-21.51 11.86,-21.39 12.03,-21.23 12.20,-21.07 12.33,-20.87 12.45,-20.68 12.52,-20.45 12.60,-20.23 12.62,-20.00 12.64,-19.76 12.83,-19.14 13.03,-18.52 12.97,-16.97 12.91,-15.41 12.75,-12.87 12.59,-10.32 12.20,-7.54 11.82,-4.76 10.93,-2.27 10.04,0.21 8.53,2.61 7.02,5.01 5.13,6.57 3.25,8.14 0.83,8.68 -1.58,9.22 -3.99,8.49 -6.41,7.76 -7.45,6.20 -8.49,4.63 -8.62,2.88 -8.75,1.13 -8.25,-0.43 -7.74,-2.00 -6.67,-2.80 -5.60,-3.59 -4.30,-3.70 -3.00,-3.80 -1.86,-3.36 -0.71,-2.92 0.10,-2.07 0.92,-1.22 1.05,-1.09 1.18,-0.97 1.28,-0.81 1.38,-0.65 1.44,-0.48 1.50,-0.30 1.51,-0.12 1.53,0.06 1.50,0.24 1.47,0.42 1.40,0.59 1.32,0.76 1.21,0.91 1.10,1.06 0.96,1.17 0.82,1.29 0.65,1.37 0.48,1.45 0.30,1.49 0.12,1.52 -0.06,1.52 -0.24,1.51 -0.42,1.46 -0.60,1.41 -0.76,1.31 -0.92,1.22 -0.92,1.22 L -0.92,1.22 Z"></path></g><g transform="translate(834.7999877929688 685.3750305175781) rotate(0 -2.399993896484375 8)" stroke="none"><path fill="#000" d="M 1.79,0.65 Q 1.79,0.65 0.88,3.18 -0.02,5.71 -0.64,7.86 -1.25,10.02 -2.23,12.59 -3.22,15.16 -3.30,15.35 -3.39,15.55 -3.53,15.70 -3.68,15.86 -3.86,15.96 -4.05,16.06 -4.26,16.10 -4.47,16.14 -4.68,16.10 -4.89,16.07 -5.08,15.98 -5.27,15.88 -5.41,15.73 -5.56,15.57 -5.65,15.38 -5.75,15.19 -5.77,14.98 -5.80,14.77 -5.75,14.56 -5.71,14.35 -5.60,14.17 -5.50,13.98 -5.34,13.85 -5.18,13.71 -4.98,13.62 -4.78,13.54 -4.57,13.53 -4.36,13.52 -4.15,13.57 -3.95,13.62 -3.77,13.74 -3.59,13.86 -3.46,14.03 -3.33,14.19 -3.26,14.39 -3.19,14.60 -3.19,14.81 -3.19,15.02 -3.25,15.22 -3.32,15.42 -3.44,15.59 -3.57,15.77 -3.74,15.89 -3.92,16.01 -4.12,16.07 -4.33,16.13 -4.54,16.12 -4.75,16.11 -4.95,16.03 -5.15,15.96 -5.31,15.82 -5.48,15.68 -5.59,15.50 -5.70,15.32 -5.75,15.12 -5.80,14.91 -5.77,14.70 -5.75,14.49 -5.75,14.49 -5.75,14.49 -5.33,11.74 -4.90,9.00 -4.28,6.70 -3.65,4.40 -2.72,1.87 -1.79,-0.65 -1.68,-0.85 -1.58,-1.06 -1.43,-1.23 -1.28,-1.40 -1.09,-1.54 -0.90,-1.67 -0.69,-1.75 -0.48,-1.84 -0.25,-1.87 -0.02,-1.90 0.20,-1.88 0.43,-1.85 0.64,-1.77 0.86,-1.69 1.05,-1.57 1.24,-1.44 1.39,-1.27 1.55,-1.10 1.66,-0.90 1.77,-0.70 1.83,-0.47 1.88,-0.25 1.89,-0.02 1.89,0.20 1.84,0.42 1.79,0.65 1.79,0.65 L 1.79,0.65 Z"></path></g><g transform="translate(828.4000244140625 689.3750305175781) rotate(0 8.399993896484375 -2.4000244140625)" stroke="none"><path fill="#000" d="M -0.63,-1.90 Q -0.63,-1.90 1.43,-2.58 3.51,-3.26 5.35,-3.78 7.18,-4.31 11.01,-4.97 14.83,-5.64 15.04,-5.66 15.25,-5.68 15.46,-5.63 15.66,-5.58 15.84,-5.47 16.02,-5.35 16.16,-5.19 16.29,-5.03 16.37,-4.83 16.45,-4.63 16.45,-4.42 16.46,-4.21 16.40,-4.00 16.34,-3.80 16.22,-3.62 16.10,-3.45 15.93,-3.32 15.76,-3.20 15.55,-3.13 15.35,-3.07 15.14,-3.07 14.93,-3.07 14.73,-3.14 14.53,-3.22 14.36,-3.35 14.19,-3.48 14.08,-3.65 13.96,-3.83 13.90,-4.04 13.85,-4.24 13.87,-4.46 13.88,-4.67 13.96,-4.86 14.04,-5.06 14.18,-5.22 14.32,-5.38 14.51,-5.49 14.69,-5.59 14.90,-5.64 15.11,-5.68 15.32,-5.65 15.53,-5.63 15.72,-5.53 15.91,-5.44 16.06,-5.29 16.22,-5.15 16.31,-4.96 16.41,-4.77 16.44,-4.56 16.47,-4.35 16.43,-4.14 16.40,-3.93 16.29,-3.74 16.19,-3.56 16.04,-3.41 15.88,-3.27 15.69,-3.18 15.49,-3.10 15.49,-3.10 15.49,-3.10 11.89,-1.81 8.28,-0.53 6.52,-0.01 4.76,0.50 2.70,1.20 0.63,1.90 0.39,1.95 0.16,2.00 -0.08,1.99 -0.32,1.98 -0.55,1.91 -0.78,1.84 -0.99,1.72 -1.20,1.60 -1.38,1.43 -1.55,1.27 -1.68,1.06 -1.81,0.86 -1.89,0.63 -1.96,0.40 -1.98,0.15 -2.00,-0.08 -1.96,-0.32 -1.93,-0.56 -1.83,-0.78 -1.74,-1.00 -1.59,-1.19 -1.44,-1.39 -1.26,-1.54 -1.07,-1.69 -0.85,-1.80 -0.63,-1.90 -0.63,-1.90 L -0.63,-1.90 Z"></path></g><g transform="translate(1000.4000244140625 671.7749938964844) rotate(0 13.600006103515625 24.000030517578125)" stroke="none"><path fill="#000" d="M -0.24,1.80 Q -0.24,1.80 -3.69,1.37 -7.14,0.93 -12.16,0.98 -17.17,1.03 -22.23,1.75 -27.28,2.47 -33.02,4.15 -38.75,5.83 -44.81,8.39 -50.86,10.95 -56.63,13.87 -62.40,16.78 -67.06,19.79 -71.73,22.80 -74.42,26.40 -77.12,29.99 -77.98,32.54 -78.85,35.09 -77.98,36.89 -77.10,38.68 -74.50,40.45 -71.89,42.22 -67.08,43.44 -62.27,44.67 -51.99,45.46 -41.71,46.26 -30.70,45.92 -19.70,45.59 -7.88,44.76 3.92,43.93 15.86,43.11 27.80,42.30 39.06,41.27 50.32,40.23 60.41,39.33 70.50,38.43 80.03,37.13 89.55,35.84 95.09,34.41 100.62,32.99 102.87,31.27 105.12,29.55 105.58,28.10 106.04,26.66 103.67,23.94 101.29,21.22 97.88,18.64 94.48,16.07 90.15,14.10 85.82,12.13 80.36,10.62 74.91,9.12 68.46,7.78 62.01,6.43 52.01,5.65 42.01,4.86 32.46,4.51 22.91,4.17 13.84,4.48 4.78,4.80 -3.58,6.06 -11.95,7.32 -17.14,8.28 -22.34,9.23 -24.58,9.66 -26.82,10.10 -27.03,10.11 -27.24,10.13 -27.45,10.07 -27.65,10.02 -27.83,9.90 -28.01,9.79 -28.14,9.62 -28.27,9.45 -28.34,9.25 -28.41,9.05 -28.41,8.84 -28.42,8.63 -28.35,8.42 -28.29,8.22 -28.16,8.05 -28.04,7.88 -27.86,7.76 -27.69,7.64 -27.48,7.58 -27.28,7.52 -27.07,7.52 -26.86,7.53 -26.66,7.61 -26.46,7.68 -26.29,7.82 -26.13,7.95 -26.02,8.13 -25.91,8.31 -25.86,8.52 -25.81,8.73 -25.83,8.94 -25.85,9.15 -25.93,9.34 -26.02,9.54 -26.16,9.70 -26.31,9.85 -26.49,9.95 -26.68,10.06 -26.89,10.09 -27.10,10.13 -27.31,10.10 -27.52,10.07 -27.71,9.97 -27.90,9.88 -28.05,9.72 -28.19,9.57 -28.29,9.38 -28.38,9.19 -28.40,8.98 -28.43,8.77 -28.39,8.56 -28.35,8.35 -28.24,8.17 -28.13,7.98 -27.97,7.84 -27.81,7.70 -27.62,7.62 -27.42,7.54 -27.42,7.54 -27.42,7.54 -25.23,6.92 -23.03,6.31 -17.80,4.79 -12.56,3.27 -3.96,1.97 4.63,0.66 13.84,0.35 23.05,0.04 32.69,0.38 42.34,0.72 52.59,1.55 62.85,2.38 69.44,3.76 76.03,5.14 81.77,6.80 87.52,8.45 92.21,10.67 96.91,12.88 100.67,15.83 104.43,18.78 107.01,22.56 109.58,26.33 108.72,29.35 107.85,32.38 104.81,34.67 101.78,36.96 95.95,38.48 90.12,40.00 80.50,41.31 70.87,42.62 60.79,43.52 50.71,44.42 39.40,45.46 28.09,46.50 16.15,47.32 4.22,48.13 -7.67,48.97 -19.57,49.81 -30.80,50.16 -42.04,50.51 -52.70,49.66 -63.37,48.81 -68.87,47.27 -74.36,45.72 -77.62,43.12 -80.88,40.52 -81.89,37.46 -82.90,34.39 -81.72,30.92 -80.54,27.45 -77.33,23.36 -74.11,19.27 -69.21,16.12 -64.31,12.96 -58.39,10.02 -52.46,7.09 -46.16,4.54 -39.85,1.99 -33.83,0.32 -27.80,-1.35 -22.50,-2.04 -17.20,-2.73 -11.93,-2.75 -6.65,-2.77 -3.20,-2.29 0.24,-1.80 0.45,-1.74 0.66,-1.69 0.85,-1.58 1.05,-1.48 1.21,-1.33 1.37,-1.18 1.49,-1.00 1.61,-0.82 1.69,-0.62 1.77,-0.41 1.79,-0.19 1.81,0.02 1.78,0.23 1.76,0.45 1.68,0.65 1.59,0.86 1.47,1.04 1.34,1.22 1.18,1.36 1.01,1.50 0.81,1.60 0.62,1.70 0.41,1.75 0.19,1.80 -0.02,1.80 -0.24,1.80 -0.24,1.80 L -0.24,1.80 Z"></path></g><g transform="translate(951.5999755859375 690.9750061035156) rotate(0 4.400054931640625 8.399993896484375)" stroke="none"><path fill="#000" d="M 1.38,0.99 Q 1.38,0.99 0.34,2.67 -0.70,4.35 -1.79,6.53 -2.88,8.70 -3.29,10.60 -3.71,12.50 -2.30,13.52 -0.88,14.53 0.65,14.00 2.20,13.47 3.49,12.63 4.78,11.80 6.08,10.96 7.37,10.13 8.66,9.27 9.94,8.40 11.05,9.88 12.15,11.36 13.63,12.19 15.10,13.03 15.30,13.11 15.49,13.19 15.66,13.33 15.82,13.46 15.92,13.65 16.03,13.83 16.08,14.04 16.12,14.25 16.10,14.46 16.07,14.67 15.98,14.86 15.89,15.05 15.74,15.21 15.60,15.36 15.41,15.46 15.22,15.55 15.01,15.59 14.80,15.62 14.59,15.58 14.38,15.55 14.19,15.45 14.01,15.35 13.86,15.19 13.72,15.04 13.63,14.84 13.54,14.65 13.52,14.44 13.50,14.23 13.55,14.02 13.59,13.81 13.70,13.63 13.81,13.45 13.98,13.31 14.14,13.18 14.34,13.10 14.54,13.02 14.75,13.01 14.96,13.00 15.16,13.06 15.37,13.12 15.54,13.24 15.72,13.36 15.85,13.53 15.97,13.70 16.04,13.90 16.11,14.10 16.11,14.32 16.10,14.53 16.03,14.73 15.97,14.93 15.84,15.10 15.71,15.27 15.53,15.39 15.35,15.50 15.15,15.56 14.94,15.61 14.73,15.60 14.52,15.59 14.52,15.59 14.52,15.59 12.00,14.39 9.49,13.20 8.12,14.08 6.76,14.97 5.04,16.01 3.32,17.05 1.03,17.69 -1.25,18.33 -3.57,17.86 -5.89,17.39 -6.71,16.23 -7.53,15.07 -7.56,13.34 -7.60,11.61 -7.01,9.26 -6.43,6.91 -5.16,4.49 -3.89,2.08 -2.64,0.54 -1.38,-0.99 -1.25,-1.14 -1.11,-1.29 -0.94,-1.41 -0.76,-1.52 -0.57,-1.59 -0.38,-1.66 -0.17,-1.68 0.02,-1.70 0.23,-1.67 0.43,-1.65 0.62,-1.57 0.81,-1.49 0.98,-1.37 1.15,-1.25 1.28,-1.10 1.42,-0.94 1.51,-0.76 1.60,-0.57 1.65,-0.37 1.69,-0.17 1.69,0.02 1.69,0.23 1.63,0.43 1.58,0.63 1.48,0.81 1.38,0.99 1.38,0.99 L 1.38,0.99 Z"></path></g><g transform="translate(966.800048828125 694.1750183105469) rotate(0 0 -0.399993896484375)" stroke="none"><path fill="#000" d="M 1.71,-0.53 Q 1.71,-0.53 1.74,-0.10 1.76,0.32 1.59,0.71 1.41,1.10 1.07,1.37 0.73,1.63 0.31,1.71 -0.10,1.79 -0.51,1.66 -0.92,1.53 -1.23,1.23 -1.53,0.92 -1.66,0.51 -1.79,0.10 -1.71,-0.31 -1.63,-0.73 -1.37,-1.07 -1.10,-1.41 -0.71,-1.59 -0.32,-1.76 0.10,-1.74 0.53,-1.71 0.90,-1.49 1.27,-1.27 1.49,-0.90 L 1.71,-0.53 Z"></path></g><g transform="translate(980.4000244140625 690.9750061035156) rotate(0 1.20001220703125 7.600006103515625)" stroke="none"><path fill="#000" d="M 1.79,0.67 Q 1.79,0.67 1.12,2.52 0.46,4.37 -0.31,6.12 -1.08,7.88 -1.60,9.43 -2.12,10.99 -2.81,12.38 -3.50,13.77 -3.60,13.98 -3.71,14.20 -3.86,14.38 -4.01,14.56 -4.20,14.71 -4.39,14.85 -4.60,14.94 -4.82,15.03 -5.06,15.07 -5.29,15.11 -5.53,15.09 -5.76,15.07 -5.99,15.00 -6.22,14.92 -6.42,14.79 -6.62,14.67 -6.78,14.50 -6.94,14.32 -7.06,14.12 -7.18,13.91 -7.25,13.68 -7.31,13.46 -7.32,13.22 -7.33,12.98 -7.28,12.75 -7.24,12.52 -5.92,12.05 -4.60,11.59 -3.81,10.80 -3.02,10.02 -1.48,9.17 0.06,8.31 1.46,7.70 2.87,7.09 4.17,6.60 5.46,6.10 7.75,7.10 10.03,8.11 8.63,9.65 7.22,11.19 5.84,11.92 4.47,12.65 1.86,13.28 -0.74,13.91 -0.95,13.94 -1.16,13.97 -1.37,13.92 -1.58,13.88 -1.77,13.77 -1.95,13.67 -2.09,13.51 -2.23,13.35 -2.31,13.15 -2.39,12.96 -2.41,12.74 -2.42,12.53 -2.37,12.33 -2.32,12.12 -2.20,11.94 -2.08,11.77 -1.92,11.63 -1.75,11.50 -1.55,11.43 -1.35,11.36 -1.14,11.36 -0.92,11.35 -0.72,11.42 -0.52,11.48 -0.35,11.61 -0.18,11.73 -0.06,11.91 0.06,12.08 0.12,12.29 0.18,12.49 0.17,12.70 0.16,12.91 0.09,13.11 0.01,13.31 -0.11,13.48 -0.25,13.64 -0.43,13.75 -0.61,13.87 -0.82,13.91 -1.02,13.96 -1.23,13.94 -1.45,13.92 -1.64,13.84 -1.83,13.75 -1.99,13.61 -2.15,13.47 -2.25,13.28 -2.35,13.09 -2.39,12.88 -2.43,12.67 -2.40,12.46 -2.37,12.25 -2.27,12.07 -2.17,11.88 -2.02,11.73 -1.87,11.58 -1.68,11.49 -1.49,11.39 -1.49,11.39 -1.49,11.39 0.58,10.32 2.65,9.24 4.62,8.35 6.60,7.46 6.72,8.58 6.83,9.70 5.63,10.16 4.42,10.62 3.19,11.17 1.96,11.72 0.54,12.52 -0.86,13.32 -2.18,13.54 -3.50,13.77 -3.60,13.98 -3.71,14.20 -3.86,14.38 -4.01,14.56 -4.20,14.71 -4.39,14.85 -4.60,14.94 -4.82,15.03 -5.06,15.07 -5.29,15.11 -5.53,15.09 -5.76,15.07 -5.99,15.00 -6.21,14.92 -6.42,14.79 -6.62,14.67 -6.78,14.50 -6.94,14.32 -7.06,14.12 -7.18,13.91 -7.25,13.68 -7.31,13.46 -7.32,13.22 -7.33,12.98 -7.28,12.75 -7.24,12.52 -6.54,11.13 -5.85,9.74 -5.26,8.01 -4.68,6.28 -3.95,4.63 -3.22,2.98 -2.50,1.15 -1.79,-0.67 -1.68,-0.87 -1.58,-1.08 -1.42,-1.25 -1.27,-1.42 -1.08,-1.56 -0.89,-1.69 -0.68,-1.77 -0.46,-1.85 -0.23,-1.88 -0.00,-1.91 0.22,-1.88 0.45,-1.86 0.66,-1.78 0.88,-1.70 1.07,-1.56 1.26,-1.43 1.41,-1.26 1.57,-1.09 1.68,-0.89 1.78,-0.68 1.84,-0.46 1.90,-0.23 1.90,-0.00 1.90,0.22 1.84,0.44 1.79,0.67 1.79,0.67 L 1.79,0.67 Z"></path></g><g transform="translate(994.800048828125 694.1750183105469) rotate(0 8 3.5999755859375)" stroke="none"><path fill="#000" d="M 1.06,-1.33 Q 1.06,-1.33 2.31,-0.45 3.55,0.42 4.29,1.81 5.02,3.21 5.29,4.31 5.56,5.41 5.30,7.37 5.04,9.33 4.81,9.41 4.58,9.48 4.44,9.68 4.31,9.87 4.13,10.02 3.95,10.18 3.74,10.29 3.54,10.39 3.31,10.45 3.08,10.50 2.84,10.50 2.61,10.50 2.38,10.44 2.15,10.39 1.95,10.27 1.74,10.16 1.56,10.01 1.39,9.85 1.26,9.66 1.13,9.46 1.04,9.24 0.96,9.02 0.93,8.79 0.91,8.56 0.94,8.32 0.97,8.09 1.05,7.87 1.14,7.65 2.24,5.21 3.35,2.77 5.11,1.25 6.86,-0.27 8.37,-1.15 9.87,-2.04 12.32,-2.35 14.77,-2.66 14.98,-2.68 15.19,-2.69 15.40,-2.63 15.60,-2.58 15.78,-2.46 15.95,-2.34 16.08,-2.17 16.21,-2.00 16.28,-1.80 16.35,-1.60 16.35,-1.39 16.35,-1.18 16.29,-0.98 16.22,-0.77 16.09,-0.60 15.96,-0.43 15.79,-0.31 15.61,-0.19 15.41,-0.14 15.21,-0.08 14.99,-0.09 14.78,-0.10 14.58,-0.18 14.39,-0.25 14.22,-0.39 14.06,-0.53 13.95,-0.71 13.84,-0.89 13.79,-1.10 13.74,-1.30 13.77,-1.51 13.79,-1.73 13.88,-1.92 13.96,-2.11 14.11,-2.27 14.25,-2.42 14.44,-2.52 14.63,-2.62 14.84,-2.66 15.05,-2.70 15.26,-2.66 15.47,-2.63 15.66,-2.53 15.84,-2.43 15.99,-2.28 16.14,-2.13 16.23,-1.93 16.32,-1.74 16.34,-1.53 16.37,-1.32 16.32,-1.11 16.28,-0.90 16.17,-0.72 16.06,-0.54 15.90,-0.40 15.74,-0.26 15.54,-0.18 15.35,-0.10 15.35,-0.10 15.35,-0.10 13.53,0.54 11.72,1.19 10.52,1.90 9.32,2.61 7.96,3.75 6.60,4.89 5.78,6.03 4.96,7.16 4.77,8.32 4.58,9.48 4.44,9.68 4.31,9.87 4.13,10.02 3.95,10.18 3.74,10.29 3.54,10.39 3.31,10.45 3.08,10.50 2.84,10.50 2.61,10.50 2.38,10.44 2.15,10.39 1.95,10.27 1.74,10.16 1.57,10.01 1.39,9.85 1.26,9.66 1.13,9.46 1.04,9.24 0.96,9.02 0.93,8.79 0.91,8.56 0.94,8.32 0.97,8.09 1.05,7.87 1.14,7.65 1.48,6.95 1.81,6.26 1.43,4.76 1.04,3.25 -0.01,2.29 -1.06,1.33 -1.20,1.18 -1.35,1.03 -1.45,0.86 -1.56,0.68 -1.62,0.48 -1.67,0.29 -1.68,0.08 -1.70,-0.12 -1.66,-0.32 -1.62,-0.52 -1.53,-0.71 -1.44,-0.89 -1.32,-1.05 -1.19,-1.21 -1.02,-1.34 -0.86,-1.46 -0.67,-1.54 -0.49,-1.63 -0.28,-1.66 -0.08,-1.70 0.11,-1.68 0.32,-1.67 0.51,-1.61 0.71,-1.54 0.89,-1.43 1.06,-1.33 1.06,-1.33 L 1.06,-1.33 Z"></path></g><g transform="translate(1021.2000732421875 693.3750305175781) rotate(0 -2.800048828125 4)" stroke="none"><path fill="#000" d="M 0.85,1.71 Q 0.85,1.71 -1.43,2.87 -3.71,4.03 -4.97,5.10 -6.23,6.16 -7.07,7.12 -7.92,8.08 -8.11,8.21 -8.31,8.33 -8.54,8.41 -8.76,8.48 -8.99,8.50 -9.23,8.52 -9.46,8.48 -9.69,8.45 -9.91,8.36 -10.12,8.26 -10.31,8.12 -10.50,7.98 -10.65,7.80 -10.80,7.62 -10.90,7.41 -11.00,7.20 -11.05,6.97 -11.09,6.74 -11.08,6.50 -11.08,6.27 -11.01,6.04 -10.95,5.81 -10.83,5.61 -10.71,5.41 -10.55,5.24 -10.39,5.07 -8.93,5.40 -7.46,5.73 -5.65,4.64 -3.83,3.54 -2.88,2.81 -1.93,2.07 -0.06,1.74 1.79,1.40 3.00,1.94 4.20,2.48 4.37,2.53 4.53,2.58 4.68,2.67 4.84,2.75 4.96,2.88 5.09,3.00 5.18,3.15 5.27,3.30 5.32,3.46 5.38,3.63 5.39,3.81 5.40,3.98 5.37,4.15 5.34,4.33 5.27,4.49 5.20,4.65 5.10,4.79 4.99,4.93 4.85,5.03 4.72,5.14 4.56,5.22 4.40,5.29 4.23,5.32 4.05,5.36 3.88,5.35 3.70,5.34 2.23,3.97 0.75,2.59 0.63,2.42 0.50,2.25 0.44,2.05 0.38,1.84 0.38,1.63 0.39,1.42 0.46,1.22 0.53,1.02 0.66,0.85 0.79,0.69 0.97,0.57 1.15,0.45 1.36,0.40 1.56,0.35 1.77,0.37 1.99,0.38 2.18,0.46 2.38,0.55 2.54,0.69 2.70,0.83 2.80,1.01 2.91,1.20 2.95,1.41 2.99,1.62 2.96,1.83 2.93,2.04 2.84,2.23 2.75,2.42 2.60,2.57 2.45,2.72 2.26,2.82 2.07,2.91 1.86,2.94 1.65,2.97 1.44,2.93 1.23,2.89 1.04,2.79 0.86,2.69 0.72,2.53 0.57,2.37 0.49,2.18 0.40,1.98 0.39,1.77 0.37,1.56 0.42,1.35 0.47,1.15 0.58,0.97 0.69,0.79 0.86,0.65 1.02,0.52 1.22,0.44 1.42,0.37 1.63,0.36 1.85,0.36 2.05,0.42 2.25,0.48 2.43,0.60 2.60,0.72 2.60,0.72 2.60,0.72 3.40,1.60 4.20,2.48 4.37,2.53 4.53,2.58 4.68,2.67 4.84,2.75 4.96,2.88 5.09,3.00 5.18,3.15 5.27,3.30 5.32,3.46 5.38,3.63 5.39,3.81 5.40,3.98 5.37,4.15 5.34,4.33 5.27,4.49 5.20,4.65 5.10,4.79 4.99,4.93 4.85,5.03 4.72,5.14 4.56,5.22 4.40,5.29 4.23,5.32 4.05,5.36 3.88,5.35 3.70,5.34 3.12,5.38 2.53,5.41 0.70,4.48 -1.11,3.55 -0.35,4.32 0.39,5.10 -0.76,5.97 -1.93,6.85 -3.58,7.76 -5.23,8.66 -6.57,8.37 -7.92,8.08 -8.11,8.21 -8.31,8.33 -8.54,8.41 -8.76,8.48 -8.99,8.50 -9.23,8.52 -9.46,8.48 -9.69,8.45 -9.91,8.36 -10.12,8.26 -10.31,8.12 -10.50,7.98 -10.65,7.80 -10.80,7.62 -10.90,7.41 -11.00,7.20 -11.05,6.97 -11.09,6.74 -11.08,6.50 -11.08,6.27 -11.01,6.04 -10.95,5.81 -10.83,5.61 -10.71,5.41 -10.55,5.24 -10.39,5.07 -9.55,4.11 -8.71,3.15 -7.09,1.85 -5.48,0.56 -3.16,-0.57 -0.85,-1.71 -0.63,-1.78 -0.42,-1.86 -0.19,-1.88 0.03,-1.91 0.26,-1.88 0.49,-1.84 0.70,-1.76 0.92,-1.67 1.10,-1.54 1.29,-1.40 1.44,-1.23 1.59,-1.05 1.69,-0.84 1.80,-0.64 1.85,-0.41 1.90,-0.19 1.89,0.03 1.89,0.26 1.83,0.49 1.77,0.71 1.66,0.91 1.55,1.11 1.39,1.28 1.24,1.45 1.04,1.58 0.85,1.71 0.85,1.71 L 0.85,1.71 Z"></path></g><g transform="translate(1032.4000244140625 690.1750183105469) rotate(0 11.5999755859375 26.79998779296875)" stroke="none"><path fill="#000" d="M 0.39,-1.57 Q 0.39,-1.57 2.28,-1.25 4.17,-0.93 5.52,-0.09 6.86,0.74 7.60,2.24 8.34,3.73 8.02,5.20 7.70,6.67 6.61,7.66 5.52,8.65 4.47,9.00 3.43,9.35 3.48,9.24 3.53,9.13 3.31,9.19 3.09,9.26 2.86,9.27 2.63,9.29 2.40,9.24 2.18,9.20 1.97,9.11 1.76,9.01 1.58,8.87 1.39,8.72 1.25,8.54 1.11,8.36 1.02,8.15 0.92,7.94 0.88,7.71 0.84,7.48 0.86,7.25 0.87,7.02 0.94,6.80 1.01,6.58 1.13,6.38 1.25,6.19 1.42,6.02 1.58,5.86 1.78,5.74 1.98,5.62 4.63,3.89 7.29,2.15 9.79,1.65 12.29,1.15 13.79,0.96 15.30,0.77 16.46,1.12 17.61,1.47 18.28,2.33 18.95,3.19 20.93,3.91 22.91,4.63 24.12,4.23 25.32,3.82 26.50,3.21 27.68,2.60 28.42,2.06 29.17,1.52 29.38,1.41 29.59,1.31 29.83,1.26 30.06,1.21 30.30,1.21 30.54,1.22 30.77,1.28 31.00,1.35 31.20,1.47 31.41,1.58 31.58,1.75 31.76,1.91 31.89,2.11 32.02,2.31 32.09,2.53 32.17,2.76 32.19,2.99 32.22,3.23 32.18,3.47 32.15,3.70 32.05,3.92 31.96,4.14 31.82,4.34 31.68,4.53 31.50,4.68 31.32,4.83 31.04,7.82 30.77,10.81 30.09,14.91 29.42,19.02 27.51,25.51 25.60,32.00 23.11,37.16 20.63,42.33 17.09,46.11 13.56,49.89 9.03,51.77 4.50,53.66 -0.54,54.44 -5.59,55.22 -5.80,55.23 -6.02,55.24 -6.22,55.18 -6.43,55.13 -6.60,55.01 -6.78,54.89 -6.90,54.72 -7.03,54.55 -7.10,54.34 -7.17,54.14 -7.16,53.93 -7.16,53.72 -7.10,53.52 -7.03,53.32 -6.90,53.15 -6.77,52.98 -6.59,52.86 -6.42,52.74 -6.21,52.69 -6.01,52.63 -5.79,52.64 -5.58,52.65 -5.38,52.73 -5.19,52.81 -5.03,52.95 -4.86,53.09 -4.76,53.27 -4.65,53.45 -4.60,53.66 -4.56,53.87 -4.58,54.08 -4.60,54.29 -4.69,54.48 -4.78,54.68 -4.93,54.83 -5.08,54.98 -5.27,55.08 -5.45,55.18 -5.66,55.22 -5.87,55.25 -6.08,55.21 -6.29,55.18 -6.48,55.08 -6.67,54.98 -6.81,54.82 -6.96,54.67 -7.05,54.47 -7.14,54.28 -7.16,54.07 -7.18,53.86 -7.13,53.65 -7.09,53.44 -6.98,53.26 -6.87,53.08 -6.70,52.94 -6.54,52.81 -6.34,52.73 -6.15,52.65 -6.15,52.65 -6.15,52.65 -1.55,51.35 3.03,50.05 6.85,48.49 10.67,46.94 13.79,43.70 16.91,40.47 19.27,35.63 21.62,30.80 23.51,24.57 25.41,18.35 26.11,14.18 26.81,10.02 27.37,7.33 27.92,4.64 28.54,3.08 29.17,1.52 29.38,1.41 29.59,1.31 29.83,1.26 30.06,1.21 30.30,1.21 30.54,1.22 30.77,1.28 31.00,1.35 31.20,1.47 31.41,1.58 31.58,1.74 31.76,1.91 31.89,2.11 32.02,2.31 32.09,2.53 32.17,2.76 32.19,2.99 32.22,3.23 32.18,3.47 32.15,3.70 32.05,3.92 31.96,4.14 31.82,4.34 31.68,4.53 31.50,4.68 31.32,4.83 30.28,5.28 29.25,5.73 27.82,6.43 26.38,7.14 24.68,7.66 22.98,8.18 20.78,8.15 18.58,8.12 17.13,6.34 15.68,4.55 14.34,4.73 13.00,4.90 10.96,5.26 8.92,5.61 7.15,6.38 5.37,7.14 4.45,8.13 3.53,9.13 3.31,9.19 3.09,9.26 2.86,9.27 2.63,9.29 2.40,9.24 2.18,9.20 1.97,9.11 1.76,9.01 1.58,8.87 1.39,8.72 1.25,8.54 1.11,8.36 1.02,8.15 0.92,7.94 0.88,7.71 0.84,7.48 0.86,7.25 0.87,7.02 0.94,6.80 1.01,6.58 1.13,6.38 1.25,6.19 1.42,6.02 1.58,5.86 1.78,5.74 1.98,5.62 2.52,5.75 3.06,5.89 3.92,5.24 4.78,4.60 3.98,3.68 3.18,2.77 1.39,2.17 -0.39,1.57 -0.57,1.50 -0.76,1.43 -0.92,1.32 -1.08,1.21 -1.21,1.06 -1.34,0.91 -1.43,0.74 -1.52,0.57 -1.56,0.38 -1.61,0.19 -1.61,-0.00 -1.61,-0.20 -1.56,-0.39 -1.51,-0.58 -1.42,-0.75 -1.33,-0.92 -1.20,-1.07 -1.07,-1.22 -0.91,-1.33 -0.75,-1.44 -0.56,-1.51 -0.38,-1.57 -0.18,-1.60 0.00,-1.62 0.19,-1.60 0.39,-1.57 0.39,-1.57 L 0.39,-1.57 Z"></path></g><g transform="translate(1030 718.9750061035156) rotate(0 -40.79998779296875 29.20001220703125)" stroke="none"><path fill="#000" d="M 1.38,0.96 Q 1.38,0.96 -0.09,3.35 -1.58,5.75 -5.08,9.61 -8.58,13.48 -12.91,17.01 -17.25,20.54 -22.04,24.31 -26.84,28.08 -32.63,31.80 -38.43,35.52 -46.40,40.32 -54.37,45.12 -60.51,48.76 -66.66,52.41 -70.42,54.64 -74.18,56.87 -77.01,57.92 -79.84,58.96 -80.04,59.03 -80.24,59.10 -80.46,59.09 -80.67,59.09 -80.87,59.02 -81.07,58.95 -81.24,58.82 -81.41,58.69 -81.53,58.52 -81.64,58.34 -81.70,58.13 -81.75,57.93 -81.74,57.72 -81.73,57.51 -81.65,57.31 -81.57,57.11 -81.43,56.95 -81.29,56.79 -81.11,56.68 -80.92,56.57 -80.72,56.53 -80.51,56.49 -80.30,56.51 -80.09,56.53 -79.89,56.63 -79.70,56.72 -79.55,56.86 -79.40,57.01 -79.30,57.20 -79.20,57.39 -79.17,57.60 -79.13,57.81 -79.17,58.02 -79.21,58.23 -79.31,58.41 -79.41,58.60 -79.56,58.75 -79.72,58.89 -79.91,58.98 -80.11,59.07 -80.32,59.09 -80.53,59.11 -80.74,59.06 -80.94,59.01 -81.12,58.90 -81.31,58.79 -81.44,58.63 -81.58,58.47 -81.65,58.27 -81.73,58.07 -81.74,57.86 -81.75,57.65 -81.69,57.44 -81.63,57.24 -81.51,57.06 -81.39,56.89 -81.22,56.76 -81.05,56.63 -81.05,56.63 -81.05,56.63 -78.68,54.97 -76.30,53.31 -72.54,51.06 -68.79,48.82 -62.65,45.18 -56.52,41.54 -48.60,36.78 -40.67,32.02 -35.04,28.42 -29.40,24.81 -24.63,21.06 -19.86,17.32 -15.74,13.99 -11.62,10.66 -8.24,7.05 -4.85,3.44 -3.12,1.24 -1.38,-0.96 -1.24,-1.11 -1.10,-1.26 -0.94,-1.38 -0.77,-1.49 -0.58,-1.56 -0.39,-1.64 -0.19,-1.66 0.01,-1.68 0.21,-1.66 0.41,-1.63 0.60,-1.56 0.79,-1.48 0.96,-1.37 1.12,-1.25 1.26,-1.10 1.39,-0.94 1.48,-0.76 1.58,-0.58 1.62,-0.38 1.67,-0.19 1.67,0.01 1.67,0.21 1.62,0.41 1.57,0.60 1.47,0.78 1.38,0.96 1.38,0.96 L 1.38,0.96 Z"></path></g><g transform="translate(942 761.3750305175781) rotate(0 18.800018310546875 16.399993896484375)" stroke="none"><path fill="#000" d="M 1.58,0.24 Q 1.58,0.24 1.40,3.27 1.22,6.31 0.56,9.26 -0.10,12.22 -0.35,14.70 -0.61,17.18 -0.72,19.60 -0.83,22.02 -0.88,24.66 -0.93,27.29 -0.95,28.65 -0.97,30.01 1.05,29.12 3.09,28.22 6.58,26.92 10.06,25.61 15.95,23.48 21.84,21.34 25.48,19.99 29.13,18.64 33.76,17.43 38.40,16.21 38.61,16.17 38.82,16.14 39.03,16.18 39.24,16.21 39.42,16.31 39.61,16.41 39.76,16.57 39.90,16.72 39.99,16.92 40.08,17.11 40.10,17.32 40.12,17.53 40.08,17.74 40.03,17.95 39.92,18.13 39.81,18.31 39.65,18.45 39.48,18.58 39.29,18.66 39.09,18.74 38.88,18.75 38.66,18.76 38.46,18.70 38.26,18.64 38.08,18.52 37.90,18.40 37.78,18.23 37.65,18.06 37.58,17.86 37.51,17.66 37.52,17.45 37.52,17.24 37.59,17.04 37.65,16.83 37.78,16.67 37.91,16.50 38.09,16.38 38.27,16.26 38.47,16.20 38.68,16.15 38.89,16.16 39.10,16.17 39.30,16.25 39.49,16.33 39.65,16.47 39.82,16.61 39.93,16.79 40.03,16.97 40.08,17.18 40.12,17.39 40.10,17.60 40.08,17.81 39.99,18.00 39.90,18.20 39.75,18.35 39.60,18.50 39.41,18.60 39.23,18.70 39.23,18.70 39.23,18.70 34.86,20.48 30.50,22.25 26.87,23.67 23.24,25.10 17.41,27.33 11.58,29.56 8.07,30.95 4.56,32.34 1.14,33.31 -2.26,34.28 -3.48,33.48 -4.70,32.69 -5.02,31.32 -5.35,29.95 -5.33,28.58 -5.31,27.21 -5.26,24.51 -5.21,21.81 -5.08,19.26 -4.96,16.71 -4.66,13.98 -4.35,11.25 -3.71,8.45 -3.06,5.64 -2.32,2.70 -1.58,-0.24 -1.53,-0.43 -1.48,-0.61 -1.38,-0.78 -1.29,-0.95 -1.15,-1.09 -1.02,-1.23 -0.86,-1.34 -0.70,-1.44 -0.51,-1.50 -0.33,-1.57 -0.14,-1.58 0.05,-1.60 0.24,-1.57 0.43,-1.54 0.61,-1.47 0.79,-1.39 0.94,-1.28 1.10,-1.16 1.22,-1.01 1.35,-0.87 1.43,-0.69 1.52,-0.52 1.56,-0.33 1.60,-0.14 1.59,0.05 1.58,0.24 1.58,0.24 L 1.58,0.24 Z"></path></g><g transform="translate(744.4000244140625 734.1750183105469) rotate(0 17.199981689453125 18.39996337890625)" stroke="none"><path fill="#000" d="M -0.55,1.28 Q -0.55,1.28 -2.22,0.74 -3.89,0.20 -5.07,-0.30 -6.24,-0.82 -7.22,-1.23 -8.20,-1.65 -9.50,-2.79 -10.81,-3.93 -11.47,-4.90 -12.14,-5.86 -13.03,-7.11 -13.93,-8.36 -14.67,-9.82 -15.41,-11.28 -15.50,-11.73 -15.59,-12.18 -15.70,-12.42 -15.80,-12.65 -15.84,-12.91 -15.89,-13.16 -15.87,-13.42 -15.86,-13.68 -15.78,-13.93 -15.70,-14.17 -15.56,-14.39 -15.43,-14.61 -15.24,-14.79 -15.06,-14.98 -14.84,-15.11 -14.61,-15.24 -14.37,-15.32 -14.12,-15.39 -13.86,-15.41 -13.60,-15.42 -13.35,-15.37 -13.09,-15.32 -12.86,-15.21 -12.62,-15.11 -12.42,-14.95 -12.22,-14.79 -12.06,-14.58 -11.90,-14.38 -11.12,-13.60 -10.34,-12.82 -9.18,-11.36 -8.03,-9.91 -6.54,-7.58 -5.06,-5.26 -2.94,-2.83 -0.81,-0.41 3.31,3.84 7.44,8.09 11.52,12.47 15.60,16.84 19.82,20.96 24.04,25.08 27.91,28.93 31.79,32.78 35.70,36.47 39.62,40.17 41.99,42.44 44.36,44.72 46.51,46.45 48.66,48.17 48.85,48.27 49.04,48.37 49.19,48.52 49.34,48.67 49.43,48.86 49.52,49.06 49.55,49.27 49.57,49.48 49.53,49.69 49.48,49.89 49.38,50.08 49.27,50.26 49.11,50.40 48.95,50.54 48.75,50.62 48.56,50.70 48.34,50.71 48.13,50.73 47.93,50.67 47.72,50.62 47.54,50.50 47.37,50.39 47.24,50.22 47.11,50.05 47.04,49.85 46.97,49.65 46.96,49.44 46.96,49.22 47.03,49.02 47.09,48.82 47.22,48.65 47.34,48.48 47.52,48.36 47.69,48.24 47.90,48.18 48.10,48.12 48.31,48.13 48.53,48.14 48.72,48.21 48.92,48.29 49.09,48.42 49.25,48.56 49.36,48.74 49.47,48.92 49.52,49.13 49.57,49.34 49.55,49.55 49.53,49.76 49.44,49.95 49.35,50.15 49.21,50.30 49.07,50.46 48.88,50.56 48.69,50.66 48.48,50.70 48.27,50.73 48.06,50.70 47.85,50.67 47.85,50.67 47.85,50.67 44.64,49.23 41.43,47.78 39.06,45.53 36.70,43.28 32.71,39.58 28.73,35.87 24.85,32.05 20.96,28.23 16.66,24.04 12.37,19.86 8.31,15.51 4.26,11.16 0.06,6.80 -4.12,2.44 -6.41,-0.24 -8.71,-2.94 -10.06,-5.08 -11.41,-7.23 -12.58,-8.71 -13.76,-10.19 -14.67,-11.18 -15.59,-12.18 -15.70,-12.42 -15.80,-12.65 -15.84,-12.91 -15.89,-13.16 -15.87,-13.42 -15.86,-13.68 -15.78,-13.93 -15.70,-14.17 -15.56,-14.39 -15.43,-14.61 -15.24,-14.79 -15.06,-14.98 -14.84,-15.11 -14.61,-15.24 -14.37,-15.32 -14.12,-15.39 -13.86,-15.41 -13.60,-15.42 -13.35,-15.37 -13.09,-15.32 -12.86,-15.21 -12.62,-15.11 -12.42,-14.95 -12.22,-14.79 -12.06,-14.58 -11.90,-14.38 -11.99,-13.71 -12.07,-13.05 -11.31,-12.00 -10.54,-10.95 -9.80,-9.80 -9.07,-8.64 -8.31,-7.17 -7.56,-5.71 -6.17,-4.87 -4.77,-4.03 -3.65,-3.49 -2.54,-2.96 -0.99,-2.12 0.55,-1.28 0.69,-1.20 0.84,-1.11 0.96,-0.99 1.08,-0.88 1.17,-0.73 1.26,-0.59 1.31,-0.43 1.37,-0.27 1.38,-0.10 1.39,0.05 1.36,0.22 1.34,0.39 1.27,0.54 1.20,0.70 1.10,0.83 1.00,0.97 0.87,1.07 0.74,1.18 0.59,1.25 0.43,1.32 0.27,1.36 0.10,1.39 -0.05,1.38 -0.22,1.37 -0.38,1.33 -0.55,1.28 -0.55,1.28 L -0.55,1.28 Z"></path></g><g transform="translate(804.4000244140625 764.5749816894531) rotate(0 6.79998779296875 14.800018310546875)" stroke="none"><path fill="#000" d="M 1.73,-0.77 Q 1.73,-0.77 2.76,1.25 3.78,3.27 4.84,5.22 5.89,7.18 7.39,9.03 8.90,10.87 10.40,12.32 11.91,13.76 13.36,14.78 14.80,15.80 16.09,16.16 17.38,16.52 18.31,16.50 19.23,16.47 19.46,16.57 19.68,16.67 19.88,16.82 20.08,16.97 20.23,17.16 20.39,17.35 20.49,17.58 20.60,17.80 20.64,18.04 20.69,18.28 20.68,18.53 20.67,18.78 20.60,19.01 20.53,19.25 20.40,19.46 20.28,19.68 20.11,19.85 19.93,20.03 19.73,20.16 19.52,20.29 19.28,20.37 19.05,20.45 18.80,20.46 18.55,20.48 18.31,20.44 18.07,20.40 15.33,21.13 12.59,21.85 9.98,23.03 7.38,24.21 4.92,25.59 2.45,26.98 0.76,28.18 -0.92,29.39 -3.01,29.92 -5.09,30.44 -5.29,30.50 -5.50,30.55 -5.71,30.54 -5.92,30.53 -6.12,30.45 -6.32,30.37 -6.48,30.23 -6.64,30.09 -6.75,29.91 -6.85,29.73 -6.90,29.52 -6.94,29.31 -6.92,29.10 -6.89,28.89 -6.80,28.70 -6.71,28.50 -6.57,28.35 -6.42,28.20 -6.23,28.10 -6.04,28.00 -5.83,27.97 -5.62,27.93 -5.41,27.97 -5.20,28.01 -5.02,28.11 -4.83,28.21 -4.68,28.36 -4.54,28.52 -4.45,28.71 -4.36,28.91 -4.34,29.12 -4.32,29.33 -4.37,29.54 -4.41,29.74 -4.53,29.92 -4.64,30.11 -4.80,30.24 -4.96,30.38 -5.16,30.46 -5.36,30.53 -5.57,30.54 -5.78,30.55 -5.99,30.49 -6.19,30.44 -6.37,30.32 -6.54,30.19 -6.67,30.02 -6.80,29.85 -6.86,29.65 -6.93,29.45 -6.93,29.24 -6.93,29.03 -6.86,28.83 -6.79,28.62 -6.66,28.46 -6.53,28.29 -6.35,28.17 -6.17,28.05 -6.17,28.05 -6.17,28.05 -4.79,27.01 -3.41,25.96 -1.54,24.57 0.31,23.17 2.97,21.69 5.63,20.20 8.59,18.96 11.55,17.71 15.39,17.09 19.23,16.47 19.46,16.57 19.68,16.67 19.88,16.82 20.08,16.97 20.23,17.16 20.39,17.35 20.49,17.58 20.60,17.80 20.64,18.04 20.69,18.28 20.68,18.53 20.67,18.78 20.60,19.01 20.53,19.25 20.40,19.46 20.28,19.68 20.11,19.85 19.93,20.03 19.73,20.16 19.52,20.29 19.28,20.37 19.05,20.45 18.80,20.46 18.55,20.48 18.31,20.44 18.07,20.40 17.17,20.43 16.28,20.46 14.36,19.88 12.45,19.29 10.69,18.08 8.94,16.86 7.24,15.21 5.54,13.57 3.82,11.39 2.11,9.21 1.00,7.11 -0.10,5.00 -0.92,2.88 -1.73,0.77 -1.80,0.55 -1.86,0.33 -1.88,0.10 -1.89,-0.12 -1.85,-0.34 -1.81,-0.57 -1.71,-0.78 -1.62,-0.99 -1.47,-1.16 -1.33,-1.34 -1.15,-1.48 -0.97,-1.62 -0.76,-1.72 -0.55,-1.81 -0.33,-1.85 -0.10,-1.89 0.12,-1.88 0.35,-1.86 0.56,-1.79 0.78,-1.72 0.98,-1.60 1.17,-1.48 1.33,-1.32 1.50,-1.16 1.61,-0.96 1.73,-0.77 1.73,-0.77 L 1.73,-0.77 Z"></path></g><g transform="translate(888.4000244140625 777.3750305175781) rotate(0 -2.399993896484375 26)" stroke="none"><path fill="#000" d="M 0,2.02 Q 0,2.02 -2.29,2.04 -4.59,2.06 -7.65,2.75 -10.72,3.43 -14.79,4.64 -18.86,5.84 -24.04,7.51 -29.23,9.19 -34.59,11.30 -39.95,13.40 -45.13,16.10 -50.31,18.80 -55.38,22.63 -60.45,26.47 -63.50,29.21 -66.55,31.95 -67.64,33.80 -68.72,35.65 -68.15,37.49 -67.57,39.33 -65.60,40.61 -63.63,41.89 -59.96,43.18 -56.28,44.47 -50.86,45.50 -45.44,46.53 -38.75,47.44 -32.06,48.35 -22.40,48.74 -12.74,49.13 -3.79,49.31 5.16,49.49 13.04,49.10 20.92,48.71 27.90,47.86 34.88,47.02 42.13,45.29 49.38,43.57 53.76,41.95 58.13,40.33 60.43,38.94 62.73,37.54 63.49,34.81 64.24,32.07 64.22,30.16 64.19,28.25 63.16,26.10 62.13,23.95 60.26,22.25 58.39,20.56 55.62,18.93 52.86,17.31 49.29,16.20 45.72,15.10 40.08,13.92 34.44,12.75 28.64,12.02 22.83,11.30 16.73,10.99 10.62,10.68 4.62,10.78 -1.37,10.87 -6.63,11.37 -11.89,11.87 -16.60,12.71 -21.31,13.55 -25.59,14.02 -29.87,14.50 -30.08,14.50 -30.29,14.51 -30.50,14.45 -30.70,14.39 -30.88,14.27 -31.05,14.15 -31.18,13.98 -31.30,13.81 -31.37,13.61 -31.43,13.41 -31.43,13.19 -31.43,12.98 -31.36,12.78 -31.29,12.58 -31.16,12.41 -31.03,12.24 -30.85,12.13 -30.67,12.01 -30.47,11.96 -30.26,11.90 -30.05,11.92 -29.84,11.93 -29.64,12.01 -29.44,12.09 -29.28,12.23 -29.12,12.37 -29.02,12.56 -28.91,12.74 -28.87,12.95 -28.82,13.15 -28.85,13.37 -28.87,13.58 -28.97,13.77 -29.06,13.96 -29.21,14.11 -29.35,14.26 -29.54,14.36 -29.73,14.46 -29.94,14.49 -30.15,14.52 -30.36,14.49 -30.57,14.45 -30.76,14.35 -30.94,14.24 -31.09,14.09 -31.23,13.93 -31.32,13.74 -31.40,13.54 -31.43,13.33 -31.45,13.12 -31.40,12.91 -31.35,12.71 -31.24,12.53 -31.13,12.35 -30.96,12.21 -30.80,12.08 -30.60,12.00 -30.40,11.92 -30.40,11.92 -30.40,11.92 -26.25,10.65 -22.09,9.37 -17.20,8.41 -12.30,7.44 -6.87,6.94 -1.44,6.43 4.70,6.34 10.85,6.24 17.12,6.57 23.38,6.89 29.37,7.65 35.35,8.41 41.21,9.65 47.07,10.89 51.08,12.21 55.09,13.54 58.24,15.47 61.40,17.40 63.72,19.74 66.05,22.08 67.31,25.09 68.57,28.11 68.52,30.78 68.47,33.44 67.01,37.15 65.55,40.85 62.63,42.71 59.71,44.57 55.07,46.27 50.42,47.97 42.92,49.74 35.43,51.50 28.29,52.37 21.14,53.23 13.11,53.62 5.08,54.01 -3.92,53.86 -12.93,53.70 -22.81,53.31 -32.68,52.93 -39.50,52.00 -46.31,51.07 -52.08,49.94 -57.86,48.82 -62.13,47.20 -66.41,45.58 -69.07,43.27 -71.73,40.95 -72.32,37.58 -72.91,34.20 -71.32,31.36 -69.73,28.52 -66.48,25.63 -63.24,22.73 -57.83,18.73 -52.41,14.73 -46.99,11.97 -41.56,9.21 -36.05,7.14 -30.54,5.07 -25.30,3.42 -20.05,1.76 -15.82,0.54 -11.58,-0.67 -8.09,-1.37 -4.60,-2.06 -2.30,-2.04 0,-2.02 0.24,-1.99 0.48,-1.96 0.71,-1.87 0.93,-1.78 1.13,-1.65 1.33,-1.51 1.50,-1.33 1.66,-1.14 1.77,-0.93 1.88,-0.71 1.94,-0.47 2.00,-0.24 2.00,0.00 2.00,0.24 1.94,0.48 1.88,0.71 1.77,0.93 1.66,1.14 1.50,1.33 1.33,1.51 1.13,1.65 0.93,1.78 0.71,1.87 0.48,1.96 0.24,1.99 -0.00,2.02 -0.00,2.02 L 0,2.02 Z"></path></g><g transform="translate(874 802.1750183105469) rotate(0 -0.79998779296875 5.600006103515625)" stroke="none"><path fill="#000" d="M -1.68,0.28 Q -1.68,0.28 -2.03,-1.07 -2.38,-2.43 -3.17,-3.98 -3.95,-5.53 -4.63,-4.41 -5.32,-3.29 -5.72,-1.63 -6.11,0.03 -4.85,1.92 -3.59,3.81 -2.11,4.68 -0.64,5.55 1.86,6.88 4.36,8.21 6.26,9.56 8.16,10.90 9.19,12.60 10.21,14.29 9.75,15.85 9.28,17.41 7.34,18.41 5.41,19.41 2.24,19.95 -0.92,20.49 -3.61,20.22 -6.31,19.95 -8.99,17.84 -11.68,15.73 -11.81,15.56 -11.94,15.39 -12.02,15.20 -12.09,15.00 -12.09,14.78 -12.10,14.57 -12.04,14.37 -11.97,14.16 -11.85,13.99 -11.72,13.82 -11.55,13.70 -11.38,13.57 -11.18,13.51 -10.97,13.45 -10.76,13.46 -10.55,13.46 -10.35,13.54 -10.15,13.61 -9.98,13.75 -9.82,13.88 -9.70,14.06 -9.59,14.24 -9.54,14.44 -9.49,14.65 -9.51,14.86 -9.53,15.07 -9.61,15.27 -9.70,15.46 -9.84,15.62 -9.98,15.78 -10.17,15.88 -10.35,15.99 -10.56,16.03 -10.77,16.07 -10.98,16.04 -11.19,16.01 -11.38,15.91 -11.57,15.82 -11.72,15.67 -11.87,15.51 -11.96,15.32 -12.06,15.13 -12.08,14.92 -12.11,14.71 -12.07,14.50 -12.03,14.30 -11.93,14.11 -11.82,13.93 -11.66,13.78 -11.50,13.64 -11.31,13.56 -11.11,13.48 -10.90,13.46 -10.69,13.44 -10.48,13.50 -10.28,13.55 -10.10,13.66 -9.92,13.78 -9.92,13.78 -9.92,13.78 -7.85,14.88 -5.77,15.99 -3.66,16.22 -1.54,16.46 1.19,16.03 3.93,15.59 4.85,14.87 5.78,14.15 4.12,12.96 2.47,11.77 -0.13,10.40 -2.74,9.02 -4.63,7.84 -6.53,6.66 -8.02,4.90 -9.52,3.13 -9.82,1.16 -10.11,-0.80 -9.59,-2.90 -9.06,-5.00 -8.26,-6.51 -7.47,-8.02 -6.16,-8.80 -4.86,-9.58 -2.76,-8.68 -0.67,-7.78 0.03,-6.62 0.75,-5.46 1.10,-4.27 1.46,-3.08 1.57,-1.68 1.68,-0.28 1.69,-0.07 1.69,0.13 1.65,0.33 1.61,0.53 1.53,0.71 1.44,0.90 1.31,1.06 1.18,1.22 1.02,1.34 0.85,1.47 0.66,1.55 0.48,1.63 0.27,1.66 0.07,1.70 -0.12,1.68 -0.33,1.67 -0.52,1.60 -0.72,1.54 -0.89,1.43 -1.07,1.32 -1.21,1.17 -1.35,1.02 -1.46,0.85 -1.56,0.67 -1.62,0.47 -1.68,0.28 -1.68,0.28 L -1.68,0.28 Z"></path></g><g transform="translate(894.7999877929688 790.9750061035156) rotate(0 24.4000244140625 9.5999755859375)" stroke="none"><path fill="#000" d="M 1.98,0 Q 1.98,0 2.03,4.14 2.07,8.28 2.06,11.87 2.04,15.47 1.75,18.02 1.46,20.56 1.01,21.97 0.57,23.39 0.08,23.88 -0.41,24.37 -0.47,24.54 -0.54,24.70 -0.64,24.85 -0.74,25.00 -0.88,25.11 -1.02,25.23 -1.18,25.31 -1.34,25.40 -1.51,25.44 -1.69,25.48 -1.86,25.48 -2.04,25.47 -2.22,25.43 -2.39,25.38 -2.55,25.30 -2.71,25.21 -2.84,25.09 -2.98,24.97 -3.08,24.82 -3.18,24.67 -3.24,24.51 -3.30,24.34 -3.32,24.16 -3.34,23.98 -3.32,23.80 -3.29,23.62 -3.90,22.12 -4.51,20.62 -3.58,18.81 -2.65,17.00 -1.14,15.92 0.36,14.83 1.84,14.39 3.32,13.94 5.16,14.03 6.99,14.12 8.31,15.02 9.63,15.93 10.47,17.43 11.31,18.93 11.60,20.06 11.90,21.19 12.38,20.01 12.85,18.83 14.37,18.23 15.88,17.64 17.16,18.19 18.44,18.74 19.16,19.69 19.88,20.64 22.04,21.26 24.21,21.88 26.35,21.82 28.49,21.76 29.81,21.48 31.14,21.20 32.15,20.42 33.16,19.65 33.37,19.59 33.59,19.53 33.81,19.52 34.03,19.52 34.25,19.56 34.47,19.61 34.67,19.71 34.87,19.80 35.04,19.95 35.21,20.09 35.34,20.27 35.47,20.45 35.56,20.65 35.64,20.86 35.68,21.08 35.71,21.30 35.69,21.52 35.67,21.74 35.60,21.95 35.53,22.16 35.41,22.35 35.28,22.54 35.12,22.69 34.96,22.84 34.77,22.95 34.57,23.06 33.15,22.62 31.73,22.17 29.66,22.34 27.59,22.50 26.57,22.89 25.55,23.28 27.38,23.16 29.21,23.04 30.53,22.25 31.84,21.46 33.28,20.10 34.71,18.74 35.20,16.60 35.69,14.46 35.23,10.48 34.78,6.50 33.69,3.52 32.60,0.54 31.70,-1.13 30.80,-2.80 30.14,-3.56 29.48,-4.32 29.39,-4.55 29.31,-4.79 29.28,-5.03 29.26,-5.28 29.29,-5.53 29.32,-5.77 29.41,-6.00 29.51,-6.23 29.65,-6.44 29.79,-6.64 29.98,-6.80 30.17,-6.96 30.39,-7.07 30.61,-7.19 30.85,-7.24 31.10,-7.30 31.34,-7.29 31.59,-7.29 31.83,-7.23 32.07,-7.17 32.29,-7.05 32.51,-6.93 32.69,-6.76 32.87,-6.59 33.01,-6.39 33.15,-6.18 32.83,-4.83 32.52,-3.47 32.58,-2.39 32.64,-1.31 32.60,1.12 32.56,3.55 32.54,6.67 32.52,9.78 32.52,12.49 32.51,15.19 32.94,17.28 33.38,19.38 34.01,20.40 34.63,21.42 36.35,20.54 38.07,19.66 38.61,18.60 39.15,17.54 39.34,17.37 39.52,17.21 39.74,17.09 39.96,16.98 40.20,16.92 40.44,16.86 40.69,16.86 40.93,16.85 41.18,16.91 41.42,16.97 41.64,17.09 41.86,17.20 42.04,17.36 42.23,17.53 42.37,17.73 42.51,17.93 42.60,18.16 42.69,18.40 42.72,18.64 42.75,18.89 42.72,19.13 42.69,19.38 42.61,19.61 42.52,19.84 42.38,20.05 42.24,20.25 42.40,18.94 42.57,17.63 42.76,17.51 42.94,17.39 43.15,17.32 43.36,17.25 43.58,17.23 43.80,17.22 44.02,17.25 44.24,17.29 44.44,17.37 44.65,17.46 44.82,17.59 45.00,17.73 45.14,17.90 45.28,18.07 45.38,18.27 45.47,18.47 45.51,18.69 45.56,18.91 45.55,19.13 45.54,19.35 45.48,19.56 45.42,19.77 45.30,19.96 45.19,20.16 45.04,20.31 44.89,20.47 46.03,21.24 47.17,22.01 49.38,21.95 51.59,21.90 51.80,21.92 52.01,21.95 52.20,22.04 52.39,22.13 52.55,22.28 52.70,22.43 52.80,22.61 52.89,22.80 52.93,23.01 52.96,23.22 52.92,23.43 52.89,23.64 52.78,23.83 52.68,24.02 52.53,24.16 52.37,24.30 52.18,24.39 51.99,24.48 51.77,24.50 51.56,24.52 51.36,24.47 51.15,24.43 50.97,24.32 50.79,24.20 50.65,24.04 50.51,23.88 50.44,23.68 50.36,23.48 50.35,23.27 50.34,23.06 50.40,22.85 50.46,22.65 50.58,22.47 50.70,22.30 50.87,22.17 51.04,22.04 51.24,21.98 51.44,21.91 51.66,21.91 51.87,21.92 52.07,21.99 52.27,22.06 52.44,22.19 52.61,22.32 52.72,22.49 52.84,22.67 52.90,22.88 52.95,23.08 52.94,23.29 52.93,23.50 52.84,23.70 52.76,23.90 52.63,24.06 52.49,24.22 52.30,24.33 52.12,24.44 51.91,24.48 51.70,24.52 51.70,24.52 51.70,24.52 50.29,24.86 48.87,25.20 47.74,25.31 46.61,25.42 45.55,24.96 44.49,24.50 43.46,23.04 42.43,21.59 42.50,19.61 42.57,17.63 42.76,17.51 42.94,17.39 43.15,17.32 43.36,17.25 43.58,17.23 43.80,17.22 44.02,17.25 44.24,17.29 44.44,17.37 44.65,17.46 44.82,17.59 45.00,17.73 45.14,17.90 45.28,18.07 45.38,18.27 45.47,18.47 45.51,18.69 45.56,18.91 45.55,19.13 45.54,19.35 45.48,19.56 45.42,19.77 45.30,19.96 45.19,20.16 45.04,20.31 44.89,20.47 44.14,20.89 43.40,21.31 41.64,22.00 39.88,22.69 38.98,21.95 38.09,21.22 38.62,19.38 39.15,17.54 39.34,17.37 39.52,17.21 39.74,17.09 39.96,16.98 40.20,16.92 40.44,16.86 40.69,16.86 40.93,16.85 41.17,16.91 41.42,16.97 41.64,17.09 41.86,17.20 42.04,17.36 42.23,17.53 42.37,17.73 42.51,17.93 42.60,18.16 42.69,18.40 42.72,18.64 42.75,18.89 42.72,19.13 42.69,19.38 42.61,19.61 42.52,19.84 42.38,20.05 42.24,20.25 42.13,20.47 42.02,20.69 41.14,21.68 40.25,22.67 38.79,23.62 37.33,24.58 35.26,24.81 33.19,25.05 31.80,24.10 30.41,23.16 29.84,21.68 29.26,20.20 28.79,17.70 28.31,15.19 28.32,12.47 28.33,9.76 28.35,6.61 28.37,3.47 28.42,0.92 28.48,-1.61 28.98,-2.97 29.48,-4.32 29.39,-4.55 29.31,-4.79 29.28,-5.03 29.26,-5.28 29.29,-5.53 29.32,-5.77 29.41,-6.00 29.51,-6.23 29.65,-6.44 29.79,-6.64 29.98,-6.80 30.17,-6.96 30.39,-7.07 30.61,-7.19 30.85,-7.24 31.10,-7.30 31.34,-7.29 31.59,-7.29 31.83,-7.23 32.07,-7.17 32.29,-7.05 32.51,-6.93 32.69,-6.76 32.87,-6.59 33.01,-6.39 33.15,-6.18 33.73,-5.39 34.32,-4.61 35.26,-2.64 36.20,-0.68 37.29,2.73 38.38,6.15 38.72,10.73 39.05,15.32 38.15,18.18 37.25,21.04 35.43,22.78 33.60,24.53 31.57,25.63 29.53,26.73 27.34,26.76 25.14,26.79 23.94,26.03 22.73,25.28 22.55,23.33 22.37,21.38 23.35,20.37 24.34,19.37 25.79,18.99 27.23,18.62 29.26,18.47 31.28,18.33 32.22,18.99 33.16,19.65 33.37,19.59 33.59,19.53 33.81,19.52 34.03,19.52 34.25,19.56 34.47,19.61 34.67,19.71 34.87,19.80 35.04,19.95 35.21,20.09 35.34,20.27 35.47,20.45 35.56,20.65 35.64,20.86 35.68,21.08 35.71,21.30 35.69,21.52 35.67,21.74 35.60,21.95 35.53,22.16 35.41,22.35 35.29,22.54 35.12,22.69 34.96,22.84 34.77,22.95 34.57,23.06 34.21,23.35 33.85,23.65 32.82,24.04 31.79,24.43 30.23,24.71 28.67,25.00 26.18,25.19 23.70,25.38 21.74,25.16 19.79,24.94 18.23,24.11 16.68,23.29 15.90,22.43 15.13,21.57 14.21,22.32 13.30,23.07 12.34,23.61 11.39,24.15 9.56,22.39 7.74,20.62 7.03,19.12 6.33,17.62 4.28,17.77 2.24,17.92 1.19,18.43 0.14,18.95 -0.59,20.44 -1.33,21.92 -0.87,23.15 -0.41,24.37 -0.47,24.54 -0.54,24.70 -0.64,24.85 -0.74,25.00 -0.88,25.11 -1.02,25.23 -1.18,25.31 -1.34,25.40 -1.51,25.44 -1.69,25.48 -1.86,25.48 -2.04,25.47 -2.22,25.43 -2.39,25.38 -2.55,25.30 -2.71,25.21 -2.84,25.09 -2.98,24.97 -3.08,24.82 -3.18,24.67 -3.24,24.51 -3.30,24.34 -3.32,24.16 -3.34,23.98 -3.32,23.80 -3.29,23.62 -3.05,23.03 -2.80,22.44 -2.59,21.32 -2.38,20.19 -2.21,17.83 -2.04,15.47 -2.06,11.87 -2.07,8.28 -2.03,4.14 -1.98,0 -1.95,-0.23 -1.92,-0.47 -1.84,-0.69 -1.75,-0.92 -1.62,-1.12 -1.48,-1.31 -1.30,-1.47 -1.12,-1.63 -0.91,-1.74 -0.70,-1.85 -0.47,-1.91 -0.23,-1.97 0.00,-1.97 0.23,-1.97 0.47,-1.91 0.70,-1.85 0.91,-1.74 1.12,-1.63 1.30,-1.47 1.48,-1.31 1.62,-1.11 1.75,-0.92 1.84,-0.69 1.92,-0.47 1.95,-0.23 1.98,0.00 1.98,0.00 L 1.98,0 Z"></path></g><g transform="translate(948.4000244140625 792.5749816894531) rotate(0 -1.600006103515625 14)" stroke="none"><path fill="#000" d="M 1.91,0.19 Q 1.91,0.19 1.77,2.50 1.63,4.81 1.06,7.72 0.49,10.64 0.03,13.41 -0.43,16.19 -0.67,18.89 -0.91,21.59 -1.37,24.23 -1.83,26.87 -1.87,27.08 -1.92,27.29 -2.03,27.47 -2.13,27.65 -2.29,27.79 -2.45,27.93 -2.65,28.01 -2.85,28.09 -3.06,28.11 -3.27,28.12 -3.48,28.06 -3.68,28.01 -3.86,27.89 -4.04,27.77 -4.17,27.61 -4.30,27.44 -4.37,27.24 -4.44,27.04 -4.44,26.83 -4.44,26.61 -4.37,26.41 -4.31,26.21 -4.18,26.04 -4.05,25.87 -3.88,25.75 -3.70,25.63 -3.50,25.57 -3.30,25.51 -3.08,25.52 -2.87,25.53 -2.67,25.60 -2.48,25.68 -2.31,25.82 -2.15,25.95 -2.04,26.13 -1.93,26.32 -1.88,26.52 -1.83,26.73 -1.85,26.94 -1.87,27.15 -1.96,27.35 -2.05,27.54 -2.19,27.70 -2.34,27.85 -2.52,27.95 -2.71,28.05 -2.92,28.09 -3.13,28.13 -3.34,28.09 -3.55,28.06 -3.74,27.96 -3.93,27.87 -4.07,27.71 -4.22,27.56 -4.31,27.37 -4.40,27.18 -4.43,26.96 -4.45,26.75 -4.45,26.75 -4.45,26.75 -4.68,24.03 -4.90,21.31 -4.74,18.41 -4.58,15.50 -4.11,12.66 -3.64,9.82 -3.09,7.10 -2.55,4.38 -2.23,2.09 -1.91,-0.19 -1.86,-0.41 -1.81,-0.64 -1.70,-0.85 -1.60,-1.05 -1.45,-1.23 -1.30,-1.41 -1.11,-1.54 -0.92,-1.68 -0.71,-1.77 -0.49,-1.85 -0.27,-1.89 -0.04,-1.92 0.19,-1.90 0.42,-1.87 0.63,-1.79 0.85,-1.72 1.05,-1.59 1.24,-1.46 1.40,-1.29 1.55,-1.12 1.67,-0.92 1.78,-0.71 1.84,-0.49 1.90,-0.27 1.90,-0.04 1.91,0.19 1.91,0.19 L 1.91,0.19 Z"></path></g><g transform="translate(942.7999877929688 806.1750183105469) rotate(0 7.200042724609375 -4.399993896484375)" stroke="none"><path fill="#000" d="M -1.07,-1.60 Q -1.07,-1.60 0.95,-3.04 2.99,-4.48 4.85,-5.55 6.71,-6.62 9.61,-7.91 12.52,-9.21 12.72,-9.29 12.92,-9.37 13.13,-9.38 13.34,-9.39 13.55,-9.33 13.75,-9.27 13.93,-9.15 14.10,-9.03 14.23,-8.86 14.36,-8.69 14.42,-8.49 14.49,-8.29 14.49,-8.07 14.49,-7.86 14.42,-7.66 14.35,-7.46 14.22,-7.29 14.09,-7.12 13.91,-7.00 13.74,-6.89 13.53,-6.83 13.33,-6.78 13.11,-6.79 12.90,-6.80 12.70,-6.88 12.51,-6.96 12.35,-7.10 12.19,-7.24 12.08,-7.42 11.97,-7.60 11.92,-7.81 11.88,-8.02 11.90,-8.23 11.93,-8.44 12.02,-8.63 12.11,-8.83 12.26,-8.98 12.40,-9.13 12.59,-9.23 12.78,-9.33 12.99,-9.36 13.20,-9.40 13.41,-9.36 13.62,-9.32 13.81,-9.22 13.99,-9.12 14.14,-8.97 14.28,-8.81 14.37,-8.62 14.46,-8.42 14.48,-8.21 14.50,-8.00 14.46,-7.79 14.41,-7.59 14.30,-7.41 14.19,-7.22 14.02,-7.09 13.86,-6.95 13.86,-6.95 13.86,-6.95 11.31,-5.02 8.76,-3.08 7.02,-2.06 5.28,-1.03 3.18,0.28 1.07,1.60 0.86,1.71 0.65,1.81 0.42,1.87 0.20,1.92 -0.03,1.91 -0.26,1.91 -0.48,1.85 -0.71,1.79 -0.91,1.68 -1.12,1.57 -1.29,1.41 -1.46,1.25 -1.59,1.06 -1.72,0.87 -1.80,0.65 -1.88,0.43 -1.90,0.20 -1.93,-0.03 -1.90,-0.26 -1.87,-0.49 -1.78,-0.70 -1.69,-0.92 -1.56,-1.11 -1.42,-1.30 -1.24,-1.45 -1.07,-1.60 -1.07,-1.60 L -1.07,-1.60 Z"></path></g></svg>