<svg version="1.1" xmlns="http://www.w3.org/2000/svg" viewBox="0 0 10020 879.2125244140625" width="10020" height="879.2125244140625">
  <!-- svg-source:excalidraw -->
  
  <defs>
    <style>
      @font-face {
        font-family: "Virgil";
        src: url("https://excalidraw.com/Virgil.woff2");
      }
      @font-face {
        font-family: "Cascadia";
        src: url("https://excalidraw.com/Cascadia.woff2");
      }
    </style>
  </defs>
  <rect x="0" y="0" width="10020" height="879.2125244140625" fill="#fff0"></rect><g stroke-linecap="round" transform="translate(10 10) rotate(0 5000 0.5)"><path d="M-0.52 -0.26 C3022.65 -30.2, 6044.59 -29.2, 9999.32 0.22 M0.38 -0.31 C3948.03 -0.44, 7895.41 0.2, 9999.95 0.08 M10000.08 -0.06 C10000.09 0.27, 10000.05 0.48, 10000.09 0.92 M9999.97 0.01 C9999.95 0.33, 9999.98 0.72, 10000 0.99 M10000.22 1.51 C7095.77 35.76, 4193.15 34.95, -0.25 0.75 M10000.01 1.13 C7827.97 2.74, 5656.23 3.35, -0.33 0.84 M-0.04 1.01 C0 0.63, -0.06 0.15, 0.05 -0.03 M-0.04 0.95 C-0.04 0.73, -0.03 0.59, -0.05 -0.02" stroke="transparent" stroke-width="1" fill="none"></path></g><g transform="translate(550.7999877929688 534.012451171875) rotate(0 -1.199981689453125 17.20001220703125)" stroke="none"><path fill="#000" d="M 1.55,0 Q 1.55,0 1.72,1.38 1.89,2.76 1.93,4.03 1.97,5.31 2.02,7.00 2.06,8.69 2.09,11.94 2.11,15.19 1.87,18.26 1.64,21.34 1.30,24.03 0.96,26.73 0.78,28.72 0.61,30.71 -0.16,32.38 -0.94,34.04 -1.03,34.23 -1.12,34.43 -1.26,34.58 -1.40,34.74 -1.59,34.84 -1.78,34.94 -1.99,34.98 -2.20,35.02 -2.41,34.99 -2.62,34.95 -2.80,34.86 -2.99,34.76 -3.14,34.61 -3.29,34.46 -3.38,34.26 -3.47,34.07 -3.50,33.86 -3.53,33.65 -3.48,33.44 -3.44,33.23 -3.33,33.05 -3.23,32.87 -3.07,32.73 -2.91,32.59 -2.71,32.51 -2.51,32.43 -2.30,32.41 -2.09,32.40 -1.88,32.45 -1.68,32.50 -1.50,32.62 -1.32,32.74 -1.19,32.91 -1.06,33.07 -0.99,33.27 -0.92,33.47 -0.92,33.69 -0.91,33.90 -0.98,34.10 -1.04,34.30 -1.17,34.47 -1.30,34.65 -1.47,34.77 -1.65,34.89 -1.85,34.95 -2.05,35.01 -2.27,35.00 -2.48,34.99 -2.68,34.91 -2.88,34.84 -3.04,34.70 -3.20,34.57 -3.31,34.39 -3.43,34.21 -3.48,34.00 -3.52,33.79 -3.50,33.58 -3.48,33.37 -3.48,33.37 -3.48,33.37 -3.44,31.90 -3.39,30.43 -3.29,28.32 -3.19,26.22 -2.88,23.62 -2.56,21.01 -2.33,18.10 -2.11,15.19 -2.09,11.94 -2.06,8.69 -2.02,7.00 -1.97,5.31 -1.93,4.03 -1.89,2.76 -1.72,1.38 -1.55,0 -1.53,-0.18 -1.50,-0.37 -1.44,-0.54 -1.37,-0.72 -1.26,-0.87 -1.16,-1.02 -1.02,-1.15 -0.88,-1.27 -0.71,-1.36 -0.55,-1.45 -0.36,-1.49 -0.18,-1.54 0.00,-1.54 0.18,-1.54 0.36,-1.49 0.55,-1.45 0.71,-1.36 0.88,-1.27 1.02,-1.15 1.16,-1.02 1.26,-0.87 1.37,-0.72 1.44,-0.54 1.50,-0.37 1.53,-0.18 1.55,0.00 1.55,0.00 L 1.55,0 Z"></path></g><g transform="translate(550 534.8125) rotate(0 8.800018310546875 8.79998779296875)" stroke="none"><path fill="#000" d="M -0.32,-1.93 Q -0.32,-1.93 2.46,-2.37 5.24,-2.81 8.12,-2.32 10.99,-1.82 12.95,-1.09 14.92,-0.36 16.27,0.91 17.62,2.20 18.02,4.09 18.42,5.99 17.26,8.45 16.11,10.92 13.39,13.39 10.66,15.86 8.59,17.33 6.51,18.79 4.24,19.22 1.97,19.65 1.79,19.53 1.62,19.40 1.49,19.23 1.37,19.06 1.30,18.86 1.24,18.66 1.24,18.44 1.25,18.23 1.32,18.03 1.39,17.83 1.52,17.66 1.65,17.50 1.83,17.38 2.01,17.26 2.21,17.21 2.42,17.16 2.63,17.17 2.84,17.19 3.04,17.27 3.23,17.35 3.39,17.49 3.55,17.63 3.66,17.81 3.77,18.00 3.81,18.21 3.85,18.41 3.82,18.62 3.80,18.84 3.71,19.03 3.61,19.22 3.46,19.37 3.32,19.52 3.13,19.62 2.94,19.71 2.73,19.75 2.52,19.78 2.31,19.74 2.10,19.70 1.91,19.60 1.73,19.50 1.58,19.34 1.44,19.18 1.35,18.99 1.27,18.80 1.25,18.58 1.23,18.37 1.28,18.17 1.33,17.96 1.44,17.78 1.55,17.60 1.71,17.46 1.88,17.33 2.08,17.25 2.28,17.18 2.49,17.17 2.70,17.16 2.90,17.22 3.11,17.28 3.11,17.28 3.11,17.28 3.64,16.37 4.17,15.47 6.08,14.13 7.99,12.80 10.32,10.86 12.64,8.92 13.63,7.49 14.62,6.05 14.02,4.62 13.43,3.18 11.84,2.57 10.25,1.96 8.02,1.46 5.79,0.97 3.05,1.45 0.32,1.93 0.08,1.94 -0.14,1.95 -0.38,1.90 -0.61,1.86 -0.82,1.76 -1.04,1.66 -1.22,1.51 -1.40,1.36 -1.55,1.17 -1.69,0.98 -1.78,0.77 -1.88,0.55 -1.92,0.32 -1.95,0.08 -1.94,-0.14 -1.92,-0.38 -1.84,-0.60 -1.77,-0.83 -1.65,-1.03 -1.52,-1.23 -1.35,-1.39 -1.18,-1.56 -0.98,-1.68 -0.77,-1.80 -0.54,-1.86 -0.32,-1.93 -0.32,-1.93 L -0.32,-1.93 Z"></path></g><g transform="translate(578 545.2124633789062) rotate(0 6.399993896484375 -0.79998779296875)" stroke="none"><path fill="#000" d="M -0.29,-1.94 Q -0.29,-1.94 2.69,-2.39 5.68,-2.84 8.56,-2.81 11.43,-2.78 11.64,-2.77 11.86,-2.75 12.05,-2.67 12.25,-2.59 12.41,-2.45 12.57,-2.31 12.68,-2.13 12.79,-1.95 12.83,-1.74 12.88,-1.53 12.85,-1.32 12.83,-1.11 12.73,-0.92 12.64,-0.73 12.50,-0.57 12.35,-0.42 12.16,-0.32 11.97,-0.22 11.76,-0.19 11.55,-0.16 11.34,-0.20 11.13,-0.23 10.95,-0.33 10.76,-0.43 10.61,-0.59 10.47,-0.75 10.38,-0.94 10.29,-1.13 10.27,-1.34 10.25,-1.56 10.30,-1.76 10.35,-1.97 10.46,-2.15 10.57,-2.33 10.73,-2.47 10.90,-2.60 11.09,-2.68 11.29,-2.76 11.50,-2.77 11.72,-2.78 11.92,-2.72 12.13,-2.66 12.30,-2.54 12.48,-2.42 12.60,-2.25 12.73,-2.08 12.80,-1.87 12.86,-1.67 12.86,-1.46 12.86,-1.25 12.79,-1.05 12.72,-0.85 12.59,-0.68 12.46,-0.51 12.28,-0.39 12.10,-0.28 11.90,-0.22 11.69,-0.17 11.69,-0.17 11.69,-0.17 8.98,0.41 6.27,1.00 3.28,1.47 0.29,1.94 0.06,1.95 -0.17,1.95 -0.40,1.90 -0.63,1.85 -0.85,1.75 -1.06,1.65 -1.24,1.50 -1.42,1.34 -1.56,1.15 -1.71,0.96 -1.80,0.74 -1.89,0.53 -1.92,0.29 -1.96,0.06 -1.94,-0.17 -1.92,-0.40 -1.84,-0.63 -1.76,-0.85 -1.64,-1.05 -1.51,-1.25 -1.33,-1.41 -1.16,-1.58 -0.96,-1.69 -0.75,-1.81 -0.52,-1.87 -0.29,-1.94 -0.29,-1.94 L -0.29,-1.94 Z"></path></g><g transform="translate(611.6000366210938 530.012451171875) rotate(0 -1.600006103515625 15.600006103515625)" stroke="none"><path fill="#000" d="M 1.90,0.69 Q 1.90,0.69 1.05,3.24 0.19,5.78 -0.13,8.48 -0.46,11.17 -0.61,14.17 -0.76,17.16 -0.61,20.20 -0.45,23.23 -0.79,26.48 -1.12,29.74 -1.15,29.95 -1.18,30.16 -1.27,30.35 -1.37,30.54 -1.52,30.69 -1.67,30.84 -1.86,30.94 -2.05,31.03 -2.26,31.06 -2.47,31.09 -2.68,31.05 -2.89,31.01 -3.07,30.91 -3.26,30.80 -3.40,30.64 -3.54,30.49 -3.63,30.29 -3.71,30.10 -3.73,29.89 -3.75,29.67 -3.70,29.47 -3.65,29.26 -3.53,29.08 -3.42,28.90 -3.25,28.77 -3.09,28.63 -2.89,28.56 -2.69,28.49 -2.48,28.48 -2.26,28.47 -2.06,28.54 -1.86,28.60 -1.68,28.72 -1.51,28.85 -1.39,29.02 -1.26,29.19 -1.20,29.39 -1.14,29.60 -1.14,29.81 -1.15,30.02 -1.22,30.22 -1.29,30.42 -1.43,30.59 -1.56,30.75 -1.74,30.87 -1.92,30.98 -2.12,31.03 -2.33,31.09 -2.54,31.07 -2.75,31.05 -2.95,30.97 -3.14,30.88 -3.30,30.74 -3.46,30.60 -3.56,30.42 -3.67,30.23 -3.71,30.02 -3.75,29.82 -3.75,29.82 -3.75,29.82 -4.28,26.63 -4.81,23.45 -4.97,20.19 -5.14,16.93 -4.96,13.76 -4.78,10.60 -4.32,7.46 -3.87,4.33 -2.89,1.81 -1.90,-0.69 -1.79,-0.91 -1.68,-1.12 -1.52,-1.31 -1.36,-1.49 -1.16,-1.64 -0.96,-1.78 -0.73,-1.87 -0.51,-1.96 -0.26,-1.99 -0.02,-2.02 0.21,-2.00 0.45,-1.97 0.68,-1.89 0.91,-1.80 1.12,-1.67 1.32,-1.53 1.48,-1.35 1.65,-1.17 1.76,-0.95 1.88,-0.74 1.94,-0.50 2.00,-0.27 2.01,-0.02 2.01,0.21 1.96,0.45 1.90,0.69 1.90,0.69 L 1.90,0.69 Z"></path></g><g transform="translate(539.6000366210938 525.2124633789062) rotate(0 -2.000030517578125 18.800018310546875)" stroke="none"><path fill="#000" d="M 1.15,1.15 Q 1.15,1.15 -0.19,2.94 -1.55,4.73 -2.20,7.09 -2.85,9.45 -3.42,12.75 -4.00,16.04 -3.56,19.48 -3.13,22.92 -1.74,26.07 -0.36,29.21 1.45,32.34 3.26,35.46 3.35,35.65 3.45,35.84 3.48,36.05 3.51,36.26 3.48,36.47 3.44,36.68 3.34,36.87 3.23,37.05 3.08,37.20 2.92,37.34 2.73,37.43 2.53,37.51 2.32,37.53 2.11,37.55 1.90,37.50 1.69,37.45 1.51,37.34 1.33,37.23 1.20,37.06 1.06,36.90 0.99,36.70 0.91,36.50 0.90,36.29 0.90,36.08 0.96,35.88 1.02,35.67 1.14,35.50 1.26,35.32 1.43,35.20 1.60,35.07 1.81,35.01 2.01,34.94 2.22,34.95 2.43,34.95 2.63,35.02 2.83,35.09 3.00,35.22 3.17,35.35 3.28,35.53 3.40,35.71 3.45,35.92 3.51,36.12 3.49,36.33 3.48,36.54 3.40,36.74 3.31,36.94 3.17,37.10 3.03,37.26 2.85,37.36 2.67,37.47 2.46,37.51 2.25,37.55 2.04,37.53 1.83,37.50 1.64,37.41 1.45,37.32 1.29,37.17 1.14,37.02 1.14,37.02 1.14,37.02 -1.55,34.01 -4.25,31.00 -5.98,27.25 -7.72,23.51 -8.14,19.40 -8.57,15.29 -7.90,11.64 -7.23,8.00 -6.06,4.85 -4.88,1.70 -3.02,0.27 -1.15,-1.15 -0.99,-1.27 -0.84,-1.39 -0.66,-1.47 -0.48,-1.55 -0.29,-1.59 -0.09,-1.62 0.09,-1.61 0.29,-1.60 0.48,-1.54 0.67,-1.48 0.83,-1.38 1.00,-1.28 1.14,-1.14 1.28,-1.00 1.38,-0.83 1.48,-0.66 1.54,-0.48 1.60,-0.29 1.61,-0.09 1.62,0.09 1.59,0.29 1.55,0.48 1.47,0.66 1.39,0.84 1.27,0.99 1.15,1.15 1.15,1.15 L 1.15,1.15 Z"></path></g><g transform="translate(629.2000122070312 525.2124633789062) rotate(0 4.79998779296875 17.600006103515625)" stroke="none"><path fill="#000" d="M 1.25,-0.93 Q 1.25,-0.93 2.89,0.70 4.53,2.35 5.91,4.88 7.29,7.41 8.37,10.42 9.44,13.43 10.14,17.61 10.84,21.79 10.41,24.96 9.98,28.13 8.98,30.48 7.99,32.84 6.73,34.09 5.47,35.35 5.32,35.51 5.18,35.66 4.99,35.77 4.80,35.87 4.59,35.90 4.39,35.94 4.18,35.91 3.97,35.88 3.78,35.78 3.59,35.68 3.44,35.53 3.29,35.38 3.20,35.18 3.11,34.99 3.08,34.78 3.06,34.57 3.10,34.36 3.14,34.16 3.25,33.97 3.36,33.79 3.52,33.65 3.68,33.51 3.88,33.43 4.07,33.35 4.29,33.33 4.50,33.32 4.70,33.37 4.91,33.43 5.09,33.55 5.26,33.66 5.39,33.83 5.52,34.00 5.59,34.20 5.66,34.40 5.67,34.61 5.67,34.82 5.60,35.03 5.54,35.23 5.41,35.40 5.28,35.57 5.11,35.69 4.94,35.81 4.73,35.87 4.53,35.93 4.32,35.92 4.10,35.91 3.90,35.84 3.71,35.76 3.54,35.62 3.38,35.49 3.27,35.31 3.16,35.13 3.11,34.92 3.06,34.71 3.08,34.50 3.10,34.29 3.19,34.10 3.28,33.90 3.27,33.90 3.27,33.90 3.72,32.58 4.16,31.27 4.89,29.37 5.62,27.47 6.02,24.96 6.41,22.45 5.80,18.68 5.18,14.91 4.26,12.21 3.33,9.51 2.16,7.25 0.98,5.00 -0.13,2.97 -1.25,0.93 -1.34,0.77 -1.43,0.61 -1.49,0.43 -1.54,0.24 -1.55,0.06 -1.55,-0.12 -1.52,-0.31 -1.48,-0.49 -1.40,-0.66 -1.32,-0.83 -1.20,-0.98 -1.08,-1.12 -0.93,-1.24 -0.78,-1.35 -0.60,-1.42 -0.43,-1.50 -0.24,-1.53 -0.06,-1.56 0.12,-1.54 0.31,-1.53 0.49,-1.47 0.67,-1.41 0.83,-1.31 0.99,-1.21 1.12,-1.07 1.25,-0.93 1.25,-0.93 L 1.25,-0.93 Z"></path></g><g transform="translate(654 529.2124633789062) rotate(0 0.399993896484375 11.20001220703125)" stroke="none"><path fill="#000" d="M 1.92,0 Q 1.92,0 2.10,1.61 2.28,3.22 2.30,5.05 2.32,6.88 2.32,8.81 2.32,10.74 2.32,13.17 2.31,15.60 2.18,18.63 2.04,21.66 2.03,21.87 2.01,22.08 1.93,22.28 1.85,22.48 1.72,22.64 1.58,22.80 1.39,22.91 1.21,23.01 1.00,23.06 0.80,23.10 0.58,23.08 0.37,23.05 0.18,22.96 -0.00,22.87 -0.15,22.73 -0.31,22.58 -0.41,22.39 -0.50,22.20 -0.54,21.99 -0.57,21.78 -0.53,21.57 -0.50,21.36 -0.40,21.18 -0.30,20.99 -0.14,20.84 0.00,20.70 0.20,20.61 0.39,20.52 0.60,20.50 0.81,20.48 1.02,20.53 1.23,20.57 1.41,20.68 1.59,20.80 1.73,20.96 1.86,21.12 1.94,21.32 2.02,21.52 2.03,21.73 2.04,21.94 1.98,22.15 1.92,22.35 1.80,22.53 1.68,22.70 1.51,22.83 1.34,22.96 1.14,23.02 0.94,23.09 0.72,23.09 0.51,23.08 0.31,23.02 0.11,22.95 -0.05,22.82 -0.22,22.69 -0.33,22.51 -0.45,22.33 -0.51,22.13 -0.56,21.92 -0.56,21.92 -0.56,21.92 -1.44,18.76 -2.31,15.61 -2.32,13.17 -2.32,10.74 -2.32,8.81 -2.32,6.88 -2.30,5.05 -2.28,3.22 -2.10,1.61 -1.92,0 -1.89,-0.22 -1.86,-0.45 -1.78,-0.67 -1.70,-0.89 -1.56,-1.08 -1.43,-1.27 -1.26,-1.42 -1.09,-1.58 -0.88,-1.68 -0.68,-1.79 -0.45,-1.85 -0.23,-1.90 0.00,-1.90 0.23,-1.90 0.45,-1.85 0.68,-1.79 0.88,-1.68 1.09,-1.58 1.26,-1.42 1.43,-1.27 1.56,-1.08 1.70,-0.89 1.78,-0.67 1.86,-0.45 1.89,-0.22 1.92,0.00 1.92,0.00 L 1.92,0 Z"></path></g><g transform="translate(656.4000244140625 562.012451171875) rotate(0 0 -0.79998779296875)" stroke="none"><path fill="#000" d="M 2.15,-0.67 Q 2.15,-0.67 2.19,-0.13 2.22,0.40 2.00,0.90 1.77,1.39 1.35,1.72 0.92,2.06 0.39,2.15 -0.13,2.25 -0.65,2.09 -1.16,1.93 -1.55,1.55 -1.93,1.16 -2.09,0.65 -2.25,0.13 -2.15,-0.39 -2.06,-0.92 -1.72,-1.35 -1.39,-1.77 -0.90,-2.00 -0.40,-2.22 0.13,-2.19 0.67,-2.15 1.13,-1.87 1.59,-1.59 1.87,-1.13 L 2.15,-0.67 Z"></path></g><g transform="translate(686 548.4124755859375) rotate(0 16.399993896484375 -0.79998779296875)" stroke="none"><path fill="#000" d="M 0,-1.74 Q 0,-1.74 2.76,-1.92 5.52,-2.09 8.07,-2.11 10.62,-2.12 13.09,-2.12 15.55,-2.13 18.90,-2.10 22.25,-2.08 24.97,-2.20 27.70,-2.32 29.65,-2.49 31.61,-2.67 31.82,-2.68 32.03,-2.70 32.24,-2.64 32.44,-2.59 32.62,-2.47 32.80,-2.35 32.93,-2.18 33.06,-2.02 33.13,-1.82 33.20,-1.61 33.20,-1.40 33.20,-1.19 33.13,-0.99 33.07,-0.79 32.94,-0.62 32.81,-0.44 32.64,-0.32 32.47,-0.20 32.26,-0.14 32.06,-0.08 31.84,-0.09 31.63,-0.10 31.43,-0.18 31.24,-0.26 31.07,-0.39 30.91,-0.53 30.80,-0.71 30.69,-0.89 30.64,-1.10 30.59,-1.31 30.61,-1.52 30.63,-1.73 30.72,-1.92 30.81,-2.12 30.95,-2.27 31.10,-2.43 31.28,-2.53 31.47,-2.63 31.68,-2.67 31.89,-2.70 32.10,-2.67 32.31,-2.64 32.50,-2.54 32.69,-2.44 32.83,-2.29 32.98,-2.14 33.07,-1.94 33.16,-1.75 33.19,-1.54 33.21,-1.33 33.17,-1.12 33.13,-0.91 33.02,-0.73 32.91,-0.55 32.75,-0.41 32.59,-0.27 32.39,-0.19 32.20,-0.11 32.20,-0.11 32.20,-0.11 30.10,0.64 28.01,1.40 25.13,1.74 22.25,2.08 18.90,2.10 15.55,2.13 13.09,2.12 10.62,2.12 8.07,2.11 5.52,2.09 2.76,1.92 0,1.74 -0.20,1.72 -0.41,1.69 -0.61,1.62 -0.81,1.54 -0.98,1.42 -1.15,1.30 -1.29,1.15 -1.43,0.99 -1.53,0.80 -1.63,0.61 -1.68,0.41 -1.73,0.21 -1.73,-0.00 -1.73,-0.21 -1.68,-0.41 -1.63,-0.61 -1.53,-0.80 -1.43,-0.99 -1.29,-1.15 -1.15,-1.30 -0.98,-1.42 -0.81,-1.54 -0.61,-1.62 -0.41,-1.69 -0.20,-1.72 0.00,-1.74 0.00,-1.74 L 0,-1.74 Z"></path></g><g transform="translate(702 538.012451171875) rotate(0 1.600006103515625 10)" stroke="none"><path fill="#000" d="M 2.08,-0.41 Q 2.08,-0.41 2.61,1.86 3.14,4.15 3.52,7.75 3.89,11.35 4.06,14.81 4.23,18.26 4.23,18.47 4.23,18.68 4.17,18.89 4.10,19.09 3.97,19.26 3.85,19.43 3.67,19.55 3.50,19.67 3.29,19.73 3.09,19.79 2.87,19.77 2.66,19.76 2.46,19.69 2.27,19.61 2.10,19.47 1.94,19.34 1.83,19.16 1.72,18.97 1.67,18.77 1.63,18.56 1.65,18.35 1.67,18.14 1.76,17.94 1.85,17.75 1.99,17.60 2.14,17.44 2.32,17.34 2.51,17.24 2.72,17.20 2.93,17.17 3.14,17.20 3.35,17.23 3.54,17.33 3.73,17.43 3.87,17.58 4.02,17.74 4.11,17.93 4.20,18.12 4.22,18.33 4.25,18.54 4.20,18.75 4.16,18.96 4.05,19.14 3.94,19.32 3.78,19.46 3.62,19.60 3.42,19.68 3.23,19.76 3.01,19.77 2.80,19.79 2.60,19.73 2.39,19.68 2.22,19.56 2.04,19.44 1.91,19.27 1.78,19.10 1.71,18.90 1.64,18.70 1.64,18.70 1.64,18.70 0.64,15.28 -0.35,11.87 -0.83,8.45 -1.30,5.04 -1.69,2.73 -2.08,0.41 -2.10,0.16 -2.12,-0.09 -2.08,-0.34 -2.04,-0.59 -1.93,-0.83 -1.83,-1.07 -1.68,-1.27 -1.52,-1.47 -1.32,-1.64 -1.12,-1.80 -0.89,-1.91 -0.66,-2.01 -0.41,-2.07 -0.16,-2.12 0.09,-2.10 0.34,-2.09 0.59,-2.02 0.84,-1.95 1.06,-1.82 1.28,-1.69 1.46,-1.51 1.65,-1.33 1.78,-1.12 1.92,-0.90 2.00,-0.66 2.08,-0.41 2.08,-0.41 L 2.08,-0.41 Z"></path></g><g transform="translate(732.4000244140625 532.4124755859375) rotate(0 0.399993896484375 17.20001220703125)" stroke="none"><path fill="#000" d="M 2.10,-0.19 Q 2.10,-0.19 2.51,2.32 2.92,4.83 3.04,8.51 3.16,12.20 3.20,15.59 3.24,18.98 3.27,22.03 3.29,25.08 3.19,27.53 3.09,29.98 2.60,31.79 2.11,33.59 2.07,33.80 2.04,34.01 1.94,34.20 1.84,34.39 1.69,34.54 1.53,34.68 1.34,34.77 1.15,34.86 0.94,34.89 0.73,34.91 0.52,34.86 0.31,34.82 0.13,34.71 -0.04,34.60 -0.18,34.44 -0.32,34.28 -0.40,34.08 -0.48,33.88 -0.49,33.67 -0.50,33.46 -0.45,33.25 -0.39,33.05 -0.27,32.87 -0.15,32.70 0.01,32.57 0.18,32.44 0.38,32.37 0.58,32.30 0.79,32.30 1.00,32.30 1.20,32.37 1.41,32.44 1.57,32.56 1.74,32.69 1.86,32.87 1.98,33.04 2.04,33.25 2.10,33.45 2.09,33.67 2.08,33.88 2.00,34.08 1.92,34.27 1.78,34.43 1.65,34.60 1.46,34.71 1.28,34.82 1.07,34.86 0.87,34.91 0.66,34.89 0.44,34.86 0.25,34.78 0.06,34.69 -0.09,34.54 -0.24,34.40 -0.34,34.21 -0.44,34.02 -0.48,33.81 -0.51,33.60 -0.51,33.60 -0.51,33.60 -1.01,31.80 -1.51,29.99 -1.63,27.55 -1.74,25.11 -1.75,22.08 -1.77,19.04 -1.81,15.69 -1.85,12.33 -1.93,8.81 -2.00,5.28 -2.05,2.73 -2.10,0.19 -2.09,-0.06 -2.09,-0.31 -2.02,-0.56 -1.95,-0.80 -1.82,-1.03 -1.70,-1.25 -1.52,-1.44 -1.35,-1.62 -1.14,-1.76 -0.92,-1.90 -0.68,-1.98 -0.44,-2.06 -0.19,-2.09 0.06,-2.11 0.31,-2.07 0.56,-2.03 0.80,-1.94 1.03,-1.84 1.24,-1.69 1.45,-1.54 1.61,-1.34 1.77,-1.14 1.88,-0.91 2.00,-0.69 2.05,-0.44 2.10,-0.19 2.10,-0.19 L 2.10,-0.19 Z"></path></g><g transform="translate(767.6000366210938 542.012451171875) rotate(0 2.39996337890625 -1.999969482421875)" stroke="none"><path fill="#000" d="M 0.56,-1.41 Q 0.56,-1.41 1.80,-1.26 3.03,-1.12 2.49,-2.16 1.96,-3.20 1.30,-2.63 0.64,-2.06 0.68,-1.85 0.72,-1.64 0.69,-1.43 0.66,-1.22 0.57,-1.03 0.47,-0.84 0.32,-0.69 0.17,-0.54 -0.01,-0.45 -0.20,-0.35 -0.41,-0.32 -0.62,-0.30 -0.83,-0.34 -1.04,-0.38 -1.22,-0.48 -1.41,-0.59 -1.55,-0.75 -1.69,-0.91 -1.77,-1.10 -1.86,-1.30 -1.87,-1.51 -1.89,-1.72 -1.84,-1.93 -1.79,-2.13 -1.67,-2.31 -1.56,-2.49 -1.39,-2.62 -1.22,-2.76 -1.02,-2.83 -0.82,-2.90 -0.61,-2.91 -0.40,-2.91 -0.20,-2.85 0.00,-2.78 0.17,-2.66 0.34,-2.53 0.46,-2.36 0.59,-2.19 0.65,-1.99 0.71,-1.78 0.70,-1.57 0.70,-1.36 0.62,-1.16 0.55,-0.96 0.42,-0.79 0.28,-0.63 0.10,-0.51 -0.07,-0.40 -0.27,-0.35 -0.48,-0.30 -0.69,-0.32 -0.90,-0.34 -1.10,-0.42 -1.29,-0.51 -1.45,-0.65 -1.61,-0.79 -1.71,-0.98 -1.82,-1.16 -1.82,-1.16 -1.82,-1.16 -2.23,-3.53 -2.65,-5.89 -1.81,-6.55 -0.96,-7.21 0.46,-7.24 1.89,-7.27 3.02,-6.88 4.14,-6.50 5.40,-5.38 6.66,-4.27 6.79,-2.52 6.91,-0.76 6.01,0.20 5.12,1.18 3.58,1.39 2.05,1.60 0.67,0.92 -0.70,0.23 -1.33,-2.15 -1.97,-4.54 -1.45,-5.56 -0.93,-6.57 0.10,-7.06 1.14,-7.54 2.25,-7.40 3.35,-7.26 4.42,-6.78 5.49,-6.30 6.36,-5.36 7.23,-4.42 7.62,-3.00 8.01,-1.58 7.45,-0.09 6.89,1.40 5.69,2.16 4.49,2.93 3.02,2.94 1.56,2.96 0.49,2.18 -0.56,1.41 -0.72,1.32 -0.89,1.24 -1.02,1.11 -1.16,0.99 -1.26,0.83 -1.36,0.68 -1.42,0.51 -1.48,0.33 -1.50,0.15 -1.52,-0.02 -1.50,-0.20 -1.47,-0.39 -1.40,-0.56 -1.33,-0.73 -1.23,-0.88 -1.12,-1.03 -0.98,-1.15 -0.84,-1.27 -0.68,-1.35 -0.51,-1.43 -0.33,-1.47 -0.15,-1.51 0.02,-1.51 0.21,-1.51 0.38,-1.46 0.56,-1.41 0.56,-1.41 L 0.56,-1.41 Z"></path></g><g transform="translate(791.6000366210938 531.6124877929688) rotate(0 -4.4000244140625 18)" stroke="none"><path fill="#000" d="M 1.80,0.75 Q 1.80,0.75 0.83,3.58 -0.12,6.42 -1.27,9.82 -2.42,13.22 -3.11,16.62 -3.80,20.03 -4.59,24.26 -5.37,28.50 -5.70,30.52 -6.03,32.54 -7.31,32.15 -8.58,31.76 -8.44,31.60 -8.31,31.43 -8.13,31.32 -7.95,31.21 -7.74,31.16 -7.53,31.11 -7.32,31.13 -7.11,31.15 -6.92,31.24 -6.72,31.33 -6.57,31.47 -6.41,31.62 -6.31,31.80 -6.21,31.99 -6.17,32.20 -6.13,32.41 -6.17,32.62 -6.20,32.83 -6.30,33.02 -6.39,33.21 -6.55,33.36 -6.70,33.50 -6.89,33.59 -7.08,33.69 -7.29,33.71 -7.50,33.74 -7.71,33.69 -7.92,33.65 -8.10,33.54 -8.29,33.43 -8.43,33.27 -8.56,33.11 -8.65,32.92 -8.73,32.72 -8.74,32.51 -8.75,32.30 -8.70,32.09 -8.64,31.89 -8.53,31.71 -8.41,31.53 -8.24,31.40 -8.07,31.27 -7.87,31.20 -7.67,31.13 -7.46,31.13 -7.25,31.13 -7.05,31.19 -6.84,31.26 -6.67,31.38 -6.50,31.51 -6.38,31.69 -6.26,31.86 -6.20,32.06 -6.14,32.27 -6.15,32.48 -6.16,32.69 -6.24,32.89 -6.31,33.09 -6.31,33.09 -6.31,33.09 -8.45,32.45 -10.59,31.81 -10.26,29.74 -9.94,27.67 -9.18,23.38 -8.43,19.08 -7.66,15.39 -6.89,11.70 -5.68,8.16 -4.47,4.61 -3.13,1.93 -1.80,-0.75 -1.68,-0.95 -1.57,-1.16 -1.41,-1.33 -1.24,-1.50 -1.05,-1.63 -0.85,-1.75 -0.62,-1.83 -0.40,-1.91 -0.17,-1.93 0.06,-1.95 0.29,-1.91 0.52,-1.88 0.74,-1.79 0.96,-1.70 1.15,-1.56 1.34,-1.42 1.49,-1.23 1.64,-1.05 1.74,-0.84 1.84,-0.63 1.89,-0.40 1.94,-0.17 1.93,0.06 1.93,0.29 1.86,0.52 1.80,0.75 1.80,0.75 L 1.80,0.75 Z"></path></g><g transform="translate(798 555.6124877929688) rotate(0 -1.600006103515625 2.399993896484375)" stroke="none"><path fill="#000" d="M 1.55,1.16 Q 1.55,1.16 0.92,2.11 0.29,3.06 -0.59,3.70 -1.48,4.34 -1.82,2.30 -2.17,0.25 -1.99,0.13 -1.82,0.01 -1.61,-0.04 -1.41,-0.09 -1.20,-0.08 -0.98,-0.07 -0.79,0.00 -0.59,0.08 -0.43,0.21 -0.27,0.35 -0.16,0.53 -0.05,0.71 -0.00,0.92 0.04,1.13 0.01,1.34 -0.00,1.55 -0.09,1.74 -0.18,1.94 -0.32,2.09 -0.47,2.25 -0.66,2.35 -0.84,2.45 -1.05,2.48 -1.26,2.52 -1.47,2.48 -1.68,2.45 -1.87,2.35 -2.06,2.25 -2.20,2.10 -2.35,1.94 -2.44,1.75 -2.53,1.56 -2.55,1.35 -2.58,1.13 -2.53,0.93 -2.49,0.72 -2.38,0.54 -2.27,0.35 -2.11,0.22 -1.94,0.08 -1.75,0.00 -1.55,-0.07 -1.34,-0.08 -1.12,-0.09 -0.92,-0.04 -0.72,0.01 -0.54,0.13 -0.36,0.25 -0.23,0.42 -0.11,0.59 -0.04,0.79 0.02,0.99 0.02,1.20 0.02,1.41 -0.04,1.61 -0.10,1.82 -0.23,1.99 -0.36,2.15 -0.36,2.15 -0.36,2.15 -1.70,1.38 -3.05,0.61 -2.30,-0.27 -1.55,-1.16 -1.39,-1.33 -1.23,-1.50 -1.03,-1.63 -0.83,-1.75 -0.61,-1.83 -0.39,-1.90 -0.15,-1.92 0.07,-1.94 0.30,-1.90 0.53,-1.86 0.75,-1.77 0.97,-1.68 1.15,-1.54 1.34,-1.40 1.49,-1.22 1.64,-1.04 1.74,-0.82 1.84,-0.61 1.89,-0.38 1.93,-0.15 1.92,0.07 1.91,0.31 1.85,0.53 1.78,0.76 1.67,0.96 1.55,1.16 1.55,1.16 L 1.55,1.16 Z"></path></g><g transform="translate(836.4000244140625 540.4124755859375) rotate(0 1.600006103515625 20)" stroke="none"><path fill="#000" d="M 1.79,-0.19 Q 1.79,-0.19 2.25,1.84 2.71,3.88 3.07,6.59 3.43,9.29 3.81,12.77 4.19,16.24 4.57,20.72 4.96,25.20 5.10,28.75 5.23,32.31 4.85,35.45 4.46,38.58 4.44,38.79 4.41,39.00 4.32,39.20 4.22,39.39 4.07,39.54 3.92,39.69 3.73,39.78 3.54,39.88 3.33,39.91 3.12,39.94 2.91,39.90 2.70,39.86 2.52,39.76 2.33,39.65 2.19,39.50 2.05,39.34 1.96,39.14 1.88,38.95 1.86,38.74 1.84,38.53 1.89,38.32 1.94,38.11 2.06,37.93 2.17,37.75 2.33,37.62 2.50,37.49 2.70,37.41 2.90,37.34 3.11,37.33 3.32,37.32 3.53,37.38 3.73,37.45 3.90,37.57 4.08,37.69 4.20,37.86 4.32,38.04 4.39,38.24 4.45,38.44 4.45,38.65 4.44,38.87 4.37,39.07 4.30,39.27 4.17,39.43 4.03,39.60 3.85,39.71 3.68,39.83 3.47,39.88 3.26,39.93 3.05,39.92 2.84,39.90 2.64,39.82 2.45,39.74 2.29,39.59 2.13,39.45 2.03,39.27 1.92,39.08 1.88,38.88 1.84,38.67 1.84,38.67 1.84,38.67 1.25,35.59 0.67,32.52 0.48,29.06 0.29,25.61 -0.09,21.17 -0.48,16.74 -0.84,13.30 -1.20,9.85 -1.49,7.12 -1.79,4.39 -1.79,2.29 -1.79,0.19 -1.79,-0.01 -1.79,-0.23 -1.73,-0.44 -1.68,-0.65 -1.58,-0.85 -1.47,-1.04 -1.33,-1.20 -1.18,-1.36 -1.00,-1.48 -0.82,-1.60 -0.61,-1.68 -0.41,-1.75 -0.19,-1.78 0.01,-1.80 0.23,-1.77 0.45,-1.75 0.65,-1.67 0.85,-1.59 1.03,-1.46 1.21,-1.34 1.35,-1.17 1.49,-1.01 1.59,-0.81 1.69,-0.62 1.74,-0.41 1.79,-0.19 1.79,-0.19 L 1.79,-0.19 Z"></path></g><g transform="translate(839.6000366210938 536.4124755859375) rotate(0 10.79998779296875 10)" stroke="none"><path fill="#000" d="M -0.15,-1.98 Q -0.15,-1.98 2.85,-2.19 5.86,-2.40 9.52,-1.55 13.18,-0.69 15.89,1.19 18.60,3.08 20.10,5.75 21.61,8.42 21.99,10.96 22.37,13.50 21.39,15.94 20.40,18.37 17.83,19.77 15.25,21.16 12.95,21.17 10.65,21.17 10.44,21.17 10.23,21.16 10.03,21.09 9.83,21.02 9.66,20.89 9.49,20.75 9.38,20.58 9.26,20.40 9.21,20.19 9.16,19.99 9.17,19.77 9.19,19.56 9.27,19.37 9.35,19.17 9.50,19.01 9.64,18.85 9.82,18.75 10.00,18.64 10.21,18.60 10.42,18.56 10.63,18.58 10.84,18.61 11.03,18.71 11.22,18.80 11.38,18.95 11.53,19.10 11.62,19.29 11.72,19.48 11.75,19.69 11.78,19.90 11.74,20.11 11.70,20.31 11.60,20.50 11.49,20.69 11.34,20.83 11.18,20.97 10.99,21.06 10.79,21.14 10.58,21.16 10.37,21.18 10.16,21.13 9.95,21.08 9.78,20.97 9.60,20.85 9.46,20.69 9.33,20.52 9.25,20.33 9.18,20.13 9.17,19.91 9.16,19.70 9.22,19.50 9.29,19.29 9.41,19.12 9.53,18.95 9.70,18.82 9.87,18.70 10.08,18.63 10.28,18.57 10.28,18.57 10.28,18.57 11.93,18.01 13.58,17.44 15.36,16.82 17.14,16.20 17.75,14.97 18.36,13.74 18.16,11.99 17.96,10.23 17.02,8.21 16.08,6.19 14.10,4.63 12.13,3.06 9.11,2.27 6.09,1.48 3.12,1.73 0.15,1.98 -0.08,1.97 -0.32,1.96 -0.55,1.89 -0.78,1.83 -0.99,1.70 -1.20,1.58 -1.37,1.42 -1.54,1.25 -1.67,1.05 -1.80,0.84 -1.87,0.61 -1.95,0.39 -1.97,0.15 -1.99,-0.08 -1.95,-0.32 -1.91,-0.56 -1.81,-0.78 -1.72,-1.00 -1.57,-1.19 -1.43,-1.38 -1.24,-1.53 -1.05,-1.68 -0.84,-1.79 -0.62,-1.89 -0.38,-1.94 -0.15,-1.98 -0.15,-1.98 L -0.15,-1.98 Z"></path></g><g transform="translate(876.4000244140625 546.012451171875) rotate(0 7.600006103515625 0.4000244140625)" stroke="none"><path fill="#000" d="M 0.17,-2.24 Q 0.17,-2.24 3.15,-1.94 6.13,-1.64 9.80,-1.43 13.46,-1.22 13.68,-1.20 13.89,-1.18 14.08,-1.09 14.27,-1.00 14.42,-0.85 14.58,-0.70 14.68,-0.51 14.78,-0.33 14.81,-0.12 14.84,0.08 14.81,0.29 14.77,0.50 14.67,0.69 14.57,0.88 14.42,1.02 14.26,1.17 14.07,1.26 13.88,1.35 13.66,1.37 13.45,1.39 13.25,1.34 13.04,1.30 12.86,1.19 12.67,1.08 12.54,0.91 12.40,0.75 12.32,0.55 12.25,0.35 12.24,0.14 12.22,-0.06 12.28,-0.26 12.34,-0.47 12.46,-0.64 12.58,-0.82 12.75,-0.95 12.92,-1.07 13.12,-1.14 13.32,-1.21 13.54,-1.21 13.75,-1.21 13.95,-1.14 14.15,-1.07 14.32,-0.94 14.49,-0.81 14.61,-0.63 14.72,-0.46 14.78,-0.25 14.84,-0.05 14.82,0.15 14.81,0.37 14.73,0.56 14.65,0.76 14.51,0.92 14.38,1.08 14.19,1.19 14.01,1.30 13.80,1.35 13.59,1.39 13.59,1.39 13.60,1.39 9.71,1.98 5.82,2.56 2.82,2.40 -0.17,2.24 -0.43,2.19 -0.70,2.13 -0.95,2.02 -1.19,1.90 -1.40,1.73 -1.61,1.56 -1.78,1.34 -1.94,1.13 -2.05,0.88 -2.15,0.63 -2.20,0.36 -2.24,0.09 -2.22,-0.17 -2.20,-0.44 -2.12,-0.69 -2.03,-0.95 -1.89,-1.18 -1.74,-1.41 -1.55,-1.60 -1.35,-1.79 -1.12,-1.93 -0.88,-2.06 -0.62,-2.14 -0.36,-2.22 -0.09,-2.23 0.17,-2.24 0.17,-2.24 L 0.17,-2.24 Z"></path></g><g transform="translate(878.7999877929688 557.2124633789062) rotate(0 9.600006103515625 -1.600006103515625)" stroke="none"><path fill="#000" d="M 0,-2.20 Q 0,-2.20 2.52,-2.22 5.05,-2.24 8.23,-2.75 11.42,-3.25 14.48,-3.70 17.55,-4.14 17.76,-4.16 17.97,-4.18 18.18,-4.12 18.38,-4.07 18.56,-3.96 18.74,-3.84 18.87,-3.68 19.01,-3.51 19.08,-3.31 19.15,-3.11 19.16,-2.90 19.16,-2.69 19.10,-2.48 19.04,-2.28 18.91,-2.11 18.79,-1.94 18.61,-1.81 18.44,-1.69 18.24,-1.63 18.03,-1.56 17.82,-1.57 17.61,-1.58 17.41,-1.65 17.21,-1.72 17.05,-1.86 16.88,-1.99 16.77,-2.17 16.65,-2.35 16.60,-2.56 16.55,-2.76 16.57,-2.97 16.59,-3.19 16.67,-3.38 16.76,-3.58 16.90,-3.73 17.04,-3.89 17.23,-4.00 17.41,-4.10 17.62,-4.14 17.83,-4.18 18.04,-4.15 18.25,-4.12 18.44,-4.03 18.63,-3.93 18.78,-3.78 18.93,-3.63 19.02,-3.44 19.12,-3.25 19.14,-3.04 19.17,-2.83 19.13,-2.62 19.09,-2.41 18.99,-2.23 18.88,-2.04 18.72,-1.90 18.56,-1.76 18.37,-1.67 18.17,-1.59 18.17,-1.59 18.17,-1.59 15.18,-0.54 12.19,0.49 8.63,1.37 5.06,2.24 2.53,2.22 0,2.20 -0.26,2.16 -0.52,2.13 -0.77,2.04 -1.02,1.94 -1.24,1.79 -1.45,1.64 -1.63,1.44 -1.81,1.25 -1.93,1.01 -2.05,0.78 -2.12,0.52 -2.18,0.26 -2.18,-0.00 -2.18,-0.26 -2.12,-0.52 -2.05,-0.78 -1.93,-1.01 -1.81,-1.25 -1.63,-1.44 -1.45,-1.64 -1.24,-1.79 -1.02,-1.94 -0.77,-2.04 -0.52,-2.13 -0.26,-2.16 0.00,-2.20 0.00,-2.20 L 0,-2.20 Z"></path></g><g transform="translate(913.2000122070312 539.6124877929688) rotate(0 3.600006103515625 0)" stroke="none"><path fill="#000" d="M 0,-2.23 Q 0,-2.23 1.60,-2.05 3.21,-1.87 4.36,-1.64 5.50,-1.41 5.67,-1.39 5.84,-1.37 6.00,-1.31 6.16,-1.25 6.30,-1.15 6.44,-1.05 6.55,-0.93 6.67,-0.80 6.75,-0.65 6.83,-0.50 6.87,-0.33 6.91,-0.17 6.91,0.00 6.91,0.17 6.87,0.33 6.82,0.50 6.75,0.65 6.67,0.80 6.55,0.93 6.44,1.05 6.30,1.15 6.16,1.25 6.00,1.31 5.84,1.37 5.67,1.39 5.50,1.41 3.92,1.36 2.34,1.31 2.13,1.27 1.92,1.24 1.73,1.14 1.54,1.04 1.40,0.89 1.25,0.73 1.16,0.54 1.07,0.35 1.05,0.14 1.02,-0.07 1.07,-0.27 1.12,-0.48 1.23,-0.66 1.34,-0.85 1.50,-0.98 1.66,-1.12 1.86,-1.20 2.05,-1.28 2.27,-1.29 2.48,-1.30 2.68,-1.24 2.89,-1.19 3.06,-1.07 3.24,-0.95 3.37,-0.78 3.50,-0.61 3.56,-0.41 3.63,-0.21 3.63,0.00 3.63,0.21 3.56,0.41 3.50,0.61 3.37,0.78 3.24,0.95 3.06,1.07 2.89,1.19 2.68,1.24 2.48,1.30 2.27,1.29 2.05,1.28 1.86,1.20 1.66,1.12 1.50,0.98 1.33,0.84 1.23,0.66 1.12,0.48 1.07,0.27 1.02,0.07 1.05,-0.14 1.07,-0.35 1.16,-0.54 1.25,-0.73 1.40,-0.89 1.54,-1.04 1.73,-1.14 1.92,-1.24 2.13,-1.27 2.34,-1.31 2.34,-1.31 2.34,-1.31 3.92,-1.36 5.50,-1.41 5.67,-1.39 5.84,-1.37 6.00,-1.31 6.16,-1.25 6.30,-1.15 6.44,-1.05 6.55,-0.93 6.67,-0.80 6.75,-0.65 6.82,-0.50 6.87,-0.33 6.91,-0.17 6.91,-0.00 6.91,0.17 6.87,0.33 6.83,0.50 6.75,0.65 6.67,0.80 6.55,0.93 6.44,1.05 6.30,1.15 6.16,1.25 6.00,1.31 5.84,1.37 5.67,1.39 5.50,1.41 4.36,1.64 3.21,1.87 1.60,2.05 0,2.23 -0.26,2.19 -0.53,2.16 -0.78,2.07 -1.03,1.97 -1.25,1.82 -1.47,1.66 -1.65,1.46 -1.83,1.26 -1.96,1.02 -2.08,0.79 -2.15,0.52 -2.21,0.26 -2.21,-0.00 -2.21,-0.26 -2.14,-0.53 -2.08,-0.79 -1.96,-1.02 -1.83,-1.26 -1.65,-1.46 -1.47,-1.66 -1.25,-1.82 -1.03,-1.97 -0.78,-2.07 -0.53,-2.16 -0.26,-2.19 0.00,-2.23 0.00,-2.23 L 0,-2.23 Z"></path></g><g transform="translate(910.7999877929688 556.4124755859375) rotate(0 8 -1.600006103515625)" stroke="none"><path fill="#000" d="M -0.38,-2.17 Q -0.38,-2.17 3.53,-2.80 7.45,-3.43 10.84,-3.79 14.23,-4.15 14.44,-4.16 14.66,-4.17 14.86,-4.12 15.07,-4.06 15.24,-3.94 15.42,-3.82 15.55,-3.65 15.68,-3.48 15.74,-3.28 15.81,-3.08 15.81,-2.87 15.81,-2.66 15.75,-2.46 15.68,-2.25 15.55,-2.08 15.42,-1.91 15.25,-1.80 15.07,-1.68 14.87,-1.62 14.66,-1.56 14.45,-1.57 14.24,-1.58 14.04,-1.66 13.84,-1.74 13.68,-1.88 13.52,-2.01 13.41,-2.20 13.30,-2.38 13.25,-2.58 13.21,-2.79 13.23,-3.00 13.25,-3.21 13.34,-3.41 13.43,-3.60 13.57,-3.76 13.72,-3.91 13.91,-4.01 14.10,-4.11 14.31,-4.14 14.51,-4.18 14.72,-4.15 14.93,-4.11 15.12,-4.01 15.31,-3.91 15.46,-3.76 15.60,-3.61 15.69,-3.41 15.78,-3.22 15.81,-3.01 15.83,-2.80 15.78,-2.59 15.74,-2.38 15.63,-2.20 15.52,-2.02 15.36,-1.88 15.20,-1.74 15.00,-1.66 14.80,-1.58 14.80,-1.58 14.80,-1.58 11.49,-0.45 8.18,0.67 4.28,1.42 0.38,2.17 0.11,2.19 -0.14,2.20 -0.40,2.15 -0.67,2.10 -0.91,1.99 -1.15,1.88 -1.36,1.71 -1.57,1.55 -1.73,1.34 -1.89,1.13 -2.00,0.88 -2.11,0.64 -2.16,0.38 -2.20,0.11 -2.18,-0.14 -2.17,-0.41 -2.09,-0.66 -2.00,-0.92 -1.87,-1.14 -1.73,-1.37 -1.54,-1.56 -1.35,-1.74 -1.12,-1.88 -0.89,-2.02 -0.63,-2.09 -0.38,-2.17 -0.38,-2.17 L -0.38,-2.17 Z"></path></g><g transform="translate(949.2000122070312 537.2124633789062) rotate(0 2.800018310546875 12.4000244140625)" stroke="none"><path fill="#000" d="M 1.35,1.65 Q 1.35,1.65 -1.05,3.75 -3.46,5.86 -4.19,8.16 -4.92,10.46 -5.30,12.93 -5.68,15.39 -5.01,17.17 -4.34,18.94 -3.22,20.14 -2.11,21.34 0.18,21.77 2.48,22.20 4.76,21.46 7.04,20.73 8.76,19.08 10.47,17.44 11.13,14.96 11.80,12.48 9.98,9.49 8.15,6.50 5.86,5.19 3.58,3.88 1.44,3.98 -0.68,4.09 -2.55,4.99 -4.42,5.89 -6.30,6.49 -8.17,7.09 -8.37,7.16 -8.57,7.24 -8.78,7.25 -8.99,7.25 -9.20,7.19 -9.40,7.13 -9.57,7.01 -9.75,6.89 -9.88,6.72 -10.00,6.55 -10.07,6.35 -10.13,6.15 -10.13,5.93 -10.13,5.72 -10.05,5.52 -9.98,5.32 -9.85,5.15 -9.72,4.98 -9.54,4.87 -9.37,4.75 -9.16,4.70 -8.96,4.64 -8.74,4.66 -8.53,4.67 -8.34,4.75 -8.14,4.84 -7.98,4.97 -7.82,5.11 -7.71,5.30 -7.61,5.48 -7.56,5.69 -7.52,5.90 -7.55,6.11 -7.57,6.32 -7.66,6.51 -7.76,6.70 -7.90,6.86 -8.05,7.01 -8.24,7.10 -8.43,7.20 -8.64,7.23 -8.85,7.26 -9.06,7.23 -9.27,7.19 -9.46,7.09 -9.64,6.98 -9.79,6.83 -9.93,6.67 -10.02,6.48 -10.10,6.28 -10.12,6.07 -10.14,5.86 -10.09,5.65 -10.05,5.45 -9.93,5.27 -9.82,5.09 -9.66,4.95 -9.49,4.82 -9.49,4.82 -9.49,4.82 -7.91,3.40 -6.33,1.98 -3.57,0.64 -0.81,-0.70 2.52,-0.47 5.86,-0.24 8.88,1.99 11.90,4.23 13.91,8.51 15.91,12.78 14.77,16.58 13.62,20.37 11.07,22.67 8.52,24.97 5.10,25.92 1.68,26.88 -1.85,25.88 -5.39,24.89 -7.19,22.73 -9.00,20.57 -9.78,17.70 -10.56,14.82 -10.02,11.75 -9.49,8.68 -8.07,5.55 -6.65,2.41 -4.00,0.38 -1.35,-1.65 -1.13,-1.79 -0.92,-1.93 -0.67,-2.01 -0.43,-2.09 -0.17,-2.12 0.08,-2.14 0.33,-2.10 0.59,-2.05 0.83,-1.95 1.06,-1.85 1.27,-1.70 1.48,-1.54 1.64,-1.34 1.81,-1.14 1.92,-0.91 2.03,-0.68 2.08,-0.42 2.13,-0.17 2.12,0.08 2.11,0.34 2.04,0.59 1.97,0.83 1.84,1.06 1.71,1.28 1.53,1.47 1.35,1.65 1.35,1.65 L 1.35,1.65 Z"></path></g><g transform="translate(579.6000366210938 615.6124877929688) rotate(0 5.5999755859375 3.600006103515625)" stroke="none"><path fill="#000" d="M 1.75,0 Q 1.75,0 1.75,2.53 1.75,5.06 1.52,7.37 1.29,9.69 0.98,11.62 0.66,13.55 0.56,15.22 0.47,16.89 0.22,17.36 -0.02,17.82 -0.06,18.05 -0.11,18.28 -0.21,18.49 -0.31,18.71 -0.46,18.89 -0.61,19.07 -0.80,19.21 -0.99,19.36 -1.21,19.45 -1.42,19.54 -1.66,19.58 -1.89,19.62 -2.13,19.60 -2.36,19.58 -2.58,19.50 -2.81,19.43 -3.01,19.30 -3.21,19.18 -3.37,19.00 -3.53,18.83 -3.65,18.63 -3.77,18.43 -3.84,18.20 -3.90,17.97 -3.91,17.74 -3.92,17.50 -5.30,14.22 -6.68,10.94 -7.18,8.54 -7.67,6.15 -8.12,2.58 -8.58,-0.98 -8.50,-3.19 -8.43,-5.40 -7.03,-7.45 -5.63,-9.50 -2.46,-10.89 0.71,-12.28 3.26,-12.80 5.82,-13.32 8.33,-12.68 10.84,-12.05 12.14,-10.03 13.44,-8.01 12.68,-5.20 11.91,-2.39 8.57,0.76 5.23,3.93 2.44,5.90 -0.35,7.87 -2.25,8.69 -4.16,9.51 -4.58,10.21 -4.99,10.90 -5.26,10.98 -5.53,11.06 -5.82,11.08 -6.10,11.09 -6.37,11.03 -6.65,10.98 -6.91,10.86 -7.16,10.74 -7.38,10.56 -7.60,10.39 -7.77,10.16 -7.94,9.94 -8.05,9.68 -8.16,9.42 -8.21,9.14 -8.26,8.86 -8.24,8.58 -8.22,8.30 -8.13,8.03 -8.04,7.76 -7.89,7.52 -7.74,7.29 -7.54,7.09 -7.34,6.89 -7.09,6.75 -6.85,6.61 -3.66,7.26 -0.48,7.91 2.25,8.42 4.99,8.92 7.57,9.42 10.15,9.92 12.38,10.49 14.62,11.07 16.55,11.62 18.47,12.18 18.67,12.24 18.88,12.30 19.05,12.42 19.22,12.54 19.35,12.72 19.48,12.89 19.54,13.09 19.60,13.29 19.60,13.51 19.60,13.72 19.53,13.92 19.45,14.12 19.32,14.28 19.19,14.45 19.01,14.57 18.83,14.68 18.63,14.74 18.42,14.79 18.21,14.77 18.00,14.76 17.80,14.68 17.61,14.59 17.45,14.45 17.29,14.31 17.18,14.13 17.08,13.95 17.03,13.74 16.99,13.53 17.02,13.32 17.05,13.11 17.14,12.92 17.23,12.73 17.38,12.57 17.53,12.42 17.72,12.33 17.91,12.23 18.12,12.20 18.33,12.17 18.54,12.21 18.75,12.25 18.93,12.35 19.12,12.45 19.26,12.61 19.40,12.76 19.49,12.96 19.58,13.15 19.60,13.37 19.61,13.58 19.56,13.78 19.52,13.99 19.40,14.17 19.29,14.35 19.13,14.48 18.96,14.62 18.76,14.69 18.56,14.77 18.35,14.78 18.14,14.78 18.14,14.78 18.14,14.78 16.02,14.83 13.91,14.87 11.64,14.60 9.37,14.33 6.76,13.92 4.15,13.51 1.17,12.96 -1.79,12.41 -3.39,11.66 -4.99,10.90 -5.26,10.98 -5.53,11.06 -5.82,11.08 -6.10,11.09 -6.37,11.03 -6.65,10.98 -6.91,10.86 -7.16,10.74 -7.38,10.56 -7.60,10.39 -7.77,10.16 -7.94,9.94 -8.05,9.68 -8.16,9.42 -8.21,9.14 -8.26,8.86 -8.24,8.58 -8.22,8.30 -8.13,8.03 -8.04,7.76 -7.89,7.53 -7.74,7.29 -7.54,7.09 -7.34,6.89 -7.09,6.75 -6.85,6.61 -6.62,6.17 -6.40,5.73 -4.63,4.97 -2.87,4.20 -0.26,2.44 2.33,0.68 5.19,-1.69 8.05,-4.06 8.57,-6.33 9.09,-8.59 7.77,-8.94 6.45,-9.28 4.33,-8.86 2.21,-8.44 -0.20,-7.62 -2.62,-6.80 -3.57,-5.82 -4.51,-4.83 -4.54,-3.15 -4.56,-1.46 -4.17,1.95 -3.77,5.37 -3.36,7.53 -2.95,9.69 -2.01,12.63 -1.08,15.56 -0.55,16.69 -0.02,17.82 -0.06,18.05 -0.11,18.28 -0.21,18.49 -0.31,18.71 -0.46,18.89 -0.61,19.07 -0.80,19.21 -0.99,19.36 -1.21,19.45 -1.42,19.54 -1.66,19.58 -1.89,19.62 -2.12,19.60 -2.36,19.58 -2.58,19.50 -2.81,19.43 -3.01,19.30 -3.21,19.18 -3.37,19.00 -3.53,18.83 -3.65,18.63 -3.77,18.43 -3.84,18.20 -3.90,17.97 -3.91,17.74 -3.92,17.50 -3.59,16.97 -3.26,16.43 -3.07,14.68 -2.89,12.92 -2.55,11.12 -2.21,9.32 -1.98,7.19 -1.75,5.05 -1.75,2.52 -1.75,0 -1.72,-0.20 -1.69,-0.41 -1.62,-0.61 -1.55,-0.81 -1.43,-0.98 -1.31,-1.16 -1.15,-1.30 -0.99,-1.44 -0.80,-1.53 -0.62,-1.63 -0.41,-1.68 -0.21,-1.73 0.00,-1.73 0.21,-1.73 0.41,-1.68 0.62,-1.63 0.80,-1.53 0.99,-1.44 1.15,-1.30 1.31,-1.16 1.43,-0.98 1.55,-0.81 1.62,-0.61 1.69,-0.41 1.72,-0.20 1.75,0.00 1.75,0.00 L 1.75,0 Z"></path></g><g transform="translate(602.7999877929688 625.2124633789062) rotate(0 30.4000244140625 -1.199981689453125)" stroke="none"><path fill="#000" d="M -1.98,-0.85 Q -1.98,-0.85 -1.25,-2.44 -0.52,-4.03 -0.17,-5.74 0.16,-7.46 0.26,-7.70 0.35,-7.94 0.50,-8.14 0.64,-8.35 0.83,-8.52 1.03,-8.69 1.25,-8.80 1.48,-8.92 1.73,-8.98 1.98,-9.04 2.23,-9.03 2.48,-9.03 2.73,-8.97 2.98,-8.90 3.20,-8.78 3.43,-8.66 3.62,-8.49 3.81,-8.32 3.95,-8.11 4.09,-7.90 4.18,-7.66 4.27,-7.42 4.30,-7.17 4.32,-6.92 4.29,-6.66 4.26,-6.41 4.09,-5.23 3.92,-4.06 3.79,-2.93 3.66,-1.80 5.23,-0.62 6.81,0.55 8.66,1.33 10.51,2.11 12.53,2.48 14.56,2.84 16.34,2.59 18.12,2.33 19.57,1.45 21.02,0.56 21.97,-0.77 22.92,-2.11 23.27,-3.55 23.62,-5.00 23.76,-5.22 23.89,-5.45 24.08,-5.63 24.27,-5.82 24.50,-5.95 24.73,-6.09 24.98,-6.16 25.23,-6.24 25.50,-6.25 25.76,-6.27 26.02,-6.22 26.28,-6.17 26.52,-6.06 26.76,-5.94 26.96,-5.78 27.17,-5.61 27.33,-5.41 27.49,-5.20 27.60,-4.95 27.70,-4.71 27.75,-4.45 27.79,-4.19 27.77,-3.93 27.76,-3.66 27.67,-3.41 27.59,-3.16 27.71,-1.36 27.83,0.44 28.18,1.60 28.53,2.76 27.24,2.91 25.94,3.07 27.09,1.14 28.25,-0.79 29.03,-2.24 29.80,-3.70 31.41,-4.71 33.01,-5.72 34.61,-5.35 36.21,-4.98 37.93,-3.16 39.65,-1.35 40.55,-0.58 41.45,0.18 42.90,0.51 44.35,0.85 45.36,-0.45 46.37,-1.76 48.07,-3.46 49.78,-5.15 50.84,-4.97 51.91,-4.79 53.00,-4.15 54.10,-3.52 55.48,-2.54 56.86,-1.56 58.91,-0.39 60.97,0.77 61.15,0.87 61.34,0.98 61.48,1.13 61.62,1.29 61.71,1.49 61.79,1.68 61.81,1.89 61.83,2.11 61.78,2.31 61.72,2.52 61.61,2.70 61.50,2.88 61.33,3.01 61.17,3.14 60.97,3.22 60.77,3.29 60.55,3.30 60.34,3.30 60.14,3.24 59.94,3.18 59.76,3.05 59.59,2.93 59.47,2.76 59.34,2.59 59.28,2.38 59.22,2.18 59.22,1.97 59.23,1.75 59.30,1.56 59.37,1.36 59.51,1.19 59.64,1.02 59.82,0.91 60.00,0.79 60.20,0.74 60.41,0.69 60.62,0.71 60.83,0.73 61.03,0.81 61.22,0.89 61.38,1.04 61.54,1.18 61.65,1.36 61.75,1.55 61.79,1.76 61.83,1.96 61.80,2.17 61.77,2.39 61.68,2.58 61.59,2.77 61.44,2.92 61.29,3.07 61.09,3.16 60.90,3.26 60.69,3.28 60.48,3.31 60.27,3.27 60.07,3.23 60.07,3.23 60.07,3.23 57.23,2.61 54.40,1.99 52.63,0.19 50.86,-1.59 50.28,-0.36 49.70,0.86 48.30,2.46 46.90,4.06 45.48,4.56 44.06,5.06 42.84,4.89 41.63,4.71 40.16,4.14 38.68,3.57 37.51,2.55 36.33,1.53 34.93,-0.02 33.52,-1.58 32.76,-0.11 32.01,1.34 31.23,2.74 30.45,4.13 29.71,4.99 28.96,5.85 26.42,4.63 23.88,3.40 23.62,1.92 23.36,0.45 23.36,-0.87 23.37,-2.20 23.49,-3.60 23.62,-5.00 23.76,-5.22 23.89,-5.45 24.08,-5.63 24.27,-5.82 24.50,-5.95 24.73,-6.09 24.98,-6.16 25.23,-6.24 25.49,-6.25 25.76,-6.27 26.02,-6.22 26.28,-6.17 26.52,-6.06 26.76,-5.94 26.96,-5.78 27.17,-5.61 27.33,-5.41 27.49,-5.20 27.60,-4.95 27.70,-4.71 27.75,-4.45 27.79,-4.19 27.77,-3.93 27.76,-3.67 27.68,-3.41 27.59,-3.16 27.56,-2.75 27.53,-2.33 26.87,-0.95 26.22,0.41 24.70,2.26 23.18,4.11 20.99,5.30 18.79,6.50 16.32,6.81 13.85,7.12 11.27,6.65 8.70,6.19 6.24,5.01 3.78,3.83 1.70,1.49 -0.36,-0.83 -0.43,-2.58 -0.50,-4.33 -0.16,-5.90 0.16,-7.46 0.26,-7.70 0.35,-7.94 0.50,-8.14 0.64,-8.35 0.83,-8.52 1.03,-8.69 1.25,-8.80 1.48,-8.92 1.73,-8.98 1.98,-9.04 2.23,-9.03 2.48,-9.03 2.73,-8.97 2.98,-8.90 3.20,-8.78 3.43,-8.66 3.62,-8.49 3.81,-8.32 3.95,-8.11 4.09,-7.90 4.18,-7.66 4.27,-7.42 4.30,-7.17 4.32,-6.92 4.29,-6.66 4.26,-6.41 4.12,-5.70 3.98,-4.99 3.63,-3.69 3.28,-2.40 2.63,-0.77 1.98,0.85 1.85,1.07 1.72,1.30 1.54,1.48 1.36,1.67 1.14,1.81 0.92,1.95 0.67,2.03 0.42,2.11 0.16,2.13 -0.09,2.15 -0.34,2.11 -0.60,2.07 -0.84,1.97 -1.08,1.86 -1.29,1.71 -1.49,1.55 -1.66,1.35 -1.82,1.15 -1.93,0.91 -2.05,0.67 -2.10,0.42 -2.15,0.16 -2.14,-0.09 -2.13,-0.35 -2.05,-0.60 -1.98,-0.85 -1.98,-0.85 L -1.98,-0.85 Z"></path></g><g transform="translate(701.2000122070312 595.6124877929688) rotate(0 -6 36)" stroke="none"><path fill="#000" d="M 1.33,1.60 Q 1.33,1.60 -1.30,4.01 -3.93,6.42 -5.75,9.65 -7.56,12.88 -8.98,17.36 -10.40,21.85 -11.24,27.33 -12.08,32.80 -12.22,38.25 -12.36,43.70 -10.71,49.65 -9.05,55.59 -6.92,59.67 -4.79,63.75 -2.75,65.64 -0.70,67.53 1.41,68.90 3.52,70.28 3.69,70.40 3.87,70.53 3.99,70.70 4.11,70.88 4.17,71.08 4.23,71.29 4.22,71.50 4.21,71.71 4.14,71.91 4.06,72.11 3.92,72.27 3.79,72.44 3.61,72.55 3.43,72.66 3.22,72.71 3.01,72.76 2.80,72.74 2.59,72.72 2.40,72.63 2.20,72.54 2.05,72.40 1.89,72.26 1.79,72.07 1.69,71.88 1.65,71.67 1.61,71.47 1.64,71.26 1.67,71.04 1.77,70.86 1.87,70.67 2.02,70.52 2.17,70.37 2.36,70.28 2.56,70.19 2.77,70.16 2.98,70.13 3.19,70.18 3.39,70.22 3.58,70.33 3.76,70.43 3.90,70.59 4.04,70.75 4.12,70.95 4.20,71.15 4.22,71.36 4.23,71.57 4.18,71.78 4.12,71.98 4.01,72.16 3.89,72.34 3.72,72.47 3.56,72.60 3.36,72.67 3.16,72.74 2.94,72.74 2.73,72.75 2.53,72.68 2.33,72.62 2.33,72.62 2.33,72.62 -0.40,71.50 -3.14,70.39 -5.86,68.17 -8.59,65.95 -11.18,61.45 -13.78,56.96 -15.68,50.29 -17.58,43.63 -17.41,37.81 -17.25,31.99 -16.28,26.10 -15.32,20.21 -13.58,15.28 -11.84,10.34 -9.47,6.56 -7.10,2.77 -4.21,0.58 -1.33,-1.60 -1.12,-1.73 -0.91,-1.87 -0.67,-1.95 -0.43,-2.03 -0.18,-2.06 0.06,-2.08 0.31,-2.04 0.56,-2.00 0.79,-1.91 1.02,-1.81 1.22,-1.66 1.42,-1.51 1.59,-1.32 1.75,-1.13 1.86,-0.90 1.97,-0.68 2.02,-0.43 2.07,-0.18 2.06,0.06 2.06,0.31 1.99,0.55 1.92,0.79 1.80,1.01 1.67,1.23 1.50,1.41 1.33,1.60 1.33,1.60 L 1.33,1.60 Z"></path></g><g transform="translate(719.6000366210938 618.8125) rotate(0 6.399993896484375 20.799957275390625)" stroke="none"><path fill="#000" d="M 1.61,-0.37 Q 1.61,-0.37 2.91,3.43 4.22,7.25 5.30,11.66 6.38,16.08 7.75,21.15 9.12,26.22 10.14,29.74 11.16,33.27 11.77,35.47 12.37,37.68 11.90,37.87 11.43,38.06 11.58,37.91 11.72,37.76 11.91,37.66 12.10,37.56 12.31,37.53 12.52,37.49 12.73,37.53 12.94,37.56 13.13,37.67 13.31,37.77 13.46,37.92 13.60,38.08 13.69,38.27 13.78,38.46 13.80,38.67 13.82,38.89 13.78,39.09 13.73,39.30 13.62,39.48 13.51,39.66 13.35,39.80 13.18,39.94 12.99,40.01 12.79,40.09 12.58,40.10 12.36,40.11 12.16,40.05 11.95,40.00 11.78,39.88 11.60,39.76 11.48,39.59 11.35,39.42 11.28,39.21 11.22,39.01 11.22,38.80 11.22,38.59 11.29,38.39 11.36,38.18 11.49,38.02 11.61,37.85 11.79,37.73 11.97,37.61 12.17,37.56 12.38,37.50 12.59,37.51 12.80,37.53 13.00,37.61 13.20,37.69 13.36,37.82 13.52,37.96 13.63,38.14 13.74,38.33 13.78,38.54 13.82,38.74 13.80,38.95 13.78,39.17 13.69,39.36 13.60,39.55 13.60,39.55 13.60,39.55 10.81,39.28 8.03,39.01 7.28,36.82 6.53,34.63 5.46,31.06 4.39,27.50 3.00,22.37 1.61,17.24 0.53,12.81 -0.54,8.38 -1.07,4.38 -1.61,0.37 -1.63,0.18 -1.65,-0.01 -1.62,-0.21 -1.60,-0.41 -1.52,-0.59 -1.45,-0.78 -1.34,-0.94 -1.22,-1.10 -1.07,-1.24 -0.92,-1.37 -0.74,-1.46 -0.57,-1.55 -0.37,-1.59 -0.18,-1.64 0.01,-1.64 0.21,-1.63 0.40,-1.59 0.60,-1.54 0.77,-1.44 0.95,-1.35 1.10,-1.21 1.24,-1.08 1.36,-0.91 1.47,-0.75 1.54,-0.56 1.61,-0.37 1.61,-0.37 L 1.61,-0.37 Z"></path></g><g transform="translate(724.4000244140625 611.6124877929688) rotate(0 7.199981689453125 6.79998779296875)" stroke="none"><path fill="#000" d="M 0.36,-1.83 Q 0.36,-1.83 3.87,-1.17 7.37,-0.51 9.94,1.34 12.50,3.20 13.72,5.57 14.93,7.95 14.44,10.24 13.96,12.54 12.59,14.31 11.23,16.09 8.71,16.86 6.20,17.62 5.99,17.67 5.78,17.73 5.57,17.71 5.36,17.69 5.16,17.61 4.97,17.52 4.81,17.38 4.65,17.24 4.55,17.05 4.45,16.87 4.41,16.66 4.37,16.45 4.40,16.24 4.42,16.03 4.52,15.84 4.61,15.65 4.76,15.50 4.91,15.35 5.11,15.25 5.30,15.16 5.51,15.13 5.72,15.10 5.93,15.14 6.13,15.18 6.32,15.29 6.50,15.39 6.65,15.55 6.79,15.71 6.87,15.91 6.95,16.10 6.97,16.31 6.99,16.53 6.94,16.73 6.88,16.94 6.77,17.12 6.65,17.30 6.49,17.43 6.32,17.56 6.12,17.63 5.92,17.71 5.71,17.71 5.50,17.72 5.30,17.65 5.09,17.59 4.92,17.47 4.75,17.34 4.62,17.17 4.50,17.00 4.44,16.79 4.38,16.59 4.38,16.38 4.39,16.17 4.46,15.97 4.54,15.77 4.67,15.60 4.80,15.44 4.98,15.32 5.16,15.21 5.16,15.21 5.16,15.21 6.65,14.26 8.15,13.31 9.07,12.25 10.00,11.19 10.58,10.07 11.15,8.94 10.53,7.59 9.91,6.25 8.17,4.76 6.42,3.27 3.02,2.55 -0.36,1.83 -0.58,1.76 -0.79,1.69 -0.98,1.57 -1.17,1.45 -1.33,1.28 -1.48,1.12 -1.60,0.93 -1.71,0.73 -1.77,0.52 -1.84,0.30 -1.85,0.08 -1.86,-0.14 -1.81,-0.36 -1.77,-0.58 -1.67,-0.78 -1.58,-0.99 -1.44,-1.16 -1.29,-1.34 -1.11,-1.47 -0.94,-1.61 -0.73,-1.70 -0.52,-1.79 -0.30,-1.82 -0.08,-1.86 0.14,-1.84 0.36,-1.83 0.36,-1.83 L 0.36,-1.83 Z"></path></g><g transform="translate(753.2000122070312 622.8125) rotate(0 5.600006103515625 -2)" stroke="none"><path fill="#000" d="M -0.46,-1.40 Q -0.46,-1.40 1.49,-2.40 3.46,-3.39 6.46,-4.07 9.46,-4.75 9.67,-4.79 9.88,-4.83 10.09,-4.81 10.30,-4.78 10.49,-4.68 10.68,-4.59 10.83,-4.44 10.98,-4.29 11.08,-4.10 11.17,-3.91 11.20,-3.70 11.23,-3.49 11.19,-3.28 11.15,-3.07 11.05,-2.89 10.95,-2.70 10.79,-2.56 10.63,-2.42 10.44,-2.33 10.24,-2.25 10.03,-2.23 9.82,-2.21 9.61,-2.26 9.40,-2.31 9.23,-2.43 9.05,-2.54 8.91,-2.71 8.78,-2.87 8.70,-3.07 8.63,-3.27 8.62,-3.48 8.62,-3.70 8.68,-3.90 8.74,-4.10 8.86,-4.27 8.99,-4.45 9.16,-4.57 9.33,-4.70 9.54,-4.76 9.74,-4.82 9.95,-4.82 10.16,-4.81 10.36,-4.74 10.56,-4.67 10.73,-4.53 10.89,-4.40 11.01,-4.22 11.12,-4.04 11.18,-3.84 11.23,-3.63 11.21,-3.42 11.20,-3.21 11.11,-3.01 11.03,-2.82 10.89,-2.66 10.75,-2.50 10.56,-2.40 10.38,-2.29 10.38,-2.29 10.38,-2.29 7.59,-0.82 4.81,0.63 2.64,1.02 0.46,1.40 0.29,1.43 0.11,1.47 -0.05,1.46 -0.23,1.46 -0.40,1.41 -0.58,1.36 -0.73,1.27 -0.88,1.18 -1.01,1.05 -1.14,0.93 -1.24,0.78 -1.33,0.63 -1.39,0.46 -1.44,0.29 -1.46,0.11 -1.47,-0.06 -1.44,-0.23 -1.42,-0.41 -1.35,-0.57 -1.28,-0.74 -1.17,-0.88 -1.06,-1.02 -0.92,-1.13 -0.79,-1.25 -0.62,-1.32 -0.46,-1.40 -0.46,-1.40 L -0.46,-1.40 Z"></path></g><g transform="translate(776.4000244140625 610.8125) rotate(0 -1.20001220703125 13.5999755859375)" stroke="none"><path fill="#000" d="M 2.01,0.61 Q 2.01,0.61 1.27,3.66 0.54,6.70 0.20,9.60 -0.13,12.50 -0.05,14.56 0.02,16.61 0.25,18.60 0.49,20.58 0.77,22.06 1.05,23.54 1.26,24.78 1.47,26.02 1.60,26.19 1.72,26.36 1.79,26.57 1.85,26.77 1.85,26.98 1.84,27.19 1.77,27.39 1.70,27.59 1.57,27.76 1.43,27.93 1.26,28.04 1.08,28.16 0.87,28.21 0.67,28.26 0.45,28.25 0.24,28.23 0.05,28.15 -0.14,28.07 -0.30,27.92 -0.46,27.78 -0.56,27.60 -0.67,27.41 -0.71,27.21 -0.75,27.00 -0.72,26.79 -0.70,26.58 -0.60,26.39 -0.51,26.19 -0.36,26.04 -0.21,25.89 -0.02,25.80 0.16,25.70 0.37,25.67 0.58,25.64 0.79,25.68 1.00,25.72 1.18,25.82 1.37,25.92 1.51,26.08 1.65,26.24 1.74,26.43 1.82,26.63 1.84,26.84 1.86,27.05 1.81,27.26 1.76,27.46 1.65,27.64 1.53,27.82 1.37,27.96 1.20,28.09 1.01,28.17 0.81,28.24 0.59,28.25 0.38,28.26 0.18,28.20 -0.02,28.13 -0.19,28.01 -0.36,27.89 -0.36,27.89 -0.36,27.89 -2.01,26.23 -3.65,24.57 -4.05,22.88 -4.45,21.19 -4.73,18.97 -5.00,16.75 -5.06,14.32 -5.11,11.89 -4.66,8.57 -4.22,5.25 -3.11,2.31 -2.01,-0.61 -1.90,-0.85 -1.80,-1.08 -1.65,-1.28 -1.49,-1.48 -1.29,-1.64 -1.09,-1.79 -0.86,-1.90 -0.63,-2.00 -0.38,-2.05 -0.13,-2.10 0.11,-2.08 0.37,-2.07 0.61,-1.99 0.85,-1.92 1.07,-1.79 1.29,-1.66 1.47,-1.48 1.65,-1.30 1.78,-1.08 1.91,-0.87 1.99,-0.62 2.07,-0.38 2.08,-0.13 2.10,0.11 2.05,0.36 2.01,0.61 2.01,0.61 L 2.01,0.61 Z"></path></g><g transform="translate(788.4000244140625 601.2124633789062) rotate(0 7.600006103515625 22.800018310546875)" stroke="none"><path fill="#000" d="M 1.74,-0.94 Q 1.74,-0.94 3.55,1.94 5.36,4.82 7.88,9.29 10.40,13.76 12.21,17.59 14.01,21.41 15.06,25.11 16.11,28.80 15.01,33.52 13.91,38.24 12.24,41.45 10.57,44.65 10.46,44.84 10.35,45.02 10.19,45.16 10.03,45.30 9.83,45.38 9.64,45.46 9.43,45.47 9.21,45.49 9.01,45.43 8.80,45.38 8.63,45.26 8.45,45.14 8.32,44.97 8.19,44.81 8.12,44.61 8.05,44.41 8.05,44.19 8.04,43.98 8.11,43.78 8.17,43.58 8.30,43.41 8.43,43.24 8.60,43.11 8.78,42.99 8.98,42.93 9.19,42.88 9.40,42.88 9.61,42.89 9.81,42.97 10.01,43.05 10.17,43.18 10.33,43.32 10.44,43.50 10.56,43.68 10.60,43.89 10.65,44.09 10.63,44.31 10.61,44.52 10.52,44.71 10.44,44.90 10.29,45.06 10.15,45.22 9.96,45.32 9.77,45.42 9.56,45.46 9.36,45.49 9.15,45.46 8.94,45.43 8.75,45.33 8.56,45.23 8.41,45.08 8.26,44.93 8.17,44.74 8.08,44.54 8.05,44.33 8.03,44.12 8.07,43.91 8.12,43.71 8.12,43.71 8.12,43.71 8.92,40.49 9.73,37.28 10.56,33.56 11.39,29.84 10.48,26.67 9.57,23.49 7.85,19.83 6.13,16.16 3.60,11.64 1.07,7.13 -0.33,4.03 -1.74,0.94 -1.83,0.71 -1.92,0.49 -1.95,0.25 -1.98,0.02 -1.95,-0.21 -1.93,-0.45 -1.85,-0.67 -1.76,-0.90 -1.63,-1.10 -1.50,-1.30 -1.32,-1.46 -1.14,-1.62 -0.93,-1.73 -0.72,-1.84 -0.49,-1.90 -0.26,-1.96 -0.02,-1.97 0.21,-1.97 0.45,-1.91 0.68,-1.86 0.89,-1.75 1.11,-1.64 1.29,-1.48 1.47,-1.33 1.61,-1.13 1.74,-0.94 1.74,-0.94 L 1.74,-0.94 Z"></path></g><g transform="translate(822.7999877929688 597.2124633789062) rotate(0 2 13.20001220703125)" stroke="none"><path fill="#000" d="M 1.74,-0.24 Q 1.74,-0.24 2.23,1.32 2.73,2.89 3.08,4.68 3.44,6.47 3.61,8.76 3.78,11.05 4.06,13.27 4.35,15.50 4.48,17.71 4.61,19.91 4.80,22.63 5.00,25.35 5.04,25.56 5.09,25.77 5.06,25.98 5.04,26.19 4.95,26.38 4.85,26.57 4.71,26.73 4.56,26.88 4.37,26.98 4.18,27.07 3.97,27.11 3.76,27.14 3.55,27.10 3.34,27.06 3.16,26.96 2.97,26.86 2.82,26.71 2.68,26.55 2.59,26.36 2.51,26.16 2.49,25.95 2.46,25.74 2.51,25.53 2.56,25.33 2.67,25.14 2.78,24.96 2.95,24.83 3.11,24.69 3.31,24.62 3.51,24.54 3.72,24.53 3.93,24.52 4.14,24.58 4.34,24.64 4.51,24.76 4.69,24.88 4.82,25.05 4.94,25.22 5.01,25.43 5.07,25.63 5.07,25.84 5.07,26.05 5.00,26.25 4.93,26.45 4.80,26.62 4.67,26.79 4.49,26.91 4.31,27.02 4.11,27.08 3.90,27.13 3.69,27.12 3.48,27.10 3.28,27.02 3.09,26.94 2.92,26.80 2.76,26.66 2.66,26.48 2.55,26.30 2.55,26.30 2.55,26.30 1.18,23.24 -0.17,20.19 -0.29,18.14 -0.40,16.10 -0.69,13.73 -0.99,11.36 -1.10,9.33 -1.21,7.30 -1.51,5.42 -1.81,3.54 -1.77,1.89 -1.74,0.24 -1.74,0.03 -1.75,-0.17 -1.70,-0.38 -1.65,-0.58 -1.56,-0.77 -1.47,-0.96 -1.33,-1.13 -1.19,-1.29 -1.02,-1.41 -0.85,-1.54 -0.65,-1.62 -0.45,-1.70 -0.24,-1.73 -0.03,-1.76 0.17,-1.73 0.38,-1.71 0.58,-1.64 0.78,-1.57 0.96,-1.45 1.14,-1.34 1.28,-1.18 1.42,-1.03 1.53,-0.84 1.63,-0.65 1.68,-0.45 1.74,-0.24 1.74,-0.24 L 1.74,-0.24 Z"></path></g><g transform="translate(827.6000366210938 638.8125) rotate(0 0 -1.20001220703125)" stroke="none"><path fill="#000" d="M 2.06,-0.64 Q 2.06,-0.64 2.09,-0.12 2.12,0.39 1.91,0.86 1.70,1.33 1.29,1.65 0.88,1.97 0.37,2.06 -0.13,2.15 -0.62,2.00 -1.11,1.85 -1.48,1.48 -1.85,1.11 -2.00,0.62 -2.15,0.13 -2.06,-0.37 -1.97,-0.88 -1.65,-1.29 -1.33,-1.70 -0.86,-1.91 -0.38,-2.12 0.12,-2.09 0.64,-2.06 1.08,-1.79 1.53,-1.52 1.79,-1.08 L 2.06,-0.64 Z"></path></g><g transform="translate(854.7999877929688 595.6124877929688) rotate(0 2.4000244140625 25.20001220703125)" stroke="none"><path fill="#000" d="M 2.16,-0.43 Q 2.16,-0.43 2.81,1.82 3.46,4.09 4.38,8.02 5.29,11.95 6.15,17.88 7.01,23.80 7.37,28.68 7.74,33.55 7.13,37.70 6.53,41.86 5.09,44.67 3.65,47.48 2.23,49.24 0.80,50.99 0.67,51.16 0.54,51.33 0.36,51.45 0.18,51.56 -0.01,51.62 -0.22,51.67 -0.43,51.66 -0.64,51.65 -0.84,51.56 -1.03,51.48 -1.19,51.34 -1.35,51.20 -1.46,51.02 -1.57,50.84 -1.61,50.63 -1.66,50.42 -1.63,50.21 -1.61,50.00 -1.51,49.81 -1.42,49.62 -1.27,49.46 -1.13,49.31 -0.94,49.21 -0.75,49.12 -0.54,49.08 -0.33,49.05 -0.12,49.09 0.08,49.13 0.27,49.23 0.45,49.33 0.60,49.48 0.74,49.64 0.83,49.83 0.92,50.03 0.94,50.24 0.96,50.45 0.91,50.66 0.86,50.87 0.75,51.05 0.64,51.23 0.47,51.36 0.31,51.50 0.11,51.57 -0.08,51.65 -0.29,51.66 -0.50,51.67 -0.70,51.61 -0.91,51.55 -1.08,51.43 -1.26,51.31 -1.38,51.14 -1.51,50.97 -1.58,50.77 -1.64,50.56 -1.64,50.35 -1.64,50.14 -1.57,49.94 -1.50,49.74 -1.50,49.74 -1.50,49.74 -0.88,47.73 -0.26,45.73 0.60,43.41 1.46,41.09 1.93,37.51 2.40,33.92 2.05,29.24 1.71,24.56 0.89,18.84 0.08,13.11 -0.77,9.11 -1.62,5.10 -1.89,2.77 -2.16,0.43 -2.18,0.16 -2.20,-0.09 -2.16,-0.36 -2.11,-0.62 -2.01,-0.86 -1.90,-1.11 -1.74,-1.32 -1.58,-1.53 -1.37,-1.70 -1.17,-1.87 -0.93,-1.98 -0.69,-2.09 -0.42,-2.14 -0.16,-2.20 0.09,-2.18 0.36,-2.17 0.61,-2.10 0.87,-2.02 1.10,-1.89 1.33,-1.75 1.52,-1.57 1.71,-1.38 1.85,-1.16 1.99,-0.93 2.08,-0.68 2.16,-0.43 2.16,-0.43 L 2.16,-0.43 Z"></path></g><g transform="translate(735.6000366210938 674.012451171875) rotate(0 46.79998779296875 -5.5999755859375)" stroke="none"><path fill="#000" d="M -0.34,-1.88 Q -0.34,-1.88 2.15,-2.53 4.64,-3.18 8.79,-3.67 12.94,-4.15 18.61,-4.57 24.29,-4.99 31.53,-5.39 38.78,-5.80 48.90,-7.07 59.02,-8.34 66.78,-9.52 74.54,-10.70 79.47,-11.40 84.41,-12.09 88.12,-12.19 91.83,-12.29 92.04,-12.29 92.25,-12.28 92.45,-12.20 92.65,-12.13 92.81,-11.99 92.98,-11.86 93.09,-11.68 93.20,-11.50 93.25,-11.29 93.30,-11.09 93.28,-10.87 93.26,-10.66 93.18,-10.47 93.09,-10.27 92.95,-10.12 92.81,-9.96 92.62,-9.86 92.43,-9.75 92.23,-9.72 92.02,-9.68 91.81,-9.71 91.60,-9.74 91.41,-9.84 91.22,-9.93 91.07,-10.08 90.92,-10.24 90.83,-10.43 90.73,-10.62 90.71,-10.83 90.68,-11.04 90.72,-11.25 90.76,-11.46 90.87,-11.64 90.98,-11.82 91.14,-11.96 91.30,-12.10 91.49,-12.19 91.69,-12.27 91.90,-12.28 92.11,-12.30 92.32,-12.25 92.52,-12.19 92.70,-12.08 92.88,-11.96 93.01,-11.79 93.14,-11.63 93.21,-11.43 93.28,-11.23 93.29,-11.01 93.29,-10.80 93.23,-10.60 93.16,-10.40 93.04,-10.23 92.91,-10.05 92.74,-9.93 92.57,-9.81 92.36,-9.75 92.16,-9.69 92.16,-9.69 92.16,-9.69 88.60,-8.87 85.04,-8.04 80.14,-7.21 75.23,-6.39 67.42,-5.06 59.61,-3.74 49.33,-2.37 39.05,-0.99 31.84,-0.59 24.64,-0.19 19.04,0.20 13.44,0.61 9.45,0.98 5.47,1.34 2.90,1.61 0.34,1.88 0.11,1.89 -0.11,1.91 -0.34,1.87 -0.57,1.82 -0.78,1.73 -0.99,1.63 -1.17,1.49 -1.35,1.35 -1.49,1.17 -1.64,0.98 -1.73,0.77 -1.83,0.56 -1.87,0.34 -1.91,0.11 -1.89,-0.11 -1.88,-0.34 -1.81,-0.56 -1.74,-0.78 -1.62,-0.98 -1.50,-1.18 -1.34,-1.34 -1.17,-1.51 -0.98,-1.62 -0.78,-1.74 -0.56,-1.81 -0.34,-1.88 -0.34,-1.88 L -0.34,-1.88 Z"></path></g><g transform="translate(780.4000244140625 689.2124633789062) rotate(0 8 6.79998779296875)" stroke="none"><path fill="#000" d="M 2.07,-0.15 Q 2.07,-0.15 2.36,2.82 2.65,5.81 2.76,8.73 2.86,11.66 3.13,14.43 3.40,17.19 3.51,19.32 3.61,21.44 3.61,21.71 3.60,21.97 3.53,22.23 3.46,22.49 3.33,22.72 3.20,22.95 3.02,23.14 2.84,23.34 2.62,23.48 2.40,23.63 2.15,23.72 1.90,23.80 1.63,23.83 1.37,23.85 1.11,23.82 0.84,23.78 0.60,23.68 0.35,23.58 0.14,23.42 -0.07,23.26 -0.24,23.06 -0.41,22.86 -0.53,22.62 -0.64,22.38 -0.70,22.12 -0.76,21.86 -0.27,19.77 0.21,17.68 0.36,14.69 0.52,11.70 0.57,9.48 0.62,7.26 0.52,4.25 0.43,1.24 0.38,-0.73 0.33,-2.72 1.08,-5.04 1.83,-7.36 2.75,-8.73 3.68,-10.10 5.51,-11.10 7.34,-12.11 9.68,-12.27 12.03,-12.43 13.90,-10.48 15.78,-8.53 16.32,-5.46 16.87,-2.40 16.05,0.51 15.23,3.43 13.83,5.47 12.43,7.51 9.10,9.10 5.77,10.68 5.56,10.71 5.35,10.73 5.14,10.69 4.93,10.64 4.75,10.53 4.57,10.43 4.43,10.27 4.29,10.10 4.21,9.91 4.13,9.71 4.12,9.50 4.10,9.29 4.16,9.08 4.21,8.88 4.33,8.70 4.45,8.52 4.62,8.39 4.79,8.26 4.99,8.19 5.19,8.12 5.40,8.12 5.61,8.12 5.81,8.19 6.02,8.25 6.19,8.38 6.36,8.51 6.48,8.68 6.60,8.86 6.66,9.06 6.71,9.27 6.70,9.48 6.69,9.69 6.62,9.89 6.54,10.09 6.40,10.25 6.27,10.41 6.09,10.52 5.91,10.64 5.70,10.68 5.49,10.73 5.28,10.71 5.07,10.69 4.87,10.60 4.68,10.51 4.53,10.37 4.37,10.22 4.27,10.03 4.17,9.85 4.13,9.64 4.10,9.43 4.13,9.22 4.16,9.01 4.26,8.82 4.36,8.63 4.51,8.48 4.66,8.34 4.86,8.25 5.05,8.16 5.05,8.16 5.05,8.16 6.95,6.55 8.86,4.93 9.95,3.49 11.05,2.05 11.78,0.02 12.51,-1.99 12.37,-4.06 12.23,-6.14 10.67,-7.19 9.10,-8.25 7.41,-7.10 5.71,-5.95 5.07,-4.29 4.43,-2.63 4.37,-0.68 4.30,1.27 4.16,4.30 4.02,7.33 3.97,9.58 3.92,11.83 3.84,15.02 3.75,18.20 3.68,19.82 3.61,21.44 3.61,21.71 3.60,21.97 3.53,22.23 3.46,22.49 3.33,22.72 3.20,22.95 3.02,23.14 2.84,23.34 2.62,23.48 2.40,23.63 2.15,23.72 1.90,23.80 1.63,23.83 1.37,23.85 1.11,23.82 0.84,23.78 0.60,23.68 0.35,23.58 0.14,23.42 -0.07,23.26 -0.24,23.06 -0.41,22.86 -0.52,22.62 -0.64,22.38 -0.70,22.12 -0.76,21.86 -0.88,19.74 -1.00,17.62 -1.27,14.71 -1.55,11.81 -1.64,8.98 -1.73,6.14 -1.90,3.15 -2.07,0.15 -2.06,-0.09 -2.05,-0.34 -1.98,-0.58 -1.91,-0.82 -1.78,-1.04 -1.66,-1.25 -1.48,-1.43 -1.31,-1.62 -1.09,-1.75 -0.88,-1.88 -0.64,-1.96 -0.40,-2.04 -0.15,-2.06 0.09,-2.08 0.33,-2.04 0.58,-2.00 0.81,-1.90 1.04,-1.80 1.25,-1.65 1.45,-1.49 1.60,-1.30 1.76,-1.10 1.87,-0.88 1.98,-0.65 2.03,-0.40 2.07,-0.15 2.07,-0.15 L 2.07,-0.15 Z"></path></g><g transform="translate(895.6000366210938 632.4125061035156) rotate(0 6.79998779296875 1.1999969482421875)" stroke="none"><path fill="#000" d="M 0.84,-1.69 Q 0.84,-1.69 2.22,-1.09 3.60,-0.49 5.40,-0.46 7.20,-0.43 9.74,-0.40 12.29,-0.37 12.50,-0.36 12.71,-0.35 12.91,-0.27 13.11,-0.19 13.27,-0.06 13.43,0.07 13.54,0.25 13.65,0.44 13.70,0.64 13.74,0.85 13.72,1.06 13.70,1.27 13.61,1.47 13.52,1.66 13.37,1.81 13.23,1.97 13.04,2.07 12.85,2.17 12.64,2.20 12.43,2.24 12.22,2.20 12.01,2.17 11.82,2.07 11.64,1.97 11.49,1.81 11.34,1.66 11.25,1.47 11.17,1.27 11.14,1.06 11.12,0.85 11.16,0.64 11.21,0.44 11.32,0.26 11.43,0.07 11.59,-0.05 11.75,-0.19 11.95,-0.27 12.15,-0.35 12.36,-0.36 12.57,-0.37 12.78,-0.32 12.98,-0.26 13.16,-0.14 13.33,-0.02 13.46,0.14 13.59,0.31 13.66,0.51 13.73,0.71 13.73,0.92 13.73,1.13 13.66,1.34 13.59,1.54 13.46,1.71 13.33,1.88 13.16,1.99 12.98,2.11 12.78,2.17 12.57,2.23 12.57,2.23 12.57,2.23 9.83,2.83 7.09,3.44 4.50,3.34 1.91,3.25 0.53,2.47 -0.84,1.69 -1.04,1.57 -1.23,1.44 -1.38,1.27 -1.54,1.10 -1.65,0.90 -1.76,0.70 -1.82,0.48 -1.88,0.26 -1.88,0.03 -1.88,-0.19 -1.83,-0.41 -1.78,-0.63 -1.68,-0.84 -1.58,-1.04 -1.43,-1.22 -1.28,-1.39 -1.10,-1.53 -0.91,-1.66 -0.70,-1.74 -0.49,-1.83 -0.26,-1.86 -0.03,-1.89 0.19,-1.87 0.41,-1.85 0.63,-1.77 0.84,-1.69 0.84,-1.69 L 0.84,-1.69 Z"></path></g><g transform="translate(894.7999877929688 650.0124816894531) rotate(0 8.4000244140625 -1.1999969482421875)" stroke="none"><path fill="#000" d="M 0,-2.14 Q 0,-2.14 2.98,-2.11 5.97,-2.08 8.06,-2.24 10.15,-2.39 12.70,-2.85 15.25,-3.30 15.46,-3.33 15.67,-3.36 15.88,-3.32 16.09,-3.27 16.28,-3.17 16.46,-3.06 16.60,-2.90 16.74,-2.75 16.83,-2.55 16.91,-2.35 16.92,-2.14 16.94,-1.93 16.89,-1.73 16.84,-1.52 16.72,-1.34 16.60,-1.16 16.44,-1.03 16.27,-0.90 16.07,-0.83 15.87,-0.75 15.66,-0.75 15.45,-0.74 15.25,-0.81 15.04,-0.87 14.87,-1.00 14.70,-1.12 14.58,-1.29 14.45,-1.47 14.39,-1.67 14.33,-1.87 14.34,-2.09 14.34,-2.30 14.42,-2.50 14.49,-2.70 14.63,-2.86 14.76,-3.03 14.94,-3.14 15.12,-3.25 15.33,-3.30 15.53,-3.35 15.74,-3.34 15.96,-3.32 16.15,-3.23 16.35,-3.15 16.50,-3.00 16.66,-2.86 16.76,-2.68 16.87,-2.49 16.91,-2.28 16.95,-2.07 16.92,-1.86 16.89,-1.65 16.79,-1.46 16.69,-1.27 16.54,-1.12 16.39,-0.97 16.20,-0.88 16.01,-0.79 16.01,-0.79 16.01,-0.79 13.29,0.34 10.57,1.47 8.27,1.78 5.98,2.08 2.99,2.11 0,2.14 -0.25,2.11 -0.51,2.08 -0.75,1.98 -0.99,1.89 -1.20,1.75 -1.42,1.60 -1.59,1.41 -1.76,1.21 -1.88,0.98 -2.00,0.75 -2.06,0.50 -2.12,0.25 -2.12,-0.00 -2.12,-0.25 -2.06,-0.50 -2.00,-0.76 -1.88,-0.98 -1.76,-1.21 -1.59,-1.41 -1.42,-1.60 -1.20,-1.75 -0.99,-1.89 -0.75,-1.98 -0.51,-2.08 -0.25,-2.11 0.00,-2.14 0.00,-2.14 L 0,-2.14 Z"></path></g><g transform="translate(937.2000122070312 628.4125061035156) rotate(0 4 26.79998779296875)" stroke="none"><path fill="#000" d="M 1.84,1.22 Q 1.84,1.22 0.49,3.30 -0.84,5.39 -1.51,7.61 -2.18,9.83 -2.93,15.52 -3.67,21.21 -4.03,26.61 -4.40,32.02 -4.14,36.74 -3.88,41.46 -3.57,44.87 -3.26,48.28 -2.93,49.75 -2.59,51.22 -2.60,51.46 -2.60,51.70 -2.66,51.93 -2.72,52.16 -2.84,52.37 -2.95,52.58 -3.11,52.76 -3.27,52.93 -3.47,53.07 -3.67,53.20 -3.89,53.28 -4.12,53.36 -4.36,53.39 -4.59,53.41 -4.83,53.38 -5.07,53.35 -5.29,53.26 -5.51,53.17 -5.71,53.03 -5.90,52.89 -6.06,52.71 -6.21,52.53 -6.32,52.32 -6.43,52.10 -6.48,51.87 -6.54,51.64 -5.80,49.90 -5.06,48.17 -4.90,44.78 -4.73,41.38 -4.15,35.85 -3.58,30.32 -2.87,24.74 -2.17,19.16 -1.23,14.19 -0.28,9.21 0.91,6.42 2.12,3.63 4.21,1.90 6.30,0.18 8.79,0.36 11.29,0.54 13.15,3.21 15.01,5.87 15.71,8.83 16.40,11.79 15.70,14.76 15.00,17.74 13.32,19.85 11.64,21.97 8.99,22.94 6.33,23.91 6.13,23.97 5.92,24.03 5.71,24.02 5.50,24.02 5.30,23.94 5.10,23.87 4.94,23.73 4.77,23.60 4.66,23.42 4.55,23.24 4.50,23.03 4.45,22.82 4.47,22.61 4.48,22.40 4.57,22.21 4.66,22.01 4.80,21.85 4.94,21.70 5.13,21.59 5.31,21.49 5.52,21.45 5.73,21.42 5.94,21.45 6.15,21.48 6.34,21.57 6.53,21.67 6.68,21.82 6.83,21.97 6.92,22.16 7.02,22.35 7.04,22.56 7.07,22.77 7.03,22.98 6.99,23.19 6.88,23.38 6.77,23.56 6.61,23.70 6.45,23.84 6.26,23.92 6.06,24.01 5.85,24.02 5.64,24.04 5.43,23.98 5.23,23.93 5.05,23.81 4.87,23.70 4.74,23.53 4.61,23.36 4.54,23.16 4.46,22.96 4.46,22.75 4.46,22.54 4.52,22.34 4.58,22.13 4.71,21.96 4.84,21.79 5.01,21.67 5.18,21.55 5.18,21.55 5.18,21.55 6.89,20.40 8.59,19.25 9.79,17.87 10.98,16.49 11.62,14.49 12.26,12.48 11.79,10.22 11.32,7.95 9.71,5.82 8.10,3.68 6.94,4.58 5.79,5.47 4.78,7.76 3.76,10.05 2.72,14.85 1.69,19.65 0.99,25.19 0.29,30.73 -0.27,36.19 -0.85,41.66 -1.72,46.44 -2.59,51.22 -2.60,51.46 -2.60,51.70 -2.66,51.93 -2.72,52.16 -2.84,52.37 -2.95,52.58 -3.11,52.76 -3.27,52.93 -3.47,53.07 -3.67,53.20 -3.89,53.28 -4.12,53.36 -4.36,53.39 -4.59,53.41 -4.83,53.38 -5.07,53.35 -5.29,53.26 -5.51,53.17 -5.71,53.03 -5.90,52.89 -6.06,52.71 -6.21,52.53 -6.32,52.32 -6.43,52.10 -6.48,51.87 -6.54,51.64 -6.97,50.18 -7.41,48.72 -7.82,45.23 -8.24,41.75 -8.61,36.74 -8.98,31.73 -8.66,26.15 -8.33,20.57 -7.46,14.48 -6.60,8.40 -5.63,5.64 -4.67,2.88 -3.25,0.83 -1.84,-1.22 -1.66,-1.43 -1.49,-1.63 -1.27,-1.78 -1.06,-1.94 -0.81,-2.04 -0.56,-2.14 -0.30,-2.17 -0.03,-2.21 0.22,-2.18 0.49,-2.15 0.74,-2.06 0.99,-1.97 1.21,-1.82 1.44,-1.68 1.62,-1.48 1.80,-1.28 1.92,-1.05 2.05,-0.81 2.12,-0.56 2.19,-0.30 2.19,-0.03 2.20,0.23 2.14,0.49 2.08,0.75 1.96,0.98 1.84,1.22 1.84,1.22 L 1.84,1.22 Z"></path></g><g transform="translate(963.5999755859375 648.4125061035156) rotate(0 7.20001220703125 -2)" stroke="none"><path fill="#000" d="M -0.44,-2.07 Q -0.44,-2.07 2.78,-2.71 6.01,-3.36 9.28,-4.06 12.55,-4.77 12.76,-4.80 12.97,-4.84 13.18,-4.80 13.39,-4.76 13.57,-4.66 13.76,-4.56 13.90,-4.41 14.05,-4.25 14.14,-4.06 14.23,-3.86 14.25,-3.65 14.27,-3.44 14.22,-3.23 14.17,-3.03 14.06,-2.85 13.95,-2.66 13.79,-2.53 13.63,-2.39 13.43,-2.31 13.23,-2.24 13.02,-2.23 12.81,-2.22 12.60,-2.28 12.40,-2.33 12.22,-2.45 12.05,-2.57 11.92,-2.74 11.79,-2.91 11.73,-3.12 11.66,-3.32 11.66,-3.53 11.66,-3.74 11.73,-3.94 11.80,-4.15 11.93,-4.31 12.06,-4.48 12.24,-4.60 12.41,-4.72 12.62,-4.77 12.82,-4.83 13.04,-4.82 13.25,-4.80 13.45,-4.72 13.64,-4.64 13.80,-4.50 13.96,-4.36 14.07,-4.18 14.18,-4.00 14.22,-3.79 14.27,-3.58 14.24,-3.37 14.22,-3.16 14.13,-2.97 14.04,-2.78 13.89,-2.62 13.74,-2.47 13.56,-2.37 13.37,-2.27 13.37,-2.27 13.37,-2.27 10.11,-0.83 6.86,0.60 3.65,1.33 0.44,2.07 0.18,2.09 -0.06,2.12 -0.31,2.08 -0.57,2.04 -0.80,1.94 -1.04,1.84 -1.24,1.69 -1.45,1.54 -1.61,1.34 -1.78,1.15 -1.89,0.92 -2.00,0.69 -2.06,0.44 -2.11,0.19 -2.10,-0.06 -2.09,-0.32 -2.02,-0.56 -1.96,-0.81 -1.83,-1.03 -1.70,-1.25 -1.53,-1.44 -1.35,-1.63 -1.14,-1.77 -0.92,-1.90 -0.68,-1.99 -0.44,-2.07 -0.44,-2.07 L -0.44,-2.07 Z"></path></g><g transform="translate(996.4000244140625 618.0124816894531) rotate(0 0 20)" stroke="none"><path fill="#000" d="M 2.16,0 Q 2.16,0 2.36,6.89 2.57,13.79 2.52,19.49 2.46,25.18 2.21,29.44 1.96,33.70 1.64,35.51 1.31,37.32 1.27,37.53 1.24,37.74 1.14,37.93 1.04,38.11 0.89,38.26 0.73,38.41 0.54,38.50 0.35,38.58 0.14,38.61 -0.07,38.63 -0.27,38.58 -0.48,38.54 -0.66,38.43 -0.85,38.32 -0.98,38.16 -1.12,38.00 -1.20,37.80 -1.28,37.60 -1.29,37.39 -1.30,37.18 -1.24,36.97 -1.19,36.77 -1.07,36.59 -0.95,36.42 -0.78,36.29 -0.61,36.16 -0.41,36.09 -0.21,36.02 0.00,36.02 0.21,36.02 0.41,36.09 0.61,36.16 0.78,36.29 0.95,36.42 1.07,36.59 1.19,36.77 1.24,36.97 1.30,37.18 1.29,37.39 1.28,37.60 1.20,37.80 1.12,38.00 0.98,38.16 0.84,38.32 0.66,38.43 0.48,38.54 0.27,38.58 0.07,38.63 -0.14,38.61 -0.35,38.58 -0.54,38.50 -0.73,38.41 -0.89,38.26 -1.04,38.11 -1.14,37.93 -1.24,37.74 -1.27,37.53 -1.31,37.32 -1.31,37.32 -1.31,37.32 -1.64,35.51 -1.96,33.70 -2.21,29.44 -2.46,25.18 -2.52,19.49 -2.57,13.79 -2.36,6.89 -2.16,0 -2.13,-0.25 -2.10,-0.51 -2.01,-0.76 -1.91,-1.00 -1.77,-1.22 -1.62,-1.43 -1.42,-1.61 -1.23,-1.78 -0.99,-1.90 -0.76,-2.02 -0.51,-2.08 -0.26,-2.15 0.00,-2.15 0.26,-2.15 0.51,-2.08 0.76,-2.02 0.99,-1.90 1.23,-1.78 1.42,-1.61 1.62,-1.43 1.77,-1.22 1.91,-1.00 2.01,-0.76 2.10,-0.51 2.13,-0.25 2.16,0.00 2.16,0.00 L 2.16,0 Z"></path></g><g transform="translate(580.4000244140625 743.6124877929688) rotate(0 7.199981689453125 9.20001220703125)" stroke="none"><path fill="#000" d="M 1.92,0.21 Q 1.92,0.21 1.70,2.28 1.48,4.35 1.18,6.43 0.88,8.52 0.52,10.98 0.16,13.44 -0.20,16.98 -0.58,20.52 -0.98,23.02 -1.38,25.51 -1.55,27.01 -1.72,28.51 -1.79,28.75 -1.86,28.98 -1.98,29.20 -2.11,29.41 -2.28,29.59 -2.45,29.77 -2.66,29.90 -2.87,30.03 -3.10,30.11 -3.33,30.19 -3.58,30.21 -3.83,30.23 -4.07,30.19 -4.32,30.15 -4.54,30.06 -4.77,29.96 -4.97,29.81 -5.17,29.66 -5.32,29.47 -5.48,29.28 -5.59,29.06 -5.69,28.83 -5.74,28.59 -5.79,28.35 -5.78,28.10 -5.77,27.85 -5.01,25.52 -4.24,23.19 -3.81,20.17 -3.38,17.15 -3.20,13.15 -3.01,9.15 -2.70,5.08 -2.38,1.02 -1.78,-2.65 -1.17,-6.33 0.19,-8.47 1.56,-10.62 3.80,-11.66 6.03,-12.69 8.74,-11.78 11.46,-10.86 12.98,-8.50 14.49,-6.15 14.64,-3.23 14.80,-0.31 13.33,2.76 11.87,5.85 9.79,8.34 7.72,10.83 6.19,12.53 4.67,14.23 5.52,15.49 6.38,16.75 9.40,17.64 12.42,18.53 14.95,19.31 17.48,20.08 17.68,20.16 17.88,20.23 18.04,20.36 18.21,20.50 18.32,20.67 18.44,20.85 18.49,21.06 18.54,21.27 18.52,21.48 18.51,21.69 18.42,21.88 18.34,22.08 18.20,22.24 18.06,22.40 17.87,22.50 17.69,22.61 17.48,22.65 17.27,22.69 17.06,22.66 16.85,22.63 16.66,22.54 16.47,22.44 16.32,22.29 16.17,22.14 16.07,21.95 15.98,21.76 15.95,21.55 15.92,21.34 15.96,21.13 16.00,20.92 16.10,20.74 16.21,20.55 16.37,20.41 16.52,20.27 16.72,20.18 16.91,20.10 17.13,20.08 17.34,20.06 17.54,20.12 17.75,20.17 17.93,20.28 18.11,20.40 18.24,20.56 18.37,20.73 18.45,20.93 18.52,21.12 18.53,21.34 18.53,21.55 18.47,21.75 18.41,21.96 18.29,22.13 18.16,22.30 17.99,22.43 17.82,22.55 17.61,22.61 17.41,22.68 17.20,22.67 16.99,22.66 16.99,22.66 16.99,22.66 14.24,22.44 11.49,22.21 7.97,21.45 4.45,20.68 2.31,19.37 0.16,18.06 -0.22,16.34 -0.61,14.62 0.41,12.94 1.43,11.26 2.95,9.65 4.48,8.03 6.33,5.97 8.18,3.91 9.47,1.69 10.75,-0.51 10.88,-2.48 11.00,-4.45 10.29,-6.03 9.58,-7.60 8.14,-8.35 6.69,-9.11 5.63,-8.67 4.56,-8.22 3.59,-6.89 2.62,-5.55 2.04,-2.11 1.46,1.32 1.15,5.32 0.84,9.33 0.64,13.52 0.44,17.70 -0.03,20.95 -0.51,24.19 -1.12,26.35 -1.72,28.51 -1.79,28.75 -1.86,28.98 -1.98,29.20 -2.11,29.41 -2.28,29.59 -2.45,29.77 -2.66,29.90 -2.87,30.03 -3.10,30.11 -3.33,30.19 -3.58,30.21 -3.83,30.23 -4.07,30.19 -4.32,30.15 -4.54,30.06 -4.77,29.96 -4.97,29.81 -5.17,29.66 -5.32,29.47 -5.48,29.28 -5.59,29.06 -5.69,28.83 -5.74,28.59 -5.79,28.35 -5.78,28.10 -5.77,27.85 -5.61,26.36 -5.44,24.86 -5.05,22.47 -4.67,20.08 -4.27,16.46 -3.87,12.84 -3.49,10.35 -3.11,7.87 -2.76,5.90 -2.40,3.92 -2.16,1.85 -1.92,-0.21 -1.87,-0.44 -1.81,-0.66 -1.71,-0.87 -1.60,-1.08 -1.45,-1.26 -1.29,-1.43 -1.10,-1.57 -0.91,-1.70 -0.70,-1.79 -0.48,-1.87 -0.25,-1.90 -0.01,-1.93 0.21,-1.91 0.44,-1.88 0.66,-1.80 0.88,-1.72 1.07,-1.59 1.27,-1.46 1.42,-1.28 1.58,-1.11 1.69,-0.91 1.80,-0.70 1.86,-0.47 1.92,-0.25 1.92,-0.01 1.92,0.21 1.92,0.21 L 1.92,0.21 Z"></path></g><g transform="translate(611.6000366210938 762.8125) rotate(0 22.79998779296875 1.199981689453125)" stroke="none"><path fill="#000" d="M -2.02,0.28 Q -2.02,0.28 -2.24,-1.31 -2.45,-2.92 -3.38,-1.55 -4.32,-0.18 -3.86,1.51 -3.40,3.22 -2.32,4.17 -1.24,5.12 0.30,5.75 1.85,6.37 3.36,6.24 4.87,6.10 6.23,5.30 7.58,4.50 8.75,2.95 9.92,1.39 10.76,0.40 11.59,-0.58 11.77,-0.75 11.94,-0.92 12.15,-1.04 12.35,-1.16 12.59,-1.23 12.82,-1.30 13.06,-1.31 13.30,-1.32 13.53,-1.28 13.77,-1.23 13.99,-1.13 14.21,-1.03 14.39,-0.88 14.58,-0.72 14.73,-0.53 14.87,-0.34 14.97,-0.12 15.06,0.09 15.10,0.33 15.15,0.56 15.13,0.80 15.11,1.04 15.04,1.27 14.96,1.50 14.83,1.71 14.71,1.91 15.78,2.98 16.85,4.06 17.61,4.87 18.36,5.68 19.95,3.87 21.54,2.06 22.28,1.28 23.02,0.51 23.90,-0.33 24.78,-1.18 26.67,-1.07 28.55,-0.97 29.54,0.71 30.53,2.39 31.61,3.75 32.68,5.10 33.79,5.78 34.90,6.46 36.10,5.97 37.30,5.47 38.25,3.93 39.21,2.39 39.90,1.21 40.59,0.03 42.00,-0.76 43.42,-1.57 45.43,0.07 47.44,1.71 48.60,2.26 49.76,2.81 51.12,3.47 52.47,4.13 52.66,4.22 52.85,4.31 53.00,4.46 53.15,4.61 53.25,4.80 53.35,4.99 53.38,5.20 53.41,5.41 53.37,5.62 53.34,5.83 53.24,6.01 53.13,6.20 52.98,6.34 52.82,6.49 52.63,6.57 52.43,6.66 52.22,6.68 52.01,6.70 51.80,6.65 51.60,6.60 51.42,6.49 51.23,6.38 51.10,6.22 50.96,6.05 50.89,5.85 50.81,5.66 50.80,5.44 50.80,5.23 50.85,5.03 50.91,4.82 51.04,4.65 51.16,4.48 51.33,4.35 51.50,4.22 51.70,4.16 51.90,4.09 52.12,4.10 52.33,4.10 52.53,4.17 52.73,4.24 52.90,4.37 53.06,4.50 53.18,4.68 53.30,4.86 53.35,5.06 53.41,5.27 53.39,5.48 53.38,5.69 53.30,5.89 53.21,6.08 53.07,6.24 52.93,6.40 52.75,6.51 52.57,6.62 52.36,6.66 52.15,6.70 51.94,6.68 51.73,6.65 51.73,6.65 51.73,6.65 49.92,6.39 48.12,6.13 46.23,5.15 44.34,4.17 44.02,3.04 43.71,1.91 42.99,3.13 42.27,4.36 40.98,6.30 39.70,8.24 38.21,9.30 36.71,10.36 34.78,10.21 32.84,10.05 31.08,8.93 29.32,7.80 27.96,5.99 26.60,4.17 26.96,3.04 27.33,1.90 25.96,3.39 24.59,4.88 23.28,6.29 21.96,7.70 20.27,8.64 18.58,9.58 16.75,9.10 14.92,8.63 13.82,7.16 12.72,5.70 12.16,2.55 11.59,-0.58 11.77,-0.75 11.94,-0.92 12.15,-1.04 12.35,-1.16 12.58,-1.23 12.82,-1.30 13.06,-1.31 13.30,-1.32 13.53,-1.28 13.77,-1.23 13.99,-1.13 14.21,-1.03 14.39,-0.88 14.58,-0.72 14.73,-0.53 14.87,-0.34 14.97,-0.12 15.06,0.09 15.10,0.33 15.15,0.56 15.13,0.80 15.11,1.04 15.04,1.27 14.96,1.50 14.83,1.71 14.71,1.91 13.86,2.90 13.02,3.89 11.31,5.91 9.60,7.94 7.43,9.07 5.26,10.20 2.81,10.27 0.36,10.34 -1.98,9.29 -4.33,8.24 -5.95,6.34 -7.57,4.43 -8.05,1.58 -8.53,-1.27 -7.86,-3.18 -7.19,-5.09 -6.00,-6.41 -4.80,-7.73 -3.13,-7.86 -1.47,-7.99 -0.32,-6.87 0.81,-5.74 1.17,-4.63 1.53,-3.51 1.78,-1.90 2.02,-0.28 2.03,-0.04 2.03,0.20 1.98,0.44 1.92,0.68 1.81,0.90 1.70,1.12 1.54,1.31 1.39,1.50 1.18,1.64 0.98,1.79 0.76,1.88 0.53,1.97 0.28,2.01 0.04,2.04 -0.20,2.02 -0.44,1.99 -0.68,1.91 -0.91,1.83 -1.11,1.69 -1.32,1.56 -1.49,1.37 -1.66,1.19 -1.78,0.98 -1.89,0.76 -1.96,0.52 -2.02,0.28 -2.02,0.28 L -2.02,0.28 Z"></path></g><g transform="translate(689.2000122070312 726.0125122070312) rotate(0 -1.600006103515625 48)" stroke="none"><path fill="#000" d="M 1.85,1.15 Q 1.85,1.15 0.72,3.00 -0.40,4.85 -1.69,8.43 -2.99,12.01 -4.16,18.06 -5.33,24.11 -6.03,31.92 -6.74,39.72 -7.06,48.07 -7.38,56.41 -5.59,65.00 -3.80,73.59 -1.74,79.05 0.32,84.51 2.20,87.45 4.07,90.38 5.67,92.31 7.26,94.23 7.39,94.40 7.52,94.57 7.58,94.78 7.65,94.98 7.65,95.19 7.64,95.40 7.57,95.60 7.50,95.80 7.37,95.97 7.24,96.14 7.06,96.26 6.89,96.37 6.68,96.43 6.48,96.48 6.26,96.47 6.05,96.45 5.85,96.37 5.66,96.29 5.50,96.15 5.34,96.01 5.23,95.83 5.12,95.65 5.08,95.44 5.04,95.23 5.06,95.02 5.09,94.81 5.18,94.62 5.27,94.42 5.42,94.27 5.57,94.12 5.76,94.02 5.95,93.92 6.16,93.89 6.37,93.86 6.57,93.90 6.78,93.93 6.97,94.04 7.16,94.14 7.30,94.29 7.45,94.45 7.53,94.64 7.62,94.84 7.64,95.05 7.66,95.26 7.61,95.47 7.56,95.68 7.45,95.86 7.34,96.04 7.18,96.17 7.01,96.31 6.81,96.38 6.62,96.46 6.40,96.47 6.19,96.48 5.99,96.42 5.78,96.36 5.61,96.24 5.43,96.12 5.43,96.12 5.43,96.12 3.19,94.32 0.95,92.52 -1.33,89.30 -3.62,86.09 -5.96,80.33 -8.29,74.57 -10.36,65.41 -12.43,56.26 -12.10,47.74 -11.76,39.23 -10.90,31.18 -10.05,23.14 -8.64,16.78 -7.24,10.43 -5.71,6.47 -4.19,2.50 -3.02,0.67 -1.85,-1.15 -1.68,-1.36 -1.52,-1.56 -1.31,-1.72 -1.10,-1.88 -0.86,-1.98 -0.61,-2.09 -0.35,-2.13 -0.09,-2.18 0.16,-2.16 0.42,-2.14 0.67,-2.05 0.92,-1.97 1.14,-1.83 1.37,-1.69 1.55,-1.50 1.73,-1.32 1.87,-1.09 2.00,-0.86 2.07,-0.61 2.15,-0.36 2.16,-0.09 2.17,0.16 2.12,0.42 2.07,0.68 1.96,0.91 1.85,1.15 1.85,1.15 L 1.85,1.15 Z"></path></g><g transform="translate(724.4000244140625 753.2125244140625) rotate(0 3.199981689453125 23.5999755859375)" stroke="none"><path fill="#000" d="M 1.45,-0.24 Q 1.45,-0.24 2.03,1.07 2.61,2.40 2.97,5.81 3.33,9.23 3.93,14.07 4.53,18.92 5.23,24.91 5.92,30.89 6.60,34.99 7.27,39.09 7.38,42.68 7.49,46.28 7.49,46.49 7.48,46.71 7.41,46.90 7.33,47.10 7.20,47.27 7.06,47.43 6.88,47.55 6.71,47.66 6.50,47.71 6.29,47.76 6.08,47.74 5.87,47.73 5.67,47.64 5.48,47.56 5.32,47.41 5.16,47.27 5.06,47.09 4.96,46.90 4.92,46.69 4.88,46.48 4.91,46.27 4.94,46.06 5.03,45.87 5.13,45.68 5.28,45.53 5.43,45.38 5.62,45.29 5.81,45.20 6.02,45.17 6.23,45.14 6.44,45.18 6.65,45.22 6.83,45.33 7.02,45.43 7.16,45.59 7.30,45.75 7.38,45.95 7.47,46.14 7.48,46.35 7.50,46.56 7.45,46.77 7.40,46.98 7.28,47.16 7.16,47.33 7.00,47.47 6.83,47.60 6.63,47.67 6.43,47.74 6.22,47.75 6.01,47.75 5.81,47.69 5.60,47.63 5.43,47.50 5.26,47.38 5.14,47.20 5.01,47.03 4.95,46.83 4.89,46.62 4.89,46.62 4.89,46.63 4.07,43.23 3.26,39.83 2.41,35.62 1.55,31.42 0.82,25.44 0.09,19.47 -0.50,14.57 -1.10,9.67 -1.40,6.39 -1.69,3.11 -1.57,1.68 -1.45,0.24 -1.46,0.06 -1.47,-0.11 -1.44,-0.28 -1.40,-0.46 -1.32,-0.62 -1.25,-0.78 -1.14,-0.92 -1.02,-1.06 -0.88,-1.17 -0.74,-1.27 -0.58,-1.34 -0.41,-1.41 -0.24,-1.44 -0.06,-1.47 0.11,-1.46 0.29,-1.45 0.45,-1.39 0.62,-1.33 0.78,-1.24 0.93,-1.14 1.05,-1.02 1.17,-0.89 1.26,-0.73 1.35,-0.58 1.40,-0.41 1.45,-0.24 1.45,-0.24 L 1.45,-0.24 Z"></path></g><g transform="translate(734.7999877929688 753.2125244140625) rotate(0 10 7.199951171875)" stroke="none"><path fill="#000" d="M -1.08,-1.62 Q -1.08,-1.62 1.07,-3.08 3.23,-4.54 6.30,-4.57 9.37,-4.61 12.31,-2.77 15.25,-0.93 17.28,2.44 19.32,5.82 19.33,9.03 19.35,12.24 16.34,14.95 13.33,17.67 10.00,18.77 6.67,19.86 4.37,20.04 2.07,20.22 1.86,20.24 1.65,20.26 1.44,20.21 1.24,20.16 1.06,20.05 0.88,19.94 0.74,19.77 0.61,19.61 0.53,19.41 0.46,19.21 0.45,19.00 0.44,18.79 0.50,18.58 0.56,18.38 0.68,18.20 0.80,18.03 0.97,17.90 1.14,17.78 1.35,17.71 1.55,17.65 1.76,17.65 1.97,17.65 2.17,17.73 2.37,17.80 2.54,17.93 2.71,18.06 2.83,18.24 2.94,18.41 3.00,18.62 3.05,18.83 3.03,19.04 3.02,19.25 2.94,19.45 2.86,19.64 2.72,19.80 2.58,19.96 2.39,20.07 2.21,20.17 2.00,20.22 1.79,20.26 1.58,20.23 1.37,20.21 1.18,20.12 0.99,20.02 0.84,19.87 0.68,19.73 0.59,19.54 0.49,19.35 0.46,19.14 0.43,18.93 0.47,18.72 0.50,18.51 0.61,18.32 0.71,18.14 0.87,17.99 1.02,17.85 1.22,17.76 1.41,17.68 1.41,17.68 1.41,17.68 3.41,16.73 5.41,15.79 8.09,15.03 10.76,14.27 13.24,12.62 15.71,10.98 15.64,9.33 15.57,7.69 14.15,5.06 12.73,2.44 10.80,0.97 8.86,-0.49 6.95,-0.73 5.04,-0.97 3.06,0.32 1.08,1.62 0.87,1.73 0.66,1.83 0.43,1.89 0.20,1.94 -0.03,1.94 -0.26,1.93 -0.49,1.87 -0.72,1.81 -0.92,1.70 -1.13,1.59 -1.31,1.43 -1.48,1.27 -1.61,1.07 -1.74,0.88 -1.82,0.65 -1.90,0.43 -1.93,0.20 -1.95,-0.03 -1.92,-0.26 -1.89,-0.49 -1.80,-0.71 -1.71,-0.93 -1.57,-1.12 -1.44,-1.31 -1.26,-1.47 -1.08,-1.62 -1.08,-1.62 L -1.08,-1.62 Z"></path></g><g transform="translate(774.7999877929688 762.0125122070312) rotate(0 8.800018310546875 -1.600006103515625)" stroke="none"><path fill="#000" d="M -0.17,-1.97 Q -0.17,-1.97 2.34,-2.25 4.86,-2.54 8.39,-3.07 11.92,-3.60 13.49,-3.79 15.05,-3.98 15.26,-3.99 15.47,-4.01 15.68,-3.95 15.88,-3.89 16.06,-3.77 16.23,-3.65 16.36,-3.48 16.49,-3.31 16.56,-3.11 16.63,-2.91 16.63,-2.70 16.63,-2.49 16.56,-2.28 16.49,-2.08 16.36,-1.91 16.23,-1.75 16.06,-1.63 15.88,-1.51 15.67,-1.45 15.47,-1.39 15.26,-1.41 15.05,-1.42 14.85,-1.50 14.65,-1.58 14.49,-1.71 14.33,-1.85 14.22,-2.03 14.11,-2.22 14.06,-2.42 14.02,-2.63 14.04,-2.84 14.07,-3.05 14.15,-3.25 14.24,-3.44 14.39,-3.59 14.54,-3.75 14.72,-3.85 14.91,-3.95 15.12,-3.98 15.33,-4.01 15.54,-3.98 15.75,-3.94 15.94,-3.84 16.13,-3.74 16.27,-3.59 16.42,-3.44 16.51,-3.24 16.60,-3.05 16.62,-2.84 16.64,-2.63 16.60,-2.42 16.55,-2.21 16.44,-2.03 16.33,-1.85 16.17,-1.71 16.01,-1.57 15.81,-1.50 15.61,-1.42 15.61,-1.42 15.61,-1.42 14.11,-0.94 12.61,-0.46 8.93,0.57 5.25,1.62 2.71,1.79 0.17,1.97 -0.05,1.96 -0.29,1.95 -0.52,1.89 -0.75,1.82 -0.96,1.71 -1.17,1.59 -1.34,1.43 -1.52,1.26 -1.64,1.06 -1.77,0.86 -1.85,0.64 -1.93,0.41 -1.95,0.17 -1.97,-0.05 -1.94,-0.29 -1.90,-0.53 -1.81,-0.75 -1.72,-0.97 -1.58,-1.16 -1.44,-1.35 -1.25,-1.50 -1.07,-1.66 -0.86,-1.76 -0.64,-1.87 -0.41,-1.92 -0.17,-1.97 -0.17,-1.97 L -0.17,-1.97 Z"></path></g><g transform="translate(814.7999877929688 746.0125122070312) rotate(0 14.000030517578125 18.399993896484375)" stroke="none"><path fill="#000" d="M -0.32,-1.64 Q -0.32,-1.64 0.79,-1.98 1.92,-2.32 3.21,-2.45 4.49,-2.58 5.97,-2.63 7.44,-2.68 9.26,-2.40 11.07,-2.12 13.37,0.02 15.66,2.17 17.06,5.08 18.47,8.00 19.48,10.83 20.50,13.65 20.97,16.88 21.43,20.10 20.91,23.11 20.38,26.11 18.63,28.98 16.88,31.85 13.87,34.11 10.87,36.37 8.27,37.35 5.67,38.32 3.06,38.09 0.46,37.86 -1.28,35.68 -3.03,33.50 -3.69,31.47 -4.35,29.43 -4.05,27.62 -3.75,25.82 -2.39,24.59 -1.03,23.36 1.16,22.88 3.36,22.40 5.88,22.25 8.40,22.10 11.80,22.99 15.21,23.88 17.80,24.99 20.39,26.10 22.46,27.31 24.53,28.52 27.42,30.16 30.32,31.79 30.50,31.91 30.68,32.02 30.81,32.19 30.94,32.35 31.02,32.55 31.09,32.75 31.10,32.96 31.11,33.17 31.04,33.38 30.98,33.58 30.86,33.75 30.73,33.93 30.56,34.05 30.39,34.18 30.19,34.24 29.98,34.30 29.77,34.30 29.56,34.29 29.36,34.22 29.16,34.15 28.99,34.01 28.83,33.88 28.71,33.70 28.60,33.52 28.55,33.32 28.49,33.11 28.51,32.90 28.53,32.69 28.61,32.49 28.69,32.30 28.84,32.14 28.98,31.98 29.16,31.88 29.35,31.77 29.55,31.73 29.76,31.69 29.97,31.72 30.18,31.75 30.38,31.84 30.57,31.93 30.72,32.08 30.87,32.23 30.96,32.42 31.06,32.61 31.09,32.82 31.12,33.03 31.08,33.24 31.04,33.45 30.93,33.64 30.83,33.82 30.67,33.96 30.51,34.11 30.32,34.19 30.12,34.28 29.91,34.29 29.70,34.31 29.49,34.26 29.29,34.21 29.29,34.21 29.29,34.21 25.87,33.16 22.45,32.10 20.59,31.03 18.73,29.96 16.40,28.96 14.07,27.95 11.31,27.12 8.56,26.29 6.31,26.40 4.07,26.51 2.64,26.66 1.22,26.80 0.38,27.62 -0.44,28.45 -0.02,29.85 0.38,31.25 1.17,32.84 1.97,34.43 3.17,34.40 4.37,34.37 6.41,33.66 8.45,32.95 10.94,31.24 13.44,29.53 14.88,27.37 16.33,25.22 16.82,22.91 17.32,20.60 16.96,17.82 16.59,15.03 15.65,12.38 14.71,9.73 13.66,7.32 12.62,4.91 11.31,3.20 10.01,1.49 8.78,1.35 7.55,1.20 6.18,1.23 4.81,1.27 3.74,1.33 2.67,1.40 1.50,1.52 0.32,1.64 0.12,1.65 -0.07,1.67 -0.27,1.64 -0.47,1.60 -0.65,1.52 -0.84,1.44 -1.00,1.32 -1.16,1.20 -1.29,1.04 -1.41,0.88 -1.50,0.70 -1.59,0.52 -1.63,0.32 -1.67,0.12 -1.66,-0.07 -1.65,-0.27 -1.59,-0.46 -1.53,-0.66 -1.43,-0.83 -1.33,-1.01 -1.19,-1.15 -1.05,-1.30 -0.88,-1.40 -0.71,-1.51 -0.52,-1.57 -0.32,-1.64 -0.32,-1.64 L -0.32,-1.64 Z"></path></g><g transform="translate(846 732.4124755859375) rotate(0 8 36.4000244140625)" stroke="none"><path fill="#000" d="M 1.98,-0.82 Q 1.98,-0.82 3.16,1.91 4.35,4.66 6.24,9.29 8.13,13.92 10.09,19.61 12.06,25.31 13.61,31.49 15.15,37.66 16.04,43.60 16.93,49.55 15.35,55.88 13.77,62.22 10.85,65.55 7.92,68.89 6.85,70.24 5.78,71.58 5.63,71.73 5.47,71.87 5.28,71.96 5.09,72.05 4.88,72.07 4.66,72.09 4.46,72.05 4.25,72.00 4.07,71.89 3.89,71.78 3.75,71.62 3.61,71.45 3.54,71.25 3.46,71.06 3.45,70.84 3.44,70.63 3.50,70.43 3.55,70.22 3.67,70.05 3.79,69.87 3.96,69.75 4.13,69.62 4.34,69.55 4.54,69.48 4.75,69.49 4.96,69.49 5.16,69.56 5.36,69.62 5.53,69.75 5.70,69.88 5.82,70.06 5.94,70.24 5.99,70.44 6.05,70.65 6.04,70.86 6.02,71.07 5.94,71.27 5.86,71.47 5.73,71.63 5.59,71.79 5.40,71.90 5.22,72.00 5.01,72.05 4.81,72.09 4.60,72.07 4.38,72.05 4.19,71.95 4.00,71.86 3.85,71.72 3.69,71.57 3.59,71.38 3.50,71.19 3.46,70.98 3.43,70.77 3.47,70.56 3.50,70.36 3.60,70.17 3.70,69.98 3.70,69.98 3.70,69.98 4.73,68.60 5.76,67.23 7.76,64.15 9.76,61.08 11.12,55.58 12.47,50.09 11.61,44.42 10.75,38.76 9.27,32.77 7.78,26.79 5.86,21.20 3.94,15.61 2.09,10.99 0.24,6.37 -0.86,3.60 -1.98,0.82 -2.05,0.57 -2.12,0.32 -2.13,0.06 -2.13,-0.18 -2.08,-0.44 -2.03,-0.69 -1.91,-0.92 -1.80,-1.16 -1.63,-1.36 -1.47,-1.56 -1.26,-1.71 -1.05,-1.86 -0.81,-1.96 -0.58,-2.06 -0.32,-2.10 -0.06,-2.14 0.18,-2.12 0.44,-2.09 0.69,-2.01 0.93,-1.93 1.15,-1.79 1.37,-1.65 1.54,-1.46 1.72,-1.27 1.85,-1.05 1.98,-0.82 1.98,-0.82 L 1.98,-0.82 Z"></path></g><g transform="translate(870 744.4124755859375) rotate(0 2 16.800018310546875)" stroke="none"><path fill="#000" d="M 1.94,0 Q 1.94,0 2.14,2.52 2.34,5.05 2.58,8.35 2.81,11.65 3.11,15.12 3.42,18.60 4.04,22.29 4.67,25.98 4.87,29.03 5.07,32.07 5.07,32.29 5.07,32.50 5.00,32.70 4.94,32.90 4.81,33.07 4.68,33.24 4.51,33.36 4.33,33.48 4.13,33.54 3.92,33.60 3.71,33.59 3.50,33.58 3.30,33.50 3.10,33.42 2.94,33.29 2.78,33.15 2.67,32.97 2.56,32.79 2.51,32.58 2.46,32.37 2.48,32.16 2.51,31.95 2.59,31.76 2.68,31.56 2.83,31.41 2.97,31.25 3.16,31.15 3.35,31.05 3.56,31.02 3.77,30.98 3.98,31.01 4.19,31.05 4.37,31.15 4.56,31.24 4.71,31.40 4.86,31.55 4.95,31.74 5.04,31.94 5.06,32.15 5.09,32.36 5.04,32.57 5.00,32.77 4.89,32.96 4.78,33.14 4.62,33.28 4.46,33.42 4.26,33.50 4.06,33.58 3.85,33.59 3.64,33.60 3.43,33.55 3.23,33.49 3.05,33.37 2.88,33.25 2.75,33.08 2.62,32.92 2.55,32.72 2.48,32.51 2.48,32.51 2.48,32.51 1.67,29.66 0.87,26.81 -0.15,22.92 -1.19,19.03 -1.54,15.50 -1.89,11.97 -2.12,8.51 -2.34,5.06 -2.14,2.53 -1.94,0 -1.91,-0.23 -1.88,-0.46 -1.80,-0.68 -1.71,-0.90 -1.58,-1.09 -1.45,-1.28 -1.27,-1.44 -1.10,-1.59 -0.89,-1.70 -0.68,-1.81 -0.46,-1.87 -0.23,-1.92 0.00,-1.92 0.23,-1.92 0.46,-1.87 0.68,-1.81 0.89,-1.70 1.10,-1.59 1.27,-1.44 1.45,-1.28 1.58,-1.09 1.71,-0.90 1.80,-0.68 1.88,-0.46 1.91,-0.23 1.94,0.00 1.94,0.00 L 1.94,0 Z"></path></g><g transform="translate(878.7999877929688 802.0125122070312) rotate(0 0.00004999999998744897 0.00004999999998744897)" stroke="none"><path fill="#000" d="M 2.12,-2.12 Q 2.12,-2.12 2.40,-1.73 2.69,-1.33 2.83,-0.87 2.97,-0.40 2.96,0.08 2.95,0.56 2.78,1.02 2.61,1.47 2.31,1.85 2.00,2.23 1.59,2.49 1.18,2.76 0.71,2.87 0.24,2.99 -0.24,2.95 -0.72,2.91 -1.17,2.72 -1.61,2.53 -1.98,2.20 -2.34,1.88 -2.58,1.45 -2.82,1.03 -2.91,0.55 -3.00,0.08 -2.93,-0.40 -2.87,-0.88 -2.65,-1.31 -2.44,-1.75 -2.09,-2.09 -1.75,-2.44 -1.31,-2.65 -0.88,-2.87 -0.39,-2.93 0.08,-3.00 0.55,-2.91 1.03,-2.82 1.46,-2.58 1.88,-2.34 2.20,-1.97 2.53,-1.61 2.72,-1.17 2.91,-0.72 2.95,-0.23 2.99,0.24 2.87,0.71 2.76,1.18 2.49,1.59 2.23,2.00 1.85,2.31 1.47,2.61 1.02,2.78 0.56,2.95 0.07,2.96 -0.40,2.97 -0.87,2.83 -1.33,2.69 -1.73,2.40 -2.12,2.12 -2.12,2.12 -2.12,2.12 -2.34,1.83 -2.57,1.55 -2.72,1.22 -2.86,0.89 -2.93,0.53 -2.99,0.18 -2.97,-0.18 -2.95,-0.54 -2.84,-0.88 -2.74,-1.23 -2.55,-1.54 -2.36,-1.85 -2.10,-2.10 -1.85,-2.36 -1.54,-2.55 -1.23,-2.74 -0.88,-2.84 -0.54,-2.95 -0.17,-2.97 0.18,-2.99 0.53,-2.93 0.89,-2.86 1.22,-2.72 1.55,-2.57 1.84,-2.34 2.12,-2.12 2.12,-2.12 L 2.12,-2.12 Z"></path></g><g transform="translate(902 726.8125) rotate(0 12 52)" stroke="none"><path fill="#000" d="M 1.53,-1.02 Q 1.53,-1.02 3.09,0.93 4.64,2.89 7.69,9.91 10.73,16.93 13.60,24.96 16.47,33.00 18.85,41.53 21.22,50.06 22.68,58.14 24.13,66.21 24.25,73.46 24.36,80.72 22.88,86.71 21.40,92.70 19.93,96.12 18.46,99.54 17.84,100.94 17.21,102.33 17.11,102.52 17.00,102.70 16.84,102.85 16.68,102.99 16.49,103.07 16.29,103.15 16.08,103.17 15.87,103.19 15.66,103.14 15.46,103.08 15.28,102.97 15.10,102.85 14.97,102.69 14.83,102.52 14.76,102.32 14.69,102.12 14.68,101.91 14.68,101.70 14.74,101.49 14.80,101.29 14.93,101.12 15.05,100.95 15.23,100.82 15.40,100.70 15.60,100.64 15.80,100.58 16.02,100.58 16.23,100.59 16.43,100.66 16.63,100.74 16.79,100.87 16.96,101.00 17.07,101.18 17.19,101.36 17.24,101.57 17.29,101.78 17.27,101.99 17.25,102.20 17.17,102.39 17.08,102.59 16.94,102.75 16.80,102.90 16.61,103.01 16.43,103.11 16.22,103.15 16.01,103.19 15.80,103.16 15.59,103.13 15.40,103.04 15.21,102.94 15.06,102.79 14.91,102.64 14.82,102.45 14.72,102.26 14.69,102.05 14.67,101.84 14.71,101.63 14.75,101.42 14.75,101.42 14.75,101.42 15.18,99.95 15.61,98.49 16.64,95.17 17.67,91.85 18.81,86.32 19.95,80.79 19.75,73.92 19.54,67.04 18.07,59.20 16.60,51.35 14.27,42.98 11.93,34.61 9.13,26.70 6.33,18.78 3.60,12.08 0.87,5.38 -0.33,3.20 -1.53,1.02 -1.63,0.82 -1.73,0.62 -1.78,0.40 -1.83,0.19 -1.82,-0.02 -1.82,-0.25 -1.76,-0.46 -1.71,-0.68 -1.60,-0.87 -1.49,-1.07 -1.34,-1.23 -1.19,-1.39 -1.01,-1.52 -0.82,-1.64 -0.62,-1.72 -0.41,-1.79 -0.19,-1.81 0.02,-1.84 0.24,-1.81 0.47,-1.78 0.67,-1.69 0.88,-1.61 1.06,-1.48 1.24,-1.35 1.38,-1.19 1.53,-1.02 1.53,-1.02 L 1.53,-1.02 Z"></path></g><g transform="translate(786 831.6124877929688) rotate(0 2.399993896484375 6.399993896484375)" stroke="none"><path fill="#000" d="M 2.06,-0.56 Q 2.06,-0.56 2.81,1.95 3.55,4.46 4.25,6.08 4.95,7.70 4.95,8.79 4.95,9.88 5.14,9.96 5.34,10.04 5.50,10.18 5.66,10.32 5.77,10.51 5.87,10.69 5.92,10.90 5.96,11.11 5.93,11.32 5.91,11.53 5.82,11.72 5.73,11.91 5.58,12.06 5.43,12.22 5.24,12.31 5.05,12.41 4.84,12.44 4.63,12.47 4.42,12.44 4.21,12.40 4.03,12.30 3.84,12.20 3.70,12.04 3.55,11.88 3.47,11.69 3.38,11.50 3.36,11.29 3.34,11.07 3.39,10.87 3.43,10.66 3.55,10.48 3.66,10.30 3.82,10.16 3.98,10.03 4.18,9.95 4.38,9.87 4.59,9.87 4.81,9.86 5.01,9.92 5.21,9.98 5.39,10.10 5.56,10.22 5.69,10.39 5.82,10.56 5.88,10.76 5.95,10.96 5.94,11.18 5.94,11.39 5.87,11.59 5.80,11.79 5.67,11.96 5.54,12.13 5.36,12.24 5.19,12.36 4.98,12.41 4.77,12.47 4.56,12.45 4.35,12.44 4.35,12.44 4.35,12.44 2.58,10.95 0.81,9.47 0.01,7.56 -0.79,5.65 -1.43,3.10 -2.06,0.56 -2.10,0.30 -2.14,0.05 -2.11,-0.20 -2.09,-0.46 -2.00,-0.70 -1.92,-0.94 -1.78,-1.16 -1.63,-1.38 -1.44,-1.55 -1.26,-1.73 -1.03,-1.85 -0.80,-1.98 -0.55,-2.05 -0.31,-2.12 -0.05,-2.12 0.20,-2.13 0.45,-2.07 0.71,-2.02 0.94,-1.90 1.17,-1.79 1.37,-1.62 1.56,-1.46 1.72,-1.25 1.87,-1.04 1.97,-0.80 2.06,-0.56 2.06,-0.56 L 2.06,-0.56 Z"></path></g><g transform="translate(741.2000122070312 818.8125) rotate(0 58 -6.79998779296875)" stroke="none"><path fill="#000" d="M -0.09,-1.79 Q -0.09,-1.79 4.25,-2.33 8.61,-2.86 18.92,-3.88 29.23,-4.90 38.65,-6.22 48.07,-7.55 57.63,-8.77 67.19,-9.99 76.05,-11.40 84.90,-12.81 92.19,-13.61 99.47,-14.41 104.67,-14.56 109.88,-14.70 112.08,-14.69 114.27,-14.68 114.48,-14.66 114.70,-14.64 114.89,-14.55 115.08,-14.47 115.24,-14.32 115.40,-14.18 115.50,-13.99 115.60,-13.81 115.64,-13.60 115.68,-13.39 115.65,-13.18 115.62,-12.97 115.52,-12.78 115.42,-12.59 115.27,-12.44 115.12,-12.29 114.93,-12.20 114.74,-12.11 114.53,-12.08 114.31,-12.06 114.11,-12.10 113.90,-12.14 113.71,-12.25 113.53,-12.35 113.39,-12.51 113.25,-12.67 113.17,-12.87 113.09,-13.07 113.07,-13.28 113.06,-13.49 113.11,-13.70 113.16,-13.90 113.28,-14.08 113.40,-14.26 113.56,-14.39 113.73,-14.52 113.93,-14.59 114.13,-14.66 114.34,-14.66 114.56,-14.67 114.76,-14.60 114.96,-14.54 115.13,-14.41 115.30,-14.29 115.43,-14.11 115.55,-13.94 115.61,-13.73 115.67,-13.53 115.66,-13.32 115.65,-13.11 115.58,-12.91 115.50,-12.71 115.37,-12.54 115.23,-12.38 115.05,-12.27 114.87,-12.16 114.66,-12.11 114.46,-12.06 114.46,-12.06 114.46,-12.06 112.28,-11.74 110.11,-11.42 105.03,-10.84 99.96,-10.27 92.79,-9.37 85.61,-8.48 76.70,-6.97 67.79,-5.46 58.26,-4.15 48.74,-2.84 39.22,-1.46 29.71,-0.08 19.28,0.92 8.86,1.94 4.48,1.87 0.09,1.79 -0.12,1.78 -0.33,1.76 -0.54,1.70 -0.75,1.63 -0.93,1.52 -1.12,1.40 -1.27,1.25 -1.42,1.09 -1.53,0.91 -1.64,0.72 -1.71,0.51 -1.77,0.31 -1.78,0.09 -1.79,-0.12 -1.75,-0.33 -1.71,-0.54 -1.62,-0.74 -1.53,-0.94 -1.39,-1.11 -1.26,-1.28 -1.09,-1.41 -0.91,-1.54 -0.72,-1.63 -0.52,-1.72 -0.30,-1.76 -0.09,-1.79 -0.09,-1.79 L -0.09,-1.79 Z"></path></g><g transform="translate(800.4000244140625 826.8125) rotate(0 -2.399993896484375 21.20001220703125)" stroke="none"><path fill="#000" d="M 1.18,1.18 Q 1.18,1.18 0.11,2.37 -0.95,3.57 -1.45,4.95 -1.95,6.33 -2.16,8.60 -2.37,10.88 -2.26,15.27 -2.15,19.66 -1.65,23.79 -1.16,27.91 -0.72,31.07 -0.29,34.23 -0.35,37.54 -0.40,40.86 -0.42,41.07 -0.44,41.28 -0.52,41.48 -0.61,41.67 -0.75,41.83 -0.89,41.99 -1.07,42.10 -1.26,42.20 -1.47,42.24 -1.68,42.28 -1.89,42.25 -2.10,42.23 -2.29,42.13 -2.48,42.04 -2.63,41.89 -2.78,41.74 -2.87,41.55 -2.97,41.36 -3.00,41.15 -3.03,40.94 -2.99,40.73 -2.95,40.52 -2.84,40.33 -2.74,40.15 -2.58,40.01 -2.42,39.86 -2.23,39.78 -2.03,39.70 -1.82,39.68 -1.61,39.66 -1.40,39.71 -1.20,39.76 -1.02,39.88 -0.84,39.99 -0.70,40.16 -0.57,40.32 -0.50,40.52 -0.42,40.72 -0.42,40.93 -0.41,41.14 -0.47,41.35 -0.54,41.55 -0.66,41.72 -0.78,41.90 -0.96,42.02 -1.13,42.14 -1.33,42.21 -1.53,42.27 -1.75,42.26 -1.96,42.26 -2.16,42.19 -2.36,42.11 -2.52,41.98 -2.69,41.85 -2.80,41.67 -2.92,41.49 -2.97,41.28 -3.02,41.08 -3.02,41.08 -3.02,41.08 -3.62,37.93 -4.21,34.78 -4.67,31.58 -5.12,28.39 -5.63,24.07 -6.14,19.75 -6.22,15.08 -6.31,10.41 -5.91,7.62 -5.51,4.82 -4.57,2.92 -3.64,1.02 -2.41,-0.07 -1.18,-1.18 -1.02,-1.30 -0.86,-1.43 -0.68,-1.51 -0.49,-1.59 -0.29,-1.63 -0.10,-1.66 0.10,-1.65 0.30,-1.64 0.49,-1.58 0.68,-1.52 0.85,-1.42 1.03,-1.31 1.17,-1.17 1.31,-1.03 1.42,-0.85 1.52,-0.68 1.58,-0.49 1.64,-0.30 1.65,-0.10 1.66,0.10 1.63,0.29 1.59,0.49 1.51,0.68 1.43,0.86 1.30,1.02 1.18,1.18 1.18,1.18 L 1.18,1.18 Z"></path></g><g transform="translate(790 826.0125122070312) rotate(0 15.600006103515625 12)" stroke="none"><path fill="#000" d="M -0.18,-2.05 Q -0.18,-2.05 2.34,-2.30 4.88,-2.55 8.97,-1.95 13.05,-1.36 16.43,-0.39 19.80,0.56 23.55,2.33 27.29,4.10 28.96,7.74 30.62,11.39 30.43,14.05 30.24,16.71 28.04,19.04 25.84,21.37 21.45,23.01 17.06,24.64 14.60,25.01 12.14,25.38 9.50,23.92 6.85,22.46 6.68,22.34 6.50,22.22 6.37,22.05 6.25,21.88 6.18,21.68 6.11,21.48 6.11,21.26 6.11,21.05 6.18,20.85 6.25,20.65 6.38,20.48 6.51,20.31 6.69,20.19 6.86,20.08 7.07,20.02 7.27,19.96 7.49,19.98 7.70,19.99 7.89,20.07 8.09,20.15 8.25,20.29 8.41,20.42 8.52,20.61 8.63,20.79 8.68,21.00 8.72,21.21 8.70,21.42 8.67,21.63 8.58,21.82 8.49,22.01 8.35,22.17 8.20,22.32 8.01,22.42 7.82,22.52 7.61,22.55 7.40,22.58 7.19,22.55 6.98,22.51 6.80,22.41 6.61,22.31 6.46,22.16 6.32,22.00 6.23,21.81 6.14,21.61 6.12,21.40 6.10,21.19 6.14,20.98 6.19,20.78 6.30,20.60 6.41,20.41 6.57,20.28 6.74,20.14 6.94,20.06 7.13,19.99 7.35,19.98 7.56,19.96 7.76,20.02 7.97,20.08 7.97,20.08 7.97,20.08 9.92,20.77 11.88,21.47 13.76,21.07 15.65,20.66 19.32,19.40 22.99,18.13 24.62,16.88 26.24,15.63 26.38,14.20 26.52,12.77 25.71,10.04 24.91,7.31 21.76,5.98 18.61,4.64 15.51,3.73 12.40,2.81 8.82,2.22 5.23,1.63 2.71,1.84 0.18,2.05 -0.06,2.04 -0.31,2.03 -0.54,1.97 -0.78,1.90 -1.00,1.78 -1.22,1.66 -1.40,1.49 -1.58,1.32 -1.71,1.11 -1.85,0.90 -1.93,0.66 -2.01,0.43 -2.03,0.18 -2.06,-0.06 -2.02,-0.30 -1.98,-0.55 -1.89,-0.78 -1.79,-1.01 -1.64,-1.21 -1.50,-1.41 -1.31,-1.57 -1.11,-1.73 -0.89,-1.84 -0.67,-1.94 -0.42,-2.00 -0.18,-2.05 -0.18,-2.05 L -0.18,-2.05 Z"></path></g><g transform="translate(960.4000244140625 793.2125244140625) rotate(0 12 -1.20001220703125)" stroke="none"><path fill="#000" d="M -0.20,-2.22 Q -0.20,-2.22 4.86,-2.62 9.92,-3.02 13.94,-3.05 17.95,-3.09 19.65,-3.26 21.35,-3.43 21.56,-3.42 21.77,-3.41 21.97,-3.33 22.17,-3.25 22.33,-3.11 22.49,-2.98 22.60,-2.79 22.71,-2.61 22.75,-2.40 22.80,-2.20 22.78,-1.98 22.75,-1.77 22.66,-1.58 22.57,-1.39 22.43,-1.23 22.28,-1.08 22.09,-0.98 21.90,-0.88 21.69,-0.85 21.49,-0.81 21.28,-0.85 21.07,-0.88 20.88,-0.98 20.69,-1.08 20.55,-1.24 20.40,-1.39 20.31,-1.59 20.22,-1.78 20.20,-1.99 20.18,-2.20 20.22,-2.41 20.27,-2.62 20.38,-2.80 20.49,-2.98 20.65,-3.12 20.81,-3.25 21.01,-3.33 21.21,-3.41 21.42,-3.42 21.63,-3.43 21.84,-3.38 22.04,-3.32 22.22,-3.20 22.39,-3.08 22.52,-2.91 22.65,-2.74 22.72,-2.54 22.78,-2.34 22.78,-2.12 22.78,-1.91 22.72,-1.71 22.65,-1.51 22.52,-1.34 22.39,-1.17 22.21,-1.05 22.04,-0.93 21.83,-0.88 21.63,-0.82 21.63,-0.82 21.63,-0.82 19.93,-0.63 18.24,-0.44 14.27,0.36 10.31,1.18 5.25,1.70 0.20,2.22 -0.06,2.21 -0.33,2.21 -0.59,2.13 -0.85,2.06 -1.09,1.93 -1.32,1.80 -1.52,1.61 -1.71,1.43 -1.86,1.20 -2.01,0.97 -2.09,0.72 -2.18,0.46 -2.21,0.20 -2.23,-0.06 -2.19,-0.33 -2.15,-0.60 -2.05,-0.84 -1.94,-1.09 -1.78,-1.31 -1.62,-1.53 -1.42,-1.70 -1.21,-1.87 -0.97,-1.99 -0.72,-2.11 -0.46,-2.17 -0.20,-2.22 -0.20,-2.22 L -0.20,-2.22 Z"></path></g><g transform="translate(970.800048828125 803.6124877929688) rotate(0 8 -0.79998779296875)" stroke="none"><path fill="#000" d="M -0.12,-2.10 Q -0.12,-2.10 3.79,-2.22 7.70,-2.34 10.96,-2.83 14.21,-3.32 14.43,-3.34 14.64,-3.35 14.84,-3.30 15.05,-3.25 15.23,-3.13 15.41,-3.01 15.54,-2.85 15.67,-2.68 15.74,-2.48 15.81,-2.28 15.81,-2.07 15.82,-1.85 15.75,-1.65 15.69,-1.45 15.56,-1.28 15.44,-1.11 15.26,-0.98 15.09,-0.86 14.88,-0.80 14.68,-0.74 14.47,-0.75 14.26,-0.76 14.06,-0.83 13.86,-0.91 13.69,-1.04 13.53,-1.18 13.42,-1.36 13.31,-1.54 13.26,-1.75 13.21,-1.95 13.23,-2.16 13.25,-2.38 13.33,-2.57 13.42,-2.76 13.56,-2.92 13.71,-3.08 13.89,-3.18 14.08,-3.28 14.29,-3.32 14.50,-3.36 14.71,-3.33 14.92,-3.30 15.11,-3.20 15.30,-3.10 15.44,-2.95 15.59,-2.80 15.68,-2.61 15.78,-2.42 15.80,-2.21 15.83,-1.99 15.79,-1.79 15.75,-1.58 15.64,-1.39 15.53,-1.21 15.37,-1.07 15.21,-0.93 15.02,-0.85 14.82,-0.77 14.82,-0.77 14.82,-0.77 11.38,0.32 7.93,1.42 4.02,1.76 0.12,2.10 -0.12,2.08 -0.38,2.07 -0.62,1.99 -0.86,1.91 -1.08,1.78 -1.30,1.65 -1.48,1.47 -1.66,1.29 -1.79,1.07 -1.92,0.86 -1.99,0.61 -2.07,0.37 -2.08,0.12 -2.10,-0.13 -2.05,-0.38 -2.00,-0.63 -1.90,-0.86 -1.80,-1.09 -1.64,-1.29 -1.48,-1.49 -1.28,-1.64 -1.08,-1.80 -0.85,-1.90 -0.62,-2.01 -0.37,-2.05 -0.12,-2.10 -0.12,-2.10 L -0.12,-2.10 Z"></path></g><g transform="translate(1022 752.4124755859375) rotate(0 1.60003662109375 29.600006103515625)" stroke="none"><path fill="#000" d="M 1.91,0.19 Q 1.91,0.19 1.93,2.51 1.95,4.84 1.87,12.38 1.80,19.92 2.21,26.99 2.62,34.07 3.25,39.81 3.87,45.55 4.34,49.38 4.80,53.20 4.87,55.70 4.93,58.19 5.01,58.39 5.08,58.59 5.09,58.80 5.10,59.01 5.03,59.22 4.97,59.42 4.85,59.59 4.73,59.77 4.55,59.89 4.38,60.02 4.18,60.08 3.98,60.14 3.76,60.14 3.55,60.13 3.35,60.06 3.15,59.99 2.98,59.85 2.82,59.72 2.70,59.54 2.59,59.36 2.54,59.16 2.49,58.95 2.50,58.74 2.52,58.53 2.60,58.33 2.68,58.14 2.83,57.98 2.97,57.82 3.15,57.72 3.34,57.61 3.55,57.57 3.75,57.53 3.96,57.56 4.18,57.58 4.37,57.68 4.56,57.77 4.71,57.92 4.86,58.07 4.95,58.26 5.05,58.45 5.08,58.66 5.11,58.87 5.07,59.08 5.03,59.29 4.92,59.48 4.82,59.66 4.66,59.80 4.50,59.95 4.31,60.03 4.11,60.12 3.90,60.13 3.69,60.15 3.48,60.10 3.28,60.05 3.10,59.94 2.92,59.82 2.79,59.66 2.65,59.49 2.65,59.49 2.65,59.49 1.38,56.65 0.11,53.82 -0.42,49.95 -0.96,46.08 -1.61,40.22 -2.26,34.35 -2.68,27.11 -3.11,19.86 -2.99,12.11 -2.87,4.35 -2.39,2.08 -1.91,-0.19 -1.86,-0.41 -1.81,-0.64 -1.71,-0.85 -1.60,-1.06 -1.45,-1.23 -1.30,-1.41 -1.11,-1.55 -0.93,-1.68 -0.71,-1.77 -0.50,-1.86 -0.27,-1.89 -0.04,-1.92 0.19,-1.90 0.42,-1.88 0.64,-1.80 0.85,-1.72 1.05,-1.59 1.24,-1.46 1.40,-1.29 1.56,-1.12 1.67,-0.92 1.78,-0.72 1.84,-0.49 1.90,-0.27 1.91,-0.04 1.91,0.19 1.91,0.19 L 1.91,0.19 Z"></path></g></svg>