<svg version="1.1" xmlns="http://www.w3.org/2000/svg" viewBox="0 0 10020 638.4000244140625" width="10020" height="638.4000244140625">
  <!-- svg-source:excalidraw -->
  
  <defs>
    <style>
      @font-face {
        font-family: "Virgil";
        src: url("https://excalidraw.com/Virgil.woff2");
      }
      @font-face {
        font-family: "Cascadia";
        src: url("https://excalidraw.com/Cascadia.woff2");
      }
    </style>
  </defs>
  <rect x="0" y="0" width="10020" height="638.4000244140625" fill="#fff0"></rect><g stroke-linecap="round" transform="translate(10 10) rotate(0 5000 0.5)"><path d="M-0.52 -0.26 C3022.65 -30.2, 6044.59 -29.2, 9999.32 0.22 M0.38 -0.31 C3948.03 -0.44, 7895.41 0.2, 9999.95 0.08 M10000.08 -0.06 C10000.09 0.27, 10000.05 0.48, 10000.09 0.92 M9999.97 0.01 C9999.95 0.33, 9999.98 0.72, 10000 0.99 M10000.22 1.51 C7095.77 35.76, 4193.15 34.95, -0.25 0.75 M10000.01 1.13 C7827.97 2.74, 5656.23 3.35, -0.33 0.84 M-0.04 1.01 C0 0.63, -0.06 0.15, 0.05 -0.03 M-0.04 0.95 C-0.04 0.73, -0.03 0.59, -0.05 -0.02" stroke="transparent" stroke-width="1" fill="none"></path></g><g transform="translate(564.4000244140625 581.2000122070312) rotate(0 1.20001220703125 20.399993896484375)" stroke="none"><path fill="#000" d="M 1.53,0.09 Q 1.53,0.09 1.54,3.79 1.55,7.48 1.46,11.54 1.38,15.59 1.57,20.49 1.76,25.38 2.46,29.67 3.16,33.95 3.50,35.84 3.85,37.74 3.86,37.95 3.87,38.16 3.82,38.36 3.76,38.57 3.64,38.75 3.53,38.92 3.36,39.05 3.19,39.18 2.99,39.25 2.79,39.32 2.57,39.32 2.36,39.32 2.16,39.26 1.96,39.19 1.79,39.06 1.62,38.93 1.50,38.76 1.38,38.58 1.32,38.38 1.26,38.18 1.27,37.96 1.28,37.75 1.36,37.55 1.44,37.36 1.57,37.19 1.71,37.03 1.89,36.92 2.07,36.81 2.28,36.76 2.49,36.71 2.70,36.74 2.91,36.76 3.10,36.85 3.30,36.93 3.45,37.08 3.61,37.22 3.71,37.41 3.81,37.60 3.84,37.81 3.88,38.02 3.85,38.23 3.81,38.44 3.72,38.63 3.62,38.81 3.46,38.96 3.31,39.11 3.12,39.20 2.93,39.29 2.71,39.31 2.50,39.34 2.30,39.29 2.09,39.25 1.91,39.14 1.72,39.03 1.58,38.87 1.45,38.71 1.37,38.51 1.29,38.32 1.29,38.32 1.29,38.32 0.78,36.46 0.27,34.61 -1.02,30.08 -2.32,25.55 -2.50,20.52 -2.69,15.49 -2.58,11.36 -2.47,7.23 -2.00,3.56 -1.53,-0.09 -1.50,-0.27 -1.47,-0.46 -1.39,-0.63 -1.31,-0.80 -1.20,-0.94 -1.08,-1.09 -0.94,-1.20 -0.79,-1.32 -0.62,-1.39 -0.45,-1.47 -0.27,-1.50 -0.08,-1.53 0.09,-1.52 0.28,-1.51 0.45,-1.46 0.63,-1.40 0.79,-1.30 0.95,-1.21 1.08,-1.07 1.21,-0.94 1.31,-0.78 1.40,-0.62 1.46,-0.45 1.51,-0.27 1.52,-0.08 1.53,0.09 1.53,0.09 L 1.53,0.09 Z"></path></g><g transform="translate(563.6000366210938 590) rotate(0 0.79998779296875 -0.79998779296875)" stroke="none"><path fill="#000" d="M 1.59,-0.49 Q 1.59,-0.49 1.62,-0.09 1.64,0.30 1.48,0.66 1.31,1.03 1.00,1.27 0.68,1.52 0.29,1.59 -0.10,1.66 -0.48,1.54 -0.86,1.43 -1.14,1.14 -1.43,0.86 -1.55,0.48 -1.66,0.10 -1.59,-0.29 -1.52,-0.68 -1.27,-1.00 -1.03,-1.31 -0.66,-1.48 -0.30,-1.64 0.09,-1.62 0.49,-1.59 0.84,-1.38 1.18,-1.18 1.38,-0.83 L 1.59,-0.49 Z"></path></g><g transform="translate(560.4000244140625 579.6000366210938) rotate(0 82.39999389648438 -6.4000244140625)" stroke="none"><path fill="#000" d="M -0.13,-1.68 Q -0.13,-1.68 44.01,-5.32 88.15,-8.96 108.77,-10.43 129.38,-11.89 139.07,-12.52 148.75,-13.14 153.28,-13.63 157.81,-14.12 159.68,-13.71 161.55,-13.31 161.76,-13.27 161.97,-13.22 162.15,-13.11 162.33,-13.01 162.47,-12.84 162.61,-12.68 162.69,-12.49 162.77,-12.29 162.78,-12.08 162.79,-11.86 162.74,-11.66 162.68,-11.45 162.56,-11.28 162.45,-11.10 162.28,-10.97 162.11,-10.84 161.91,-10.77 161.71,-10.71 161.49,-10.70 161.28,-10.70 161.08,-10.77 160.88,-10.84 160.71,-10.96 160.54,-11.09 160.42,-11.27 160.30,-11.44 160.24,-11.65 160.18,-11.85 160.19,-12.06 160.20,-12.28 160.28,-12.47 160.36,-12.67 160.50,-12.83 160.63,-13.00 160.81,-13.11 161.00,-13.22 161.20,-13.26 161.41,-13.31 161.62,-13.29 161.83,-13.27 162.03,-13.18 162.22,-13.09 162.37,-12.95 162.53,-12.80 162.63,-12.61 162.73,-12.43 162.77,-12.22 162.80,-12.01 162.77,-11.80 162.73,-11.59 162.64,-11.40 162.54,-11.21 162.38,-11.06 162.23,-10.92 162.04,-10.83 161.85,-10.74 161.63,-10.71 161.42,-10.69 161.42,-10.69 161.42,-10.69 159.84,-10.35 158.25,-10.01 153.64,-9.51 149.02,-9.01 139.35,-8.38 129.68,-7.76 109.08,-6.29 88.48,-4.83 44.30,-1.57 0.13,1.68 -0.07,1.67 -0.27,1.66 -0.47,1.61 -0.66,1.55 -0.84,1.45 -1.01,1.34 -1.16,1.20 -1.31,1.06 -1.42,0.89 -1.52,0.72 -1.59,0.52 -1.65,0.33 -1.67,0.13 -1.68,-0.07 -1.65,-0.27 -1.62,-0.47 -1.54,-0.66 -1.46,-0.84 -1.33,-1.01 -1.21,-1.17 -1.05,-1.30 -0.89,-1.43 -0.71,-1.51 -0.53,-1.60 -0.33,-1.64 -0.13,-1.68 -0.13,-1.68 L -0.13,-1.68 Z"></path></g><g transform="translate(589.2000122070312 623.6000366210938) rotate(0 69.19998168945312 -4.000030517578125)" stroke="none"><path fill="#000" d="M 0.58,1.36 Q 0.58,1.36 -2.51,3.02 -5.61,4.67 -5.85,4.74 -6.10,4.81 -6.35,4.82 -6.60,4.83 -6.84,4.78 -7.09,4.73 -7.32,4.63 -7.55,4.52 -7.74,4.36 -7.94,4.20 -8.09,4.00 -8.24,3.80 -8.34,3.57 -8.44,3.34 -8.48,3.09 -8.52,2.84 -8.50,2.59 -8.48,2.34 -8.40,2.10 -8.32,1.86 -8.19,1.65 -8.05,1.44 -7.87,1.26 -7.69,1.09 -7.47,0.96 -7.26,0.84 -4.44,0.40 -1.63,-0.03 3.31,-0.85 8.27,-1.68 15.40,-3.18 22.54,-4.67 31.17,-6.01 39.80,-7.35 49.24,-8.38 58.68,-9.41 68.69,-10.08 78.71,-10.75 91.26,-11.25 103.80,-11.76 113.26,-12.20 122.71,-12.65 128.97,-13.29 135.24,-13.93 139.10,-14.21 142.97,-14.49 145.66,-14.26 148.34,-14.03 148.55,-14.01 148.77,-13.99 148.96,-13.90 149.15,-13.81 149.31,-13.67 149.46,-13.53 149.57,-13.34 149.67,-13.15 149.70,-12.94 149.74,-12.73 149.71,-12.52 149.67,-12.31 149.58,-12.12 149.48,-11.94 149.33,-11.79 149.17,-11.64 148.98,-11.55 148.79,-11.46 148.58,-11.43 148.37,-11.41 148.16,-11.45 147.95,-11.50 147.77,-11.60 147.58,-11.71 147.45,-11.87 147.31,-12.03 147.23,-12.23 147.15,-12.43 147.13,-12.64 147.12,-12.85 147.17,-13.06 147.23,-13.26 147.35,-13.44 147.46,-13.62 147.63,-13.75 147.80,-13.88 148.00,-13.95 148.20,-14.02 148.41,-14.02 148.63,-14.02 148.83,-13.95 149.03,-13.89 149.20,-13.76 149.37,-13.63 149.49,-13.46 149.61,-13.28 149.67,-13.08 149.73,-12.87 149.72,-12.66 149.71,-12.45 149.63,-12.25 149.56,-12.05 149.42,-11.89 149.28,-11.73 149.10,-11.62 148.92,-11.51 148.72,-11.46 148.51,-11.41 148.51,-11.41 148.51,-11.41 145.89,-10.85 143.28,-10.28 139.47,-10.01 135.67,-9.74 129.29,-9.08 122.91,-8.42 113.44,-7.97 103.98,-7.52 91.49,-6.99 79.00,-6.47 69.07,-5.81 59.14,-5.15 49.80,-4.13 40.45,-3.11 31.94,-1.79 23.42,-0.47 16.19,1.03 8.97,2.54 3.94,3.38 -1.07,4.21 -3.34,4.44 -5.61,4.67 -5.85,4.74 -6.10,4.81 -6.35,4.82 -6.60,4.83 -6.84,4.78 -7.09,4.73 -7.32,4.63 -7.55,4.52 -7.74,4.36 -7.94,4.20 -8.09,4.00 -8.24,3.80 -8.34,3.57 -8.44,3.34 -8.48,3.09 -8.52,2.84 -8.50,2.59 -8.48,2.34 -8.40,2.10 -8.32,1.86 -8.19,1.65 -8.05,1.44 -7.87,1.26 -7.69,1.09 -7.47,0.96 -7.26,0.84 -3.92,-0.26 -0.58,-1.36 -0.41,-1.41 -0.24,-1.46 -0.06,-1.47 0.11,-1.48 0.29,-1.44 0.46,-1.41 0.62,-1.33 0.79,-1.25 0.93,-1.14 1.07,-1.03 1.17,-0.88 1.28,-0.74 1.35,-0.58 1.42,-0.41 1.45,-0.23 1.48,-0.06 1.47,0.11 1.45,0.29 1.40,0.46 1.34,0.63 1.24,0.78 1.15,0.93 1.02,1.06 0.89,1.18 0.74,1.27 0.58,1.36 0.58,1.36 L 0.58,1.36 Z"></path></g><g transform="translate(718.7999877929688 568.4000244140625) rotate(0 28 20.79998779296875)" stroke="none"><path fill="#000" d="M 0.09,-1.47 Q 0.09,-1.47 13.91,-0.83 27.73,-0.19 33.70,0.66 39.67,1.52 42.74,3.16 45.82,4.81 47.50,6.85 49.18,8.88 50.32,10.93 51.46,12.98 52.44,15.79 53.42,18.60 54.06,20.94 54.70,23.29 55.18,24.92 55.66,26.55 56.08,27.65 56.49,28.75 56.72,29.86 56.95,30.97 57.40,32.36 57.85,33.75 57.94,34.88 58.04,36.01 58.05,37.55 58.07,39.08 57.93,40.32 57.79,41.55 55.97,42.53 54.16,43.51 52.83,43.55 51.50,43.59 50.03,43.60 48.56,43.60 46.33,43.60 44.09,43.60 42.23,43.60 40.36,43.59 38.64,43.59 36.93,43.59 35.51,43.59 34.09,43.59 32.57,43.59 31.05,43.59 28.79,43.59 26.53,43.59 24.88,43.60 23.23,43.60 21.84,43.60 20.45,43.59 19.17,43.60 17.89,43.60 16.65,43.60 15.42,43.59 12.65,43.25 9.89,42.91 9.68,42.87 9.47,42.84 9.28,42.74 9.09,42.64 8.95,42.49 8.80,42.33 8.71,42.14 8.62,41.95 8.60,41.74 8.58,41.52 8.62,41.32 8.67,41.11 8.78,40.93 8.89,40.74 9.05,40.61 9.21,40.47 9.41,40.39 9.61,40.31 9.82,40.30 10.03,40.29 10.24,40.35 10.44,40.40 10.62,40.52 10.79,40.64 10.92,40.81 11.05,40.98 11.12,41.18 11.19,41.38 11.19,41.60 11.19,41.81 11.12,42.01 11.05,42.21 10.92,42.38 10.79,42.55 10.62,42.67 10.44,42.79 10.24,42.84 10.03,42.90 9.82,42.89 9.61,42.88 9.41,42.80 9.21,42.72 9.05,42.58 8.89,42.44 8.78,42.26 8.67,42.08 8.62,41.87 8.58,41.67 8.60,41.45 8.62,41.24 8.71,41.05 8.80,40.86 8.95,40.70 9.10,40.55 9.28,40.45 9.47,40.35 9.68,40.32 9.89,40.28 9.89,40.28 9.89,40.28 12.65,39.94 15.42,39.59 16.65,39.59 17.89,39.59 19.17,39.59 20.45,39.59 21.84,39.59 23.23,39.59 24.88,39.59 26.53,39.59 28.79,39.59 31.05,39.59 32.57,39.59 34.09,39.59 35.51,39.59 36.93,39.59 38.64,39.59 40.35,39.59 42.22,39.58 44.08,39.58 46.30,39.56 48.52,39.54 49.96,39.52 51.40,39.50 52.65,39.31 53.91,39.11 53.90,37.67 53.88,36.22 53.77,34.88 53.66,33.54 53.13,31.87 52.61,30.20 52.14,28.97 51.67,27.74 51.17,26.05 50.68,24.37 50.08,22.16 49.49,19.95 48.66,17.45 47.83,14.96 46.87,13.18 45.91,11.41 44.82,9.86 43.72,8.31 41.35,6.93 38.98,5.55 33.22,4.71 27.46,3.87 13.68,2.67 -0.09,1.47 -0.27,1.43 -0.44,1.40 -0.60,1.33 -0.77,1.25 -0.91,1.14 -1.05,1.03 -1.15,0.89 -1.26,0.75 -1.33,0.59 -1.41,0.43 -1.44,0.25 -1.47,0.07 -1.46,-0.09 -1.45,-0.27 -1.39,-0.44 -1.34,-0.61 -1.24,-0.76 -1.15,-0.91 -1.02,-1.04 -0.90,-1.16 -0.75,-1.25 -0.59,-1.34 -0.42,-1.40 -0.25,-1.45 -0.07,-1.46 0.09,-1.47 0.09,-1.47 L 0.09,-1.47 Z"></path></g><g transform="translate(602.7999877929688 582) rotate(0 -2.399993896484375 15.60003662109375)" stroke="none"><path fill="#000" d="M -1.63,0.37 Q -1.63,0.37 -2.50,-2.53 -3.36,-5.45 -5.23,-4.34 -7.10,-3.22 -8.85,-0.64 -10.60,1.93 -11.76,4.95 -12.91,7.97 -13.21,10.48 -13.51,13.00 -11.51,15.31 -9.51,17.61 -6.54,19.52 -3.57,21.43 -0.27,22.95 3.02,24.48 6.13,26.38 9.23,28.28 10.06,31.68 10.89,35.08 9.72,37.39 8.55,39.70 5.41,40.99 2.27,42.27 -0.94,42.70 -4.16,43.13 -7.39,42.23 -10.62,41.32 -12.39,40.23 -14.16,39.14 -14.34,39.02 -14.52,38.90 -14.65,38.74 -14.78,38.57 -14.85,38.37 -14.92,38.17 -14.92,37.95 -14.92,37.74 -14.86,37.54 -14.79,37.34 -14.67,37.17 -14.54,37.00 -14.36,36.88 -14.19,36.75 -13.99,36.70 -13.78,36.64 -13.57,36.65 -13.36,36.66 -13.16,36.73 -12.96,36.81 -12.80,36.94 -12.63,37.08 -12.52,37.26 -12.41,37.44 -12.36,37.65 -12.32,37.86 -12.34,38.07 -12.36,38.28 -12.44,38.47 -12.53,38.67 -12.68,38.82 -12.82,38.98 -13.01,39.08 -13.19,39.18 -13.40,39.22 -13.61,39.25 -13.82,39.22 -14.03,39.19 -14.22,39.09 -14.41,38.99 -14.56,38.84 -14.71,38.69 -14.80,38.50 -14.89,38.31 -14.91,38.09 -14.94,37.88 -14.89,37.68 -14.85,37.47 -14.74,37.28 -14.64,37.10 -14.48,36.96 -14.32,36.82 -14.12,36.74 -13.92,36.66 -13.71,36.65 -13.50,36.63 -13.29,36.69 -13.09,36.74 -13.09,36.74 -13.09,36.74 -11.37,37.22 -9.66,37.70 -7.13,38.30 -4.60,38.90 -1.85,38.55 0.89,38.19 3.14,37.63 5.39,37.07 6.08,36.13 6.77,35.18 6.56,33.08 6.36,30.98 3.78,29.68 1.20,28.38 -2.37,26.70 -5.94,25.02 -9.42,22.64 -12.89,20.26 -15.22,16.81 -17.56,13.36 -17.23,9.90 -16.91,6.44 -15.51,2.97 -14.12,-0.48 -12.03,-3.42 -9.94,-6.35 -7.60,-8.16 -5.27,-9.97 -3.60,-9.81 -1.94,-9.64 -0.66,-8.07 0.60,-6.50 1.12,-3.44 1.63,-0.37 1.66,-0.17 1.68,0.02 1.65,0.22 1.62,0.42 1.55,0.61 1.47,0.80 1.36,0.96 1.24,1.13 1.08,1.26 0.93,1.39 0.75,1.49 0.57,1.58 0.37,1.62 0.17,1.67 -0.02,1.67 -0.22,1.66 -0.42,1.61 -0.62,1.56 -0.79,1.46 -0.97,1.37 -1.12,1.23 -1.27,1.09 -1.38,0.92 -1.50,0.75 -1.57,0.56 -1.63,0.37 -1.63,0.37 L -1.63,0.37 Z"></path></g><g transform="translate(620.4000244140625 581.2000122070312) rotate(0 4.79998779296875 15.600006103515625)" stroke="none"><path fill="#000" d="M 1.85,-0.67 Q 1.85,-0.67 2.89,1.81 3.93,4.29 5.23,7.39 6.53,10.48 7.78,13.42 9.03,16.36 9.84,19.63 10.66,22.89 10.96,25.03 11.26,27.18 10.36,29.04 9.46,30.89 9.36,31.08 9.27,31.27 9.12,31.42 8.97,31.58 8.78,31.67 8.59,31.77 8.38,31.80 8.17,31.83 7.96,31.79 7.75,31.75 7.57,31.65 7.38,31.55 7.24,31.39 7.10,31.23 7.01,31.04 6.93,30.84 6.91,30.63 6.89,30.42 6.94,30.21 6.99,30.01 7.10,29.83 7.21,29.65 7.38,29.51 7.54,29.38 7.74,29.30 7.94,29.23 8.15,29.22 8.36,29.21 8.57,29.27 8.77,29.33 8.95,29.46 9.12,29.58 9.24,29.75 9.37,29.92 9.43,30.13 9.50,30.33 9.49,30.54 9.49,30.75 9.42,30.95 9.35,31.15 9.21,31.32 9.08,31.49 8.90,31.60 8.73,31.72 8.52,31.77 8.31,31.82 8.10,31.81 7.89,31.79 7.69,31.71 7.50,31.63 7.34,31.49 7.18,31.35 7.07,31.16 6.97,30.98 6.93,30.77 6.89,30.56 6.91,30.35 6.94,30.14 6.94,30.14 6.94,30.14 6.96,28.91 6.97,27.68 6.63,25.82 6.29,23.96 5.58,21.04 4.87,18.11 3.63,15.16 2.38,12.21 1.06,9.01 -0.25,5.82 -1.05,3.24 -1.85,0.67 -1.90,0.44 -1.95,0.21 -1.95,-0.02 -1.95,-0.26 -1.89,-0.49 -1.83,-0.72 -1.71,-0.93 -1.60,-1.14 -1.44,-1.31 -1.28,-1.49 -1.08,-1.62 -0.89,-1.75 -0.66,-1.83 -0.44,-1.91 -0.20,-1.94 0.02,-1.96 0.26,-1.93 0.49,-1.90 0.71,-1.81 0.93,-1.73 1.13,-1.59 1.32,-1.45 1.48,-1.27 1.63,-1.09 1.74,-0.88 1.85,-0.67 1.85,-0.67 L 1.85,-0.67 Z"></path></g><g transform="translate(615.6000366210938 606) rotate(0 60 -25.600006103515625)" stroke="none"><path fill="#000" d="M -0.27,-2.12 Q -0.27,-2.12 8.70,-3.23 17.67,-4.33 21.74,-4.86 25.80,-5.40 28.33,-4.93 30.85,-4.46 32.71,-4.02 34.57,-3.58 36.34,-3.42 38.12,-3.26 39.79,-3.60 41.45,-3.93 42.96,-4.63 44.47,-5.34 45.30,-6.35 46.13,-7.36 44.38,-7.61 42.62,-7.87 41.36,-7.72 40.10,-7.57 38.90,-6.91 37.70,-6.25 38.59,-5.60 39.47,-4.95 41.40,-6.07 43.33,-7.19 44.77,-8.85 46.22,-10.50 46.76,-12.56 47.30,-14.62 47.58,-17.04 47.86,-19.47 46.65,-23.19 45.44,-26.91 44.03,-30.15 42.62,-33.40 41.37,-35.38 40.12,-37.35 39.36,-38.43 38.60,-39.51 38.26,-40.21 37.92,-40.92 37.80,-41.15 37.68,-41.38 37.62,-41.63 37.55,-41.88 37.55,-42.14 37.55,-42.40 37.61,-42.65 37.68,-42.90 37.80,-43.13 37.91,-43.36 38.09,-43.56 38.26,-43.75 38.47,-43.90 38.68,-44.05 38.93,-44.14 39.17,-44.23 39.42,-44.26 39.68,-44.30 39.94,-44.26 40.20,-44.23 40.44,-44.14 40.68,-44.05 40.90,-43.91 41.11,-43.76 41.28,-43.57 41.45,-43.37 41.52,-41.56 41.58,-39.75 42.23,-37.36 42.88,-34.98 43.86,-31.07 44.84,-27.16 46.16,-23.04 47.47,-18.91 48.75,-14.33 50.03,-9.75 51.21,-6.79 52.39,-3.83 53.51,-2.02 54.62,-0.20 55.58,0.60 56.55,1.41 58.20,0.49 59.86,-0.41 60.88,-2.10 61.90,-3.79 62.32,-5.69 62.75,-7.59 62.75,-9.11 62.75,-10.64 61.95,-9.05 61.15,-7.47 74.27,-8.29 87.39,-9.11 93.41,-9.84 99.43,-10.57 102.10,-12.09 104.78,-13.61 105.99,-15.59 107.20,-17.58 107.53,-20.23 107.87,-22.88 106.94,-26.37 106.02,-29.87 104.29,-33.89 102.56,-37.92 100.39,-42.15 98.23,-46.38 96.82,-48.56 95.42,-50.73 94.78,-52.00 94.15,-53.27 93.86,-53.54 93.58,-53.82 93.49,-54.07 93.41,-54.32 93.38,-54.59 93.36,-54.85 93.40,-55.11 93.44,-55.38 93.54,-55.62 93.64,-55.87 93.80,-56.08 93.96,-56.29 94.16,-56.46 94.37,-56.63 94.61,-56.75 94.85,-56.86 95.11,-56.92 95.37,-56.98 95.63,-56.97 95.90,-56.96 96.15,-56.89 96.41,-56.81 96.64,-56.68 96.87,-56.55 97.06,-56.37 97.26,-56.19 97.40,-55.96 97.54,-55.74 98.14,-54.80 98.73,-53.85 99.99,-51.01 101.25,-48.17 102.89,-44.76 104.53,-41.35 105.98,-37.48 107.42,-33.61 108.94,-29.73 110.46,-25.85 112.05,-20.91 113.64,-15.96 114.55,-12.44 115.47,-8.92 116.27,-6.64 117.07,-4.36 117.63,-3.37 118.18,-2.39 117.17,-2.04 116.16,-1.70 117.32,-2.90 118.47,-4.10 118.62,-4.25 118.77,-4.40 118.95,-4.50 119.14,-4.60 119.35,-4.63 119.56,-4.67 119.77,-4.63 119.98,-4.59 120.17,-4.49 120.35,-4.39 120.50,-4.24 120.64,-4.08 120.73,-3.89 120.82,-3.69 120.84,-3.48 120.86,-3.27 120.82,-3.06 120.77,-2.86 120.66,-2.68 120.55,-2.49 120.38,-2.36 120.22,-2.22 120.02,-2.14 119.82,-2.07 119.61,-2.06 119.40,-2.05 119.20,-2.11 118.99,-2.16 118.82,-2.29 118.64,-2.41 118.51,-2.58 118.39,-2.75 118.32,-2.95 118.25,-3.15 118.26,-3.36 118.26,-3.58 118.33,-3.78 118.40,-3.98 118.53,-4.14 118.66,-4.31 118.83,-4.43 119.01,-4.55 119.22,-4.60 119.42,-4.66 119.63,-4.65 119.84,-4.63 120.04,-4.55 120.24,-4.47 120.40,-4.33 120.56,-4.19 120.67,-4.01 120.78,-3.83 120.82,-3.62 120.86,-3.41 120.84,-3.20 120.81,-2.99 120.72,-2.80 120.63,-2.61 120.63,-2.61 120.63,-2.61 119.78,-0.89 118.92,0.82 116.76,0.56 114.59,0.31 113.51,-1.19 112.44,-2.69 111.56,-5.19 110.68,-7.68 109.81,-11.07 108.93,-14.45 107.40,-19.27 105.87,-24.08 104.36,-28.00 102.86,-31.93 101.52,-35.61 100.19,-39.28 98.54,-42.80 96.88,-46.31 95.81,-48.95 94.73,-51.59 94.16,-52.70 93.58,-53.82 93.49,-54.07 93.41,-54.32 93.38,-54.59 93.36,-54.85 93.40,-55.11 93.44,-55.38 93.54,-55.62 93.64,-55.87 93.80,-56.08 93.96,-56.29 94.16,-56.46 94.37,-56.63 94.61,-56.75 94.85,-56.86 95.11,-56.92 95.37,-56.98 95.63,-56.97 95.90,-56.96 96.15,-56.89 96.41,-56.81 96.64,-56.68 96.87,-56.55 97.06,-56.37 97.26,-56.19 97.40,-55.96 97.54,-55.74 97.75,-55.45 97.96,-55.17 98.49,-54.03 99.02,-52.90 100.36,-50.50 101.69,-48.11 103.81,-43.74 105.93,-39.37 107.79,-35.08 109.64,-30.79 110.66,-26.63 111.68,-22.46 111.17,-18.98 110.67,-15.51 108.81,-12.83 106.96,-10.14 103.51,-8.25 100.07,-6.36 93.84,-5.57 87.62,-4.77 74.10,-4.17 60.58,-3.56 59.18,-6.94 57.77,-10.32 58.46,-11.93 59.15,-13.53 60.22,-14.29 61.30,-15.04 63.10,-14.67 64.90,-14.29 65.87,-12.67 66.84,-11.04 66.85,-8.83 66.86,-6.63 66.20,-4.09 65.55,-1.55 64.05,0.72 62.54,3.00 60.08,4.57 57.62,6.15 55.55,5.57 53.48,4.99 52.04,3.64 50.59,2.29 49.29,0.11 47.98,-2.07 46.72,-5.28 45.45,-8.48 44.22,-12.99 42.99,-17.50 41.66,-21.78 40.32,-26.06 39.38,-30.01 38.44,-33.97 38.18,-37.44 37.92,-40.92 37.80,-41.15 37.68,-41.38 37.62,-41.63 37.55,-41.88 37.55,-42.14 37.55,-42.40 37.61,-42.65 37.68,-42.90 37.79,-43.13 37.91,-43.36 38.09,-43.56 38.26,-43.75 38.47,-43.90 38.68,-44.05 38.92,-44.14 39.17,-44.23 39.42,-44.26 39.68,-44.30 39.94,-44.26 40.20,-44.23 40.44,-44.14 40.68,-44.05 40.90,-43.91 41.11,-43.76 41.28,-43.57 41.45,-43.37 41.78,-42.66 42.12,-41.94 42.92,-40.76 43.73,-39.58 45.09,-37.32 46.46,-35.06 47.95,-31.59 49.44,-28.12 50.72,-23.62 52.00,-19.12 51.65,-16.26 51.30,-13.41 50.36,-10.61 49.41,-7.82 47.37,-5.65 45.32,-3.47 42.28,-2.07 39.24,-0.68 37.15,-1.12 35.07,-1.56 33.95,-2.76 32.84,-3.95 33.06,-6.03 33.28,-8.11 34.53,-9.21 35.77,-10.31 37.74,-11.11 39.71,-11.92 41.57,-11.97 43.42,-12.03 45.32,-11.48 47.23,-10.93 48.27,-9.70 49.31,-8.47 49.08,-6.48 48.85,-4.49 47.59,-3.11 46.32,-1.73 44.31,-0.73 42.31,0.26 40.03,0.69 37.75,1.11 35.66,0.90 33.56,0.69 31.73,0.26 29.90,-0.16 28.07,-0.65 26.24,-1.15 22.22,-0.70 18.20,-0.26 9.23,0.93 0.27,2.12 0.01,2.12 -0.24,2.12 -0.49,2.06 -0.74,2.00 -0.97,1.88 -1.20,1.76 -1.39,1.59 -1.59,1.42 -1.74,1.21 -1.88,1.00 -1.98,0.76 -2.07,0.52 -2.10,0.27 -2.13,0.01 -2.11,-0.24 -2.08,-0.49 -1.99,-0.74 -1.90,-0.98 -1.75,-1.19 -1.61,-1.40 -1.41,-1.58 -1.22,-1.75 -0.99,-1.87 -0.77,-1.99 -0.52,-2.05 -0.27,-2.12 -0.27,-2.12 L -0.27,-2.12 Z"></path></g><g transform="translate(703.6000366210938 575.6000366210938) rotate(0 28.79998779296875 -5.20001220703125)" stroke="none"><path fill="#000" d="M -0.27,-2.21 Q -0.27,-2.21 3.39,-2.77 7.05,-3.33 12.43,-4.45 17.81,-5.58 26.36,-7.18 34.92,-8.78 41.37,-9.67 47.82,-10.56 50.58,-10.76 53.35,-10.96 53.56,-10.97 53.77,-10.97 53.98,-10.91 54.18,-10.84 54.35,-10.72 54.52,-10.59 54.64,-10.42 54.76,-10.24 54.82,-10.04 54.88,-9.83 54.88,-9.62 54.87,-9.41 54.79,-9.21 54.72,-9.01 54.58,-8.85 54.45,-8.68 54.27,-8.57 54.09,-8.46 53.88,-8.41 53.67,-8.36 53.46,-8.38 53.25,-8.40 53.06,-8.49 52.86,-8.57 52.71,-8.72 52.55,-8.86 52.45,-9.05 52.34,-9.23 52.31,-9.44 52.27,-9.65 52.30,-9.86 52.33,-10.07 52.43,-10.26 52.52,-10.45 52.68,-10.60 52.83,-10.75 53.02,-10.84 53.21,-10.93 53.42,-10.96 53.63,-10.98 53.84,-10.94 54.05,-10.90 54.23,-10.79 54.42,-10.69 54.56,-10.53 54.70,-10.37 54.78,-10.17 54.86,-9.97 54.87,-9.76 54.89,-9.55 54.84,-9.34 54.78,-9.14 54.67,-8.96 54.55,-8.78 54.38,-8.65 54.21,-8.52 54.01,-8.45 53.81,-8.38 53.81,-8.38 53.81,-8.38 51.15,-7.60 48.49,-6.83 42.16,-5.42 35.83,-4.01 27.31,-2.36 18.80,-0.71 13.23,0.38 7.66,1.49 3.96,1.85 0.27,2.21 0.00,2.21 -0.26,2.21 -0.52,2.15 -0.78,2.09 -1.02,1.96 -1.26,1.84 -1.46,1.66 -1.66,1.48 -1.82,1.26 -1.97,1.04 -2.07,0.79 -2.16,0.54 -2.20,0.27 -2.23,0.00 -2.20,-0.25 -2.17,-0.52 -2.07,-0.77 -1.98,-1.03 -1.82,-1.25 -1.67,-1.47 -1.47,-1.65 -1.27,-1.83 -1.03,-1.96 -0.79,-2.08 -0.53,-2.15 -0.27,-2.21 -0.27,-2.21 L -0.27,-2.21 Z"></path></g><g transform="translate(774.7999877929688 586) rotate(0 90 -18.399993896484375)" stroke="none"><path fill="#000" d="M -0.23,-1.88 Q -0.23,-1.88 1.58,-2.28 3.40,-2.69 7.05,-2.81 10.70,-2.94 17.87,-3.67 25.04,-4.40 42.25,-8.14 59.47,-11.88 68.31,-15.03 77.15,-18.19 82.21,-20.86 87.26,-23.53 90.77,-25.80 94.27,-28.06 96.69,-29.71 99.11,-31.37 101.54,-33.00 103.97,-34.64 105.49,-35.59 107.01,-36.53 108.14,-37.18 109.27,-37.83 110.81,-38.33 112.35,-38.83 114.59,-38.31 116.82,-37.78 118.01,-37.16 119.20,-36.54 120.92,-35.56 122.64,-34.58 126.02,-33.08 129.40,-31.58 133.15,-30.03 136.91,-28.47 141.17,-27.14 145.43,-25.82 150.01,-24.57 154.59,-23.32 159.13,-21.84 163.67,-20.36 167.87,-19.06 172.06,-17.75 174.45,-17.22 176.84,-16.68 177.85,-14.11 178.85,-11.53 178.64,-11.54 178.43,-11.54 178.23,-11.62 178.03,-11.69 177.87,-11.83 177.70,-11.96 177.59,-12.14 177.47,-12.32 177.42,-12.53 177.37,-12.73 177.39,-12.95 177.41,-13.16 177.50,-13.35 177.58,-13.55 177.72,-13.70 177.87,-13.86 178.05,-13.96 178.24,-14.07 178.45,-14.11 178.66,-14.15 178.87,-14.12 179.08,-14.09 179.27,-13.99 179.46,-13.89 179.61,-13.74 179.76,-13.59 179.85,-13.40 179.94,-13.21 179.97,-13.00 180.00,-12.79 179.95,-12.58 179.91,-12.37 179.81,-12.19 179.70,-12.00 179.54,-11.86 179.38,-11.72 179.19,-11.64 178.99,-11.56 178.78,-11.54 178.57,-11.52 178.36,-11.58 178.16,-11.63 177.98,-11.74 177.80,-11.86 177.67,-12.03 177.54,-12.19 177.46,-12.39 177.39,-12.59 177.39,-12.81 177.38,-13.02 177.45,-13.22 177.51,-13.42 177.64,-13.60 177.76,-13.77 177.93,-13.89 178.11,-14.01 178.31,-14.07 178.51,-14.13 178.51,-14.13 178.51,-14.13 177.17,-13.14 175.82,-12.15 173.25,-12.73 170.68,-13.31 166.46,-14.63 162.24,-15.94 157.80,-17.38 153.36,-18.82 148.70,-20.11 144.05,-21.40 139.59,-22.80 135.12,-24.20 131.32,-25.81 127.53,-27.42 123.96,-29.04 120.39,-30.67 118.76,-31.61 117.12,-32.56 115.62,-33.55 114.12,-34.54 112.80,-34.23 111.49,-33.92 110.43,-33.32 109.38,-32.73 107.92,-31.83 106.47,-30.93 104.06,-29.30 101.65,-27.67 99.18,-25.98 96.71,-24.28 93.04,-21.91 89.37,-19.55 84.03,-16.73 78.69,-13.91 69.57,-10.65 60.45,-7.39 42.97,-3.61 25.50,0.16 18.16,0.89 10.82,1.63 7.39,1.70 3.95,1.77 2.09,1.82 0.23,1.88 0.00,1.88 -0.22,1.88 -0.44,1.82 -0.66,1.77 -0.86,1.66 -1.07,1.56 -1.24,1.41 -1.41,1.26 -1.54,1.07 -1.67,0.88 -1.75,0.67 -1.83,0.46 -1.86,0.23 -1.89,0.00 -1.86,-0.22 -1.84,-0.44 -1.76,-0.66 -1.68,-0.87 -1.55,-1.06 -1.42,-1.25 -1.25,-1.40 -1.08,-1.55 -0.88,-1.66 -0.67,-1.77 -0.45,-1.82 -0.23,-1.88 -0.23,-1.88 L -0.23,-1.88 Z"></path></g><g transform="translate(834 582.7999877929688) rotate(0 32.4000244140625 9.20001220703125)" stroke="none"><path fill="#000" d="M -1.00,1.33 Q -1.00,1.33 -2.04,0.81 -3.09,0.29 -4.25,-0.71 -5.42,-1.72 -5.59,-1.90 -5.77,-2.09 -5.89,-2.31 -6.01,-2.53 -6.08,-2.78 -6.15,-3.02 -6.15,-3.27 -6.16,-3.53 -6.10,-3.78 -6.05,-4.02 -5.94,-4.25 -5.82,-4.48 -5.66,-4.67 -5.50,-4.87 -5.29,-5.01 -5.09,-5.16 -4.85,-5.26 -4.62,-5.35 -4.37,-5.39 -4.12,-5.43 -3.86,-5.40 -3.61,-5.38 -3.37,-5.30 -3.13,-5.21 -2.92,-5.07 -2.71,-4.93 -1.16,-4.41 0.37,-3.89 3.07,-2.70 5.76,-1.52 9.65,0.12 13.54,1.77 18.21,3.86 22.89,5.94 29.62,8.41 36.35,10.88 42.16,12.60 47.98,14.33 52.78,15.77 57.58,17.20 60.65,17.79 63.72,18.37 65.81,19.07 67.90,19.76 68.11,19.71 68.31,19.65 68.52,19.66 68.73,19.67 68.93,19.75 69.13,19.83 69.29,19.96 69.45,20.10 69.56,20.28 69.67,20.46 69.72,20.67 69.77,20.88 69.74,21.09 69.72,21.30 69.63,21.50 69.54,21.69 69.40,21.84 69.25,22.00 69.06,22.10 68.88,22.20 68.67,22.23 68.46,22.27 68.25,22.23 68.04,22.20 67.85,22.10 67.66,22.00 67.52,21.85 67.37,21.69 67.28,21.50 67.19,21.31 67.17,21.10 67.14,20.89 67.19,20.68 67.23,20.47 67.34,20.29 67.45,20.11 67.61,19.97 67.78,19.83 67.97,19.75 68.17,19.67 68.38,19.66 68.59,19.65 68.80,19.70 69.00,19.76 69.18,19.88 69.36,20.00 69.48,20.17 69.61,20.34 69.68,20.54 69.75,20.74 69.75,20.95 69.75,21.16 69.68,21.36 69.62,21.57 69.49,21.74 69.36,21.91 69.18,22.02 69.01,22.14 69.01,22.14 69.01,22.14 65.92,22.58 62.84,23.01 59.53,22.38 56.22,21.75 51.42,20.31 46.62,18.88 40.67,17.10 34.72,15.33 27.83,12.80 20.95,10.27 16.32,8.18 11.70,6.08 7.77,4.40 3.84,2.71 1.13,1.46 -1.57,0.20 -3.49,-0.75 -5.42,-1.72 -5.59,-1.90 -5.77,-2.09 -5.89,-2.31 -6.01,-2.53 -6.08,-2.78 -6.15,-3.02 -6.15,-3.27 -6.16,-3.53 -6.10,-3.78 -6.05,-4.02 -5.94,-4.25 -5.82,-4.48 -5.66,-4.67 -5.50,-4.87 -5.29,-5.01 -5.09,-5.16 -4.85,-5.26 -4.62,-5.35 -4.37,-5.39 -4.12,-5.43 -3.86,-5.40 -3.61,-5.38 -3.37,-5.30 -3.13,-5.21 -2.92,-5.07 -2.71,-4.93 -1.65,-3.99 -0.58,-3.05 0.20,-2.19 1.00,-1.33 1.14,-1.19 1.29,-1.05 1.40,-0.88 1.50,-0.71 1.57,-0.52 1.63,-0.33 1.65,-0.13 1.67,0.06 1.63,0.26 1.60,0.46 1.52,0.64 1.44,0.83 1.32,0.99 1.20,1.15 1.05,1.28 0.89,1.41 0.71,1.49 0.53,1.58 0.33,1.62 0.13,1.66 -0.06,1.65 -0.26,1.65 -0.46,1.59 -0.65,1.53 -0.82,1.43 -1.00,1.33 -1.00,1.33 L -1.00,1.33 Z"></path></g><g transform="translate(958 563.6000366210938) rotate(0 -29.199981689453125 18)" stroke="none"><path fill="#000" d="M 0.92,1.51 Q 0.92,1.51 -15.03,11.61 -31.00,21.72 -38.31,26.15 -45.62,30.58 -48.67,32.67 -51.73,34.75 -54.24,35.66 -56.76,36.57 -56.96,36.64 -57.16,36.72 -57.37,36.73 -57.58,36.73 -57.79,36.67 -57.99,36.61 -58.17,36.49 -58.34,36.37 -58.47,36.20 -58.59,36.03 -58.66,35.82 -58.72,35.62 -58.72,35.41 -58.71,35.20 -58.64,35.00 -58.57,34.80 -58.44,34.63 -58.31,34.46 -58.13,34.35 -57.95,34.23 -57.75,34.18 -57.54,34.12 -57.33,34.14 -57.12,34.15 -56.92,34.23 -56.73,34.32 -56.57,34.46 -56.41,34.60 -56.30,34.78 -56.19,34.96 -56.15,35.17 -56.11,35.38 -56.14,35.59 -56.16,35.80 -56.25,35.99 -56.35,36.19 -56.50,36.34 -56.64,36.49 -56.83,36.59 -57.02,36.68 -57.23,36.71 -57.44,36.74 -57.65,36.71 -57.86,36.67 -58.05,36.57 -58.23,36.46 -58.38,36.31 -58.52,36.15 -58.61,35.96 -58.69,35.76 -58.71,35.55 -58.73,35.34 -58.68,35.13 -58.63,34.92 -58.52,34.74 -58.41,34.56 -58.24,34.43 -58.08,34.29 -58.08,34.29 -58.08,34.29 -56.18,32.64 -54.29,30.99 -51.13,28.84 -47.98,26.70 -40.68,22.27 -33.39,17.83 -17.16,8.16 -0.92,-1.51 -0.73,-1.60 -0.54,-1.69 -0.33,-1.73 -0.11,-1.77 0.09,-1.76 0.30,-1.74 0.51,-1.68 0.71,-1.62 0.90,-1.51 1.08,-1.40 1.23,-1.25 1.39,-1.10 1.50,-0.92 1.61,-0.74 1.67,-0.53 1.74,-0.33 1.75,-0.11 1.77,0.09 1.73,0.30 1.69,0.51 1.61,0.71 1.52,0.90 1.39,1.07 1.26,1.24 1.09,1.37 0.92,1.51 0.92,1.51 L 0.92,1.51 Z"></path></g><g transform="translate(947.6000366210938 570) rotate(0 54.79998779296875 -2.399993896484375)" stroke="none"><path fill="#000" d="M -0.35,-1.67 Q -0.35,-1.67 2.79,-2.67 5.94,-3.67 13.42,-4.47 20.89,-5.27 28.45,-5.60 36.02,-5.93 48.67,-6.06 61.32,-6.20 75.65,-6.13 89.98,-6.06 96.07,-5.99 102.16,-5.93 102.38,-5.90 102.59,-5.87 102.78,-5.77 102.96,-5.68 103.11,-5.52 103.26,-5.37 103.36,-5.18 103.45,-4.99 103.48,-4.78 103.50,-4.57 103.46,-4.36 103.42,-4.15 103.31,-3.97 103.21,-3.78 103.05,-3.64 102.89,-3.50 102.69,-3.42 102.50,-3.34 102.29,-3.32 102.08,-3.31 101.87,-3.36 101.66,-3.41 101.49,-3.53 101.31,-3.64 101.18,-3.81 101.04,-3.98 100.97,-4.18 100.90,-4.38 100.90,-4.59 100.89,-4.80 100.96,-5.00 101.02,-5.21 101.14,-5.38 101.27,-5.55 101.44,-5.67 101.62,-5.79 101.82,-5.86 102.02,-5.92 102.24,-5.91 102.45,-5.90 102.65,-5.83 102.85,-5.75 103.01,-5.62 103.18,-5.48 103.29,-5.30 103.40,-5.12 103.45,-4.92 103.50,-4.71 103.48,-4.50 103.46,-4.29 103.38,-4.09 103.29,-3.90 103.15,-3.74 103.01,-3.58 102.82,-3.48 102.64,-3.38 102.43,-3.34 102.22,-3.30 102.22,-3.30 102.22,-3.30 96.13,-2.99 90.04,-2.68 75.71,-2.03 61.37,-1.39 48.80,-1.25 36.22,-1.12 28.80,-0.81 21.38,-0.50 14.15,0.20 6.93,0.91 3.64,1.29 0.35,1.67 0.15,1.68 -0.05,1.70 -0.25,1.67 -0.45,1.64 -0.64,1.56 -0.83,1.48 -1.00,1.36 -1.17,1.24 -1.30,1.08 -1.43,0.92 -1.52,0.74 -1.61,0.55 -1.65,0.35 -1.70,0.15 -1.69,-0.05 -1.68,-0.25 -1.63,-0.45 -1.57,-0.65 -1.47,-0.83 -1.37,-1.01 -1.23,-1.16 -1.09,-1.31 -0.91,-1.42 -0.74,-1.53 -0.55,-1.60 -0.35,-1.67 -0.35,-1.67 L -0.35,-1.67 Z"></path></g><g transform="translate(881.2000122070312 558.7999877929688) rotate(0 18.399993896484375 17.20001220703125)" stroke="none"><path fill="#000" d="M 1.72,0.40 Q 1.72,0.40 -0.32,10.35 -2.36,20.29 -3.32,23.66 -4.27,27.03 -3.72,27.89 -3.17,28.75 -3.25,29.00 -3.33,29.26 -3.47,29.49 -3.61,29.71 -3.80,29.90 -3.99,30.09 -4.22,30.23 -4.44,30.37 -4.70,30.44 -4.96,30.52 -5.22,30.54 -5.49,30.55 -5.75,30.50 -6.02,30.45 -6.26,30.34 -6.50,30.23 -6.71,30.06 -6.92,29.90 -7.08,29.69 -7.25,29.48 -7.36,29.23 -7.47,28.99 -7.51,28.73 -7.56,28.46 -7.54,28.20 -7.52,27.93 -6.48,26.28 -5.43,24.63 -4.60,23.42 -3.77,22.21 -3.21,21.28 -2.65,20.34 -1.05,19.26 0.54,18.19 2.75,18.87 4.96,19.56 6.20,19.96 7.45,20.35 8.75,20.50 10.05,20.65 11.41,20.76 12.78,20.87 14.06,19.92 15.35,18.98 16.64,17.73 17.92,16.49 18.63,15.41 19.33,14.33 18.64,15.93 17.95,17.54 18.11,16.07 18.27,14.59 19.72,13.94 21.17,13.29 22.80,13.17 24.44,13.05 25.92,13.04 27.41,13.03 28.53,12.83 29.64,12.63 30.68,11.61 31.72,10.59 33.17,9.08 34.63,7.57 36.37,7.99 38.11,8.41 40.72,10.59 43.32,12.78 42.78,17.18 42.25,21.58 42.20,21.78 42.15,21.99 42.03,22.17 41.92,22.34 41.75,22.48 41.58,22.61 41.38,22.68 41.18,22.76 40.97,22.76 40.76,22.77 40.56,22.70 40.35,22.64 40.18,22.52 40.01,22.39 39.89,22.22 39.76,22.05 39.70,21.84 39.64,21.64 39.64,21.43 39.65,21.21 39.72,21.02 39.80,20.82 39.93,20.65 40.07,20.49 40.25,20.37 40.42,20.26 40.63,20.21 40.84,20.16 41.05,20.17 41.26,20.19 41.46,20.28 41.65,20.36 41.81,20.50 41.97,20.65 42.07,20.83 42.17,21.02 42.21,21.22 42.25,21.43 42.22,21.64 42.19,21.85 42.10,22.04 42.00,22.23 41.85,22.38 41.70,22.53 41.51,22.63 41.32,22.72 41.11,22.75 40.90,22.78 40.69,22.74 40.48,22.70 40.30,22.59 40.11,22.49 39.97,22.33 39.83,22.17 39.75,21.97 39.66,21.78 39.65,21.57 39.63,21.35 39.63,21.36 39.63,21.36 39.75,17.91 39.88,14.46 37.87,12.62 35.87,10.77 35.49,11.86 35.11,12.95 34.15,14.18 33.18,15.41 31.82,16.13 30.47,16.85 28.96,17.12 27.45,17.39 25.32,17.41 23.19,17.43 22.15,17.61 21.10,17.79 20.28,18.53 19.46,19.27 17.46,19.95 15.46,20.63 14.51,18.33 13.55,16.03 14.16,14.56 14.77,13.09 15.92,11.93 17.08,10.77 18.70,10.11 20.33,9.45 21.66,10.05 23.00,10.65 23.47,12.10 23.93,13.54 23.44,15.10 22.94,16.66 21.95,18.14 20.95,19.62 19.31,21.17 17.67,22.71 15.34,23.99 13.00,25.28 11.24,25.22 9.48,25.17 7.76,24.93 6.04,24.70 4.52,24.19 2.99,23.67 1.96,23.11 0.94,22.54 0.34,23.56 -0.24,24.59 -1.06,25.82 -1.87,27.05 -2.52,27.90 -3.17,28.75 -3.25,29.00 -3.33,29.26 -3.47,29.49 -3.61,29.71 -3.80,29.90 -3.99,30.09 -4.22,30.23 -4.44,30.36 -4.70,30.44 -4.96,30.52 -5.22,30.54 -5.49,30.55 -5.75,30.50 -6.01,30.45 -6.26,30.34 -6.50,30.23 -6.71,30.07 -6.92,29.90 -7.08,29.69 -7.25,29.48 -7.36,29.23 -7.47,28.99 -7.51,28.73 -7.56,28.46 -7.54,28.20 -7.52,27.93 -7.72,28.17 -7.91,28.42 -7.37,23.84 -6.83,19.26 -4.27,9.42 -1.72,-0.40 -1.65,-0.60 -1.57,-0.80 -1.46,-0.98 -1.34,-1.15 -1.18,-1.30 -1.02,-1.44 -0.83,-1.54 -0.65,-1.64 -0.44,-1.70 -0.23,-1.75 -0.02,-1.75 0.19,-1.76 0.39,-1.71 0.60,-1.66 0.79,-1.56 0.98,-1.47 1.14,-1.33 1.31,-1.19 1.43,-1.01 1.55,-0.84 1.63,-0.64 1.71,-0.44 1.74,-0.23 1.77,-0.02 1.74,0.18 1.72,0.40 1.72,0.40 L 1.72,0.40 Z"></path></g><g transform="translate(1062.800048828125 547.6000366210938) rotate(0 -0.4000244140625 0.399993896484375)" stroke="none"><path fill="#000" d="M 1.55,-0.48 Q 1.55,-0.48 1.58,-0.09 1.60,0.29 1.44,0.65 1.28,1.00 0.97,1.24 0.66,1.48 0.28,1.55 -0.09,1.62 -0.47,1.51 -0.84,1.39 -1.12,1.12 -1.39,0.84 -1.51,0.47 -1.62,0.09 -1.55,-0.28 -1.48,-0.67 -1.24,-0.97 -1.00,-1.28 -0.65,-1.44 -0.29,-1.60 0.09,-1.58 0.48,-1.55 0.82,-1.35 1.15,-1.15 1.35,-0.81 L 1.55,-0.48 Z"></path></g><g transform="translate(1062.800048828125 547.6000366210938) rotate(0 0.00004999999998744897 0.00005000000000165983)" stroke="none"><path fill="#000" d="M 2.12,-2.12 Q 2.12,-2.12 2.40,-1.73 2.69,-1.33 2.83,-0.87 2.97,-0.40 2.96,0.08 2.95,0.56 2.78,1.02 2.61,1.47 2.31,1.85 2.00,2.23 1.59,2.49 1.18,2.76 0.71,2.87 0.24,2.99 -0.24,2.95 -0.72,2.91 -1.17,2.72 -1.61,2.53 -1.98,2.20 -2.34,1.88 -2.58,1.45 -2.82,1.03 -2.91,0.55 -3.00,0.08 -2.93,-0.40 -2.87,-0.88 -2.65,-1.31 -2.44,-1.75 -2.09,-2.09 -1.75,-2.44 -1.31,-2.65 -0.88,-2.87 -0.39,-2.93 0.08,-3.00 0.55,-2.91 1.03,-2.82 1.46,-2.58 1.88,-2.34 2.20,-1.97 2.53,-1.61 2.72,-1.17 2.91,-0.72 2.95,-0.23 2.99,0.24 2.87,0.71 2.76,1.18 2.49,1.59 2.23,2.00 1.85,2.31 1.47,2.61 1.02,2.78 0.56,2.95 0.07,2.96 -0.40,2.97 -0.87,2.83 -1.33,2.69 -1.73,2.40 -2.12,2.12 -2.12,2.12 -2.12,2.12 -2.34,1.83 -2.57,1.55 -2.72,1.22 -2.86,0.89 -2.93,0.53 -2.99,0.18 -2.97,-0.18 -2.95,-0.54 -2.84,-0.88 -2.74,-1.23 -2.55,-1.54 -2.36,-1.85 -2.10,-2.10 -1.85,-2.36 -1.54,-2.55 -1.23,-2.74 -0.88,-2.84 -0.54,-2.95 -0.17,-2.97 0.18,-2.99 0.53,-2.93 0.89,-2.86 1.22,-2.72 1.55,-2.57 1.84,-2.34 2.12,-2.12 2.12,-2.12 L 2.12,-2.12 Z"></path></g><g transform="translate(1062.800048828125 547.6000366210938) rotate(0 -0.79998779296875 19.199981689453125)" stroke="none"><path fill="#000" d="M 1.61,0.29 Q 1.61,0.29 1.51,2.88 1.40,5.48 1.24,9.16 1.07,12.85 1.22,16.90 1.37,20.96 1.66,25.69 1.95,30.41 2.08,33.38 2.20,36.34 1.75,38.78 1.29,41.22 1.27,41.43 1.24,41.65 1.15,41.84 1.06,42.03 0.91,42.18 0.77,42.34 0.58,42.43 0.39,42.53 0.18,42.56 -0.02,42.60 -0.23,42.56 -0.44,42.52 -0.63,42.42 -0.81,42.32 -0.96,42.17 -1.10,42.01 -1.19,41.82 -1.28,41.62 -1.30,41.41 -1.32,41.20 -1.27,40.99 -1.22,40.79 -1.11,40.60 -1.00,40.42 -0.84,40.29 -0.68,40.15 -0.48,40.07 -0.28,40.00 -0.07,39.99 0.13,39.98 0.34,40.04 0.54,40.10 0.72,40.22 0.89,40.34 1.02,40.51 1.15,40.68 1.21,40.88 1.28,41.08 1.28,41.29 1.27,41.51 1.21,41.71 1.14,41.91 1.01,42.08 0.88,42.24 0.70,42.36 0.52,42.48 0.32,42.53 0.11,42.59 -0.09,42.58 -0.30,42.56 -0.50,42.48 -0.70,42.40 -0.86,42.26 -1.02,42.12 -1.13,41.94 -1.23,41.76 -1.28,41.55 -1.32,41.34 -1.32,41.34 -1.32,41.34 -1.94,38.94 -2.57,36.55 -2.69,33.63 -2.81,30.71 -3.11,25.92 -3.40,21.13 -3.55,16.87 -3.69,12.60 -3.47,8.62 -3.24,4.63 -2.43,2.17 -1.61,-0.29 -1.55,-0.48 -1.49,-0.67 -1.39,-0.84 -1.29,-1.01 -1.15,-1.15 -1.01,-1.29 -0.84,-1.39 -0.67,-1.49 -0.48,-1.55 -0.29,-1.61 -0.10,-1.62 0.09,-1.64 0.29,-1.60 0.48,-1.56 0.66,-1.48 0.84,-1.40 1.00,-1.28 1.16,-1.16 1.28,-1.00 1.40,-0.85 1.48,-0.67 1.56,-0.49 1.60,-0.29 1.64,-0.10 1.62,0.09 1.61,0.29 1.61,0.29 L 1.61,0.29 Z"></path></g><g transform="translate(1055.5999755859375 546) rotate(0 49.20001220703125 1.20001220703125)" stroke="none"><path fill="#000" d="M -0.06,-1.91 Q -0.06,-1.91 6.36,-2.32 12.79,-2.73 20.35,-3.10 27.91,-3.46 36.18,-3.85 44.45,-4.24 54.68,-4.40 64.91,-4.55 74.70,-2.12 84.49,0.30 88.56,1.27 92.62,2.25 92.82,2.33 93.02,2.40 93.18,2.54 93.34,2.67 93.45,2.86 93.57,3.04 93.61,3.24 93.66,3.45 93.64,3.66 93.62,3.87 93.53,4.07 93.45,4.26 93.30,4.42 93.16,4.57 92.97,4.67 92.78,4.78 92.58,4.81 92.37,4.85 92.16,4.82 91.95,4.79 91.76,4.69 91.57,4.59 91.42,4.44 91.27,4.29 91.18,4.09 91.09,3.90 91.06,3.69 91.04,3.48 91.08,3.27 91.13,3.06 91.23,2.88 91.34,2.70 91.50,2.56 91.66,2.42 91.86,2.34 92.05,2.26 92.27,2.24 92.48,2.23 92.68,2.28 92.89,2.34 93.07,2.46 93.24,2.57 93.37,2.74 93.50,2.91 93.57,3.11 93.64,3.31 93.65,3.52 93.65,3.73 93.58,3.94 93.52,4.14 93.39,4.31 93.27,4.48 93.09,4.60 92.92,4.72 92.71,4.78 92.51,4.84 92.30,4.83 92.08,4.82 92.08,4.82 92.08,4.82 87.97,4.10 83.86,3.37 74.41,1.79 64.96,0.21 54.81,0.38 44.67,0.54 36.39,0.88 28.11,1.23 20.53,1.52 12.96,1.81 6.51,1.86 0.06,1.91 -0.16,1.89 -0.39,1.87 -0.61,1.80 -0.83,1.73 -1.02,1.60 -1.22,1.48 -1.38,1.31 -1.54,1.14 -1.65,0.94 -1.76,0.74 -1.83,0.52 -1.89,0.29 -1.90,0.06 -1.91,-0.16 -1.86,-0.38 -1.81,-0.61 -1.71,-0.82 -1.61,-1.03 -1.47,-1.21 -1.32,-1.39 -1.13,-1.52 -0.95,-1.66 -0.73,-1.75 -0.52,-1.84 -0.29,-1.88 -0.06,-1.91 -0.06,-1.91 L -0.06,-1.91 Z"></path></g><g transform="translate(1063.5999755859375 594) rotate(0 62 6.399993896484375)" stroke="none"><path fill="#000" d="M 1.81,-0.49 Q 1.81,-0.49 2.61,1.94 3.40,4.38 4.32,5.23 5.24,6.08 6.92,6.36 8.61,6.63 11.92,7.03 15.23,7.42 20.26,7.57 25.29,7.72 31.86,8.02 38.42,8.32 48.07,8.45 57.71,8.58 66.45,8.87 75.19,9.16 83.01,9.28 90.84,9.39 97.42,9.69 104.01,9.99 108.84,10.15 113.67,10.30 116.42,10.38 119.16,10.45 120.20,9.27 121.24,8.10 121.23,7.89 121.22,7.67 121.28,7.47 121.34,7.27 121.46,7.09 121.59,6.92 121.76,6.79 121.93,6.67 122.13,6.60 122.33,6.54 122.55,6.54 122.76,6.54 122.96,6.62 123.16,6.69 123.33,6.82 123.49,6.95 123.61,7.13 123.73,7.30 123.78,7.51 123.83,7.72 123.82,7.93 123.80,8.14 123.72,8.34 123.64,8.53 123.50,8.69 123.36,8.85 123.17,8.96 122.99,9.06 122.78,9.11 122.57,9.15 122.36,9.12 122.15,9.10 121.96,9.00 121.77,8.91 121.62,8.76 121.47,8.61 121.37,8.42 121.27,8.23 121.24,8.02 121.21,7.81 121.25,7.61 121.29,7.40 121.39,7.21 121.49,7.02 121.65,6.88 121.81,6.74 122.00,6.65 122.20,6.57 122.41,6.55 122.62,6.53 122.82,6.58 123.03,6.62 123.21,6.74 123.39,6.85 123.53,7.01 123.66,7.18 123.74,7.38 123.81,7.58 123.81,7.58 123.81,7.58 123.23,10.90 122.64,14.22 120.87,14.60 119.09,14.99 116.32,14.96 113.56,14.93 108.68,14.85 103.80,14.76 97.28,14.50 90.76,14.24 82.90,14.11 75.03,13.98 66.34,13.70 57.64,13.41 47.92,13.28 38.19,13.14 31.65,12.81 25.11,12.49 19.86,12.24 14.61,11.99 11.05,11.45 7.49,10.92 4.93,10.08 2.37,9.25 0.86,7.49 -0.64,5.73 -1.23,3.11 -1.81,0.49 -1.85,0.27 -1.88,0.04 -1.86,-0.17 -1.84,-0.40 -1.76,-0.62 -1.69,-0.83 -1.56,-1.02 -1.44,-1.21 -1.27,-1.36 -1.10,-1.52 -0.91,-1.63 -0.71,-1.74 -0.49,-1.80 -0.27,-1.86 -0.04,-1.87 0.18,-1.87 0.40,-1.82 0.62,-1.77 0.82,-1.67 1.03,-1.57 1.20,-1.43 1.38,-1.28 1.51,-1.10 1.64,-0.91 1.73,-0.70 1.81,-0.49 1.81,-0.49 L 1.81,-0.49 Z"></path></g><g transform="translate(1154 551.6000366210938) rotate(0 18.79998779296875 24.79998779296875)" stroke="none"><path fill="#000" d="M 1.04,-1.28 Q 1.04,-1.28 12.08,7.17 23.12,15.63 27.86,21.10 32.61,26.58 34.71,30.44 36.82,34.29 37.74,37.46 38.66,40.62 39.03,42.14 39.39,43.66 39.14,46.41 38.89,49.17 38.87,49.38 38.84,49.59 38.75,49.78 38.66,49.98 38.51,50.13 38.36,50.28 38.18,50.38 37.99,50.48 37.78,50.51 37.57,50.54 37.36,50.51 37.15,50.47 36.96,50.37 36.78,50.27 36.63,50.11 36.49,49.96 36.40,49.77 36.31,49.57 36.29,49.36 36.27,49.15 36.31,48.94 36.36,48.74 36.47,48.55 36.58,48.37 36.75,48.24 36.91,48.10 37.11,48.02 37.31,47.95 37.52,47.94 37.73,47.93 37.93,47.98 38.14,48.04 38.31,48.16 38.49,48.28 38.62,48.45 38.74,48.62 38.81,48.83 38.88,49.03 38.87,49.24 38.87,49.45 38.80,49.65 38.73,49.85 38.60,50.02 38.47,50.19 38.30,50.31 38.12,50.43 37.91,50.48 37.71,50.54 37.50,50.52 37.29,50.51 37.09,50.43 36.89,50.35 36.73,50.21 36.57,50.07 36.46,49.89 36.35,49.71 36.31,49.50 36.27,49.29 36.27,49.29 36.27,49.29 35.51,47.03 34.75,44.77 34.41,43.34 34.07,41.92 33.34,39.22 32.60,36.53 30.80,33.10 28.99,29.67 24.55,24.49 20.11,19.32 9.53,10.30 -1.04,1.28 -1.18,1.14 -1.32,1.00 -1.42,0.82 -1.52,0.65 -1.57,0.46 -1.63,0.27 -1.64,0.07 -1.65,-0.12 -1.61,-0.32 -1.57,-0.51 -1.49,-0.69 -1.40,-0.87 -1.27,-1.03 -1.15,-1.19 -0.99,-1.31 -0.83,-1.43 -0.65,-1.51 -0.46,-1.59 -0.27,-1.62 -0.07,-1.65 0.12,-1.64 0.32,-1.62 0.51,-1.56 0.70,-1.50 0.87,-1.39 1.04,-1.28 1.04,-1.28 L 1.04,-1.28 Z"></path></g><g transform="translate(1103.5999755859375 573.2000122070312) rotate(0 -0.39996337890625 7.20001220703125)" stroke="none"><path fill="#000" d="M 1.70,0.09 Q 1.70,0.09 1.32,4.22 0.94,8.35 0.79,10.11 0.65,11.87 0.60,12.07 0.56,12.28 0.45,12.46 0.34,12.65 0.18,12.78 0.02,12.92 -0.17,13.00 -0.37,13.08 -0.58,13.09 -0.79,13.10 -1.00,13.04 -1.20,12.99 -1.38,12.87 -1.55,12.75 -1.68,12.58 -1.81,12.41 -1.88,12.21 -1.95,12.00 -1.95,11.79 -1.95,11.58 -1.88,11.38 -1.81,11.18 -1.68,11.01 -1.55,10.84 -1.38,10.72 -1.20,10.60 -1.00,10.54 -0.79,10.49 -0.58,10.50 -0.37,10.51 -0.17,10.59 0.02,10.67 0.18,10.81 0.34,10.95 0.45,11.13 0.56,11.31 0.61,11.52 0.65,11.72 0.63,11.94 0.60,12.15 0.51,12.34 0.43,12.53 0.28,12.69 0.13,12.84 -0.05,12.94 -0.23,13.04 -0.44,13.07 -0.65,13.11 -0.86,13.07 -1.07,13.04 -1.26,12.94 -1.45,12.84 -1.59,12.68 -1.74,12.53 -1.83,12.34 -1.92,12.14 -1.94,11.93 -1.96,11.72 -1.96,11.72 -1.96,11.72 -1.91,9.96 -1.86,8.20 -1.78,4.05 -1.70,-0.09 -1.67,-0.29 -1.63,-0.50 -1.55,-0.68 -1.46,-0.87 -1.34,-1.04 -1.21,-1.20 -1.05,-1.33 -0.89,-1.46 -0.70,-1.54 -0.51,-1.63 -0.31,-1.66 -0.11,-1.70 0.09,-1.69 0.30,-1.68 0.49,-1.62 0.69,-1.56 0.87,-1.45 1.04,-1.35 1.19,-1.20 1.34,-1.06 1.44,-0.88 1.55,-0.70 1.61,-0.51 1.68,-0.31 1.69,-0.11 1.70,0.09 1.70,0.09 L 1.70,0.09 Z"></path></g><g transform="translate(1098 560.4000244140625) rotate(0 2 -2)" stroke="none"><path fill="#000" d="M -2.21,-0.44 Q -2.21,-0.44 -1.47,-2.04 -0.73,-3.64 0.65,-1.98 2.04,-0.32 1.87,-0.19 1.71,-0.05 1.51,0.01 1.31,0.09 1.10,0.09 0.89,0.10 0.68,0.04 0.48,-0.01 0.31,-0.14 0.13,-0.26 0.01,-0.43 -0.11,-0.60 -0.17,-0.80 -0.23,-1.01 -0.23,-1.22 -0.23,-1.43 -0.15,-1.63 -0.08,-1.83 0.04,-2.00 0.17,-2.16 0.35,-2.28 0.53,-2.40 0.73,-2.45 0.94,-2.50 1.15,-2.48 1.36,-2.47 1.56,-2.39 1.76,-2.30 1.92,-2.16 2.07,-2.02 2.18,-1.84 2.29,-1.65 2.33,-1.44 2.37,-1.24 2.34,-1.03 2.31,-0.81 2.22,-0.62 2.13,-0.43 1.98,-0.28 1.83,-0.13 1.64,-0.03 1.45,0.05 1.24,0.08 1.03,0.11 0.82,0.07 0.61,0.03 0.42,-0.06 0.24,-0.16 0.10,-0.32 -0.04,-0.48 -0.12,-0.67 -0.21,-0.87 -0.23,-1.08 -0.24,-1.29 -0.19,-1.50 -0.14,-1.70 -0.03,-1.88 0.07,-2.06 0.07,-2.06 0.07,-2.06 0.86,-1.51 1.65,-0.95 1.93,-0.25 2.21,0.44 2.12,0.70 2.04,0.95 1.89,1.19 1.75,1.42 1.55,1.60 1.36,1.79 1.12,1.93 0.89,2.07 0.63,2.14 0.37,2.22 0.09,2.23 -0.17,2.25 -0.43,2.19 -0.70,2.14 -0.95,2.02 -1.19,1.91 -1.41,1.74 -1.62,1.56 -1.78,1.35 -1.95,1.13 -2.05,0.88 -2.16,0.63 -2.21,0.36 -2.25,0.09 -2.23,-0.17 -2.21,-0.44 -2.21,-0.44 L -2.21,-0.44 Z"></path></g><g transform="translate(1139.5999755859375 571.6000366210938) rotate(0 -4.39996337890625 -6.000030517578125)" stroke="none"><path fill="#000" d="M 0,1.72 Q 0,1.72 -1.84,2.06 -3.68,2.39 -5.75,2.16 -7.82,1.93 -10.27,2.07 -12.72,2.22 -14.68,2.92 -16.65,3.62 -18.00,4.47 -19.35,5.33 -19.91,6.52 -20.47,7.71 -20.49,8.84 -20.51,9.97 -18.24,9.93 -15.98,9.89 -13.52,9.39 -11.07,8.89 -9.11,7.73 -7.15,6.56 -5.80,4.05 -4.45,1.55 -3.83,-0.99 -3.21,-3.53 -3.14,-6.33 -3.08,-9.13 -3.71,-12.27 -4.33,-15.41 -5.06,-18.40 -5.79,-21.39 -6.35,-23.59 -6.91,-25.79 -7.40,-26.73 -7.88,-27.67 -7.91,-27.94 -7.94,-28.21 -7.91,-28.47 -7.88,-28.74 -7.78,-28.99 -7.69,-29.24 -7.53,-29.46 -7.38,-29.69 -7.18,-29.86 -6.98,-30.04 -6.74,-30.17 -6.50,-30.29 -6.24,-30.36 -5.98,-30.42 -5.71,-30.42 -5.44,-30.42 -5.18,-30.36 -4.92,-30.29 -4.68,-30.17 -4.45,-30.04 -4.24,-29.86 -4.04,-29.68 -3.89,-29.46 -3.74,-29.24 -3.64,-28.99 -3.55,-28.74 2.01,-15.59 7.57,-2.44 10.09,3.16 12.61,8.77 12.67,8.98 12.72,9.19 12.71,9.40 12.70,9.61 12.62,9.81 12.54,10.00 12.40,10.16 12.26,10.33 12.08,10.43 11.90,10.54 11.69,10.59 11.48,10.63 11.27,10.61 11.06,10.58 10.87,10.49 10.67,10.40 10.52,10.26 10.37,10.11 10.27,9.92 10.17,9.73 10.14,9.52 10.10,9.31 10.14,9.10 10.17,8.89 10.27,8.71 10.38,8.52 10.53,8.38 10.69,8.23 10.88,8.14 11.07,8.05 11.28,8.03 11.49,8.01 11.70,8.06 11.91,8.10 12.09,8.21 12.27,8.32 12.41,8.49 12.55,8.65 12.62,8.85 12.70,9.04 12.71,9.26 12.72,9.47 12.66,9.67 12.61,9.88 12.49,10.05 12.37,10.23 12.20,10.36 12.03,10.48 11.82,10.55 11.62,10.62 11.41,10.62 11.20,10.62 11.00,10.55 10.80,10.48 10.63,10.35 10.46,10.22 10.34,10.04 10.22,9.87 10.22,9.87 10.22,9.87 7.63,4.29 5.04,-1.29 -1.42,-14.48 -7.88,-27.67 -7.91,-27.94 -7.94,-28.21 -7.91,-28.47 -7.88,-28.74 -7.78,-28.99 -7.69,-29.24 -7.53,-29.46 -7.38,-29.68 -7.18,-29.86 -6.98,-30.04 -6.74,-30.17 -6.50,-30.29 -6.24,-30.36 -5.98,-30.42 -5.71,-30.42 -5.44,-30.42 -5.18,-30.36 -4.92,-30.29 -4.68,-30.17 -4.45,-30.04 -4.24,-29.86 -4.04,-29.68 -3.89,-29.46 -3.74,-29.24 -3.64,-28.99 -3.55,-28.74 -3.11,-27.80 -2.67,-26.86 -2.14,-24.63 -1.61,-22.41 -0.86,-19.32 -0.11,-16.23 0.57,-12.64 1.26,-9.05 1.17,-5.76 1.09,-2.47 0.27,0.65 -0.53,3.79 -2.56,7.06 -4.59,10.34 -7.32,11.94 -10.06,13.55 -13.25,14.17 -16.44,14.79 -19.87,14.13 -23.30,13.47 -24.51,11.29 -25.72,9.11 -25.24,7.16 -24.76,5.21 -23.44,3.25 -22.13,1.29 -20.16,0.13 -18.20,-1.02 -15.60,-1.81 -13.00,-2.61 -10.13,-2.73 -7.26,-2.85 -5.47,-2.62 -3.67,-2.39 -1.83,-2.06 0,-1.72 0.20,-1.69 0.41,-1.67 0.60,-1.59 0.80,-1.52 0.97,-1.40 1.14,-1.28 1.27,-1.13 1.41,-0.97 1.51,-0.79 1.61,-0.61 1.66,-0.40 1.70,-0.20 1.70,0.00 1.70,0.20 1.66,0.40 1.61,0.61 1.51,0.79 1.41,0.97 1.27,1.13 1.14,1.28 0.97,1.40 0.80,1.52 0.60,1.59 0.41,1.67 0.20,1.69 -0.00,1.72 -0.00,1.72 L 0,1.72 Z"></path></g></svg>