<svg version="1.1" xmlns="http://www.w3.org/2000/svg" viewBox="0 0 10020 702.9625091552734" width="10020" height="702.9625091552734">
  <!-- svg-source:excalidraw -->
  
  <defs>
    <style>
      @font-face {
        font-family: "Virgil";
        src: url("https://excalidraw.com/Virgil.woff2");
      }
      @font-face {
        font-family: "Cascadia";
        src: url("https://excalidraw.com/Cascadia.woff2");
      }
    </style>
  </defs>
  <rect x="0" y="0" width="10020" height="702.9625091552734" fill="#fff0"></rect><g stroke-linecap="round" transform="translate(10 10) rotate(0 5000 0.5)"><path d="M-0.52 -0.26 C3022.65 -30.2, 6044.59 -29.2, 9999.32 0.22 M0.38 -0.31 C3948.03 -0.44, 7895.41 0.2, 9999.95 0.08 M10000.08 -0.06 C10000.09 0.27, 10000.05 0.48, 10000.09 0.92 M9999.97 0.01 C9999.95 0.33, 9999.98 0.72, 10000 0.99 M10000.22 1.51 C7095.77 35.76, 4193.15 34.95, -0.25 0.75 M10000.01 1.13 C7827.97 2.74, 5656.23 3.35, -0.33 0.84 M-0.04 1.01 C0 0.63, -0.06 0.15, 0.05 -0.03 M-0.04 0.95 C-0.04 0.73, -0.03 0.59, -0.05 -0.02" stroke="transparent" stroke-width="1" fill="none"></path></g><g transform="translate(861.2000122070312 564.1624908447266) rotate(0 2.399993896484375 56.40000915527344)" stroke="none"><path fill="#000" d="M 1.68,0 Q 1.68,0 1.72,1.84 1.77,3.68 1.51,4.89 1.26,6.09 0.69,7.47 0.12,8.86 -0.89,9.94 -1.90,11.01 -3.43,12.80 -4.96,14.59 -7.04,16.79 -9.12,18.98 -11.31,21.69 -13.51,24.39 -16.11,27.23 -18.70,30.06 -22.78,34.47 -26.86,38.88 -30.67,42.85 -34.48,46.81 -38.45,50.38 -42.41,53.95 -45.41,57.01 -48.41,60.07 -51.12,62.57 -53.82,65.08 -55.41,66.58 -56.99,68.08 -56.17,70.21 -55.34,72.34 -53.22,74.81 -51.10,77.28 -47.38,82.31 -43.66,87.34 -40.05,91.96 -36.44,96.58 -32.87,100.57 -29.30,104.56 -25.95,108.09 -22.60,111.62 -18.78,114.38 -14.96,117.15 -12.60,118.83 -10.23,120.50 -8.71,121.72 -7.18,122.93 -6.31,123.68 -5.43,124.43 -4.31,124.99 -3.18,125.54 -2.69,124.58 -2.20,123.61 -0.66,121.69 0.87,119.78 2.87,117.17 4.88,114.56 8.55,110.39 12.21,106.23 15.90,102.80 19.59,99.37 23.04,96.72 26.49,94.08 29.65,92.22 32.80,90.37 35.51,88.90 38.21,87.43 40.55,86.33 42.89,85.23 44.32,84.55 45.74,83.86 46.81,83.34 47.87,82.83 49.62,81.95 51.37,81.08 52.23,80.41 53.09,79.73 54.22,78.99 55.36,78.24 57.63,77.54 59.91,76.84 61.12,76.47 62.32,76.09 61.63,75.04 60.93,73.99 60.48,72.34 60.03,70.69 59.65,69.42 59.28,68.15 56.84,61.93 54.40,55.71 52.89,51.89 51.39,48.06 49.63,44.44 47.88,40.81 46.00,37.46 44.11,34.11 42.17,30.84 40.22,27.58 38.26,24.61 36.30,21.64 34.10,18.56 31.90,15.47 30.25,12.96 28.59,10.46 27.41,8.43 26.22,6.41 25.12,5.00 24.02,3.59 23.03,2.22 22.04,0.85 21.03,-0.68 20.02,-2.21 19.64,-3.23 19.26,-4.25 18.56,-5.47 17.85,-6.69 17.22,-7.83 16.59,-8.97 16.03,-9.90 15.46,-10.84 14.46,-12.30 13.46,-13.77 12.12,-11.99 10.78,-10.22 8.80,-8.22 6.82,-6.23 3.65,-3.28 0.48,-0.34 -3.88,3.59 -8.26,7.53 -12.92,12.92 -17.59,18.30 -19.64,20.60 -21.69,22.90 -21.85,23.04 -22.01,23.18 -22.21,23.27 -22.40,23.35 -22.61,23.36 -22.83,23.38 -23.03,23.33 -23.24,23.27 -23.42,23.16 -23.59,23.04 -23.72,22.87 -23.86,22.71 -23.93,22.51 -24.00,22.31 -24.00,22.09 -24.01,21.88 -23.94,21.68 -23.88,21.48 -23.75,21.30 -23.63,21.13 -23.45,21.01 -23.28,20.89 -23.08,20.83 -22.87,20.77 -22.66,20.78 -22.45,20.78 -22.25,20.86 -22.05,20.93 -21.89,21.07 -21.72,21.20 -21.61,21.38 -21.50,21.56 -21.45,21.77 -21.40,21.98 -21.42,22.19 -21.44,22.40 -21.52,22.59 -21.61,22.79 -21.75,22.95 -21.89,23.10 -22.08,23.21 -22.27,23.31 -22.48,23.35 -22.68,23.38 -22.89,23.35 -23.10,23.32 -23.29,23.23 -23.48,23.13 -23.63,22.98 -23.78,22.83 -23.87,22.64 -23.97,22.44 -23.99,22.23 -24.02,22.02 -23.98,21.81 -23.94,21.61 -23.83,21.42 -23.72,21.24 -23.72,21.24 -23.72,21.24 -21.87,18.77 -20.01,16.31 -15.48,10.47 -10.95,4.63 -6.68,0.58 -2.41,-3.47 0.67,-6.35 3.77,-9.24 5.72,-11.22 7.67,-13.20 9.24,-14.80 10.82,-16.39 13.35,-17.00 15.88,-17.62 16.52,-16.61 17.16,-15.61 18.15,-14.39 19.14,-13.17 19.76,-12.26 20.38,-11.36 21.04,-10.06 21.69,-8.76 22.52,-7.27 23.35,-5.78 23.80,-4.57 24.25,-3.37 24.92,-2.53 25.59,-1.69 26.53,-0.38 27.47,0.92 28.72,2.56 29.98,4.21 31.11,6.13 32.23,8.05 33.85,10.50 35.46,12.94 37.71,16.09 39.95,19.24 41.96,22.29 43.97,25.34 45.95,28.66 47.93,31.97 49.87,35.44 51.80,38.91 53.63,42.68 55.46,46.45 56.97,50.29 58.48,54.12 60.97,60.51 63.47,66.90 63.87,68.24 64.27,69.59 64.57,70.84 64.88,72.09 65.58,73.76 66.28,75.43 65.95,77.29 65.63,79.15 64.62,79.69 63.61,80.23 62.34,80.62 61.07,81.01 59.85,81.35 58.63,81.69 57.25,82.37 55.88,83.05 54.59,84.00 53.31,84.95 51.54,85.83 49.76,86.71 48.69,87.23 47.61,87.76 46.17,88.45 44.74,89.14 42.50,90.19 40.27,91.24 37.63,92.67 34.99,94.10 32.06,95.81 29.12,97.53 25.83,100.04 22.54,102.55 19.01,105.83 15.48,109.11 11.92,113.16 8.35,117.22 6.32,119.87 4.29,122.53 2.84,124.35 1.38,126.17 0.64,127.21 -0.10,128.25 -1.12,129.24 -2.14,130.24 -3.73,129.81 -5.32,129.38 -6.80,128.59 -8.28,127.80 -9.12,127.09 -9.95,126.38 -11.37,125.23 -12.78,124.09 -15.17,122.39 -17.55,120.69 -21.66,117.67 -25.77,114.65 -29.17,111.06 -32.57,107.47 -36.22,103.37 -39.88,99.27 -43.53,94.60 -47.18,89.93 -50.79,85.00 -54.40,80.08 -56.56,77.52 -58.71,74.96 -60.36,72.20 -62.01,69.43 -61.78,68.29 -61.55,67.16 -60.71,66.10 -59.88,65.05 -58.27,63.53 -56.66,62.01 -54.02,59.58 -51.38,57.15 -48.29,54.00 -45.20,50.85 -41.33,47.39 -37.46,43.93 -33.66,40.01 -29.87,36.09 -25.78,31.70 -21.69,27.30 -19.16,24.58 -16.62,21.85 -14.31,19.04 -12.00,16.24 -9.96,14.12 -7.93,12.01 -6.27,10.16 -4.62,8.30 -3.47,7.44 -2.32,6.58 -2.04,5.12 -1.77,3.67 -1.72,1.83 -1.68,0 -1.65,-0.20 -1.63,-0.40 -1.56,-0.59 -1.49,-0.78 -1.37,-0.94 -1.25,-1.11 -1.10,-1.25 -0.95,-1.38 -0.77,-1.47 -0.59,-1.57 -0.39,-1.62 -0.20,-1.67 0.00,-1.67 0.20,-1.67 0.39,-1.62 0.59,-1.57 0.77,-1.47 0.95,-1.38 1.10,-1.25 1.25,-1.11 1.37,-0.94 1.49,-0.78 1.56,-0.59 1.63,-0.40 1.65,-0.20 1.68,0.00 1.68,0.00 L 1.68,0 Z"></path></g><g transform="translate(797.2000122070312 637.7624969482422) rotate(0 -57.20001220703125 -10.399993896484375)" stroke="none"><path fill="#000" d="M -0.64,1.49 Q -0.64,1.49 -2.33,1.00 -4.03,0.51 -6.05,-0.19 -8.06,-0.90 -11.14,-1.63 -14.21,-2.36 -19.87,-3.35 -25.52,-4.34 -31.38,-5.22 -37.23,-6.11 -43.39,-6.94 -49.56,-7.78 -58.40,-9.05 -67.25,-10.32 -72.84,-11.09 -78.43,-11.86 -86.06,-12.63 -93.69,-13.40 -99.02,-13.97 -104.35,-14.53 -107.28,-14.77 -110.21,-15.01 -111.23,-15.12 -112.26,-15.23 -112.52,-15.28 -112.78,-15.34 -113.02,-15.45 -113.27,-15.57 -113.47,-15.74 -113.68,-15.91 -113.84,-16.12 -114.00,-16.33 -114.11,-16.58 -114.21,-16.83 -114.25,-17.09 -114.30,-17.36 -114.28,-17.62 -114.25,-17.89 -114.17,-18.14 -114.08,-18.40 -113.94,-18.62 -113.80,-18.85 -113.60,-19.03 -113.41,-19.22 -113.18,-19.35 -112.95,-19.49 -112.69,-19.56 -112.43,-19.64 -112.17,-19.65 -111.90,-19.66 -110.26,-20.52 -108.63,-21.38 -106.88,-21.58 -105.13,-21.79 -104.92,-21.83 -104.71,-21.86 -104.50,-21.83 -104.29,-21.80 -104.11,-21.70 -103.92,-21.60 -103.77,-21.45 -103.62,-21.30 -103.53,-21.10 -103.44,-20.91 -103.42,-20.70 -103.39,-20.49 -103.44,-20.28 -103.48,-20.07 -103.59,-19.89 -103.70,-19.71 -103.86,-19.57 -104.02,-19.43 -104.21,-19.35 -104.41,-19.27 -104.62,-19.26 -104.83,-19.24 -105.04,-19.30 -105.25,-19.35 -105.42,-19.47 -105.60,-19.59 -105.73,-19.76 -105.86,-19.93 -105.93,-20.13 -106.00,-20.33 -106.00,-20.54 -106.00,-20.75 -105.93,-20.95 -105.87,-21.16 -105.74,-21.33 -105.61,-21.50 -105.44,-21.62 -105.26,-21.74 -105.06,-21.80 -104.86,-21.85 -104.64,-21.84 -104.43,-21.83 -104.23,-21.76 -104.04,-21.68 -103.87,-21.54 -103.71,-21.41 -103.60,-21.23 -103.49,-21.05 -103.44,-20.84 -103.39,-20.63 -103.41,-20.42 -103.44,-20.21 -103.52,-20.02 -103.61,-19.82 -103.76,-19.67 -103.90,-19.51 -104.09,-19.41 -104.27,-19.31 -104.27,-19.31 -104.27,-19.31 -105.74,-18.40 -107.21,-17.50 -108.61,-16.97 -110.01,-16.44 -111.14,-15.84 -112.26,-15.23 -112.52,-15.28 -112.78,-15.34 -113.02,-15.45 -113.27,-15.57 -113.47,-15.74 -113.68,-15.91 -113.84,-16.12 -114.00,-16.33 -114.11,-16.58 -114.21,-16.83 -114.25,-17.09 -114.30,-17.36 -114.28,-17.62 -114.25,-17.89 -114.17,-18.14 -114.08,-18.40 -113.94,-18.62 -113.80,-18.85 -113.60,-19.03 -113.41,-19.22 -113.18,-19.35 -112.95,-19.49 -112.69,-19.56 -112.43,-19.64 -112.17,-19.65 -111.90,-19.66 -110.87,-19.56 -109.85,-19.47 -106.86,-19.23 -103.88,-18.99 -98.56,-18.42 -93.23,-17.86 -85.53,-17.05 -77.82,-16.25 -72.22,-15.47 -66.62,-14.70 -57.79,-13.41 -48.96,-12.13 -42.77,-11.28 -36.57,-10.44 -30.66,-9.54 -24.76,-8.63 -18.97,-7.58 -13.19,-6.52 -9.91,-5.69 -6.62,-4.86 -4.51,-4.07 -2.40,-3.27 -0.88,-2.38 0.64,-1.49 0.80,-1.39 0.97,-1.29 1.12,-1.16 1.26,-1.02 1.36,-0.85 1.46,-0.69 1.53,-0.50 1.59,-0.32 1.60,-0.12 1.62,0.06 1.59,0.26 1.56,0.45 1.48,0.63 1.40,0.81 1.28,0.97 1.16,1.12 1.01,1.25 0.86,1.37 0.68,1.45 0.51,1.54 0.31,1.58 0.12,1.62 -0.06,1.61 -0.26,1.60 -0.45,1.54 -0.64,1.49 -0.64,1.49 L -0.64,1.49 Z"></path></g><g transform="translate(923.6000366210938 640.9625091552734) rotate(0 52.800018310546875 10)" stroke="none"><path fill="#000" d="M 0.48,-1.78 Q 0.48,-1.78 3.04,-1.20 5.60,-0.61 9.59,0.08 13.57,0.79 19.69,2.03 25.81,3.27 35.79,5.64 45.78,8.01 54.17,10.17 62.56,12.34 69.54,13.93 76.52,15.53 82.37,16.18 88.22,16.84 92.32,17.12 96.42,17.40 98.91,17.37 101.40,17.33 102.79,16.74 104.17,16.15 104.36,16.07 104.56,15.98 104.77,15.97 104.98,15.95 105.19,16.00 105.39,16.05 105.57,16.16 105.75,16.28 105.89,16.44 106.02,16.61 106.09,16.81 106.17,17.00 106.17,17.22 106.18,17.43 106.12,17.63 106.06,17.84 105.93,18.01 105.81,18.18 105.64,18.31 105.47,18.43 105.26,18.49 105.06,18.56 104.85,18.55 104.64,18.55 104.44,18.48 104.24,18.40 104.07,18.27 103.90,18.14 103.79,17.96 103.67,17.78 103.62,17.57 103.57,17.37 103.59,17.16 103.60,16.95 103.69,16.75 103.77,16.55 103.91,16.40 104.05,16.24 104.24,16.13 104.42,16.03 104.63,15.99 104.84,15.94 105.05,15.97 105.26,16.00 105.45,16.09 105.64,16.19 105.79,16.34 105.94,16.49 106.04,16.68 106.13,16.87 106.16,17.08 106.19,17.29 106.15,17.50 106.11,17.71 106.01,17.89 105.91,18.08 105.75,18.22 105.59,18.36 105.59,18.36 105.59,18.36 103.72,19.87 101.86,21.38 98.99,21.55 96.12,21.73 91.92,21.43 87.73,21.13 81.64,20.42 75.56,19.71 68.52,18.10 61.49,16.48 53.14,14.33 44.79,12.18 34.87,9.82 24.96,7.45 18.88,6.21 12.80,4.97 8.65,4.17 4.51,3.37 2.01,2.58 -0.48,1.78 -0.69,1.70 -0.90,1.61 -1.08,1.48 -1.26,1.35 -1.40,1.18 -1.55,1.01 -1.64,0.81 -1.74,0.61 -1.79,0.39 -1.84,0.17 -1.83,-0.04 -1.83,-0.26 -1.77,-0.48 -1.71,-0.69 -1.60,-0.89 -1.49,-1.09 -1.34,-1.25 -1.19,-1.41 -1.00,-1.53 -0.82,-1.66 -0.60,-1.73 -0.39,-1.81 -0.17,-1.83 0.04,-1.85 0.26,-1.82 0.48,-1.78 0.48,-1.78 L 0.48,-1.78 Z"></path></g><g transform="translate(588.4000244140625 599.3625030517578) rotate(0 42.39996337890625 26)" stroke="none"><path fill="#000" d="M 1.60,0.64 Q 1.60,0.64 1.21,1.81 0.82,2.99 0.16,4.46 -0.49,5.92 -1.19,7.83 -1.89,9.75 -3.11,13.12 -4.33,16.49 -5.80,19.61 -7.28,22.74 -8.58,25.43 -9.89,28.11 -11.15,30.44 -12.41,32.77 -13.45,34.29 -14.49,35.81 -12.24,35.64 -9.99,35.48 -7.04,35.74 -4.09,36.00 -0.49,36.58 3.10,37.16 8.56,38.33 14.02,39.49 17.69,40.22 21.35,40.94 26.81,41.93 32.27,42.93 36.90,43.82 41.54,44.70 46.03,45.54 50.52,46.37 54.52,47.19 58.51,48.01 63.34,48.57 68.17,49.14 72.27,49.37 76.37,49.61 79.49,49.71 82.61,49.81 84.96,50.10 87.30,50.38 88.47,50.49 89.63,50.60 90.70,48.76 91.77,46.91 92.40,44.15 93.03,41.38 93.78,38.31 94.52,35.24 95.06,32.60 95.60,29.95 96.06,27.45 96.51,24.95 97.19,22.42 97.86,19.89 98.39,18.33 98.92,16.76 97.23,16.62 95.53,16.47 93.83,16.46 92.12,16.45 89.91,16.20 87.69,15.96 85.16,15.63 82.64,15.30 78.79,14.69 74.93,14.09 71.49,13.61 68.04,13.13 64.45,12.45 60.86,11.78 57.32,11.27 53.79,10.77 49.28,10.09 44.76,9.41 41.01,8.90 37.27,8.38 33.84,7.93 30.41,7.48 27.41,7.30 24.41,7.12 21.75,7.04 19.10,6.96 17.05,6.92 15.01,6.89 13.89,6.87 12.77,6.85 11.38,6.50 9.99,6.14 8.76,5.75 7.53,5.36 5.53,5.06 3.53,4.75 0.94,4.63 -1.63,4.50 -3.23,4.48 -4.83,4.46 -6.37,4.21 -7.91,3.96 -9.09,3.87 -10.27,3.78 -12.70,2.99 -15.13,2.20 -15.32,2.10 -15.51,2.00 -15.66,1.85 -15.80,1.70 -15.89,1.50 -15.98,1.31 -16.01,1.10 -16.03,0.89 -15.99,0.68 -15.94,0.47 -15.84,0.29 -15.73,0.11 -15.57,-0.02 -15.41,-0.16 -15.21,-0.24 -15.01,-0.32 -14.80,-0.33 -14.59,-0.35 -14.38,-0.29 -14.18,-0.23 -14.00,-0.12 -13.82,-0.00 -13.70,0.16 -13.57,0.33 -13.50,0.53 -13.43,0.73 -13.43,0.94 -13.42,1.15 -13.49,1.36 -13.56,1.56 -13.68,1.73 -13.81,1.90 -13.99,2.02 -14.16,2.14 -14.37,2.20 -14.57,2.26 -14.78,2.25 -15.00,2.24 -15.19,2.16 -15.39,2.08 -15.55,1.94 -15.72,1.81 -15.83,1.63 -15.94,1.44 -15.99,1.24 -16.03,1.03 -16.01,0.82 -15.99,0.61 -15.90,0.41 -15.81,0.22 -15.67,0.07 -15.52,-0.08 -15.34,-0.18 -15.15,-0.28 -14.94,-0.32 -14.73,-0.35 -14.52,-0.32 -14.31,-0.29 -14.31,-0.29 -14.31,-0.29 -12.13,-0.28 -9.95,-0.28 -8.58,-0.17 -7.21,-0.05 -6.00,0.16 -4.78,0.38 -3.15,0.40 -1.52,0.42 0.18,0.47 1.88,0.52 4.07,0.88 6.26,1.23 7.33,1.30 8.40,1.37 9.58,1.76 10.76,2.14 11.82,2.46 12.89,2.78 13.98,2.79 15.08,2.81 17.15,2.84 19.23,2.87 21.94,2.95 24.66,3.03 27.80,3.24 30.94,3.44 34.38,3.89 37.83,4.34 41.60,4.86 45.36,5.38 49.87,6.06 54.37,6.74 57.99,7.26 61.61,7.78 65.10,8.44 68.60,9.10 72.08,9.58 75.57,10.07 79.37,10.67 83.17,11.27 85.65,11.60 88.14,11.92 90.15,12.15 92.15,12.38 93.89,12.39 95.62,12.40 97.01,12.43 98.40,12.46 100.50,12.99 102.60,13.53 102.68,15.80 102.76,18.07 102.28,19.51 101.79,20.94 101.15,23.31 100.51,25.69 100.04,28.22 99.58,30.76 99.02,33.48 98.47,36.20 97.73,39.25 96.99,42.30 96.29,45.29 95.60,48.27 95.03,49.79 94.47,51.31 93.60,52.62 92.73,53.93 90.98,54.29 89.24,54.64 88.03,54.52 86.81,54.40 84.64,54.13 82.48,53.87 79.30,53.76 76.13,53.66 71.91,53.40 67.70,53.15 62.70,52.56 57.71,51.97 53.74,51.16 49.78,50.35 45.28,49.51 40.78,48.67 36.16,47.79 31.54,46.91 26.05,45.91 20.56,44.91 16.87,44.19 13.17,43.46 7.81,42.31 2.46,41.15 -0.99,40.59 -4.45,40.03 -7.27,39.77 -10.10,39.52 -12.70,39.44 -15.31,39.37 -16.50,38.96 -17.69,38.54 -18.24,37.11 -18.79,35.67 -18.28,34.61 -17.77,33.55 -16.84,32.21 -15.90,30.87 -14.67,28.62 -13.44,26.38 -12.14,23.71 -10.84,21.05 -9.43,18.09 -8.01,15.14 -6.76,11.77 -5.52,8.39 -4.74,6.35 -3.96,4.30 -3.31,2.95 -2.66,1.60 -2.13,0.48 -1.60,-0.64 -1.50,-0.82 -1.40,-1.00 -1.26,-1.16 -1.12,-1.31 -0.94,-1.43 -0.77,-1.54 -0.57,-1.61 -0.38,-1.68 -0.17,-1.70 0.03,-1.72 0.23,-1.70 0.44,-1.67 0.63,-1.59 0.83,-1.51 1.00,-1.39 1.17,-1.27 1.30,-1.11 1.44,-0.95 1.53,-0.77 1.62,-0.58 1.67,-0.38 1.72,-0.17 1.71,0.03 1.71,0.23 1.65,0.44 1.60,0.64 1.60,0.64 L 1.60,0.64 Z"></path></g><g transform="translate(1025.2000732421875 641.7624969482422) rotate(0 61.99993896484375 17.600006103515625)" stroke="none"><path fill="#000" d="M 1.34,-0.12 Q 1.34,-0.12 1.83,2.38 2.31,4.89 2.45,7.85 2.58,10.82 2.63,13.92 2.68,17.02 2.71,20.63 2.74,24.25 2.75,26.94 2.77,29.62 2.77,31.22 2.77,32.83 2.97,34.10 3.16,35.37 4.45,36.14 5.74,36.90 7.66,37.56 9.57,38.22 11.61,38.36 13.65,38.50 17.99,38.56 22.33,38.63 27.18,38.66 32.03,38.69 37.31,38.70 42.59,38.72 48.28,38.72 53.98,38.73 61.72,38.96 69.46,39.20 75.71,39.30 81.96,39.40 87.15,39.45 92.33,39.50 97.02,39.28 101.70,39.07 105.58,38.98 109.45,38.89 113.63,38.85 117.82,38.81 121.20,38.80 124.59,38.78 127.27,39.01 129.95,39.23 131.93,39.32 133.91,39.42 135.38,39.71 136.86,40.00 137.19,40.10 137.52,40.21 137.76,40.29 137.99,40.37 138.20,40.50 138.41,40.63 138.58,40.81 138.75,40.99 138.88,41.21 139.00,41.42 139.07,41.66 139.14,41.90 139.15,42.14 139.16,42.39 139.11,42.64 139.06,42.88 138.95,43.10 138.85,43.33 138.69,43.52 138.53,43.71 138.33,43.86 138.13,44.01 137.91,44.11 137.68,44.20 137.43,44.24 137.19,44.28 136.94,44.26 136.69,44.24 135.81,43.04 134.93,41.84 134.85,40.14 134.78,38.44 134.78,35.20 134.78,31.97 134.55,28.59 134.32,25.22 134.21,21.65 134.11,18.07 133.84,14.79 133.57,11.50 133.23,8.98 132.88,6.47 132.52,4.77 132.16,3.07 131.13,2.59 130.09,2.10 127.92,2.09 125.75,2.08 122.48,2.07 119.22,2.06 114.96,1.59 110.70,1.12 105.43,0.22 100.16,-0.66 92.71,-1.49 85.26,-2.32 78.65,-2.91 72.03,-3.49 65.81,-3.74 59.59,-3.98 53.95,-4.09 48.32,-4.19 42.89,-4.47 37.46,-4.75 31.75,-4.86 26.04,-4.98 22.00,-5.03 17.96,-5.08 15.09,-5.10 12.22,-5.12 10.32,-5.13 8.41,-5.14 7.14,-5.14 5.87,-5.14 4.04,-4.94 2.21,-4.73 0.80,-4.41 -0.60,-4.09 -2.53,-3.51 -4.46,-2.92 -6.38,-2.64 -8.29,-2.36 -10.97,-2.17 -13.64,-1.99 -13.86,-1.99 -14.07,-1.99 -14.27,-2.05 -14.47,-2.12 -14.64,-2.25 -14.81,-2.38 -14.93,-2.55 -15.05,-2.73 -15.11,-2.93 -15.17,-3.13 -15.16,-3.35 -15.15,-3.56 -15.07,-3.76 -15.00,-3.96 -14.86,-4.12 -14.72,-4.28 -14.54,-4.39 -14.36,-4.50 -14.15,-4.55 -13.95,-4.60 -13.73,-4.57 -13.52,-4.55 -13.33,-4.46 -13.14,-4.38 -12.98,-4.23 -12.83,-4.09 -12.72,-3.90 -12.62,-3.71 -12.59,-3.50 -12.55,-3.29 -12.59,-3.08 -12.62,-2.87 -12.72,-2.69 -12.82,-2.50 -12.97,-2.35 -13.12,-2.20 -13.31,-2.11 -13.51,-2.02 -13.72,-2.00 -13.93,-1.97 -14.14,-2.02 -14.34,-2.06 -14.53,-2.17 -14.71,-2.28 -14.85,-2.44 -14.99,-2.60 -15.07,-2.80 -15.15,-2.99 -15.16,-3.21 -15.17,-3.42 -15.12,-3.62 -15.06,-3.83 -14.94,-4.01 -14.82,-4.18 -14.66,-4.31 -14.49,-4.44 -14.29,-4.51 -14.09,-4.58 -14.09,-4.58 -14.09,-4.58 -11.48,-5.48 -8.87,-6.38 -7.25,-6.61 -5.63,-6.84 -3.56,-7.45 -1.50,-8.07 -0.01,-8.40 1.47,-8.74 3.68,-8.99 5.88,-9.23 7.15,-9.23 8.43,-9.22 10.34,-9.22 12.25,-9.21 15.13,-9.19 18.01,-9.17 22.07,-9.12 26.13,-9.07 31.90,-8.95 37.67,-8.83 43.03,-8.56 48.39,-8.28 54.07,-8.18 59.75,-8.07 66.07,-7.82 72.39,-7.57 79.05,-6.98 85.72,-6.39 93.28,-5.55 100.85,-4.70 106.00,-3.82 111.16,-2.94 115.20,-2.48 119.24,-2.02 122.51,-2.01 125.79,-2.00 128.77,-1.89 131.76,-1.78 133.45,-0.82 135.14,0.13 135.64,1.16 136.14,2.19 136.53,4.06 136.93,5.92 137.28,8.55 137.62,11.17 137.90,14.56 138.17,17.96 138.27,21.45 138.36,24.94 138.60,28.45 138.83,31.96 138.84,35.17 138.86,38.38 138.19,39.29 137.52,40.21 137.76,40.29 137.99,40.37 138.20,40.50 138.41,40.63 138.58,40.81 138.75,40.99 138.88,41.20 139.00,41.42 139.07,41.66 139.14,41.90 139.15,42.14 139.16,42.39 139.11,42.64 139.06,42.88 138.95,43.10 138.85,43.33 138.69,43.52 138.53,43.71 138.33,43.86 138.13,44.01 137.91,44.11 137.68,44.20 137.43,44.24 137.19,44.28 136.94,44.26 136.69,44.24 136.36,44.12 136.03,43.99 134.87,43.74 133.71,43.49 131.65,43.40 129.60,43.30 127.10,43.08 124.61,42.85 121.23,42.87 117.85,42.89 113.70,42.93 109.55,42.97 105.71,43.06 101.88,43.15 97.09,43.36 92.30,43.57 87.10,43.53 81.90,43.50 75.62,43.40 69.33,43.30 61.65,43.07 53.97,42.85 48.27,42.84 42.58,42.83 37.29,42.82 32.00,42.81 27.13,42.78 22.26,42.75 17.80,42.67 13.34,42.59 10.93,42.39 8.51,42.19 6.06,41.28 3.61,40.36 2.27,39.31 0.92,38.27 0.21,37.35 -0.49,36.44 -0.83,34.64 -1.18,32.83 -1.19,31.23 -1.19,29.63 -1.19,26.95 -1.19,24.27 -1.20,20.67 -1.20,17.07 -1.23,14.01 -1.27,10.95 -1.33,8.09 -1.40,5.22 -1.37,2.67 -1.34,0.12 -1.34,-0.04 -1.33,-0.20 -1.29,-0.35 -1.24,-0.51 -1.16,-0.65 -1.08,-0.80 -0.97,-0.91 -0.86,-1.03 -0.72,-1.12 -0.59,-1.21 -0.43,-1.26 -0.28,-1.32 -0.12,-1.33 0.04,-1.34 0.20,-1.32 0.36,-1.30 0.51,-1.23 0.66,-1.17 0.79,-1.07 0.92,-0.98 1.02,-0.85 1.13,-0.73 1.20,-0.58 1.27,-0.44 1.31,-0.28 1.34,-0.12 1.34,-0.12 L 1.34,-0.12 Z"></path></g><g transform="translate(782 580.1624908447266) rotate(0 -12.79998779296875 6.0000152587890625)" stroke="none"><path fill="#000" d="M -0.64,1.60 Q -0.64,1.60 -1.79,1.17 -2.95,0.73 -5.50,0.55 -8.05,0.36 -9.63,0.32 -11.22,0.29 -12.83,0.71 -14.44,1.14 -16.72,2.00 -19.01,2.86 -20.45,3.46 -21.90,4.05 -22.78,4.69 -23.67,5.33 -23.88,5.41 -24.09,5.50 -24.31,5.54 -24.53,5.57 -24.76,5.55 -24.99,5.53 -25.20,5.46 -25.42,5.38 -25.61,5.26 -25.80,5.14 -25.95,4.97 -26.11,4.81 -26.22,4.61 -26.33,4.41 -26.39,4.20 -26.46,3.98 -26.46,3.75 -26.47,3.52 -26.42,3.30 -26.38,3.08 -26.28,2.88 -26.18,2.67 -26.03,2.50 -25.89,2.32 -25.71,2.19 -25.52,2.05 -24.35,1.80 -23.18,1.55 -20.68,0.63 -18.18,-0.28 -16.04,-1.54 -13.90,-2.81 -11.72,-3.88 -9.54,-4.94 -8.00,-5.82 -6.46,-6.70 -5.13,-7.15 -3.80,-7.61 -2.64,-7.54 -1.48,-7.47 -0.34,-5.52 0.80,-3.56 0.08,-2.04 -0.64,-0.52 -1.79,1.51 -2.95,3.55 -4.41,5.65 -5.87,7.75 -7.14,9.72 -8.41,11.70 -9.68,13.50 -10.94,15.31 -13.33,15.22 -15.72,15.14 -15.65,14.94 -15.57,14.74 -15.44,14.57 -15.30,14.41 -15.12,14.30 -14.94,14.18 -14.74,14.13 -14.53,14.08 -14.32,14.10 -14.11,14.12 -13.91,14.21 -13.72,14.29 -13.56,14.44 -13.40,14.58 -13.30,14.77 -13.20,14.95 -13.16,15.16 -13.12,15.37 -13.15,15.58 -13.18,15.79 -13.28,15.98 -13.37,16.17 -13.53,16.32 -13.68,16.47 -13.87,16.56 -14.06,16.65 -14.27,16.68 -14.48,16.71 -14.69,16.67 -14.90,16.62 -15.08,16.52 -15.27,16.41 -15.41,16.25 -15.55,16.09 -15.63,15.90 -15.71,15.70 -15.73,15.49 -15.74,15.28 -15.69,15.07 -15.64,14.87 -15.52,14.69 -15.41,14.51 -15.24,14.38 -15.07,14.25 -14.87,14.17 -14.67,14.10 -14.46,14.10 -14.25,14.09 -14.04,14.16 -13.84,14.22 -13.67,14.35 -13.50,14.47 -13.38,14.65 -13.25,14.82 -13.19,15.02 -13.13,15.23 -13.14,15.44 -13.15,15.65 -13.15,15.65 -13.15,15.65 -13.66,14.35 -14.18,13.04 -12.96,11.29 -11.75,9.55 -10.42,7.51 -9.10,5.47 -7.71,3.53 -6.33,1.59 -5.10,-0.46 -3.88,-2.52 -3.04,-3.22 -2.21,-3.92 -3.42,-3.68 -4.64,-3.44 -6.28,-2.52 -7.92,-1.61 -9.98,-0.62 -12.04,0.36 -14.47,1.77 -16.90,3.18 -20.28,4.25 -23.67,5.33 -23.88,5.41 -24.09,5.50 -24.31,5.54 -24.53,5.57 -24.76,5.55 -24.99,5.53 -25.20,5.46 -25.42,5.38 -25.61,5.26 -25.80,5.14 -25.95,4.97 -26.11,4.81 -26.22,4.61 -26.33,4.41 -26.39,4.20 -26.46,3.98 -26.46,3.75 -26.47,3.52 -26.42,3.30 -26.38,3.08 -26.28,2.88 -26.18,2.67 -26.03,2.50 -25.89,2.32 -25.71,2.19 -25.52,2.05 -25.43,1.88 -25.33,1.70 -24.33,1.13 -23.33,0.56 -21.82,-0.05 -20.31,-0.66 -17.81,-1.56 -15.31,-2.46 -13.24,-2.92 -11.17,-3.38 -9.52,-3.35 -7.86,-3.31 -6.11,-3.21 -4.35,-3.11 -3.00,-2.84 -1.64,-2.57 -0.50,-2.09 0.64,-1.60 0.82,-1.50 1.00,-1.40 1.15,-1.26 1.31,-1.12 1.42,-0.94 1.54,-0.77 1.61,-0.57 1.68,-0.38 1.70,-0.17 1.72,0.03 1.69,0.23 1.66,0.44 1.59,0.63 1.51,0.82 1.39,0.99 1.27,1.16 1.11,1.30 0.95,1.43 0.76,1.53 0.58,1.62 0.37,1.67 0.17,1.71 -0.03,1.71 -0.23,1.70 -0.44,1.65 -0.64,1.60 -0.64,1.60 L -0.64,1.60 Z"></path></g><g transform="translate(751.6000366210938 596.9625091552734) rotate(0 22 1.5999908447265625)" stroke="none"><path fill="#000" d="M -0.48,-1.46 Q -0.48,-1.46 0.84,-2.07 2.18,-2.68 4.82,-2.94 7.47,-3.21 13.31,-2.38 19.15,-1.54 24.32,-0.72 29.48,0.09 33.53,0.97 37.59,1.86 40.29,2.57 43.00,3.29 43.20,3.36 43.40,3.43 43.57,3.56 43.74,3.69 43.86,3.87 43.97,4.04 44.03,4.25 44.08,4.45 44.07,4.67 44.05,4.88 43.97,5.07 43.89,5.27 43.75,5.43 43.61,5.59 43.43,5.70 43.25,5.81 43.04,5.85 42.83,5.89 42.62,5.87 42.41,5.84 42.22,5.75 42.02,5.66 41.87,5.51 41.72,5.36 41.62,5.17 41.52,4.98 41.49,4.77 41.46,4.56 41.50,4.35 41.54,4.14 41.64,3.96 41.74,3.77 41.89,3.63 42.05,3.48 42.24,3.40 42.44,3.31 42.65,3.29 42.86,3.27 43.07,3.32 43.28,3.37 43.46,3.48 43.64,3.59 43.77,3.75 43.91,3.92 43.98,4.11 44.06,4.31 44.07,4.53 44.08,4.74 44.02,4.94 43.96,5.15 43.84,5.32 43.72,5.49 43.55,5.62 43.38,5.75 43.17,5.81 42.97,5.88 42.76,5.88 42.55,5.87 42.55,5.87 42.55,5.87 39.72,5.61 36.89,5.34 32.88,4.62 28.88,3.89 23.73,3.08 18.59,2.27 13.17,1.43 7.75,0.59 5.54,0.71 3.33,0.84 1.91,1.15 0.48,1.46 0.30,1.50 0.12,1.54 -0.06,1.53 -0.24,1.52 -0.42,1.47 -0.60,1.42 -0.76,1.32 -0.92,1.23 -1.06,1.10 -1.19,0.97 -1.29,0.81 -1.39,0.66 -1.45,0.48 -1.51,0.30 -1.52,0.12 -1.54,-0.06 -1.51,-0.24 -1.48,-0.43 -1.41,-0.60 -1.33,-0.77 -1.22,-0.92 -1.11,-1.07 -0.96,-1.18 -0.82,-1.30 -0.65,-1.38 -0.48,-1.46 -0.48,-1.46 L -0.48,-1.46 Z"></path></g><g transform="translate(966 601.7624969482422) rotate(0 -3.5999755859375 13.600006103515625)" stroke="none"><path fill="#000" d="M 0.54,1.80 Q 0.54,1.80 -1.76,2.47 -4.06,3.14 -5.80,4.06 -7.54,4.98 -8.99,5.84 -10.45,6.69 -11.80,5.91 -13.15,5.12 -11.85,4.71 -10.54,4.30 -8.61,3.71 -6.67,3.11 -4.38,2.60 -2.08,2.09 -0.23,1.66 1.61,1.22 3.09,0.81 4.58,0.39 4.80,0.37 5.02,0.34 5.25,0.37 5.47,0.40 5.68,0.48 5.89,0.57 6.07,0.70 6.26,0.83 6.40,1.00 6.55,1.17 6.65,1.37 6.76,1.57 6.81,1.79 6.86,2.01 6.86,2.23 6.85,2.46 6.80,2.67 6.74,2.89 6.64,3.09 6.53,3.29 6.38,3.45 6.23,3.62 6.04,3.75 5.85,3.87 5.64,3.95 5.43,4.03 4.66,5.59 3.90,7.16 2.84,9.02 1.79,10.89 0.34,12.95 -1.09,15.01 -2.31,17.35 -3.52,19.70 -4.55,21.47 -5.57,23.24 -6.88,25.22 -8.19,27.20 -8.30,27.38 -8.40,27.56 -8.56,27.70 -8.72,27.84 -8.92,27.93 -9.11,28.01 -9.33,28.02 -9.54,28.04 -9.74,27.99 -9.95,27.93 -10.13,27.82 -10.31,27.70 -10.44,27.53 -10.57,27.37 -10.64,27.17 -10.71,26.97 -10.72,26.75 -10.72,26.54 -10.65,26.34 -10.59,26.14 -10.46,25.96 -10.34,25.79 -10.16,25.67 -9.99,25.55 -9.79,25.49 -9.58,25.43 -9.37,25.44 -9.16,25.44 -8.96,25.52 -8.76,25.59 -8.60,25.73 -8.43,25.86 -8.32,26.04 -8.21,26.22 -8.16,26.43 -8.11,26.64 -8.13,26.85 -8.15,27.06 -8.23,27.26 -8.32,27.45 -8.46,27.61 -8.61,27.76 -8.79,27.87 -8.98,27.97 -9.19,28.01 -9.40,28.04 -9.61,28.01 -9.82,27.98 -10.01,27.89 -10.20,27.79 -10.34,27.64 -10.49,27.49 -10.59,27.30 -10.68,27.10 -10.71,26.89 -10.73,26.68 -10.69,26.47 -10.65,26.27 -10.65,26.27 -10.65,26.27 -9.84,23.75 -9.04,21.23 -8.05,19.53 -7.07,17.84 -5.71,15.28 -4.35,12.71 -3.00,10.81 -1.64,8.90 -0.43,6.84 0.78,4.79 1.77,3.54 2.76,2.29 3.67,1.34 4.58,0.39 4.80,0.37 5.02,0.34 5.25,0.37 5.47,0.40 5.68,0.48 5.89,0.57 6.07,0.70 6.26,0.83 6.40,1.00 6.55,1.17 6.65,1.37 6.76,1.57 6.81,1.79 6.86,2.01 6.86,2.23 6.85,2.46 6.80,2.67 6.74,2.89 6.64,3.09 6.53,3.29 6.38,3.45 6.23,3.62 6.04,3.75 5.85,3.87 5.64,3.95 5.43,4.03 3.95,4.44 2.47,4.86 0.59,5.30 -1.28,5.74 -3.43,6.21 -5.58,6.68 -7.61,7.30 -9.64,7.93 -11.18,8.22 -12.71,8.51 -13.69,7.44 -14.67,6.37 -13.50,4.94 -12.32,3.50 -10.78,2.60 -9.24,1.70 -7.19,0.66 -5.13,-0.38 -2.83,-1.09 -0.54,-1.80 -0.31,-1.84 -0.09,-1.88 0.13,-1.86 0.35,-1.85 0.57,-1.78 0.79,-1.71 0.98,-1.59 1.17,-1.47 1.33,-1.30 1.49,-1.14 1.61,-0.95 1.72,-0.75 1.79,-0.53 1.85,-0.32 1.86,-0.09 1.88,0.13 1.83,0.35 1.79,0.58 1.69,0.78 1.60,0.99 1.46,1.16 1.31,1.34 1.13,1.48 0.95,1.62 0.74,1.71 0.54,1.80 0.54,1.80 L 0.54,1.80 Z"></path></g><g transform="translate(945.2000122070312 627.3625030517578) rotate(0 20.000030517578125 2.8000030517578125)" stroke="none"><path fill="#000" d="M 0.15,-1.84 Q 0.15,-1.84 2.91,-1.65 5.68,-1.47 8.79,-0.90 11.89,-0.32 15.20,0.13 18.51,0.59 21.83,1.26 25.15,1.93 28.11,2.46 31.08,2.99 34.76,3.57 38.43,4.15 38.64,4.20 38.85,4.25 39.03,4.37 39.21,4.48 39.34,4.65 39.47,4.81 39.54,5.01 39.62,5.21 39.62,5.42 39.63,5.64 39.57,5.84 39.50,6.04 39.38,6.22 39.26,6.39 39.08,6.51 38.91,6.64 38.71,6.70 38.50,6.76 38.29,6.75 38.08,6.75 37.88,6.68 37.68,6.60 37.52,6.47 37.35,6.34 37.24,6.16 37.12,5.98 37.07,5.77 37.02,5.56 37.04,5.35 37.05,5.14 37.14,4.95 37.22,4.75 37.36,4.59 37.51,4.43 37.69,4.33 37.88,4.23 38.08,4.19 38.29,4.15 38.50,4.17 38.71,4.20 38.90,4.30 39.09,4.39 39.24,4.54 39.39,4.69 39.49,4.88 39.58,5.07 39.61,5.28 39.64,5.50 39.60,5.70 39.56,5.91 39.46,6.10 39.35,6.28 39.19,6.42 39.03,6.57 38.84,6.65 38.64,6.73 38.43,6.75 38.22,6.77 38.22,6.77 38.22,6.77 34.34,6.73 30.45,6.69 27.42,6.20 24.39,5.71 21.18,5.07 17.97,4.42 14.58,3.95 11.19,3.48 8.27,2.93 5.35,2.39 2.60,2.11 -0.15,1.84 -0.37,1.80 -0.59,1.75 -0.79,1.66 -0.99,1.56 -1.16,1.42 -1.34,1.28 -1.47,1.10 -1.60,0.92 -1.69,0.71 -1.78,0.51 -1.81,0.29 -1.85,0.06 -1.83,-0.15 -1.81,-0.37 -1.74,-0.58 -1.67,-0.79 -1.55,-0.98 -1.43,-1.17 -1.27,-1.33 -1.10,-1.48 -0.91,-1.59 -0.72,-1.70 -0.50,-1.76 -0.29,-1.83 -0.06,-1.83 0.15,-1.84 0.15,-1.84 L 0.15,-1.84 Z"></path></g><g transform="translate(606.7999877929688 621.7624969482422) rotate(0 -8.399993896484375 0.399993896484375)" stroke="none"><path fill="#000" d="M -1.26,-0.63 Q -1.26,-0.63 -0.95,-1.63 -0.65,-2.63 -0.14,-3.81 0.36,-4.99 0.78,-6.02 1.21,-7.05 -0.84,-7.27 -2.90,-7.50 -4.30,-7.13 -5.69,-6.77 -5.93,-5.64 -6.17,-4.50 -5.36,-3.46 -4.56,-2.41 -3.31,-0.97 -2.07,0.45 -0.39,2.22 1.27,3.99 2.34,5.63 3.41,7.27 2.96,8.55 2.50,9.83 0.14,10.68 -2.22,11.53 -5.99,11.77 -9.77,12.01 -12.33,11.85 -14.89,11.70 -17.56,10.53 -20.23,9.37 -20.40,9.23 -20.56,9.10 -20.68,8.92 -20.80,8.75 -20.85,8.54 -20.90,8.34 -20.89,8.12 -20.87,7.91 -20.79,7.72 -20.71,7.52 -20.57,7.36 -20.43,7.20 -20.24,7.09 -20.06,6.99 -19.85,6.95 -19.64,6.90 -19.43,6.93 -19.22,6.96 -19.03,7.05 -18.84,7.14 -18.69,7.29 -18.53,7.44 -18.44,7.63 -18.34,7.82 -18.31,8.03 -18.28,8.24 -18.32,8.45 -18.36,8.66 -18.46,8.84 -18.56,9.03 -18.72,9.17 -18.88,9.32 -19.07,9.40 -19.27,9.49 -19.48,9.51 -19.69,9.53 -19.90,9.48 -20.10,9.43 -20.28,9.31 -20.46,9.20 -20.60,9.04 -20.73,8.87 -20.81,8.67 -20.88,8.48 -20.89,8.26 -20.90,8.05 -20.84,7.85 -20.78,7.64 -20.65,7.47 -20.53,7.30 -20.36,7.17 -20.19,7.05 -19.99,6.98 -19.78,6.92 -19.57,6.92 -19.36,6.92 -19.16,7.00 -18.96,7.07 -18.96,7.07 -18.96,7.07 -16.81,7.49 -14.67,7.90 -12.33,8.02 -10.00,8.14 -5.77,7.40 -1.53,6.66 -3.28,4.82 -5.02,2.98 -6.42,1.33 -7.81,-0.31 -8.89,-2.20 -9.96,-4.09 -9.82,-5.92 -9.68,-7.76 -8.22,-9.08 -6.76,-10.41 -4.68,-10.85 -2.59,-11.29 -1.02,-11.12 0.54,-10.94 2.03,-10.30 3.52,-9.65 4.16,-8.28 4.80,-6.90 4.35,-5.48 3.90,-4.06 3.19,-2.55 2.49,-1.04 1.87,-0.20 1.26,0.63 1.16,0.77 1.07,0.91 0.94,1.02 0.82,1.14 0.67,1.22 0.52,1.30 0.36,1.35 0.19,1.39 0.02,1.39 -0.14,1.40 -0.30,1.36 -0.47,1.32 -0.62,1.25 -0.77,1.17 -0.90,1.06 -1.03,0.95 -1.13,0.81 -1.23,0.67 -1.29,0.52 -1.36,0.36 -1.38,0.19 -1.40,0.02 -1.39,-0.14 -1.37,-0.31 -1.31,-0.47 -1.26,-0.63 -1.26,-0.63 L -1.26,-0.63 Z"></path></g><g transform="translate(635.6000366210938 610.5625152587891) rotate(0 3.999969482421875 15.199996948242188)" stroke="none"><path fill="#000" d="M 1.70,0.75 Q 1.70,0.75 0.80,2.83 -0.09,4.91 -0.90,7.53 -1.71,10.15 -2.28,12.83 -2.85,15.51 -3.57,18.33 -4.29,21.15 -5.06,23.75 -5.83,26.35 -6.40,27.67 -6.97,28.98 -7.06,29.19 -7.15,29.40 -7.29,29.58 -7.42,29.76 -7.60,29.90 -7.78,30.05 -7.98,30.14 -8.19,30.24 -8.41,30.28 -8.64,30.33 -8.86,30.32 -9.09,30.31 -9.31,30.24 -9.53,30.18 -9.73,30.06 -9.92,29.95 -10.08,29.79 -10.25,29.63 -10.37,29.43 -10.49,29.24 -10.56,29.03 -10.63,28.81 -10.65,28.58 -10.66,28.35 -10.62,28.13 -10.59,27.91 -10.40,26.20 -10.21,24.49 -9.82,23.05 -9.43,21.60 -9.00,20.45 -8.58,19.30 -7.72,18.31 -6.87,17.31 -5.29,16.78 -3.70,16.26 -1.69,16.59 0.31,16.91 1.64,17.34 2.96,17.77 4.08,18.88 5.19,19.98 5.69,21.34 6.18,22.71 6.35,24.04 6.53,25.38 6.08,26.94 5.63,28.49 6.56,27.54 7.49,26.59 8.59,26.02 9.68,25.46 11.85,26.35 14.01,27.25 15.69,28.11 17.37,28.98 17.57,29.07 17.76,29.15 17.92,29.30 18.08,29.44 18.18,29.62 18.28,29.81 18.32,30.02 18.36,30.23 18.33,30.44 18.30,30.65 18.21,30.84 18.11,31.03 17.96,31.18 17.81,31.33 17.62,31.42 17.43,31.51 17.21,31.54 17.00,31.57 16.80,31.53 16.59,31.49 16.40,31.38 16.22,31.27 16.08,31.11 15.94,30.96 15.85,30.76 15.77,30.56 15.76,30.35 15.74,30.14 15.79,29.93 15.85,29.73 15.96,29.55 16.08,29.37 16.24,29.24 16.41,29.11 16.61,29.04 16.81,28.96 17.02,28.96 17.23,28.96 17.44,29.02 17.64,29.08 17.81,29.21 17.98,29.33 18.11,29.51 18.23,29.68 18.29,29.88 18.35,30.09 18.34,30.30 18.34,30.51 18.26,30.71 18.19,30.91 18.05,31.07 17.92,31.24 17.74,31.35 17.56,31.47 17.35,31.52 17.15,31.56 16.93,31.55 16.72,31.53 16.72,31.53 16.72,31.53 14.00,30.23 11.27,28.93 10.30,29.45 9.34,29.97 7.66,30.81 5.99,31.65 4.62,31.57 3.26,31.49 2.43,30.33 1.59,29.18 2.13,27.42 2.68,25.65 2.47,23.98 2.26,22.30 0.92,21.39 -0.41,20.48 -2.49,20.18 -4.57,19.88 -5.33,21.20 -6.09,22.52 -6.47,23.87 -6.85,25.22 -6.91,27.10 -6.97,28.98 -7.06,29.19 -7.15,29.40 -7.29,29.58 -7.42,29.76 -7.60,29.90 -7.78,30.05 -7.98,30.14 -8.19,30.24 -8.41,30.28 -8.64,30.33 -8.86,30.32 -9.09,30.31 -9.31,30.24 -9.53,30.18 -9.72,30.06 -9.92,29.95 -10.08,29.79 -10.25,29.63 -10.37,29.44 -10.49,29.24 -10.56,29.03 -10.63,28.81 -10.65,28.58 -10.66,28.35 -10.62,28.13 -10.59,27.91 -10.05,26.58 -9.50,25.26 -8.75,22.73 -8.00,20.20 -7.30,17.45 -6.59,14.71 -5.98,11.85 -5.37,9.00 -4.48,6.18 -3.58,3.36 -2.64,1.30 -1.70,-0.75 -1.58,-0.94 -1.47,-1.14 -1.31,-1.30 -1.15,-1.46 -0.96,-1.57 -0.77,-1.69 -0.55,-1.76 -0.34,-1.83 -0.12,-1.84 0.10,-1.86 0.32,-1.82 0.54,-1.78 0.75,-1.69 0.95,-1.59 1.13,-1.46 1.31,-1.32 1.45,-1.14 1.59,-0.97 1.68,-0.76 1.77,-0.56 1.81,-0.34 1.86,-0.12 1.84,0.10 1.83,0.32 1.76,0.54 1.70,0.75 1.70,0.75 L 1.70,0.75 Z"></path></g><g transform="translate(665.2000122070312 636.9625091552734) rotate(0 17.199981689453125 -6)" stroke="none"><path fill="#000" d="M 0.62,1.46 Q 0.62,1.46 -0.93,2.26 -2.49,3.06 -3.28,3.69 -4.06,4.33 -4.25,4.41 -4.44,4.48 -4.64,4.52 -4.84,4.55 -5.04,4.53 -5.24,4.51 -5.44,4.45 -5.63,4.38 -5.80,4.27 -5.97,4.17 -6.11,4.02 -6.25,3.87 -6.35,3.70 -6.45,3.52 -6.51,3.32 -6.56,3.13 -6.57,2.93 -6.58,2.72 -6.54,2.53 -6.49,2.33 -6.41,2.14 -6.32,1.96 -6.19,1.80 -6.06,1.65 -5.90,1.53 -5.74,1.41 -3.79,0.55 -1.84,-0.30 0.18,-1.73 2.21,-3.15 3.89,-5.24 5.57,-7.34 6.94,-9.79 8.32,-12.24 8.85,-14.71 9.39,-17.19 9.58,-19.13 9.77,-21.06 9.41,-22.00 9.04,-22.94 9.10,-23.16 9.15,-23.38 9.26,-23.58 9.37,-23.78 9.52,-23.94 9.67,-24.11 9.86,-24.24 10.05,-24.37 10.26,-24.45 10.47,-24.53 10.70,-24.55 10.92,-24.58 11.15,-24.55 11.37,-24.52 11.58,-24.44 11.79,-24.36 11.98,-24.23 12.17,-24.10 12.31,-23.92 12.46,-23.75 12.57,-23.55 12.67,-23.35 12.72,-23.13 12.78,-22.91 12.78,-22.68 12.77,-22.46 11.72,-21.47 10.67,-20.48 10.05,-19.25 9.44,-18.02 8.23,-14.13 7.02,-10.24 6.25,-6.32 5.49,-2.39 4.93,0.69 4.37,3.77 4.13,5.90 3.89,8.04 6.18,7.43 8.46,6.83 9.71,5.66 10.96,4.49 12.06,3.43 13.15,2.37 13.17,2.54 13.18,2.71 13.35,2.55 13.52,2.39 13.72,2.28 13.93,2.17 14.15,2.10 14.38,2.04 14.61,2.04 14.84,2.03 15.07,2.08 15.30,2.13 15.50,2.23 15.71,2.33 15.89,2.48 16.07,2.63 16.21,2.82 16.35,3.01 16.43,3.22 16.52,3.44 16.56,3.67 16.59,3.90 16.57,4.13 16.55,4.36 16.47,4.58 16.40,4.80 16.27,5.00 16.14,5.19 15.98,6.51 15.82,7.82 14.55,7.81 13.27,7.80 14.52,7.02 15.76,6.24 17.10,5.92 18.44,5.61 19.49,5.90 20.54,6.19 22.75,6.22 24.97,6.25 26.99,6.27 29.01,6.29 30.88,6.62 32.76,6.94 34.27,7.29 35.79,7.64 37.87,7.92 39.95,8.20 40.16,8.25 40.36,8.31 40.54,8.42 40.72,8.54 40.85,8.70 40.98,8.87 41.05,9.07 41.12,9.27 41.13,9.48 41.13,9.70 41.07,9.90 41.00,10.10 40.88,10.27 40.75,10.44 40.58,10.57 40.40,10.69 40.20,10.75 40.00,10.81 39.78,10.80 39.57,10.79 39.37,10.72 39.17,10.64 39.01,10.51 38.84,10.37 38.73,10.19 38.62,10.01 38.57,9.81 38.52,9.60 38.54,9.39 38.56,9.18 38.65,8.98 38.73,8.79 38.87,8.63 39.02,8.48 39.20,8.37 39.39,8.27 39.60,8.23 39.81,8.19 40.02,8.22 40.23,8.26 40.42,8.35 40.61,8.45 40.76,8.60 40.90,8.75 41.00,8.94 41.09,9.13 41.12,9.34 41.14,9.56 41.10,9.76 41.06,9.97 40.95,10.16 40.85,10.34 40.69,10.48 40.53,10.62 40.33,10.70 40.14,10.78 39.92,10.80 39.71,10.82 39.71,10.82 39.71,10.82 37.42,10.70 35.12,10.58 33.74,10.27 32.37,9.96 30.68,9.82 28.99,9.68 26.96,9.69 24.93,9.69 22.39,9.62 19.84,9.55 18.62,9.40 17.39,9.26 16.18,9.92 14.98,10.57 13.55,9.63 12.12,8.68 12.35,6.91 12.59,5.14 12.89,3.93 13.18,2.71 13.35,2.55 13.52,2.39 13.72,2.28 13.93,2.17 14.15,2.10 14.38,2.04 14.61,2.04 14.84,2.03 15.07,2.08 15.30,2.13 15.50,2.23 15.71,2.33 15.89,2.48 16.07,2.63 16.21,2.82 16.35,3.01 16.43,3.22 16.52,3.44 16.56,3.67 16.59,3.90 16.57,4.13 16.55,4.36 16.47,4.58 16.40,4.80 16.27,5.00 16.14,5.19 15.44,5.30 14.73,5.42 14.13,6.38 13.53,7.35 11.87,8.79 10.21,10.23 8.00,11.23 5.79,12.24 3.92,11.99 2.04,11.75 1.03,9.75 0.01,7.74 0.25,5.40 0.50,3.06 1.07,-0.04 1.64,-3.14 2.46,-7.30 3.28,-11.45 4.72,-15.75 6.15,-20.05 7.60,-21.49 9.04,-22.94 9.10,-23.16 9.15,-23.38 9.26,-23.58 9.37,-23.78 9.52,-23.94 9.67,-24.11 9.86,-24.24 10.05,-24.37 10.26,-24.45 10.47,-24.53 10.70,-24.55 10.92,-24.58 11.15,-24.55 11.37,-24.52 11.58,-24.44 11.79,-24.36 11.98,-24.23 12.17,-24.10 12.31,-23.92 12.46,-23.75 12.57,-23.55 12.67,-23.35 12.72,-23.13 12.78,-22.91 12.78,-22.68 12.77,-22.46 13.10,-21.64 13.43,-20.82 13.09,-18.61 12.75,-16.41 12.03,-13.49 11.31,-10.57 9.74,-7.89 8.17,-5.21 6.16,-2.81 4.15,-0.40 1.83,1.17 -0.48,2.75 -2.27,3.54 -4.06,4.33 -4.25,4.41 -4.44,4.48 -4.64,4.52 -4.84,4.55 -5.04,4.53 -5.24,4.51 -5.44,4.45 -5.63,4.38 -5.80,4.27 -5.97,4.17 -6.11,4.02 -6.25,3.87 -6.35,3.70 -6.45,3.52 -6.51,3.33 -6.56,3.13 -6.57,2.93 -6.58,2.72 -6.54,2.53 -6.49,2.33 -6.41,2.14 -6.32,1.96 -6.19,1.80 -6.06,1.65 -5.90,1.53 -5.74,1.41 -6.17,1.97 -6.60,2.53 -5.27,1.11 -3.94,-0.30 -2.28,-0.88 -0.62,-1.46 -0.44,-1.52 -0.25,-1.57 -0.06,-1.58 0.12,-1.59 0.31,-1.55 0.50,-1.51 0.67,-1.43 0.85,-1.35 0.99,-1.22 1.14,-1.10 1.26,-0.95 1.38,-0.80 1.45,-0.62 1.53,-0.44 1.56,-0.25 1.59,-0.06 1.57,0.12 1.56,0.31 1.50,0.49 1.44,0.68 1.34,0.84 1.23,1.00 1.10,1.14 0.96,1.27 0.79,1.37 0.62,1.46 0.62,1.46 L 0.62,1.46 Z"></path></g><g transform="translate(713.2000122070312 612.1624908447266) rotate(0 -0.79998779296875 23.20001220703125)" stroke="none"><path fill="#000" d="M 2.03,0 Q 2.03,0 2.06,3.91 2.09,7.82 2.09,13.16 2.09,18.50 2.05,23.99 2.01,29.48 1.36,34.42 0.72,39.36 0.36,41.41 -0.00,43.46 -0.05,43.67 -0.11,43.87 -0.22,44.05 -0.34,44.23 -0.51,44.36 -0.67,44.49 -0.88,44.56 -1.08,44.63 -1.29,44.64 -1.50,44.64 -1.70,44.57 -1.90,44.51 -2.08,44.38 -2.25,44.26 -2.37,44.08 -2.49,43.91 -2.55,43.70 -2.61,43.50 -2.60,43.29 -2.59,43.08 -2.52,42.88 -2.44,42.68 -2.31,42.51 -2.17,42.35 -1.99,42.24 -1.81,42.13 -1.60,42.08 -1.40,42.03 -1.18,42.05 -0.97,42.07 -0.78,42.16 -0.58,42.24 -0.43,42.39 -0.27,42.53 -0.17,42.72 -0.07,42.90 -0.03,43.11 0.00,43.32 -0.02,43.53 -0.06,43.74 -0.15,43.93 -0.25,44.12 -0.40,44.27 -0.55,44.42 -0.75,44.51 -0.94,44.60 -1.15,44.63 -1.36,44.65 -1.57,44.61 -1.78,44.57 -1.96,44.46 -2.14,44.35 -2.28,44.19 -2.42,44.03 -2.50,43.84 -2.58,43.64 -2.60,43.43 -2.61,43.22 -2.61,43.22 -2.61,43.22 -2.59,41.13 -2.56,39.05 -2.28,34.26 -2.01,29.48 -2.05,23.99 -2.09,18.50 -2.09,13.16 -2.09,7.82 -2.06,3.91 -2.03,0 -2.00,-0.24 -1.97,-0.48 -1.89,-0.71 -1.80,-0.94 -1.66,-1.14 -1.52,-1.35 -1.34,-1.51 -1.15,-1.67 -0.94,-1.79 -0.72,-1.90 -0.48,-1.96 -0.24,-2.02 0.00,-2.02 0.24,-2.02 0.48,-1.96 0.72,-1.90 0.94,-1.79 1.15,-1.67 1.34,-1.51 1.52,-1.35 1.66,-1.14 1.80,-0.94 1.89,-0.71 1.97,-0.48 2.00,-0.24 2.03,0.00 2.03,0.00 L 2.03,0 Z"></path></g><g transform="translate(698 632.9625091552734) rotate(0 17.600006103515625 2)" stroke="none"><path fill="#000" d="M 0,-2.21 Q 0,-2.21 2.53,-2.21 5.06,-2.20 9.24,-1.70 13.43,-1.21 18.43,-0.22 23.42,0.76 28.29,1.61 33.15,2.45 33.35,2.51 33.56,2.57 33.73,2.69 33.91,2.80 34.04,2.97 34.17,3.14 34.23,3.34 34.30,3.55 34.30,3.76 34.30,3.97 34.24,4.17 34.17,4.37 34.04,4.54 33.91,4.71 33.73,4.83 33.56,4.95 33.35,5.01 33.15,5.06 32.94,5.05 32.73,5.04 32.53,4.96 32.33,4.88 32.17,4.75 32.01,4.61 31.90,4.43 31.79,4.25 31.74,4.04 31.70,3.83 31.72,3.62 31.74,3.41 31.83,3.22 31.92,3.02 32.07,2.87 32.21,2.71 32.40,2.61 32.59,2.51 32.80,2.48 33.01,2.45 33.22,2.48 33.43,2.51 33.61,2.61 33.80,2.71 33.95,2.87 34.09,3.02 34.18,3.21 34.27,3.41 34.30,3.62 34.32,3.83 34.27,4.04 34.23,4.24 34.12,4.43 34.01,4.61 33.85,4.75 33.68,4.88 33.49,4.96 33.29,5.04 33.08,5.05 32.87,5.06 32.87,5.06 32.87,5.06 27.80,4.84 22.74,4.61 17.84,3.83 12.94,3.05 9.00,2.62 5.05,2.20 2.52,2.21 0,2.21 -0.26,2.18 -0.53,2.15 -0.78,2.05 -1.03,1.96 -1.25,1.81 -1.47,1.65 -1.64,1.45 -1.82,1.25 -1.94,1.02 -2.07,0.78 -2.13,0.52 -2.20,0.26 -2.20,-0.00 -2.20,-0.26 -2.13,-0.52 -2.07,-0.78 -1.94,-1.02 -1.82,-1.25 -1.64,-1.45 -1.47,-1.65 -1.25,-1.81 -1.03,-1.96 -0.78,-2.05 -0.53,-2.15 -0.26,-2.18 0.00,-2.21 0.00,-2.21 L 0,-2.21 Z"></path></g><g transform="translate(1056.4000244140625 652.9625091552734) rotate(0 0.4000244140625 8)" stroke="none"><path fill="#000" d="M 1.74,-0.17 Q 1.74,-0.17 1.98,2.12 2.23,4.42 2.35,5.88 2.48,7.35 2.54,8.68 2.61,10.01 2.36,12.56 2.11,15.11 2.08,15.33 2.06,15.54 1.97,15.73 1.88,15.92 1.73,16.07 1.58,16.23 1.39,16.33 1.21,16.42 1.00,16.46 0.79,16.49 0.58,16.45 0.37,16.42 0.18,16.32 -0.00,16.22 -0.14,16.06 -0.29,15.91 -0.38,15.71 -0.46,15.52 -0.49,15.31 -0.51,15.10 -0.46,14.89 -0.41,14.68 -0.30,14.50 -0.19,14.32 -0.03,14.18 0.12,14.05 0.32,13.97 0.52,13.89 0.73,13.88 0.95,13.87 1.15,13.93 1.35,13.99 1.53,14.11 1.70,14.23 1.83,14.40 1.96,14.57 2.03,14.77 2.09,14.97 2.09,15.19 2.09,15.40 2.02,15.60 1.95,15.80 1.82,15.97 1.69,16.14 1.51,16.25 1.34,16.37 1.13,16.43 0.93,16.48 0.71,16.47 0.50,16.46 0.31,16.38 0.11,16.30 -0.04,16.16 -0.20,16.02 -0.31,15.84 -0.42,15.65 -0.46,15.45 -0.51,15.24 -0.51,15.24 -0.51,15.24 -0.82,12.69 -1.14,10.13 -1.15,8.86 -1.16,7.59 -1.23,6.18 -1.31,4.77 -1.52,2.47 -1.74,0.17 -1.74,-0.03 -1.73,-0.24 -1.68,-0.45 -1.62,-0.65 -1.52,-0.84 -1.42,-1.02 -1.27,-1.18 -1.13,-1.33 -0.95,-1.45 -0.78,-1.57 -0.58,-1.64 -0.38,-1.71 -0.17,-1.73 0.03,-1.75 0.24,-1.72 0.45,-1.69 0.65,-1.61 0.84,-1.53 1.01,-1.41 1.19,-1.28 1.32,-1.12 1.46,-0.96 1.55,-0.77 1.65,-0.58 1.69,-0.38 1.74,-0.17 1.74,-0.17 L 1.74,-0.17 Z"></path></g><g transform="translate(1063.5999755859375 636.9625091552734) rotate(0 0.4000244140625 0)" stroke="none"><path fill="#000" d="M 1.76,-0.54 Q 1.76,-0.54 1.78,-0.10 1.81,0.33 1.63,0.73 1.45,1.13 1.10,1.41 0.75,1.68 0.32,1.76 -0.11,1.84 -0.53,1.71 -0.95,1.58 -1.26,1.26 -1.58,0.95 -1.71,0.53 -1.84,0.11 -1.76,-0.32 -1.68,-0.75 -1.41,-1.10 -1.13,-1.45 -0.73,-1.63 -0.33,-1.81 0.10,-1.78 0.54,-1.76 0.92,-1.53 1.30,-1.30 1.53,-0.92 L 1.76,-0.54 Z"></path></g><g transform="translate(1111.5999755859375 672.9625091552734) rotate(0 -7.99993896484375 -18.400009155273438)" stroke="none"><path fill="#000" d="M -1.24,1.42 Q -1.24,1.42 -3.10,-0.16 -4.96,-1.75 -6.36,-2.82 -7.76,-3.90 -9.64,-4.19 -11.52,-4.47 -13.27,-4.65 -15.01,-4.83 -16.13,-4.49 -17.24,-4.15 -17.43,-3.08 -17.62,-2.01 -16.20,-1.69 -14.79,-1.38 -12.67,-1.13 -10.56,-0.88 -8.64,-1.60 -6.71,-2.32 -4.94,-4.46 -3.16,-6.61 -1.94,-9.24 -0.72,-11.86 0.01,-15.16 0.76,-18.47 1.32,-22.18 1.88,-25.90 2.11,-29.04 2.35,-32.19 2.20,-34.34 2.05,-36.49 3.36,-37.10 4.68,-37.71 4.26,-36.51 3.84,-35.32 2.69,-31.51 1.54,-27.70 0.80,-23.59 0.07,-19.48 -0.23,-15.71 -0.54,-11.94 -0.68,-8.50 -0.81,-5.07 -0.43,-2.89 -0.04,-0.71 0.25,0.38 0.54,1.49 -0.49,1.30 -1.54,1.12 -1.47,0.92 -1.39,0.72 -1.26,0.56 -1.13,0.39 -0.95,0.27 -0.77,0.16 -0.57,0.11 -0.36,0.05 -0.15,0.07 0.05,0.08 0.25,0.17 0.44,0.25 0.60,0.39 0.76,0.53 0.87,0.71 0.97,0.90 1.01,1.11 1.06,1.32 1.03,1.53 1.00,1.74 0.91,1.93 0.82,2.12 0.67,2.27 0.52,2.42 0.33,2.52 0.14,2.61 -0.06,2.64 -0.27,2.67 -0.48,2.64 -0.69,2.60 -0.88,2.49 -1.06,2.39 -1.20,2.23 -1.35,2.08 -1.43,1.88 -1.52,1.69 -1.54,1.48 -1.56,1.26 -1.51,1.06 -1.46,0.85 -1.34,0.67 -1.23,0.49 -1.07,0.36 -0.90,0.22 -0.70,0.15 -0.50,0.07 -0.29,0.07 -0.08,0.06 0.11,0.12 0.32,0.18 0.49,0.30 0.67,0.43 0.79,0.60 0.92,0.77 0.98,0.97 1.04,1.17 1.04,1.39 1.04,1.60 1.04,1.60 1.04,1.60 -1.14,2.20 -3.32,2.81 -3.83,1.41 -4.34,0.01 -4.75,-2.60 -5.17,-5.23 -5.03,-8.76 -4.89,-12.30 -4.55,-16.28 -4.21,-20.25 -3.41,-24.62 -2.62,-29.00 -1.25,-33.24 0.10,-37.49 1.28,-39.01 2.46,-40.53 3.69,-40.58 4.91,-40.63 5.61,-38.68 6.31,-36.73 6.41,-34.30 6.52,-31.87 6.26,-28.57 6.00,-25.27 5.41,-21.40 4.82,-17.52 3.93,-13.79 3.04,-10.07 1.50,-6.96 -0.04,-3.86 -2.60,-1.19 -5.17,1.47 -8.03,2.34 -10.90,3.21 -13.57,2.87 -16.24,2.52 -18.49,1.45 -20.75,0.37 -21.46,-1.42 -22.17,-3.22 -21.51,-4.83 -20.85,-6.44 -19.60,-7.29 -18.36,-8.14 -16.50,-8.55 -14.65,-8.95 -12.65,-8.72 -10.66,-8.48 -8.07,-7.79 -5.48,-7.11 -3.94,-5.89 -2.39,-4.68 -0.57,-3.05 1.24,-1.42 1.39,-1.25 1.55,-1.08 1.65,-0.88 1.76,-0.68 1.82,-0.46 1.87,-0.23 1.87,-0.01 1.87,0.21 1.82,0.43 1.77,0.66 1.66,0.86 1.56,1.06 1.41,1.23 1.26,1.40 1.07,1.53 0.88,1.67 0.67,1.75 0.46,1.83 0.23,1.86 0.01,1.89 -0.21,1.86 -0.44,1.83 -0.65,1.76 -0.86,1.68 -1.05,1.55 -1.24,1.42 -1.24,1.42 L -1.24,1.42 Z"></path></g></svg>