<svg version="1.1" xmlns="http://www.w3.org/2000/svg" viewBox="0 0 10020 651.4125061035156" width="10020" height="651.4125061035156">
  <!-- svg-source:excalidraw -->
  
  <defs>
    <style>
      @font-face {
        font-family: "Virgil";
        src: url("https://excalidraw.com/Virgil.woff2");
      }
      @font-face {
        font-family: "Cascadia";
        src: url("https://excalidraw.com/Cascadia.woff2");
      }
    </style>
  </defs>
  <rect x="0" y="0" width="10020" height="651.4125061035156" fill="#fff0"></rect><g stroke-linecap="round" transform="translate(10 10) rotate(0 5000 0.5)"><path d="M-0.52 -0.26 C3022.65 -30.2, 6044.59 -29.2, 9999.32 0.22 M0.38 -0.31 C3948.03 -0.44, 7895.41 0.2, 9999.95 0.08 M10000.08 -0.06 C10000.09 0.27, 10000.05 0.48, 10000.09 0.92 M9999.97 0.01 C9999.95 0.33, 9999.98 0.72, 10000 0.99 M10000.22 1.51 C7095.77 35.76, 4193.15 34.95, -0.25 0.75 M10000.01 1.13 C7827.97 2.74, 5656.23 3.35, -0.33 0.84 M-0.04 1.01 C0 0.63, -0.06 0.15, 0.05 -0.03 M-0.04 0.95 C-0.04 0.73, -0.03 0.59, -0.05 -0.02" stroke="transparent" stroke-width="1" fill="none"></path></g><g transform="translate(694.7999877929688 634.2124938964844) rotate(0 127.60003662109375 -11.199981689453125)" stroke="none"><path fill="#000" d="M 0.31,1.59 Q 0.31,1.59 -1.85,1.22 -4.02,0.86 -1.89,-1.47 0.24,-3.81 4.02,-6.18 7.81,-8.55 13.36,-11.64 18.91,-14.74 24.96,-17.89 31.00,-21.05 37.06,-23.79 43.13,-26.53 49.31,-27.98 55.50,-29.43 59.96,-29.34 64.42,-29.25 67.58,-27.45 70.73,-25.64 72.43,-23.00 74.13,-20.36 74.61,-16.00 75.10,-11.63 74.55,-8.09 74.00,-4.54 73.30,-1.68 72.60,1.17 72.32,2.74 72.04,4.30 72.13,5.24 72.23,6.18 72.16,6.41 72.09,6.64 71.96,6.85 71.84,7.06 71.66,7.23 71.49,7.41 71.28,7.54 71.08,7.66 70.84,7.74 70.61,7.81 70.37,7.82 70.13,7.84 69.89,7.80 69.65,7.76 69.42,7.66 69.20,7.56 69.01,7.41 68.82,7.26 68.67,7.07 68.51,6.88 68.41,6.65 68.31,6.43 68.27,6.19 68.22,5.95 68.24,5.71 68.25,5.47 71.47,3.75 74.68,2.03 78.15,-0.12 81.63,-2.28 85.41,-5.04 89.20,-7.80 92.69,-10.17 96.19,-12.54 99.39,-14.10 102.60,-15.66 105.16,-16.15 107.71,-16.64 110.07,-15.86 112.43,-15.07 114.46,-14.02 116.50,-12.97 118.57,-11.56 120.64,-10.15 122.99,-9.44 125.35,-8.73 127.95,-9.07 130.54,-9.42 133.86,-10.85 137.17,-12.29 140.66,-14.27 144.16,-16.25 147.39,-17.65 150.63,-19.04 154.18,-19.48 157.74,-19.92 160.78,-18.36 163.83,-16.80 166.33,-13.88 168.84,-10.97 170.58,-7.82 172.32,-4.67 174.47,-1.94 176.61,0.79 178.54,2.06 180.47,3.33 182.81,2.96 185.15,2.60 188.11,0.95 191.07,-0.68 195.91,-3.14 200.74,-5.60 205.54,-6.76 210.35,-7.92 215.53,-7.95 220.72,-7.98 226.72,-6.80 232.71,-5.61 239.04,-4.33 245.37,-3.04 249.60,-2.38 253.82,-1.72 255.63,-1.27 257.44,-0.82 257.64,-0.76 257.84,-0.70 258.02,-0.58 258.19,-0.46 258.32,-0.29 258.45,-0.12 258.52,0.07 258.58,0.28 258.58,0.49 258.58,0.70 258.51,0.90 258.44,1.10 258.31,1.27 258.18,1.44 258.00,1.56 257.83,1.67 257.62,1.73 257.42,1.79 257.20,1.77 256.99,1.76 256.79,1.68 256.60,1.60 256.44,1.46 256.28,1.32 256.17,1.14 256.06,0.95 256.02,0.75 255.97,0.54 256.00,0.33 256.02,0.12 256.11,-0.07 256.20,-0.26 256.35,-0.41 256.50,-0.56 256.69,-0.66 256.87,-0.76 257.08,-0.79 257.29,-0.82 257.50,-0.79 257.71,-0.75 257.90,-0.65 258.09,-0.55 258.23,-0.40 258.38,-0.24 258.46,-0.05 258.55,0.14 258.57,0.35 258.59,0.56 258.55,0.77 258.50,0.97 258.39,1.16 258.28,1.34 258.11,1.47 257.95,1.61 257.75,1.69 257.56,1.76 257.34,1.77 257.13,1.78 257.13,1.78 257.13,1.78 255.27,1.81 253.41,1.84 249.00,1.49 244.59,1.14 238.19,0.05 231.79,-1.02 226.23,-2.17 220.67,-3.31 215.97,-3.42 211.28,-3.52 206.90,-2.68 202.53,-1.84 197.68,0.38 192.83,2.62 189.23,4.45 185.64,6.28 182.29,6.52 178.94,6.76 176.16,5.13 173.37,3.49 170.91,0.47 168.45,-2.54 166.93,-5.36 165.42,-8.18 163.49,-10.66 161.57,-13.14 159.62,-14.51 157.67,-15.88 154.88,-15.66 152.09,-15.44 149.06,-14.19 146.03,-12.94 142.36,-10.86 138.68,-8.78 134.86,-7.16 131.04,-5.54 127.68,-5.19 124.32,-4.83 121.31,-5.73 118.31,-6.63 116.42,-7.92 114.54,-9.21 112.69,-10.18 110.84,-11.15 109.46,-11.88 108.08,-12.60 106.17,-12.32 104.27,-12.03 101.30,-10.68 98.34,-9.33 94.89,-7.02 91.44,-4.72 87.55,-1.87 83.65,0.96 79.87,3.32 76.09,5.67 74.16,5.93 72.23,6.18 72.16,6.41 72.09,6.64 71.96,6.85 71.84,7.06 71.66,7.23 71.49,7.41 71.29,7.53 71.08,7.66 70.84,7.74 70.61,7.81 70.37,7.82 70.13,7.84 69.89,7.80 69.65,7.76 69.42,7.66 69.20,7.56 69.01,7.41 68.82,7.26 68.67,7.07 68.51,6.88 68.41,6.66 68.31,6.43 68.27,6.19 68.22,5.95 68.24,5.71 68.25,5.47 68.13,4.55 68.02,3.63 68.33,1.91 68.63,0.19 69.31,-2.50 69.99,-5.20 70.52,-8.25 71.05,-11.30 70.83,-14.89 70.60,-18.47 69.56,-20.45 68.51,-22.43 66.29,-23.94 64.06,-25.44 60.20,-25.55 56.34,-25.66 50.52,-24.34 44.70,-23.02 38.74,-20.33 32.78,-17.64 26.78,-14.51 20.78,-11.38 15.31,-8.33 9.84,-5.29 6.10,-2.95 2.35,-0.61 0.89,-0.27 -0.57,0.05 -0.44,-0.76 -0.31,-1.59 -0.12,-1.60 0.07,-1.62 0.26,-1.59 0.45,-1.55 0.63,-1.48 0.81,-1.40 0.97,-1.28 1.13,-1.16 1.25,-1.01 1.37,-0.86 1.46,-0.68 1.54,-0.50 1.58,-0.31 1.62,-0.12 1.61,0.07 1.60,0.26 1.54,0.45 1.49,0.64 1.39,0.81 1.29,0.98 1.15,1.12 1.02,1.26 0.85,1.36 0.69,1.47 0.50,1.53 0.31,1.59 0.31,1.59 L 0.31,1.59 Z"></path></g></svg>