<svg version="1.1" xmlns="http://www.w3.org/2000/svg" viewBox="0 0 10020 753.8125847412109" width="10020" height="753.8125847412109">
  <!-- svg-source:excalidraw -->
  
  <defs>
    <style>
      @font-face {
        font-family: "Virgil";
        src: url("https://excalidraw.com/Virgil.woff2");
      }
      @font-face {
        font-family: "Cascadia";
        src: url("https://excalidraw.com/Cascadia.woff2");
      }
    </style>
  </defs>
  <rect x="0" y="0" width="10020" height="753.8125847412109" fill="#fff0"></rect><g stroke-linecap="round" transform="translate(10 10) rotate(0 5000 0.5)"><path d="M-0.52 -0.26 C3022.65 -30.2, 6044.59 -29.2, 9999.32 0.22 M0.38 -0.31 C3948.03 -0.44, 7895.41 0.2, 9999.95 0.08 M10000.08 -0.06 C10000.09 0.27, 10000.05 0.48, 10000.09 0.92 M9999.97 0.01 C9999.95 0.33, 9999.98 0.72, 10000 0.99 M10000.22 1.51 C7095.77 35.76, 4193.15 34.95, -0.25 0.75 M10000.01 1.13 C7827.97 2.74, 5656.23 3.35, -0.33 0.84 M-0.04 1.01 C0 0.63, -0.06 0.15, 0.05 -0.03 M-0.04 0.95 C-0.04 0.73, -0.03 0.59, -0.05 -0.02" stroke="transparent" stroke-width="1" fill="none"></path></g><g transform="translate(608.4000244140625 547.8125) rotate(0 -6.4000244140625 0.399993896484375)" stroke="none"><path fill="#000" d="M -1.55,0.25 Q -1.55,0.25 -1.84,-1.09 -2.14,-2.44 -2.61,-3.40 -3.09,-4.37 -4.06,-5.61 -5.03,-6.85 -6.21,-7.40 -7.39,-7.96 -8.87,-7.75 -10.35,-7.54 -11.14,-6.46 -11.93,-5.37 -12.99,-3.58 -14.04,-1.79 -14.65,0.81 -15.26,3.43 -15.41,5.12 -15.55,6.81 -13.66,7.65 -11.77,8.49 -9.79,7.39 -7.82,6.30 -6.30,4.85 -4.77,3.40 -3.96,1.98 -3.14,0.57 -2.41,-0.73 -1.68,-2.03 -1.95,-1.75 -2.22,-1.47 -2.11,-1.69 -2.00,-1.92 -1.83,-2.11 -1.67,-2.30 -1.46,-2.45 -1.26,-2.59 -1.02,-2.68 -0.79,-2.78 -0.54,-2.81 -0.29,-2.85 -0.04,-2.82 0.20,-2.79 0.44,-2.71 0.68,-2.62 0.89,-2.48 1.10,-2.34 1.27,-2.15 1.44,-1.97 1.56,-1.75 1.68,-1.52 1.74,-1.28 1.81,-1.04 1.81,-0.78 1.81,-0.53 1.76,-0.29 1.70,-0.04 2.10,1.85 2.50,3.76 3.92,5.16 5.34,6.57 5.54,6.65 5.73,6.74 5.89,6.89 6.04,7.03 6.14,7.22 6.24,7.41 6.28,7.62 6.31,7.83 6.28,8.04 6.25,8.25 6.15,8.43 6.05,8.62 5.90,8.77 5.74,8.92 5.55,9.01 5.36,9.10 5.15,9.12 4.94,9.15 4.73,9.10 4.52,9.06 4.34,8.95 4.16,8.84 4.02,8.68 3.88,8.52 3.80,8.32 3.72,8.12 3.71,7.91 3.69,7.70 3.75,7.49 3.80,7.29 3.92,7.11 4.04,6.94 4.21,6.81 4.38,6.68 4.58,6.61 4.78,6.54 4.99,6.54 5.21,6.54 5.41,6.60 5.61,6.67 5.78,6.80 5.95,6.93 6.07,7.10 6.19,7.28 6.25,7.48 6.30,7.68 6.29,7.90 6.28,8.11 6.21,8.31 6.13,8.50 5.99,8.67 5.86,8.83 5.67,8.94 5.49,9.05 5.29,9.10 5.08,9.14 4.87,9.12 4.66,9.10 4.66,9.10 4.66,9.10 1.90,7.91 -0.84,6.72 -1.26,5.60 -1.67,4.49 -1.95,2.86 -2.22,1.23 -2.22,-0.11 -2.22,-1.47 -2.11,-1.69 -2.00,-1.92 -1.83,-2.11 -1.67,-2.30 -1.46,-2.45 -1.26,-2.59 -1.02,-2.68 -0.79,-2.78 -0.54,-2.81 -0.29,-2.85 -0.04,-2.82 0.20,-2.79 0.44,-2.71 0.68,-2.62 0.89,-2.48 1.10,-2.34 1.27,-2.15 1.44,-1.97 1.56,-1.75 1.68,-1.52 1.74,-1.28 1.81,-1.04 1.81,-0.78 1.81,-0.53 1.76,-0.29 1.70,-0.04 0.97,1.28 0.25,2.61 -0.89,4.44 -2.04,6.27 -4.04,8.12 -6.05,9.96 -9.14,11.22 -12.22,12.47 -14.43,11.76 -16.64,11.05 -18.02,9.33 -19.40,7.62 -19.37,5.01 -19.35,2.41 -18.49,-0.75 -17.62,-3.93 -16.30,-6.01 -14.97,-8.09 -13.40,-9.63 -11.82,-11.17 -10.19,-11.62 -8.55,-12.07 -7.16,-11.80 -5.78,-11.53 -4.63,-10.94 -3.48,-10.36 -2.36,-9.08 -1.25,-7.79 -0.47,-6.60 0.30,-5.41 0.76,-4.24 1.22,-3.07 1.38,-1.66 1.55,-0.25 1.56,-0.06 1.56,0.12 1.53,0.30 1.49,0.49 1.41,0.66 1.33,0.83 1.21,0.98 1.09,1.13 0.94,1.24 0.79,1.36 0.61,1.43 0.44,1.51 0.25,1.54 0.06,1.57 -0.11,1.55 -0.30,1.54 -0.48,1.48 -0.66,1.42 -0.83,1.32 -0.99,1.22 -1.12,1.08 -1.25,0.95 -1.35,0.78 -1.44,0.62 -1.49,0.44 -1.55,0.25 -1.55,0.25 L -1.55,0.25 Z"></path></g><g transform="translate(629.2000122070312 543.8125) rotate(0 9.600006103515625 0.399993896484375)" stroke="none"><path fill="#000" d="M 0.14,-1.56 Q 0.14,-1.56 2.69,-1.58 5.24,-1.61 7.65,-1.52 10.05,-1.43 12.22,-1.34 14.39,-1.26 16.36,-0.89 18.34,-0.52 18.55,-0.48 18.76,-0.45 18.94,-0.34 19.13,-0.24 19.27,-0.09 19.42,0.06 19.50,0.25 19.59,0.45 19.61,0.66 19.63,0.87 19.58,1.08 19.53,1.29 19.42,1.47 19.31,1.65 19.15,1.78 18.98,1.92 18.78,1.99 18.59,2.07 18.37,2.08 18.16,2.09 17.96,2.03 17.75,1.97 17.58,1.85 17.41,1.73 17.28,1.55 17.15,1.38 17.09,1.18 17.02,0.98 17.02,0.77 17.03,0.55 17.10,0.35 17.17,0.15 17.30,-0.00 17.43,-0.17 17.61,-0.29 17.78,-0.41 17.99,-0.46 18.20,-0.51 18.41,-0.50 18.62,-0.48 18.82,-0.40 19.01,-0.32 19.17,-0.18 19.33,-0.04 19.44,0.13 19.55,0.31 19.59,0.52 19.63,0.73 19.61,0.94 19.58,1.15 19.49,1.34 19.40,1.53 19.25,1.69 19.10,1.84 18.91,1.94 18.72,2.03 18.51,2.07 18.30,2.10 18.30,2.10 18.30,2.10 16.31,2.42 14.31,2.73 12.10,2.74 9.88,2.74 7.37,2.63 4.87,2.53 2.36,2.04 -0.14,1.56 -0.32,1.52 -0.51,1.48 -0.68,1.40 -0.85,1.32 -1.00,1.20 -1.14,1.07 -1.25,0.92 -1.37,0.77 -1.44,0.59 -1.51,0.42 -1.54,0.23 -1.57,0.04 -1.55,-0.14 -1.53,-0.33 -1.47,-0.50 -1.41,-0.68 -1.31,-0.84 -1.20,-1.00 -1.07,-1.13 -0.93,-1.26 -0.76,-1.36 -0.60,-1.45 -0.41,-1.50 -0.23,-1.55 -0.04,-1.56 0.14,-1.56 0.14,-1.56 L 0.14,-1.56 Z"></path></g><g transform="translate(637.2000122070312 535.8125) rotate(0 -0.399993896484375 10.799995422363281)" stroke="none"><path fill="#000" d="M 1.52,0.15 Q 1.52,0.15 1.61,2.48 1.70,4.81 1.61,7.11 1.52,9.40 1.46,11.76 1.40,14.11 0.95,17.53 0.51,20.94 0.48,21.15 0.44,21.36 0.34,21.55 0.24,21.74 0.08,21.88 -0.06,22.03 -0.25,22.11 -0.45,22.20 -0.66,22.22 -0.87,22.25 -1.08,22.20 -1.29,22.15 -1.47,22.04 -1.65,21.93 -1.78,21.77 -1.92,21.60 -2.00,21.41 -2.07,21.21 -2.08,21.00 -2.09,20.78 -2.04,20.58 -1.98,20.37 -1.86,20.20 -1.74,20.02 -1.57,19.90 -1.40,19.77 -1.20,19.70 -0.99,19.64 -0.78,19.64 -0.57,19.64 -0.37,19.71 -0.17,19.78 -0.00,19.91 0.16,20.04 0.28,20.22 0.40,20.39 0.45,20.60 0.51,20.80 0.49,21.01 0.48,21.23 0.40,21.42 0.32,21.62 0.18,21.78 0.04,21.94 -0.13,22.05 -0.31,22.16 -0.52,22.20 -0.73,22.25 -0.94,22.22 -1.15,22.20 -1.34,22.11 -1.54,22.02 -1.69,21.87 -1.84,21.72 -1.94,21.53 -2.04,21.34 -2.07,21.13 -2.10,20.92 -2.10,20.92 -2.10,20.93 -2.49,17.48 -2.87,14.04 -2.85,11.63 -2.83,9.22 -2.73,6.80 -2.62,4.38 -2.07,2.11 -1.52,-0.15 -1.48,-0.33 -1.44,-0.51 -1.36,-0.67 -1.27,-0.84 -1.15,-0.98 -1.03,-1.12 -0.88,-1.23 -0.73,-1.34 -0.56,-1.40 -0.39,-1.47 -0.21,-1.50 -0.03,-1.53 0.15,-1.51 0.33,-1.49 0.50,-1.43 0.68,-1.37 0.83,-1.26 0.99,-1.16 1.11,-1.03 1.24,-0.89 1.33,-0.73 1.41,-0.57 1.46,-0.39 1.51,-0.21 1.51,-0.03 1.52,0.15 1.52,0.15 L 1.52,0.15 Z"></path></g><g transform="translate(665.2000122070312 530.2124938964844) rotate(0 5.199981689453125 18.00000762939453)" stroke="none"><path fill="#000" d="M 1.82,0.56 Q 1.82,0.56 0.99,3.57 0.16,6.59 -0.14,9.31 -0.45,12.03 -0.59,15.23 -0.72,18.43 -0.33,22.20 0.06,25.96 0.45,28.49 0.84,31.02 1.20,32.20 1.56,33.38 1.74,33.71 1.91,34.05 1.96,34.32 2.00,34.59 1.98,34.86 1.96,35.13 1.88,35.39 1.80,35.65 1.65,35.88 1.51,36.11 1.31,36.30 1.12,36.49 0.88,36.63 0.65,36.77 0.39,36.85 0.13,36.93 -0.14,36.94 -0.41,36.95 -0.67,36.90 -0.94,36.85 -1.19,36.73 -1.44,36.62 -1.65,36.45 -1.86,36.28 -2.03,36.06 -2.19,35.85 -2.30,35.60 -2.41,35.35 -2.12,33.52 -1.82,31.69 -0.98,29.02 -0.13,26.36 0.80,24.56 1.73,22.77 3.27,21.70 4.82,20.63 6.87,20.75 8.92,20.86 10.93,22.58 12.95,24.29 13.79,26.30 14.62,28.30 13.94,30.18 13.25,32.05 11.29,33.62 9.33,35.19 6.98,36.08 4.62,36.97 2.27,37.04 -0.07,37.11 -0.28,37.17 -0.48,37.22 -0.70,37.20 -0.91,37.19 -1.10,37.10 -1.30,37.02 -1.46,36.88 -1.62,36.74 -1.72,36.56 -1.83,36.37 -1.87,36.16 -1.91,35.96 -1.89,35.75 -1.86,35.53 -1.77,35.34 -1.67,35.15 -1.53,35.00 -1.38,34.85 -1.19,34.75 -1.00,34.66 -0.79,34.63 -0.58,34.60 -0.37,34.64 -0.16,34.67 0.02,34.78 0.20,34.88 0.35,35.04 0.49,35.19 0.57,35.39 0.66,35.58 0.68,35.79 0.70,36.01 0.65,36.21 0.60,36.42 0.49,36.60 0.37,36.78 0.21,36.91 0.04,37.05 -0.15,37.12 -0.34,37.20 -0.56,37.21 -0.77,37.21 -0.97,37.15 -1.18,37.09 -1.35,36.97 -1.52,36.85 -1.65,36.67 -1.77,36.50 -1.84,36.30 -1.90,36.10 -1.90,35.89 -1.89,35.67 -1.82,35.47 -1.75,35.27 -1.62,35.11 -1.49,34.94 -1.31,34.82 -1.13,34.71 -1.13,34.71 -1.13,34.71 1.00,33.76 3.13,32.81 4.94,32.20 6.75,31.59 8.10,30.72 9.46,29.85 9.64,28.62 9.81,27.39 8.83,26.20 7.85,25.00 6.66,25.02 5.47,25.04 4.79,26.37 4.11,27.71 3.01,30.88 1.91,34.05 1.96,34.32 2.00,34.59 1.98,34.86 1.96,35.13 1.88,35.39 1.80,35.65 1.65,35.88 1.51,36.11 1.31,36.30 1.12,36.49 0.88,36.63 0.65,36.77 0.39,36.85 0.13,36.93 -0.14,36.94 -0.41,36.95 -0.67,36.90 -0.94,36.85 -1.19,36.73 -1.44,36.62 -1.65,36.45 -1.86,36.28 -2.03,36.06 -2.19,35.85 -2.30,35.60 -2.41,35.35 -2.58,35.01 -2.74,34.68 -3.17,33.19 -3.61,31.71 -4.01,29.06 -4.41,26.41 -4.79,22.31 -5.17,18.22 -4.98,14.83 -4.78,11.44 -4.31,8.40 -3.84,5.36 -2.83,2.40 -1.82,-0.56 -1.72,-0.77 -1.63,-0.98 -1.49,-1.16 -1.35,-1.34 -1.17,-1.48 -0.99,-1.62 -0.78,-1.72 -0.57,-1.81 -0.34,-1.86 -0.12,-1.90 0.10,-1.88 0.33,-1.87 0.55,-1.80 0.77,-1.74 0.97,-1.62 1.17,-1.50 1.33,-1.34 1.49,-1.18 1.61,-0.98 1.73,-0.78 1.80,-0.56 1.87,-0.35 1.88,-0.12 1.90,0.10 1.86,0.33 1.82,0.56 1.82,0.56 L 1.82,0.56 Z"></path></g><g transform="translate(698 551.0124969482422) rotate(0 12.800018310546875 0.4000091552734375)" stroke="none"><path fill="#000" d="M 0.37,-1.88 Q 0.37,-1.88 2.69,-1.50 5.00,-1.12 8.13,-0.94 11.27,-0.76 14.57,-1.08 17.86,-1.40 20.93,-1.62 24.00,-1.84 24.22,-1.85 24.43,-1.85 24.63,-1.78 24.83,-1.72 25.00,-1.59 25.18,-1.47 25.30,-1.29 25.42,-1.12 25.48,-0.92 25.54,-0.71 25.53,-0.50 25.52,-0.29 25.45,-0.09 25.37,0.10 25.24,0.26 25.10,0.43 24.92,0.54 24.74,0.65 24.54,0.70 24.33,0.75 24.12,0.73 23.91,0.71 23.71,0.62 23.52,0.54 23.36,0.40 23.20,0.25 23.10,0.07 23.00,-0.11 22.96,-0.32 22.92,-0.53 22.95,-0.74 22.99,-0.95 23.08,-1.14 23.18,-1.33 23.33,-1.48 23.48,-1.63 23.67,-1.72 23.87,-1.81 24.08,-1.84 24.29,-1.86 24.50,-1.82 24.70,-1.78 24.89,-1.67 25.07,-1.56 25.21,-1.40 25.35,-1.24 25.43,-1.05 25.51,-0.85 25.53,-0.64 25.54,-0.43 25.49,-0.22 25.44,-0.02 25.32,0.15 25.20,0.33 25.04,0.46 24.87,0.59 24.67,0.66 24.47,0.73 24.47,0.73 24.47,0.73 21.38,1.62 18.29,2.52 14.66,2.95 11.03,3.38 7.61,3.17 4.19,2.96 1.90,2.42 -0.37,1.88 -0.59,1.81 -0.81,1.73 -1.01,1.61 -1.20,1.49 -1.36,1.32 -1.53,1.15 -1.64,0.95 -1.76,0.75 -1.82,0.53 -1.89,0.31 -1.90,0.08 -1.91,-0.14 -1.86,-0.37 -1.82,-0.60 -1.72,-0.81 -1.62,-1.01 -1.48,-1.19 -1.33,-1.37 -1.15,-1.51 -0.96,-1.65 -0.75,-1.75 -0.54,-1.84 -0.31,-1.88 -0.08,-1.91 0.14,-1.90 0.37,-1.88 0.37,-1.88 L 0.37,-1.88 Z"></path></g><g transform="translate(712.4000244140625 535.0124969482422) rotate(0 -0.800018310546875 17.600006103515625)" stroke="none"><path fill="#000" d="M 2.10,0.42 Q 2.10,0.42 1.67,2.72 1.25,5.03 0.65,9.41 0.05,13.79 -0.44,17.72 -0.95,21.65 -1.16,24.84 -1.38,28.04 -1.01,29.62 -0.64,31.20 0.78,32.36 2.21,33.53 2.37,33.67 2.53,33.81 2.64,33.99 2.74,34.18 2.78,34.39 2.83,34.60 2.80,34.81 2.77,35.02 2.68,35.21 2.58,35.40 2.43,35.55 2.28,35.70 2.09,35.80 1.90,35.89 1.69,35.92 1.48,35.95 1.27,35.91 1.07,35.87 0.88,35.77 0.70,35.67 0.55,35.51 0.41,35.35 0.32,35.16 0.24,34.96 0.22,34.75 0.20,34.54 0.25,34.33 0.30,34.12 0.42,33.94 0.53,33.77 0.70,33.63 0.86,33.50 1.06,33.42 1.26,33.35 1.47,33.34 1.68,33.34 1.89,33.40 2.09,33.46 2.26,33.58 2.44,33.70 2.56,33.88 2.69,34.05 2.75,34.25 2.81,34.45 2.81,34.67 2.80,34.88 2.73,35.08 2.66,35.28 2.53,35.44 2.39,35.61 2.22,35.73 2.04,35.84 1.83,35.89 1.63,35.95 1.41,35.93 1.20,35.91 1.01,35.83 0.81,35.75 0.81,35.75 0.81,35.75 -1.75,34.38 -4.32,33.02 -5.15,30.42 -5.97,27.83 -5.76,24.44 -5.54,21.06 -5.03,17.08 -4.51,13.11 -3.80,8.64 -3.09,4.16 -2.59,1.87 -2.10,-0.42 -2.02,-0.66 -1.94,-0.91 -1.80,-1.13 -1.67,-1.35 -1.48,-1.53 -1.29,-1.71 -1.07,-1.84 -0.85,-1.97 -0.60,-2.04 -0.35,-2.12 -0.09,-2.13 0.16,-2.14 0.41,-2.09 0.67,-2.04 0.90,-1.93 1.14,-1.82 1.34,-1.65 1.54,-1.49 1.70,-1.28 1.85,-1.08 1.96,-0.84 2.06,-0.60 2.10,-0.35 2.14,-0.09 2.12,0.16 2.10,0.42 2.10,0.42 L 2.10,0.42 Z"></path></g><g transform="translate(754.7999877929688 548.6124877929688) rotate(0 2.4000244140625 4.800010681152344)" stroke="none"><path fill="#000" d="M -0.19,2.13 Q -0.19,2.13 -2.70,1.98 -5.20,1.83 -6.73,2.42 -8.26,3.01 -9.11,3.92 -9.97,4.84 -8.97,5.69 -7.97,6.53 -6.83,6.07 -5.69,5.60 -4.64,4.70 -3.58,3.79 -2.64,2.77 -1.71,1.74 -1.25,1.01 -0.80,0.28 -0.58,0.10 -0.37,-0.08 -0.11,-0.20 0.13,-0.33 0.41,-0.39 0.68,-0.46 0.96,-0.45 1.25,-0.45 1.52,-0.37 1.79,-0.30 2.04,-0.16 2.29,-0.03 2.50,0.15 2.71,0.34 2.86,0.58 3.02,0.82 3.11,1.08 3.21,1.35 3.24,1.63 3.27,1.91 3.23,2.19 3.19,2.47 3.08,2.73 2.98,3.00 2.81,3.23 2.65,3.46 4.01,4.13 5.38,4.81 6.60,5.48 7.82,6.15 9.19,6.70 10.55,7.26 11.81,7.60 13.07,7.93 15.01,7.52 16.95,7.12 17.16,7.08 17.37,7.04 17.58,7.07 17.79,7.10 17.98,7.20 18.17,7.29 18.32,7.45 18.46,7.60 18.56,7.79 18.65,7.98 18.68,8.19 18.71,8.40 18.67,8.61 18.62,8.82 18.52,9.00 18.41,9.19 18.25,9.33 18.09,9.47 17.90,9.55 17.70,9.63 17.49,9.65 17.28,9.67 17.07,9.61 16.87,9.56 16.69,9.44 16.51,9.33 16.38,9.16 16.25,9.00 16.17,8.80 16.10,8.60 16.10,8.38 16.09,8.17 16.16,7.97 16.22,7.77 16.35,7.59 16.47,7.42 16.64,7.30 16.82,7.18 17.02,7.12 17.22,7.05 17.44,7.06 17.65,7.07 17.85,7.14 18.05,7.22 18.21,7.35 18.38,7.49 18.49,7.66 18.60,7.84 18.65,8.05 18.70,8.26 18.68,8.47 18.67,8.68 18.58,8.88 18.50,9.07 18.35,9.23 18.21,9.39 18.03,9.49 17.84,9.59 17.84,9.59 17.84,9.59 15.24,10.83 12.64,12.07 10.72,11.86 8.81,11.66 7.04,10.95 5.28,10.24 3.46,9.02 1.64,7.79 0.60,6.35 -0.43,4.91 -0.61,2.60 -0.80,0.28 -0.58,0.10 -0.37,-0.08 -0.11,-0.20 0.13,-0.33 0.40,-0.39 0.68,-0.46 0.96,-0.45 1.25,-0.45 1.52,-0.37 1.79,-0.30 2.04,-0.16 2.29,-0.03 2.50,0.15 2.71,0.34 2.86,0.58 3.02,0.82 3.11,1.08 3.21,1.35 3.24,1.63 3.27,1.91 3.23,2.19 3.19,2.47 3.08,2.73 2.98,3.00 2.81,3.23 2.65,3.45 2.20,4.18 1.74,4.90 0.53,6.21 -0.67,7.51 -2.49,8.85 -4.31,10.19 -6.69,10.67 -9.08,11.15 -11.15,10.24 -13.22,9.32 -14.10,7.34 -14.98,5.36 -14.17,3.32 -13.36,1.29 -11.59,-0.13 -9.83,-1.56 -7.37,-2.16 -4.91,-2.75 -2.35,-2.44 0.19,-2.13 0.44,-2.07 0.69,-2.02 0.93,-1.91 1.16,-1.79 1.36,-1.63 1.55,-1.46 1.71,-1.25 1.86,-1.05 1.96,-0.81 2.06,-0.57 2.10,-0.31 2.13,-0.06 2.11,0.19 2.09,0.44 2.00,0.69 1.92,0.93 1.78,1.15 1.64,1.37 1.45,1.54 1.26,1.72 1.04,1.85 0.81,1.97 0.57,2.04 0.32,2.11 0.06,2.12 -0.19,2.13 -0.19,2.13 L -0.19,2.13 Z"></path></g><g transform="translate(779.6000366210938 540.6124877929688) rotate(0 7.999969482421875 10)" stroke="none"><path fill="#000" d="M 1.38,0.59 Q 1.38,0.59 1.12,2.36 0.87,4.14 0.68,7.44 0.49,10.75 0.82,13.45 1.15,16.16 1.71,17.87 2.26,19.58 2.75,20.41 3.23,21.24 3.29,21.54 3.34,21.83 3.32,22.13 3.30,22.42 3.22,22.71 3.13,22.99 2.97,23.25 2.82,23.50 2.61,23.71 2.40,23.92 2.14,24.07 1.89,24.23 1.60,24.32 1.32,24.40 1.02,24.42 0.72,24.44 0.43,24.39 0.14,24.33 -0.12,24.21 -0.39,24.09 -0.63,23.90 -0.86,23.72 -1.04,23.49 -1.23,23.25 -1.35,22.98 -1.47,22.71 0.32,20.35 2.13,17.99 3.86,16.67 5.59,15.36 7.37,14.26 9.15,13.16 11.13,12.60 13.10,12.03 15.05,12.34 16.99,12.65 18.17,14.73 19.34,16.82 18.63,18.04 17.92,19.25 15.63,20.43 13.34,21.62 11.24,22.26 9.15,22.90 7.21,23.11 5.27,23.32 5.06,23.36 4.85,23.40 4.64,23.38 4.43,23.35 4.24,23.26 4.05,23.16 3.89,23.01 3.74,22.86 3.65,22.67 3.55,22.48 3.52,22.27 3.49,22.06 3.53,21.85 3.57,21.65 3.67,21.46 3.78,21.27 3.94,21.13 4.09,20.99 4.29,20.90 4.48,20.82 4.69,20.80 4.91,20.78 5.11,20.83 5.32,20.88 5.50,21.00 5.68,21.11 5.81,21.27 5.95,21.44 6.02,21.64 6.09,21.84 6.10,22.05 6.11,22.26 6.05,22.47 5.99,22.67 5.86,22.84 5.74,23.02 5.57,23.14 5.40,23.27 5.19,23.33 4.99,23.39 4.78,23.39 4.57,23.38 4.37,23.31 4.17,23.24 4.00,23.11 3.83,22.97 3.72,22.80 3.60,22.62 3.55,22.41 3.50,22.21 3.51,21.99 3.53,21.78 3.61,21.59 3.70,21.39 3.84,21.23 3.98,21.07 4.16,20.97 4.35,20.86 4.35,20.86 4.35,20.86 6.08,19.70 7.82,18.53 9.64,17.99 11.45,17.44 13.58,16.25 15.71,15.07 14.90,15.76 14.09,16.46 12.82,16.78 11.55,17.09 10.02,18.07 8.49,19.05 5.86,20.15 3.23,21.24 3.29,21.54 3.34,21.83 3.32,22.13 3.30,22.42 3.22,22.71 3.13,22.99 2.97,23.25 2.82,23.50 2.61,23.71 2.40,23.92 2.14,24.07 1.89,24.23 1.60,24.32 1.32,24.40 1.02,24.42 0.73,24.44 0.43,24.39 0.14,24.33 -0.12,24.21 -0.39,24.09 -0.63,23.90 -0.86,23.72 -1.04,23.49 -1.23,23.25 -1.35,22.98 -1.47,22.71 -1.96,21.89 -2.44,21.07 -3.09,18.90 -3.74,16.73 -4.09,13.56 -4.43,10.38 -4.03,6.33 -3.63,2.29 -2.50,0.85 -1.38,-0.59 -1.29,-0.74 -1.20,-0.90 -1.07,-1.03 -0.94,-1.16 -0.79,-1.26 -0.64,-1.36 -0.47,-1.41 -0.29,-1.47 -0.11,-1.48 0.06,-1.50 0.24,-1.47 0.42,-1.44 0.58,-1.37 0.75,-1.30 0.90,-1.19 1.04,-1.08 1.15,-0.94 1.27,-0.80 1.35,-0.63 1.42,-0.47 1.46,-0.29 1.50,-0.11 1.49,0.06 1.48,0.24 1.43,0.41 1.38,0.59 1.38,0.59 L 1.38,0.59 Z"></path></g><g transform="translate(736.4000244140625 575.0124969482422) rotate(0 33.600006103515625 -1.600006103515625)" stroke="none"><path fill="#000" d="M 0,-2.19 Q 0,-2.19 4.37,-2.27 8.74,-2.35 14.27,-2.37 19.81,-2.39 27.81,-3.09 35.81,-3.79 42.25,-4.31 48.69,-4.83 53.30,-5.05 57.92,-5.27 59.60,-3.57 61.29,-1.87 61.08,-1.91 60.88,-1.95 60.69,-2.05 60.50,-2.16 60.36,-2.31 60.22,-2.47 60.13,-2.66 60.05,-2.86 60.03,-3.07 60.01,-3.28 60.06,-3.49 60.11,-3.70 60.22,-3.88 60.34,-4.05 60.50,-4.19 60.67,-4.32 60.86,-4.40 61.06,-4.47 61.28,-4.48 61.49,-4.49 61.69,-4.43 61.90,-4.36 62.07,-4.24 62.24,-4.12 62.37,-3.95 62.49,-3.78 62.56,-3.57 62.62,-3.37 62.62,-3.16 62.61,-2.95 62.54,-2.75 62.47,-2.55 62.34,-2.38 62.20,-2.21 62.02,-2.10 61.85,-1.98 61.64,-1.93 61.43,-1.88 61.22,-1.89 61.01,-1.91 60.82,-1.99 60.62,-2.07 60.46,-2.21 60.30,-2.35 60.20,-2.54 60.09,-2.72 60.05,-2.93 60.01,-3.14 60.03,-3.35 60.06,-3.56 60.16,-3.75 60.25,-3.94 60.40,-4.09 60.55,-4.25 60.74,-4.34 60.93,-4.44 61.14,-4.47 61.35,-4.50 61.35,-4.50 61.35,-4.50 59.75,-2.48 58.15,-0.46 53.61,-0.24 49.08,-0.02 42.65,0.50 36.22,1.03 28.02,1.71 19.81,2.39 14.27,2.37 8.74,2.35 4.37,2.27 0,2.19 -0.26,2.16 -0.52,2.13 -0.77,2.03 -1.02,1.94 -1.23,1.79 -1.45,1.64 -1.63,1.44 -1.80,1.24 -1.93,1.01 -2.05,0.77 -2.11,0.52 -2.18,0.26 -2.18,-0.00 -2.18,-0.26 -2.11,-0.52 -2.05,-0.77 -1.93,-1.01 -1.80,-1.24 -1.63,-1.44 -1.45,-1.64 -1.23,-1.79 -1.02,-1.94 -0.77,-2.03 -0.52,-2.13 -0.26,-2.16 0.00,-2.19 0.00,-2.19 L 0,-2.19 Z"></path></g><g transform="translate(751.6000366210938 584.6125030517578) rotate(0 -3.600006103515625 10.399993896484375)" stroke="none"><path fill="#000" d="M 1.93,0.80 Q 1.93,0.80 0.86,3.59 -0.21,6.38 -0.88,8.61 -1.56,10.83 -2.07,12.91 -2.59,14.99 -4.06,17.55 -5.53,20.11 -5.64,20.29 -5.75,20.48 -5.90,20.62 -6.06,20.76 -6.26,20.84 -6.46,20.92 -6.67,20.94 -6.88,20.95 -7.09,20.90 -7.29,20.85 -7.47,20.73 -7.65,20.62 -7.78,20.45 -7.91,20.28 -7.98,20.08 -8.05,19.88 -8.06,19.67 -8.06,19.46 -8.00,19.26 -7.94,19.05 -7.81,18.88 -7.68,18.71 -7.51,18.59 -7.34,18.47 -7.13,18.40 -6.93,18.34 -6.72,18.35 -6.51,18.36 -6.31,18.43 -6.11,18.51 -5.94,18.64 -5.78,18.78 -5.67,18.96 -5.55,19.14 -5.50,19.34 -5.45,19.55 -5.47,19.76 -5.49,19.97 -5.58,20.17 -5.66,20.36 -5.81,20.52 -5.95,20.68 -6.13,20.78 -6.32,20.88 -6.53,20.92 -6.74,20.96 -6.95,20.93 -7.16,20.90 -7.35,20.80 -7.54,20.71 -7.69,20.56 -7.84,20.40 -7.93,20.21 -8.02,20.02 -8.05,19.81 -8.08,19.60 -8.03,19.39 -7.99,19.18 -7.99,19.18 -7.99,19.18 -7.51,16.53 -7.02,13.88 -6.46,11.68 -5.91,9.49 -5.14,7.07 -4.38,4.65 -3.16,1.92 -1.93,-0.80 -1.81,-1.02 -1.68,-1.24 -1.51,-1.42 -1.33,-1.61 -1.12,-1.74 -0.91,-1.88 -0.67,-1.96 -0.43,-2.05 -0.18,-2.07 0.06,-2.09 0.31,-2.05 0.56,-2.01 0.80,-1.92 1.03,-1.82 1.23,-1.67 1.43,-1.52 1.60,-1.32 1.76,-1.13 1.87,-0.90 1.98,-0.67 2.03,-0.43 2.08,-0.18 2.07,0.06 2.07,0.31 2.00,0.56 1.93,0.80 1.93,0.80 L 1.93,0.80 Z"></path></g><g transform="translate(772.4000244140625 591.8124847412109) rotate(0 20 8.400009155273438)" stroke="none"><path fill="#000" d="M 1.37,1.56 Q 1.37,1.56 -0.39,3.24 -2.15,4.91 -3.13,6.66 -4.12,8.41 -4.23,9.53 -4.34,10.65 -2.61,11.61 -0.89,12.56 1.04,12.79 2.97,13.03 4.23,12.50 5.49,11.97 5.84,10.78 6.20,9.59 5.99,7.78 5.79,5.97 5.12,3.99 4.44,2.02 5.18,-0.06 5.91,-2.14 8.18,-3.05 10.44,-3.96 13.98,-3.49 17.52,-3.01 21.30,-0.82 25.09,1.36 27.29,3.85 29.49,6.34 30.52,8.77 31.55,11.19 31.96,12.95 32.36,14.72 33.89,14.91 35.42,15.10 37.74,13.69 40.05,12.28 41.56,9.97 43.07,7.65 43.39,6.09 43.71,4.53 40.82,3.46 37.94,2.39 35.46,2.29 32.98,2.18 30.42,2.02 27.86,1.86 27.64,1.87 27.43,1.87 27.23,1.81 27.03,1.74 26.85,1.62 26.68,1.49 26.56,1.32 26.44,1.14 26.38,0.94 26.32,0.74 26.32,0.53 26.33,0.31 26.40,0.11 26.48,-0.08 26.61,-0.24 26.75,-0.40 26.93,-0.52 27.11,-0.63 27.31,-0.68 27.52,-0.73 27.73,-0.71 27.94,-0.69 28.14,-0.61 28.33,-0.52 28.49,-0.38 28.65,-0.24 28.75,-0.05 28.85,0.13 28.89,0.33 28.93,0.54 28.90,0.75 28.87,0.96 28.77,1.15 28.68,1.34 28.53,1.49 28.38,1.64 28.19,1.73 27.99,1.83 27.78,1.85 27.57,1.88 27.36,1.84 27.16,1.80 26.97,1.69 26.79,1.59 26.65,1.43 26.51,1.27 26.42,1.07 26.34,0.88 26.33,0.67 26.31,0.45 26.36,0.25 26.42,0.04 26.53,-0.13 26.65,-0.30 26.81,-0.44 26.98,-0.57 27.18,-0.64 27.38,-0.71 27.38,-0.71 27.38,-0.71 30.37,-1.89 33.35,-3.08 36.78,-2.71 40.21,-2.34 43.66,-0.13 47.11,2.07 47.18,6.07 47.25,10.07 44.93,13.25 42.61,16.44 39.15,18.23 35.70,20.03 32.77,19.76 29.85,19.49 28.63,17.64 27.42,15.79 27.14,14.38 26.86,12.97 26.29,11.19 25.71,9.40 24.13,7.39 22.55,5.39 19.60,3.48 16.65,1.58 14.08,1.09 11.51,0.59 10.22,0.84 8.92,1.10 9.71,3.40 10.51,5.71 10.51,8.56 10.51,11.41 9.19,13.60 7.86,15.80 5.18,16.75 2.50,17.69 -0.52,17.07 -3.54,16.45 -5.89,14.29 -8.25,12.14 -8.23,9.21 -8.20,6.28 -6.70,3.90 -5.20,1.52 -3.28,-0.02 -1.37,-1.56 -1.16,-1.71 -0.95,-1.85 -0.72,-1.94 -0.48,-2.02 -0.23,-2.05 0.01,-2.08 0.26,-2.05 0.51,-2.02 0.74,-1.93 0.98,-1.84 1.18,-1.69 1.39,-1.55 1.55,-1.36 1.72,-1.17 1.83,-0.95 1.95,-0.72 2.01,-0.48 2.07,-0.23 2.07,0.01 2.06,0.26 2.00,0.50 1.94,0.75 1.82,0.97 1.70,1.19 1.54,1.38 1.37,1.56 1.37,1.56 L 1.37,1.56 Z"></path></g><g transform="translate(934.7999877929688 532.6124877929688) rotate(0 -5.5999755859375 16.00000762939453)" stroke="none"><path fill="#000" d="M -0.32,1.63 Q -0.32,1.63 -2.60,1.34 -4.88,1.05 -6.09,1.53 -7.31,2.02 -8.86,3.24 -10.40,4.47 -12.16,6.53 -13.91,8.58 -16.20,12.57 -18.49,16.56 -19.42,19.90 -20.35,23.25 -20.32,25.76 -20.29,28.27 -19.41,29.36 -18.53,30.45 -16.74,30.83 -14.95,31.21 -11.02,30.15 -7.09,29.09 -4.09,27.37 -1.08,25.65 0.79,23.87 2.67,22.08 3.32,21.49 3.97,20.89 4.18,20.74 4.39,20.59 4.63,20.49 4.87,20.40 5.12,20.36 5.38,20.32 5.64,20.35 5.89,20.37 6.14,20.46 6.38,20.54 6.60,20.69 6.81,20.83 6.99,21.02 7.17,21.21 7.29,21.43 7.42,21.66 7.49,21.91 7.55,22.16 7.56,22.42 7.57,22.68 7.51,22.93 7.45,23.18 7.34,23.41 7.22,23.65 7.06,23.84 6.89,24.04 6.70,25.22 6.51,26.40 7.62,25.54 8.74,24.68 9.23,23.44 9.72,22.20 8.95,20.82 8.18,19.44 6.99,19.34 5.80,19.25 4.08,21.11 2.36,22.97 2.24,23.15 2.12,23.32 1.95,23.45 1.77,23.57 1.57,23.64 1.37,23.70 1.16,23.70 0.94,23.69 0.74,23.62 0.54,23.55 0.38,23.42 0.21,23.29 0.09,23.11 -0.01,22.93 -0.06,22.72 -0.12,22.52 -0.10,22.31 -0.09,22.09 -0.00,21.90 0.07,21.70 0.21,21.54 0.35,21.38 0.53,21.28 0.72,21.17 0.93,21.13 1.13,21.09 1.34,21.11 1.56,21.14 1.75,21.23 1.94,21.33 2.09,21.48 2.24,21.62 2.34,21.81 2.43,22.00 2.46,22.21 2.49,22.42 2.46,22.63 2.42,22.84 2.31,23.03 2.21,23.21 2.05,23.36 1.90,23.50 1.70,23.59 1.51,23.67 1.30,23.69 1.09,23.71 0.88,23.66 0.67,23.61 0.49,23.50 0.31,23.38 0.18,23.22 0.04,23.06 -0.02,22.86 -0.10,22.66 -0.10,22.45 -0.11,22.23 -0.05,22.03 0.00,21.83 0.00,21.83 0.00,21.83 0.87,19.47 1.73,17.11 3.79,16.10 5.84,15.09 8.20,15.50 10.56,15.91 12.27,17.54 13.98,19.18 13.80,21.62 13.62,24.05 12.59,25.97 11.55,27.89 9.83,29.13 8.11,30.37 6.27,30.41 4.42,30.45 3.28,29.02 2.14,27.58 2.56,25.41 2.99,23.24 3.48,22.07 3.97,20.89 4.18,20.74 4.39,20.59 4.63,20.49 4.87,20.40 5.12,20.36 5.38,20.32 5.64,20.35 5.89,20.37 6.14,20.46 6.38,20.54 6.60,20.69 6.81,20.83 6.99,21.02 7.17,21.21 7.29,21.43 7.42,21.66 7.49,21.91 7.55,22.16 7.56,22.42 7.57,22.68 7.51,22.93 7.45,23.18 7.34,23.41 7.22,23.65 7.06,23.84 6.89,24.04 6.23,24.63 5.58,25.21 3.30,27.29 1.02,29.36 -2.50,31.32 -6.03,33.27 -10.98,34.36 -15.93,35.45 -18.81,34.39 -21.68,33.32 -23.12,31.02 -24.56,28.72 -24.57,25.40 -24.58,22.09 -23.44,18.22 -22.30,14.36 -19.72,10.05 -17.15,5.74 -15.02,3.42 -12.89,1.10 -10.72,-0.38 -8.55,-1.88 -6.43,-2.38 -4.31,-2.89 -1.99,-2.26 0.32,-1.63 0.51,-1.57 0.71,-1.51 0.88,-1.40 1.05,-1.29 1.19,-1.15 1.33,-1.00 1.43,-0.83 1.53,-0.66 1.59,-0.46 1.64,-0.27 1.65,-0.07 1.66,0.12 1.62,0.32 1.58,0.52 1.50,0.70 1.41,0.88 1.28,1.04 1.16,1.20 1.00,1.32 0.84,1.44 0.65,1.52 0.47,1.60 0.27,1.63 0.07,1.67 -0.12,1.65 -0.32,1.63 -0.32,1.63 L -0.32,1.63 Z"></path></g><g transform="translate(962.800048828125 561.4124908447266) rotate(0 5.5999755859375 -2.8000030517578125)" stroke="none"><path fill="#000" d="M -1.97,0 Q -1.97,0 -1.99,-2.15 -2.00,-4.30 -1.11,-5.93 -0.23,-7.56 1.38,-8.36 2.99,-9.17 5.36,-8.46 7.72,-7.75 9.22,-6.60 10.71,-5.46 11.66,-4.12 12.62,-2.78 12.90,-0.52 13.19,1.72 13.20,1.94 13.21,2.15 13.16,2.35 13.10,2.56 12.98,2.73 12.86,2.91 12.69,3.04 12.52,3.16 12.32,3.23 12.12,3.30 11.91,3.30 11.69,3.30 11.49,3.23 11.29,3.16 11.12,3.03 10.95,2.90 10.83,2.72 10.72,2.55 10.66,2.34 10.60,2.14 10.62,1.93 10.63,1.71 10.71,1.52 10.79,1.32 10.93,1.16 11.06,1.00 11.25,0.89 11.43,0.78 11.64,0.73 11.84,0.69 12.05,0.71 12.27,0.74 12.46,0.83 12.65,0.92 12.80,1.06 12.96,1.21 13.06,1.40 13.16,1.59 13.19,1.80 13.22,2.01 13.19,2.22 13.15,2.43 13.05,2.61 12.95,2.80 12.80,2.95 12.64,3.09 12.45,3.18 12.26,3.27 12.04,3.29 11.83,3.31 11.63,3.27 11.42,3.22 11.24,3.11 11.06,3.00 10.92,2.84 10.78,2.67 10.70,2.48 10.63,2.28 10.63,2.28 10.63,2.28 9.34,0.00 8.06,-2.28 7.10,-3.12 6.15,-3.97 4.92,-4.70 3.70,-5.43 2.85,-4.70 2.00,-3.97 1.99,-1.98 1.97,0 1.94,0.23 1.91,0.47 1.83,0.69 1.74,0.91 1.61,1.11 1.47,1.31 1.30,1.46 1.12,1.62 0.91,1.73 0.70,1.84 0.46,1.90 0.23,1.96 -0.00,1.96 -0.23,1.96 -0.46,1.90 -0.70,1.84 -0.91,1.73 -1.12,1.62 -1.30,1.46 -1.47,1.31 -1.61,1.11 -1.74,0.91 -1.83,0.69 -1.91,0.47 -1.94,0.23 -1.97,-0.00 -1.97,-0.00 L -1.97,0 Z"></path></g><g transform="translate(984.4000244140625 551.0124969482422) rotate(0 6.79998779296875 1.600006103515625)" stroke="none"><path fill="#000" d="M 1.74,-0.95 Q 1.74,-0.95 3.18,1.54 4.63,4.03 5.48,5.85 6.34,7.67 6.56,6.40 6.79,5.12 7.91,2.52 9.03,-0.08 9.74,-2.26 10.46,-4.45 11.29,-6.01 12.13,-7.56 12.21,-7.76 12.30,-7.95 12.44,-8.11 12.59,-8.27 12.77,-8.37 12.96,-8.47 13.17,-8.51 13.37,-8.55 13.58,-8.52 13.79,-8.49 13.98,-8.39 14.17,-8.30 14.32,-8.15 14.47,-8.00 14.57,-7.80 14.66,-7.61 14.69,-7.40 14.71,-7.19 14.67,-6.98 14.63,-6.78 14.53,-6.59 14.42,-6.41 14.26,-6.27 14.10,-6.13 13.91,-6.04 13.71,-5.96 13.50,-5.94 13.29,-5.93 13.08,-5.98 12.87,-6.03 12.70,-6.15 12.52,-6.26 12.39,-6.43 12.25,-6.60 12.18,-6.80 12.11,-7.00 12.11,-7.21 12.10,-7.42 12.16,-7.63 12.23,-7.83 12.35,-8.00 12.48,-8.17 12.65,-8.29 12.83,-8.42 13.03,-8.48 13.23,-8.54 13.44,-8.53 13.66,-8.52 13.86,-8.45 14.06,-8.38 14.22,-8.24 14.38,-8.11 14.50,-7.93 14.61,-7.75 14.66,-7.54 14.71,-7.33 14.69,-7.12 14.67,-6.91 14.67,-6.91 14.67,-6.91 14.63,-5.03 14.59,-3.14 13.85,-0.73 13.11,1.67 11.90,4.47 10.69,7.27 9.19,9.48 7.69,11.68 5.92,11.65 4.15,11.62 3.30,10.56 2.44,9.50 1.66,7.79 0.88,6.08 -0.42,3.51 -1.74,0.95 -1.83,0.72 -1.92,0.50 -1.95,0.26 -1.98,0.03 -1.96,-0.20 -1.93,-0.44 -1.85,-0.66 -1.77,-0.89 -1.64,-1.09 -1.50,-1.29 -1.33,-1.45 -1.15,-1.61 -0.94,-1.73 -0.73,-1.84 -0.50,-1.90 -0.27,-1.96 -0.03,-1.97 0.20,-1.97 0.44,-1.92 0.67,-1.86 0.88,-1.76 1.10,-1.65 1.28,-1.49 1.46,-1.34 1.60,-1.14 1.74,-0.95 1.74,-0.95 L 1.74,-0.95 Z"></path></g><g transform="translate(1009.2000732421875 556.6125030517578) rotate(0 22.39990234375 -1.6000137329101562)" stroke="none"><path fill="#000" d="M -1.81,0.36 Q -1.81,0.36 -2.22,-0.75 -2.63,-1.86 -2.65,-2.13 -2.67,-2.39 -2.62,-2.66 -2.58,-2.92 -2.47,-3.16 -2.37,-3.41 -2.21,-3.62 -2.05,-3.84 -1.84,-4.00 -1.63,-4.17 -1.39,-4.28 -1.15,-4.40 -0.89,-4.45 -0.62,-4.50 -0.36,-4.49 -0.09,-4.48 0.15,-4.40 0.41,-4.33 0.64,-4.19 0.87,-4.06 1.06,-3.87 1.26,-3.69 1.40,-3.46 1.54,-3.24 1.62,-2.98 1.71,-2.73 1.06,-1.66 0.42,-0.58 1.54,-0.02 2.66,0.54 3.76,0.03 4.87,-0.47 6.01,-1.26 7.15,-2.04 8.26,-2.69 9.36,-3.33 11.41,-3.20 13.47,-3.06 14.14,-1.16 14.81,0.72 15.70,1.54 16.60,2.37 19.02,1.09 21.44,-0.18 23.08,-0.55 24.71,-0.92 26.87,-0.58 29.03,-0.25 30.85,0.38 32.68,1.03 34.05,1.24 35.43,1.46 36.78,1.06 38.13,0.67 39.87,-1.22 41.60,-3.12 43.11,-5.38 44.62,-7.64 44.76,-7.80 44.90,-7.96 45.09,-8.07 45.27,-8.17 45.48,-8.21 45.69,-8.26 45.90,-8.23 46.11,-8.20 46.30,-8.11 46.49,-8.02 46.64,-7.87 46.79,-7.72 46.89,-7.53 46.99,-7.34 47.02,-7.13 47.05,-6.92 47.01,-6.71 46.97,-6.50 46.87,-6.31 46.76,-6.13 46.61,-5.99 46.45,-5.84 46.26,-5.76 46.06,-5.67 45.85,-5.65 45.64,-5.63 45.43,-5.68 45.23,-5.73 45.05,-5.85 44.87,-5.96 44.73,-6.12 44.60,-6.29 44.52,-6.49 44.45,-6.69 44.44,-6.90 44.43,-7.11 44.49,-7.31 44.55,-7.52 44.68,-7.69 44.80,-7.86 44.97,-7.99 45.14,-8.11 45.34,-8.18 45.55,-8.24 45.76,-8.24 45.97,-8.23 46.17,-8.16 46.37,-8.09 46.54,-7.96 46.70,-7.83 46.82,-7.65 46.94,-7.47 46.99,-7.27 47.04,-7.06 47.03,-6.85 47.01,-6.64 46.93,-6.44 46.85,-6.24 46.85,-6.24 46.85,-6.24 45.36,-3.73 43.88,-1.22 41.74,1.50 39.61,4.24 37.28,5.01 34.96,5.77 33.07,5.48 31.19,5.19 29.69,4.63 28.20,4.08 26.86,3.75 25.52,3.42 24.34,3.66 23.17,3.90 21.53,4.60 19.89,5.30 18.06,5.97 16.22,6.64 14.97,6.35 13.72,6.05 12.53,5.11 11.35,4.16 11.44,2.26 11.52,0.36 10.52,0.95 9.52,1.55 7.87,2.59 6.23,3.64 4.02,4.19 1.82,4.74 0.05,4.04 -1.71,3.33 -2.59,1.79 -3.48,0.24 -3.05,-0.81 -2.63,-1.86 -2.65,-2.13 -2.67,-2.39 -2.62,-2.66 -2.58,-2.92 -2.47,-3.16 -2.37,-3.41 -2.21,-3.62 -2.05,-3.83 -1.84,-4.00 -1.63,-4.17 -1.39,-4.28 -1.15,-4.40 -0.89,-4.45 -0.62,-4.50 -0.36,-4.49 -0.09,-4.48 0.15,-4.40 0.41,-4.33 0.64,-4.19 0.87,-4.06 1.06,-3.87 1.26,-3.69 1.40,-3.46 1.54,-3.24 1.62,-2.98 1.71,-2.73 1.76,-1.54 1.81,-0.36 1.83,-0.14 1.85,0.08 1.81,0.30 1.77,0.52 1.68,0.72 1.60,0.93 1.46,1.11 1.33,1.28 1.15,1.42 0.98,1.57 0.78,1.66 0.57,1.76 0.36,1.80 0.14,1.84 -0.08,1.83 -0.30,1.82 -0.51,1.76 -0.73,1.70 -0.92,1.58 -1.11,1.47 -1.28,1.32 -1.44,1.16 -1.55,0.97 -1.67,0.78 -1.74,0.57 -1.81,0.36 -1.81,0.36 L -1.81,0.36 Z"></path></g><g transform="translate(1057.2000732421875 531.0124969482422) rotate(0 5.99993896484375 10.799995422363281)" stroke="none"><path fill="#000" d="M -1.57,0.19 Q -1.57,0.19 -1.95,-1.48 -2.32,-3.17 -2.83,-3.60 -3.34,-4.04 -3.34,-4.31 -3.35,-4.58 -3.28,-4.85 -3.22,-5.11 -3.09,-5.35 -2.97,-5.59 -2.79,-5.79 -2.61,-6.00 -2.39,-6.15 -2.16,-6.31 -1.91,-6.41 -1.66,-6.50 -1.39,-6.54 -1.12,-6.57 -0.85,-6.54 -0.58,-6.51 -0.33,-6.41 -0.07,-6.32 0.14,-6.16 0.37,-6.01 0.55,-5.81 0.73,-5.60 0.85,-5.36 0.98,-5.12 1.05,-4.86 1.11,-4.60 0.53,-2.18 -0.05,0.23 -0.49,3.19 -0.93,6.14 -1.13,10.56 -1.33,14.98 -1.28,18.19 -1.24,21.41 -1.30,23.30 -1.35,25.19 -1.92,26.51 -2.50,27.82 -2.57,27.65 -2.64,27.47 -2.71,27.67 -2.79,27.86 -2.91,28.03 -3.03,28.21 -3.19,28.34 -3.35,28.48 -3.54,28.58 -3.73,28.67 -3.93,28.72 -4.13,28.77 -4.34,28.77 -4.55,28.77 -4.76,28.71 -4.96,28.66 -5.15,28.56 -5.33,28.46 -5.49,28.32 -5.64,28.18 -5.76,28.00 -5.88,27.83 -5.95,27.63 -6.02,27.44 -6.05,27.23 -6.07,27.02 -6.04,26.81 -6.02,26.60 -5.62,25.56 -5.23,24.52 -3.45,23.07 -1.67,21.63 1.07,20.79 3.82,19.96 6.39,19.63 8.97,19.30 11.36,19.40 13.74,19.51 15.36,20.70 16.97,21.89 15.49,24.11 14.01,26.34 13.82,26.43 13.63,26.53 13.42,26.55 13.21,26.58 13.00,26.54 12.79,26.50 12.61,26.40 12.42,26.29 12.28,26.14 12.14,25.98 12.06,25.78 11.97,25.59 11.95,25.38 11.94,25.17 11.99,24.96 12.04,24.75 12.15,24.57 12.27,24.39 12.43,24.26 12.60,24.13 12.80,24.05 13.00,23.98 13.21,23.97 13.42,23.97 13.63,24.03 13.83,24.09 14.00,24.22 14.17,24.34 14.30,24.51 14.42,24.69 14.48,24.89 14.55,25.09 14.54,25.30 14.54,25.52 14.46,25.72 14.39,25.92 14.26,26.08 14.12,26.25 13.94,26.36 13.77,26.48 13.56,26.53 13.35,26.58 13.14,26.56 12.93,26.55 12.73,26.46 12.54,26.38 12.38,26.24 12.22,26.09 12.12,25.91 12.01,25.72 11.97,25.52 11.93,25.31 11.96,25.10 11.99,24.89 12.08,24.70 12.18,24.51 12.33,24.35 12.48,24.20 12.48,24.20 12.48,24.20 12.93,23.79 13.39,23.37 11.40,23.26 9.42,23.15 7.12,23.40 4.82,23.64 2.60,24.17 0.38,24.70 -1.12,26.09 -2.64,27.47 -2.71,27.67 -2.79,27.86 -2.91,28.03 -3.03,28.21 -3.19,28.34 -3.35,28.48 -3.54,28.58 -3.72,28.67 -3.93,28.72 -4.13,28.77 -4.34,28.77 -4.55,28.77 -4.76,28.71 -4.96,28.66 -5.15,28.56 -5.33,28.46 -5.49,28.32 -5.64,28.18 -5.76,28.01 -5.88,27.83 -5.95,27.63 -6.02,27.44 -6.05,27.23 -6.07,27.02 -6.04,26.81 -6.02,26.60 -5.62,25.94 -5.22,25.27 -5.39,23.43 -5.57,21.59 -5.81,18.18 -6.05,14.77 -5.84,10.09 -5.63,5.42 -5.10,2.13 -4.57,-1.15 -3.96,-2.59 -3.34,-4.04 -3.34,-4.31 -3.35,-4.58 -3.28,-4.85 -3.22,-5.11 -3.09,-5.35 -2.97,-5.59 -2.79,-5.79 -2.61,-6.00 -2.39,-6.15 -2.16,-6.31 -1.91,-6.41 -1.66,-6.50 -1.39,-6.54 -1.12,-6.57 -0.85,-6.54 -0.58,-6.51 -0.33,-6.41 -0.07,-6.32 0.14,-6.16 0.37,-6.01 0.55,-5.81 0.73,-5.60 0.85,-5.36 0.98,-5.12 1.05,-4.86 1.11,-4.60 1.26,-4.39 1.40,-4.18 1.49,-2.19 1.57,-0.19 1.57,-0.00 1.57,0.18 1.52,0.37 1.48,0.55 1.39,0.72 1.30,0.89 1.18,1.03 1.05,1.18 0.89,1.29 0.74,1.40 0.56,1.46 0.38,1.53 0.19,1.56 0.00,1.58 -0.18,1.56 -0.37,1.54 -0.55,1.47 -0.73,1.40 -0.88,1.29 -1.04,1.19 -1.17,1.04 -1.30,0.90 -1.39,0.73 -1.48,0.56 -1.52,0.38 -1.57,0.19 -1.57,0.19 L -1.57,0.19 Z"></path></g><g transform="translate(1073.2000732421875 539.0124969482422) rotate(0 0.00004999999998744897 0.00004999999999988347)" stroke="none"><path fill="#000" d="M 2.12,-2.12 Q 2.12,-2.12 2.40,-1.73 2.69,-1.33 2.83,-0.87 2.97,-0.40 2.96,0.08 2.95,0.56 2.78,1.02 2.61,1.47 2.31,1.85 2.00,2.23 1.59,2.49 1.18,2.76 0.71,2.87 0.24,2.99 -0.24,2.95 -0.72,2.91 -1.17,2.72 -1.61,2.53 -1.98,2.20 -2.34,1.88 -2.58,1.45 -2.82,1.03 -2.91,0.55 -3.00,0.08 -2.93,-0.40 -2.87,-0.88 -2.65,-1.31 -2.44,-1.75 -2.09,-2.09 -1.75,-2.44 -1.31,-2.65 -0.88,-2.87 -0.39,-2.93 0.08,-3.00 0.55,-2.91 1.03,-2.82 1.46,-2.58 1.88,-2.34 2.20,-1.97 2.53,-1.61 2.72,-1.17 2.91,-0.72 2.95,-0.23 2.99,0.24 2.87,0.71 2.76,1.18 2.49,1.59 2.23,2.00 1.85,2.31 1.47,2.61 1.02,2.78 0.56,2.95 0.07,2.96 -0.40,2.97 -0.87,2.83 -1.33,2.69 -1.73,2.40 -2.12,2.12 -2.12,2.12 -2.12,2.12 -2.34,1.83 -2.57,1.55 -2.72,1.22 -2.86,0.89 -2.93,0.53 -2.99,0.18 -2.97,-0.18 -2.95,-0.54 -2.84,-0.88 -2.74,-1.23 -2.55,-1.54 -2.36,-1.85 -2.10,-2.10 -1.85,-2.36 -1.54,-2.55 -1.23,-2.74 -0.88,-2.84 -0.54,-2.95 -0.17,-2.97 0.18,-2.99 0.53,-2.93 0.89,-2.86 1.22,-2.72 1.55,-2.57 1.84,-2.34 2.12,-2.12 2.12,-2.12 L 2.12,-2.12 Z"></path></g><g transform="translate(1091.5999755859375 554.2125091552734) rotate(0 22.00006103515625 5.5999908447265625)" stroke="none"><path fill="#000" d="M 1.59,0.45 Q 1.59,0.45 1.34,2.12 1.10,3.79 0.69,5.38 0.28,6.97 0.13,8.21 -0.02,9.45 1.33,9.12 2.69,8.79 3.66,7.93 4.62,7.08 5.43,5.77 6.23,4.46 5.78,3.34 5.32,2.21 3.64,2.54 1.96,2.86 4.75,2.64 7.53,2.42 9.38,2.26 11.22,2.09 12.79,1.60 14.35,1.11 16.10,0.89 17.85,0.67 19.10,1.22 20.34,1.78 21.19,3.25 22.04,4.71 22.33,5.84 22.61,6.96 24.96,6.18 27.31,5.40 29.82,5.05 32.32,4.71 33.82,4.83 35.32,4.96 36.51,5.61 37.71,6.27 38.77,7.24 39.84,8.20 40.99,8.41 42.15,8.62 43.92,9.20 45.70,9.79 45.90,9.85 46.10,9.91 46.28,10.03 46.45,10.15 46.58,10.32 46.71,10.49 46.77,10.69 46.84,10.89 46.84,11.11 46.83,11.32 46.76,11.52 46.69,11.72 46.56,11.89 46.43,12.06 46.26,12.17 46.08,12.29 45.87,12.35 45.67,12.40 45.46,12.39 45.24,12.37 45.05,12.29 44.85,12.21 44.69,12.07 44.53,11.93 44.42,11.75 44.32,11.57 44.27,11.36 44.23,11.15 44.25,10.94 44.28,10.73 44.37,10.54 44.46,10.34 44.61,10.19 44.76,10.04 44.95,9.94 45.13,9.84 45.35,9.81 45.56,9.78 45.76,9.82 45.97,9.85 46.16,9.95 46.35,10.06 46.49,10.21 46.64,10.37 46.72,10.56 46.81,10.76 46.83,10.97 46.85,11.18 46.80,11.39 46.75,11.59 46.64,11.77 46.53,11.95 46.37,12.09 46.20,12.23 46.01,12.30 45.81,12.38 45.60,12.39 45.38,12.40 45.38,12.40 45.38,12.40 43.28,12.52 41.18,12.63 39.18,12.08 37.18,11.52 36.24,10.68 35.29,9.84 34.09,9.43 32.89,9.01 30.81,9.30 28.73,9.58 26.34,10.38 23.95,11.18 22.11,11.10 20.27,11.02 19.31,9.47 18.36,7.92 18.11,6.36 17.87,4.79 16.73,5.02 15.59,5.26 13.60,5.83 11.61,6.41 9.43,6.59 7.25,6.77 5.07,6.61 2.90,6.45 0.91,5.77 -1.06,5.08 -1.64,3.77 -2.23,2.46 -0.93,0.65 0.36,-1.14 2.25,-1.68 4.15,-2.21 6.23,-1.47 8.32,-0.73 9.38,0.93 10.45,2.61 10.16,4.63 9.87,6.65 8.58,8.54 7.28,10.43 5.49,11.68 3.69,12.93 1.56,13.23 -0.56,13.54 -1.89,12.96 -3.22,12.37 -3.73,10.63 -4.24,8.89 -4.03,7.38 -3.82,5.88 -3.38,4.26 -2.94,2.64 -2.26,1.09 -1.59,-0.45 -1.51,-0.63 -1.43,-0.82 -1.31,-0.98 -1.19,-1.14 -1.04,-1.26 -0.88,-1.39 -0.70,-1.48 -0.52,-1.56 -0.33,-1.60 -0.13,-1.64 0.06,-1.64 0.25,-1.63 0.45,-1.57 0.64,-1.52 0.81,-1.42 0.98,-1.32 1.13,-1.18 1.27,-1.05 1.38,-0.88 1.49,-0.71 1.55,-0.52 1.61,-0.33 1.63,-0.13 1.65,0.06 1.62,0.25 1.59,0.45 1.59,0.45 L 1.59,0.45 Z"></path></g><g transform="translate(945.2000122070312 585.4124908447266) rotate(0 74.39999389648438 -0.399993896484375)" stroke="none"><path fill="#000" d="M 0,-1.88 Q 0,-1.88 3.44,-1.99 6.89,-2.09 12.92,-2.38 18.94,-2.67 31.19,-3.02 43.44,-3.36 56.02,-3.51 68.60,-3.65 80.89,-3.25 93.18,-2.86 104.11,-2.69 115.04,-2.52 124.06,-2.45 133.07,-2.38 137.65,-2.11 142.24,-1.85 142.32,-0.60 142.40,0.65 142.23,0.53 142.05,0.41 141.92,0.24 141.79,0.07 141.73,-0.12 141.66,-0.32 141.66,-0.54 141.66,-0.75 141.73,-0.95 141.79,-1.15 141.92,-1.32 142.05,-1.49 142.23,-1.61 142.40,-1.73 142.61,-1.78 142.81,-1.84 143.03,-1.83 143.24,-1.82 143.44,-1.74 143.63,-1.66 143.79,-1.52 143.96,-1.38 144.07,-1.20 144.17,-1.02 144.22,-0.81 144.27,-0.61 144.24,-0.39 144.22,-0.18 144.13,0.00 144.04,0.19 143.89,0.35 143.75,0.50 143.56,0.60 143.37,0.70 143.16,0.73 142.95,0.77 142.74,0.73 142.53,0.70 142.35,0.60 142.16,0.50 142.01,0.34 141.87,0.19 141.78,0.00 141.69,-0.19 141.67,-0.40 141.64,-0.61 141.69,-0.82 141.73,-1.02 141.84,-1.21 141.95,-1.39 142.12,-1.52 142.28,-1.66 142.48,-1.74 142.67,-1.82 142.89,-1.83 143.10,-1.84 143.30,-1.78 143.51,-1.73 143.51,-1.73 143.51,-1.73 142.74,0.47 141.97,2.68 137.51,2.42 133.04,2.16 124.00,2.09 114.97,2.01 104.00,1.84 93.03,1.67 80.84,1.27 68.65,0.86 56.11,1.00 43.56,1.13 31.34,1.44 19.11,1.75 13.00,1.92 6.90,2.09 3.45,1.99 0,1.88 -0.22,1.86 -0.45,1.83 -0.66,1.75 -0.87,1.67 -1.06,1.54 -1.25,1.41 -1.40,1.24 -1.55,1.07 -1.66,0.87 -1.76,0.66 -1.82,0.44 -1.87,0.22 -1.87,-0.00 -1.87,-0.22 -1.82,-0.44 -1.76,-0.66 -1.66,-0.87 -1.55,-1.07 -1.40,-1.24 -1.25,-1.41 -1.06,-1.54 -0.87,-1.67 -0.66,-1.75 -0.45,-1.83 -0.22,-1.86 0.00,-1.88 0.00,-1.88 L 0,-1.88 Z"></path></g><g transform="translate(926 612.6125030517578) rotate(0 3.600006103515625 -3.20001220703125)" stroke="none"><path fill="#000" d="M 0.70,1.40 Q 0.70,1.40 -1.98,2.90 -4.67,4.39 -6.07,5.78 -7.47,7.17 -8.45,8.77 -9.43,10.38 -9.77,11.97 -10.12,13.56 -8.51,12.68 -6.91,11.80 -4.64,10.04 -2.38,8.28 0.30,4.92 2.98,1.56 4.52,-2.01 6.05,-5.58 6.71,-9.27 7.37,-12.96 7.42,-15.61 7.48,-18.25 7.71,-17.12 7.94,-15.99 7.22,-12.90 6.50,-9.80 6.21,-5.85 5.91,-1.91 6.01,0.86 6.10,3.64 6.13,5.78 6.17,7.92 6.61,8.91 7.05,9.91 8.45,8.99 9.85,8.06 11.73,7.34 13.61,6.63 15.48,7.28 17.34,7.93 18.67,8.88 20.00,9.83 20.19,9.92 20.38,10.01 20.53,10.16 20.69,10.30 20.79,10.49 20.89,10.68 20.92,10.89 20.96,11.10 20.92,11.31 20.89,11.52 20.79,11.71 20.69,11.89 20.53,12.04 20.38,12.18 20.18,12.27 19.99,12.36 19.78,12.39 19.57,12.41 19.36,12.36 19.15,12.32 18.97,12.21 18.79,12.10 18.65,11.93 18.52,11.77 18.44,11.57 18.36,11.38 18.35,11.16 18.34,10.95 18.39,10.75 18.45,10.54 18.57,10.37 18.69,10.19 18.86,10.06 19.03,9.94 19.23,9.87 19.43,9.80 19.64,9.80 19.86,9.80 20.06,9.87 20.26,9.94 20.43,10.07 20.60,10.19 20.72,10.37 20.83,10.55 20.89,10.75 20.95,10.96 20.94,11.17 20.92,11.38 20.85,11.58 20.77,11.78 20.63,11.94 20.49,12.10 20.31,12.21 20.13,12.32 19.92,12.36 19.71,12.41 19.50,12.38 19.29,12.36 19.29,12.36 19.29,12.36 16.79,11.84 14.29,11.32 13.24,11.55 12.19,11.77 10.59,12.68 8.99,13.59 7.18,13.58 5.38,13.56 4.11,12.38 2.85,11.20 2.28,9.66 1.71,8.11 1.67,5.94 1.62,3.78 1.53,0.75 1.45,-2.26 1.81,-6.55 2.17,-10.84 2.99,-14.13 3.82,-17.42 4.97,-19.83 6.12,-22.24 7.42,-22.59 8.73,-22.94 10.11,-20.58 11.49,-18.21 11.41,-15.23 11.32,-12.25 10.56,-8.11 9.79,-3.96 7.98,0.06 6.18,4.09 3.16,7.80 0.13,11.52 -2.35,13.42 -4.85,15.33 -7.20,16.47 -9.56,17.62 -11.10,17.10 -12.64,16.59 -13.33,14.69 -14.02,12.78 -13.39,10.55 -12.75,8.32 -11.42,6.34 -10.09,4.37 -8.23,2.74 -6.36,1.11 -3.53,-0.14 -0.70,-1.40 -0.52,-1.46 -0.34,-1.52 -0.15,-1.54 0.03,-1.56 0.21,-1.54 0.40,-1.51 0.58,-1.44 0.75,-1.37 0.90,-1.26 1.06,-1.15 1.18,-1.00 1.30,-0.86 1.39,-0.69 1.47,-0.52 1.51,-0.34 1.55,-0.15 1.55,0.03 1.55,0.21 1.50,0.40 1.45,0.58 1.36,0.75 1.27,0.91 1.14,1.05 1.01,1.19 0.85,1.29 0.70,1.40 0.70,1.40 L 0.70,1.40 Z"></path></g><g transform="translate(948.4000244140625 607.8124847412109) rotate(0 0.00004999999998744897 0.00005000000000165983)" stroke="none"><path fill="#000" d="M 2.12,-2.12 Q 2.12,-2.12 2.40,-1.73 2.69,-1.33 2.83,-0.87 2.97,-0.40 2.96,0.08 2.95,0.56 2.78,1.02 2.61,1.47 2.31,1.85 2.00,2.23 1.59,2.49 1.18,2.76 0.71,2.87 0.24,2.99 -0.24,2.95 -0.72,2.91 -1.17,2.72 -1.61,2.53 -1.98,2.20 -2.34,1.88 -2.58,1.45 -2.82,1.03 -2.91,0.55 -3.00,0.08 -2.93,-0.40 -2.87,-0.88 -2.65,-1.31 -2.44,-1.75 -2.09,-2.09 -1.75,-2.44 -1.31,-2.65 -0.88,-2.87 -0.39,-2.93 0.08,-3.00 0.55,-2.91 1.03,-2.82 1.46,-2.58 1.88,-2.34 2.20,-1.97 2.53,-1.61 2.72,-1.17 2.91,-0.72 2.95,-0.23 2.99,0.24 2.87,0.71 2.76,1.18 2.49,1.59 2.23,2.00 1.85,2.31 1.47,2.61 1.02,2.78 0.56,2.95 0.07,2.96 -0.40,2.97 -0.87,2.83 -1.33,2.69 -1.73,2.40 -2.12,2.12 -2.12,2.12 -2.12,2.12 -2.34,1.83 -2.57,1.55 -2.72,1.22 -2.86,0.89 -2.93,0.53 -2.99,0.18 -2.97,-0.18 -2.95,-0.54 -2.84,-0.88 -2.74,-1.23 -2.55,-1.54 -2.36,-1.85 -2.10,-2.10 -1.85,-2.36 -1.54,-2.55 -1.23,-2.74 -0.88,-2.84 -0.54,-2.95 -0.17,-2.97 0.18,-2.99 0.53,-2.93 0.89,-2.86 1.22,-2.72 1.55,-2.57 1.84,-2.34 2.12,-2.12 2.12,-2.12 L 2.12,-2.12 Z"></path></g><g transform="translate(955.5999755859375 623.8124847412109) rotate(0 10 -1.9999847412109375)" stroke="none"><path fill="#000" d="M -1.08,-1.55 Q -1.08,-1.55 1.18,-3.20 3.45,-4.85 5.69,-6.06 7.92,-7.26 10.05,-7.81 12.18,-8.37 14.13,-7.86 16.09,-7.35 17.74,-6.03 19.39,-4.71 20.18,-3.24 20.97,-1.77 21.06,-0.02 21.15,1.72 18.64,3.00 16.12,4.27 15.91,4.30 15.70,4.34 15.49,4.30 15.28,4.27 15.09,4.17 14.91,4.07 14.76,3.91 14.61,3.76 14.53,3.57 14.44,3.37 14.41,3.16 14.39,2.95 14.44,2.74 14.48,2.54 14.59,2.35 14.70,2.17 14.87,2.04 15.03,1.90 15.23,1.82 15.42,1.74 15.64,1.73 15.85,1.72 16.05,1.78 16.26,1.83 16.43,1.95 16.61,2.07 16.74,2.24 16.86,2.41 16.93,2.61 17.00,2.82 17.00,3.03 17.00,3.24 16.93,3.44 16.86,3.64 16.73,3.81 16.60,3.98 16.43,4.10 16.25,4.22 16.05,4.27 15.84,4.33 15.63,4.32 15.42,4.31 15.22,4.23 15.02,4.15 14.86,4.01 14.70,3.87 14.59,3.69 14.48,3.51 14.44,3.30 14.39,3.09 14.41,2.88 14.44,2.67 14.53,2.48 14.62,2.29 14.76,2.13 14.91,1.98 15.10,1.88 15.29,1.78 15.29,1.78 15.29,1.78 16.71,1.01 18.14,0.24 17.43,-0.78 16.72,-1.81 15.74,-2.74 14.76,-3.67 13.79,-4.13 12.82,-4.58 11.30,-4.17 9.78,-3.75 7.76,-2.66 5.74,-1.58 3.41,-0.01 1.08,1.55 0.88,1.66 0.68,1.76 0.46,1.82 0.24,1.88 0.01,1.88 -0.21,1.88 -0.43,1.83 -0.66,1.77 -0.86,1.67 -1.06,1.56 -1.23,1.41 -1.41,1.26 -1.54,1.07 -1.67,0.89 -1.75,0.67 -1.83,0.46 -1.86,0.23 -1.89,0.01 -1.86,-0.21 -1.84,-0.44 -1.76,-0.65 -1.68,-0.87 -1.55,-1.05 -1.42,-1.24 -1.25,-1.40 -1.08,-1.55 -1.08,-1.55 L -1.08,-1.55 Z"></path></g><g transform="translate(989.2000732421875 618.2125091552734) rotate(0 41.199951171875 -2.0000152587890625)" stroke="none"><path fill="#000" d="M 1.81,0.68 Q 1.81,0.68 1.22,2.55 0.63,4.43 0.37,5.53 0.10,6.64 1.63,7.47 3.16,8.30 4.64,7.84 6.13,7.39 7.40,6.63 8.66,5.87 9.70,5.09 10.74,4.32 11.17,4.18 11.60,4.04 11.82,3.91 12.05,3.78 12.30,3.71 12.55,3.64 12.81,3.63 13.07,3.62 13.33,3.67 13.58,3.73 13.82,3.84 14.06,3.95 14.26,4.12 14.46,4.28 14.62,4.49 14.77,4.70 14.87,4.94 14.98,5.18 15.02,5.44 15.06,5.70 15.04,5.96 15.02,6.22 14.93,6.47 14.85,6.71 14.71,6.93 14.57,7.15 14.38,7.33 14.19,7.52 15.64,7.86 17.09,8.21 17.89,7.00 18.69,5.79 17.28,3.98 15.87,2.16 14.66,1.74 13.45,1.32 11.78,1.44 10.12,1.57 9.88,1.47 9.64,1.38 9.43,1.24 9.21,1.09 9.04,0.90 8.87,0.70 8.75,0.47 8.63,0.24 8.57,-0.00 8.51,-0.25 8.51,-0.50 8.51,-0.76 8.57,-1.01 8.63,-1.26 8.76,-1.49 8.88,-1.72 9.05,-1.91 9.22,-2.11 9.43,-2.25 9.64,-2.40 9.88,-2.49 10.13,-2.58 10.38,-2.61 10.64,-2.64 10.89,-2.61 11.15,-2.58 12.22,-1.74 13.28,-0.90 14.53,-0.66 15.78,-0.42 17.44,-0.25 19.11,-0.08 20.75,0.00 22.39,0.08 23.77,0.12 25.16,0.15 26.27,0.30 27.37,0.45 28.50,1.42 29.63,2.39 30.29,3.89 30.95,5.39 31.39,6.62 31.84,7.86 33.73,7.14 35.61,6.41 36.59,5.87 37.57,5.33 38.71,4.31 39.86,3.28 40.91,2.67 41.95,2.05 43.05,2.07 44.14,2.09 45.05,2.82 45.95,3.55 47.04,3.34 48.14,3.13 49.06,2.30 49.98,1.47 51.74,1.08 53.51,0.69 54.53,2.87 55.56,5.05 56.28,5.98 56.99,6.90 57.87,6.19 58.74,5.48 60.40,4.54 62.05,3.59 63.41,3.10 64.76,2.61 66.06,2.43 67.37,2.24 68.56,2.73 69.75,3.22 70.86,4.17 71.96,5.13 72.99,5.55 74.02,5.97 75.50,6.11 76.97,6.24 78.37,5.32 79.76,4.39 80.68,2.18 81.59,-0.02 82.05,-1.54 82.51,-3.06 82.65,-4.91 82.79,-6.77 82.52,-8.63 82.25,-10.48 81.70,-11.72 81.16,-12.96 81.14,-13.23 81.11,-13.50 81.15,-13.77 81.19,-14.04 81.29,-14.30 81.39,-14.55 81.55,-14.77 81.71,-14.99 81.92,-15.17 82.13,-15.35 82.38,-15.47 82.62,-15.59 82.89,-15.65 83.16,-15.71 83.43,-15.70 83.70,-15.70 83.97,-15.63 84.23,-15.55 84.47,-15.42 84.71,-15.29 84.91,-15.10 85.11,-14.92 85.26,-14.69 85.41,-14.46 85.50,-14.20 85.59,-13.94 85.31,-12.13 85.03,-10.31 84.93,-8.52 84.83,-6.74 84.71,-3.66 84.60,-0.58 84.16,3.25 83.72,7.10 83.69,7.31 83.65,7.52 83.55,7.71 83.45,7.90 83.29,8.04 83.14,8.19 82.94,8.27 82.75,8.36 82.54,8.38 82.33,8.40 82.12,8.36 81.91,8.31 81.73,8.20 81.55,8.09 81.41,7.92 81.28,7.76 81.20,7.56 81.12,7.36 81.11,7.15 81.10,6.94 81.16,6.74 81.22,6.53 81.34,6.36 81.46,6.18 81.63,6.05 81.80,5.93 82.00,5.86 82.21,5.80 82.42,5.80 82.63,5.80 82.83,5.87 83.03,5.94 83.20,6.07 83.37,6.20 83.49,6.37 83.60,6.55 83.66,6.76 83.72,6.96 83.70,7.17 83.69,7.39 83.61,7.58 83.53,7.78 83.39,7.94 83.25,8.10 83.07,8.21 82.88,8.32 82.68,8.36 82.47,8.40 82.26,8.38 82.05,8.36 81.85,8.26 81.66,8.17 81.51,8.03 81.36,7.88 81.26,7.69 81.16,7.50 81.13,7.29 81.10,7.08 81.10,7.08 81.10,7.08 80.72,3.21 80.34,-0.65 80.33,-3.83 80.32,-7.01 80.74,-9.99 81.16,-12.96 81.14,-13.23 81.11,-13.50 81.15,-13.77 81.19,-14.04 81.29,-14.30 81.39,-14.55 81.55,-14.77 81.71,-14.99 81.92,-15.17 82.13,-15.35 82.38,-15.47 82.62,-15.59 82.89,-15.65 83.16,-15.71 83.43,-15.70 83.70,-15.70 83.97,-15.63 84.23,-15.55 84.47,-15.42 84.71,-15.29 84.91,-15.10 85.11,-14.92 85.26,-14.69 85.41,-14.46 85.50,-14.20 85.59,-13.94 85.62,-13.99 85.65,-14.03 85.91,-12.40 86.18,-10.77 86.20,-8.61 86.22,-6.45 85.97,-4.27 85.71,-2.09 85.25,-0.60 84.78,0.88 84.00,3.07 83.23,5.27 82.34,6.12 81.46,6.97 79.36,8.33 77.27,9.68 74.85,9.77 72.44,9.87 70.81,9.10 69.19,8.34 68.29,7.30 67.39,6.27 65.79,6.77 64.18,7.28 62.49,8.28 60.79,9.28 59.06,10.08 57.33,10.88 55.96,10.61 54.59,10.35 53.56,9.34 52.52,8.34 52.56,6.38 52.61,4.42 51.49,5.41 50.38,6.41 49.29,7.10 48.20,7.79 47.00,7.97 45.80,8.16 44.21,7.32 42.63,6.49 40.25,8.26 37.87,10.04 36.55,10.84 35.24,11.65 33.13,12.14 31.01,12.62 29.86,11.92 28.70,11.23 28.18,10.30 27.67,9.36 27.25,8.19 26.83,7.01 25.94,5.77 25.05,4.53 23.60,4.49 22.16,4.45 20.39,4.36 18.62,4.27 16.58,4.02 14.55,3.78 12.33,2.67 10.12,1.57 9.88,1.47 9.64,1.38 9.43,1.24 9.21,1.09 9.04,0.90 8.87,0.70 8.75,0.47 8.63,0.24 8.57,-0.00 8.51,-0.25 8.51,-0.50 8.51,-0.76 8.57,-1.01 8.63,-1.26 8.76,-1.49 8.88,-1.72 9.05,-1.91 9.22,-2.11 9.43,-2.25 9.64,-2.40 9.88,-2.49 10.13,-2.58 10.38,-2.61 10.64,-2.64 10.89,-2.61 11.15,-2.58 11.68,-2.90 12.22,-3.23 13.66,-2.91 15.09,-2.60 16.96,-1.72 18.83,-0.84 20.55,1.18 22.26,3.21 22.40,5.29 22.55,7.36 21.55,9.03 20.56,10.70 18.99,11.58 17.43,12.46 15.50,12.29 13.58,12.12 12.31,10.93 11.04,9.74 10.85,8.35 10.66,6.96 11.13,5.50 11.60,4.04 11.82,3.91 12.05,3.78 12.30,3.71 12.55,3.64 12.81,3.63 13.07,3.62 13.33,3.67 13.58,3.73 13.82,3.84 14.06,3.95 14.26,4.12 14.46,4.28 14.62,4.49 14.77,4.70 14.87,4.94 14.98,5.18 15.02,5.44 15.06,5.70 15.04,5.96 15.02,6.22 14.93,6.47 14.85,6.71 14.71,6.93 14.57,7.15 14.38,7.33 14.19,7.52 13.67,7.63 13.15,7.74 11.95,8.63 10.76,9.53 8.94,10.53 7.11,11.54 4.57,11.99 2.03,12.44 0.00,11.51 -2.02,10.59 -3.03,8.59 -4.03,6.60 -3.71,4.76 -3.39,2.92 -2.60,1.12 -1.81,-0.68 -1.70,-0.88 -1.59,-1.09 -1.44,-1.27 -1.29,-1.44 -1.09,-1.57 -0.90,-1.71 -0.68,-1.79 -0.47,-1.87 -0.23,-1.90 -0.00,-1.93 0.22,-1.91 0.45,-1.88 0.67,-1.80 0.89,-1.71 1.08,-1.58 1.27,-1.45 1.43,-1.28 1.59,-1.10 1.69,-0.90 1.80,-0.69 1.86,-0.46 1.92,-0.24 1.92,-0.00 1.92,0.22 1.86,0.45 1.81,0.68 1.81,0.68 L 1.81,0.68 Z"></path></g><g transform="translate(1064.4000244140625 619.0124969482422) rotate(0 8 -1.600006103515625)" stroke="none"><path fill="#000" d="M -0.53,-1.96 Q -0.53,-1.96 1.98,-2.67 4.51,-3.37 6.79,-3.82 9.07,-4.28 11.87,-4.32 14.67,-4.36 14.88,-4.35 15.09,-4.34 15.29,-4.26 15.49,-4.19 15.65,-4.05 15.82,-3.92 15.93,-3.73 16.04,-3.55 16.09,-3.35 16.13,-3.14 16.11,-2.93 16.09,-2.72 16.00,-2.52 15.92,-2.33 15.77,-2.17 15.63,-2.02 15.44,-1.92 15.25,-1.82 15.05,-1.78 14.84,-1.74 14.63,-1.77 14.42,-1.81 14.23,-1.90 14.04,-2.00 13.89,-2.15 13.74,-2.31 13.65,-2.50 13.56,-2.69 13.54,-2.90 13.51,-3.11 13.55,-3.32 13.60,-3.53 13.71,-3.71 13.81,-3.90 13.97,-4.03 14.13,-4.17 14.33,-4.25 14.53,-4.33 14.74,-4.35 14.95,-4.36 15.16,-4.31 15.36,-4.25 15.54,-4.14 15.72,-4.02 15.85,-3.85 15.98,-3.68 16.05,-3.48 16.12,-3.28 16.12,-3.07 16.12,-2.86 16.06,-2.65 15.99,-2.45 15.86,-2.28 15.74,-2.11 15.56,-1.99 15.39,-1.87 15.18,-1.81 14.98,-1.75 14.98,-1.75 14.98,-1.75 12.46,-1.16 9.94,-0.57 7.77,0.02 5.60,0.61 3.07,1.29 0.53,1.96 0.29,2.00 0.05,2.04 -0.19,2.01 -0.43,1.99 -0.67,1.91 -0.90,1.83 -1.10,1.69 -1.31,1.56 -1.48,1.38 -1.65,1.20 -1.77,0.98 -1.89,0.77 -1.95,0.53 -2.01,0.29 -2.02,0.04 -2.03,-0.19 -1.97,-0.43 -1.92,-0.67 -1.81,-0.89 -1.70,-1.11 -1.54,-1.30 -1.39,-1.49 -1.19,-1.63 -0.99,-1.78 -0.76,-1.87 -0.53,-1.96 -0.53,-1.96 L -0.53,-1.96 Z"></path></g><g transform="translate(1097.2000732421875 624.6125030517578) rotate(0 6.39996337890625 -1.600006103515625)" stroke="none"><path fill="#000" d="M -0.39,-1.57 Q -0.39,-1.57 2.31,-2.45 5.03,-3.33 8.09,-3.73 11.16,-4.14 11.37,-4.16 11.58,-4.18 11.79,-4.12 12.00,-4.07 12.18,-3.96 12.36,-3.84 12.49,-3.68 12.62,-3.51 12.70,-3.31 12.77,-3.12 12.78,-2.90 12.78,-2.69 12.72,-2.49 12.66,-2.28 12.53,-2.11 12.41,-1.94 12.24,-1.81 12.06,-1.69 11.86,-1.63 11.66,-1.57 11.45,-1.57 11.23,-1.58 11.03,-1.65 10.83,-1.72 10.67,-1.86 10.50,-1.99 10.39,-2.17 10.27,-2.35 10.22,-2.55 10.17,-2.76 10.19,-2.97 10.21,-3.18 10.29,-3.38 10.37,-3.57 10.51,-3.73 10.66,-3.89 10.84,-3.99 11.03,-4.10 11.23,-4.14 11.44,-4.18 11.65,-4.15 11.86,-4.12 12.05,-4.03 12.25,-3.93 12.40,-3.78 12.55,-3.63 12.64,-3.44 12.74,-3.25 12.76,-3.04 12.79,-2.83 12.75,-2.62 12.71,-2.41 12.61,-2.23 12.50,-2.04 12.35,-1.90 12.19,-1.76 11.99,-1.68 11.80,-1.59 11.80,-1.59 11.80,-1.59 8.90,-0.51 6.00,0.57 3.20,1.07 0.39,1.57 0.19,1.59 0.00,1.62 -0.18,1.59 -0.38,1.57 -0.56,1.50 -0.74,1.43 -0.91,1.32 -1.07,1.21 -1.20,1.07 -1.33,0.92 -1.42,0.75 -1.51,0.57 -1.56,0.39 -1.60,0.20 -1.60,0.00 -1.61,-0.19 -1.56,-0.38 -1.51,-0.57 -1.42,-0.74 -1.33,-0.91 -1.20,-1.06 -1.07,-1.21 -0.91,-1.32 -0.75,-1.43 -0.57,-1.50 -0.39,-1.57 -0.39,-1.57 L -0.39,-1.57 Z"></path></g><g transform="translate(1124.4000244140625 613.4124908447266) rotate(0 11.5999755859375 5.20001220703125)" stroke="none"><path fill="#000" d="M 1.66,-0.60 Q 1.66,-0.60 2.82,1.83 3.97,4.28 5.05,6.92 6.12,9.57 7.03,11.59 7.94,13.61 8.67,14.75 9.40,15.89 8.35,16.10 7.31,16.31 8.09,13.71 8.87,11.11 10.84,7.54 12.81,3.98 14.57,1.10 16.33,-1.76 17.50,-3.85 18.68,-5.94 21.23,-7.16 23.79,-8.37 23.95,-8.23 24.11,-8.09 24.21,-7.90 24.31,-7.72 24.35,-7.51 24.39,-7.30 24.36,-7.09 24.33,-6.88 24.23,-6.69 24.14,-6.50 23.99,-6.35 23.83,-6.20 23.64,-6.11 23.45,-6.01 23.24,-5.99 23.03,-5.96 22.82,-6.00 22.61,-6.04 22.43,-6.15 22.25,-6.26 22.10,-6.41 21.96,-6.57 21.88,-6.77 21.80,-6.97 21.78,-7.18 21.77,-7.39 21.82,-7.60 21.87,-7.80 21.99,-7.98 22.11,-8.16 22.27,-8.29 22.44,-8.42 22.64,-8.49 22.84,-8.56 23.05,-8.57 23.26,-8.57 23.47,-8.51 23.67,-8.44 23.84,-8.32 24.01,-8.19 24.13,-8.02 24.26,-7.85 24.32,-7.64 24.38,-7.44 24.37,-7.23 24.36,-7.01 24.29,-6.82 24.21,-6.62 24.08,-6.45 23.95,-6.29 23.77,-6.17 23.59,-6.06 23.38,-6.01 23.17,-5.96 22.96,-5.98 22.75,-6.00 22.55,-6.09 22.36,-6.17 22.36,-6.17 22.36,-6.17 22.48,-4.96 22.60,-3.75 21.40,-1.59 20.20,0.56 18.53,3.37 16.86,6.18 15.10,9.49 13.34,12.80 12.77,14.35 12.19,15.89 11.16,17.68 10.13,19.48 7.91,19.02 5.68,18.55 4.70,17.02 3.73,15.49 2.80,13.39 1.87,11.28 0.78,8.56 -0.29,5.83 -0.98,3.22 -1.66,0.60 -1.71,0.39 -1.75,0.18 -1.75,-0.02 -1.75,-0.23 -1.69,-0.44 -1.64,-0.64 -1.54,-0.83 -1.44,-1.02 -1.29,-1.18 -1.15,-1.33 -0.97,-1.45 -0.80,-1.57 -0.59,-1.65 -0.39,-1.72 -0.18,-1.74 0.02,-1.76 0.23,-1.73 0.44,-1.71 0.64,-1.63 0.84,-1.55 1.01,-1.43 1.19,-1.30 1.33,-1.14 1.46,-0.98 1.56,-0.79 1.66,-0.60 1.66,-0.60 L 1.66,-0.60 Z"></path></g><g transform="translate(1154 622.2125091552734) rotate(0 6.4000244140625 0.399993896484375)" stroke="none"><path fill="#000" d="M -0.60,-1.40 Q -0.60,-1.40 0.90,-2.32 2.41,-3.23 3.37,-3.87 4.34,-4.52 2.50,-2.67 0.67,-0.82 0.29,0.98 -0.08,2.79 1.06,4.13 2.20,5.48 3.80,5.74 5.40,6.00 7.47,5.58 9.53,5.16 12.05,4.89 14.57,4.61 14.79,4.59 15.00,4.57 15.20,4.62 15.41,4.67 15.59,4.78 15.77,4.89 15.91,5.06 16.04,5.22 16.12,5.42 16.19,5.62 16.20,5.83 16.21,6.04 16.15,6.25 16.09,6.45 15.97,6.62 15.84,6.80 15.67,6.92 15.50,7.05 15.30,7.11 15.10,7.18 14.88,7.17 14.67,7.17 14.47,7.10 14.27,7.03 14.10,6.90 13.94,6.77 13.82,6.59 13.70,6.41 13.65,6.20 13.60,6.00 13.61,5.79 13.63,5.58 13.71,5.38 13.79,5.18 13.93,5.02 14.07,4.86 14.25,4.76 14.44,4.65 14.65,4.61 14.85,4.57 15.07,4.59 15.28,4.62 15.47,4.71 15.66,4.80 15.81,4.95 15.96,5.10 16.06,5.29 16.16,5.48 16.19,5.69 16.22,5.90 16.18,6.11 16.14,6.32 16.04,6.50 15.94,6.69 15.78,6.83 15.62,6.98 15.43,7.06 15.23,7.15 15.23,7.15 15.24,7.15 12.81,8.16 10.38,9.17 7.53,9.79 4.67,10.42 2.27,9.89 -0.13,9.36 -1.95,7.89 -3.77,6.43 -4.12,4.07 -4.47,1.71 -3.61,-1.00 -2.74,-3.72 -1.07,-5.44 0.58,-7.16 2.40,-8.24 4.22,-9.31 5.70,-9.04 7.17,-8.78 7.98,-7.41 8.79,-6.05 8.50,-4.72 8.21,-3.39 7.44,-2.32 6.67,-1.25 5.34,-0.38 4.02,0.47 2.31,0.94 0.60,1.40 0.42,1.45 0.24,1.51 0.06,1.51 -0.11,1.52 -0.30,1.48 -0.48,1.45 -0.64,1.37 -0.81,1.29 -0.95,1.17 -1.10,1.06 -1.21,0.91 -1.32,0.76 -1.39,0.59 -1.46,0.42 -1.49,0.24 -1.52,0.06 -1.51,-0.11 -1.50,-0.30 -1.44,-0.47 -1.38,-0.65 -1.28,-0.80 -1.18,-0.96 -1.05,-1.09 -0.92,-1.22 -0.76,-1.31 -0.60,-1.40 -0.60,-1.40 L -0.60,-1.40 Z"></path></g><g transform="translate(928.4000244140625 665.4124908447266) rotate(0 4.399993896484375 8.800003051757812)" stroke="none"><path fill="#000" d="M 1.71,0.76 Q 1.71,0.76 0.81,2.83 -0.09,4.91 -0.66,6.83 -1.24,8.75 -1.71,11.35 -2.19,13.94 -2.38,17.05 -2.57,20.16 -2.66,21.97 -2.75,23.79 -2.58,25.21 -2.40,26.63 -2.44,26.86 -2.48,27.09 -2.57,27.30 -2.65,27.51 -2.79,27.70 -2.93,27.88 -3.11,28.03 -3.29,28.17 -3.49,28.27 -3.70,28.37 -3.93,28.42 -4.15,28.47 -4.38,28.46 -4.61,28.45 -4.83,28.38 -5.06,28.32 -5.25,28.21 -5.45,28.09 -5.62,27.93 -5.79,27.77 -5.91,27.58 -6.03,27.39 -6.11,27.17 -6.18,26.95 -6.20,26.72 -6.22,26.49 -5.82,22.31 -5.43,18.13 -5.32,14.30 -5.21,10.47 -5.16,6.54 -5.11,2.61 -4.61,-0.63 -4.12,-3.87 -2.56,-6.05 -1.01,-8.23 1.13,-9.24 3.29,-10.25 5.65,-9.92 8.02,-9.59 10.11,-8.34 12.20,-7.08 13.27,-4.89 14.34,-2.71 13.53,-0.06 12.71,2.57 10.76,4.68 8.81,6.79 5.70,8.06 2.59,9.33 2.39,9.40 2.19,9.47 1.98,9.47 1.76,9.47 1.56,9.40 1.36,9.33 1.19,9.20 1.02,9.07 0.91,8.89 0.79,8.72 0.73,8.51 0.68,8.31 0.69,8.10 0.70,7.88 0.78,7.69 0.86,7.49 1.00,7.33 1.13,7.17 1.32,7.06 1.50,6.95 1.71,6.90 1.91,6.86 2.13,6.88 2.34,6.91 2.53,7.00 2.72,7.09 2.88,7.23 3.03,7.38 3.13,7.57 3.23,7.76 3.26,7.97 3.29,8.17 3.26,8.38 3.22,8.59 3.12,8.78 3.02,8.97 2.87,9.11 2.71,9.26 2.52,9.35 2.33,9.44 2.12,9.46 1.91,9.48 1.70,9.44 1.49,9.39 1.31,9.28 1.13,9.17 0.99,9.01 0.85,8.84 0.78,8.65 0.70,8.45 0.69,8.24 0.68,8.02 0.73,7.82 0.79,7.62 0.91,7.44 1.03,7.26 1.20,7.14 1.37,7.01 1.37,7.01 1.37,7.01 3.64,5.45 5.91,3.89 7.43,2.41 8.96,0.92 9.82,-0.55 10.68,-2.04 10.30,-3.07 9.91,-4.09 8.55,-5.00 7.20,-5.90 5.80,-6.31 4.40,-6.73 3.10,-6.24 1.81,-5.76 0.65,-4.42 -0.50,-3.08 -0.96,-0.21 -1.42,2.66 -1.47,6.62 -1.52,10.58 -1.64,14.51 -1.76,18.44 -2.08,22.54 -2.40,26.63 -2.44,26.86 -2.48,27.09 -2.57,27.30 -2.65,27.51 -2.79,27.70 -2.93,27.88 -3.11,28.03 -3.29,28.17 -3.49,28.27 -3.70,28.37 -3.93,28.42 -4.15,28.47 -4.38,28.46 -4.61,28.45 -4.83,28.38 -5.06,28.32 -5.25,28.21 -5.45,28.09 -5.62,27.93 -5.79,27.77 -5.91,27.58 -6.03,27.39 -6.11,27.17 -6.18,26.95 -6.20,26.72 -6.22,26.49 -6.42,26.12 -6.63,25.75 -6.60,24.67 -6.58,23.60 -6.49,21.76 -6.40,19.91 -6.17,16.59 -5.94,13.26 -5.43,10.45 -4.91,7.64 -4.25,5.50 -3.58,3.36 -2.65,1.30 -1.71,-0.76 -1.59,-0.95 -1.48,-1.14 -1.32,-1.30 -1.16,-1.47 -0.97,-1.58 -0.77,-1.70 -0.56,-1.77 -0.34,-1.84 -0.12,-1.85 0.10,-1.87 0.32,-1.83 0.54,-1.79 0.75,-1.70 0.96,-1.60 1.14,-1.47 1.31,-1.33 1.45,-1.15 1.59,-0.97 1.69,-0.77 1.78,-0.56 1.82,-0.34 1.87,-0.12 1.85,0.10 1.84,0.32 1.77,0.54 1.71,0.76 1.71,0.76 L 1.71,0.76 Z"></path></g><g transform="translate(950 663.8124847412109) rotate(0 17.60003662109375 11.600006103515625)" stroke="none"><path fill="#000" d="M 1.19,-1.59 Q 1.19,-1.59 4.01,0.49 6.82,2.57 8.52,5.88 10.22,9.19 10.47,11.72 10.72,14.25 10.78,14.71 10.85,15.18 10.83,15.43 10.82,15.69 10.74,15.94 10.66,16.18 10.53,16.40 10.40,16.63 10.21,16.81 10.03,16.99 9.81,17.13 9.59,17.26 9.35,17.34 9.10,17.41 8.84,17.43 8.58,17.45 8.33,17.40 8.08,17.35 7.84,17.25 7.61,17.14 7.40,16.98 7.20,16.83 7.04,16.62 6.88,16.42 6.77,16.19 6.67,15.95 6.62,15.70 6.57,15.44 7.18,13.79 7.79,12.14 9.55,10.01 11.31,7.88 13.02,6.30 14.72,4.71 16.61,3.90 18.50,3.08 20.47,3.21 22.44,3.34 23.54,5.15 24.64,6.95 25.14,9.82 25.63,12.69 26.22,14.79 26.81,16.89 27.39,18.29 27.97,19.68 29.35,19.21 30.74,18.74 31.32,17.18 31.91,15.63 32.23,13.47 32.55,11.32 32.33,10.03 32.10,8.74 30.71,9.01 29.31,9.27 29.15,9.41 28.99,9.55 28.79,9.63 28.59,9.71 28.38,9.72 28.17,9.74 27.96,9.68 27.76,9.63 27.58,9.51 27.40,9.39 27.27,9.23 27.14,9.06 27.07,8.86 27.00,8.66 27.00,8.44 27.00,8.23 27.07,8.03 27.13,7.83 27.26,7.66 27.38,7.49 27.56,7.37 27.73,7.24 27.94,7.19 28.14,7.13 28.35,7.14 28.57,7.15 28.77,7.22 28.96,7.30 29.13,7.44 29.29,7.57 29.40,7.75 29.51,7.93 29.56,8.14 29.61,8.35 29.59,8.56 29.57,8.77 29.48,8.96 29.39,9.16 29.25,9.31 29.10,9.47 28.92,9.57 28.73,9.67 28.52,9.71 28.31,9.74 28.10,9.71 27.89,9.68 27.70,9.58 27.51,9.48 27.37,9.33 27.22,9.18 27.13,8.99 27.04,8.80 27.01,8.58 26.99,8.37 27.03,8.17 27.07,7.96 27.18,7.77 27.29,7.59 27.29,7.59 27.29,7.59 29.89,6.03 32.49,4.47 34.22,6.02 35.94,7.56 36.30,9.74 36.66,11.91 36.18,14.65 35.70,17.39 34.41,19.78 33.11,22.18 30.77,23.14 28.44,24.11 26.37,22.98 24.29,21.85 23.43,19.96 22.56,18.06 21.93,15.68 21.30,13.30 21.07,11.02 20.84,8.74 20.40,7.76 19.97,6.78 18.66,7.23 17.36,7.68 15.87,9.08 14.39,10.48 12.62,12.83 10.85,15.18 10.83,15.43 10.82,15.69 10.74,15.94 10.66,16.18 10.53,16.40 10.40,16.63 10.22,16.81 10.03,16.99 9.81,17.12 9.59,17.26 9.35,17.34 9.10,17.41 8.84,17.43 8.59,17.45 8.33,17.40 8.08,17.35 7.84,17.25 7.61,17.14 7.40,16.98 7.20,16.83 7.04,16.62 6.88,16.42 6.77,16.19 6.67,15.95 6.62,15.70 6.57,15.44 6.52,14.98 6.47,14.52 6.45,12.69 6.43,10.87 5.32,8.29 4.21,5.70 1.50,3.64 -1.19,1.59 -1.36,1.42 -1.54,1.26 -1.67,1.05 -1.79,0.85 -1.87,0.62 -1.95,0.40 -1.97,0.16 -1.99,-0.07 -1.95,-0.31 -1.91,-0.55 -1.82,-0.77 -1.72,-0.99 -1.58,-1.18 -1.43,-1.37 -1.25,-1.53 -1.06,-1.68 -0.84,-1.78 -0.63,-1.88 -0.39,-1.93 -0.16,-1.98 0.07,-1.97 0.31,-1.96 0.54,-1.90 0.77,-1.83 0.98,-1.71 1.19,-1.59 1.19,-1.59 L 1.19,-1.59 Z"></path></g><g transform="translate(1008.4000244140625 659.8124847412109) rotate(0 -4.79998779296875 22.400009155273438)" stroke="none"><path fill="#000" d="M 0,2.08 Q 0,2.08 -1.97,2.12 -3.95,2.16 -5.20,3.13 -6.46,4.10 -7.82,6.55 -9.18,9.01 -10.01,12.22 -10.84,15.42 -11.20,19.03 -11.57,22.64 -11.74,26.26 -11.90,29.87 -12.69,33.69 -13.48,37.50 -14.86,40.21 -16.24,42.92 -16.82,43.71 -17.41,44.50 -17.54,44.70 -17.68,44.91 -17.86,45.07 -18.04,45.23 -18.25,45.35 -18.47,45.47 -18.70,45.53 -18.94,45.59 -19.18,45.60 -19.43,45.60 -19.66,45.55 -19.90,45.49 -20.12,45.38 -20.34,45.27 -20.52,45.11 -20.71,44.95 -20.85,44.75 -20.99,44.56 -21.08,44.33 -21.17,44.10 -21.20,43.86 -21.24,43.62 -21.21,43.38 -21.19,43.13 -21.10,42.90 -21.02,42.67 -20.56,39.40 -20.09,36.12 -18.88,33.09 -17.67,30.06 -15.74,27.02 -13.82,23.98 -11.41,22.30 -9.00,20.62 -6.51,19.65 -4.02,18.67 -1.58,18.48 0.85,18.29 3.58,19.43 6.32,20.57 8.02,22.13 9.71,23.70 10.30,26.41 10.89,29.12 10.86,29.33 10.84,29.54 10.75,29.73 10.66,29.92 10.51,30.07 10.36,30.23 10.17,30.32 9.98,30.42 9.77,30.45 9.56,30.48 9.35,30.45 9.14,30.41 8.96,30.31 8.77,30.21 8.63,30.05 8.48,29.89 8.39,29.70 8.31,29.51 8.29,29.29 8.27,29.08 8.31,28.88 8.36,28.67 8.47,28.49 8.59,28.31 8.75,28.17 8.91,28.04 9.11,27.96 9.31,27.88 9.52,27.88 9.73,27.87 9.94,27.93 10.14,27.99 10.32,28.11 10.49,28.23 10.62,28.40 10.74,28.57 10.81,28.77 10.88,28.97 10.87,29.19 10.87,29.40 10.80,29.60 10.73,29.80 10.60,29.97 10.47,30.13 10.29,30.25 10.11,30.37 9.91,30.42 9.70,30.48 9.49,30.46 9.28,30.45 9.08,30.37 8.89,30.29 8.73,30.15 8.57,30.01 8.46,29.82 8.35,29.64 8.31,29.43 8.26,29.23 8.26,29.23 8.26,29.23 7.56,27.91 6.85,26.60 5.68,25.39 4.51,24.18 2.68,23.13 0.84,22.08 -0.97,22.14 -2.78,22.20 -4.91,22.92 -7.03,23.63 -8.98,24.82 -10.93,26.02 -12.76,28.67 -14.59,31.32 -15.72,34.10 -16.85,36.89 -17.41,39.06 -17.97,41.23 -17.69,42.86 -17.41,44.50 -17.54,44.70 -17.68,44.91 -17.86,45.07 -18.04,45.23 -18.25,45.35 -18.47,45.47 -18.70,45.53 -18.94,45.59 -19.18,45.60 -19.43,45.60 -19.66,45.55 -19.90,45.49 -20.12,45.38 -20.34,45.27 -20.52,45.11 -20.71,44.95 -20.85,44.75 -20.99,44.56 -21.08,44.33 -21.17,44.10 -21.20,43.86 -21.24,43.62 -21.21,43.38 -21.19,43.13 -21.10,42.90 -21.02,42.67 -20.54,41.83 -20.07,40.99 -18.96,38.77 -17.86,36.55 -17.12,33.10 -16.38,29.65 -16.21,25.91 -16.03,22.17 -15.59,18.21 -15.16,14.26 -14.09,10.50 -13.03,6.74 -11.02,3.62 -9.01,0.49 -6.66,-0.83 -4.32,-2.16 -2.16,-2.12 0,-2.08 0.24,-2.05 0.49,-2.02 0.73,-1.93 0.96,-1.84 1.17,-1.70 1.38,-1.56 1.54,-1.37 1.71,-1.18 1.83,-0.96 1.95,-0.73 2.01,-0.49 2.07,-0.25 2.07,0.00 2.07,0.25 2.01,0.49 1.95,0.73 1.83,0.96 1.71,1.18 1.54,1.37 1.38,1.56 1.17,1.70 0.96,1.84 0.73,1.93 0.49,2.02 0.24,2.05 -0.00,2.08 -0.00,2.08 L 0,2.08 Z"></path></g><g transform="translate(1019.5999755859375 665.4124908447266) rotate(0 0.800048828125 1.600006103515625)" stroke="none"><path fill="#000" d="M 1.86,-0.58 Q 1.86,-0.58 1.89,-0.11 1.92,0.35 1.73,0.78 1.54,1.20 1.17,1.49 0.80,1.78 0.34,1.87 -0.11,1.95 -0.56,1.81 -1.01,1.67 -1.34,1.34 -1.67,1.01 -1.81,0.56 -1.95,0.11 -1.87,-0.34 -1.78,-0.80 -1.49,-1.17 -1.20,-1.54 -0.78,-1.73 -0.35,-1.92 0.11,-1.89 0.58,-1.86 0.98,-1.62 1.38,-1.38 1.62,-0.98 L 1.86,-0.58 Z"></path></g><g transform="translate(1037.2000732421875 662.2125091552734) rotate(0 -2.4000244140625 15.199996948242188)" stroke="none"><path fill="#000" d="M 1.90,0.95 Q 1.90,0.95 0.81,3.27 -0.27,5.59 -0.90,8.40 -1.53,11.21 -1.81,14.19 -2.09,17.18 -2.24,20.06 -2.39,22.94 -2.92,26.00 -3.45,29.06 -3.49,29.27 -3.53,29.48 -3.63,29.67 -3.74,29.85 -3.89,29.99 -4.05,30.14 -4.25,30.22 -4.44,30.31 -4.65,30.32 -4.86,30.34 -5.07,30.29 -5.28,30.24 -5.46,30.12 -5.64,30.01 -5.77,29.84 -5.90,29.68 -5.98,29.48 -6.05,29.28 -6.06,29.07 -6.06,28.86 -6.00,28.65 -5.94,28.45 -5.81,28.28 -5.69,28.10 -5.52,27.98 -5.35,27.86 -5.14,27.79 -4.94,27.73 -4.73,27.74 -4.51,27.74 -4.32,27.81 -4.12,27.89 -3.95,28.02 -3.78,28.15 -3.67,28.33 -3.55,28.51 -3.50,28.72 -3.45,28.92 -3.47,29.13 -3.49,29.35 -3.57,29.54 -3.65,29.74 -3.79,29.90 -3.94,30.05 -4.12,30.16 -4.31,30.26 -4.51,30.30 -4.72,30.34 -4.93,30.32 -5.14,30.29 -5.33,30.19 -5.53,30.10 -5.68,29.95 -5.83,29.80 -5.92,29.61 -6.02,29.42 -6.04,29.21 -6.07,29.00 -6.07,29.00 -6.07,29.00 -6.44,25.87 -6.81,22.75 -6.70,19.74 -6.59,16.74 -6.26,13.46 -5.93,10.17 -5.13,6.89 -4.32,3.60 -3.11,1.32 -1.90,-0.95 -1.76,-1.16 -1.61,-1.37 -1.43,-1.55 -1.24,-1.72 -1.01,-1.84 -0.79,-1.97 -0.54,-2.03 -0.29,-2.10 -0.04,-2.11 0.21,-2.11 0.46,-2.05 0.71,-2.00 0.94,-1.88 1.17,-1.77 1.36,-1.60 1.56,-1.44 1.71,-1.23 1.86,-1.02 1.95,-0.78 2.05,-0.54 2.09,-0.29 2.12,-0.04 2.10,0.21 2.07,0.46 1.98,0.70 1.90,0.95 1.90,0.95 L 1.90,0.95 Z"></path></g><g transform="translate(1022.800048828125 682.2125091552734) rotate(0 10.79998779296875 -3.20001220703125)" stroke="none"><path fill="#000" d="M -0.67,-1.86 Q -0.67,-1.86 1.82,-2.85 4.33,-3.84 7.56,-4.71 10.79,-5.57 15.09,-6.36 19.39,-7.14 19.60,-7.17 19.81,-7.19 20.02,-7.14 20.23,-7.10 20.41,-6.99 20.59,-6.88 20.73,-6.72 20.87,-6.56 20.95,-6.36 21.03,-6.16 21.04,-5.95 21.05,-5.74 20.99,-5.53 20.94,-5.33 20.82,-5.15 20.70,-4.98 20.53,-4.85 20.36,-4.72 20.16,-4.65 19.96,-4.58 19.74,-4.58 19.53,-4.58 19.33,-4.65 19.13,-4.72 18.96,-4.85 18.79,-4.97 18.67,-5.15 18.55,-5.33 18.50,-5.53 18.44,-5.74 18.45,-5.95 18.46,-6.16 18.54,-6.36 18.62,-6.55 18.76,-6.72 18.89,-6.88 19.07,-6.99 19.26,-7.10 19.46,-7.14 19.67,-7.19 19.88,-7.17 20.09,-7.14 20.29,-7.06 20.48,-6.97 20.63,-6.82 20.79,-6.67 20.89,-6.49 20.99,-6.30 21.02,-6.09 21.06,-5.88 21.02,-5.67 20.99,-5.46 20.89,-5.27 20.79,-5.08 20.64,-4.94 20.48,-4.79 20.29,-4.70 20.10,-4.61 20.10,-4.61 20.10,-4.61 16.00,-3.06 11.90,-1.50 8.84,-0.67 5.78,0.16 3.23,1.01 0.67,1.86 0.44,1.92 0.21,1.97 -0.02,1.97 -0.26,1.96 -0.49,1.90 -0.72,1.84 -0.94,1.73 -1.15,1.61 -1.32,1.45 -1.50,1.29 -1.63,1.09 -1.77,0.89 -1.85,0.67 -1.93,0.44 -1.96,0.21 -1.98,-0.02 -1.95,-0.26 -1.92,-0.50 -1.83,-0.72 -1.74,-0.94 -1.60,-1.14 -1.46,-1.33 -1.28,-1.49 -1.10,-1.65 -0.89,-1.75 -0.67,-1.86 -0.67,-1.86 L -0.67,-1.86 Z"></path></g><g transform="translate(1066 682.2125091552734) rotate(0 8.00006103515625 -2)" stroke="none"><path fill="#000" d="M -0.57,-1.90 Q -0.57,-1.90 1.69,-2.70 3.96,-3.50 6.39,-4.04 8.83,-4.58 12.55,-4.56 16.27,-4.53 16.48,-4.49 16.69,-4.44 16.87,-4.34 17.06,-4.23 17.20,-4.07 17.34,-3.91 17.42,-3.71 17.50,-3.52 17.51,-3.31 17.53,-3.09 17.47,-2.89 17.42,-2.68 17.30,-2.51 17.19,-2.33 17.02,-2.20 16.85,-2.07 16.65,-2.00 16.45,-1.93 16.24,-1.92 16.02,-1.92 15.82,-1.99 15.62,-2.05 15.45,-2.18 15.28,-2.30 15.16,-2.48 15.04,-2.65 14.98,-2.86 14.92,-3.06 14.93,-3.27 14.93,-3.48 15.01,-3.68 15.09,-3.88 15.22,-4.05 15.36,-4.21 15.54,-4.32 15.72,-4.43 15.93,-4.48 16.13,-4.53 16.34,-4.51 16.56,-4.49 16.75,-4.40 16.94,-4.32 17.10,-4.17 17.26,-4.03 17.36,-3.84 17.46,-3.65 17.50,-3.44 17.53,-3.24 17.50,-3.03 17.47,-2.82 17.37,-2.63 17.28,-2.44 17.12,-2.29 16.97,-2.14 16.78,-2.05 16.59,-1.96 16.38,-1.93 16.17,-1.91 16.17,-1.91 16.17,-1.91 12.98,-1.08 9.79,-0.26 7.51,0.24 5.23,0.74 2.90,1.32 0.57,1.90 0.33,1.94 0.09,1.99 -0.14,1.97 -0.38,1.95 -0.60,1.88 -0.83,1.80 -1.04,1.68 -1.24,1.55 -1.41,1.38 -1.58,1.21 -1.70,1.00 -1.82,0.79 -1.89,0.56 -1.96,0.33 -1.97,0.09 -1.98,-0.14 -1.94,-0.37 -1.89,-0.61 -1.79,-0.83 -1.69,-1.04 -1.54,-1.23 -1.39,-1.42 -1.20,-1.57 -1.01,-1.71 -0.79,-1.81 -0.57,-1.90 -0.57,-1.90 L -0.57,-1.90 Z"></path></g><g transform="translate(1085.2000732421875 663.0124969482422) rotate(0 -2 18)" stroke="none"><path fill="#000" d="M 1.68,0.35 Q 1.68,0.35 1.09,4.79 0.50,9.23 -0.09,13.32 -0.70,17.40 -0.96,20.70 -1.21,23.99 -1.34,26.76 -1.46,29.53 -1.60,31.62 -1.74,33.72 -2.21,35.31 -2.67,36.91 -2.71,37.12 -2.75,37.33 -2.85,37.51 -2.95,37.70 -3.11,37.84 -3.26,37.99 -3.46,38.07 -3.65,38.16 -3.87,38.18 -4.08,38.20 -4.28,38.15 -4.49,38.10 -4.67,37.98 -4.85,37.87 -4.99,37.71 -5.12,37.54 -5.19,37.34 -5.27,37.14 -5.28,36.93 -5.29,36.72 -5.22,36.52 -5.16,36.31 -5.04,36.14 -4.92,35.97 -4.75,35.84 -4.58,35.71 -4.37,35.65 -4.17,35.59 -3.96,35.59 -3.75,35.59 -3.55,35.66 -3.35,35.74 -3.18,35.87 -3.01,36.00 -2.90,36.18 -2.78,36.36 -2.73,36.56 -2.67,36.77 -2.69,36.98 -2.70,37.19 -2.79,37.39 -2.87,37.58 -3.01,37.74 -3.15,37.90 -3.33,38.01 -3.52,38.11 -3.73,38.16 -3.94,38.20 -4.15,38.17 -4.36,38.14 -4.55,38.05 -4.74,37.96 -4.89,37.81 -5.04,37.66 -5.14,37.47 -5.23,37.28 -5.26,37.07 -5.30,36.86 -5.30,36.86 -5.30,36.86 -5.70,35.24 -6.11,33.62 -6.16,31.48 -6.20,29.34 -6.10,26.48 -6.00,23.62 -5.72,20.16 -5.45,16.70 -4.82,12.47 -4.18,8.24 -2.93,3.94 -1.68,-0.35 -1.61,-0.55 -1.55,-0.74 -1.43,-0.92 -1.32,-1.09 -1.17,-1.24 -1.02,-1.38 -0.84,-1.48 -0.66,-1.58 -0.46,-1.64 -0.26,-1.70 -0.05,-1.70 0.14,-1.71 0.35,-1.67 0.55,-1.63 0.74,-1.54 0.92,-1.44 1.08,-1.31 1.24,-1.18 1.37,-1.01 1.49,-0.85 1.57,-0.66 1.65,-0.46 1.68,-0.26 1.72,-0.05 1.70,0.14 1.68,0.35 1.68,0.35 L 1.68,0.35 Z"></path></g><g transform="translate(1070 683.0124969482422) rotate(0 16 -2.8000030517578125)" stroke="none"><path fill="#000" d="M -0.22,-2.00 Q -0.22,-2.00 1.83,-2.32 3.89,-2.65 6.51,-3.19 9.13,-3.74 12.83,-4.44 16.54,-5.14 19.50,-5.62 22.47,-6.09 24.73,-6.20 26.99,-6.31 28.91,-6.49 30.83,-6.67 31.04,-6.68 31.25,-6.70 31.46,-6.64 31.66,-6.59 31.84,-6.47 32.02,-6.36 32.15,-6.19 32.28,-6.02 32.35,-5.82 32.42,-5.62 32.42,-5.41 32.42,-5.20 32.36,-4.99 32.29,-4.79 32.17,-4.62 32.04,-4.45 31.87,-4.33 31.69,-4.21 31.49,-4.15 31.29,-4.09 31.07,-4.10 30.86,-4.10 30.66,-4.18 30.46,-4.26 30.30,-4.39 30.14,-4.53 30.02,-4.71 29.91,-4.89 29.86,-5.09 29.82,-5.30 29.84,-5.51 29.86,-5.72 29.94,-5.92 30.03,-6.11 30.17,-6.27 30.32,-6.43 30.50,-6.53 30.69,-6.63 30.90,-6.67 31.11,-6.70 31.32,-6.67 31.53,-6.64 31.72,-6.54 31.91,-6.45 32.05,-6.30 32.20,-6.14 32.29,-5.95 32.39,-5.76 32.41,-5.55 32.44,-5.34 32.40,-5.13 32.35,-4.92 32.25,-4.74 32.14,-4.55 31.98,-4.41 31.82,-4.27 31.62,-4.19 31.43,-4.11 31.43,-4.11 31.43,-4.11 29.40,-3.37 27.38,-2.62 25.29,-2.28 23.21,-1.94 20.28,-1.37 17.36,-0.79 13.69,-0.10 10.02,0.59 7.20,1.16 4.38,1.73 2.30,1.86 0.22,2.00 -0.02,2.00 -0.26,2.00 -0.49,1.94 -0.73,1.88 -0.95,1.76 -1.16,1.65 -1.34,1.48 -1.52,1.32 -1.66,1.12 -1.79,0.92 -1.88,0.69 -1.96,0.46 -1.99,0.22 -2.02,-0.02 -1.98,-0.26 -1.95,-0.50 -1.86,-0.73 -1.77,-0.95 -1.63,-1.15 -1.49,-1.35 -1.31,-1.51 -1.13,-1.67 -0.91,-1.78 -0.69,-1.89 -0.46,-1.95 -0.22,-2.00 -0.22,-2.00 L -0.22,-2.00 Z"></path></g><g transform="translate(1109.2000732421875 675.8124847412109) rotate(0 10 4.8000030517578125)" stroke="none"><path fill="#000" d="M 1.68,-0.50 Q 1.68,-0.50 2.63,1.71 3.59,3.93 4.56,6.43 5.52,8.94 6.59,11.09 7.66,13.23 8.38,14.93 9.10,16.63 7.90,16.85 6.70,17.07 6.98,15.61 7.27,14.15 7.97,11.11 8.67,8.08 9.75,4.42 10.82,0.77 12.61,-2.50 14.40,-5.78 16.31,-7.98 18.22,-10.18 18.37,-10.33 18.52,-10.48 18.71,-10.57 18.90,-10.67 19.11,-10.69 19.32,-10.72 19.53,-10.68 19.74,-10.64 19.93,-10.54 20.11,-10.43 20.25,-10.27 20.39,-10.12 20.48,-9.92 20.56,-9.73 20.58,-9.51 20.60,-9.30 20.54,-9.10 20.49,-8.89 20.38,-8.71 20.26,-8.53 20.10,-8.40 19.93,-8.27 19.73,-8.19 19.53,-8.12 19.32,-8.11 19.11,-8.11 18.91,-8.17 18.70,-8.23 18.53,-8.36 18.36,-8.48 18.23,-8.65 18.11,-8.83 18.05,-9.03 17.99,-9.23 17.99,-9.44 18.00,-9.66 18.07,-9.86 18.14,-10.06 18.28,-10.22 18.41,-10.39 18.59,-10.50 18.77,-10.62 18.97,-10.67 19.18,-10.72 19.39,-10.70 19.60,-10.68 19.80,-10.60 19.99,-10.52 20.15,-10.37 20.31,-10.23 20.42,-10.05 20.52,-9.86 20.56,-9.65 20.60,-9.44 20.57,-9.23 20.54,-9.02 20.45,-8.83 20.35,-8.64 20.35,-8.64 20.35,-8.64 19.05,-6.37 17.75,-4.10 16.40,-1.08 15.05,1.93 14.16,5.52 13.26,9.11 12.57,12.30 11.88,15.49 10.60,18.17 9.33,20.85 7.07,19.67 4.82,18.49 4.14,16.90 3.46,15.30 2.31,12.95 1.16,10.60 0.16,7.93 -0.83,5.26 -1.25,2.88 -1.68,0.50 -1.71,0.29 -1.75,0.08 -1.73,-0.12 -1.72,-0.33 -1.65,-0.53 -1.59,-0.73 -1.48,-0.91 -1.36,-1.09 -1.21,-1.24 -1.06,-1.39 -0.88,-1.49 -0.70,-1.60 -0.50,-1.66 -0.29,-1.72 -0.08,-1.73 0.12,-1.74 0.33,-1.70 0.53,-1.66 0.73,-1.58 0.92,-1.49 1.08,-1.35 1.25,-1.22 1.38,-1.05 1.51,-0.89 1.59,-0.69 1.68,-0.50 1.68,-0.50 L 1.68,-0.50 Z"></path></g><g transform="translate(1138 672.6125030517578) rotate(0 5.20001220703125 4.399993896484375)" stroke="none"><path fill="#000" d="M -1.64,-0.98 Q -1.64,-0.98 -0.99,-2.16 -0.34,-3.33 1.09,-3.52 2.53,-3.70 1.31,-1.27 0.10,1.15 -0.15,3.10 -0.42,5.04 -0.12,6.76 0.17,8.47 0.93,9.53 1.70,10.59 3.16,10.95 4.62,11.32 6.37,10.78 8.12,10.24 10.11,9.56 12.10,8.89 12.31,8.82 12.51,8.76 12.72,8.76 12.93,8.76 13.13,8.83 13.33,8.90 13.50,9.03 13.67,9.16 13.79,9.34 13.90,9.52 13.96,9.72 14.01,9.93 14.00,10.14 13.98,10.35 13.90,10.55 13.82,10.74 13.68,10.90 13.54,11.06 13.36,11.17 13.18,11.28 12.97,11.32 12.76,11.37 12.55,11.34 12.34,11.31 12.15,11.22 11.95,11.13 11.80,10.98 11.65,10.84 11.55,10.65 11.45,10.46 11.42,10.25 11.39,10.04 11.43,9.83 11.46,9.62 11.57,9.43 11.67,9.25 11.82,9.10 11.98,8.96 12.17,8.87 12.37,8.78 12.58,8.76 12.79,8.74 13.00,8.79 13.21,8.84 13.39,8.95 13.57,9.06 13.70,9.23 13.84,9.39 13.91,9.59 13.99,9.79 14.00,10.00 14.01,10.21 13.95,10.42 13.89,10.62 13.77,10.79 13.65,10.97 13.48,11.10 13.30,11.22 13.30,11.22 13.30,11.22 11.25,12.63 9.20,14.03 6.45,14.76 3.69,15.49 1.03,14.51 -1.61,13.54 -2.96,11.44 -4.30,9.34 -4.63,6.87 -4.96,4.40 -4.55,1.92 -4.13,-0.54 -3.08,-2.84 -2.04,-5.13 -1.08,-5.97 -0.11,-6.81 1.77,-6.15 3.67,-5.49 3.39,-3.38 3.10,-1.26 2.37,-0.13 1.64,0.98 1.50,1.17 1.36,1.35 1.18,1.49 0.99,1.63 0.78,1.73 0.57,1.83 0.34,1.87 0.12,1.91 -0.10,1.90 -0.33,1.88 -0.56,1.82 -0.78,1.75 -0.98,1.63 -1.17,1.51 -1.34,1.35 -1.50,1.18 -1.62,0.99 -1.74,0.79 -1.81,0.57 -1.88,0.35 -1.90,0.12 -1.91,-0.10 -1.87,-0.33 -1.83,-0.56 -1.74,-0.77 -1.64,-0.98 -1.64,-0.98 L -1.64,-0.98 Z"></path></g><g transform="translate(532.4000244140625 743.8124847412109) rotate(0 0.00004999999999988347 0.00005000000000165983)" stroke="none"><path fill="#000" d="M 1.57,-1.57 Q 1.57,-1.57 1.77,-1.27 1.98,-0.98 2.09,-0.64 2.20,-0.29 2.19,0.05 2.18,0.41 2.05,0.75 1.93,1.09 1.70,1.37 1.48,1.65 1.18,1.84 0.87,2.04 0.52,2.12 0.18,2.21 -0.17,2.18 -0.53,2.15 -0.86,2.01 -1.19,1.87 -1.46,1.63 -1.73,1.39 -1.90,1.07 -2.08,0.76 -2.15,0.41 -2.21,0.05 -2.17,-0.29 -2.12,-0.65 -1.96,-0.97 -1.80,-1.29 -1.54,-1.54 -1.29,-1.80 -0.97,-1.96 -0.65,-2.12 -0.29,-2.17 0.06,-2.21 0.41,-2.15 0.76,-2.08 1.07,-1.90 1.39,-1.73 1.63,-1.46 1.87,-1.19 2.01,-0.86 2.15,-0.53 2.18,-0.17 2.21,0.18 2.12,0.52 2.03,0.87 1.84,1.18 1.65,1.48 1.37,1.70 1.09,1.93 0.75,2.05 0.41,2.18 0.05,2.19 -0.30,2.20 -0.64,2.09 -0.98,1.98 -1.27,1.77 -1.57,1.56 -1.57,1.57 -1.57,1.57 -1.73,1.35 -1.90,1.14 -2.01,0.90 -2.12,0.66 -2.16,0.39 -2.21,0.13 -2.20,-0.13 -2.18,-0.40 -2.10,-0.65 -2.02,-0.91 -1.88,-1.14 -1.74,-1.36 -1.55,-1.55 -1.36,-1.74 -1.14,-1.88 -0.91,-2.02 -0.65,-2.10 -0.40,-2.18 -0.13,-2.20 0.13,-2.21 0.39,-2.16 0.66,-2.12 0.90,-2.01 1.14,-1.90 1.35,-1.73 1.57,-1.57 1.57,-1.57 L 1.57,-1.57 Z"></path></g></svg>