<svg version="1.1" xmlns="http://www.w3.org/2000/svg" viewBox="0 0 10020 783.4125061035156" width="10020" height="783.4125061035156">
  <!-- svg-source:excalidraw -->
  
  <defs>
    <style>
      @font-face {
        font-family: "Virgil";
        src: url("https://excalidraw.com/Virgil.woff2");
      }
      @font-face {
        font-family: "Cascadia";
        src: url("https://excalidraw.com/Cascadia.woff2");
      }
    </style>
  </defs>
  <rect x="0" y="0" width="10020" height="783.4125061035156" fill="#fff0"></rect><g stroke-linecap="round" transform="translate(10 10) rotate(0 5000 0.5)"><path d="M-0.52 -0.26 C3022.65 -30.2, 6044.59 -29.2, 9999.32 0.22 M0.38 -0.31 C3948.03 -0.44, 7895.41 0.2, 9999.95 0.08 M10000.08 -0.06 C10000.09 0.27, 10000.05 0.48, 10000.09 0.92 M9999.97 0.01 C9999.95 0.33, 9999.98 0.72, 10000 0.99 M10000.22 1.51 C7095.77 35.76, 4193.15 34.95, -0.25 0.75 M10000.01 1.13 C7827.97 2.74, 5656.23 3.35, -0.33 0.84 M-0.04 1.01 C0 0.63, -0.06 0.15, 0.05 -0.03 M-0.04 0.95 C-0.04 0.73, -0.03 0.59, -0.05 -0.02" stroke="transparent" stroke-width="1" fill="none"></path></g><g transform="translate(533.2000122070312 543.0125122070312) rotate(0 -4.399993896484375 11.199981689453125)" stroke="none"><path fill="#000" d="M -1.48,0.37 Q -1.48,0.37 -1.77,-0.53 -2.06,-1.43 -2.17,-2.51 -2.27,-3.58 -1.10,-3.41 0.06,-3.23 -0.30,-1.90 -0.66,-0.56 -1.24,1.80 -1.83,4.18 -2.29,7.17 -2.75,10.17 -3.43,13.37 -4.10,16.58 -4.36,19.19 -4.63,21.80 -7.00,23.90 -9.37,26.01 -9.52,25.85 -9.66,25.70 -9.75,25.51 -9.84,25.31 -9.86,25.10 -9.89,24.89 -9.84,24.68 -9.80,24.48 -9.69,24.29 -9.58,24.11 -9.41,23.97 -9.25,23.84 -9.05,23.76 -8.86,23.68 -8.65,23.67 -8.43,23.66 -8.23,23.71 -8.02,23.77 -7.85,23.89 -7.67,24.01 -7.54,24.18 -7.41,24.35 -7.35,24.55 -7.28,24.75 -7.28,24.96 -7.28,25.17 -7.35,25.38 -7.42,25.58 -7.54,25.75 -7.67,25.92 -7.85,26.04 -8.02,26.15 -8.23,26.21 -8.43,26.27 -8.65,26.26 -8.86,26.24 -9.06,26.17 -9.25,26.09 -9.41,25.95 -9.58,25.81 -9.69,25.63 -9.80,25.45 -9.84,25.24 -9.89,25.03 -9.86,24.82 -9.84,24.61 -9.75,24.42 -9.66,24.22 -9.52,24.07 -9.37,23.92 -9.18,23.82 -8.99,23.72 -8.78,23.68 -8.57,23.65 -8.37,23.68 -8.16,23.72 -7.97,23.82 -7.78,23.92 -7.78,23.92 -7.78,23.92 -8.35,22.63 -8.92,21.35 -8.62,18.52 -8.31,15.69 -7.64,12.59 -6.98,9.49 -6.46,6.31 -5.93,3.13 -5.28,0.71 -4.63,-1.69 -3.58,-3.71 -2.52,-5.74 -0.86,-5.14 0.79,-4.55 0.97,-3.39 1.14,-2.24 1.31,-1.30 1.48,-0.37 1.50,-0.18 1.53,-0.00 1.50,0.17 1.48,0.36 1.42,0.53 1.35,0.70 1.25,0.85 1.14,1.01 1.01,1.13 0.87,1.25 0.71,1.34 0.54,1.42 0.36,1.47 0.18,1.51 0.00,1.51 -0.17,1.52 -0.35,1.47 -0.53,1.43 -0.70,1.34 -0.86,1.26 -1.00,1.14 -1.14,1.01 -1.24,0.86 -1.35,0.71 -1.41,0.54 -1.48,0.37 -1.48,0.37 L -1.48,0.37 Z"></path></g><g transform="translate(513.2000122070312 538.2124938964844) rotate(0 15.20001220703125 13.199996948242188)" stroke="none"><path fill="#000" d="M -0.68,-1.63 Q -0.68,-1.63 2.04,-2.87 4.77,-4.11 7.77,-4.66 10.76,-5.22 13.60,-4.97 16.45,-4.72 18.83,-3.57 21.21,-2.42 22.86,-0.32 24.52,1.78 25.24,4.62 25.95,7.47 24.52,11.11 23.09,14.75 20.66,17.07 18.23,19.40 15.67,20.66 13.11,21.92 11.42,22.43 9.74,22.94 8.11,22.44 6.48,21.93 6.31,20.12 6.14,18.32 8.47,17.43 10.81,16.54 12.83,16.95 14.86,17.36 17.44,18.79 20.02,20.21 21.98,21.49 23.94,22.78 25.28,23.82 26.62,24.86 27.53,25.48 28.44,26.11 29.56,27.51 30.68,28.92 30.82,29.08 30.96,29.24 31.04,29.44 31.12,29.64 31.13,29.85 31.15,30.06 31.09,30.27 31.04,30.47 30.92,30.65 30.80,30.83 30.63,30.96 30.47,31.09 30.26,31.16 30.06,31.23 29.85,31.23 29.64,31.23 29.44,31.16 29.24,31.10 29.06,30.97 28.89,30.84 28.77,30.67 28.65,30.50 28.59,30.29 28.54,30.09 28.54,29.87 28.55,29.66 28.63,29.46 28.71,29.27 28.84,29.10 28.98,28.94 29.16,28.83 29.34,28.72 29.55,28.67 29.76,28.62 29.97,28.64 30.18,28.66 30.37,28.75 30.57,28.84 30.72,28.98 30.88,29.13 30.98,29.31 31.08,29.50 31.12,29.71 31.15,29.92 31.12,30.13 31.09,30.34 30.99,30.53 30.89,30.72 30.74,30.86 30.59,31.01 30.39,31.10 30.20,31.19 29.99,31.22 29.78,31.24 29.57,31.20 29.36,31.16 29.18,31.05 29.00,30.94 29.00,30.94 29.00,30.94 27.59,30.25 26.19,29.56 25.10,28.88 24.02,28.20 22.82,27.26 21.62,26.32 19.77,25.10 17.93,23.89 15.88,22.68 13.84,21.47 12.55,21.10 11.27,20.73 9.95,20.90 8.63,21.08 8.77,19.99 8.92,18.89 10.12,18.48 11.32,18.08 13.38,17.18 15.45,16.27 17.40,14.60 19.36,12.93 20.67,10.40 21.99,7.88 21.59,5.96 21.18,4.04 20.21,2.51 19.24,0.98 17.60,0.08 15.96,-0.82 13.68,-1.07 11.40,-1.33 8.83,-0.91 6.26,-0.48 3.47,0.57 0.68,1.63 0.47,1.69 0.27,1.75 0.05,1.75 -0.15,1.76 -0.36,1.72 -0.57,1.67 -0.76,1.58 -0.95,1.49 -1.12,1.35 -1.28,1.21 -1.41,1.04 -1.54,0.87 -1.62,0.67 -1.70,0.47 -1.73,0.26 -1.77,0.05 -1.75,-0.15 -1.73,-0.36 -1.66,-0.57 -1.59,-0.77 -1.47,-0.95 -1.36,-1.13 -1.20,-1.27 -1.05,-1.42 -0.86,-1.53 -0.68,-1.63 -0.68,-1.63 L -0.68,-1.63 Z"></path></g><g transform="translate(548.4000244140625 561.4125061035156) rotate(0 21.199981689453125 2.79998779296875)" stroke="none"><path fill="#000" d="M -1.71,-0.57 Q -1.71,-0.57 -1.34,-1.97 -0.97,-3.38 -0.71,-4.74 -0.45,-6.10 0.48,-5.42 1.41,-4.73 0.65,-2.67 -0.11,-0.60 -0.32,0.93 -0.52,2.47 -0.53,3.66 -0.54,4.85 0.56,5.46 1.67,6.07 2.91,6.39 4.15,6.70 5.48,6.05 6.81,5.40 8.31,4.34 9.81,3.29 11.05,1.80 12.30,0.31 13.20,-1.17 14.11,-2.67 13.96,-2.52 13.81,-2.37 13.93,-2.60 14.06,-2.83 14.24,-3.02 14.42,-3.22 14.64,-3.36 14.87,-3.50 15.11,-3.59 15.36,-3.68 15.63,-3.70 15.89,-3.73 16.15,-3.69 16.41,-3.65 16.66,-3.55 16.90,-3.45 17.11,-3.30 17.33,-3.14 17.50,-2.94 17.67,-2.74 17.78,-2.50 17.90,-2.26 17.96,-2.01 18.01,-1.75 18.01,-1.48 18.00,-1.22 17.93,-0.97 17.86,-0.71 18.05,1.29 18.25,3.30 18.48,4.96 18.71,6.63 18.80,8.21 18.89,9.79 19.19,10.21 19.50,10.63 19.48,10.91 19.47,11.18 19.39,11.45 19.31,11.71 19.17,11.94 19.03,12.18 18.83,12.37 18.64,12.57 18.41,12.71 18.17,12.86 17.91,12.94 17.65,13.02 17.38,13.04 17.10,13.06 16.83,13.01 16.56,12.96 16.31,12.85 16.06,12.74 15.84,12.57 15.63,12.40 15.46,12.19 15.29,11.97 15.17,11.72 15.06,11.47 15.01,11.20 14.96,10.93 15.61,9.73 16.26,8.53 16.92,7.24 17.57,5.96 18.35,4.24 19.13,2.51 21.39,0.57 23.65,-1.37 24.83,-0.86 26.01,-0.36 26.93,2.07 27.85,4.51 28.10,6.16 28.35,7.81 29.83,5.58 31.32,3.34 32.80,2.24 34.29,1.14 35.87,1.47 37.45,1.80 38.29,3.52 39.14,5.24 39.74,6.90 40.34,8.55 41.33,9.11 42.31,9.67 43.30,9.28 44.29,8.88 44.48,8.80 44.68,8.71 44.89,8.69 45.10,8.67 45.31,8.72 45.51,8.77 45.69,8.88 45.88,8.99 46.01,9.15 46.15,9.32 46.22,9.51 46.30,9.71 46.31,9.93 46.32,10.14 46.26,10.34 46.20,10.55 46.08,10.72 45.95,10.89 45.78,11.02 45.61,11.15 45.41,11.21 45.21,11.28 45.00,11.28 44.78,11.27 44.58,11.20 44.38,11.13 44.22,11.00 44.05,10.87 43.93,10.69 43.81,10.52 43.76,10.31 43.71,10.11 43.72,9.89 43.73,9.68 43.81,9.48 43.90,9.29 44.04,9.13 44.17,8.97 44.36,8.86 44.54,8.75 44.75,8.71 44.96,8.67 45.17,8.69 45.38,8.72 45.57,8.81 45.76,8.90 45.92,9.05 46.07,9.20 46.17,9.39 46.26,9.58 46.29,9.79 46.33,10.00 46.29,10.21 46.25,10.41 46.15,10.60 46.05,10.79 45.89,10.93 45.74,11.08 45.74,11.08 45.74,11.08 44.08,12.42 42.43,13.77 40.61,13.42 38.79,13.08 37.47,11.67 36.15,10.27 35.46,8.43 34.77,6.58 35.38,5.70 35.99,4.81 35.25,5.57 34.50,6.33 33.04,7.93 31.58,9.53 30.12,11.03 28.66,12.52 27.35,12.50 26.05,12.47 24.92,10.47 23.79,8.46 23.53,6.43 23.26,4.40 22.41,6.27 21.56,8.14 20.53,9.39 19.50,10.63 19.48,10.91 19.47,11.18 19.39,11.45 19.31,11.71 19.17,11.94 19.03,12.18 18.84,12.37 18.64,12.57 18.41,12.71 18.17,12.86 17.91,12.94 17.65,13.02 17.38,13.04 17.10,13.06 16.83,13.01 16.56,12.96 16.31,12.85 16.06,12.74 15.84,12.57 15.63,12.40 15.46,12.19 15.29,11.97 15.17,11.72 15.06,11.47 15.01,11.20 14.96,10.93 14.77,10.80 14.58,10.67 14.38,8.95 14.18,7.23 13.93,5.29 13.69,3.36 13.67,1.87 13.66,0.37 13.73,-0.99 13.81,-2.37 13.93,-2.60 14.06,-2.83 14.24,-3.02 14.42,-3.22 14.64,-3.36 14.87,-3.50 15.11,-3.59 15.36,-3.68 15.63,-3.70 15.89,-3.73 16.15,-3.69 16.41,-3.65 16.66,-3.55 16.90,-3.45 17.11,-3.30 17.33,-3.14 17.50,-2.94 17.67,-2.74 17.78,-2.50 17.90,-2.26 17.96,-2.01 18.01,-1.75 18.01,-1.48 18.00,-1.22 17.93,-0.97 17.86,-0.71 17.36,0.10 16.87,0.91 16.18,1.97 15.48,3.02 13.88,4.87 12.28,6.71 10.32,8.10 8.37,9.48 5.91,10.24 3.46,11.01 1.19,10.32 -1.07,9.63 -2.81,7.89 -4.55,6.14 -4.76,3.95 -4.97,1.76 -4.57,-0.32 -4.17,-2.41 -3.37,-4.08 -2.56,-5.75 -0.76,-7.13 1.03,-8.50 2.15,-6.49 3.27,-4.48 3.04,-3.30 2.81,-2.13 2.26,-0.78 1.71,0.57 1.62,0.76 1.52,0.96 1.39,1.13 1.25,1.30 1.07,1.43 0.90,1.56 0.70,1.65 0.50,1.73 0.28,1.77 0.07,1.80 -0.14,1.78 -0.36,1.77 -0.56,1.70 -0.77,1.63 -0.95,1.51 -1.14,1.40 -1.29,1.24 -1.44,1.08 -1.55,0.89 -1.66,0.70 -1.72,0.49 -1.78,0.29 -1.79,0.07 -1.80,-0.14 -1.75,-0.35 -1.71,-0.57 -1.71,-0.57 L -1.71,-0.57 Z"></path></g><g transform="translate(606.7999877929688 533.4125061035156) rotate(0 0.800018310546875 29.199996948242188)" stroke="none"><path fill="#000" d="M 1.38,1.04 Q 1.38,1.04 0.92,2.13 0.45,3.21 -0.09,4.21 -0.63,5.21 -0.93,6.40 -1.23,7.58 -1.51,10.92 -1.79,14.26 -2.16,18.27 -2.53,22.29 -2.68,26.45 -2.84,30.61 -1.59,37.20 -0.34,43.79 0.38,47.13 1.12,50.47 1.74,52.12 2.35,53.78 3.43,54.52 4.50,55.25 5.75,56.08 7.00,56.90 7.18,57.01 7.36,57.12 7.50,57.28 7.64,57.45 7.71,57.64 7.79,57.84 7.80,58.05 7.81,58.27 7.76,58.47 7.70,58.67 7.58,58.85 7.46,59.03 7.29,59.15 7.12,59.28 6.92,59.35 6.72,59.42 6.50,59.41 6.29,59.41 6.09,59.35 5.89,59.28 5.72,59.15 5.55,59.02 5.43,58.84 5.31,58.67 5.26,58.46 5.20,58.26 5.21,58.04 5.23,57.83 5.31,57.63 5.39,57.44 5.52,57.28 5.66,57.11 5.85,57.01 6.03,56.90 6.24,56.85 6.44,56.81 6.65,56.83 6.87,56.85 7.06,56.94 7.25,57.03 7.40,57.18 7.56,57.33 7.66,57.52 7.76,57.70 7.79,57.91 7.82,58.12 7.79,58.33 7.75,58.54 7.65,58.73 7.55,58.92 7.40,59.06 7.24,59.21 7.05,59.30 6.85,59.39 6.64,59.41 6.43,59.43 6.23,59.38 6.02,59.34 6.02,59.34 6.02,59.34 4.15,58.91 2.29,58.47 0.39,57.14 -1.50,55.81 -2.47,53.67 -3.44,51.54 -4.28,48.13 -5.12,44.71 -6.50,37.58 -7.87,30.44 -7.69,26.13 -7.52,21.81 -7.11,17.78 -6.71,13.75 -6.25,10.06 -5.80,6.38 -5.45,5.11 -5.10,3.84 -4.16,2.15 -3.21,0.46 -2.30,-0.29 -1.38,-1.04 -1.24,-1.19 -1.09,-1.34 -0.92,-1.45 -0.74,-1.56 -0.54,-1.63 -0.34,-1.70 -0.14,-1.71 0.06,-1.73 0.27,-1.70 0.48,-1.66 0.67,-1.58 0.86,-1.50 1.03,-1.37 1.20,-1.25 1.33,-1.09 1.46,-0.92 1.55,-0.74 1.64,-0.55 1.68,-0.34 1.73,-0.14 1.72,0.06 1.71,0.27 1.65,0.47 1.59,0.67 1.49,0.86 1.38,1.04 1.38,1.04 L 1.38,1.04 Z"></path></g><g transform="translate(638 545.4125061035156) rotate(0 -2.79998779296875 4.79998779296875)" stroke="none"><path fill="#000" d="M -1.30,1.08 Q -1.30,1.08 -2.52,-0.10 -3.74,-1.30 -5.09,-0.66 -6.43,-0.01 -7.46,1.04 -8.48,2.10 -9.01,3.65 -9.54,5.19 -9.68,6.50 -9.82,7.81 -7.82,8.25 -5.82,8.70 -4.39,7.98 -2.96,7.25 -1.54,5.76 -0.12,4.27 0.40,2.92 0.93,1.56 1.32,0.55 1.70,-0.45 1.82,-0.70 1.93,-0.94 2.10,-1.14 2.27,-1.35 2.48,-1.51 2.70,-1.67 2.94,-1.77 3.19,-1.87 3.45,-1.92 3.71,-1.96 3.98,-1.94 4.25,-1.91 4.50,-1.83 4.75,-1.74 4.98,-1.60 5.20,-1.46 5.38,-1.26 5.57,-1.07 5.70,-0.84 5.83,-0.61 5.91,-0.35 5.98,-0.10 5.99,0.16 6.00,0.43 5.95,0.69 5.89,0.95 6.07,2.70 6.24,4.46 6.26,5.92 6.27,7.39 6.69,8.62 7.10,9.85 6.99,11.09 6.87,12.32 7.09,12.32 7.30,12.32 7.50,12.39 7.70,12.45 7.87,12.58 8.04,12.71 8.16,12.89 8.28,13.06 8.33,13.27 8.39,13.47 8.38,13.68 8.37,13.90 8.29,14.09 8.21,14.29 8.07,14.45 7.93,14.61 7.75,14.72 7.57,14.83 7.36,14.88 7.15,14.92 6.94,14.90 6.73,14.88 6.54,14.79 6.35,14.70 6.19,14.55 6.04,14.41 5.94,14.22 5.84,14.03 5.81,13.82 5.77,13.61 5.81,13.40 5.84,13.19 5.94,13.00 6.04,12.82 6.19,12.67 6.35,12.53 6.54,12.44 6.74,12.35 6.95,12.32 7.16,12.30 7.37,12.35 7.57,12.39 7.75,12.50 7.94,12.61 8.07,12.78 8.21,12.94 8.29,13.13 8.37,13.33 8.38,13.54 8.39,13.76 8.33,13.96 8.28,14.17 8.16,14.34 8.04,14.52 7.87,14.65 7.70,14.77 7.50,14.84 7.30,14.91 7.30,14.91 7.30,14.91 5.00,13.04 2.71,11.18 2.20,9.32 1.69,7.47 1.68,6.01 1.68,4.54 1.67,3.32 1.65,2.09 1.68,0.81 1.70,-0.45 1.82,-0.69 1.93,-0.94 2.10,-1.14 2.27,-1.35 2.48,-1.51 2.70,-1.67 2.94,-1.77 3.19,-1.87 3.45,-1.92 3.71,-1.96 3.98,-1.94 4.25,-1.91 4.50,-1.83 4.75,-1.74 4.98,-1.60 5.20,-1.46 5.38,-1.26 5.57,-1.07 5.70,-0.84 5.83,-0.61 5.91,-0.35 5.98,-0.10 5.99,0.16 6.00,0.43 5.95,0.69 5.89,0.95 5.72,1.13 5.55,1.30 5.21,2.31 4.87,3.32 3.92,5.28 2.97,7.24 0.90,9.21 -1.16,11.18 -3.60,12.11 -6.04,13.04 -8.49,12.60 -10.93,12.17 -12.40,10.48 -13.87,8.78 -13.81,6.17 -13.74,3.56 -12.71,1.28 -11.69,-0.99 -10.12,-2.42 -8.56,-3.85 -6.54,-4.67 -4.52,-5.50 -2.68,-4.85 -0.85,-4.21 0.22,-2.65 1.30,-1.08 1.41,-0.91 1.52,-0.74 1.59,-0.55 1.66,-0.35 1.68,-0.15 1.70,0.05 1.66,0.25 1.63,0.45 1.55,0.64 1.48,0.83 1.35,1.00 1.23,1.16 1.08,1.29 0.92,1.42 0.73,1.51 0.55,1.60 0.35,1.65 0.15,1.69 -0.05,1.68 -0.25,1.68 -0.45,1.62 -0.65,1.57 -0.82,1.47 -1.00,1.36 -1.15,1.22 -1.30,1.08 -1.30,1.08 L -1.30,1.08 Z"></path></g><g transform="translate(652.4000244140625 539.0125122070312) rotate(0 11.600006103515625 10.399993896484375)" stroke="none"><path fill="#000" d="M 1.78,-0.97 Q 1.78,-0.97 3.28,1.48 4.77,3.95 6.64,6.23 8.50,8.51 11.29,11.03 14.07,13.55 16.29,15.06 18.51,16.56 20.47,17.30 22.43,18.03 22.65,18.01 22.86,18.00 23.06,18.05 23.27,18.10 23.45,18.22 23.63,18.33 23.76,18.50 23.89,18.67 23.96,18.87 24.03,19.07 24.04,19.28 24.04,19.49 23.98,19.70 23.91,19.90 23.79,20.07 23.66,20.24 23.49,20.36 23.31,20.49 23.11,20.55 22.91,20.61 22.69,20.60 22.48,20.59 22.28,20.52 22.08,20.44 21.92,20.31 21.75,20.17 21.64,19.99 21.53,19.81 21.48,19.61 21.43,19.40 21.45,19.19 21.47,18.98 21.55,18.78 21.64,18.59 21.78,18.43 21.93,18.27 22.11,18.17 22.30,18.07 22.51,18.03 22.72,17.99 22.93,18.02 23.14,18.05 23.33,18.15 23.52,18.24 23.66,18.40 23.81,18.55 23.91,18.74 24.00,18.93 24.03,19.14 24.05,19.35 24.01,19.56 23.97,19.77 23.86,19.95 23.76,20.14 23.60,20.28 23.44,20.42 23.24,20.50 23.05,20.58 23.05,20.58 23.05,20.58 19.54,20.46 16.03,20.33 13.48,18.66 10.93,17.00 7.90,14.21 4.87,11.43 2.81,8.79 0.74,6.16 -0.52,3.57 -1.78,0.97 -1.87,0.74 -1.97,0.51 -2.00,0.27 -2.03,0.03 -2.01,-0.21 -1.98,-0.45 -1.90,-0.68 -1.81,-0.91 -1.68,-1.12 -1.54,-1.32 -1.36,-1.49 -1.18,-1.65 -0.96,-1.77 -0.75,-1.89 -0.51,-1.95 -0.27,-2.01 -0.03,-2.02 0.21,-2.02 0.45,-1.97 0.69,-1.91 0.91,-1.80 1.13,-1.69 1.31,-1.53 1.50,-1.37 1.64,-1.17 1.78,-0.97 1.78,-0.97 L 1.78,-0.97 Z"></path></g><g transform="translate(670.7999877929688 540.6124877929688) rotate(0 -7.5999755859375 12.400009155273438)" stroke="none"><path fill="#000" d="M 1.70,1.13 Q 1.70,1.13 0.42,3.27 -0.84,5.41 -3.01,8.82 -5.18,12.23 -7.06,14.87 -8.94,17.52 -10.16,19.46 -11.38,21.41 -12.23,22.92 -13.08,24.43 -13.12,24.64 -13.15,24.85 -13.25,25.04 -13.35,25.23 -13.50,25.38 -13.65,25.52 -13.84,25.61 -14.04,25.70 -14.25,25.73 -14.46,25.75 -14.67,25.71 -14.87,25.67 -15.06,25.56 -15.24,25.45 -15.38,25.29 -15.52,25.13 -15.60,24.93 -15.68,24.74 -15.69,24.52 -15.70,24.31 -15.65,24.11 -15.59,23.90 -15.48,23.72 -15.36,23.55 -15.19,23.42 -15.02,23.29 -14.82,23.22 -14.62,23.15 -14.41,23.15 -14.20,23.14 -13.99,23.21 -13.79,23.28 -13.62,23.40 -13.45,23.53 -13.33,23.71 -13.21,23.88 -13.15,24.09 -13.09,24.29 -13.10,24.50 -13.11,24.71 -13.19,24.91 -13.27,25.11 -13.40,25.27 -13.54,25.44 -13.72,25.55 -13.90,25.66 -14.11,25.71 -14.32,25.75 -14.53,25.73 -14.74,25.71 -14.93,25.62 -15.13,25.54 -15.28,25.39 -15.44,25.25 -15.54,25.06 -15.64,24.87 -15.68,24.66 -15.71,24.45 -15.71,24.45 -15.71,24.45 -15.52,21.72 -15.32,18.99 -14.05,16.89 -12.77,14.79 -10.94,12.24 -9.12,9.68 -6.90,6.27 -4.67,2.86 -3.18,0.86 -1.70,-1.13 -1.54,-1.32 -1.38,-1.50 -1.17,-1.65 -0.97,-1.79 -0.75,-1.88 -0.52,-1.97 -0.27,-2.01 -0.03,-2.04 0.21,-2.01 0.45,-1.99 0.68,-1.90 0.92,-1.82 1.12,-1.68 1.33,-1.55 1.49,-1.37 1.66,-1.18 1.78,-0.97 1.89,-0.75 1.96,-0.51 2.02,-0.27 2.02,-0.03 2.03,0.21 1.97,0.45 1.92,0.69 1.81,0.91 1.70,1.13 1.70,1.13 L 1.70,1.13 Z"></path></g><g transform="translate(686.7999877929688 538.2124938964844) rotate(0 2.000030517578125 15.600006103515625)" stroke="none"><path fill="#000" d="M 1.78,0.25 Q 1.78,0.25 1.61,3.51 1.44,6.77 1.27,10.11 1.10,13.45 1.02,17.40 0.94,21.35 0.67,24.06 0.40,26.77 0.29,28.11 0.18,29.46 0.11,29.74 0.05,30.03 -0.07,30.29 -0.20,30.55 -0.39,30.77 -0.58,31.00 -0.82,31.17 -1.06,31.34 -1.33,31.45 -1.60,31.56 -1.89,31.60 -2.18,31.64 -2.47,31.61 -2.76,31.58 -3.04,31.48 -3.31,31.38 -3.56,31.22 -3.80,31.06 -4.00,30.84 -4.20,30.63 -4.34,30.37 -4.48,30.12 -4.56,29.83 -4.63,29.55 -4.64,29.26 -4.64,28.97 -4.38,26.99 -4.13,25.02 -2.44,22.54 -0.75,20.06 1.05,18.72 2.85,17.39 4.57,16.78 6.29,16.18 8.20,16.74 10.11,17.30 10.96,19.28 11.81,21.27 11.00,23.14 10.19,25.01 8.20,26.54 6.21,28.08 3.83,28.96 1.46,29.85 -0.41,30.35 -2.29,30.85 -3.75,31.07 -5.22,31.30 -5.42,31.35 -5.63,31.41 -5.84,31.40 -6.05,31.39 -6.25,31.31 -6.44,31.23 -6.61,31.09 -6.77,30.95 -6.88,30.77 -6.99,30.59 -7.03,30.38 -7.08,30.18 -7.05,29.96 -7.03,29.75 -6.94,29.56 -6.85,29.37 -6.71,29.21 -6.56,29.06 -6.37,28.96 -6.19,28.86 -5.98,28.83 -5.77,28.79 -5.56,28.83 -5.35,28.86 -5.16,28.96 -4.97,29.06 -4.83,29.21 -4.68,29.37 -4.59,29.56 -4.50,29.75 -4.48,29.97 -4.46,30.18 -4.50,30.38 -4.55,30.59 -4.66,30.77 -4.77,30.96 -4.93,31.09 -5.09,31.23 -5.29,31.31 -5.49,31.39 -5.70,31.40 -5.91,31.41 -6.11,31.35 -6.32,31.30 -6.49,31.18 -6.67,31.06 -6.80,30.89 -6.93,30.72 -7.00,30.52 -7.06,30.32 -7.06,30.10 -7.06,29.89 -6.99,29.69 -6.93,29.49 -6.80,29.32 -6.67,29.15 -6.49,29.03 -6.32,28.91 -6.32,28.91 -6.32,28.91 -4.93,27.82 -3.54,26.73 -1.80,26.13 -0.06,25.54 1.76,24.94 3.59,24.33 4.98,23.44 6.37,22.55 7.00,21.43 7.63,20.31 6.50,20.67 5.37,21.03 4.09,21.88 2.81,22.73 1.56,24.31 0.31,25.89 0.24,27.67 0.18,29.46 0.11,29.74 0.05,30.03 -0.07,30.29 -0.20,30.55 -0.39,30.77 -0.58,31.00 -0.82,31.17 -1.06,31.34 -1.33,31.45 -1.60,31.56 -1.89,31.60 -2.18,31.64 -2.47,31.61 -2.76,31.58 -3.04,31.48 -3.31,31.38 -3.56,31.22 -3.80,31.06 -4.00,30.84 -4.20,30.63 -4.34,30.37 -4.48,30.12 -4.56,29.83 -4.63,29.55 -4.64,29.26 -4.64,28.97 -4.53,27.62 -4.42,26.28 -4.16,23.76 -3.90,21.24 -3.81,17.21 -3.72,13.17 -3.50,9.64 -3.28,6.10 -2.53,2.92 -1.78,-0.25 -1.72,-0.46 -1.67,-0.67 -1.56,-0.86 -1.46,-1.05 -1.31,-1.21 -1.16,-1.37 -0.98,-1.49 -0.80,-1.61 -0.59,-1.68 -0.39,-1.76 -0.17,-1.78 0.03,-1.80 0.25,-1.77 0.46,-1.74 0.67,-1.66 0.87,-1.57 1.04,-1.45 1.22,-1.32 1.36,-1.15 1.50,-0.99 1.60,-0.79 1.70,-0.60 1.74,-0.39 1.79,-0.17 1.79,0.03 1.78,0.25 1.78,0.25 L 1.78,0.25 Z"></path></g><g transform="translate(634 572.6124877929688) rotate(0 31.20001220703125 -0.79998779296875)" stroke="none"><path fill="#000" d="M 0,-1.95 Q 0,-1.95 2.99,-2.12 5.98,-2.29 10.01,-2.30 14.04,-2.31 18.74,-2.31 23.44,-2.31 30.46,-2.54 37.48,-2.77 42.99,-3.07 48.49,-3.38 52.24,-3.47 56.00,-3.57 57.78,-3.20 59.56,-2.83 59.77,-2.86 59.98,-2.89 60.19,-2.85 60.39,-2.81 60.58,-2.71 60.77,-2.60 60.91,-2.45 61.05,-2.29 61.13,-2.09 61.22,-1.90 61.24,-1.69 61.25,-1.47 61.20,-1.27 61.15,-1.06 61.04,-0.88 60.92,-0.70 60.76,-0.57 60.59,-0.44 60.39,-0.36 60.19,-0.29 59.98,-0.28 59.77,-0.28 59.57,-0.34 59.36,-0.40 59.19,-0.53 59.02,-0.65 58.89,-0.82 58.77,-0.99 58.71,-1.20 58.64,-1.40 58.65,-1.61 58.65,-1.83 58.73,-2.02 58.80,-2.22 58.93,-2.39 59.07,-2.56 59.24,-2.67 59.42,-2.78 59.63,-2.84 59.84,-2.89 60.05,-2.87 60.26,-2.85 60.45,-2.77 60.65,-2.69 60.81,-2.54 60.97,-2.40 61.07,-2.22 61.18,-2.03 61.22,-1.82 61.26,-1.62 61.23,-1.41 61.20,-1.20 61.11,-1.00 61.01,-0.81 60.86,-0.66 60.71,-0.51 60.52,-0.42 60.33,-0.32 60.33,-0.32 60.33,-0.32 58.25,0.22 56.16,0.78 52.46,0.96 48.75,1.15 43.20,1.50 37.64,1.85 30.54,2.08 23.44,2.31 18.74,2.31 14.04,2.31 10.01,2.30 5.98,2.29 2.99,2.12 0,1.95 -0.23,1.92 -0.46,1.90 -0.68,1.81 -0.91,1.73 -1.10,1.59 -1.29,1.46 -1.45,1.28 -1.61,1.11 -1.72,0.90 -1.83,0.69 -1.88,0.46 -1.94,0.23 -1.94,-0.00 -1.94,-0.23 -1.88,-0.46 -1.83,-0.69 -1.72,-0.90 -1.61,-1.11 -1.45,-1.28 -1.29,-1.46 -1.10,-1.60 -0.90,-1.73 -0.68,-1.81 -0.46,-1.90 -0.23,-1.93 0.00,-1.95 0.00,-1.95 L 0,-1.95 Z"></path></g><g transform="translate(667.6000366210938 583.8125) rotate(0 5.5999755859375 9.20001220703125)" stroke="none"><path fill="#000" d="M -0.25,2.00 Q -0.25,2.00 -2.11,1.96 -3.97,1.91 -5.47,3.23 -6.96,4.56 -7.59,6.57 -8.22,8.57 -8.71,10.18 -9.20,11.79 -7.43,13.01 -5.67,14.24 -3.14,14.41 -0.62,14.59 5.88,12.23 12.39,9.87 15.38,8.82 18.37,7.76 18.58,7.71 18.78,7.67 18.99,7.69 19.21,7.71 19.40,7.79 19.59,7.88 19.75,8.03 19.91,8.17 20.01,8.36 20.11,8.54 20.15,8.75 20.18,8.96 20.15,9.17 20.12,9.38 20.02,9.57 19.92,9.76 19.77,9.91 19.62,10.06 19.43,10.15 19.23,10.24 19.02,10.26 18.81,10.29 18.61,10.25 18.40,10.20 18.21,10.09 18.03,9.99 17.89,9.83 17.75,9.67 17.67,9.47 17.59,9.27 17.58,9.06 17.56,8.85 17.62,8.64 17.67,8.44 17.79,8.26 17.91,8.08 18.07,7.95 18.24,7.82 18.44,7.75 18.64,7.68 18.85,7.68 19.07,7.68 19.27,7.74 19.47,7.81 19.64,7.94 19.81,8.06 19.93,8.24 20.05,8.41 20.11,8.62 20.17,8.82 20.16,9.03 20.15,9.24 20.08,9.44 20.00,9.64 19.87,9.80 19.73,9.97 19.55,10.08 19.37,10.19 19.37,10.19 19.37,10.19 16.50,11.55 13.64,12.90 6.38,16.22 -0.87,19.53 -4.77,18.98 -8.67,18.43 -11.20,15.78 -13.73,13.14 -13.50,9.97 -13.27,6.80 -12.21,4.05 -11.15,1.31 -9.03,-0.72 -6.90,-2.76 -5.14,-2.80 -3.38,-2.83 -1.56,-2.42 0.25,-2.00 0.48,-1.94 0.72,-1.88 0.93,-1.77 1.15,-1.65 1.33,-1.49 1.51,-1.33 1.65,-1.13 1.79,-0.93 1.87,-0.70 1.96,-0.47 1.99,-0.23 2.02,0.00 1.99,0.24 1.96,0.49 1.87,0.71 1.78,0.94 1.64,1.14 1.50,1.34 1.32,1.50 1.14,1.66 0.92,1.77 0.70,1.89 0.47,1.94 0.23,2.00 -0.00,2.00 -0.25,2.00 -0.25,2.00 L -0.25,2.00 Z"></path></g><g transform="translate(703.6000366210938 543.0125122070312) rotate(0 8.39996337890625 31.199996948242188)" stroke="none"><path fill="#000" d="M 1.92,-0.68 Q 1.92,-0.68 3.33,2.43 4.75,5.56 6.82,9.78 8.89,14.00 11.38,18.81 13.87,23.62 15.69,28.84 17.52,34.07 18.31,39.01 19.10,43.94 17.90,48.93 16.70,53.91 14.81,56.77 12.93,59.64 10.88,61.14 8.83,62.64 8.65,62.76 8.48,62.88 8.27,62.94 8.07,63.00 7.86,62.99 7.65,62.98 7.45,62.91 7.25,62.83 7.09,62.70 6.92,62.56 6.81,62.38 6.70,62.20 6.65,61.99 6.60,61.79 6.62,61.57 6.64,61.36 6.73,61.17 6.82,60.98 6.96,60.82 7.10,60.66 7.29,60.56 7.48,60.46 7.69,60.42 7.89,60.38 8.10,60.42 8.31,60.45 8.50,60.55 8.69,60.64 8.84,60.79 8.99,60.95 9.08,61.14 9.17,61.33 9.20,61.54 9.22,61.75 9.18,61.96 9.14,62.17 9.03,62.35 8.92,62.54 8.76,62.68 8.60,62.81 8.41,62.90 8.21,62.98 8.00,62.99 7.79,63.01 7.58,62.95 7.38,62.90 7.20,62.78 7.02,62.66 6.89,62.50 6.76,62.33 6.69,62.13 6.62,61.93 6.62,61.71 6.61,61.50 6.68,61.30 6.74,61.10 6.87,60.93 7.00,60.76 7.00,60.76 7.00,60.76 8.20,59.10 9.40,57.44 10.72,55.08 12.03,52.73 12.96,48.68 13.89,44.62 13.19,40.21 12.49,35.80 10.81,30.93 9.12,26.06 6.61,21.18 4.10,16.30 1.97,11.81 -0.15,7.31 -1.03,4.00 -1.92,0.68 -1.97,0.44 -2.03,0.20 -2.02,-0.03 -2.02,-0.28 -1.95,-0.52 -1.89,-0.76 -1.77,-0.97 -1.65,-1.19 -1.49,-1.37 -1.32,-1.55 -1.11,-1.68 -0.91,-1.82 -0.68,-1.90 -0.44,-1.99 -0.20,-2.01 0.03,-2.04 0.28,-2.00 0.52,-1.97 0.75,-1.88 0.98,-1.78 1.18,-1.64 1.38,-1.50 1.54,-1.31 1.70,-1.12 1.81,-0.90 1.92,-0.68 1.92,-0.68 L 1.92,-0.68 Z"></path></g><g transform="translate(742 562.2124938964844) rotate(0 4.800018310546875 -0.8000030517578125)" stroke="none"><path fill="#000" d="M -0.32,-1.94 Q -0.32,-1.94 2.43,-2.43 5.18,-2.92 7.26,-2.85 9.33,-2.77 9.54,-2.77 9.76,-2.76 9.96,-2.69 10.16,-2.62 10.32,-2.48 10.49,-2.35 10.60,-2.17 10.72,-1.99 10.77,-1.79 10.82,-1.58 10.81,-1.37 10.79,-1.16 10.71,-0.96 10.62,-0.77 10.48,-0.61 10.34,-0.45 10.15,-0.35 9.97,-0.24 9.76,-0.20 9.55,-0.16 9.34,-0.19 9.13,-0.22 8.94,-0.31 8.75,-0.40 8.60,-0.55 8.45,-0.70 8.35,-0.89 8.26,-1.08 8.23,-1.29 8.20,-1.50 8.24,-1.71 8.28,-1.92 8.38,-2.11 8.49,-2.29 8.65,-2.43 8.80,-2.58 9.00,-2.66 9.19,-2.75 9.40,-2.76 9.62,-2.78 9.82,-2.73 10.03,-2.68 10.21,-2.57 10.39,-2.45 10.52,-2.29 10.66,-2.12 10.73,-1.92 10.80,-1.72 10.81,-1.51 10.82,-1.30 10.75,-1.10 10.69,-0.89 10.57,-0.72 10.44,-0.55 10.27,-0.42 10.10,-0.30 9.90,-0.23 9.69,-0.17 9.69,-0.17 9.69,-0.17 7.77,0.45 5.85,1.08 3.08,1.51 0.32,1.94 0.08,1.95 -0.15,1.96 -0.38,1.91 -0.61,1.87 -0.83,1.77 -1.04,1.67 -1.23,1.52 -1.41,1.37 -1.56,1.18 -1.70,0.99 -1.79,0.77 -1.89,0.55 -1.93,0.32 -1.97,0.08 -1.95,-0.14 -1.93,-0.38 -1.85,-0.61 -1.78,-0.83 -1.65,-1.03 -1.53,-1.24 -1.36,-1.40 -1.19,-1.57 -0.98,-1.69 -0.78,-1.81 -0.55,-1.87 -0.32,-1.94 -0.32,-1.94 L -0.32,-1.94 Z"></path></g><g transform="translate(739.6000366210938 575.0125122070312) rotate(0 6.79998779296875 -0.800018310546875)" stroke="none"><path fill="#000" d="M 0.17,-2.15 Q 0.17,-2.15 2.92,-2.05 5.66,-1.94 7.38,-2.40 9.09,-2.86 10.73,-3.08 12.37,-3.30 12.58,-3.35 12.78,-3.40 13.00,-3.38 13.21,-3.37 13.40,-3.28 13.60,-3.20 13.76,-3.06 13.92,-2.92 14.02,-2.73 14.12,-2.55 14.16,-2.34 14.20,-2.13 14.18,-1.92 14.15,-1.71 14.05,-1.52 13.96,-1.33 13.81,-1.18 13.66,-1.03 13.47,-0.93 13.28,-0.84 13.07,-0.81 12.86,-0.78 12.65,-0.82 12.44,-0.86 12.25,-0.96 12.07,-1.07 11.93,-1.23 11.79,-1.39 11.70,-1.58 11.62,-1.78 11.60,-1.99 11.58,-2.20 11.63,-2.41 11.69,-2.61 11.80,-2.79 11.91,-2.97 12.08,-3.10 12.25,-3.24 12.44,-3.31 12.64,-3.38 12.86,-3.39 13.07,-3.39 13.27,-3.33 13.48,-3.27 13.65,-3.14 13.82,-3.02 13.94,-2.85 14.07,-2.68 14.13,-2.47 14.19,-2.27 14.19,-2.06 14.18,-1.84 14.11,-1.65 14.03,-1.45 13.90,-1.28 13.77,-1.11 13.59,-1.00 13.41,-0.89 13.41,-0.89 13.41,-0.89 11.86,0.26 10.31,1.41 7.84,2.13 5.37,2.86 2.59,2.51 -0.17,2.15 -0.43,2.10 -0.69,2.05 -0.92,1.93 -1.16,1.82 -1.36,1.66 -1.56,1.49 -1.72,1.28 -1.87,1.07 -1.97,0.83 -2.07,0.59 -2.12,0.33 -2.16,0.08 -2.14,-0.17 -2.11,-0.43 -2.03,-0.68 -1.95,-0.93 -1.81,-1.15 -1.67,-1.37 -1.48,-1.55 -1.29,-1.73 -1.06,-1.86 -0.84,-1.99 -0.59,-2.06 -0.34,-2.13 -0.08,-2.14 0.17,-2.15 0.17,-2.15 L 0.17,-2.15 Z"></path></g><g transform="translate(567.6000366210938 617.4125061035156) rotate(0 -1.20001220703125 19.199996948242188)" stroke="none"><path fill="#000" d="M 1.72,0 Q 1.72,0 1.92,2.52 2.13,5.05 2.17,7.97 2.21,10.89 2.23,14.19 2.25,17.50 2.26,21.44 2.27,25.38 2.27,28.21 2.26,31.04 1.77,33.19 1.28,35.34 0.07,37.11 -1.13,38.88 -1.28,39.03 -1.43,39.18 -1.62,39.28 -1.81,39.37 -2.02,39.40 -2.23,39.43 -2.44,39.39 -2.65,39.35 -2.83,39.25 -3.02,39.15 -3.16,38.99 -3.30,38.83 -3.39,38.64 -3.47,38.44 -3.49,38.23 -3.51,38.02 -3.46,37.81 -3.41,37.60 -3.29,37.42 -3.18,37.25 -3.01,37.11 -2.85,36.98 -2.65,36.90 -2.45,36.83 -2.24,36.82 -2.03,36.82 -1.82,36.88 -1.62,36.94 -1.45,37.06 -1.27,37.19 -1.15,37.36 -1.02,37.53 -0.96,37.73 -0.90,37.94 -0.90,38.15 -0.91,38.36 -0.98,38.56 -1.05,38.76 -1.19,38.93 -1.32,39.09 -1.50,39.21 -1.68,39.32 -1.88,39.38 -2.09,39.43 -2.30,39.41 -2.51,39.39 -2.71,39.31 -2.90,39.23 -3.06,39.09 -3.22,38.95 -3.32,38.76 -3.43,38.58 -3.47,38.37 -3.51,38.16 -3.48,37.95 -3.46,37.74 -3.36,37.55 -3.27,37.36 -3.27,37.36 -3.27,37.36 -3.19,35.81 -3.12,34.26 -2.69,32.64 -2.26,31.01 -2.27,28.19 -2.27,25.38 -2.26,21.44 -2.25,17.50 -2.23,14.19 -2.21,10.89 -2.17,7.97 -2.13,5.05 -1.92,2.52 -1.72,0 -1.70,-0.20 -1.67,-0.41 -1.60,-0.60 -1.52,-0.80 -1.40,-0.97 -1.29,-1.14 -1.13,-1.28 -0.98,-1.42 -0.79,-1.51 -0.61,-1.61 -0.40,-1.66 -0.20,-1.71 0.00,-1.71 0.20,-1.71 0.41,-1.66 0.61,-1.61 0.79,-1.51 0.98,-1.42 1.13,-1.28 1.29,-1.14 1.41,-0.97 1.52,-0.80 1.60,-0.60 1.67,-0.41 1.70,-0.20 1.72,0.00 1.72,0.00 L 1.72,0 Z"></path></g><g transform="translate(560.4000244140625 615.8125) rotate(0 14 18)" stroke="none"><path fill="#000" d="M -0.19,-2.18 Q -0.19,-2.18 2.35,-2.40 4.90,-2.61 8.63,-1.75 12.35,-0.90 15.73,1.20 19.11,3.30 21.40,6.33 23.69,9.35 23.94,13.28 24.20,17.22 20.85,21.24 17.50,25.26 13.87,27.61 10.25,29.97 7.44,31.03 4.63,32.09 3.24,32.52 1.85,32.95 1.52,33.13 1.18,33.32 0.89,33.36 0.60,33.41 0.30,33.39 0.00,33.36 -0.27,33.27 -0.55,33.18 -0.80,33.02 -1.05,32.86 -1.26,32.65 -1.46,32.43 -1.61,32.18 -1.76,31.92 -1.84,31.63 -1.93,31.35 -1.94,31.05 -1.95,30.76 -1.89,30.46 -1.83,30.17 -1.71,29.91 -1.58,29.64 -1.39,29.41 -1.20,29.18 -0.97,29.00 -0.73,28.82 -0.46,28.70 -0.18,28.59 1.51,28.89 3.20,29.20 5.32,29.52 7.43,29.84 10.09,30.47 12.76,31.11 15.09,31.86 17.42,32.60 19.84,33.23 22.25,33.85 24.97,34.60 27.68,35.35 27.88,35.40 28.09,35.46 28.26,35.58 28.44,35.70 28.57,35.87 28.70,36.04 28.76,36.24 28.83,36.45 28.83,36.66 28.83,36.87 28.76,37.07 28.69,37.27 28.56,37.44 28.43,37.61 28.25,37.73 28.08,37.85 27.87,37.90 27.67,37.96 27.46,37.95 27.24,37.93 27.05,37.85 26.85,37.77 26.69,37.64 26.53,37.50 26.42,37.31 26.31,37.13 26.27,36.92 26.22,36.72 26.24,36.51 26.27,36.29 26.36,36.10 26.45,35.91 26.60,35.76 26.74,35.60 26.93,35.50 27.12,35.41 27.33,35.37 27.54,35.34 27.75,35.37 27.96,35.41 28.14,35.51 28.33,35.61 28.48,35.77 28.62,35.92 28.71,36.11 28.80,36.31 28.82,36.52 28.84,36.73 28.80,36.94 28.75,37.14 28.64,37.33 28.53,37.51 28.37,37.64 28.20,37.78 28.01,37.86 27.81,37.94 27.60,37.95 27.38,37.96 27.38,37.96 27.38,37.96 24.37,38.06 21.36,38.15 18.64,37.71 15.93,37.26 13.78,36.57 11.62,35.87 9.14,35.28 6.66,34.69 3.92,34.00 1.18,33.32 0.89,33.36 0.60,33.41 0.30,33.39 0.00,33.36 -0.27,33.27 -0.55,33.18 -0.80,33.02 -1.05,32.86 -1.26,32.65 -1.46,32.43 -1.61,32.18 -1.76,31.92 -1.84,31.63 -1.93,31.35 -1.94,31.05 -1.95,30.76 -1.89,30.46 -1.83,30.17 -1.71,29.91 -1.58,29.64 -1.39,29.41 -1.20,29.18 -0.97,29.00 -0.73,28.82 -0.46,28.70 -0.18,28.59 0.15,28.44 0.48,28.29 1.77,27.95 3.05,27.60 5.44,26.83 7.82,26.07 11.02,24.13 14.22,22.18 17.18,19.34 20.14,16.49 20.09,14.02 20.04,11.54 18.36,9.22 16.68,6.89 13.97,5.08 11.26,3.27 8.23,2.48 5.21,1.69 2.70,1.94 0.19,2.18 -0.06,2.18 -0.33,2.17 -0.58,2.10 -0.84,2.02 -1.07,1.89 -1.30,1.76 -1.49,1.58 -1.68,1.40 -1.83,1.18 -1.97,0.96 -2.06,0.71 -2.14,0.46 -2.17,0.19 -2.19,-0.06 -2.15,-0.32 -2.11,-0.59 -2.01,-0.83 -1.91,-1.07 -1.75,-1.29 -1.59,-1.50 -1.39,-1.67 -1.19,-1.84 -0.95,-1.96 -0.71,-2.07 -0.45,-2.13 -0.19,-2.18 -0.19,-2.18 L -0.19,-2.18 Z"></path></g><g transform="translate(595.6000366210938 646.2124938964844) rotate(0 24.79998779296875 5.600006103515625)" stroke="none"><path fill="#000" d="M -1.61,-1.29 Q -1.61,-1.29 -0.71,-2.43 0.18,-3.56 -0.20,-2.51 -0.58,-1.45 -0.24,1.25 0.09,3.97 1.41,5.35 2.74,6.74 4.65,7.73 6.57,8.72 8.42,8.96 10.28,9.20 12.39,8.32 14.49,7.45 15.52,6.54 16.55,5.63 17.08,4.06 17.61,2.48 17.76,2.25 17.91,2.02 18.10,1.84 18.30,1.65 18.54,1.52 18.78,1.39 19.04,1.31 19.30,1.24 19.57,1.23 19.84,1.22 20.11,1.28 20.37,1.34 20.62,1.46 20.86,1.58 21.07,1.75 21.28,1.92 21.44,2.14 21.60,2.36 21.71,2.61 21.81,2.86 21.85,3.13 21.89,3.40 21.87,3.67 21.84,3.94 21.75,4.20 21.66,4.46 22.28,5.39 22.90,6.33 23.45,8.16 24.01,10.00 24.49,11.77 24.98,13.54 25.41,14.51 25.84,15.48 25.89,15.79 25.93,16.10 25.90,16.41 25.87,16.72 25.77,17.01 25.67,17.30 25.50,17.56 25.33,17.82 25.10,18.03 24.87,18.25 24.60,18.40 24.33,18.55 24.03,18.63 23.73,18.71 23.42,18.72 23.11,18.73 22.80,18.66 22.50,18.59 22.22,18.45 21.94,18.32 21.71,18.12 21.47,17.92 21.29,17.66 21.10,17.41 20.99,17.12 20.87,16.84 21.54,15.20 22.22,13.57 22.94,12.00 23.67,10.43 24.79,8.44 25.90,6.46 27.39,4.86 28.89,3.27 30.64,3.07 32.39,2.87 33.76,3.97 35.14,5.08 36.04,6.54 36.95,8.00 38.77,6.97 40.59,5.94 41.88,4.82 43.18,3.70 44.87,2.84 46.56,1.98 48.05,1.81 49.54,1.64 51.67,2.93 53.81,4.23 53.98,4.35 54.15,4.48 54.27,4.66 54.39,4.83 54.45,5.03 54.51,5.24 54.50,5.45 54.49,5.66 54.42,5.86 54.34,6.06 54.20,6.22 54.07,6.39 53.89,6.50 53.71,6.61 53.50,6.66 53.29,6.71 53.08,6.68 52.87,6.66 52.68,6.58 52.48,6.49 52.33,6.34 52.17,6.20 52.07,6.01 51.97,5.83 51.93,5.62 51.89,5.41 51.93,5.20 51.96,4.99 52.06,4.80 52.15,4.61 52.31,4.46 52.46,4.32 52.65,4.22 52.84,4.13 53.05,4.11 53.26,4.08 53.47,4.13 53.68,4.17 53.86,4.28 54.05,4.38 54.19,4.55 54.33,4.71 54.41,4.90 54.49,5.10 54.50,5.31 54.51,5.52 54.46,5.73 54.40,5.93 54.29,6.11 54.17,6.29 54.00,6.42 53.83,6.55 53.63,6.62 53.43,6.69 53.22,6.69 53.01,6.69 52.81,6.63 52.60,6.56 52.60,6.56 52.60,6.56 50.52,6.45 48.44,6.35 47.30,6.80 46.16,7.25 45.11,8.14 44.06,9.02 42.81,10.43 41.56,11.85 39.92,12.86 38.27,13.87 36.52,13.44 34.76,13.01 33.74,11.78 32.72,10.56 32.23,8.73 31.74,6.90 30.95,7.86 30.16,8.83 29.16,10.69 28.16,12.56 27.00,14.02 25.84,15.48 25.89,15.79 25.93,16.10 25.90,16.41 25.87,16.72 25.77,17.01 25.67,17.30 25.50,17.56 25.33,17.82 25.10,18.03 24.87,18.25 24.60,18.40 24.33,18.55 24.03,18.63 23.73,18.71 23.42,18.72 23.11,18.73 22.80,18.66 22.50,18.59 22.22,18.45 21.94,18.32 21.71,18.12 21.47,17.92 21.29,17.66 21.10,17.41 20.99,17.13 20.87,16.84 20.44,15.87 20.01,14.90 19.54,13.18 19.08,11.46 18.48,9.42 17.88,7.38 17.64,6.13 17.41,4.89 17.51,3.68 17.61,2.48 17.76,2.25 17.91,2.02 18.10,1.84 18.30,1.65 18.54,1.52 18.78,1.39 19.04,1.31 19.30,1.24 19.57,1.23 19.84,1.22 20.11,1.28 20.37,1.34 20.62,1.46 20.86,1.58 21.07,1.75 21.28,1.92 21.44,2.14 21.60,2.36 21.70,2.61 21.81,2.86 21.85,3.13 21.89,3.40 21.87,3.67 21.84,3.94 21.75,4.20 21.66,4.46 21.40,5.17 21.13,5.88 20.31,7.38 19.48,8.88 17.83,10.22 16.18,11.56 13.07,12.72 9.96,13.88 7.11,13.51 4.27,13.13 1.62,11.60 -1.03,10.06 -2.87,7.67 -4.72,5.27 -5.21,2.37 -5.69,-0.51 -4.87,-2.64 -4.06,-4.77 -2.38,-6.04 -0.70,-7.32 0.76,-7.40 2.23,-7.48 3.40,-6.03 4.57,-4.58 4.03,-2.80 3.49,-1.03 2.55,0.13 1.61,1.29 1.43,1.46 1.26,1.64 1.04,1.77 0.83,1.89 0.59,1.96 0.35,2.04 0.10,2.05 -0.14,2.06 -0.39,2.01 -0.63,1.97 -0.86,1.86 -1.09,1.76 -1.28,1.60 -1.48,1.45 -1.63,1.25 -1.78,1.05 -1.88,0.82 -1.98,0.59 -2.02,0.35 -2.06,0.10 -2.05,-0.14 -2.03,-0.39 -1.95,-0.63 -1.88,-0.86 -1.74,-1.08 -1.61,-1.29 -1.61,-1.29 L -1.61,-1.29 Z"></path></g><g transform="translate(674.7999877929688 624.6124877929688) rotate(0 2 44.00001525878906)" stroke="none"><path fill="#000" d="M -1.55,1.16 Q -1.55,1.16 -2.36,0.35 -3.17,-0.45 -2.09,-0.71 -1.01,-0.96 -1.71,-0.01 -2.40,0.93 -2.98,3.03 -3.56,5.12 -4.07,9.39 -4.58,13.66 -4.78,20.06 -4.99,26.46 -4.59,36.96 -4.20,47.45 -2.91,55.70 -1.63,63.95 -0.20,70.18 1.22,76.42 2.63,80.32 4.04,84.22 4.61,85.49 5.17,86.76 7.74,86.15 10.31,85.55 10.52,85.52 10.73,85.49 10.94,85.53 11.15,85.56 11.34,85.67 11.52,85.77 11.67,85.93 11.81,86.09 11.89,86.28 11.98,86.47 12.00,86.69 12.02,86.90 11.97,87.10 11.92,87.31 11.80,87.49 11.69,87.67 11.53,87.80 11.36,87.94 11.16,88.01 10.96,88.09 10.75,88.10 10.54,88.10 10.33,88.04 10.13,87.98 9.96,87.86 9.78,87.73 9.66,87.56 9.53,87.39 9.47,87.19 9.41,86.99 9.41,86.77 9.42,86.56 9.49,86.36 9.56,86.16 9.69,85.99 9.82,85.83 10.00,85.71 10.18,85.60 10.39,85.54 10.59,85.49 10.80,85.51 11.02,85.52 11.21,85.61 11.41,85.69 11.57,85.83 11.73,85.97 11.83,86.15 11.94,86.34 11.98,86.55 12.02,86.76 11.99,86.97 11.96,87.18 11.87,87.37 11.78,87.56 11.63,87.71 11.48,87.86 11.29,87.96 11.10,88.05 11.10,88.05 11.10,88.05 7.83,89.29 4.55,90.52 1.97,88.32 -0.61,86.13 -2.29,81.88 -3.98,77.64 -5.49,71.21 -7.01,64.78 -8.32,56.21 -9.64,47.63 -9.95,36.95 -10.26,26.26 -9.96,19.63 -9.66,13.00 -8.99,8.26 -8.32,3.52 -7.21,0.63 -6.09,-2.24 -4.96,-3.26 -3.83,-4.27 -1.71,-3.74 0.41,-3.22 0.98,-2.19 1.55,-1.16 1.67,-0.96 1.79,-0.76 1.85,-0.53 1.92,-0.31 1.93,-0.07 1.94,0.15 1.89,0.38 1.84,0.61 1.74,0.83 1.64,1.04 1.49,1.22 1.34,1.40 1.16,1.54 0.97,1.68 0.75,1.77 0.54,1.87 0.30,1.90 0.07,1.94 -0.15,1.92 -0.39,1.90 -0.61,1.83 -0.83,1.75 -1.03,1.63 -1.23,1.50 -1.39,1.33 -1.55,1.16 -1.55,1.16 L -1.55,1.16 Z"></path></g><g transform="translate(694 639.8125) rotate(0 41.600006103515625 13.599990844726562)" stroke="none"><path fill="#000" d="M 1.99,-0.26 Q 1.99,-0.26 2.60,3.16 3.20,6.59 3.67,11.56 4.13,16.52 4.53,19.96 4.94,23.39 5.12,25.32 5.29,27.26 5.29,27.54 5.29,27.83 5.22,28.11 5.15,28.38 5.02,28.64 4.88,28.89 4.69,29.10 4.50,29.32 4.27,29.48 4.03,29.64 3.77,29.74 3.50,29.84 3.21,29.87 2.93,29.91 2.65,29.87 2.36,29.84 2.10,29.73 1.83,29.63 1.59,29.47 1.36,29.31 1.17,29.09 0.98,28.88 0.85,28.62 0.72,28.37 0.65,28.09 0.58,27.81 -0.49,24.65 -1.57,21.48 -2.03,17.12 -2.48,12.76 -2.65,9.06 -2.83,5.37 -1.74,2.32 -0.66,-0.72 2.04,-2.24 4.75,-3.76 7.54,-3.50 10.33,-3.25 12.24,-1.44 14.14,0.36 14.95,2.94 15.75,5.51 14.81,8.37 13.88,11.23 11.22,14.15 8.56,17.08 6.78,18.71 5.00,20.35 6.05,20.72 7.10,21.10 9.52,21.68 11.94,22.26 14.37,22.78 16.80,23.29 18.66,23.51 20.52,23.72 21.68,23.66 22.84,23.59 23.86,22.41 24.88,21.23 25.57,19.96 26.25,18.70 26.52,17.62 26.79,16.54 27.93,16.55 29.06,16.55 29.14,17.81 29.22,19.07 29.30,20.15 29.38,21.22 30.26,21.92 31.14,22.61 33.21,23.12 35.29,23.64 37.21,23.75 39.12,23.87 40.57,23.35 42.01,22.84 42.88,21.91 43.76,20.99 44.29,19.64 44.82,18.30 45.13,17.36 45.45,16.42 45.59,16.19 45.74,15.96 45.93,15.77 46.13,15.57 46.36,15.43 46.60,15.29 46.86,15.22 47.13,15.14 47.40,15.12 47.67,15.11 47.94,15.16 48.21,15.21 48.46,15.33 48.71,15.44 48.92,15.61 49.14,15.78 49.30,16.00 49.47,16.22 49.58,16.47 49.69,16.72 49.74,16.99 49.79,17.26 49.77,17.53 49.75,17.81 49.66,18.07 49.58,18.33 50.24,20.20 50.89,22.06 52.74,20.60 54.58,19.14 55.34,18.09 56.09,17.05 56.27,16.83 56.46,16.61 56.69,16.44 56.92,16.27 57.18,16.17 57.44,16.06 57.73,16.01 58.01,15.97 58.29,16.00 58.58,16.02 58.84,16.12 59.11,16.21 59.35,16.37 59.59,16.52 59.79,16.73 59.98,16.94 60.12,17.19 60.26,17.43 60.34,17.71 60.41,17.98 60.42,18.27 60.43,18.55 60.37,18.83 60.31,19.11 60.19,19.37 60.06,19.62 61.15,19.25 62.23,18.89 63.76,19.96 65.29,21.03 66.04,20.19 66.80,19.35 67.48,18.47 68.17,17.59 69.39,16.34 70.61,15.09 72.51,14.56 74.42,14.03 75.78,14.24 77.14,14.46 78.49,15.74 79.84,17.01 80.83,17.72 81.81,18.43 82.82,19.28 83.83,20.13 84.01,20.24 84.20,20.34 84.34,20.50 84.48,20.66 84.56,20.86 84.65,21.05 84.66,21.26 84.68,21.47 84.63,21.68 84.57,21.89 84.46,22.07 84.34,22.24 84.18,22.38 84.01,22.51 83.81,22.58 83.61,22.65 83.40,22.66 83.19,22.66 82.98,22.60 82.78,22.54 82.61,22.41 82.44,22.29 82.31,22.11 82.19,21.94 82.13,21.74 82.07,21.53 82.07,21.32 82.08,21.11 82.15,20.91 82.23,20.71 82.36,20.54 82.50,20.38 82.68,20.27 82.86,20.15 83.06,20.10 83.27,20.05 83.48,20.07 83.69,20.09 83.89,20.17 84.08,20.26 84.24,20.40 84.40,20.54 84.50,20.73 84.60,20.92 84.64,21.12 84.68,21.33 84.65,21.54 84.62,21.75 84.53,21.94 84.43,22.13 84.28,22.28 84.13,22.43 83.94,22.53 83.75,22.62 83.54,22.65 83.33,22.67 83.12,22.63 82.91,22.59 82.91,22.59 82.91,22.59 81.08,22.39 79.25,22.18 77.71,21.14 76.18,20.10 74.86,19.34 73.55,18.59 72.72,19.57 71.88,20.54 70.98,21.66 70.09,22.78 68.19,24.20 66.30,25.62 64.42,25.34 62.54,25.06 60.71,23.76 58.89,22.45 57.49,19.75 56.09,17.05 56.27,16.83 56.46,16.61 56.69,16.44 56.92,16.27 57.18,16.17 57.44,16.06 57.73,16.01 58.01,15.97 58.29,16.00 58.58,16.02 58.84,16.12 59.11,16.21 59.35,16.37 59.59,16.52 59.79,16.73 59.98,16.94 60.12,17.19 60.26,17.43 60.34,17.71 60.41,17.98 60.42,18.27 60.43,18.55 60.37,18.83 60.31,19.11 60.19,19.37 60.06,19.62 59.30,20.67 58.54,21.71 57.14,23.85 55.74,25.99 54.42,26.98 53.09,27.97 51.60,27.91 50.11,27.86 49.12,27.15 48.14,26.44 47.22,25.15 46.30,23.86 45.55,21.61 44.81,19.37 45.13,17.90 45.45,16.42 45.59,16.19 45.74,15.96 45.93,15.77 46.13,15.57 46.36,15.43 46.60,15.29 46.86,15.22 47.13,15.14 47.40,15.12 47.67,15.11 47.94,15.16 48.21,15.21 48.46,15.33 48.71,15.44 48.92,15.61 49.14,15.78 49.30,16.00 49.47,16.22 49.58,16.47 49.69,16.72 49.74,16.99 49.79,17.26 49.77,17.53 49.75,17.81 49.66,18.07 49.58,18.33 49.25,19.26 48.91,20.19 47.91,22.16 46.91,24.13 45.28,25.60 43.64,27.06 41.33,27.83 39.02,28.60 36.44,28.50 33.86,28.39 30.77,27.31 27.68,26.24 26.13,24.26 24.59,22.28 24.39,20.32 24.19,18.36 24.64,16.42 25.09,14.47 26.13,13.66 27.16,12.85 28.77,13.07 30.38,13.28 30.83,15.55 31.27,17.81 30.78,19.42 30.29,21.02 29.18,22.82 28.07,24.62 25.95,26.32 23.83,28.01 21.93,28.23 20.03,28.44 17.94,28.23 15.85,28.02 13.31,27.54 10.77,27.05 8.00,26.37 5.23,25.68 2.56,24.26 -0.10,22.85 -0.33,21.04 -0.56,19.23 0.58,17.95 1.72,16.67 3.40,15.20 5.09,13.74 7.34,11.55 9.60,9.36 10.47,7.75 11.35,6.14 11.01,4.69 10.67,3.23 9.88,2.08 9.09,0.92 7.71,0.68 6.33,0.44 4.65,1.00 2.96,1.57 2.36,3.42 1.75,5.27 1.94,8.78 2.12,12.29 2.51,16.22 2.89,20.15 4.09,23.70 5.29,27.26 5.29,27.54 5.29,27.83 5.22,28.11 5.15,28.38 5.02,28.64 4.89,28.89 4.69,29.10 4.50,29.32 4.27,29.48 4.03,29.64 3.77,29.74 3.50,29.84 3.21,29.87 2.93,29.91 2.65,29.87 2.36,29.84 2.10,29.73 1.83,29.63 1.59,29.47 1.36,29.31 1.17,29.09 0.98,28.88 0.85,28.62 0.72,28.37 0.65,28.09 0.58,27.81 0.41,25.88 0.24,23.94 -0.17,20.44 -0.58,16.93 -0.97,12.07 -1.36,7.20 -1.68,3.73 -1.99,0.26 -1.99,0.02 -2.00,-0.21 -1.94,-0.45 -1.89,-0.69 -1.78,-0.90 -1.67,-1.12 -1.51,-1.30 -1.35,-1.49 -1.15,-1.63 -0.95,-1.77 -0.73,-1.86 -0.50,-1.94 -0.26,-1.98 -0.02,-2.01 0.21,-1.98 0.45,-1.96 0.68,-1.87 0.91,-1.79 1.11,-1.65 1.31,-1.52 1.48,-1.34 1.64,-1.16 1.75,-0.94 1.87,-0.73 1.93,-0.50 1.99,-0.26 1.99,-0.26 L 1.99,-0.26 Z"></path></g><g transform="translate(806.7999877929688 624.6124877929688) rotate(0 -2.399993896484375 46.00001525878906)" stroke="none"><path fill="#000" d="M 1.31,1.58 Q 1.31,1.58 0.18,2.84 -0.94,4.10 -1.60,7.06 -2.26,10.02 -2.86,15.64 -3.45,21.27 -3.95,28.52 -4.44,35.78 -4.66,43.89 -4.88,51.99 -4.31,60.85 -3.75,69.72 -2.47,75.64 -1.20,81.56 0.07,84.40 1.35,87.23 2.38,88.80 3.42,90.38 3.54,90.55 3.67,90.72 3.73,90.92 3.80,91.12 3.80,91.34 3.79,91.55 3.72,91.75 3.65,91.95 3.52,92.12 3.39,92.29 3.22,92.40 3.04,92.52 2.83,92.57 2.63,92.63 2.42,92.62 2.20,92.60 2.01,92.52 1.81,92.44 1.65,92.30 1.49,92.16 1.38,91.98 1.28,91.79 1.23,91.59 1.19,91.38 1.21,91.17 1.24,90.96 1.33,90.76 1.42,90.57 1.57,90.42 1.72,90.27 1.91,90.17 2.10,90.07 2.31,90.04 2.52,90.01 2.73,90.05 2.94,90.08 3.12,90.18 3.31,90.29 3.45,90.44 3.60,90.60 3.68,90.79 3.77,90.99 3.79,91.20 3.81,91.41 3.76,91.62 3.72,91.82 3.60,92.00 3.49,92.18 3.33,92.32 3.16,92.46 2.97,92.53 2.77,92.61 2.56,92.62 2.34,92.63 2.14,92.57 1.94,92.51 1.76,92.39 1.59,92.26 1.59,92.26 1.59,92.26 -0.52,90.79 -2.64,89.31 -4.39,86.02 -6.14,82.73 -7.67,76.41 -9.20,70.09 -9.83,60.97 -10.46,51.84 -10.24,43.61 -10.02,35.38 -9.48,28.01 -8.94,20.63 -8.19,14.56 -7.43,8.48 -6.00,4.49 -4.57,0.49 -2.94,-0.54 -1.31,-1.58 -1.11,-1.71 -0.90,-1.85 -0.66,-1.93 -0.43,-2.01 -0.18,-2.03 0.06,-2.06 0.30,-2.02 0.55,-1.98 0.78,-1.89 1.01,-1.79 1.21,-1.64 1.41,-1.50 1.57,-1.31 1.73,-1.11 1.84,-0.89 1.94,-0.67 2.00,-0.42 2.05,-0.18 2.04,0.06 2.03,0.31 1.97,0.54 1.90,0.78 1.78,1.00 1.66,1.22 1.49,1.40 1.31,1.58 1.31,1.58 L 1.31,1.58 Z"></path></g><g transform="translate(827.6000366210938 651.0125122070312) rotate(0 -1.200042724609375 8.399993896484375)" stroke="none"><path fill="#000" d="M 0.74,1.74 Q 0.74,1.74 -2.27,3.42 -5.29,5.10 -6.65,6.97 -8.02,8.84 -8.83,10.82 -9.64,12.81 -8.27,12.37 -6.90,11.93 -6.31,10.24 -5.71,8.56 -5.43,6.98 -5.16,5.40 -5.02,4.42 -4.89,3.43 -4.80,3.16 -4.72,2.90 -4.57,2.66 -4.43,2.42 -4.23,2.22 -4.03,2.02 -3.79,1.88 -3.55,1.73 -3.28,1.65 -3.02,1.57 -2.74,1.55 -2.46,1.53 -2.18,1.58 -1.91,1.63 -1.65,1.75 -1.40,1.87 -1.18,2.04 -0.96,2.21 -0.78,2.43 -0.61,2.65 -0.50,2.91 -0.38,3.16 -0.33,3.44 -0.28,3.71 -0.30,3.99 -0.32,4.27 0.48,6.13 1.28,7.98 1.75,9.12 2.22,10.26 5.83,10.80 9.44,11.34 9.65,11.39 9.85,11.44 10.03,11.56 10.21,11.67 10.35,11.84 10.48,12.00 10.55,12.20 10.63,12.40 10.64,12.61 10.64,12.82 10.58,13.03 10.52,13.23 10.40,13.40 10.27,13.58 10.10,13.70 9.93,13.83 9.73,13.89 9.52,13.95 9.31,13.95 9.10,13.94 8.90,13.87 8.70,13.80 8.53,13.67 8.37,13.53 8.25,13.35 8.14,13.18 8.08,12.97 8.03,12.76 8.05,12.55 8.06,12.34 8.15,12.14 8.23,11.95 8.37,11.79 8.51,11.63 8.70,11.53 8.88,11.42 9.09,11.38 9.30,11.34 9.51,11.37 9.72,11.39 9.91,11.49 10.10,11.58 10.25,11.73 10.40,11.88 10.50,12.07 10.59,12.26 10.62,12.47 10.65,12.68 10.61,12.89 10.57,13.10 10.47,13.29 10.37,13.47 10.21,13.61 10.05,13.76 9.86,13.84 9.66,13.93 9.45,13.94 9.24,13.96 9.24,13.96 9.24,13.96 4.44,13.86 -0.36,13.75 -1.87,11.65 -3.39,9.55 -4.14,6.49 -4.89,3.43 -4.80,3.16 -4.72,2.90 -4.57,2.66 -4.43,2.42 -4.23,2.22 -4.03,2.02 -3.79,1.88 -3.55,1.73 -3.28,1.65 -3.02,1.57 -2.74,1.55 -2.46,1.53 -2.18,1.58 -1.91,1.63 -1.65,1.75 -1.40,1.87 -1.18,2.04 -0.96,2.21 -0.78,2.43 -0.61,2.65 -0.50,2.91 -0.38,3.16 -0.33,3.44 -0.28,3.71 -0.30,3.99 -0.32,4.27 -0.46,5.26 -0.60,6.24 -0.98,8.22 -1.36,10.20 -2.31,12.55 -3.25,14.91 -5.04,16.78 -6.83,18.66 -8.99,18.89 -11.16,19.13 -12.96,17.47 -14.76,15.80 -14.67,13.27 -14.57,10.74 -13.37,8.10 -12.17,5.46 -9.88,2.93 -7.58,0.41 -4.16,-0.66 -0.74,-1.74 -0.52,-1.81 -0.30,-1.87 -0.08,-1.88 0.14,-1.89 0.37,-1.85 0.59,-1.80 0.80,-1.70 1.01,-1.61 1.19,-1.46 1.36,-1.32 1.50,-1.13 1.64,-0.95 1.73,-0.74 1.82,-0.53 1.86,-0.30 1.90,-0.08 1.88,0.14 1.86,0.37 1.79,0.59 1.72,0.81 1.59,1.00 1.47,1.20 1.31,1.35 1.14,1.51 0.94,1.63 0.74,1.74 0.74,1.74 L 0.74,1.74 Z"></path></g><g transform="translate(859.6000366210938 627.0125122070312) rotate(0 -14 37.59999084472656)" stroke="none"><path fill="#000" d="M 1.86,1.01 Q 1.86,1.01 0.72,3.67 -0.41,6.33 -2.04,10.50 -3.67,14.68 -5.27,20.28 -6.86,25.89 -8.48,31.98 -10.09,38.07 -12.17,45.52 -14.25,52.96 -16.37,58.30 -18.49,63.64 -20.48,67.27 -22.47,70.91 -24.37,72.93 -26.27,74.95 -26.41,75.10 -26.56,75.26 -26.74,75.36 -26.93,75.47 -27.14,75.51 -27.34,75.55 -27.55,75.52 -27.77,75.49 -27.96,75.39 -28.15,75.30 -28.29,75.15 -28.44,74.99 -28.54,74.80 -28.63,74.61 -28.66,74.40 -28.69,74.19 -28.65,73.98 -28.61,73.78 -28.50,73.59 -28.39,73.41 -28.24,73.26 -28.08,73.12 -27.88,73.04 -27.69,72.96 -27.47,72.94 -27.26,72.92 -27.06,72.98 -26.85,73.03 -26.67,73.14 -26.49,73.26 -26.36,73.43 -26.23,73.59 -26.16,73.79 -26.08,73.99 -26.08,74.20 -26.07,74.42 -26.14,74.62 -26.20,74.82 -26.33,74.99 -26.45,75.17 -26.62,75.29 -26.80,75.41 -27.00,75.47 -27.20,75.54 -27.42,75.53 -27.63,75.52 -27.83,75.45 -28.03,75.37 -28.19,75.24 -28.36,75.11 -28.47,74.93 -28.58,74.75 -28.63,74.54 -28.68,74.33 -28.67,74.12 -28.65,73.91 -28.56,73.72 -28.48,73.52 -28.48,73.52 -28.48,73.52 -27.56,71.18 -26.65,68.83 -25.08,65.26 -23.50,61.69 -21.56,56.58 -19.62,51.46 -17.56,44.05 -15.49,36.63 -13.86,30.49 -12.23,24.34 -10.50,18.48 -8.78,12.61 -6.94,8.20 -5.10,3.78 -3.48,1.38 -1.86,-1.01 -1.71,-1.22 -1.56,-1.43 -1.37,-1.60 -1.17,-1.76 -0.95,-1.88 -0.72,-2.00 -0.47,-2.05 -0.22,-2.11 0.03,-2.11 0.29,-2.10 0.53,-2.04 0.78,-1.97 1.01,-1.85 1.23,-1.73 1.42,-1.55 1.61,-1.38 1.75,-1.17 1.89,-0.95 1.98,-0.71 2.07,-0.47 2.09,-0.22 2.12,0.03 2.09,0.28 2.05,0.54 1.96,0.78 1.86,1.01 1.86,1.01 L 1.86,1.01 Z"></path></g><g transform="translate(861.2000122070312 677.4125061035156) rotate(0 3.600006103515625 13.199996948242188)" stroke="none"><path fill="#000" d="M 1.68,1.18 Q 1.68,1.18 0.35,3.66 -0.97,6.15 -1.93,8.71 -2.89,11.28 -3.29,13.56 -3.69,15.84 -3.29,17.94 -2.88,20.04 -1.77,21.01 -0.65,21.99 0.88,22.26 2.41,22.53 4.46,21.59 6.51,20.65 9.48,19.33 12.46,18.02 12.66,17.94 12.85,17.86 13.07,17.85 13.28,17.84 13.48,17.90 13.69,17.96 13.86,18.08 14.04,18.20 14.17,18.37 14.29,18.54 14.36,18.74 14.43,18.94 14.42,19.15 14.42,19.37 14.35,19.57 14.28,19.77 14.15,19.94 14.02,20.11 13.85,20.22 13.67,20.34 13.47,20.40 13.26,20.45 13.05,20.44 12.84,20.43 12.64,20.35 12.44,20.27 12.28,20.13 12.12,19.99 12.01,19.81 11.90,19.62 11.86,19.42 11.82,19.21 11.84,19.00 11.87,18.79 11.96,18.59 12.05,18.40 12.19,18.25 12.34,18.09 12.53,18.00 12.72,17.90 12.93,17.87 13.14,17.83 13.35,17.87 13.56,17.90 13.74,18.00 13.93,18.11 14.08,18.26 14.22,18.42 14.31,18.61 14.40,18.80 14.42,19.01 14.44,19.23 14.39,19.43 14.34,19.64 14.23,19.82 14.12,20.00 13.96,20.14 13.80,20.28 13.80,20.28 13.80,20.28 11.03,22.36 8.25,24.45 5.14,25.88 2.03,27.32 -1.00,26.68 -4.03,26.05 -6.08,23.80 -8.14,21.55 -8.70,18.24 -9.26,14.93 -8.69,12.05 -8.11,9.18 -6.79,6.11 -5.46,3.04 -3.57,0.93 -1.68,-1.18 -1.52,-1.36 -1.35,-1.55 -1.15,-1.69 -0.94,-1.83 -0.71,-1.91 -0.48,-2.00 -0.23,-2.03 0.01,-2.06 0.26,-2.03 0.50,-1.99 0.73,-1.90 0.97,-1.81 1.17,-1.67 1.37,-1.53 1.54,-1.34 1.70,-1.15 1.81,-0.93 1.93,-0.71 1.99,-0.47 2.04,-0.23 2.04,0.01 2.04,0.26 1.98,0.50 1.92,0.74 1.80,0.96 1.68,1.18 1.68,1.18 L 1.68,1.18 Z"></path></g><g transform="translate(874 616.6124877929688) rotate(0 12 40.40000915527344)" stroke="none"><path fill="#000" d="M 0.56,-1.69 Q 0.56,-1.69 2.73,-1.28 4.91,-0.87 7.72,0.92 10.53,2.72 13.30,6.47 16.07,10.22 18.44,15.84 20.80,21.45 22.53,30.43 24.25,39.40 24.96,46.68 25.67,53.96 25.26,59.76 24.85,65.56 23.68,69.78 22.51,74.00 19.93,76.81 17.34,79.62 17.13,79.63 16.92,79.64 16.71,79.59 16.51,79.54 16.33,79.42 16.15,79.30 16.02,79.14 15.89,78.97 15.82,78.77 15.75,78.57 15.75,78.35 15.74,78.14 15.81,77.94 15.87,77.74 16.00,77.57 16.13,77.40 16.30,77.27 16.47,77.15 16.68,77.09 16.88,77.03 17.09,77.04 17.31,77.05 17.51,77.13 17.70,77.20 17.87,77.34 18.03,77.47 18.14,77.65 18.25,77.84 18.30,78.04 18.35,78.25 18.33,78.46 18.31,78.67 18.22,78.87 18.14,79.06 17.99,79.22 17.85,79.37 17.66,79.47 17.48,79.58 17.27,79.61 17.06,79.65 16.85,79.62 16.64,79.59 16.45,79.49 16.26,79.39 16.11,79.24 15.96,79.09 15.87,78.90 15.78,78.71 15.75,78.49 15.73,78.28 15.77,78.08 15.82,77.87 15.92,77.68 16.03,77.50 16.19,77.36 16.35,77.22 16.55,77.14 16.74,77.06 16.74,77.06 16.74,77.06 17.12,74.84 17.50,72.63 18.50,68.89 19.51,65.16 19.90,59.81 20.28,54.46 19.62,47.42 18.95,40.38 17.44,31.90 15.92,23.41 13.91,18.26 11.91,13.11 9.80,9.92 7.70,6.72 5.53,5.18 3.36,3.63 1.40,2.66 -0.56,1.69 -0.75,1.59 -0.95,1.50 -1.11,1.37 -1.28,1.23 -1.41,1.06 -1.54,0.89 -1.62,0.69 -1.71,0.49 -1.74,0.28 -1.78,0.07 -1.76,-0.14 -1.74,-0.35 -1.67,-0.55 -1.61,-0.76 -1.49,-0.94 -1.38,-1.12 -1.22,-1.27 -1.07,-1.42 -0.88,-1.53 -0.69,-1.63 -0.49,-1.69 -0.28,-1.75 -0.07,-1.76 0.14,-1.77 0.35,-1.73 0.56,-1.69 0.56,-1.69 L 0.56,-1.69 Z"></path></g><g transform="translate(915.6000366210938 641.4125061035156) rotate(0 14.79998779296875 15.599990844726562)" stroke="none"><path fill="#000" d="M 1.60,-0.68 Q 1.60,-0.68 3.29,2.38 4.98,5.45 7.94,8.80 10.89,12.15 13.95,14.99 17.02,17.82 19.90,20.18 22.78,22.54 24.90,24.28 27.02,26.03 28.36,27.81 29.71,29.58 29.85,29.74 29.99,29.90 30.07,30.10 30.15,30.30 30.16,30.51 30.18,30.72 30.12,30.93 30.07,31.13 29.95,31.31 29.83,31.49 29.67,31.62 29.50,31.75 29.30,31.82 29.10,31.89 28.89,31.89 28.67,31.89 28.47,31.83 28.27,31.76 28.10,31.64 27.93,31.51 27.81,31.33 27.68,31.16 27.63,30.96 27.57,30.75 27.57,30.54 27.58,30.33 27.66,30.13 27.74,29.93 27.87,29.77 28.01,29.60 28.19,29.49 28.37,29.38 28.58,29.33 28.78,29.28 28.99,29.30 29.21,29.32 29.40,29.41 29.59,29.50 29.75,29.64 29.91,29.79 30.01,29.97 30.11,30.16 30.15,30.37 30.18,30.58 30.15,30.79 30.12,31.00 30.02,31.19 29.92,31.38 29.77,31.52 29.62,31.67 29.43,31.76 29.24,31.86 29.03,31.88 28.81,31.91 28.61,31.86 28.40,31.82 28.21,31.71 28.03,31.61 28.03,31.61 28.03,31.61 26.08,30.66 24.14,29.70 21.91,28.03 19.67,26.36 16.65,23.92 13.62,21.48 10.35,18.44 7.09,15.39 3.81,11.41 0.53,7.42 -0.53,4.05 -1.60,0.68 -1.66,0.48 -1.72,0.28 -1.73,0.07 -1.74,-0.13 -1.70,-0.34 -1.66,-0.55 -1.57,-0.74 -1.48,-0.93 -1.34,-1.09 -1.21,-1.26 -1.04,-1.38 -0.87,-1.51 -0.68,-1.59 -0.49,-1.68 -0.28,-1.71 -0.07,-1.74 0.13,-1.73 0.34,-1.71 0.54,-1.64 0.74,-1.58 0.92,-1.47 1.10,-1.35 1.25,-1.20 1.39,-1.05 1.50,-0.87 1.60,-0.68 1.60,-0.68 L 1.60,-0.68 Z"></path></g><g transform="translate(938 648.6124877929688) rotate(0 -9.600006103515625 14)" stroke="none"><path fill="#000" d="M 1.52,1.52 Q 1.52,1.52 -0.69,3.89 -2.92,6.26 -5.38,9.65 -7.84,13.03 -9.58,15.83 -11.31,18.62 -12.51,20.89 -13.71,23.16 -15.76,25.75 -17.80,28.34 -17.96,28.48 -18.11,28.63 -18.31,28.72 -18.50,28.81 -18.71,28.83 -18.92,28.85 -19.13,28.81 -19.34,28.76 -19.52,28.65 -19.70,28.54 -19.84,28.38 -19.98,28.22 -20.05,28.02 -20.13,27.82 -20.14,27.61 -20.16,27.40 -20.10,27.20 -20.04,26.99 -19.92,26.81 -19.80,26.64 -19.63,26.51 -19.47,26.38 -19.26,26.31 -19.06,26.25 -18.85,26.25 -18.64,26.25 -18.44,26.31 -18.24,26.38 -18.07,26.51 -17.90,26.64 -17.78,26.81 -17.66,26.99 -17.60,27.20 -17.54,27.40 -17.56,27.61 -17.57,27.82 -17.65,28.02 -17.73,28.22 -17.86,28.38 -18.00,28.54 -18.18,28.65 -18.36,28.76 -18.57,28.81 -18.78,28.85 -18.99,28.83 -19.20,28.81 -19.39,28.72 -19.59,28.63 -19.74,28.48 -19.90,28.34 -20.00,28.15 -20.10,27.96 -20.13,27.75 -20.16,27.54 -20.13,27.33 -20.10,27.12 -20.00,26.93 -19.90,26.75 -19.90,26.75 -19.90,26.75 -18.88,23.88 -17.87,21.02 -16.63,18.55 -15.38,16.08 -13.54,13.13 -11.70,10.19 -8.99,6.56 -6.27,2.93 -3.90,0.70 -1.52,-1.52 -1.32,-1.69 -1.11,-1.85 -0.88,-1.95 -0.64,-2.06 -0.38,-2.11 -0.13,-2.15 0.12,-2.14 0.39,-2.12 0.63,-2.05 0.88,-1.97 1.11,-1.83 1.33,-1.70 1.51,-1.51 1.70,-1.33 1.83,-1.11 1.97,-0.88 2.05,-0.63 2.12,-0.38 2.14,-0.12 2.15,0.13 2.11,0.38 2.06,0.64 1.95,0.88 1.85,1.11 1.69,1.32 1.52,1.53 1.52,1.53 L 1.52,1.52 Z"></path></g><g transform="translate(955.5999755859375 643.0125122070312) rotate(0 44.4000244140625 13.199981689453125)" stroke="none"><path fill="#000" d="M 1.88,0 Q 1.88,0 2.20,4.36 2.51,8.73 2.75,13.06 2.98,17.38 3.53,20.96 4.08,24.54 4.55,27.73 5.02,30.92 5.21,32.52 5.41,34.12 5.48,34.34 5.55,34.57 5.56,34.87 5.56,35.17 5.49,35.47 5.41,35.76 5.28,36.03 5.14,36.29 4.94,36.52 4.74,36.75 4.49,36.92 4.24,37.09 3.96,37.20 3.68,37.31 3.38,37.35 3.08,37.38 2.78,37.35 2.48,37.31 2.20,37.21 1.92,37.10 1.67,36.93 1.42,36.76 1.22,36.54 1.02,36.31 0.87,36.04 0.73,35.78 0.66,35.48 0.59,35.19 0.43,33.17 0.27,31.16 -0.03,27.31 -0.34,23.45 -0.46,16.92 -0.58,10.39 -0.62,5.55 -0.66,0.71 0.29,-2.63 1.26,-5.97 3.44,-8.06 5.63,-10.15 8.17,-9.74 10.71,-9.33 12.51,-7.63 14.31,-5.94 15.12,-3.43 15.93,-0.93 15.27,1.88 14.61,4.70 13.03,7.14 11.45,9.57 9.71,11.93 7.96,14.29 7.39,15.66 6.81,17.02 7.61,18.26 8.40,19.50 10.48,21.02 12.56,22.53 14.19,23.73 15.82,24.93 16.90,25.63 17.98,26.34 18.95,24.76 19.92,23.17 20.44,21.85 20.97,20.52 21.16,19.22 21.34,17.91 22.92,17.43 24.50,16.96 24.06,18.21 23.62,19.46 24.65,21.33 25.68,23.21 27.53,23.78 29.39,24.35 31.46,24.70 33.52,25.05 35.13,24.39 36.75,23.73 37.98,22.52 39.20,21.31 39.85,19.65 40.50,17.99 40.79,16.64 41.08,15.29 41.22,14.39 41.36,13.50 41.46,13.22 41.57,12.95 41.74,12.70 41.91,12.46 42.14,12.26 42.36,12.07 42.62,11.93 42.89,11.79 43.18,11.72 43.47,11.65 43.76,11.65 44.06,11.66 44.35,11.73 44.64,11.80 44.90,11.94 45.16,12.08 45.39,12.28 45.61,12.48 45.77,12.72 45.94,12.97 46.05,13.25 46.15,13.53 46.19,13.82 46.22,14.12 46.18,14.41 46.14,14.71 46.76,16.11 47.38,17.51 48.05,19.86 48.72,22.21 49.42,24.01 50.13,25.81 50.66,27.05 51.19,28.28 51.63,29.06 52.08,29.84 52.16,30.14 52.25,30.44 52.26,30.75 52.28,31.06 52.21,31.36 52.15,31.66 52.02,31.94 51.89,32.22 51.69,32.47 51.50,32.71 51.25,32.89 51.00,33.08 50.72,33.20 50.43,33.32 50.13,33.37 49.82,33.42 49.51,33.40 49.20,33.37 48.91,33.28 48.61,33.18 48.35,33.01 48.09,32.85 47.87,32.63 47.66,32.40 47.50,32.13 47.35,31.87 47.92,30.02 48.50,28.18 49.59,26.59 50.67,25.00 51.73,22.64 52.79,20.29 53.79,18.43 54.80,16.56 56.71,15.37 58.62,14.17 60.07,14.49 61.52,14.81 62.99,16.44 64.46,18.07 65.45,19.67 66.44,21.26 68.13,19.09 69.82,16.91 70.67,15.26 71.53,13.61 73.91,13.47 76.29,13.32 77.18,14.70 78.08,16.07 79.18,17.60 80.28,19.13 82.04,20.30 83.80,21.47 85.87,22.15 87.94,22.84 88.15,22.83 88.36,22.82 88.57,22.87 88.77,22.93 88.95,23.05 89.12,23.17 89.25,23.33 89.38,23.50 89.45,23.70 89.52,23.90 89.52,24.12 89.52,24.33 89.46,24.53 89.39,24.73 89.26,24.90 89.13,25.07 88.96,25.19 88.78,25.31 88.58,25.37 88.37,25.43 88.16,25.42 87.95,25.41 87.75,25.33 87.55,25.25 87.39,25.12 87.23,24.98 87.12,24.80 87.01,24.62 86.96,24.41 86.91,24.20 86.94,23.99 86.96,23.78 87.05,23.59 87.13,23.39 87.28,23.24 87.43,23.08 87.61,22.98 87.80,22.88 88.01,22.85 88.22,22.81 88.43,22.84 88.64,22.88 88.83,22.98 89.01,23.07 89.16,23.23 89.31,23.38 89.40,23.57 89.49,23.77 89.51,23.98 89.54,24.19 89.49,24.40 89.45,24.60 89.34,24.79 89.23,24.97 89.07,25.11 88.91,25.25 88.71,25.33 88.51,25.40 88.51,25.40 88.51,25.40 84.81,25.48 81.11,25.55 78.62,23.89 76.13,22.23 74.82,20.35 73.50,18.48 73.04,17.25 72.57,16.02 73.92,16.26 75.26,16.49 74.76,17.89 74.27,19.29 73.18,21.32 72.09,23.36 70.68,25.06 69.27,26.76 67.20,26.79 65.12,26.82 63.60,25.39 62.08,23.97 61.27,22.61 60.45,21.25 59.81,20.15 59.17,19.05 58.28,20.72 57.38,22.39 56.12,25.10 54.86,27.81 53.47,28.83 52.08,29.84 52.16,30.14 52.25,30.44 52.26,30.75 52.28,31.06 52.21,31.36 52.15,31.66 52.02,31.94 51.89,32.22 51.69,32.46 51.50,32.71 51.25,32.89 51.00,33.08 50.72,33.20 50.43,33.32 50.13,33.37 49.82,33.42 49.51,33.40 49.20,33.37 48.91,33.28 48.61,33.18 48.35,33.01 48.09,32.85 47.87,32.63 47.66,32.40 47.50,32.13 47.35,31.87 46.87,31.10 46.39,30.34 45.83,29.02 45.26,27.70 44.48,25.67 43.70,23.63 43.03,21.28 42.36,18.92 41.86,16.21 41.36,13.50 41.46,13.22 41.57,12.95 41.74,12.70 41.91,12.46 42.14,12.26 42.36,12.07 42.62,11.93 42.89,11.79 43.18,11.72 43.47,11.65 43.76,11.65 44.06,11.66 44.35,11.73 44.64,11.80 44.90,11.94 45.16,12.08 45.38,12.28 45.61,12.48 45.77,12.72 45.94,12.97 46.05,13.25 46.15,13.53 46.19,13.82 46.22,14.12 46.18,14.41 46.14,14.71 45.96,15.59 45.77,16.46 45.27,18.20 44.78,19.93 43.61,22.28 42.43,24.63 40.44,26.37 38.45,28.11 35.74,28.96 33.04,29.82 30.34,29.41 27.65,29.01 24.80,27.79 21.96,26.58 20.45,24.39 18.95,22.21 18.83,20.15 18.71,18.10 19.13,16.91 19.55,15.71 20.37,14.81 21.20,13.90 23.31,14.19 25.43,14.48 25.66,16.57 25.89,18.66 25.56,20.45 25.23,22.24 24.54,23.87 23.86,25.51 22.10,28.08 20.35,30.64 17.85,30.66 15.35,30.68 14.09,29.93 12.82,29.18 11.11,28.01 9.40,26.85 6.85,24.97 4.30,23.10 2.95,21.11 1.59,19.13 1.69,17.00 1.79,14.88 2.72,12.93 3.65,10.99 5.42,8.81 7.20,6.64 8.51,4.89 9.82,3.14 10.54,1.53 11.25,-0.06 10.97,-1.48 10.70,-2.90 9.93,-3.94 9.16,-4.98 7.42,-4.72 5.68,-4.45 4.86,-1.86 4.03,0.72 4.10,5.51 4.17,10.29 4.31,16.68 4.46,23.06 4.78,26.87 5.09,30.68 5.32,32.63 5.55,34.57 5.56,34.87 5.56,35.17 5.49,35.47 5.41,35.76 5.28,36.03 5.14,36.29 4.94,36.52 4.74,36.75 4.49,36.92 4.24,37.09 3.96,37.20 3.68,37.31 3.38,37.35 3.08,37.38 2.78,37.35 2.48,37.31 2.20,37.21 1.92,37.10 1.67,36.93 1.42,36.76 1.22,36.54 1.02,36.31 0.87,36.04 0.73,35.78 0.66,35.48 0.59,35.19 0.49,34.99 0.40,34.79 0.20,33.22 -0.00,31.66 -0.46,28.48 -0.93,25.30 -1.50,21.47 -2.06,17.64 -2.29,13.19 -2.51,8.74 -2.20,4.37 -1.88,0 -1.86,-0.22 -1.83,-0.45 -1.75,-0.66 -1.67,-0.87 -1.54,-1.06 -1.41,-1.25 -1.24,-1.40 -1.07,-1.55 -0.87,-1.66 -0.66,-1.76 -0.44,-1.82 -0.22,-1.87 0.00,-1.87 0.22,-1.87 0.44,-1.82 0.66,-1.76 0.87,-1.66 1.07,-1.55 1.24,-1.40 1.41,-1.25 1.54,-1.06 1.67,-0.87 1.75,-0.66 1.83,-0.45 1.86,-0.22 1.88,0.00 1.88,0.00 L 1.88,0 Z"></path></g><g transform="translate(1081.2000732421875 619.0125122070312) rotate(0 -6.800048828125 49.59999084472656)" stroke="none"><path fill="#000" d="M 1.66,1.10 Q 1.66,1.10 0.54,3.34 -0.58,5.57 -2.15,9.68 -3.73,13.79 -5.31,19.86 -6.90,25.92 -8.03,32.80 -9.16,39.68 -9.87,46.49 -10.58,53.29 -10.00,61.03 -9.42,68.77 -7.88,74.70 -6.34,80.63 -4.29,85.67 -2.24,90.70 -0.60,94.25 1.02,97.80 1.10,98.00 1.17,98.20 1.18,98.41 1.19,98.62 1.14,98.83 1.08,99.03 0.96,99.21 0.84,99.38 0.67,99.51 0.50,99.64 0.30,99.71 0.10,99.77 -0.11,99.77 -0.32,99.77 -0.52,99.70 -0.72,99.63 -0.89,99.50 -1.06,99.38 -1.18,99.20 -1.29,99.02 -1.35,98.82 -1.41,98.61 -1.39,98.40 -1.38,98.19 -1.30,97.99 -1.22,97.79 -1.08,97.63 -0.95,97.47 -0.76,97.36 -0.58,97.25 -0.37,97.21 -0.17,97.16 0.04,97.19 0.25,97.21 0.44,97.30 0.63,97.39 0.79,97.54 0.94,97.69 1.04,97.87 1.14,98.06 1.17,98.27 1.20,98.48 1.17,98.69 1.13,98.90 1.03,99.09 0.93,99.28 0.78,99.42 0.62,99.57 0.43,99.66 0.24,99.74 0.02,99.77 -0.18,99.79 -0.38,99.74 -0.59,99.69 -0.77,99.58 -0.95,99.47 -1.09,99.31 -1.23,99.15 -1.23,99.15 -1.23,99.15 -3.70,95.81 -6.17,92.47 -8.74,87.22 -11.30,81.96 -13.04,75.58 -14.78,69.20 -15.42,60.97 -16.06,52.73 -15.33,45.76 -14.59,38.78 -13.39,31.65 -12.19,24.51 -10.46,18.15 -8.72,11.80 -6.83,7.25 -4.93,2.70 -3.30,0.79 -1.66,-1.10 -1.50,-1.29 -1.34,-1.47 -1.15,-1.61 -0.95,-1.75 -0.73,-1.84 -0.50,-1.93 -0.27,-1.96 -0.03,-1.99 0.20,-1.97 0.44,-1.94 0.67,-1.86 0.89,-1.78 1.09,-1.64 1.29,-1.51 1.46,-1.33 1.62,-1.16 1.73,-0.94 1.85,-0.73 1.91,-0.50 1.97,-0.27 1.98,-0.03 1.98,0.20 1.93,0.44 1.87,0.67 1.76,0.89 1.66,1.10 1.66,1.10 L 1.66,1.10 Z"></path></g><g transform="translate(1112.4000244140625 633.4125061035156) rotate(0 6.79998779296875 18.800003051757812)" stroke="none"><path fill="#000" d="M 2.17,0.06 Q 2.17,0.06 2.20,7.43 2.23,14.80 2.13,19.75 2.03,24.70 2.00,27.73 1.96,30.75 1.95,32.27 1.93,33.78 1.91,34.20 1.89,34.61 1.85,34.93 1.81,35.25 1.69,35.56 1.57,35.86 1.39,36.12 1.20,36.39 0.95,36.60 0.71,36.81 0.42,36.96 0.13,37.11 -0.18,37.18 -0.49,37.25 -0.82,37.25 -1.14,37.25 -1.45,37.17 -1.77,37.08 -2.05,36.93 -2.34,36.78 -2.58,36.56 -2.82,36.34 -3.00,36.07 -3.18,35.80 -3.29,35.50 -3.40,35.19 -3.44,34.87 -3.47,34.55 -2.87,33.03 -2.27,31.50 -1.06,29.58 0.14,27.66 1.95,25.78 3.76,23.89 5.84,22.54 7.92,21.20 9.84,20.64 11.76,20.08 13.33,20.80 14.89,21.53 15.62,23.34 16.34,25.15 15.54,27.90 14.74,30.65 13.05,32.82 11.36,34.99 9.53,36.25 7.70,37.51 6.20,38.23 4.71,38.95 2.30,37.59 -0.11,36.23 -0.19,36.03 -0.26,35.83 -0.27,35.62 -0.29,35.41 -0.23,35.20 -0.17,35.00 -0.05,34.82 0.06,34.65 0.23,34.52 0.40,34.39 0.60,34.32 0.80,34.26 1.01,34.26 1.23,34.26 1.43,34.33 1.63,34.40 1.80,34.53 1.97,34.65 2.08,34.83 2.20,35.01 2.26,35.21 2.32,35.42 2.30,35.63 2.29,35.84 2.21,36.04 2.13,36.24 1.99,36.40 1.86,36.56 1.67,36.67 1.49,36.78 1.28,36.82 1.08,36.87 0.86,36.84 0.65,36.82 0.46,36.73 0.27,36.64 0.11,36.49 -0.03,36.35 -0.13,36.16 -0.23,35.97 -0.26,35.76 -0.29,35.55 -0.26,35.34 -0.22,35.13 -0.12,34.94 -0.02,34.76 0.12,34.61 0.28,34.46 0.47,34.38 0.66,34.29 0.87,34.27 1.09,34.24 1.29,34.29 1.50,34.34 1.68,34.45 1.86,34.56 2.00,34.72 2.14,34.88 2.14,34.88 2.14,34.88 2.30,34.60 2.47,34.31 3.67,33.72 4.88,33.13 6.15,32.39 7.41,31.65 8.69,30.21 9.96,28.77 10.30,27.12 10.63,25.47 9.03,26.47 7.43,27.48 5.99,28.95 4.55,30.43 3.22,32.52 1.89,34.61 1.85,34.93 1.81,35.25 1.69,35.56 1.57,35.86 1.39,36.12 1.20,36.39 0.95,36.60 0.71,36.81 0.42,36.96 0.13,37.11 -0.18,37.18 -0.49,37.25 -0.81,37.25 -1.14,37.25 -1.45,37.17 -1.77,37.08 -2.05,36.93 -2.34,36.78 -2.58,36.56 -2.82,36.34 -3.00,36.07 -3.18,35.80 -3.29,35.50 -3.40,35.19 -3.44,34.87 -3.47,34.55 -3.47,34.13 -3.48,33.72 -3.46,32.20 -3.44,30.68 -3.39,27.64 -3.34,24.60 -3.24,19.61 -3.15,14.63 -2.66,7.28 -2.17,-0.06 -2.13,-0.32 -2.09,-0.58 -1.99,-0.82 -1.89,-1.07 -1.73,-1.28 -1.58,-1.49 -1.38,-1.66 -1.18,-1.82 -0.94,-1.94 -0.70,-2.05 -0.45,-2.11 -0.19,-2.16 0.06,-2.16 0.32,-2.15 0.58,-2.08 0.83,-2.01 1.06,-1.88 1.29,-1.75 1.48,-1.57 1.67,-1.39 1.81,-1.17 1.95,-0.95 2.04,-0.70 2.12,-0.45 2.15,-0.19 2.17,0.06 2.17,0.06 L 2.17,0.06 Z"></path></g><g transform="translate(1147.5999755859375 641.4125061035156) rotate(0 -16 32)" stroke="none"><path fill="#000" d="M 2.07,0.31 Q 2.07,0.31 1.85,3.34 1.62,6.37 0.26,10.62 -1.10,14.87 -3.27,20.15 -5.45,25.43 -9.17,32.56 -12.90,39.69 -16.11,45.26 -19.31,50.82 -21.89,54.60 -24.46,58.39 -26.11,60.42 -27.76,62.46 -28.91,60.93 -30.05,59.39 -29.88,59.27 -29.70,59.15 -29.50,59.08 -29.30,59.02 -29.09,59.02 -28.87,59.03 -28.67,59.10 -28.47,59.17 -28.31,59.31 -28.14,59.44 -28.03,59.62 -27.91,59.80 -27.86,60.00 -27.81,60.21 -27.82,60.42 -27.84,60.63 -27.92,60.83 -28.01,61.02 -28.15,61.18 -28.29,61.34 -28.48,61.45 -28.66,61.55 -28.87,61.59 -29.08,61.63 -29.29,61.60 -29.50,61.58 -29.69,61.48 -29.88,61.39 -30.03,61.24 -30.18,61.09 -30.28,60.90 -30.37,60.71 -30.40,60.50 -30.43,60.29 -30.39,60.08 -30.35,59.87 -30.25,59.69 -30.14,59.50 -29.99,59.36 -29.83,59.22 -29.63,59.13 -29.44,59.05 -29.23,59.03 -29.02,59.01 -28.81,59.06 -28.60,59.11 -28.42,59.23 -28.24,59.34 -28.11,59.50 -27.98,59.67 -27.90,59.87 -27.83,60.07 -27.82,60.28 -27.82,60.49 -27.88,60.70 -27.94,60.90 -28.06,61.07 -28.19,61.25 -28.19,61.24 -28.18,61.24 -29.96,60.37 -31.73,59.49 -30.33,57.44 -28.93,55.39 -26.51,51.73 -24.09,48.07 -20.94,42.60 -17.79,37.13 -14.14,30.21 -10.49,23.30 -8.30,18.25 -6.11,13.20 -4.79,9.39 -3.46,5.58 -2.77,2.63 -2.07,-0.31 -2.00,-0.56 -1.94,-0.80 -1.81,-1.02 -1.69,-1.24 -1.51,-1.43 -1.34,-1.61 -1.13,-1.75 -0.91,-1.89 -0.67,-1.97 -0.43,-2.05 -0.18,-2.07 0.06,-2.10 0.31,-2.06 0.56,-2.02 0.80,-1.92 1.03,-1.82 1.23,-1.67 1.44,-1.52 1.60,-1.33 1.76,-1.13 1.87,-0.91 1.98,-0.68 2.04,-0.43 2.09,-0.18 2.08,0.06 2.07,0.31 2.07,0.31 L 2.07,0.31 Z"></path></g><g transform="translate(1146 684.6124877929688) rotate(0 0 12)" stroke="none"><path fill="#000" d="M 1.41,1.41 Q 1.41,1.41 -0.69,3.88 -2.80,6.35 -4.00,8.68 -5.20,11.00 -5.68,13.17 -6.16,15.34 -6.31,16.90 -6.46,18.47 -5.42,19.17 -4.39,19.87 -2.79,19.66 -1.18,19.46 1.03,18.35 3.26,17.24 5.52,15.72 7.78,14.20 7.96,14.09 8.14,13.98 8.35,13.94 8.56,13.90 8.77,13.92 8.98,13.95 9.17,14.04 9.37,14.13 9.52,14.28 9.67,14.42 9.77,14.61 9.87,14.80 9.90,15.01 9.93,15.22 9.89,15.43 9.86,15.64 9.75,15.83 9.65,16.01 9.50,16.16 9.34,16.30 9.15,16.39 8.95,16.48 8.74,16.50 8.53,16.52 8.32,16.47 8.12,16.42 7.94,16.31 7.76,16.20 7.62,16.04 7.48,15.87 7.41,15.67 7.33,15.48 7.32,15.26 7.31,15.05 7.37,14.85 7.43,14.64 7.55,14.47 7.67,14.29 7.84,14.17 8.01,14.04 8.22,13.98 8.42,13.91 8.63,13.91 8.84,13.91 9.04,13.98 9.24,14.05 9.41,14.19 9.58,14.32 9.70,14.49 9.81,14.67 9.87,14.88 9.92,15.08 9.91,15.29 9.90,15.50 9.81,15.70 9.73,15.90 9.59,16.06 9.46,16.22 9.46,16.22 9.46,16.22 7.27,18.38 5.09,20.55 2.15,22.28 -0.78,24.02 -3.75,24.00 -6.72,23.99 -8.88,21.90 -11.04,19.81 -11.13,16.96 -11.22,14.12 -10.48,11.33 -9.74,8.54 -8.06,5.69 -6.39,2.84 -3.90,0.71 -1.41,-1.41 -1.22,-1.56 -1.03,-1.71 -0.81,-1.81 -0.59,-1.91 -0.35,-1.95 -0.12,-1.99 0.12,-1.98 0.36,-1.97 0.59,-1.89 0.82,-1.82 1.02,-1.70 1.23,-1.57 1.40,-1.40 1.57,-1.23 1.70,-1.02 1.82,-0.82 1.89,-0.59 1.97,-0.36 1.98,-0.11 1.99,0.12 1.95,0.35 1.91,0.59 1.81,0.81 1.71,1.03 1.56,1.22 1.41,1.41 1.41,1.41 L 1.41,1.41 Z"></path></g><g transform="translate(1160.4000244140625 622.2124938964844) rotate(0 5.20001220703125 46.80000305175781)" stroke="none"><path fill="#000" d="M 1.74,-0.58 Q 1.74,-0.58 3.42,3.45 5.10,7.50 6.44,12.79 7.77,18.09 9.06,27.10 10.34,36.11 11.11,44.08 11.88,52.05 12.20,58.92 12.52,65.80 12.39,71.54 12.25,77.29 11.18,81.61 10.12,85.93 6.59,89.43 3.07,92.94 2.91,93.07 2.74,93.21 2.55,93.29 2.35,93.37 2.14,93.38 1.93,93.40 1.72,93.34 1.52,93.28 1.34,93.17 1.16,93.05 1.03,92.88 0.91,92.71 0.84,92.51 0.77,92.31 0.77,92.10 0.77,91.88 0.83,91.68 0.90,91.48 1.03,91.31 1.16,91.14 1.33,91.02 1.51,90.90 1.71,90.84 1.92,90.78 2.13,90.80 2.34,90.81 2.54,90.88 2.74,90.96 2.90,91.10 3.06,91.24 3.17,91.42 3.28,91.60 3.33,91.81 3.37,92.01 3.35,92.22 3.33,92.44 3.24,92.63 3.15,92.82 3.01,92.98 2.86,93.13 2.67,93.23 2.49,93.33 2.28,93.37 2.07,93.40 1.86,93.37 1.65,93.34 1.46,93.24 1.27,93.14 1.13,92.98 0.98,92.83 0.89,92.64 0.80,92.45 0.77,92.23 0.75,92.02 0.80,91.82 0.84,91.61 0.95,91.43 1.06,91.24 1.06,91.24 1.06,91.24 3.28,87.92 5.51,84.59 6.36,80.89 7.22,77.18 7.27,71.61 7.32,66.04 7.00,59.29 6.68,52.54 5.94,44.68 5.20,36.82 4.02,28.06 2.84,19.30 1.63,14.18 0.41,9.05 -0.66,4.82 -1.74,0.58 -1.79,0.36 -1.83,0.14 -1.82,-0.07 -1.81,-0.29 -1.75,-0.50 -1.69,-0.72 -1.58,-0.91 -1.47,-1.10 -1.31,-1.26 -1.16,-1.42 -0.97,-1.54 -0.78,-1.66 -0.57,-1.73 -0.36,-1.80 -0.14,-1.82 0.07,-1.84 0.29,-1.80 0.51,-1.76 0.71,-1.68 0.92,-1.59 1.09,-1.46 1.27,-1.32 1.41,-1.15 1.55,-0.98 1.65,-0.78 1.74,-0.58 1.74,-0.58 L 1.74,-0.58 Z"></path></g><g transform="translate(1175.5999755859375 608.6124877929688) rotate(0 8.00006103515625 48.40000915527344)" stroke="none"><path fill="#000" d="M 1.02,-1.36 Q 1.02,-1.36 2.11,-0.88 3.19,-0.39 4.01,0.52 4.83,1.43 6.29,2.91 7.75,4.38 9.24,5.84 10.73,7.30 12.11,8.91 13.50,10.53 14.85,12.44 16.19,14.35 17.59,18.66 18.98,22.97 19.56,26.69 20.15,30.40 20.38,32.89 20.62,35.39 20.50,38.43 20.37,41.48 19.85,44.69 19.32,47.91 18.63,51.75 17.95,55.59 17.18,58.68 16.41,61.77 15.87,64.38 15.34,66.99 14.87,69.26 14.41,71.54 13.98,73.66 13.56,75.77 13.13,77.63 12.71,79.49 11.73,81.47 10.76,83.46 10.20,84.79 9.64,86.12 8.81,87.39 7.98,88.67 6.89,89.94 5.81,91.21 4.66,92.42 3.51,93.63 0.03,94.82 -3.44,96.01 -3.52,95.81 -3.59,95.61 -3.60,95.40 -3.61,95.18 -3.55,94.98 -3.49,94.78 -3.37,94.60 -3.25,94.43 -3.08,94.30 -2.91,94.18 -2.70,94.11 -2.50,94.05 -2.29,94.05 -2.08,94.05 -1.88,94.12 -1.68,94.19 -1.51,94.32 -1.34,94.45 -1.23,94.63 -1.11,94.81 -1.05,95.01 -1.00,95.22 -1.01,95.43 -1.03,95.64 -1.11,95.84 -1.19,96.04 -1.33,96.20 -1.47,96.36 -1.66,96.46 -1.84,96.57 -2.05,96.61 -2.26,96.66 -2.47,96.63 -2.68,96.60 -2.87,96.51 -3.06,96.42 -3.21,96.27 -3.36,96.12 -3.46,95.94 -3.56,95.75 -3.59,95.54 -3.62,95.33 -3.58,95.12 -3.55,94.91 -3.44,94.72 -3.34,94.53 -3.19,94.39 -3.03,94.25 -2.84,94.16 -2.64,94.07 -2.43,94.05 -2.22,94.03 -2.01,94.08 -1.80,94.13 -1.62,94.24 -1.44,94.36 -1.31,94.52 -1.17,94.68 -1.17,94.68 -1.17,94.68 -1.50,93.47 -1.83,92.26 -1.03,91.17 -0.22,90.09 0.84,88.95 1.92,87.81 3.42,85.96 4.92,84.10 5.55,82.61 6.19,81.12 6.94,79.72 7.70,78.32 8.10,76.54 8.50,74.75 8.92,72.63 9.35,70.51 9.81,68.23 10.27,65.94 10.83,63.23 11.39,60.52 12.12,57.60 12.86,54.68 13.53,50.86 14.20,47.04 14.71,44.13 15.22,41.23 15.37,38.54 15.52,35.84 15.31,33.49 15.11,31.14 14.65,27.78 14.20,24.43 13.15,20.76 12.10,17.09 10.95,15.38 9.79,13.67 8.55,12.19 7.30,10.70 5.83,9.18 4.37,7.66 3.60,6.84 2.83,6.01 1.66,4.58 0.48,3.15 -0.27,2.26 -1.02,1.36 -1.17,1.22 -1.32,1.08 -1.43,0.90 -1.54,0.73 -1.61,0.53 -1.67,0.34 -1.69,0.13 -1.71,-0.06 -1.67,-0.27 -1.64,-0.47 -1.56,-0.66 -1.48,-0.85 -1.35,-1.01 -1.23,-1.18 -1.07,-1.31 -0.91,-1.44 -0.72,-1.53 -0.54,-1.62 -0.34,-1.66 -0.13,-1.70 0.06,-1.69 0.27,-1.68 0.47,-1.63 0.66,-1.57 0.84,-1.47 1.02,-1.36 1.02,-1.36 L 1.02,-1.36 Z"></path></g><g transform="translate(758.7999877929688 731.0125122070312) rotate(0 151.60000610351562 -3.20001220703125)" stroke="none"><path fill="#000" d="M -0.20,-2.00 Q -0.20,-2.00 2.08,-2.35 4.37,-2.71 9.11,-2.87 13.86,-3.03 21.38,-3.11 28.90,-3.18 38.99,-3.21 49.08,-3.24 62.11,-3.24 75.14,-3.25 95.87,-3.01 116.60,-2.76 135.96,-2.82 155.32,-2.87 173.43,-3.32 191.54,-3.77 208.00,-3.94 224.46,-4.11 241.36,-3.96 258.26,-3.82 269.34,-3.76 280.42,-3.70 287.01,-3.46 293.59,-3.22 296.83,-3.11 300.06,-3.00 300.30,-4.27 300.53,-5.54 300.48,-5.75 300.43,-5.96 300.45,-6.17 300.46,-6.38 300.55,-6.57 300.63,-6.77 300.78,-6.93 300.92,-7.09 301.10,-7.19 301.29,-7.29 301.50,-7.33 301.71,-7.37 301.92,-7.34 302.13,-7.32 302.32,-7.22 302.51,-7.13 302.66,-6.98 302.81,-6.82 302.90,-6.63 302.99,-6.44 303.02,-6.23 303.05,-6.02 303.01,-5.81 302.97,-5.61 302.87,-5.42 302.76,-5.24 302.60,-5.09 302.44,-4.95 302.25,-4.87 302.05,-4.79 301.84,-4.77 301.63,-4.75 301.42,-4.80 301.22,-4.86 301.04,-4.97 300.86,-5.08 300.73,-5.25 300.59,-5.42 300.52,-5.62 300.45,-5.82 300.44,-6.03 300.44,-6.24 300.50,-6.44 300.56,-6.65 300.69,-6.82 300.81,-6.99 300.98,-7.11 301.16,-7.24 301.36,-7.30 301.56,-7.36 301.78,-7.36 301.99,-7.35 302.19,-7.28 302.39,-7.20 302.55,-7.07 302.72,-6.94 302.83,-6.76 302.95,-6.58 302.95,-6.58 302.95,-6.58 303.74,-4.83 304.53,-3.08 304.27,-1.86 304.02,-0.64 301.98,0.22 299.94,1.08 296.69,0.98 293.43,0.87 286.92,0.60 280.40,0.33 269.31,0.27 258.23,0.21 241.37,0.09 224.51,-0.03 208.09,0.23 191.66,0.49 173.51,1.08 155.36,1.67 135.95,1.88 116.54,2.09 95.84,1.88 75.14,1.67 62.11,1.68 49.09,1.69 39.01,1.69 28.92,1.70 21.44,1.71 13.96,1.72 9.39,1.76 4.82,1.79 2.51,1.89 0.20,2.00 -0.04,1.99 -0.28,1.99 -0.51,1.92 -0.75,1.86 -0.96,1.74 -1.17,1.62 -1.35,1.46 -1.53,1.30 -1.66,1.09 -1.79,0.89 -1.88,0.66 -1.96,0.43 -1.98,0.19 -2.00,-0.04 -1.97,-0.28 -1.94,-0.52 -1.85,-0.74 -1.75,-0.97 -1.61,-1.16 -1.47,-1.36 -1.29,-1.52 -1.10,-1.67 -0.88,-1.78 -0.67,-1.89 -0.43,-1.94 -0.19,-2.00 -0.19,-2.00 L -0.20,-2.00 Z"></path></g><g transform="translate(930 753.4125061035156) rotate(0 5.600006103515625 9.199996948242188)" stroke="none"><path fill="#000" d="M -0.48,1.69 Q -0.48,1.69 -2.19,1.59 -3.90,1.49 -5.25,1.36 -6.60,1.24 -7.58,1.76 -8.56,2.28 -9.65,3.79 -10.75,5.31 -11.18,6.97 -11.62,8.63 -11.27,9.97 -10.91,11.31 -9.31,12.48 -7.70,13.65 -3.25,14.69 1.20,15.73 5.57,15.80 9.94,15.88 13.55,15.29 17.16,14.70 19.65,14.25 22.15,13.79 23.20,13.19 24.25,12.59 24.37,12.41 24.48,12.23 24.65,12.10 24.82,11.97 25.02,11.90 25.22,11.83 25.43,11.82 25.64,11.82 25.84,11.89 26.05,11.95 26.22,12.08 26.39,12.20 26.51,12.38 26.63,12.55 26.69,12.75 26.75,12.96 26.75,13.17 26.74,13.38 26.66,13.58 26.59,13.78 26.45,13.94 26.32,14.11 26.14,14.22 25.96,14.33 25.75,14.38 25.54,14.43 25.33,14.41 25.12,14.39 24.93,14.31 24.73,14.22 24.58,14.08 24.42,13.93 24.32,13.75 24.21,13.56 24.18,13.35 24.14,13.14 24.17,12.93 24.20,12.72 24.30,12.53 24.39,12.34 24.54,12.19 24.70,12.05 24.89,11.95 25.08,11.86 25.29,11.83 25.50,11.81 25.71,11.85 25.92,11.89 26.10,12.00 26.28,12.11 26.42,12.27 26.56,12.42 26.65,12.62 26.73,12.82 26.74,13.03 26.76,13.24 26.71,13.45 26.65,13.65 26.65,13.65 26.65,13.65 24.89,15.88 23.12,18.11 20.54,18.68 17.95,19.25 13.92,19.99 9.89,20.73 4.96,20.68 0.02,20.64 -5.50,19.23 -11.03,17.81 -13.45,15.38 -15.86,12.95 -16.31,10.14 -16.76,7.34 -15.84,4.65 -14.91,1.96 -12.80,-0.25 -10.70,-2.48 -8.47,-3.17 -6.25,-3.86 -4.39,-3.59 -2.53,-3.33 -1.02,-2.51 0.48,-1.69 0.67,-1.61 0.87,-1.52 1.04,-1.40 1.21,-1.27 1.35,-1.11 1.48,-0.94 1.57,-0.75 1.66,-0.56 1.71,-0.35 1.75,-0.14 1.74,0.06 1.73,0.27 1.68,0.48 1.62,0.68 1.51,0.86 1.41,1.05 1.26,1.20 1.11,1.36 0.93,1.47 0.76,1.58 0.55,1.65 0.35,1.72 0.14,1.74 -0.06,1.76 -0.27,1.72 -0.48,1.69 -0.48,1.69 L -0.48,1.69 Z"></path></g></svg>