<svg version="1.1" xmlns="http://www.w3.org/2000/svg" viewBox="0 0 10020 681.4500122070312" width="10020" height="681.4500122070312">
  <!-- svg-source:excalidraw -->
  
  <defs>
    <style>
      @font-face {
        font-family: "Virgil";
        src: url("https://excalidraw.com/Virgil.woff2");
      }
      @font-face {
        font-family: "Cascadia";
        src: url("https://excalidraw.com/Cascadia.woff2");
      }
    </style>
  </defs>
  <rect x="0" y="0" width="10020" height="681.4500122070312" fill="#fff0"></rect><g stroke-linecap="round" transform="translate(10 10) rotate(0 5000 0.5)"><path d="M-0.52 -0.26 C3022.65 -30.2, 6044.59 -29.2, 9999.32 0.22 M0.38 -0.31 C3948.03 -0.44, 7895.41 0.2, 9999.95 0.08 M10000.08 -0.06 C10000.09 0.27, 10000.05 0.48, 10000.09 0.92 M9999.97 0.01 C9999.95 0.33, 9999.98 0.72, 10000 0.99 M10000.22 1.51 C7095.77 35.76, 4193.15 34.95, -0.25 0.75 M10000.01 1.13 C7827.97 2.74, 5656.23 3.35, -0.33 0.84 M-0.04 1.01 C0 0.63, -0.06 0.15, 0.05 -0.03 M-0.04 0.95 C-0.04 0.73, -0.03 0.59, -0.05 -0.02" stroke="transparent" stroke-width="1" fill="none"></path></g><g transform="translate(776.4000244140625 607.4500122070312) rotate(0 96 -34.399993896484375)" stroke="none"><path fill="#000" d="M -0.97,-1.15 Q -0.97,-1.15 18.21,-17.63 37.40,-34.11 49.11,-42.92 60.81,-51.73 66.94,-56.16 73.06,-60.59 77.32,-63.21 81.59,-65.82 83.84,-67.16 86.10,-68.49 86.77,-69.27 87.44,-70.04 87.65,-70.17 87.86,-70.29 88.09,-70.36 88.33,-70.43 88.57,-70.45 88.81,-70.46 89.05,-70.42 89.29,-70.37 89.51,-70.27 89.74,-70.17 89.93,-70.02 90.12,-69.87 90.27,-69.67 90.42,-69.48 90.52,-69.26 90.62,-69.03 90.66,-68.79 90.70,-68.55 90.68,-68.31 90.67,-68.07 90.59,-67.83 90.52,-67.60 90.39,-67.39 90.27,-67.19 90.09,-67.01 89.92,-66.84 88.48,-68.32 87.04,-69.80 87.25,-69.92 87.46,-70.05 87.69,-70.12 87.93,-70.19 88.17,-70.20 88.42,-70.22 88.66,-70.17 88.90,-70.13 89.13,-70.03 89.35,-69.92 89.54,-69.77 89.73,-69.62 89.89,-69.42 90.04,-69.23 90.14,-69.01 90.23,-68.78 90.28,-68.54 90.32,-68.30 90.30,-68.05 90.29,-67.81 90.21,-67.57 90.14,-67.34 90.01,-67.13 89.88,-66.92 89.71,-66.75 89.53,-66.57 113.00,-56.56 136.47,-46.55 147.62,-41.32 158.78,-36.09 165.07,-33.66 171.36,-31.22 175.11,-30.21 178.86,-29.20 180.90,-28.77 182.94,-28.34 184.01,-28.17 185.09,-27.99 186.54,-27.90 187.98,-27.82 189.79,-25.62 191.61,-23.43 191.45,-23.28 191.30,-23.13 191.11,-23.04 190.92,-22.94 190.71,-22.92 190.50,-22.89 190.29,-22.93 190.08,-22.97 189.90,-23.08 189.71,-23.19 189.57,-23.35 189.43,-23.50 189.35,-23.70 189.27,-23.90 189.25,-24.11 189.24,-24.32 189.29,-24.53 189.35,-24.73 189.46,-24.91 189.58,-25.09 189.74,-25.22 189.91,-25.35 190.11,-25.42 190.31,-25.49 190.52,-25.50 190.74,-25.50 190.94,-25.44 191.14,-25.37 191.31,-25.25 191.48,-25.12 191.61,-24.95 191.73,-24.77 191.79,-24.57 191.85,-24.37 191.84,-24.15 191.83,-23.94 191.76,-23.74 191.68,-23.54 191.55,-23.38 191.41,-23.22 191.23,-23.10 191.05,-22.99 190.85,-22.94 190.64,-22.89 190.43,-22.91 190.22,-22.93 190.02,-23.02 189.83,-23.10 189.67,-23.25 189.51,-23.39 189.41,-23.57 189.31,-23.76 189.27,-23.97 189.23,-24.18 189.26,-24.39 189.29,-24.60 189.39,-24.79 189.49,-24.98 189.49,-24.98 189.49,-24.98 188.62,-24.23 187.75,-23.47 186.07,-23.62 184.38,-23.76 183.22,-23.96 182.05,-24.16 179.90,-24.62 177.74,-25.08 173.78,-26.15 169.82,-27.23 163.39,-29.71 156.95,-32.19 145.74,-37.43 134.53,-42.68 110.78,-56.24 87.04,-69.80 87.25,-69.92 87.46,-70.05 87.69,-70.12 87.93,-70.19 88.17,-70.20 88.42,-70.22 88.66,-70.17 88.90,-70.13 89.13,-70.03 89.35,-69.92 89.54,-69.77 89.73,-69.62 89.88,-69.42 90.04,-69.23 90.14,-69.01 90.23,-68.78 90.28,-68.54 90.32,-68.30 90.30,-68.05 90.29,-67.81 90.21,-67.57 90.14,-67.34 90.01,-67.13 89.88,-66.92 89.71,-66.75 89.53,-66.57 88.49,-68.31 87.44,-70.04 87.65,-70.17 87.86,-70.29 88.09,-70.36 88.33,-70.43 88.57,-70.45 88.81,-70.46 89.05,-70.42 89.29,-70.37 89.51,-70.27 89.74,-70.17 89.93,-70.02 90.12,-69.87 90.27,-69.67 90.42,-69.48 90.52,-69.26 90.62,-69.03 90.66,-68.79 90.70,-68.55 90.68,-68.31 90.67,-68.07 90.59,-67.83 90.52,-67.60 90.39,-67.39 90.27,-67.19 90.09,-67.01 89.92,-66.84 89.90,-66.69 89.87,-66.54 88.96,-65.86 88.05,-65.19 85.81,-63.88 83.57,-62.57 79.43,-60.05 75.28,-57.52 69.19,-53.11 63.10,-48.70 51.48,-39.95 39.87,-31.20 20.42,-15.02 0.97,1.15 0.82,1.25 0.67,1.35 0.50,1.41 0.32,1.48 0.14,1.49 -0.03,1.51 -0.21,1.48 -0.39,1.46 -0.56,1.39 -0.73,1.32 -0.88,1.21 -1.03,1.11 -1.14,0.97 -1.26,0.83 -1.34,0.66 -1.42,0.50 -1.46,0.32 -1.50,0.14 -1.50,-0.03 -1.50,-0.21 -1.45,-0.39 -1.40,-0.57 -1.31,-0.73 -1.22,-0.89 -1.10,-1.02 -0.97,-1.15 -0.97,-1.15 L -0.97,-1.15 Z"></path></g><g transform="translate(778.7999877929688 617.8499755859375) rotate(0 46.800018310546875 10.800018310546875)" stroke="none"><path fill="#000" d="M -1.60,0 Q -1.60,0 -1.79,-0.91 -1.97,-1.83 -1.99,-2.46 -2.01,-3.08 -1.98,-3.32 -1.95,-3.56 -1.86,-3.79 -1.78,-4.01 -1.64,-4.21 -1.50,-4.41 -1.32,-4.57 -1.14,-4.73 -0.92,-4.85 -0.71,-4.96 -0.47,-5.02 -0.24,-5.08 0.00,-5.08 0.24,-5.08 0.47,-5.02 0.71,-4.96 0.92,-4.85 1.14,-4.73 1.32,-4.57 1.50,-4.41 1.64,-4.21 1.78,-4.01 1.86,-3.79 1.95,-3.56 1.98,-3.32 2.01,-3.08 28.19,4.26 54.37,11.61 65.72,15.38 77.07,19.16 77.26,19.25 77.45,19.35 77.60,19.50 77.75,19.65 77.85,19.84 77.94,20.03 77.97,20.24 78.00,20.45 77.96,20.66 77.92,20.87 77.82,21.05 77.71,21.24 77.55,21.38 77.40,21.52 77.20,21.60 77.01,21.69 76.79,21.71 76.58,21.72 76.38,21.67 76.17,21.62 75.99,21.51 75.81,21.39 75.68,21.23 75.55,21.06 75.47,20.86 75.40,20.66 75.39,20.45 75.39,20.24 75.45,20.03 75.51,19.83 75.64,19.66 75.76,19.49 75.93,19.36 76.10,19.24 76.31,19.18 76.51,19.11 76.72,19.12 76.94,19.12 77.14,19.20 77.33,19.27 77.50,19.40 77.67,19.54 77.78,19.72 77.89,19.89 77.95,20.10 78.00,20.31 77.98,20.52 77.96,20.73 77.88,20.93 77.80,21.12 77.65,21.28 77.51,21.44 77.33,21.54 77.14,21.65 76.93,21.69 76.72,21.73 76.51,21.70 76.30,21.67 76.30,21.67 76.30,21.67 64.78,18.44 53.26,15.20 25.62,6.06 -2.01,-3.08 -1.98,-3.32 -1.95,-3.56 -1.86,-3.79 -1.78,-4.01 -1.64,-4.21 -1.50,-4.41 -1.32,-4.57 -1.14,-4.73 -0.92,-4.85 -0.71,-4.96 -0.47,-5.02 -0.24,-5.08 -0.00,-5.08 0.24,-5.08 0.47,-5.02 0.71,-4.96 0.92,-4.85 1.14,-4.73 1.32,-4.57 1.50,-4.41 1.64,-4.21 1.78,-4.01 1.86,-3.79 1.95,-3.56 1.98,-3.32 2.01,-3.08 1.99,-2.46 1.97,-1.83 1.79,-0.91 1.60,0 1.58,0.19 1.55,0.38 1.48,0.56 1.41,0.74 1.31,0.90 1.20,1.06 1.05,1.19 0.91,1.31 0.73,1.40 0.56,1.49 0.38,1.54 0.19,1.59 -0.00,1.59 -0.19,1.59 -0.38,1.54 -0.56,1.49 -0.73,1.40 -0.91,1.31 -1.05,1.19 -1.20,1.06 -1.31,0.90 -1.41,0.74 -1.48,0.56 -1.55,0.38 -1.58,0.19 -1.60,-0.00 -1.60,-0.00 L -1.60,0 Z"></path></g><g transform="translate(967.5999755859375 579.4500122070312) rotate(0 -47.999969482421875 34.79998779296875)" stroke="none"><path fill="#000" d="M 0.91,1.30 Q 0.91,1.30 -20.97,16.99 -42.86,32.67 -53.16,39.91 -63.46,47.14 -68.06,50.44 -72.66,53.74 -75.11,55.39 -77.56,57.04 -78.69,58.09 -79.82,59.14 -81.12,60.14 -82.42,61.15 -83.35,61.96 -84.28,62.78 -85.04,63.71 -85.80,64.65 -86.99,65.69 -88.18,66.74 -89.59,67.84 -91.00,68.95 -93.80,68.68 -96.59,68.42 -96.73,68.26 -96.86,68.09 -96.93,67.89 -97.01,67.69 -97.01,67.48 -97.02,67.27 -96.96,67.06 -96.89,66.86 -96.77,66.69 -96.64,66.52 -96.47,66.39 -96.30,66.27 -96.10,66.21 -95.89,66.14 -95.68,66.15 -95.47,66.16 -95.27,66.23 -95.07,66.30 -94.90,66.44 -94.74,66.57 -94.62,66.75 -94.51,66.93 -94.46,67.13 -94.41,67.34 -94.42,67.55 -94.44,67.76 -94.53,67.96 -94.61,68.15 -94.75,68.31 -94.89,68.47 -95.08,68.57 -95.26,68.68 -95.47,68.72 -95.68,68.76 -95.89,68.73 -96.10,68.70 -96.29,68.61 -96.48,68.51 -96.63,68.36 -96.78,68.21 -96.88,68.02 -96.97,67.83 -97.00,67.62 -97.03,67.41 -96.99,67.20 -96.95,66.99 -96.84,66.81 -96.74,66.62 -96.58,66.48 -96.42,66.34 -96.23,66.25 -96.03,66.17 -95.82,66.15 -95.61,66.14 -95.40,66.19 -95.20,66.24 -95.02,66.35 -94.84,66.47 -94.84,66.47 -94.84,66.47 -94.29,65.96 -93.73,65.46 -92.40,64.41 -91.07,63.37 -90.13,62.59 -89.20,61.81 -88.21,60.63 -87.21,59.46 -86.18,58.54 -85.15,57.63 -84.00,56.73 -82.85,55.84 -81.46,54.58 -80.08,53.32 -77.69,51.69 -75.30,50.07 -70.68,46.76 -66.06,43.44 -55.76,36.20 -45.45,28.96 -23.18,13.82 -0.91,-1.30 -0.74,-1.39 -0.57,-1.48 -0.38,-1.53 -0.20,-1.58 -0.00,-1.58 0.18,-1.58 0.37,-1.54 0.55,-1.49 0.72,-1.40 0.90,-1.31 1.04,-1.19 1.18,-1.06 1.29,-0.90 1.40,-0.74 1.47,-0.56 1.54,-0.38 1.57,-0.19 1.59,-0.00 1.57,0.18 1.55,0.37 1.48,0.55 1.41,0.73 1.30,0.89 1.20,1.05 1.05,1.18 0.91,1.30 0.91,1.30 L 0.91,1.30 Z"></path></g><g transform="translate(963.5999755859375 581.8499755859375) rotate(0 59.60003662109375 -6.399993896484375)" stroke="none"><path fill="#000" d="M -0.24,-1.38 Q -0.24,-1.38 8.65,-3.34 17.56,-5.31 22.99,-6.23 28.42,-7.15 32.41,-7.55 36.40,-7.95 42.23,-8.36 48.07,-8.76 54.68,-9.16 61.30,-9.56 68.02,-9.95 74.74,-10.35 80.81,-10.75 86.87,-11.14 91.74,-11.54 96.60,-11.94 101.20,-12.34 105.80,-12.74 108.86,-13.14 111.93,-13.54 114.13,-12.98 116.32,-12.43 116.32,-12.64 116.33,-12.85 116.40,-13.05 116.47,-13.26 116.60,-13.42 116.73,-13.59 116.90,-13.71 117.08,-13.83 117.28,-13.88 117.49,-13.94 117.70,-13.92 117.91,-13.91 118.11,-13.83 118.31,-13.75 118.47,-13.61 118.63,-13.47 118.74,-13.29 118.84,-13.11 118.89,-12.90 118.93,-12.69 118.91,-12.48 118.88,-12.27 118.79,-12.08 118.70,-11.89 118.55,-11.73 118.41,-11.58 118.22,-11.48 118.03,-11.38 117.82,-11.35 117.61,-11.32 117.40,-11.35 117.19,-11.39 117.00,-11.49 116.82,-11.59 116.67,-11.75 116.53,-11.90 116.44,-12.10 116.35,-12.29 116.33,-12.50 116.31,-12.71 116.36,-12.92 116.40,-13.13 116.52,-13.31 116.63,-13.49 116.79,-13.63 116.95,-13.76 117.15,-13.84 117.35,-13.92 117.56,-13.93 117.77,-13.94 117.98,-13.88 118.18,-13.82 118.36,-13.70 118.53,-13.58 118.66,-13.41 118.79,-13.24 118.85,-13.03 118.92,-12.83 118.92,-12.83 118.92,-12.83 115.70,-11.05 112.48,-9.27 109.33,-8.87 106.17,-8.47 101.56,-8.07 96.95,-7.67 92.05,-7.27 87.15,-6.87 81.07,-6.46 74.99,-6.06 68.28,-5.66 61.56,-5.26 54.96,-4.86 48.36,-4.46 42.59,-4.07 36.82,-3.69 32.98,-3.31 29.14,-2.93 23.72,-2.03 18.31,-1.12 9.28,0.12 0.24,1.38 0.07,1.38 -0.08,1.39 -0.25,1.36 -0.42,1.33 -0.57,1.26 -0.72,1.19 -0.86,1.09 -0.99,0.98 -1.09,0.85 -1.20,0.72 -1.27,0.56 -1.34,0.41 -1.37,0.24 -1.40,0.07 -1.38,-0.08 -1.37,-0.25 -1.32,-0.41 -1.27,-0.58 -1.18,-0.72 -1.10,-0.86 -0.98,-0.98 -0.86,-1.10 -0.71,-1.19 -0.57,-1.28 -0.40,-1.33 -0.24,-1.38 -0.24,-1.38 L -0.24,-1.38 Z"></path></g><g transform="translate(953.2000732421875 603.4500122070312) rotate(0 74.79998779296875 -8)" stroke="none"><path fill="#000" d="M -0.18,-1.66 Q -0.18,-1.66 10.13,-3.06 20.45,-4.47 29.87,-5.88 39.29,-7.29 49.10,-8.35 58.92,-9.41 68.60,-10.32 78.29,-11.23 87.46,-12.07 96.64,-12.91 107.25,-13.47 117.86,-14.02 125.13,-14.26 132.40,-14.50 136.82,-14.83 141.24,-15.17 143.35,-15.31 145.46,-15.45 146.93,-16.06 148.39,-16.67 148.57,-16.79 148.75,-16.91 148.95,-16.96 149.16,-17.02 149.37,-17.01 149.58,-16.99 149.78,-16.91 149.98,-16.83 150.14,-16.69 150.30,-16.56 150.41,-16.37 150.52,-16.19 150.56,-15.98 150.60,-15.78 150.58,-15.56 150.56,-15.35 150.47,-15.16 150.38,-14.97 150.23,-14.81 150.08,-14.66 149.89,-14.56 149.70,-14.46 149.49,-14.43 149.28,-14.40 149.08,-14.43 148.87,-14.47 148.68,-14.57 148.49,-14.67 148.35,-14.83 148.20,-14.98 148.11,-15.17 148.02,-15.37 148.00,-15.58 147.98,-15.79 148.03,-16.00 148.08,-16.20 148.19,-16.39 148.30,-16.57 148.46,-16.70 148.62,-16.84 148.82,-16.92 149.02,-17.00 149.23,-17.01 149.44,-17.02 149.65,-16.96 149.85,-16.90 150.03,-16.78 150.20,-16.66 150.33,-16.49 150.46,-16.32 150.52,-16.12 150.59,-15.92 150.59,-15.70 150.59,-15.49 150.52,-15.29 150.45,-15.09 150.32,-14.92 150.19,-14.75 150.19,-14.75 150.19,-14.75 148.01,-13.04 145.84,-11.32 143.70,-11.17 141.56,-11.02 137.05,-10.69 132.55,-10.35 125.32,-10.09 118.09,-9.82 107.56,-9.20 97.04,-8.57 87.87,-7.72 78.70,-6.87 69.05,-5.96 59.39,-5.05 49.66,-3.99 39.94,-2.94 30.44,-1.53 20.94,-0.12 10.56,0.76 0.18,1.66 -0.01,1.66 -0.21,1.66 -0.41,1.61 -0.61,1.56 -0.78,1.46 -0.96,1.36 -1.11,1.23 -1.26,1.09 -1.37,0.93 -1.49,0.76 -1.56,0.57 -1.63,0.38 -1.65,0.18 -1.67,-0.01 -1.64,-0.21 -1.62,-0.41 -1.54,-0.60 -1.47,-0.79 -1.35,-0.95 -1.24,-1.12 -1.09,-1.25 -0.93,-1.38 -0.75,-1.48 -0.57,-1.57 -0.38,-1.61 -0.18,-1.66 -0.18,-1.66 L -0.18,-1.66 Z"></path></g><g transform="translate(786 617.0499877929688) rotate(0 -38 10)" stroke="none"><path fill="#000" d="M 0,1.62 Q 0,1.62 -2.29,1.85 -4.59,2.08 -6.61,2.31 -8.62,2.55 -11.51,3.12 -14.40,3.69 -17.30,4.18 -20.20,4.66 -23.20,5.31 -26.21,5.97 -29.57,6.73 -32.93,7.49 -36.43,8.29 -39.92,9.10 -42.98,9.90 -46.04,10.69 -49.19,11.50 -52.35,12.31 -54.35,12.87 -56.35,13.43 -61.65,15.87 -66.95,18.32 -69.48,18.95 -72.01,19.59 -72.21,19.65 -72.42,19.70 -72.63,19.69 -72.84,19.68 -73.04,19.60 -73.24,19.53 -73.40,19.39 -73.56,19.25 -73.67,19.07 -73.78,18.89 -73.83,18.68 -73.87,18.47 -73.85,18.26 -73.83,18.05 -73.74,17.86 -73.65,17.66 -73.51,17.51 -73.36,17.35 -73.17,17.25 -72.98,17.15 -72.77,17.12 -72.57,17.09 -72.36,17.12 -72.15,17.15 -71.96,17.25 -71.77,17.35 -71.62,17.51 -71.48,17.66 -71.39,17.85 -71.30,18.04 -71.27,18.26 -71.25,18.47 -71.30,18.67 -71.34,18.88 -71.45,19.06 -71.56,19.25 -71.72,19.38 -71.88,19.52 -72.08,19.60 -72.28,19.68 -72.49,19.69 -72.70,19.70 -72.91,19.65 -73.11,19.59 -73.29,19.47 -73.46,19.35 -73.59,19.18 -73.72,19.02 -73.79,18.81 -73.86,18.61 -73.86,18.40 -73.86,18.19 -73.79,17.99 -73.72,17.79 -73.60,17.62 -73.47,17.45 -73.29,17.33 -73.12,17.21 -73.12,17.21 -73.12,17.21 -71.00,15.68 -68.89,14.16 -63.26,11.52 -57.63,8.88 -55.57,8.31 -53.51,7.73 -50.35,6.95 -47.19,6.16 -44.05,5.38 -40.91,4.60 -37.40,3.86 -33.89,3.11 -30.51,2.39 -27.13,1.68 -24.01,1.01 -20.90,0.35 -18.05,-0.09 -15.20,-0.54 -12.14,-1.08 -9.08,-1.63 -6.84,-1.85 -4.60,-2.08 -2.30,-1.85 0,-1.62 0.19,-1.60 0.38,-1.58 0.57,-1.51 0.75,-1.44 0.91,-1.33 1.08,-1.21 1.21,-1.07 1.34,-0.92 1.43,-0.75 1.52,-0.57 1.56,-0.38 1.61,-0.19 1.61,0.00 1.61,0.19 1.56,0.38 1.52,0.57 1.43,0.75 1.34,0.92 1.21,1.07 1.08,1.21 0.91,1.33 0.75,1.44 0.57,1.51 0.38,1.58 0.19,1.60 -0.00,1.62 -0.00,1.62 L 0,1.62 Z"></path></g><g transform="translate(1090.800048828125 553.0499877929688) rotate(0 9.20001220703125 28.800018310546875)" stroke="none"><path fill="#000" d="M 1.59,-0.41 Q 1.59,-0.41 4.43,9.16 7.27,18.74 9.26,25.33 11.25,31.92 12.33,35.68 13.41,39.43 14.54,42.56 15.66,45.69 16.60,48.18 17.55,50.67 18.17,52.44 18.79,54.21 17.54,54.18 16.29,54.15 16.32,53.94 16.35,53.73 16.45,53.54 16.54,53.35 16.69,53.20 16.85,53.05 17.04,52.95 17.23,52.86 17.44,52.83 17.65,52.81 17.86,52.85 18.07,52.89 18.25,52.99 18.43,53.10 18.58,53.26 18.72,53.42 18.80,53.61 18.88,53.81 18.90,54.02 18.91,54.23 18.86,54.44 18.81,54.64 18.69,54.82 18.58,55.00 18.41,55.13 18.25,55.27 18.05,55.34 17.85,55.41 17.63,55.41 17.42,55.42 17.22,55.35 17.02,55.29 16.84,55.17 16.67,55.04 16.55,54.87 16.43,54.69 16.37,54.49 16.30,54.29 16.31,54.08 16.32,53.86 16.39,53.66 16.47,53.47 16.60,53.30 16.73,53.14 16.91,53.02 17.09,52.91 17.30,52.86 17.51,52.81 17.72,52.83 17.93,52.85 18.13,52.93 18.32,53.02 18.48,53.16 18.63,53.30 18.74,53.49 18.84,53.67 18.88,53.88 18.92,54.09 18.92,54.09 18.92,54.09 16.72,54.94 14.52,55.78 13.88,54.04 13.24,52.30 12.29,49.77 11.33,47.24 10.16,43.97 8.99,40.70 7.92,36.98 6.84,33.25 4.84,26.57 2.84,19.89 0.62,10.15 -1.59,0.41 -1.62,0.22 -1.65,0.02 -1.62,-0.17 -1.60,-0.37 -1.54,-0.55 -1.47,-0.74 -1.36,-0.91 -1.25,-1.07 -1.10,-1.21 -0.95,-1.34 -0.78,-1.43 -0.60,-1.53 -0.41,-1.58 -0.22,-1.63 -0.02,-1.63 0.17,-1.64 0.36,-1.59 0.56,-1.55 0.74,-1.46 0.91,-1.37 1.06,-1.24 1.21,-1.11 1.33,-0.95 1.45,-0.78 1.52,-0.60 1.59,-0.41 1.59,-0.41 L 1.59,-0.41 Z"></path></g><g transform="translate(1081.2000732421875 561.8499755859375) rotate(0 55.199951171875 -10.79998779296875)" stroke="none"><path fill="#000" d="M -0.54,-1.50 Q -0.54,-1.50 1.90,-2.65 4.35,-3.79 8.79,-4.70 13.24,-5.60 19.18,-6.89 25.13,-8.17 34.79,-10.32 44.45,-12.48 55.23,-14.77 66.02,-17.06 79.22,-18.68 92.42,-20.30 98.00,-21.00 103.58,-21.70 103.79,-21.70 104.01,-21.70 104.21,-21.62 104.41,-21.55 104.57,-21.42 104.74,-21.29 104.86,-21.11 104.97,-20.93 105.03,-20.73 105.08,-20.52 105.06,-20.31 105.05,-20.10 104.97,-19.90 104.88,-19.71 104.74,-19.55 104.60,-19.39 104.42,-19.28 104.23,-19.18 104.03,-19.13 103.82,-19.09 103.61,-19.12 103.40,-19.15 103.20,-19.24 103.01,-19.33 102.86,-19.48 102.71,-19.63 102.61,-19.82 102.52,-20.01 102.49,-20.22 102.46,-20.43 102.50,-20.64 102.53,-20.85 102.64,-21.03 102.74,-21.22 102.90,-21.36 103.05,-21.50 103.25,-21.59 103.44,-21.68 103.65,-21.69 103.87,-21.71 104.07,-21.66 104.28,-21.61 104.46,-21.50 104.64,-21.39 104.77,-21.22 104.91,-21.06 104.98,-20.86 105.06,-20.66 105.07,-20.45 105.07,-20.24 105.01,-20.03 104.95,-19.83 104.83,-19.66 104.71,-19.48 104.54,-19.36 104.36,-19.23 104.16,-19.17 103.96,-19.10 103.96,-19.10 103.96,-19.10 98.41,-18.19 92.86,-17.28 79.88,-15.11 66.90,-12.94 56.13,-10.64 45.37,-8.34 35.69,-6.19 26.02,-4.03 20.04,-2.75 14.05,-1.47 9.91,-0.67 5.76,0.11 3.15,0.81 0.54,1.50 0.35,1.54 0.17,1.59 -0.02,1.58 -0.21,1.58 -0.40,1.53 -0.58,1.48 -0.75,1.39 -0.92,1.30 -1.06,1.17 -1.21,1.04 -1.31,0.88 -1.42,0.72 -1.49,0.54 -1.55,0.36 -1.57,0.16 -1.59,-0.02 -1.57,-0.21 -1.54,-0.40 -1.47,-0.58 -1.40,-0.76 -1.29,-0.92 -1.18,-1.07 -1.03,-1.20 -0.89,-1.32 -0.71,-1.41 -0.54,-1.50 -0.54,-1.50 L -0.54,-1.50 Z"></path></g><g transform="translate(1129.2000732421875 625.8499755859375) rotate(0 32.39996337890625 -9.199981689453125)" stroke="none"><path fill="#000" d="M -0.52,-1.82 Q -0.52,-1.82 1.06,-2.35 2.66,-2.87 5.20,-3.54 7.75,-4.21 12.71,-5.63 17.66,-7.06 22.80,-8.36 27.94,-9.66 34.71,-11.36 41.49,-13.06 48.07,-14.87 54.66,-16.67 57.47,-17.50 60.27,-18.32 60.48,-18.36 60.69,-18.39 60.90,-18.35 61.11,-18.31 61.30,-18.21 61.49,-18.11 61.63,-17.95 61.77,-17.79 61.86,-17.60 61.95,-17.41 61.97,-17.19 61.99,-16.98 61.94,-16.78 61.89,-16.57 61.78,-16.39 61.66,-16.21 61.50,-16.07 61.34,-15.94 61.14,-15.86 60.94,-15.79 60.73,-15.78 60.51,-15.77 60.31,-15.83 60.11,-15.89 59.93,-16.01 59.76,-16.13 59.63,-16.30 59.51,-16.48 59.44,-16.68 59.38,-16.88 59.38,-17.09 59.38,-17.31 59.45,-17.51 59.52,-17.71 59.66,-17.87 59.79,-18.04 59.96,-18.16 60.14,-18.27 60.35,-18.33 60.55,-18.38 60.76,-18.37 60.98,-18.35 61.17,-18.27 61.37,-18.19 61.53,-18.05 61.69,-17.91 61.80,-17.73 61.90,-17.54 61.94,-17.33 61.99,-17.13 61.96,-16.91 61.94,-16.70 61.84,-16.51 61.75,-16.32 61.60,-16.17 61.45,-16.02 61.26,-15.92 61.08,-15.82 61.08,-15.82 61.08,-15.82 58.31,-14.86 55.55,-13.90 49.01,-11.50 42.48,-9.10 35.72,-7.40 28.95,-5.69 23.87,-4.40 18.79,-3.11 13.79,-1.68 8.78,-0.24 6.28,0.39 3.77,1.03 2.15,1.43 0.52,1.82 0.29,1.86 0.06,1.89 -0.15,1.87 -0.38,1.85 -0.60,1.78 -0.82,1.71 -1.01,1.58 -1.20,1.46 -1.36,1.30 -1.52,1.13 -1.63,0.93 -1.74,0.73 -1.81,0.51 -1.87,0.29 -1.88,0.06 -1.89,-0.15 -1.84,-0.38 -1.79,-0.60 -1.70,-0.81 -1.60,-1.02 -1.45,-1.19 -1.31,-1.37 -1.12,-1.51 -0.94,-1.64 -0.73,-1.73 -0.52,-1.82 -0.52,-1.82 L -0.52,-1.82 Z"></path></g><g transform="translate(713.2000122070312 647.4500122070312) rotate(0 -80 -34)" stroke="none"><path fill="#000" d="M -1.73,0.24 Q -1.73,0.24 -5.05,-22.27 -8.38,-44.80 -9.75,-54.61 -11.12,-64.42 -11.92,-68.78 -12.73,-73.13 -13.28,-74.89 -13.83,-76.65 -14.52,-78.64 -15.22,-80.64 -15.86,-82.42 -16.51,-84.20 -16.89,-85.35 -17.28,-86.49 -17.67,-87.89 -18.06,-89.29 -18.11,-89.52 -18.16,-89.76 -18.15,-89.99 -18.14,-90.23 -18.08,-90.45 -18.02,-90.68 -17.90,-90.88 -17.78,-91.09 -17.62,-91.26 -17.46,-91.43 -17.26,-91.56 -17.06,-91.68 -16.84,-91.76 -16.61,-91.84 -16.38,-91.86 -16.14,-91.88 -15.91,-91.84 -15.68,-91.80 -15.46,-91.71 -15.24,-91.62 -15.05,-91.48 -14.87,-91.34 -14.72,-91.16 -14.57,-90.97 -14.46,-90.76 -14.36,-90.55 -32.87,-83.48 -51.37,-76.40 -61.51,-73.22 -71.65,-70.04 -77.36,-68.45 -83.07,-66.86 -86.91,-65.96 -90.74,-65.05 -94.43,-64.20 -98.12,-63.36 -101.09,-62.76 -104.06,-62.17 -106.71,-61.68 -109.36,-61.20 -112.77,-60.54 -116.17,-59.88 -119.44,-59.15 -122.70,-58.41 -125.93,-57.64 -129.16,-56.87 -132.43,-56.30 -135.71,-55.72 -138.63,-55.04 -141.55,-54.35 -144.48,-53.81 -147.40,-53.28 -150.25,-52.82 -153.10,-52.36 -154.19,-53.20 -155.28,-54.05 -153.96,-40.64 -152.64,-27.23 -151.88,-20.86 -151.11,-14.49 -150.55,-9.70 -149.98,-4.91 -149.74,-1.68 -149.49,1.53 -149.17,3.49 -148.84,5.44 -148.69,7.07 -148.54,8.70 -147.94,10.79 -147.34,12.87 -146.95,14.32 -146.56,15.76 -145.92,16.86 -145.27,17.97 -144.06,19.55 -142.85,21.12 -118.31,18.84 -93.76,16.56 -82.26,15.58 -70.76,14.59 -64.01,14.17 -57.26,13.75 -53.30,13.34 -49.33,12.94 -46.52,12.54 -43.70,12.15 -41.12,11.75 -38.54,11.35 -35.42,10.73 -32.29,10.11 -29.88,9.40 -27.46,8.69 -25.21,8.14 -22.95,7.59 -20.94,6.93 -18.93,6.26 -17.35,5.74 -15.77,5.22 -14.25,4.96 -12.74,4.70 -11.63,4.59 -10.52,4.49 -8.97,4.24 -7.42,3.99 -6.33,3.87 -5.24,3.76 -4.11,2.79 -2.97,1.82 -2.82,1.67 -2.67,1.52 -2.48,1.43 -2.28,1.34 -2.07,1.31 -1.86,1.29 -1.65,1.33 -1.45,1.37 -1.26,1.48 -1.08,1.59 -0.94,1.74 -0.80,1.90 -0.72,2.10 -0.64,2.30 -0.62,2.51 -0.61,2.72 -0.66,2.93 -0.71,3.13 -0.83,3.31 -0.95,3.49 -1.11,3.62 -1.28,3.75 -1.48,3.82 -1.68,3.89 -1.89,3.89 -2.11,3.90 -2.31,3.83 -2.51,3.77 -2.68,3.64 -2.85,3.52 -2.98,3.34 -3.10,3.17 -3.16,2.96 -3.22,2.76 -3.21,2.55 -3.20,2.34 -3.12,2.14 -3.05,1.94 -2.91,1.77 -2.78,1.61 -2.60,1.50 -2.42,1.39 -2.21,1.34 -2.00,1.29 -1.79,1.31 -1.58,1.33 -1.39,1.41 -1.19,1.50 -1.04,1.64 -0.88,1.79 -0.78,1.97 -0.68,2.16 -0.64,2.37 -0.60,2.58 -0.63,2.79 -0.66,3.00 -0.76,3.19 -0.86,3.38 -0.86,3.38 -0.86,3.38 -2.10,5.34 -3.35,7.30 -4.81,7.62 -6.27,7.93 -7.34,8.22 -8.42,8.50 -10.25,8.63 -12.08,8.75 -13.28,8.93 -14.49,9.12 -16.06,9.64 -17.64,10.17 -19.81,10.88 -21.98,11.60 -24.14,12.12 -26.31,12.65 -28.90,13.40 -31.48,14.15 -34.70,14.79 -37.91,15.43 -40.52,15.83 -43.12,16.24 -46.02,16.65 -48.91,17.06 -52.96,17.47 -57.01,17.88 -63.71,18.29 -70.41,18.71 -81.89,19.69 -93.38,20.67 -118.79,22.83 -144.20,24.99 -145.26,24.18 -146.32,23.36 -147.04,22.39 -147.77,21.41 -148.71,20.13 -149.64,18.85 -150.10,17.85 -150.55,16.84 -150.92,15.46 -151.30,14.07 -151.66,12.86 -152.03,11.65 -152.34,10.37 -152.66,9.08 -152.79,7.59 -152.93,6.10 -153.26,3.97 -153.60,1.84 -153.83,-1.29 -154.06,-4.44 -154.60,-9.22 -155.15,-14.01 -155.92,-20.43 -156.69,-26.85 -157.90,-40.28 -159.11,-53.71 -156.41,-54.94 -153.71,-56.17 -150.90,-56.62 -148.09,-57.07 -145.26,-57.59 -142.43,-58.10 -139.40,-58.81 -136.37,-59.52 -133.21,-60.07 -130.05,-60.62 -126.80,-61.39 -123.55,-62.17 -120.23,-62.92 -116.91,-63.67 -113.48,-64.34 -110.05,-65.01 -107.44,-65.48 -104.82,-65.96 -101.90,-66.54 -98.98,-67.13 -95.31,-67.97 -91.63,-68.81 -87.87,-69.70 -84.11,-70.60 -78.46,-72.16 -72.80,-73.73 -62.68,-76.90 -52.57,-80.07 -35.32,-84.68 -18.06,-89.29 -18.11,-89.52 -18.16,-89.76 -18.15,-89.99 -18.14,-90.23 -18.08,-90.45 -18.02,-90.68 -17.90,-90.88 -17.78,-91.09 -17.62,-91.26 -17.46,-91.43 -17.26,-91.56 -17.06,-91.68 -16.84,-91.76 -16.61,-91.84 -16.38,-91.86 -16.14,-91.88 -15.91,-91.84 -15.68,-91.80 -15.46,-91.71 -15.24,-91.62 -15.05,-91.48 -14.87,-91.34 -14.72,-91.16 -14.57,-90.97 -14.46,-90.76 -14.36,-90.55 -13.97,-89.15 -13.57,-87.75 -13.19,-86.62 -12.81,-85.49 -12.45,-84.47 -12.09,-83.44 -11.60,-81.77 -11.10,-80.10 -10.58,-78.96 -10.06,-77.81 -9.46,-75.83 -8.86,-73.85 -8.04,-69.41 -7.23,-64.97 -5.86,-55.16 -4.49,-45.35 -1.38,-22.80 1.73,-0.24 1.73,-0.03 1.74,0.17 1.69,0.38 1.64,0.58 1.55,0.77 1.46,0.96 1.32,1.12 1.18,1.28 1.01,1.40 0.84,1.53 0.65,1.61 0.45,1.69 0.24,1.72 0.03,1.75 -0.17,1.72 -0.38,1.70 -0.58,1.63 -0.78,1.56 -0.95,1.45 -1.13,1.33 -1.27,1.17 -1.41,1.02 -1.52,0.83 -1.62,0.65 -1.67,0.45 -1.73,0.24 -1.73,0.24 L -1.73,0.24 Z"></path></g><g transform="translate(1134 560.25) rotate(0 -7.199951171875 16)" stroke="none"><path fill="#000" d="M -1.88,0.26 Q -1.88,0.26 -2.13,-1.33 -2.38,-2.93 -3.44,-3.08 -4.50,-3.24 -6.67,-1.85 -8.85,-0.47 -11.16,1.46 -13.47,3.40 -15.06,5.01 -16.64,6.62 -15.28,8.54 -13.91,10.45 -11.30,11.93 -8.69,13.40 -5.60,15.51 -2.50,17.61 0.02,19.71 2.55,21.81 4.28,24.60 6.02,27.40 4.78,31.33 3.54,35.25 -1.23,36.48 -6.00,37.70 -7.88,37.95 -9.77,38.21 -9.98,38.22 -10.19,38.24 -10.40,38.19 -10.60,38.14 -10.78,38.02 -10.96,37.91 -11.09,37.74 -11.22,37.57 -11.30,37.37 -11.37,37.17 -11.37,36.96 -11.38,36.75 -11.32,36.55 -11.25,36.34 -11.13,36.17 -11.00,36.00 -10.83,35.88 -10.66,35.75 -10.45,35.69 -10.25,35.63 -10.04,35.64 -9.82,35.64 -9.63,35.72 -9.43,35.79 -9.26,35.93 -9.10,36.06 -8.98,36.24 -8.87,36.42 -8.82,36.63 -8.77,36.83 -8.79,37.04 -8.81,37.26 -8.89,37.45 -8.98,37.64 -9.12,37.80 -9.26,37.96 -9.45,38.06 -9.63,38.17 -9.84,38.21 -10.05,38.25 -10.26,38.22 -10.47,38.19 -10.66,38.09 -10.85,38.00 -11.00,37.84 -11.15,37.69 -11.24,37.50 -11.34,37.31 -11.36,37.10 -11.39,36.89 -11.35,36.68 -11.31,36.47 -11.20,36.29 -11.10,36.10 -10.94,35.96 -10.78,35.82 -10.58,35.74 -10.39,35.66 -10.39,35.66 -10.39,35.66 -8.60,35.01 -6.81,34.37 -2.93,33.49 0.93,32.60 1.64,30.48 2.35,28.36 1.09,26.67 -0.15,24.99 -2.50,23.03 -4.85,21.07 -7.82,19.04 -10.78,17.02 -13.78,15.26 -16.77,13.51 -18.67,11.35 -20.58,9.19 -20.21,6.65 -19.84,4.11 -17.97,2.17 -16.10,0.22 -13.54,-1.87 -10.97,-3.97 -8.16,-5.60 -5.35,-7.23 -3.29,-7.36 -1.23,-7.50 -0.25,-6.64 0.72,-5.78 1.09,-4.64 1.46,-3.50 1.67,-1.88 1.88,-0.26 1.88,-0.03 1.89,0.18 1.84,0.41 1.79,0.63 1.69,0.84 1.58,1.04 1.43,1.22 1.29,1.39 1.10,1.53 0.91,1.66 0.70,1.75 0.49,1.83 0.26,1.86 0.03,1.90 -0.18,1.87 -0.41,1.85 -0.63,1.77 -0.84,1.70 -1.04,1.57 -1.23,1.45 -1.38,1.28 -1.54,1.11 -1.65,0.91 -1.76,0.71 -1.82,0.49 -1.88,0.26 -1.88,0.26 L -1.88,0.26 Z"></path></g><g transform="translate(1153.2000732421875 562.6500244140625) rotate(0 23.199951171875 10.799957275390625)" stroke="none"><path fill="#000" d="M 2.03,0.17 Q 2.03,0.17 1.24,8.21 0.45,16.25 0.16,18.56 -0.12,20.88 -0.24,21.38 -0.36,21.89 -0.41,22.11 -0.47,22.32 -0.57,22.52 -0.68,22.72 -0.83,22.89 -0.98,23.06 -1.17,23.18 -1.35,23.31 -1.57,23.39 -1.78,23.47 -2.00,23.49 -2.23,23.52 -2.45,23.49 -2.67,23.46 -2.88,23.38 -3.09,23.30 -3.28,23.17 -3.46,23.04 -3.61,22.87 -3.76,22.70 -3.86,22.50 -3.97,22.30 -4.02,22.08 -4.07,21.86 -4.07,21.63 -4.07,21.41 -3.18,20.46 -2.29,19.52 -0.78,19.31 0.72,19.09 2.12,19.59 3.51,20.09 4.72,21.41 5.94,22.73 6.64,24.04 7.35,25.35 7.87,26.61 8.39,27.87 13.24,26.03 18.09,24.20 20.25,23.37 22.41,22.53 24.06,22.01 25.71,21.49 26.57,20.75 27.42,20.01 27.89,18.57 28.36,17.13 28.60,14.33 28.85,11.52 28.97,8.89 29.09,6.26 28.91,3.62 28.74,0.98 28.44,-1.75 28.14,-4.48 28.02,-5.89 27.89,-7.29 27.59,-7.91 27.30,-8.53 27.30,-8.77 27.31,-9.00 27.37,-9.22 27.44,-9.44 27.55,-9.65 27.66,-9.85 27.82,-10.02 27.98,-10.19 28.18,-10.31 28.37,-10.44 28.59,-10.52 28.81,-10.59 29.04,-10.61 29.27,-10.64 29.50,-10.60 29.73,-10.57 29.95,-10.48 30.16,-10.39 30.35,-10.25 30.54,-10.11 30.68,-9.93 30.83,-9.76 30.94,-9.55 31.04,-9.34 31.09,-9.11 31.14,-8.88 31.01,-7.23 30.88,-5.58 34.39,0.39 37.89,6.36 39.44,9.35 41.00,12.34 41.85,13.78 42.71,15.22 43.82,15.79 44.93,16.36 46.35,16.12 47.78,15.88 47.98,15.80 48.17,15.72 48.39,15.70 48.60,15.69 48.80,15.74 49.01,15.80 49.19,15.92 49.36,16.03 49.49,16.20 49.62,16.37 49.69,16.57 49.76,16.77 49.77,16.98 49.77,17.19 49.70,17.40 49.64,17.60 49.51,17.77 49.38,17.94 49.21,18.06 49.03,18.18 48.83,18.24 48.62,18.30 48.41,18.29 48.20,18.28 48.00,18.20 47.80,18.13 47.64,17.99 47.48,17.86 47.37,17.67 47.25,17.49 47.21,17.29 47.16,17.08 47.18,16.87 47.20,16.66 47.29,16.46 47.38,16.27 47.52,16.11 47.66,15.96 47.85,15.86 48.04,15.76 48.25,15.72 48.46,15.68 48.67,15.71 48.88,15.75 49.07,15.84 49.25,15.94 49.40,16.09 49.55,16.25 49.64,16.44 49.73,16.63 49.76,16.84 49.78,17.05 49.74,17.26 49.69,17.47 49.59,17.65 49.48,17.84 49.32,17.97 49.16,18.11 49.16,18.11 49.16,18.11 46.72,19.10 44.29,20.09 42.62,19.44 40.95,18.79 40.21,17.98 39.46,17.17 38.55,15.63 37.63,14.10 36.10,11.17 34.57,8.24 30.82,1.36 27.06,-5.50 27.18,-7.02 27.30,-8.53 27.30,-8.76 27.31,-9.00 27.37,-9.22 27.44,-9.44 27.55,-9.65 27.66,-9.85 27.82,-10.02 27.98,-10.19 28.18,-10.31 28.37,-10.44 28.59,-10.52 28.81,-10.59 29.04,-10.61 29.27,-10.64 29.50,-10.60 29.73,-10.57 29.95,-10.48 30.16,-10.39 30.35,-10.25 30.54,-10.11 30.68,-9.93 30.83,-9.76 30.94,-9.55 31.04,-9.34 31.09,-9.11 31.14,-8.88 31.41,-8.30 31.68,-7.72 31.82,-6.31 31.95,-4.90 32.26,-2.08 32.57,0.74 32.74,3.59 32.92,6.45 32.78,9.17 32.64,11.90 32.27,15.21 31.91,18.52 30.94,20.64 29.97,22.76 28.52,23.90 27.08,25.04 25.48,25.70 23.89,26.36 21.66,27.21 19.44,28.07 13.49,29.97 7.54,31.88 6.06,30.65 4.58,29.43 4.13,28.33 3.69,27.22 2.72,25.35 1.75,23.47 0.69,22.68 -0.36,21.89 -0.41,22.11 -0.47,22.32 -0.57,22.52 -0.68,22.72 -0.83,22.89 -0.98,23.06 -1.17,23.18 -1.35,23.31 -1.57,23.39 -1.78,23.47 -2.00,23.49 -2.22,23.52 -2.45,23.49 -2.67,23.46 -2.88,23.38 -3.09,23.30 -3.28,23.17 -3.46,23.04 -3.61,22.87 -3.76,22.70 -3.86,22.50 -3.97,22.30 -4.02,22.08 -4.07,21.86 -4.07,21.63 -4.07,21.41 -3.93,20.90 -3.80,20.40 -3.51,18.17 -3.21,15.94 -2.62,7.88 -2.03,-0.17 -1.98,-0.41 -1.93,-0.65 -1.82,-0.87 -1.72,-1.10 -1.56,-1.29 -1.40,-1.48 -1.21,-1.62 -1.01,-1.77 -0.78,-1.87 -0.55,-1.96 -0.31,-2.00 -0.07,-2.04 0.17,-2.02 0.41,-2.00 0.65,-1.92 0.88,-1.84 1.09,-1.71 1.30,-1.57 1.47,-1.39 1.64,-1.22 1.76,-1.00 1.88,-0.79 1.95,-0.55 2.01,-0.31 2.02,-0.07 2.03,0.17 2.03,0.17 L 2.03,0.17 Z"></path></g><g transform="translate(1199.5999755859375 549.8499755859375) rotate(0 0.4000244140625 20)" stroke="none"><path fill="#000" d="M 1.88,-0.03 Q 1.88,-0.03 1.99,11.46 2.09,22.96 2.03,27.85 1.96,32.74 1.93,32.95 1.90,33.16 1.81,33.35 1.71,33.54 1.56,33.69 1.41,33.84 1.22,33.94 1.03,34.03 0.82,34.06 0.61,34.08 0.40,34.04 0.19,34.00 0.00,33.89 -0.17,33.79 -0.31,33.63 -0.45,33.47 -0.53,33.27 -0.62,33.08 -0.63,32.87 -0.65,32.65 -0.59,32.45 -0.54,32.24 -0.43,32.06 -0.31,31.89 -0.14,31.75 0.01,31.62 0.21,31.55 0.41,31.48 0.62,31.47 0.84,31.47 1.04,31.53 1.24,31.60 1.41,31.72 1.59,31.85 1.71,32.02 1.83,32.20 1.89,32.40 1.95,32.60 1.95,32.81 1.94,33.03 1.86,33.23 1.79,33.42 1.65,33.59 1.52,33.75 1.34,33.87 1.16,33.98 0.95,34.03 0.75,34.08 0.54,34.06 0.32,34.04 0.13,33.96 -0.05,33.87 -0.21,33.73 -0.37,33.59 -0.47,33.40 -0.58,33.21 -0.61,33.00 -0.65,32.80 -0.65,32.80 -0.65,32.80 -0.91,27.91 -1.17,23.03 -1.53,11.53 -1.88,0.03 -1.85,-0.18 -1.83,-0.41 -1.75,-0.62 -1.68,-0.84 -1.55,-1.03 -1.43,-1.21 -1.26,-1.37 -1.09,-1.52 -0.90,-1.63 -0.70,-1.74 -0.48,-1.80 -0.26,-1.86 -0.03,-1.86 0.18,-1.87 0.41,-1.82 0.63,-1.77 0.83,-1.67 1.03,-1.56 1.21,-1.42 1.38,-1.27 1.51,-1.09 1.64,-0.90 1.73,-0.69 1.81,-0.48 1.84,-0.26 1.88,-0.03 1.88,-0.03 L 1.88,-0.03 Z"></path></g><g transform="translate(1188.4000244140625 572.25) rotate(0 9.20001220703125 -4.399993896484375)" stroke="none"><path fill="#000" d="M -0.73,-1.53 Q -0.73,-1.53 4.59,-3.98 9.92,-6.43 12.21,-7.41 14.50,-8.39 14.71,-8.45 14.91,-8.51 15.13,-8.50 15.34,-8.49 15.54,-8.42 15.73,-8.34 15.90,-8.20 16.06,-8.07 16.17,-7.89 16.29,-7.71 16.33,-7.50 16.38,-7.29 16.36,-7.08 16.34,-6.87 16.25,-6.68 16.17,-6.48 16.02,-6.33 15.88,-6.17 15.69,-6.07 15.51,-5.97 15.30,-5.93 15.09,-5.89 14.88,-5.92 14.67,-5.96 14.48,-6.05 14.29,-6.15 14.14,-6.30 13.99,-6.45 13.90,-6.65 13.81,-6.84 13.78,-7.05 13.76,-7.26 13.80,-7.47 13.85,-7.68 13.95,-7.86 14.06,-8.04 14.22,-8.18 14.38,-8.32 14.58,-8.40 14.77,-8.48 14.99,-8.50 15.20,-8.51 15.40,-8.46 15.61,-8.40 15.79,-8.29 15.96,-8.17 16.09,-8.00 16.22,-7.84 16.29,-7.63 16.36,-7.43 16.37,-7.22 16.37,-7.01 16.30,-6.81 16.24,-6.60 16.11,-6.43 15.99,-6.26 15.81,-6.14 15.64,-6.02 15.64,-6.02 15.64,-6.02 13.43,-4.85 11.23,-3.68 5.98,-1.07 0.73,1.53 0.54,1.60 0.34,1.66 0.14,1.68 -0.06,1.70 -0.26,1.67 -0.46,1.63 -0.65,1.55 -0.84,1.47 -1.01,1.35 -1.17,1.23 -1.30,1.07 -1.43,0.91 -1.52,0.72 -1.61,0.54 -1.65,0.34 -1.69,0.14 -1.69,-0.06 -1.68,-0.26 -1.62,-0.46 -1.56,-0.66 -1.46,-0.84 -1.36,-1.01 -1.22,-1.16 -1.08,-1.31 -0.90,-1.42 -0.73,-1.53 -0.73,-1.53 L -0.73,-1.53 Z"></path></g><g transform="translate(1132.4000244140625 567.4500122070312) rotate(0 15.5999755859375 -3.600006103515625)" stroke="none"><path fill="#000" d="M -0.45,-1.96 Q -0.45,-1.96 8.55,-3.86 17.56,-5.76 21.41,-6.47 25.26,-7.17 25.48,-7.19 25.69,-7.20 25.89,-7.15 26.10,-7.09 26.28,-6.97 26.45,-6.86 26.58,-6.69 26.71,-6.52 26.78,-6.32 26.85,-6.12 26.86,-5.91 26.86,-5.70 26.79,-5.49 26.73,-5.29 26.60,-5.12 26.47,-4.95 26.30,-4.83 26.12,-4.71 25.92,-4.65 25.71,-4.59 25.50,-4.60 25.29,-4.61 25.09,-4.69 24.89,-4.76 24.73,-4.90 24.57,-5.03 24.46,-5.22 24.34,-5.40 24.30,-5.60 24.25,-5.81 24.27,-6.02 24.29,-6.23 24.38,-6.43 24.47,-6.62 24.61,-6.78 24.75,-6.93 24.94,-7.03 25.13,-7.13 25.34,-7.17 25.55,-7.21 25.76,-7.18 25.97,-7.14 26.16,-7.05 26.34,-6.95 26.49,-6.80 26.64,-6.64 26.73,-6.45 26.82,-6.26 26.85,-6.05 26.87,-5.84 26.83,-5.63 26.78,-5.42 26.68,-5.24 26.57,-5.05 26.41,-4.92 26.25,-4.78 26.05,-4.70 25.85,-4.61 25.85,-4.61 25.85,-4.61 22.08,-3.56 18.31,-2.51 9.38,-0.27 0.45,1.96 0.21,1.99 -0.03,2.02 -0.27,1.98 -0.51,1.95 -0.73,1.86 -0.96,1.77 -1.16,1.63 -1.36,1.49 -1.52,1.30 -1.67,1.12 -1.78,0.90 -1.89,0.68 -1.95,0.45 -2.00,0.21 -2.00,-0.02 -2.00,-0.27 -1.94,-0.50 -1.87,-0.74 -1.76,-0.95 -1.64,-1.17 -1.48,-1.35 -1.31,-1.53 -1.11,-1.66 -0.91,-1.80 -0.68,-1.88 -0.45,-1.96 -0.45,-1.96 L -0.45,-1.96 Z"></path></g><g transform="translate(581.2000122070312 625.0499877929688) rotate(0 60.399993896484375 6.4000244140625)" stroke="none"><path fill="#000" d="M 1.59,0.39 Q 1.59,0.39 -0.29,8.72 -2.18,17.04 -3.05,20.99 -3.92,24.93 -3.82,27.05 -3.71,29.16 -2.56,30.37 -1.41,31.57 0.04,31.76 1.50,31.94 3.02,31.42 4.55,30.90 6.04,29.88 7.52,28.86 8.80,27.59 10.09,26.33 10.75,24.84 11.40,23.36 11.69,21.91 11.98,20.46 11.88,18.84 11.78,17.22 11.48,15.36 11.18,13.49 11.43,14.70 11.67,15.91 12.87,16.03 14.08,16.14 15.93,15.56 17.78,14.98 20.84,13.41 23.91,11.85 26.14,10.50 28.38,9.15 29.83,8.33 31.29,7.50 35.61,4.63 39.93,1.76 42.34,1.55 44.75,1.34 46.31,2.98 47.87,4.63 48.67,6.07 49.46,7.52 50.03,8.85 50.60,10.18 51.05,11.15 51.49,12.11 52.34,13.30 53.19,14.48 54.48,15.51 55.76,16.55 55.91,16.73 56.06,16.92 56.16,17.13 56.26,17.34 56.30,17.57 56.35,17.81 56.33,18.04 56.32,18.28 56.25,18.50 56.19,18.73 56.07,18.93 55.95,19.13 55.78,19.30 55.62,19.47 55.42,19.59 55.22,19.72 54.99,19.79 54.77,19.86 54.53,19.88 54.30,19.90 54.06,19.86 53.83,19.82 53.62,19.72 53.40,19.63 53.21,19.48 53.03,19.34 55.36,11.76 57.70,4.18 58.76,1.20 59.83,-1.78 60.27,-3.23 60.71,-4.67 60.64,-5.05 60.57,-5.43 60.58,-5.65 60.60,-5.87 60.66,-6.09 60.73,-6.30 60.85,-6.49 60.96,-6.68 61.12,-6.84 61.28,-7.00 61.47,-7.11 61.66,-7.23 61.88,-7.29 62.09,-7.36 62.32,-7.37 62.54,-7.38 62.76,-7.34 62.98,-7.30 63.18,-7.21 63.38,-7.11 63.56,-6.98 63.73,-6.84 63.87,-6.66 64.01,-6.48 64.10,-6.28 64.19,-6.07 64.23,-5.86 64.27,-5.64 64.49,-4.37 64.71,-3.11 65.05,-1.16 65.38,0.79 65.75,2.75 66.12,4.72 66.51,6.70 66.90,8.68 67.65,10.30 68.40,11.92 68.46,12.15 68.51,12.37 68.51,12.60 68.50,12.83 68.45,13.05 68.39,13.28 68.28,13.48 68.17,13.68 68.01,13.85 67.86,14.03 67.67,14.15 67.48,14.28 67.26,14.36 67.04,14.44 66.81,14.47 66.59,14.49 66.36,14.46 66.13,14.43 65.91,14.35 65.70,14.26 65.51,14.13 65.32,14.00 65.17,13.82 65.02,13.65 64.92,13.44 64.81,13.24 67.57,6.55 70.32,-0.13 72.68,-2.07 75.04,-4.02 76.60,-4.39 78.15,-4.77 79.57,-4.34 80.99,-3.92 81.92,-3.10 82.86,-2.28 83.54,-1.10 84.21,0.08 84.84,1.02 85.48,1.97 86.93,0.85 88.38,-0.26 89.29,-2.81 90.20,-5.37 90.66,-8.84 91.12,-12.32 91.23,-12.53 91.34,-12.74 91.49,-12.92 91.65,-13.10 91.84,-13.23 92.03,-13.37 92.25,-13.45 92.47,-13.54 92.70,-13.57 92.93,-13.60 93.17,-13.57 93.40,-13.54 93.62,-13.46 93.84,-13.38 94.04,-13.25 94.23,-13.12 94.39,-12.94 94.54,-12.77 94.66,-12.56 94.77,-12.36 94.82,-12.13 94.88,-11.90 94.88,-11.67 94.89,-11.43 94.83,-11.20 94.78,-10.97 95.46,-9.60 96.15,-8.23 98.02,-9.95 99.90,-11.67 100.83,-12.76 101.77,-13.84 102.03,-14.94 102.29,-16.05 102.45,-17.20 102.61,-18.35 102.72,-19.66 102.83,-20.96 102.88,-21.18 102.93,-21.41 103.04,-21.62 103.14,-21.82 103.29,-22.00 103.44,-22.18 103.63,-22.31 103.82,-22.45 104.03,-22.54 104.25,-22.62 104.48,-22.65 104.71,-22.69 104.94,-22.66 105.17,-22.64 105.39,-22.56 105.61,-22.49 105.80,-22.36 105.99,-22.23 106.15,-22.06 106.31,-21.89 106.42,-21.69 106.53,-21.48 106.59,-21.26 106.65,-21.03 106.65,-20.80 106.66,-20.57 111.97,-19.73 117.28,-18.90 120.16,-18.31 123.03,-17.72 124.94,-17.83 126.85,-17.95 127.06,-17.95 127.28,-17.95 127.48,-17.88 127.68,-17.80 127.85,-17.67 128.01,-17.54 128.13,-17.37 128.25,-17.19 128.30,-16.98 128.35,-16.78 128.34,-16.57 128.33,-16.35 128.24,-16.16 128.16,-15.96 128.02,-15.80 127.88,-15.64 127.70,-15.53 127.52,-15.43 127.31,-15.38 127.10,-15.34 126.89,-15.37 126.68,-15.39 126.49,-15.48 126.30,-15.58 126.14,-15.72 125.99,-15.87 125.89,-16.06 125.80,-16.25 125.77,-16.46 125.73,-16.67 125.77,-16.88 125.81,-17.09 125.91,-17.27 126.01,-17.46 126.17,-17.61 126.32,-17.75 126.52,-17.84 126.71,-17.92 126.92,-17.94 127.14,-17.96 127.34,-17.91 127.55,-17.87 127.73,-17.75 127.91,-17.64 128.05,-17.48 128.18,-17.31 128.26,-17.12 128.33,-16.92 128.34,-16.71 128.35,-16.49 128.29,-16.29 128.23,-16.09 128.11,-15.91 127.99,-15.74 127.82,-15.61 127.65,-15.48 127.44,-15.42 127.24,-15.35 127.24,-15.35 127.24,-15.35 124.86,-14.82 122.47,-14.29 119.33,-14.80 116.19,-15.31 109.51,-18.13 102.83,-20.96 102.88,-21.18 102.93,-21.41 103.04,-21.62 103.14,-21.82 103.29,-22.00 103.44,-22.18 103.63,-22.31 103.82,-22.45 104.03,-22.54 104.25,-22.62 104.48,-22.65 104.71,-22.69 104.94,-22.66 105.17,-22.64 105.39,-22.56 105.60,-22.49 105.80,-22.36 105.99,-22.23 106.15,-22.06 106.31,-21.89 106.42,-21.69 106.53,-21.48 106.59,-21.26 106.65,-21.03 106.65,-20.80 106.66,-20.57 106.55,-19.19 106.43,-17.80 106.22,-16.36 106.01,-14.92 105.39,-13.17 104.78,-11.42 103.66,-10.12 102.54,-8.81 100.66,-7.08 98.78,-5.34 94.95,-8.83 91.12,-12.32 91.23,-12.53 91.34,-12.74 91.49,-12.92 91.65,-13.09 91.84,-13.23 92.03,-13.37 92.25,-13.45 92.47,-13.54 92.70,-13.57 92.93,-13.60 93.17,-13.57 93.40,-13.54 93.62,-13.46 93.84,-13.38 94.03,-13.25 94.23,-13.12 94.39,-12.94 94.54,-12.77 94.66,-12.56 94.77,-12.36 94.82,-12.13 94.88,-11.90 94.88,-11.67 94.89,-11.43 94.83,-11.20 94.78,-10.98 94.37,-7.49 93.96,-4.01 92.82,-1.00 91.68,1.99 90.63,3.38 89.57,4.76 88.38,5.40 87.19,6.04 85.04,5.49 82.88,4.94 81.80,3.42 80.71,1.90 80.08,0.77 79.45,-0.36 78.35,-0.61 77.24,-0.86 75.47,0.38 73.69,1.63 71.05,6.77 68.40,11.92 68.46,12.15 68.51,12.37 68.51,12.60 68.50,12.83 68.45,13.05 68.39,13.28 68.28,13.48 68.17,13.68 68.01,13.85 67.86,14.02 67.67,14.15 67.48,14.28 67.26,14.36 67.04,14.44 66.81,14.47 66.59,14.49 66.36,14.46 66.13,14.43 65.91,14.35 65.70,14.26 65.51,14.13 65.32,14.00 65.17,13.82 65.02,13.65 64.92,13.44 64.81,13.24 64.41,12.55 64.02,11.87 63.58,10.64 63.15,9.42 62.77,7.41 62.38,5.41 62.02,3.41 61.65,1.41 61.33,-0.54 61.01,-2.50 60.79,-3.97 60.57,-5.43 60.58,-5.65 60.60,-5.87 60.66,-6.09 60.73,-6.30 60.85,-6.49 60.96,-6.68 61.12,-6.84 61.28,-7.00 61.47,-7.11 61.66,-7.23 61.88,-7.29 62.09,-7.36 62.31,-7.37 62.54,-7.38 62.76,-7.34 62.98,-7.30 63.18,-7.21 63.38,-7.11 63.56,-6.98 63.73,-6.84 63.87,-6.66 64.01,-6.48 64.10,-6.28 64.19,-6.08 64.23,-5.86 64.27,-5.64 64.30,-4.65 64.33,-3.66 63.85,-2.08 63.38,-0.51 62.30,2.51 61.21,5.54 58.49,11.05 55.76,16.55 55.91,16.73 56.06,16.92 56.16,17.13 56.26,17.34 56.30,17.57 56.35,17.81 56.33,18.04 56.32,18.28 56.25,18.50 56.19,18.73 56.07,18.93 55.95,19.13 55.78,19.30 55.62,19.47 55.42,19.59 55.22,19.72 54.99,19.79 54.77,19.86 54.53,19.88 54.30,19.90 54.07,19.86 53.83,19.82 53.62,19.72 53.40,19.63 53.21,19.48 53.03,19.34 51.77,18.33 50.51,17.32 49.23,15.53 47.95,13.74 47.48,12.73 47.02,11.71 46.52,10.54 46.03,9.36 45.40,8.17 44.78,6.97 43.33,6.03 41.89,5.08 38.37,7.28 34.84,9.48 34.05,10.20 33.26,10.91 31.84,11.72 30.42,12.53 28.05,13.96 25.69,15.39 22.27,17.09 18.84,18.80 16.25,19.43 13.67,20.07 11.82,19.73 9.97,19.39 9.03,18.46 8.09,17.53 8.03,15.61 7.97,13.70 8.36,12.68 8.74,11.66 9.69,10.95 10.64,10.24 11.76,10.40 12.88,10.56 13.86,11.93 14.83,13.29 15.24,15.17 15.64,17.06 15.70,19.15 15.76,21.24 15.33,23.13 14.91,25.01 13.89,27.02 12.87,29.04 11.29,30.59 9.71,32.15 7.71,33.44 5.70,34.73 3.35,35.31 0.99,35.90 -1.26,35.44 -3.52,34.98 -5.00,33.82 -6.47,32.67 -7.10,31.03 -7.73,29.39 -7.80,26.74 -7.87,24.09 -6.98,20.08 -6.09,16.07 -3.84,7.83 -1.59,-0.39 -1.52,-0.58 -1.45,-0.76 -1.33,-0.93 -1.22,-1.09 -1.07,-1.22 -0.92,-1.35 -0.75,-1.44 -0.57,-1.53 -0.38,-1.58 -0.19,-1.63 0.00,-1.63 0.20,-1.63 0.39,-1.58 0.58,-1.53 0.76,-1.44 0.93,-1.34 1.08,-1.21 1.23,-1.08 1.34,-0.92 1.45,-0.75 1.52,-0.57 1.59,-0.38 1.62,-0.19 1.64,0.00 1.61,0.20 1.59,0.39 1.59,0.39 L 1.59,0.39 Z"></path></g><g transform="translate(817.2000122070312 601.0499877929688) rotate(0 22 -7.600006103515625)" stroke="none"><path fill="#000" d="M -0.76,-1.52 Q -0.76,-1.52 0.53,-2.24 1.83,-2.96 3.01,-4.16 4.18,-5.36 7.79,-4.64 11.40,-3.92 12.72,-4.38 14.05,-4.84 14.98,-6.50 15.91,-8.17 17.12,-8.47 18.32,-8.77 19.44,-7.96 20.56,-7.16 21.36,-6.10 22.17,-5.05 22.94,-3.72 23.70,-2.39 23.83,-2.17 23.95,-1.96 24.02,-1.72 24.08,-1.49 24.09,-1.24 24.10,-0.99 24.05,-0.75 24.00,-0.51 23.89,-0.29 23.79,-0.06 23.63,0.12 23.47,0.31 23.28,0.46 23.08,0.60 22.85,0.70 22.62,0.80 22.38,0.83 22.14,0.87 21.89,0.85 21.64,0.83 21.41,0.75 21.18,0.67 20.97,0.54 20.76,0.41 20.59,0.23 20.42,0.05 20.76,-1.47 21.10,-3.01 21.59,-6.66 22.08,-10.32 23.82,-12.76 25.57,-15.19 31.01,-13.72 36.46,-12.24 38.70,-11.57 40.95,-10.90 41.15,-10.82 41.34,-10.74 41.50,-10.59 41.66,-10.45 41.76,-10.27 41.87,-10.08 41.91,-9.87 41.95,-9.66 41.92,-9.45 41.89,-9.24 41.80,-9.05 41.70,-8.86 41.55,-8.71 41.40,-8.56 41.21,-8.47 41.02,-8.37 40.81,-8.34 40.60,-8.32 40.39,-8.36 40.18,-8.40 40.00,-8.50 39.81,-8.60 39.67,-8.76 39.53,-8.92 39.44,-9.12 39.36,-9.31 39.34,-9.52 39.33,-9.73 39.38,-9.94 39.43,-10.15 39.54,-10.33 39.66,-10.51 39.82,-10.64 39.99,-10.77 40.19,-10.84 40.39,-10.92 40.60,-10.92 40.81,-10.93 41.01,-10.87 41.22,-10.81 41.39,-10.68 41.56,-10.56 41.69,-10.39 41.81,-10.21 41.87,-10.01 41.94,-9.81 41.93,-9.59 41.92,-9.38 41.85,-9.18 41.78,-8.98 41.64,-8.82 41.51,-8.65 41.33,-8.54 41.15,-8.42 40.95,-8.37 40.74,-8.32 40.53,-8.34 40.32,-8.35 40.32,-8.35 40.32,-8.35 38.02,-8.81 35.72,-9.27 30.46,-10.45 25.21,-11.63 25.59,-10.57 25.98,-9.50 25.49,-7.13 25.00,-4.75 24.35,-3.57 23.70,-2.39 23.83,-2.17 23.95,-1.96 24.02,-1.72 24.08,-1.49 24.09,-1.24 24.10,-0.99 24.05,-0.75 24.00,-0.51 23.89,-0.29 23.79,-0.06 23.63,0.12 23.47,0.31 23.28,0.46 23.08,0.60 22.85,0.70 22.62,0.80 22.38,0.83 22.14,0.87 21.89,0.85 21.64,0.83 21.41,0.75 21.18,0.67 20.97,0.54 20.76,0.41 20.59,0.23 20.42,0.05 19.20,-2.17 17.99,-4.41 16.79,-2.96 15.59,-1.51 13.16,-0.87 10.73,-0.23 7.66,-1.23 4.59,-2.24 4.14,-1.02 3.68,0.20 2.22,0.86 0.76,1.52 0.56,1.59 0.37,1.66 0.17,1.68 -0.03,1.70 -0.23,1.67 -0.44,1.64 -0.63,1.57 -0.82,1.49 -0.99,1.37 -1.15,1.25 -1.29,1.09 -1.42,0.94 -1.51,0.75 -1.60,0.57 -1.65,0.37 -1.69,0.17 -1.69,-0.03 -1.69,-0.23 -1.63,-0.43 -1.58,-0.63 -1.48,-0.81 -1.38,-0.99 -1.24,-1.14 -1.10,-1.30 -0.93,-1.41 -0.76,-1.52 -0.76,-1.52 L -0.76,-1.52 Z"></path></g><g transform="translate(858.7999877929688 574.6500244140625) rotate(0 31.600006103515625 -2.4000244140625)" stroke="none"><path fill="#000" d="M 0.80,-1.73 Q 0.80,-1.73 4.28,-0.16 7.75,1.40 10.76,3.56 13.77,5.72 15.81,7.87 17.85,10.02 18.96,11.42 20.06,12.82 20.27,13.37 20.48,13.91 20.60,14.12 20.73,14.33 20.80,14.57 20.87,14.80 20.89,15.04 20.90,15.29 20.86,15.53 20.82,15.77 20.72,15.99 20.62,16.21 20.47,16.40 20.32,16.59 20.12,16.75 19.93,16.90 19.71,17.00 19.49,17.10 19.25,17.14 19.01,17.18 18.76,17.17 18.52,17.16 18.29,17.08 18.05,17.01 17.85,16.89 17.64,16.76 17.46,16.59 17.29,16.41 15.19,13.37 13.08,10.32 12.64,7.51 12.20,4.69 13.32,1.48 14.45,-1.72 16.14,-2.77 17.83,-3.81 17.94,-4.03 18.05,-4.25 18.21,-4.43 18.37,-4.62 18.57,-4.76 18.77,-4.90 19.00,-4.99 19.23,-5.08 19.47,-5.11 19.72,-5.14 19.96,-5.12 20.20,-5.09 20.43,-5.00 20.66,-4.92 20.86,-4.78 21.07,-4.65 21.23,-4.46 21.40,-4.28 21.51,-4.07 21.63,-3.85 21.69,-3.61 21.75,-3.38 21.75,-3.13 21.75,-2.89 21.70,-2.65 21.64,-2.41 22.80,-2.10 23.96,-1.78 25.54,-1.63 27.12,-1.47 28.23,-1.83 29.33,-2.18 30.43,-2.71 31.53,-3.24 32.47,-4.84 33.41,-6.43 33.56,-7.97 33.71,-9.51 33.58,-11.02 33.45,-12.53 33.18,-13.56 32.92,-14.59 32.76,-15.31 32.60,-16.04 32.57,-16.28 32.55,-16.52 32.58,-16.77 32.61,-17.01 32.70,-17.24 32.78,-17.46 32.92,-17.66 33.06,-17.86 33.25,-18.03 33.43,-18.19 33.65,-18.30 33.87,-18.41 34.10,-18.47 34.34,-18.53 34.59,-18.52 34.83,-18.52 35.07,-18.46 35.30,-18.40 35.52,-18.29 35.74,-18.17 35.92,-18.01 36.10,-17.85 36.24,-17.64 36.37,-17.44 36.46,-17.21 36.55,-16.98 37.18,-14.15 37.80,-11.31 41.75,-7.02 45.69,-2.73 47.41,-1.88 49.13,-1.03 50.30,-1.94 51.48,-2.85 51.60,-2.87 51.72,-2.89 51.90,-3.05 52.09,-3.21 52.31,-3.32 52.52,-3.43 52.76,-3.49 53.00,-3.54 53.25,-3.54 53.49,-3.53 53.73,-3.47 53.97,-3.41 54.18,-3.29 54.40,-3.18 54.58,-3.01 54.76,-2.85 54.89,-2.64 55.03,-2.44 55.11,-2.21 55.20,-1.98 55.22,-1.74 55.25,-1.49 55.22,-1.25 55.18,-1.01 55.09,-0.78 55.00,-0.55 54.86,-0.35 54.72,-0.15 55.93,-0.12 57.14,-0.09 58.31,0.42 59.49,0.94 57.82,-5.07 56.15,-11.08 55.52,-12.82 54.88,-14.55 54.85,-14.80 54.83,-15.05 54.86,-15.30 54.89,-15.56 54.98,-15.79 55.07,-16.03 55.22,-16.23 55.37,-16.44 55.56,-16.61 55.75,-16.78 55.97,-16.89 56.20,-17.01 56.44,-17.07 56.69,-17.12 56.94,-17.12 57.20,-17.12 57.44,-17.06 57.69,-17.00 57.91,-16.88 58.14,-16.76 58.32,-16.59 58.51,-16.42 58.66,-16.21 58.80,-16.00 58.89,-15.76 58.97,-15.52 58.97,-13.47 58.96,-11.43 59.83,-8.42 60.69,-5.42 61.30,-2.83 61.90,-0.25 62.88,4.29 63.85,8.83 63.88,9.05 63.91,9.26 63.87,9.46 63.83,9.67 63.72,9.86 63.62,10.04 63.46,10.18 63.30,10.32 63.10,10.41 62.91,10.49 62.70,10.51 62.48,10.52 62.28,10.47 62.07,10.42 61.89,10.30 61.72,10.19 61.58,10.02 61.45,9.85 61.38,9.65 61.31,9.45 61.30,9.24 61.30,9.03 61.36,8.83 61.42,8.62 61.55,8.45 61.67,8.28 61.85,8.16 62.02,8.03 62.22,7.97 62.43,7.91 62.64,7.92 62.85,7.93 63.05,8.00 63.25,8.07 63.41,8.21 63.58,8.34 63.69,8.52 63.81,8.70 63.86,8.91 63.91,9.11 63.89,9.33 63.87,9.54 63.79,9.73 63.70,9.93 63.56,10.08 63.41,10.24 63.23,10.35 63.04,10.45 62.84,10.49 62.63,10.53 62.42,10.50 62.21,10.47 62.02,10.37 61.83,10.28 61.68,10.13 61.53,9.97 61.43,9.78 61.34,9.59 61.34,9.59 61.34,9.59 59.61,5.15 57.87,0.71 57.25,-1.79 56.63,-4.30 55.69,-7.89 54.74,-11.47 54.81,-13.01 54.88,-14.55 54.85,-14.80 54.83,-15.05 54.86,-15.30 54.89,-15.55 54.98,-15.79 55.07,-16.03 55.22,-16.23 55.37,-16.44 55.56,-16.61 55.75,-16.78 55.97,-16.89 56.20,-17.01 56.44,-17.07 56.69,-17.12 56.94,-17.12 57.20,-17.12 57.44,-17.06 57.69,-17.00 57.91,-16.88 58.14,-16.76 58.32,-16.59 58.51,-16.42 58.66,-16.21 58.80,-16.00 58.89,-15.76 58.97,-15.52 59.60,-13.79 60.23,-12.06 61.53,-5.60 62.83,0.85 60.54,2.45 58.26,4.05 56.82,3.80 55.38,3.56 54.20,2.92 53.02,2.29 52.27,1.31 51.52,0.34 51.62,-1.27 51.72,-2.89 51.90,-3.05 52.09,-3.21 52.31,-3.32 52.52,-3.43 52.76,-3.49 53.00,-3.54 53.25,-3.54 53.49,-3.53 53.73,-3.47 53.96,-3.41 54.18,-3.29 54.40,-3.18 54.58,-3.01 54.76,-2.85 54.89,-2.64 55.03,-2.44 55.11,-2.21 55.20,-1.98 55.22,-1.74 55.25,-1.49 55.22,-1.25 55.18,-1.01 55.09,-0.78 55.00,-0.55 54.86,-0.35 54.72,-0.15 54.33,-0.07 53.94,0.00 53.08,0.84 52.23,1.68 50.23,2.18 48.23,2.68 45.46,1.40 42.70,0.12 38.25,-4.92 33.81,-9.97 33.21,-13.00 32.60,-16.04 32.57,-16.28 32.55,-16.52 32.58,-16.77 32.61,-17.01 32.70,-17.24 32.78,-17.46 32.92,-17.66 33.06,-17.86 33.25,-18.03 33.43,-18.19 33.65,-18.30 33.87,-18.41 34.10,-18.47 34.34,-18.53 34.59,-18.52 34.83,-18.52 35.07,-18.46 35.30,-18.40 35.52,-18.29 35.74,-18.17 35.92,-18.01 36.10,-17.85 36.24,-17.64 36.37,-17.44 36.46,-17.21 36.55,-16.98 36.63,-16.24 36.71,-15.50 37.02,-14.16 37.32,-12.83 37.45,-10.92 37.57,-9.02 37.24,-6.87 36.92,-4.72 36.25,-3.42 35.57,-2.13 34.49,-0.92 33.40,0.29 31.89,1.00 30.38,1.72 28.59,2.13 26.80,2.54 24.82,2.33 22.85,2.12 20.93,1.35 19.01,0.57 18.47,-0.41 17.93,-1.41 17.88,-2.61 17.83,-3.81 17.94,-4.03 18.05,-4.25 18.21,-4.43 18.37,-4.62 18.57,-4.76 18.77,-4.90 19.00,-4.99 19.23,-5.08 19.47,-5.11 19.72,-5.14 19.96,-5.12 20.20,-5.09 20.43,-5.00 20.66,-4.92 20.86,-4.78 21.07,-4.65 21.23,-4.46 21.40,-4.28 21.51,-4.07 21.63,-3.85 21.69,-3.61 21.75,-3.38 21.75,-3.13 21.75,-2.89 21.70,-2.65 21.64,-2.41 19.74,-1.18 17.83,0.04 16.98,2.19 16.13,4.33 16.47,6.55 16.80,8.77 17.39,10.51 17.99,12.26 19.23,13.09 20.48,13.91 20.60,14.12 20.73,14.33 20.80,14.56 20.87,14.80 20.89,15.04 20.90,15.28 20.86,15.52 20.82,15.76 20.72,15.99 20.62,16.21 20.47,16.40 20.32,16.59 20.12,16.75 19.93,16.90 19.71,17.00 19.49,17.10 19.25,17.14 19.01,17.18 18.76,17.17 18.52,17.16 18.29,17.08 18.05,17.01 17.85,16.89 17.64,16.76 17.46,16.59 17.29,16.41 17.08,15.84 16.87,15.26 15.89,14.01 14.92,12.77 13.16,10.87 11.40,8.97 8.72,7.00 6.04,5.03 2.61,3.38 -0.80,1.73 -1.00,1.60 -1.19,1.48 -1.35,1.32 -1.51,1.15 -1.63,0.95 -1.75,0.75 -1.81,0.53 -1.88,0.31 -1.89,0.08 -1.90,-0.14 -1.85,-0.36 -1.81,-0.59 -1.71,-0.80 -1.62,-1.01 -1.47,-1.18 -1.33,-1.36 -1.14,-1.50 -0.96,-1.64 -0.75,-1.73 -0.54,-1.83 -0.31,-1.86 -0.08,-1.90 0.14,-1.89 0.37,-1.87 0.58,-1.80 0.80,-1.73 0.80,-1.73 L 0.80,-1.73 Z"></path></g><g transform="translate(861.2000122070312 611.4500122070312) rotate(0 25.20001220703125 20.399993896484375)" stroke="none"><path fill="#000" d="M -0.12,-1.32 Q -0.12,-1.32 2.37,-1.88 4.87,-2.45 6.44,-2.55 8.00,-2.65 9.18,-2.58 10.35,-2.50 11.73,-1.34 13.10,-0.17 13.67,1.75 14.24,3.69 14.16,5.84 14.08,7.99 12.75,10.14 11.42,12.29 10.47,13.24 9.51,14.19 9.35,14.37 9.18,14.56 8.97,14.70 8.77,14.84 8.53,14.92 8.30,15.01 8.05,15.04 7.80,15.07 7.55,15.04 7.31,15.00 7.07,14.91 6.84,14.82 6.64,14.68 6.43,14.54 6.27,14.35 6.10,14.16 5.99,13.94 5.88,13.71 5.82,13.47 5.76,13.23 5.76,12.98 5.76,12.73 5.83,12.49 5.89,12.25 6.01,12.03 6.12,11.81 9.39,9.37 12.66,6.94 18.56,2.21 24.46,-2.50 27.59,-4.41 30.72,-6.33 33.22,-5.27 35.73,-4.22 38.25,-1.22 40.78,1.77 43.20,5.83 45.61,9.90 47.61,15.92 49.61,21.94 50.46,26.87 51.30,31.79 51.17,35.95 51.03,40.10 48.98,43.24 46.94,46.37 44.34,46.94 41.75,47.50 39.56,46.88 37.36,46.26 37.17,46.18 36.97,46.11 36.81,45.97 36.64,45.83 36.53,45.65 36.42,45.47 36.38,45.26 36.33,45.05 36.35,44.84 36.37,44.63 36.46,44.44 36.55,44.24 36.70,44.09 36.84,43.94 37.03,43.83 37.22,43.73 37.43,43.70 37.64,43.66 37.84,43.70 38.05,43.73 38.24,43.83 38.43,43.93 38.58,44.08 38.72,44.24 38.81,44.43 38.90,44.62 38.93,44.83 38.95,45.04 38.91,45.25 38.86,45.46 38.75,45.64 38.65,45.82 38.48,45.96 38.32,46.10 38.13,46.18 37.93,46.26 37.72,46.27 37.50,46.28 37.30,46.23 37.09,46.17 36.92,46.05 36.74,45.93 36.61,45.77 36.48,45.60 36.41,45.40 36.35,45.20 36.34,44.98 36.34,44.77 36.41,44.57 36.48,44.37 36.61,44.20 36.73,44.03 36.91,43.91 37.08,43.79 37.29,43.73 37.49,43.67 37.71,43.68 37.92,43.69 37.92,43.69 37.92,43.69 39.56,43.90 41.21,44.11 42.78,43.87 44.36,43.64 45.63,41.65 46.90,39.66 47.00,36.08 47.09,32.49 46.31,27.88 45.53,23.27 43.72,17.67 41.90,12.07 39.67,8.26 37.43,4.46 35.51,1.94 33.59,-0.57 32.13,-1.67 30.66,-2.78 28.77,-1.12 26.89,0.52 20.99,5.29 15.09,10.05 12.30,12.12 9.51,14.19 9.35,14.37 9.18,14.56 8.97,14.70 8.77,14.84 8.53,14.92 8.30,15.01 8.05,15.04 7.80,15.07 7.55,15.04 7.31,15.00 7.07,14.91 6.84,14.82 6.64,14.68 6.43,14.54 6.27,14.35 6.10,14.16 5.99,13.94 5.88,13.72 5.82,13.47 5.76,13.23 5.76,12.98 5.76,12.73 5.83,12.49 5.89,12.25 6.01,12.03 6.12,11.81 7.10,10.86 8.07,9.92 9.11,8.70 10.14,7.47 10.22,6.02 10.30,4.56 9.28,2.95 8.25,1.34 6.74,1.43 5.24,1.53 2.68,1.42 0.12,1.32 -0.03,1.31 -0.19,1.31 -0.35,1.27 -0.50,1.22 -0.64,1.14 -0.78,1.06 -0.90,0.96 -1.02,0.85 -1.10,0.71 -1.19,0.58 -1.24,0.43 -1.29,0.27 -1.31,0.11 -1.32,-0.04 -1.30,-0.19 -1.27,-0.35 -1.21,-0.50 -1.15,-0.65 -1.06,-0.78 -0.96,-0.91 -0.84,-1.01 -0.72,-1.11 -0.57,-1.18 -0.43,-1.25 -0.27,-1.28 -0.12,-1.32 -0.12,-1.32 L -0.12,-1.32 Z"></path></g><g transform="translate(1162 581.0499877929688) rotate(0 0.00004999999998744897 0.00005000000000165983)" stroke="none"><path fill="#000" d="M 1.57,-1.57 Q 1.57,-1.57 1.77,-1.27 1.98,-0.98 2.09,-0.64 2.20,-0.29 2.19,0.05 2.18,0.41 2.05,0.75 1.93,1.09 1.70,1.37 1.48,1.65 1.18,1.84 0.87,2.04 0.52,2.12 0.18,2.21 -0.17,2.18 -0.53,2.15 -0.86,2.01 -1.19,1.87 -1.46,1.63 -1.73,1.39 -1.90,1.07 -2.08,0.76 -2.15,0.41 -2.21,0.05 -2.17,-0.29 -2.12,-0.65 -1.96,-0.97 -1.80,-1.29 -1.54,-1.54 -1.29,-1.80 -0.97,-1.96 -0.65,-2.12 -0.29,-2.17 0.06,-2.21 0.41,-2.15 0.76,-2.08 1.07,-1.90 1.39,-1.73 1.63,-1.46 1.87,-1.19 2.01,-0.86 2.15,-0.53 2.18,-0.17 2.21,0.18 2.12,0.52 2.03,0.87 1.84,1.18 1.65,1.48 1.37,1.70 1.09,1.93 0.75,2.05 0.41,2.18 0.05,2.19 -0.30,2.20 -0.64,2.09 -0.98,1.98 -1.27,1.77 -1.57,1.56 -1.57,1.57 -1.57,1.57 -1.73,1.35 -1.90,1.14 -2.01,0.90 -2.12,0.66 -2.16,0.39 -2.21,0.13 -2.20,-0.13 -2.18,-0.40 -2.10,-0.65 -2.02,-0.91 -1.88,-1.14 -1.74,-1.36 -1.55,-1.55 -1.36,-1.74 -1.14,-1.88 -0.91,-2.02 -0.65,-2.10 -0.40,-2.18 -0.13,-2.20 0.13,-2.21 0.39,-2.16 0.66,-2.12 0.90,-2.01 1.14,-1.90 1.35,-1.73 1.57,-1.57 1.57,-1.57 L 1.57,-1.57 Z"></path></g></svg>