<svg version="1.1" xmlns="http://www.w3.org/2000/svg" viewBox="0 0 10020 753.8125152587891" width="10020" height="753.8125152587891">
  <!-- svg-source:excalidraw -->
  
  <defs>
    <style>
      @font-face {
        font-family: "Virgil";
        src: url("https://excalidraw.com/Virgil.woff2");
      }
      @font-face {
        font-family: "Cascadia";
        src: url("https://excalidraw.com/Cascadia.woff2");
      }
    </style>
  </defs>
  <rect x="0" y="0" width="10020" height="753.8125152587891" fill="#fff0"></rect><g stroke-linecap="round" transform="translate(10 10) rotate(0 5000 0.5)"><path d="M-0.52 -0.26 C3022.65 -30.2, 6044.59 -29.2, 9999.32 0.22 M0.38 -0.31 C3948.03 -0.44, 7895.41 0.2, 9999.95 0.08 M10000.08 -0.06 C10000.09 0.27, 10000.05 0.48, 10000.09 0.92 M9999.97 0.01 C9999.95 0.33, 9999.98 0.72, 10000 0.99 M10000.22 1.51 C7095.77 35.76, 4193.15 34.95, -0.25 0.75 M10000.01 1.13 C7827.97 2.74, 5656.23 3.35, -0.33 0.84 M-0.04 1.01 C0 0.63, -0.06 0.15, 0.05 -0.03 M-0.04 0.95 C-0.04 0.73, -0.03 0.59, -0.05 -0.02" stroke="transparent" stroke-width="1" fill="none"></path></g><g transform="translate(525.2000122070312 535.0124969482422) rotate(0 3.20001220703125 12.800003051757812)" stroke="none"><path fill="#000" d="M 0.32,-1.30 Q 0.32,-1.30 1.32,-1.38 2.32,-1.46 3.95,-0.48 5.59,0.49 6.06,2.53 6.52,4.57 6.65,6.72 6.78,8.86 6.83,10.91 6.87,12.96 7.11,14.62 7.35,16.27 7.46,17.79 7.57,19.30 7.83,20.46 8.08,21.63 7.88,23.38 7.67,25.13 7.66,25.34 7.64,25.55 7.56,25.75 7.48,25.94 7.33,26.10 7.19,26.26 7.01,26.37 6.82,26.47 6.62,26.51 6.41,26.55 6.20,26.53 5.99,26.50 5.80,26.41 5.60,26.31 5.45,26.16 5.30,26.01 5.21,25.82 5.11,25.63 5.08,25.42 5.05,25.21 5.09,25.00 5.13,24.80 5.23,24.61 5.34,24.42 5.49,24.28 5.65,24.14 5.84,24.05 6.04,23.97 6.25,23.95 6.46,23.93 6.67,23.98 6.88,24.03 7.05,24.14 7.23,24.26 7.37,24.42 7.50,24.59 7.58,24.79 7.65,24.99 7.66,25.20 7.67,25.41 7.61,25.61 7.54,25.82 7.42,25.99 7.30,26.16 7.13,26.29 6.95,26.41 6.75,26.48 6.55,26.54 6.34,26.54 6.12,26.53 5.92,26.46 5.72,26.39 5.56,26.26 5.39,26.12 5.28,25.95 5.16,25.77 5.11,25.56 5.06,25.36 5.06,25.36 5.06,25.36 4.48,23.93 3.90,22.51 3.60,21.06 3.31,19.61 3.21,18.23 3.11,16.86 2.86,14.95 2.61,13.04 2.57,11.05 2.54,9.05 2.50,7.08 2.45,5.11 1.90,3.74 1.35,2.38 0.51,1.84 -0.32,1.30 -0.47,1.24 -0.62,1.18 -0.76,1.09 -0.89,1.00 -1.00,0.88 -1.10,0.75 -1.18,0.61 -1.25,0.47 -1.29,0.31 -1.33,0.15 -1.33,-0.00 -1.33,-0.16 -1.29,-0.32 -1.25,-0.48 -1.17,-0.62 -1.10,-0.76 -0.99,-0.88 -0.88,-1.00 -0.75,-1.09 -0.62,-1.19 -0.46,-1.24 -0.31,-1.30 -0.15,-1.32 0.00,-1.34 0.16,-1.32 0.32,-1.30 0.32,-1.30 L 0.32,-1.30 Z"></path></g><g transform="translate(518 545.4125061035156) rotate(0 57.600006103515625 1.5999984741210938)" stroke="none"><path fill="#000" d="M -1.36,-0.81 Q -1.36,-0.81 -0.83,-2.06 -0.30,-3.31 0.52,-4.38 1.34,-5.45 4.17,-7.43 6.99,-9.42 8.59,-10.43 10.19,-11.45 11.36,-12.12 12.52,-12.79 14.14,-13.75 15.76,-14.71 17.51,-15.44 19.27,-16.16 21.59,-16.50 23.90,-16.85 26.04,-16.50 28.19,-16.16 30.22,-14.95 32.26,-13.75 33.67,-12.18 35.08,-10.61 35.95,-9.13 36.81,-7.64 36.96,-5.56 37.11,-3.48 36.03,-1.84 34.95,-0.19 33.15,0.95 31.36,2.10 29.09,2.83 26.83,3.56 24.76,4.07 22.68,4.58 20.54,4.81 18.39,5.05 17.27,5.46 16.15,5.87 15.89,5.91 15.63,5.95 15.37,5.93 15.11,5.91 14.87,5.83 14.62,5.75 14.40,5.61 14.18,5.47 14.00,5.29 13.81,5.10 13.68,4.88 13.55,4.65 13.48,4.40 13.40,4.15 13.39,3.89 13.38,3.63 13.43,3.38 13.48,3.12 13.59,2.88 13.70,2.65 13.87,2.45 14.03,2.24 14.24,2.09 14.45,1.93 14.68,1.83 14.92,1.72 16.62,1.51 18.31,1.30 20.05,1.01 21.79,0.71 23.80,0.57 25.82,0.43 27.36,0.37 28.90,0.31 30.44,0.53 31.99,0.75 33.97,1.61 35.96,2.46 37.16,3.03 38.37,3.59 39.65,4.34 40.93,5.08 41.87,5.59 42.81,6.10 44.11,6.77 45.42,7.44 46.44,7.96 47.45,8.48 48.78,8.46 50.11,8.44 51.84,7.09 53.56,5.75 54.35,4.35 55.14,2.95 53.89,2.88 52.63,2.80 51.64,4.17 50.65,5.54 50.73,7.22 50.80,8.90 51.64,10.20 52.48,11.51 53.80,12.65 55.12,13.79 56.57,14.19 58.01,14.58 59.94,14.79 61.87,15.01 63.97,14.89 66.08,14.77 68.42,14.10 70.77,13.42 72.61,12.49 74.45,11.56 75.65,10.75 76.84,9.94 77.69,9.02 78.53,8.10 79.04,7.16 79.56,6.21 80.77,4.56 81.98,2.92 83.14,3.69 84.29,4.47 84.45,6.85 84.62,9.22 84.79,10.54 84.96,11.87 85.29,12.38 85.62,12.90 85.68,13.17 85.74,13.43 85.73,13.70 85.72,13.97 85.65,14.23 85.58,14.49 85.45,14.73 85.31,14.96 85.13,15.16 84.94,15.35 84.72,15.50 84.49,15.65 84.24,15.74 83.98,15.82 83.71,15.85 83.45,15.87 83.18,15.83 82.91,15.79 82.66,15.69 82.41,15.59 82.20,15.43 81.98,15.27 81.81,15.06 81.63,14.85 81.51,14.61 81.40,14.37 81.93,12.86 82.47,11.35 83.40,9.21 84.33,7.07 85.40,5.71 86.48,4.36 87.31,3.68 88.15,2.99 89.26,2.60 90.38,2.20 91.85,2.32 93.31,2.44 94.87,3.36 96.43,4.28 97.88,6.24 99.34,8.21 100.14,9.75 100.94,11.28 99.37,12.64 97.81,13.99 98.29,11.40 98.77,8.81 99.54,7.27 100.32,5.74 101.37,4.82 102.41,3.90 104.12,3.64 105.82,3.39 107.13,4.33 108.43,5.26 109.18,6.53 109.92,7.79 110.69,9.74 111.47,11.69 111.98,12.89 112.49,14.08 113.70,15.54 114.91,17.00 115.11,17.07 115.31,17.15 115.47,17.28 115.64,17.42 115.75,17.60 115.86,17.78 115.91,17.99 115.96,18.19 115.94,18.40 115.92,18.62 115.83,18.81 115.75,19.00 115.60,19.16 115.46,19.32 115.27,19.42 115.09,19.52 114.88,19.56 114.67,19.60 114.46,19.57 114.25,19.53 114.06,19.44 113.87,19.34 113.72,19.19 113.57,19.04 113.48,18.84 113.39,18.65 113.36,18.44 113.34,18.23 113.38,18.02 113.42,17.82 113.53,17.63 113.64,17.45 113.79,17.31 113.95,17.17 114.15,17.09 114.35,17.01 114.56,16.99 114.77,16.98 114.98,17.03 115.18,17.08 115.36,17.20 115.54,17.32 115.67,17.48 115.80,17.65 115.87,17.85 115.94,18.05 115.94,18.26 115.95,18.48 115.88,18.68 115.82,18.88 115.69,19.05 115.57,19.22 115.39,19.35 115.22,19.47 115.01,19.53 114.81,19.59 114.60,19.58 114.39,19.57 114.39,19.57 114.39,19.57 111.84,18.75 109.30,17.93 108.82,16.89 108.34,15.86 107.80,14.59 107.25,13.31 106.62,11.62 106.00,9.93 105.05,8.88 104.10,7.83 103.55,8.99 102.99,10.14 102.57,11.43 102.15,12.71 101.97,13.77 101.80,14.83 100.51,15.59 99.21,16.35 98.06,14.84 96.91,13.33 96.26,12.05 95.61,10.76 94.06,8.75 92.52,6.74 91.20,6.94 89.89,7.14 89.05,8.15 88.21,9.17 87.67,10.17 87.12,11.18 86.37,12.04 85.62,12.90 85.68,13.17 85.74,13.43 85.73,13.70 85.72,13.97 85.65,14.23 85.58,14.49 85.45,14.73 85.31,14.96 85.13,15.16 84.94,15.35 84.72,15.50 84.49,15.65 84.24,15.74 83.98,15.82 83.71,15.85 83.45,15.87 83.18,15.83 82.91,15.79 82.66,15.69 82.41,15.59 82.20,15.43 81.98,15.27 81.81,15.06 81.63,14.85 81.51,14.61 81.40,14.37 81.07,13.86 80.75,13.36 80.45,11.29 80.16,9.23 80.25,7.17 80.35,5.11 81.81,6.73 83.27,8.36 82.46,9.70 81.64,11.04 80.45,12.26 79.25,13.48 77.81,14.44 76.37,15.40 74.17,16.48 71.97,17.56 69.15,18.37 66.33,19.18 63.84,19.30 61.36,19.42 58.99,19.12 56.61,18.82 54.43,18.00 52.24,17.18 50.44,15.47 48.63,13.76 47.52,11.61 46.41,9.46 46.31,7.73 46.21,5.99 46.62,4.59 47.02,3.19 47.70,2.22 48.38,1.24 49.46,0.17 50.53,-0.89 52.83,-1.39 55.13,-1.89 57.08,-0.74 59.02,0.40 59.08,2.39 59.13,4.39 58.67,5.52 58.21,6.66 57.38,7.74 56.55,8.81 55.09,10.16 53.63,11.51 52.17,12.13 50.71,12.75 49.26,12.87 47.80,12.99 46.65,12.68 45.50,12.37 44.47,11.85 43.43,11.32 42.08,10.63 40.72,9.93 39.72,9.39 38.73,8.85 37.62,8.19 36.51,7.54 35.33,6.98 34.16,6.43 32.72,5.73 31.28,5.03 30.16,4.83 29.05,4.64 27.58,4.69 26.11,4.74 24.31,4.86 22.50,4.98 20.65,5.29 18.80,5.60 17.48,5.73 16.15,5.87 15.89,5.91 15.63,5.95 15.37,5.93 15.11,5.91 14.87,5.83 14.62,5.75 14.40,5.61 14.18,5.47 14.00,5.29 13.81,5.10 13.68,4.88 13.55,4.65 13.48,4.40 13.40,4.15 13.39,3.89 13.38,3.63 13.43,3.38 13.48,3.12 13.59,2.88 13.70,2.65 13.87,2.45 14.03,2.24 14.24,2.09 14.45,1.93 14.68,1.83 14.92,1.72 15.14,1.58 15.37,1.44 16.65,1.08 17.93,0.72 19.79,0.54 21.65,0.35 23.61,-0.11 25.56,-0.59 27.35,-1.11 29.15,-1.62 30.40,-2.31 31.66,-2.99 32.35,-4.35 33.03,-5.71 32.43,-6.78 31.83,-7.84 30.89,-9.02 29.95,-10.19 28.62,-11.12 27.29,-12.05 25.83,-12.39 24.38,-12.74 22.57,-12.54 20.75,-12.34 19.29,-11.78 17.82,-11.22 16.18,-10.25 14.54,-9.28 13.44,-8.65 12.34,-8.02 10.80,-7.06 9.25,-6.10 6.84,-4.52 4.42,-2.94 3.74,-2.11 3.06,-1.28 2.21,-0.23 1.36,0.81 1.24,0.97 1.12,1.12 0.97,1.24 0.82,1.36 0.65,1.43 0.47,1.51 0.29,1.55 0.10,1.58 -0.09,1.57 -0.28,1.56 -0.46,1.51 -0.64,1.45 -0.81,1.35 -0.97,1.25 -1.11,1.12 -1.25,0.98 -1.35,0.82 -1.45,0.65 -1.50,0.47 -1.56,0.29 -1.57,0.10 -1.59,-0.09 -1.55,-0.27 -1.52,-0.46 -1.44,-0.64 -1.36,-0.81 -1.36,-0.81 L -1.36,-0.81 Z"></path></g><g transform="translate(664.4000244140625 537.4125061035156) rotate(0 -6.399993896484375 34.399993896484375)" stroke="none"><path fill="#000" d="M 0.29,1.79 Q 0.29,1.79 -0.91,2.25 -2.13,2.71 -2.84,3.68 -3.56,4.65 -4.73,7.61 -5.89,10.56 -6.87,14.75 -7.84,18.94 -8.48,23.45 -9.12,27.95 -9.39,32.79 -9.67,37.63 -9.79,42.22 -9.91,46.81 -9.51,50.44 -9.11,54.06 -8.07,57.27 -7.04,60.47 -6.16,62.50 -5.28,64.54 -6.11,65.57 -6.93,66.59 -6.88,66.39 -6.83,66.18 -6.71,66.01 -6.59,65.83 -6.42,65.70 -6.26,65.57 -6.06,65.49 -5.86,65.42 -5.64,65.42 -5.43,65.42 -5.23,65.48 -5.03,65.55 -4.86,65.67 -4.69,65.80 -4.56,65.97 -4.44,66.15 -4.38,66.35 -4.32,66.55 -4.33,66.77 -4.34,66.98 -4.41,67.18 -4.49,67.38 -4.62,67.54 -4.76,67.70 -4.94,67.82 -5.12,67.93 -5.33,67.98 -5.53,68.03 -5.75,68.01 -5.96,67.99 -6.15,67.90 -6.35,67.81 -6.50,67.67 -6.66,67.53 -6.76,67.34 -6.86,67.15 -6.90,66.94 -6.94,66.74 -6.91,66.53 -6.88,66.32 -6.78,66.13 -6.68,65.94 -6.53,65.79 -6.38,65.64 -6.19,65.55 -6.00,65.46 -5.78,65.43 -5.57,65.40 -5.37,65.45 -5.16,65.49 -4.97,65.60 -4.79,65.70 -4.65,65.86 -4.51,66.02 -4.43,66.22 -4.35,66.41 -4.33,66.63 -4.32,66.84 -4.32,66.84 -4.32,66.84 -7.28,66.75 -10.24,66.66 -11.21,64.38 -12.19,62.10 -13.34,58.38 -14.49,54.66 -14.90,50.67 -15.31,46.67 -15.18,41.99 -15.06,37.31 -14.74,32.24 -14.43,27.16 -13.69,22.42 -12.95,17.68 -11.76,13.09 -10.57,8.50 -8.81,4.88 -7.06,1.25 -5.22,-0.26 -3.38,-1.79 -1.84,-1.79 -0.29,-1.79 -0.07,-1.79 0.13,-1.80 0.35,-1.76 0.56,-1.72 0.76,-1.63 0.96,-1.53 1.13,-1.40 1.30,-1.26 1.43,-1.08 1.56,-0.91 1.65,-0.71 1.74,-0.51 1.77,-0.29 1.81,-0.08 1.79,0.13 1.77,0.35 1.71,0.56 1.64,0.77 1.52,0.95 1.41,1.14 1.25,1.29 1.09,1.44 0.90,1.55 0.71,1.66 0.50,1.72 0.29,1.79 0.29,1.79 L 0.29,1.79 Z"></path></g><g transform="translate(690 552.6125030517578) rotate(0 2.000030517578125 7.5999908447265625)" stroke="none"><path fill="#000" d="M -1.20,1.20 Q -1.20,1.20 -2.02,0.63 -2.85,0.06 -4.17,-0.09 -5.48,-0.25 -6.33,0.64 -7.18,1.54 -7.97,2.76 -8.77,3.99 -9.54,5.61 -10.31,7.22 -10.85,8.71 -11.38,10.20 -11.19,11.46 -11.00,12.72 -9.25,13.35 -7.50,13.98 -6.20,13.49 -4.90,13.00 -2.75,11.79 -0.60,10.57 0.41,9.49 1.43,8.41 1.91,6.82 2.39,5.23 2.52,3.78 2.64,2.33 2.57,2.32 2.50,2.30 2.55,2.03 2.60,1.76 2.72,1.52 2.83,1.27 3.00,1.05 3.17,0.84 3.39,0.67 3.60,0.50 3.85,0.39 4.10,0.28 4.37,0.23 4.64,0.18 4.92,0.20 5.19,0.22 5.45,0.30 5.71,0.38 5.94,0.52 6.18,0.67 6.37,0.86 6.56,1.06 6.70,1.29 6.84,1.53 6.92,1.79 7.00,2.05 7.02,2.32 7.04,2.60 7.10,3.97 7.16,5.34 7.61,7.23 8.07,9.12 8.67,10.78 9.28,12.44 10.05,13.33 10.82,14.23 14.18,14.93 17.54,15.63 17.75,15.62 17.96,15.61 18.16,15.67 18.37,15.73 18.54,15.86 18.71,15.98 18.84,16.15 18.96,16.32 19.03,16.53 19.09,16.73 19.09,16.94 19.08,17.15 19.01,17.35 18.94,17.55 18.81,17.72 18.68,17.89 18.50,18.00 18.32,18.12 18.11,18.17 17.91,18.22 17.70,18.21 17.48,18.19 17.29,18.11 17.09,18.03 16.93,17.89 16.77,17.75 16.67,17.56 16.56,17.38 16.52,17.17 16.48,16.96 16.51,16.75 16.53,16.54 16.63,16.35 16.72,16.16 16.87,16.01 17.02,15.85 17.21,15.76 17.40,15.66 17.61,15.63 17.82,15.60 18.03,15.64 18.24,15.68 18.42,15.78 18.61,15.89 18.75,16.04 18.89,16.20 18.98,16.39 19.06,16.59 19.08,16.80 19.10,17.01 19.05,17.22 19.00,17.43 18.89,17.61 18.78,17.79 18.61,17.92 18.45,18.05 18.25,18.13 18.05,18.20 18.05,18.20 18.05,18.20 14.30,18.81 10.55,19.41 8.83,18.36 7.11,17.30 5.94,15.72 4.77,14.14 4.06,12.14 3.36,10.15 2.89,7.76 2.42,5.38 2.46,3.84 2.50,2.30 2.55,2.03 2.60,1.76 2.72,1.52 2.83,1.27 3.00,1.05 3.17,0.84 3.39,0.67 3.60,0.50 3.85,0.39 4.10,0.28 4.37,0.23 4.64,0.18 4.91,0.20 5.19,0.22 5.45,0.30 5.71,0.38 5.94,0.52 6.18,0.67 6.37,0.86 6.56,1.06 6.70,1.29 6.84,1.53 6.92,1.79 7.00,2.05 7.02,2.32 7.04,2.60 6.93,2.65 6.83,2.71 6.68,4.39 6.53,6.06 6.21,7.45 5.89,8.84 5.18,10.08 4.48,11.33 3.02,12.79 1.55,14.26 -1.06,15.77 -3.67,17.28 -6.01,17.81 -8.35,18.33 -10.45,17.64 -12.55,16.95 -13.87,15.37 -15.19,13.79 -15.41,11.33 -15.63,8.88 -14.97,7.05 -14.30,5.23 -13.33,3.36 -12.36,1.50 -11.23,-0.04 -10.09,-1.58 -8.56,-2.88 -7.02,-4.18 -4.33,-4.41 -1.63,-4.65 -0.77,-3.73 0.09,-2.82 0.64,-2.01 1.20,-1.20 1.32,-1.04 1.45,-0.87 1.53,-0.69 1.62,-0.50 1.66,-0.30 1.69,-0.10 1.68,0.10 1.67,0.30 1.61,0.50 1.55,0.69 1.44,0.87 1.33,1.04 1.19,1.19 1.04,1.33 0.87,1.44 0.69,1.55 0.50,1.61 0.30,1.67 0.10,1.68 -0.10,1.69 -0.30,1.66 -0.50,1.62 -0.69,1.53 -0.88,1.45 -1.04,1.32 -1.20,1.20 -1.20,1.20 L -1.20,1.20 Z"></path></g><g transform="translate(712.4000244140625 547.8125152587891) rotate(0 11.600006103515625 11.199996948242188)" stroke="none"><path fill="#000" d="M 1.88,-0.94 Q 1.88,-0.94 3.13,1.30 4.38,3.54 5.93,5.46 7.48,7.38 9.27,9.36 11.07,11.33 13.11,13.00 15.15,14.67 16.88,15.81 18.62,16.96 20.29,18.24 21.97,19.51 22.18,19.53 22.39,19.55 22.59,19.63 22.78,19.71 22.94,19.85 23.10,19.99 23.21,20.18 23.31,20.36 23.36,20.57 23.40,20.78 23.37,20.99 23.34,21.20 23.25,21.39 23.16,21.58 23.01,21.73 22.86,21.88 22.67,21.98 22.48,22.08 22.27,22.11 22.06,22.14 21.85,22.10 21.64,22.06 21.46,21.96 21.27,21.85 21.13,21.69 20.98,21.54 20.90,21.34 20.81,21.15 20.79,20.94 20.78,20.73 20.83,20.52 20.87,20.31 20.99,20.13 21.10,19.95 21.27,19.82 21.43,19.68 21.63,19.61 21.83,19.53 22.04,19.53 22.25,19.52 22.46,19.58 22.66,19.64 22.83,19.76 23.01,19.89 23.13,20.06 23.26,20.23 23.32,20.43 23.39,20.64 23.38,20.85 23.38,21.06 23.30,21.26 23.23,21.46 23.10,21.63 22.97,21.79 22.79,21.91 22.61,22.03 22.41,22.08 22.20,22.13 22.20,22.13 22.20,22.13 19.07,21.57 15.93,21.02 13.99,19.72 12.04,18.42 9.75,16.50 7.46,14.59 5.56,12.45 3.67,10.32 1.94,7.98 0.21,5.65 -0.83,3.29 -1.88,0.94 -1.97,0.70 -2.05,0.46 -2.08,0.21 -2.10,-0.04 -2.07,-0.29 -2.03,-0.54 -1.94,-0.78 -1.84,-1.01 -1.69,-1.22 -1.55,-1.42 -1.35,-1.59 -1.16,-1.75 -0.93,-1.87 -0.70,-1.98 -0.46,-2.04 -0.21,-2.09 0.04,-2.09 0.29,-2.08 0.54,-2.02 0.78,-1.95 1.00,-1.83 1.23,-1.71 1.41,-1.53 1.60,-1.36 1.74,-1.15 1.88,-0.94 1.88,-0.94 L 1.88,-0.94 Z"></path></g><g transform="translate(731.6000366210938 546.2124938964844) rotate(0 -8.4000244140625 12.400001525878906)" stroke="none"><path fill="#000" d="M 1.41,1.41 Q 1.41,1.41 -1.03,4.02 -3.47,6.63 -5.08,8.98 -6.69,11.32 -7.79,13.60 -8.88,15.87 -10.13,17.92 -11.39,19.96 -13.03,21.94 -14.68,23.92 -14.72,24.13 -14.75,24.34 -14.86,24.53 -14.96,24.71 -15.11,24.86 -15.27,25.00 -15.46,25.09 -15.66,25.18 -15.87,25.20 -16.08,25.22 -16.29,25.17 -16.49,25.12 -16.68,25.01 -16.86,24.90 -16.99,24.73 -17.13,24.57 -17.20,24.37 -17.28,24.17 -17.29,23.96 -17.30,23.75 -17.24,23.54 -17.18,23.34 -17.06,23.17 -16.94,22.99 -16.77,22.86 -16.59,22.74 -16.39,22.67 -16.19,22.61 -15.98,22.61 -15.77,22.61 -15.56,22.68 -15.36,22.75 -15.20,22.88 -15.03,23.01 -14.91,23.19 -14.80,23.37 -14.74,23.57 -14.69,23.78 -14.70,23.99 -14.71,24.20 -14.80,24.40 -14.88,24.60 -15.02,24.76 -15.16,24.92 -15.34,25.02 -15.52,25.13 -15.73,25.17 -15.94,25.22 -16.15,25.19 -16.36,25.17 -16.55,25.08 -16.74,24.98 -16.90,24.84 -17.05,24.69 -17.15,24.50 -17.24,24.31 -17.28,24.10 -17.31,23.89 -17.31,23.89 -17.31,23.89 -16.37,20.68 -15.44,17.46 -14.29,15.61 -13.13,13.75 -11.80,11.18 -10.48,8.61 -8.56,6.04 -6.64,3.48 -4.02,1.03 -1.41,-1.41 -1.22,-1.56 -1.03,-1.70 -0.81,-1.80 -0.59,-1.90 -0.35,-1.94 -0.12,-1.99 0.11,-1.97 0.35,-1.96 0.58,-1.89 0.81,-1.82 1.02,-1.69 1.23,-1.57 1.40,-1.40 1.57,-1.23 1.69,-1.02 1.82,-0.81 1.89,-0.58 1.96,-0.35 1.97,-0.11 1.99,0.12 1.94,0.35 1.90,0.59 1.80,0.81 1.70,1.03 1.56,1.22 1.41,1.41 1.41,1.41 L 1.41,1.41 Z"></path></g><g transform="translate(757.2000122070312 537.4125061035156) rotate(0 0.79998779296875 17.199996948242188)" stroke="none"><path fill="#000" d="M 1.85,0.25 Q 1.85,0.25 1.50,5.35 1.15,10.46 0.63,14.67 0.12,18.87 -0.07,22.20 -0.28,25.53 -0.38,27.87 -0.47,30.20 -0.51,31.65 -0.55,33.10 -0.59,33.26 -0.64,33.42 -0.68,33.73 -0.73,34.03 -0.85,34.31 -0.96,34.59 -1.14,34.84 -1.32,35.08 -1.56,35.28 -1.79,35.48 -2.06,35.61 -2.34,35.75 -2.64,35.81 -2.93,35.87 -3.24,35.87 -3.54,35.86 -3.84,35.78 -4.13,35.70 -4.40,35.55 -4.66,35.40 -4.89,35.19 -5.11,34.98 -5.28,34.72 -5.44,34.47 -5.54,34.18 -5.64,33.89 -5.67,33.59 -5.70,33.28 -5.43,31.20 -5.17,29.12 -4.56,26.94 -3.95,24.77 -2.94,22.39 -1.94,20.02 -1.26,18.72 -0.58,17.43 1.20,16.21 2.98,15.00 4.57,15.41 6.17,15.82 7.68,17.70 9.18,19.58 9.98,21.35 10.78,23.13 10.99,25.20 11.21,27.28 9.29,29.62 7.36,31.96 4.65,33.14 1.94,34.31 0.04,35.12 -1.85,35.93 -4.30,36.08 -6.74,36.24 -6.95,36.25 -7.16,36.27 -7.37,36.22 -7.57,36.17 -7.75,36.05 -7.93,35.94 -8.06,35.77 -8.20,35.61 -8.27,35.41 -8.34,35.21 -8.35,34.99 -8.35,34.78 -8.29,34.58 -8.23,34.38 -8.10,34.20 -7.98,34.03 -7.80,33.91 -7.63,33.78 -7.43,33.72 -7.22,33.66 -7.01,33.67 -6.80,33.67 -6.60,33.75 -6.40,33.82 -6.24,33.95 -6.07,34.09 -5.96,34.27 -5.84,34.45 -5.79,34.65 -5.74,34.86 -5.76,35.07 -5.78,35.28 -5.86,35.48 -5.95,35.67 -6.09,35.83 -6.23,35.99 -6.42,36.09 -6.60,36.20 -6.81,36.24 -7.02,36.28 -7.23,36.25 -7.44,36.22 -7.63,36.12 -7.82,36.03 -7.97,35.88 -8.12,35.73 -8.21,35.54 -8.31,35.34 -8.34,35.13 -8.36,34.92 -8.32,34.71 -8.28,34.51 -8.18,34.32 -8.07,34.14 -7.91,34.00 -7.75,33.85 -7.56,33.77 -7.36,33.69 -7.36,33.69 -7.36,33.69 -5.52,32.79 -3.68,31.89 -1.75,30.96 0.17,30.03 2.14,29.28 4.10,28.52 5.25,26.76 6.40,25.01 5.83,23.64 5.26,22.27 4.40,20.97 3.53,19.66 2.97,20.74 2.40,21.81 1.55,23.93 0.70,26.05 0.20,27.94 -0.29,29.84 -0.47,31.63 -0.64,33.42 -0.68,33.73 -0.73,34.03 -0.85,34.31 -0.96,34.59 -1.14,34.84 -1.32,35.08 -1.56,35.28 -1.79,35.48 -2.06,35.61 -2.34,35.74 -2.64,35.81 -2.93,35.87 -3.24,35.87 -3.54,35.86 -3.84,35.78 -4.13,35.70 -4.40,35.55 -4.66,35.40 -4.89,35.19 -5.11,34.98 -5.28,34.72 -5.44,34.47 -5.54,34.18 -5.64,33.89 -5.67,33.59 -5.70,33.28 -5.71,33.12 -5.73,32.96 -5.68,31.47 -5.64,29.99 -5.55,27.59 -5.45,25.19 -5.21,21.72 -4.98,18.24 -4.44,14.00 -3.91,9.77 -2.88,4.76 -1.85,-0.25 -1.80,-0.47 -1.74,-0.69 -1.63,-0.88 -1.52,-1.08 -1.37,-1.25 -1.22,-1.42 -1.03,-1.54 -0.84,-1.67 -0.63,-1.74 -0.42,-1.82 -0.19,-1.85 0.02,-1.87 0.25,-1.84 0.47,-1.81 0.68,-1.73 0.89,-1.64 1.07,-1.51 1.26,-1.38 1.41,-1.21 1.55,-1.04 1.66,-0.84 1.76,-0.63 1.81,-0.41 1.86,-0.19 1.86,0.02 1.85,0.25 1.85,0.25 L 1.85,0.25 Z"></path></g><g transform="translate(682 585.4124908447266) rotate(0 38.800018310546875 -3.1999969482421875)" stroke="none"><path fill="#000" d="M 0,-1.86 Q 0,-1.86 3.22,-2.12 6.44,-2.38 10.79,-2.41 15.15,-2.44 20.17,-2.68 25.19,-2.91 32.56,-3.70 39.93,-4.48 46.29,-5.27 52.65,-6.07 57.91,-6.64 63.18,-7.22 67.24,-7.69 71.30,-8.16 73.48,-7.55 75.66,-6.94 75.00,-7.21 74.33,-7.49 74.61,-7.45 74.89,-7.41 75.15,-7.30 75.41,-7.19 75.64,-7.03 75.87,-6.86 76.05,-6.65 76.23,-6.43 76.35,-6.18 76.48,-5.93 76.54,-5.66 76.60,-5.38 76.59,-5.10 76.59,-4.82 76.51,-4.55 76.44,-4.28 76.30,-4.03 76.17,-3.78 75.97,-3.58 75.78,-3.37 75.55,-3.22 75.31,-3.06 75.05,-2.97 74.78,-2.88 74.50,-2.85 74.22,-2.82 71.55,-2.80 68.89,-2.78 68.67,-2.79 68.46,-2.80 68.26,-2.87 68.06,-2.95 67.90,-3.09 67.74,-3.22 67.62,-3.40 67.51,-3.58 67.46,-3.79 67.42,-4.00 67.44,-4.21 67.46,-4.42 67.54,-4.61 67.63,-4.81 67.77,-4.96 67.92,-5.12 68.11,-5.22 68.29,-5.32 68.50,-5.36 68.71,-5.40 68.92,-5.37 69.13,-5.33 69.32,-5.24 69.51,-5.14 69.66,-4.99 69.80,-4.83 69.90,-4.64 69.99,-4.45 70.01,-4.24 70.04,-4.03 70.00,-3.82 69.95,-3.61 69.85,-3.43 69.74,-3.25 69.58,-3.11 69.42,-2.97 69.22,-2.89 69.02,-2.80 68.81,-2.79 68.60,-2.78 68.40,-2.83 68.19,-2.89 68.01,-3.00 67.84,-3.12 67.70,-3.29 67.57,-3.45 67.50,-3.65 67.43,-3.86 67.43,-4.07 67.43,-4.28 67.49,-4.48 67.56,-4.68 67.69,-4.86 67.81,-5.03 67.99,-5.15 68.16,-5.27 68.36,-5.33 68.57,-5.39 68.57,-5.39 68.57,-5.39 70.02,-5.92 71.47,-6.44 72.90,-6.97 74.33,-7.49 74.61,-7.45 74.89,-7.41 75.15,-7.30 75.41,-7.19 75.64,-7.03 75.87,-6.86 76.05,-6.65 76.23,-6.43 76.35,-6.18 76.48,-5.93 76.54,-5.66 76.60,-5.38 76.59,-5.10 76.59,-4.82 76.51,-4.55 76.44,-4.28 76.30,-4.03 76.17,-3.78 75.97,-3.58 75.78,-3.37 75.55,-3.22 75.31,-3.06 75.05,-2.97 74.78,-2.88 74.50,-2.85 74.22,-2.82 73.04,-3.03 71.86,-3.24 67.79,-2.77 63.71,-2.30 58.49,-1.73 53.26,-1.17 46.85,-0.38 40.45,0.41 32.93,1.20 25.41,1.99 20.28,2.22 15.15,2.44 10.79,2.41 6.44,2.38 3.22,2.12 0,1.86 -0.22,1.83 -0.44,1.80 -0.65,1.72 -0.86,1.64 -1.04,1.52 -1.23,1.39 -1.38,1.22 -1.53,1.05 -1.63,0.85 -1.73,0.65 -1.79,0.44 -1.84,0.22 -1.84,-0.00 -1.84,-0.22 -1.79,-0.44 -1.73,-0.65 -1.63,-0.85 -1.53,-1.05 -1.38,-1.22 -1.23,-1.39 -1.04,-1.52 -0.86,-1.64 -0.65,-1.72 -0.44,-1.80 -0.22,-1.83 0.00,-1.86 0.00,-1.86 L 0,-1.86 Z"></path></g><g transform="translate(730 596.6125030517578) rotate(0 2 8)" stroke="none"><path fill="#000" d="M -0.52,1.76 Q -0.52,1.76 -2.86,1.22 -5.20,0.69 -7.26,0.71 -9.32,0.74 -10.83,1.38 -12.34,2.02 -13.70,3.27 -15.05,4.52 -15.97,6.21 -16.89,7.91 -17.26,9.40 -17.64,10.89 -16.90,12.09 -16.15,13.30 -14.39,13.91 -12.63,14.51 -10.19,14.87 -7.75,15.22 -4.63,14.76 -1.51,14.29 2.97,12.67 7.45,11.05 11.24,9.12 15.03,7.18 18.80,5.44 22.57,3.70 22.77,3.63 22.97,3.56 23.18,3.56 23.40,3.56 23.60,3.63 23.80,3.69 23.97,3.82 24.14,3.95 24.26,4.12 24.38,4.30 24.44,4.50 24.50,4.71 24.49,4.92 24.48,5.13 24.40,5.33 24.32,5.53 24.19,5.69 24.05,5.85 23.87,5.96 23.69,6.08 23.48,6.12 23.27,6.17 23.06,6.15 22.85,6.13 22.66,6.04 22.46,5.95 22.31,5.81 22.15,5.66 22.05,5.47 21.95,5.29 21.91,5.08 21.88,4.87 21.91,4.66 21.94,4.45 22.04,4.26 22.14,4.07 22.29,3.92 22.45,3.78 22.64,3.69 22.83,3.60 23.04,3.57 23.25,3.55 23.46,3.59 23.67,3.64 23.85,3.74 24.04,3.85 24.17,4.01 24.31,4.17 24.39,4.37 24.47,4.57 24.49,4.78 24.50,4.99 24.44,5.20 24.39,5.40 24.27,5.58 24.15,5.76 23.98,5.89 23.82,6.02 23.82,6.02 23.82,6.02 20.32,8.19 16.82,10.37 12.93,12.75 9.04,15.12 4.12,17.14 -0.79,19.16 -4.64,19.69 -8.49,20.21 -11.63,19.65 -14.77,19.09 -17.48,17.53 -20.20,15.98 -21.32,13.19 -22.44,10.41 -21.80,7.91 -21.16,5.40 -19.68,3.12 -18.20,0.84 -16.09,-0.76 -13.97,-2.38 -11.63,-3.06 -9.30,-3.75 -6.65,-3.60 -3.99,-3.45 -1.73,-2.60 0.52,-1.76 0.73,-1.67 0.93,-1.58 1.11,-1.44 1.28,-1.31 1.42,-1.14 1.56,-0.96 1.65,-0.76 1.75,-0.56 1.79,-0.34 1.83,-0.13 1.82,0.09 1.81,0.31 1.74,0.52 1.68,0.73 1.57,0.92 1.45,1.11 1.30,1.27 1.14,1.43 0.96,1.55 0.77,1.66 0.56,1.73 0.35,1.80 0.12,1.82 -0.09,1.83 -0.31,1.79 -0.52,1.76 -0.52,1.76 L -0.52,1.76 Z"></path></g><g transform="translate(780.4000244140625 547.0124969482422) rotate(0 6.399993896484375 24.800003051757812)" stroke="none"><path fill="#000" d="M 0.87,-1.75 Q 0.87,-1.75 2.92,-0.98 4.96,-0.21 7.38,3.55 9.79,7.32 11.42,11.71 13.04,16.11 13.75,20.67 14.47,25.23 14.75,29.50 15.04,33.77 13.62,38.61 12.21,43.44 7.73,46.39 3.25,49.34 3.06,49.44 2.87,49.54 2.66,49.58 2.45,49.62 2.24,49.59 2.03,49.56 1.85,49.46 1.66,49.36 1.51,49.21 1.36,49.06 1.27,48.87 1.17,48.68 1.15,48.47 1.12,48.26 1.16,48.05 1.21,47.84 1.31,47.66 1.42,47.47 1.58,47.33 1.74,47.19 1.93,47.11 2.13,47.03 2.34,47.01 2.55,47.00 2.76,47.05 2.96,47.10 3.14,47.22 3.32,47.34 3.45,47.50 3.58,47.67 3.65,47.87 3.73,48.07 3.73,48.28 3.73,48.50 3.67,48.70 3.60,48.90 3.48,49.07 3.35,49.24 3.18,49.37 3.00,49.49 2.80,49.55 2.60,49.61 2.38,49.60 2.17,49.59 1.97,49.52 1.77,49.44 1.61,49.31 1.45,49.17 1.33,48.99 1.22,48.81 1.17,48.61 1.12,48.40 1.14,48.19 1.16,47.98 1.25,47.78 1.33,47.59 1.48,47.43 1.62,47.27 1.62,47.27 1.62,47.27 4.57,44.37 7.51,41.47 8.63,37.74 9.75,34.00 9.49,30.01 9.22,26.01 8.65,21.94 8.08,17.87 6.68,13.88 5.28,9.88 3.84,6.89 2.39,3.89 0.75,2.82 -0.87,1.75 -1.07,1.62 -1.27,1.49 -1.43,1.32 -1.59,1.14 -1.70,0.94 -1.82,0.73 -1.88,0.50 -1.94,0.27 -1.95,0.03 -1.95,-0.19 -1.90,-0.42 -1.85,-0.66 -1.74,-0.87 -1.63,-1.08 -1.48,-1.26 -1.33,-1.44 -1.13,-1.58 -0.94,-1.72 -0.72,-1.81 -0.50,-1.89 -0.27,-1.93 -0.03,-1.96 0.19,-1.94 0.43,-1.91 0.65,-1.83 0.87,-1.75 0.87,-1.75 L 0.87,-1.75 Z"></path></g><g transform="translate(518.0000610351562 671.8124847412109) rotate(0 0.00004999999999988347 0.00005000000000165983)" stroke="none"><path fill="#000" d="M 2.12,-2.12 Q 2.12,-2.12 2.40,-1.73 2.69,-1.33 2.83,-0.87 2.97,-0.40 2.96,0.08 2.95,0.56 2.78,1.02 2.61,1.47 2.31,1.85 2.00,2.23 1.59,2.49 1.18,2.76 0.71,2.87 0.24,2.99 -0.24,2.95 -0.72,2.91 -1.17,2.72 -1.61,2.53 -1.98,2.20 -2.34,1.88 -2.58,1.45 -2.82,1.03 -2.91,0.55 -3.00,0.08 -2.93,-0.40 -2.87,-0.88 -2.65,-1.31 -2.44,-1.75 -2.09,-2.09 -1.75,-2.44 -1.31,-2.65 -0.88,-2.87 -0.39,-2.93 0.08,-3.00 0.55,-2.91 1.03,-2.82 1.46,-2.58 1.88,-2.34 2.20,-1.97 2.53,-1.61 2.72,-1.17 2.91,-0.72 2.95,-0.23 2.99,0.24 2.87,0.71 2.76,1.18 2.49,1.59 2.23,2.00 1.85,2.31 1.47,2.61 1.02,2.78 0.56,2.95 0.07,2.96 -0.40,2.97 -0.87,2.83 -1.33,2.69 -1.73,2.40 -2.12,2.12 -2.12,2.12 -2.12,2.12 -2.34,1.83 -2.57,1.55 -2.72,1.22 -2.86,0.89 -2.93,0.53 -2.99,0.18 -2.97,-0.18 -2.95,-0.54 -2.84,-0.88 -2.74,-1.23 -2.55,-1.54 -2.36,-1.85 -2.10,-2.10 -1.85,-2.36 -1.54,-2.55 -1.23,-2.74 -0.88,-2.84 -0.54,-2.95 -0.17,-2.97 0.18,-2.99 0.53,-2.93 0.89,-2.86 1.22,-2.72 1.55,-2.57 1.84,-2.34 2.12,-2.12 2.12,-2.12 L 2.12,-2.12 Z"></path></g><g transform="translate(518.0000610351562 671.8124847412109) rotate(0 0.00004999999999988347 0.00005000000000165983)" stroke="none"><path fill="#000" d="M 2.12,-2.12 Q 2.12,-2.12 2.40,-1.73 2.69,-1.33 2.83,-0.87 2.97,-0.40 2.96,0.08 2.95,0.56 2.78,1.02 2.61,1.47 2.31,1.85 2.00,2.23 1.59,2.49 1.18,2.76 0.71,2.87 0.24,2.99 -0.24,2.95 -0.72,2.91 -1.17,2.72 -1.61,2.53 -1.98,2.20 -2.34,1.88 -2.58,1.45 -2.82,1.03 -2.91,0.55 -3.00,0.08 -2.93,-0.40 -2.87,-0.88 -2.65,-1.31 -2.44,-1.75 -2.09,-2.09 -1.75,-2.44 -1.31,-2.65 -0.88,-2.87 -0.39,-2.93 0.08,-3.00 0.55,-2.91 1.03,-2.82 1.46,-2.58 1.88,-2.34 2.20,-1.97 2.53,-1.61 2.72,-1.17 2.91,-0.72 2.95,-0.23 2.99,0.24 2.87,0.71 2.76,1.18 2.49,1.59 2.23,2.00 1.85,2.31 1.47,2.61 1.02,2.78 0.56,2.95 0.07,2.96 -0.40,2.97 -0.87,2.83 -1.33,2.69 -1.73,2.40 -2.12,2.12 -2.12,2.12 -2.12,2.12 -2.34,1.83 -2.57,1.55 -2.72,1.22 -2.86,0.89 -2.93,0.53 -2.99,0.18 -2.97,-0.18 -2.95,-0.54 -2.84,-0.88 -2.74,-1.23 -2.55,-1.54 -2.36,-1.85 -2.10,-2.10 -1.85,-2.36 -1.54,-2.55 -1.23,-2.74 -0.88,-2.84 -0.54,-2.95 -0.17,-2.97 0.18,-2.99 0.53,-2.93 0.89,-2.86 1.22,-2.72 1.55,-2.57 1.84,-2.34 2.12,-2.12 2.12,-2.12 L 2.12,-2.12 Z"></path></g><g transform="translate(518.0000610351562 671.8124847412109) rotate(0 7.60003662109375 -0.79998779296875)" stroke="none"><path fill="#000" d="M -0.19,-1.74 Q -0.19,-1.74 1.85,-2.14 3.90,-2.54 6.86,-2.83 9.81,-3.13 11.70,-3.34 13.60,-3.56 15.17,-3.58 16.74,-3.60 16.95,-3.59 17.16,-3.59 17.36,-3.52 17.56,-3.45 17.73,-3.32 17.90,-3.19 18.02,-3.01 18.13,-2.83 18.19,-2.62 18.24,-2.42 18.22,-2.21 18.21,-1.99 18.13,-1.80 18.05,-1.60 17.91,-1.44 17.77,-1.28 17.58,-1.18 17.40,-1.07 17.19,-1.03 16.98,-0.98 16.77,-1.01 16.56,-1.04 16.37,-1.13 16.18,-1.22 16.03,-1.37 15.87,-1.52 15.78,-1.71 15.68,-1.90 15.65,-2.11 15.62,-2.32 15.66,-2.53 15.69,-2.73 15.80,-2.92 15.90,-3.11 16.05,-3.25 16.21,-3.39 16.41,-3.48 16.60,-3.57 16.81,-3.59 17.02,-3.61 17.23,-3.56 17.44,-3.51 17.62,-3.40 17.80,-3.28 17.93,-3.12 18.07,-2.96 18.14,-2.76 18.22,-2.56 18.23,-2.35 18.23,-2.13 18.17,-1.93 18.11,-1.73 17.99,-1.55 17.87,-1.38 17.70,-1.25 17.53,-1.13 17.33,-1.06 17.12,-1.00 17.12,-1.00 17.12,-1.00 15.69,-0.57 14.25,-0.14 12.25,0.37 10.26,0.89 7.31,1.26 4.37,1.62 2.28,1.68 0.19,1.74 -0.01,1.74 -0.22,1.73 -0.43,1.68 -0.63,1.63 -0.82,1.53 -1.01,1.43 -1.16,1.29 -1.32,1.14 -1.44,0.97 -1.56,0.79 -1.63,0.60 -1.70,0.40 -1.73,0.19 -1.75,-0.01 -1.72,-0.22 -1.69,-0.43 -1.62,-0.63 -1.54,-0.83 -1.42,-1.00 -1.30,-1.17 -1.14,-1.31 -0.98,-1.45 -0.79,-1.55 -0.60,-1.64 -0.39,-1.69 -0.19,-1.74 -0.19,-1.74 L -0.19,-1.74 Z"></path></g><g transform="translate(511.60009765625 685.4124908447266) rotate(0 13.5999755859375 -2.8000030517578125)" stroke="none"><path fill="#000" d="M -0.17,-1.97 Q -0.17,-1.97 2.33,-2.34 4.85,-2.72 6.90,-3.24 8.95,-3.77 12.24,-4.45 15.53,-5.12 20.20,-5.76 24.87,-6.40 25.08,-6.41 25.30,-6.43 25.50,-6.37 25.71,-6.32 25.88,-6.20 26.06,-6.09 26.19,-5.92 26.32,-5.75 26.39,-5.55 26.47,-5.35 26.47,-5.14 26.47,-4.93 26.41,-4.72 26.34,-4.52 26.21,-4.35 26.09,-4.18 25.91,-4.06 25.74,-3.94 25.54,-3.88 25.33,-3.82 25.12,-3.82 24.91,-3.83 24.71,-3.91 24.51,-3.99 24.35,-4.12 24.18,-4.26 24.07,-4.44 23.96,-4.62 23.91,-4.82 23.86,-5.03 23.88,-5.24 23.90,-5.45 23.99,-5.65 24.08,-5.84 24.22,-6.00 24.36,-6.15 24.55,-6.26 24.74,-6.36 24.94,-6.40 25.15,-6.43 25.36,-6.40 25.57,-6.37 25.76,-6.27 25.95,-6.18 26.10,-6.02 26.25,-5.87 26.34,-5.68 26.43,-5.49 26.46,-5.28 26.48,-5.07 26.44,-4.86 26.40,-4.65 26.29,-4.47 26.18,-4.28 26.02,-4.14 25.86,-4.00 25.67,-3.92 25.47,-3.84 25.47,-3.84 25.47,-3.84 20.97,-2.32 16.46,-0.81 13.26,-0.09 10.06,0.62 7.66,1.21 5.26,1.80 2.72,1.88 0.17,1.97 -0.05,1.97 -0.29,1.96 -0.52,1.89 -0.76,1.83 -0.96,1.71 -1.17,1.59 -1.35,1.43 -1.52,1.27 -1.65,1.07 -1.78,0.86 -1.86,0.64 -1.94,0.41 -1.96,0.17 -1.98,-0.06 -1.94,-0.29 -1.91,-0.53 -1.82,-0.75 -1.72,-0.97 -1.58,-1.16 -1.44,-1.36 -1.26,-1.51 -1.07,-1.66 -0.86,-1.77 -0.64,-1.87 -0.41,-1.92 -0.17,-1.97 -0.17,-1.97 L -0.17,-1.97 Z"></path></g><g transform="translate(567.60009765625 655.8124847412109) rotate(0 -1.600006103515625 16.800003051757812)" stroke="none"><path fill="#000" d="M 1.79,1.19 Q 1.79,1.19 0.93,2.56 0.08,3.93 -0.12,5.95 -0.33,7.97 -0.48,11.18 -0.63,14.39 -0.71,18.52 -0.78,22.66 -0.84,25.58 -0.90,28.49 -1.39,30.59 -1.87,32.68 -1.91,32.89 -1.95,33.10 -2.05,33.29 -2.15,33.47 -2.30,33.62 -2.46,33.76 -2.65,33.85 -2.85,33.94 -3.06,33.96 -3.27,33.98 -3.48,33.93 -3.68,33.89 -3.86,33.77 -4.05,33.66 -4.18,33.50 -4.32,33.34 -4.40,33.14 -4.47,32.94 -4.48,32.73 -4.49,32.52 -4.43,32.31 -4.37,32.11 -4.25,31.93 -4.13,31.76 -3.96,31.63 -3.79,31.50 -3.59,31.44 -3.39,31.37 -3.18,31.37 -2.96,31.38 -2.76,31.45 -2.56,31.51 -2.39,31.64 -2.23,31.77 -2.11,31.95 -1.99,32.13 -1.94,32.33 -1.88,32.54 -1.89,32.75 -1.91,32.96 -1.99,33.16 -2.07,33.36 -2.21,33.52 -2.35,33.68 -2.53,33.79 -2.71,33.89 -2.92,33.94 -3.13,33.98 -3.34,33.96 -3.55,33.93 -3.74,33.84 -3.93,33.75 -4.09,33.60 -4.24,33.45 -4.34,33.27 -4.44,33.08 -4.47,32.87 -4.50,32.66 -4.50,32.66 -4.50,32.66 -4.95,30.55 -5.40,28.45 -5.40,25.52 -5.40,22.58 -5.33,18.37 -5.27,14.16 -5.08,10.70 -4.90,7.24 -4.33,4.41 -3.76,1.58 -2.77,0.19 -1.79,-1.19 -1.62,-1.39 -1.45,-1.58 -1.24,-1.73 -1.03,-1.89 -0.79,-1.98 -0.54,-2.08 -0.29,-2.11 -0.03,-2.15 0.22,-2.12 0.48,-2.09 0.72,-2.01 0.96,-1.92 1.18,-1.77 1.40,-1.63 1.57,-1.44 1.75,-1.25 1.87,-1.02 2.00,-0.79 2.06,-0.54 2.13,-0.29 2.13,-0.03 2.14,0.22 2.08,0.47 2.02,0.73 1.90,0.96 1.79,1.19 1.79,1.19 L 1.79,1.19 Z"></path></g><g transform="translate(598 648.6125030517578) rotate(0 14.79998779296875 13.600006103515625)" stroke="none"><path fill="#000" d="M -1.93,-0.96 Q -1.93,-0.96 -0.88,-2.66 0.15,-4.36 3.96,-5.06 7.78,-5.76 11.25,-4.71 14.72,-3.66 17.46,-1.68 20.21,0.28 21.94,2.46 23.67,4.63 24.05,7.66 24.42,10.70 21.40,13.43 18.39,16.17 14.41,17.95 10.44,19.72 7.10,20.70 3.76,21.67 1.95,22.06 0.13,22.46 -0.14,22.50 -0.42,22.55 -0.70,22.53 -0.98,22.50 -1.24,22.41 -1.51,22.32 -1.75,22.17 -1.99,22.02 -2.18,21.82 -2.38,21.62 -2.52,21.37 -2.66,21.13 -2.74,20.86 -2.81,20.59 -2.83,20.31 -2.84,20.03 -2.78,19.75 -2.72,19.47 -2.60,19.22 -2.48,18.97 -2.30,18.75 -2.13,18.53 -1.90,18.36 -1.67,18.19 -1.42,18.08 -1.16,17.97 0.40,18.11 1.97,18.25 4.13,18.30 6.28,18.36 9.47,18.86 12.67,19.36 16.36,20.28 20.05,21.20 22.80,22.07 25.55,22.94 27.60,24.09 29.66,25.24 30.84,26.31 32.02,27.38 32.72,29.02 33.42,30.66 33.52,30.84 33.62,31.03 33.66,31.24 33.69,31.45 33.66,31.66 33.63,31.87 33.53,32.06 33.44,32.25 33.28,32.39 33.13,32.54 32.94,32.63 32.75,32.73 32.54,32.75 32.33,32.78 32.12,32.73 31.91,32.69 31.73,32.58 31.54,32.48 31.40,32.31 31.26,32.15 31.18,31.96 31.10,31.76 31.09,31.55 31.07,31.34 31.13,31.13 31.18,30.93 31.30,30.75 31.42,30.57 31.59,30.44 31.75,30.31 31.95,30.24 32.15,30.17 32.37,30.17 32.58,30.17 32.78,30.23 32.98,30.30 33.15,30.42 33.32,30.55 33.45,30.72 33.57,30.90 33.63,31.10 33.69,31.31 33.68,31.52 33.67,31.73 33.59,31.93 33.51,32.13 33.38,32.29 33.24,32.46 33.06,32.57 32.88,32.68 32.67,32.73 32.47,32.77 32.26,32.75 32.04,32.73 31.85,32.65 31.66,32.56 31.50,32.42 31.35,32.27 31.35,32.27 31.35,32.27 30.17,31.50 28.99,30.73 28.16,29.99 27.33,29.26 25.73,28.31 24.13,27.37 21.52,26.55 18.92,25.73 15.42,24.86 11.92,23.98 9.03,23.50 6.13,23.03 3.13,22.74 0.13,22.46 -0.14,22.50 -0.42,22.55 -0.70,22.53 -0.98,22.50 -1.24,22.41 -1.51,22.33 -1.75,22.17 -1.99,22.02 -2.18,21.82 -2.38,21.62 -2.52,21.37 -2.66,21.13 -2.74,20.86 -2.81,20.59 -2.83,20.31 -2.84,20.03 -2.78,19.75 -2.72,19.47 -2.60,19.22 -2.48,18.97 -2.30,18.75 -2.13,18.53 -1.90,18.36 -1.68,18.19 -1.42,18.08 -1.16,17.97 0.65,17.58 2.47,17.19 5.52,16.32 8.57,15.44 12.05,13.96 15.53,12.47 17.72,9.88 19.91,7.29 18.66,5.63 17.40,3.98 15.30,2.34 13.19,0.70 10.65,-0.23 8.10,-1.18 5.35,-1.16 2.60,-1.15 2.26,-0.09 1.93,0.96 1.78,1.18 1.64,1.40 1.45,1.57 1.26,1.75 1.03,1.87 0.80,2.00 0.55,2.07 0.30,2.13 0.04,2.14 -0.21,2.14 -0.47,2.09 -0.72,2.03 -0.95,1.91 -1.19,1.80 -1.39,1.63 -1.58,1.46 -1.74,1.25 -1.89,1.04 -1.98,0.79 -2.08,0.55 -2.12,0.30 -2.15,0.04 -2.13,-0.21 -2.10,-0.47 -2.01,-0.72 -1.93,-0.96 -1.93,-0.96 L -1.93,-0.96 Z"></path></g><g transform="translate(595.60009765625 677.4124908447266) rotate(0 7.199951171875 4.399993896484375)" stroke="none"><path fill="#000" d="M -1.52,-1.52 Q -1.52,-1.52 -0.13,-2.88 1.25,-4.25 1.84,-5.07 2.43,-5.89 2.63,-6.05 2.83,-6.20 3.06,-6.31 3.30,-6.41 3.55,-6.46 3.80,-6.51 4.06,-6.49 4.31,-6.48 4.56,-6.40 4.80,-6.32 5.02,-6.19 5.24,-6.06 5.42,-5.88 5.60,-5.70 5.73,-5.48 5.86,-5.26 5.94,-5.01 6.02,-4.77 6.03,-4.52 6.05,-4.26 6.00,-4.01 5.95,-3.76 5.85,-3.52 5.74,-3.29 5.59,-3.09 5.43,-2.89 3.44,-2.98 1.45,-3.08 0.19,-1.83 -1.06,-0.57 0.94,3.51 2.95,7.60 4.38,8.94 5.81,10.27 8.31,10.43 10.82,10.59 12.64,10.49 14.45,10.39 16.09,9.66 17.72,8.93 17.92,8.85 18.12,8.78 18.33,8.77 18.54,8.76 18.75,8.82 18.95,8.89 19.12,9.01 19.30,9.13 19.42,9.30 19.55,9.47 19.61,9.68 19.68,9.88 19.67,10.09 19.67,10.30 19.60,10.50 19.52,10.70 19.39,10.87 19.26,11.04 19.08,11.15 18.90,11.27 18.70,11.32 18.49,11.37 18.28,11.36 18.07,11.34 17.87,11.26 17.68,11.18 17.52,11.04 17.36,10.90 17.25,10.71 17.15,10.53 17.10,10.32 17.06,10.11 17.09,9.90 17.12,9.69 17.21,9.50 17.30,9.31 17.45,9.16 17.60,9.00 17.79,8.91 17.98,8.81 18.19,8.78 18.40,8.75 18.61,8.79 18.82,8.83 19.01,8.93 19.19,9.04 19.33,9.19 19.48,9.35 19.56,9.55 19.65,9.74 19.67,9.95 19.69,10.16 19.64,10.37 19.59,10.58 19.47,10.76 19.36,10.94 19.19,11.07 19.03,11.20 19.03,11.20 19.03,11.20 16.95,12.61 14.87,14.01 12.71,14.18 10.56,14.36 6.97,14.09 3.39,13.83 1.30,11.99 -0.78,10.15 -3.41,5.81 -6.04,1.46 -5.25,-1.06 -4.46,-3.60 -2.49,-5.26 -0.52,-6.92 0.95,-6.41 2.43,-5.89 2.63,-6.05 2.83,-6.20 3.06,-6.31 3.30,-6.41 3.55,-6.46 3.80,-6.51 4.06,-6.49 4.31,-6.48 4.55,-6.40 4.80,-6.32 5.02,-6.19 5.24,-6.06 5.42,-5.88 5.60,-5.70 5.73,-5.48 5.86,-5.26 5.94,-5.02 6.02,-4.77 6.03,-4.52 6.05,-4.26 6.00,-4.01 5.95,-3.76 5.85,-3.52 5.74,-3.29 5.59,-3.09 5.43,-2.89 4.84,-2.07 4.26,-1.26 2.89,0.12 1.52,1.52 1.31,1.68 1.11,1.84 0.87,1.94 0.63,2.05 0.38,2.09 0.12,2.14 -0.12,2.13 -0.38,2.11 -0.63,2.03 -0.88,1.96 -1.10,1.82 -1.32,1.69 -1.50,1.50 -1.69,1.32 -1.82,1.10 -1.96,0.88 -2.03,0.63 -2.11,0.38 -2.13,0.12 -2.14,-0.12 -2.09,-0.38 -2.05,-0.63 -1.94,-0.87 -1.83,-1.11 -1.68,-1.31 -1.52,-1.52 -1.52,-1.52 L -1.52,-1.52 Z"></path></g><g transform="translate(621.2000732421875 676.6125030517578) rotate(0 24.399993896484375 6.399993896484375)" stroke="none"><path fill="#000" d="M 1.90,0 Q 1.90,0 2.08,2.98 2.27,5.97 2.49,8.03 2.72,10.10 2.83,8.94 2.95,7.79 3.85,5.97 4.76,4.14 5.65,2.59 6.54,1.04 7.73,0.09 8.91,-0.85 10.52,-0.96 12.12,-1.06 13.74,0.26 15.35,1.59 16.59,3.33 17.84,5.06 18.64,6.57 19.44,8.07 19.97,8.89 20.51,9.71 20.60,9.98 20.70,10.24 20.73,10.53 20.76,10.81 20.73,11.09 20.69,11.37 20.59,11.64 20.48,11.90 20.32,12.13 20.16,12.36 19.94,12.55 19.73,12.74 19.48,12.87 19.22,13.00 18.95,13.06 18.67,13.13 18.39,13.12 18.10,13.12 17.83,13.05 17.55,12.98 17.30,12.85 17.05,12.71 16.84,12.52 16.63,12.33 16.47,12.10 16.31,11.86 17.09,10.08 17.87,8.29 18.51,7.11 19.14,5.92 20.21,3.94 21.28,1.96 22.58,0.45 23.88,-1.05 26.14,-1.94 28.39,-2.84 29.85,-0.45 31.30,1.93 31.95,3.90 32.60,5.86 33.44,7.38 34.28,8.91 35.91,9.96 37.54,11.01 39.27,11.29 41.00,11.57 42.70,11.24 44.41,10.90 46.28,10.28 48.15,9.65 48.36,9.59 48.56,9.52 48.77,9.53 48.98,9.53 49.18,9.60 49.38,9.68 49.55,9.81 49.72,9.94 49.83,10.12 49.95,10.30 50.00,10.50 50.05,10.71 50.04,10.92 50.02,11.13 49.94,11.33 49.86,11.52 49.72,11.68 49.58,11.84 49.39,11.95 49.21,12.05 49.00,12.10 48.79,12.14 48.58,12.11 48.37,12.08 48.18,11.99 47.99,11.90 47.84,11.75 47.68,11.60 47.59,11.41 47.49,11.22 47.46,11.01 47.43,10.80 47.47,10.59 47.51,10.38 47.61,10.19 47.72,10.01 47.87,9.87 48.03,9.72 48.22,9.64 48.42,9.55 48.63,9.53 48.84,9.51 49.05,9.56 49.26,9.61 49.44,9.73 49.61,9.84 49.75,10.01 49.88,10.17 49.96,10.37 50.03,10.57 50.04,10.78 50.05,10.99 49.99,11.20 49.93,11.40 49.80,11.57 49.68,11.75 49.51,11.87 49.34,12.00 49.34,12.00 49.34,12.00 47.35,13.32 45.37,14.64 42.87,15.36 40.38,16.08 37.63,15.59 34.88,15.10 32.48,13.25 30.08,11.41 29.01,9.37 27.93,7.33 27.53,4.54 27.13,1.76 26.14,2.89 25.16,4.03 24.10,6.10 23.04,8.18 21.90,10.04 20.77,11.91 20.64,10.81 20.51,9.71 20.60,9.98 20.70,10.24 20.73,10.53 20.76,10.81 20.73,11.09 20.69,11.37 20.59,11.64 20.48,11.90 20.32,12.13 20.16,12.36 19.94,12.55 19.73,12.74 19.48,12.87 19.22,13.00 18.95,13.06 18.67,13.13 18.39,13.12 18.10,13.12 17.83,13.05 17.55,12.98 17.30,12.85 17.05,12.71 16.84,12.52 16.63,12.33 16.47,12.10 16.31,11.86 15.78,11.04 15.25,10.22 14.63,8.96 14.01,7.70 13.00,6.17 11.99,4.64 11.09,3.96 10.18,3.27 9.41,4.65 8.63,6.02 7.78,7.83 6.92,9.65 5.49,12.12 4.06,14.59 2.69,14.83 1.31,15.06 -0.24,12.84 -1.80,10.62 -2.03,8.30 -2.27,5.98 -2.08,2.99 -1.90,0 -1.87,-0.22 -1.85,-0.45 -1.76,-0.67 -1.68,-0.88 -1.55,-1.07 -1.42,-1.26 -1.25,-1.41 -1.08,-1.56 -0.87,-1.67 -0.67,-1.78 -0.45,-1.83 -0.22,-1.89 0.00,-1.89 0.22,-1.89 0.45,-1.83 0.67,-1.78 0.87,-1.67 1.08,-1.56 1.25,-1.41 1.42,-1.26 1.55,-1.07 1.68,-0.88 1.76,-0.67 1.85,-0.45 1.87,-0.22 1.90,0.00 1.90,0.00 L 1.90,0 Z"></path></g><g transform="translate(750 647.8125152587891) rotate(0 -7.600006103515625 44.399993896484375)" stroke="none"><path fill="#000" d="M -1.64,0.32 Q -1.64,0.32 -2.04,-0.75 -2.45,-1.83 -2.73,-0.02 -3.01,1.78 -4.64,5.82 -6.26,9.87 -7.87,15.46 -9.49,21.05 -10.37,28.12 -11.25,35.19 -11.63,43.01 -12.01,50.82 -11.26,58.36 -10.51,65.91 -8.93,72.93 -7.34,79.96 -5.51,83.23 -3.68,86.50 -2.18,88.74 -0.67,90.97 -0.56,91.15 -0.44,91.33 -0.39,91.54 -0.34,91.74 -0.35,91.96 -0.37,92.17 -0.45,92.36 -0.54,92.56 -0.68,92.72 -0.82,92.88 -1.00,92.98 -1.19,93.09 -1.40,93.13 -1.60,93.17 -1.81,93.14 -2.03,93.11 -2.22,93.02 -2.41,92.93 -2.56,92.78 -2.71,92.63 -2.80,92.44 -2.90,92.25 -2.93,92.04 -2.96,91.83 -2.92,91.62 -2.88,91.41 -2.78,91.22 -2.67,91.04 -2.51,90.89 -2.36,90.75 -2.16,90.67 -1.97,90.58 -1.76,90.56 -1.54,90.55 -1.34,90.60 -1.13,90.65 -0.95,90.76 -0.77,90.87 -0.64,91.04 -0.50,91.20 -0.43,91.40 -0.36,91.60 -0.35,91.82 -0.34,92.03 -0.40,92.23 -0.47,92.43 -0.59,92.61 -0.71,92.78 -0.88,92.90 -1.06,93.03 -1.26,93.09 -1.46,93.16 -1.68,93.15 -1.89,93.15 -2.09,93.07 -2.29,93.00 -2.45,92.87 -2.62,92.74 -2.62,92.74 -2.62,92.74 -4.97,90.71 -7.32,88.69 -9.70,84.92 -12.07,81.15 -13.88,73.78 -15.69,66.42 -16.44,58.49 -17.20,50.57 -16.78,42.55 -16.35,34.53 -15.35,27.08 -14.34,19.64 -12.60,13.79 -10.85,7.95 -8.91,3.48 -6.96,-0.97 -5.75,-2.55 -4.53,-4.14 -2.38,-4.58 -0.23,-5.02 0.64,-3.89 1.53,-2.76 1.58,-1.54 1.64,-0.32 1.65,-0.12 1.67,0.07 1.64,0.27 1.60,0.47 1.52,0.65 1.44,0.84 1.32,1.00 1.20,1.16 1.04,1.29 0.88,1.41 0.70,1.50 0.52,1.59 0.32,1.63 0.12,1.67 -0.07,1.66 -0.27,1.65 -0.46,1.59 -0.66,1.53 -0.83,1.43 -1.01,1.33 -1.15,1.19 -1.30,1.05 -1.40,0.88 -1.51,0.71 -1.57,0.52 -1.64,0.32 -1.64,0.32 L -1.64,0.32 Z"></path></g><g transform="translate(759.60009765625 671.8124847412109) rotate(0 -6 5.20001220703125)" stroke="none"><path fill="#000" d="M -1.50,0.85 Q -1.50,0.85 -2.50,-0.67 -3.51,-2.20 -4.85,-2.68 -6.19,-3.15 -7.36,-3.22 -8.52,-3.30 -10.57,-2.66 -12.62,-2.01 -14.48,-0.71 -16.34,0.58 -17.98,2.19 -19.63,3.81 -20.15,5.12 -20.67,6.43 -20.04,7.78 -19.41,9.13 -17.71,9.60 -16.00,10.06 -13.69,9.95 -11.37,9.83 -8.91,8.96 -6.45,8.08 -4.58,6.90 -2.71,5.71 -1.61,4.24 -0.52,2.77 -0.10,4.08 0.31,5.39 0.23,7.03 0.15,8.67 0.40,9.81 0.65,10.95 1.93,11.62 3.22,12.29 4.81,12.31 6.40,12.34 8.44,11.77 10.48,11.21 10.69,11.16 10.89,11.11 11.10,11.13 11.32,11.15 11.51,11.23 11.71,11.32 11.86,11.46 12.02,11.60 12.12,11.79 12.23,11.97 12.26,12.18 12.30,12.39 12.27,12.60 12.24,12.81 12.15,13.00 12.05,13.19 11.90,13.34 11.75,13.49 11.56,13.58 11.37,13.68 11.16,13.70 10.94,13.73 10.74,13.69 10.53,13.65 10.34,13.54 10.16,13.44 10.02,13.28 9.88,13.12 9.80,12.92 9.71,12.73 9.70,12.51 9.68,12.30 9.73,12.10 9.79,11.89 9.90,11.71 10.02,11.53 10.19,11.40 10.35,11.27 10.55,11.20 10.75,11.13 10.96,11.12 11.18,11.12 11.38,11.18 11.58,11.25 11.75,11.37 11.93,11.50 12.05,11.67 12.17,11.84 12.23,12.05 12.29,12.25 12.29,12.46 12.28,12.68 12.20,12.87 12.13,13.07 11.99,13.24 11.86,13.40 11.68,13.52 11.50,13.63 11.50,13.63 11.50,13.63 8.98,14.98 6.47,16.34 3.77,16.29 1.08,16.24 -1.20,14.56 -3.49,12.89 -4.08,10.68 -4.67,8.48 -4.56,6.57 -4.45,4.67 -4.02,2.75 -3.59,0.84 -2.49,-0.26 -1.40,-1.38 0.07,-1.52 1.55,-1.65 2.62,-0.90 3.69,-0.15 3.99,1.27 4.29,2.69 3.60,4.09 2.91,5.48 1.30,7.44 -0.30,9.39 -2.64,10.85 -4.98,12.31 -8.09,13.33 -11.20,14.35 -14.43,14.37 -17.65,14.38 -20.32,12.99 -23.00,11.60 -24.00,8.58 -25.00,5.56 -23.95,3.08 -22.90,0.60 -20.86,-1.29 -18.81,-3.18 -16.31,-4.72 -13.81,-6.26 -11.02,-6.89 -8.23,-7.53 -6.66,-7.35 -5.09,-7.18 -3.71,-6.68 -2.34,-6.18 -1.25,-5.20 -0.16,-4.23 0.66,-2.54 1.50,-0.85 1.58,-0.66 1.66,-0.47 1.69,-0.26 1.73,-0.06 1.71,0.14 1.69,0.35 1.62,0.55 1.56,0.74 1.44,0.92 1.33,1.10 1.18,1.24 1.03,1.39 0.85,1.49 0.67,1.59 0.47,1.65 0.27,1.71 0.06,1.71 -0.14,1.72 -0.35,1.68 -0.55,1.64 -0.74,1.55 -0.93,1.46 -1.09,1.32 -1.25,1.19 -1.38,1.02 -1.50,0.85 -1.50,0.85 L -1.50,0.85 Z"></path></g><g transform="translate(791.60009765625 655.8124847412109) rotate(0 -19.20001220703125 32.40000915527344)" stroke="none"><path fill="#000" d="M 1.19,1.91 Q 1.19,1.91 -0.59,3.05 -2.39,4.19 -4.17,7.17 -5.96,10.14 -7.68,14.11 -9.40,18.09 -11.29,23.02 -13.19,27.95 -15.14,33.06 -17.09,38.17 -19.61,42.80 -22.12,47.42 -24.59,51.24 -27.06,55.07 -29.56,58.13 -32.06,61.20 -34.20,61.03 -36.34,60.86 -36.16,60.75 -35.99,60.63 -35.78,60.58 -35.57,60.53 -35.36,60.55 -35.15,60.56 -34.95,60.65 -34.76,60.73 -34.60,60.87 -34.44,61.01 -34.34,61.20 -34.23,61.38 -34.19,61.59 -34.15,61.80 -34.18,62.01 -34.21,62.22 -34.30,62.41 -34.40,62.60 -34.55,62.75 -34.70,62.90 -34.89,63.00 -35.08,63.09 -35.29,63.12 -35.50,63.15 -35.71,63.11 -35.92,63.07 -36.10,62.97 -36.29,62.86 -36.43,62.70 -36.57,62.55 -36.65,62.35 -36.74,62.16 -36.76,61.94 -36.77,61.73 -36.72,61.53 -36.67,61.32 -36.56,61.14 -36.44,60.96 -36.28,60.83 -36.11,60.70 -35.91,60.62 -35.71,60.55 -35.50,60.54 -35.29,60.54 -35.09,60.60 -34.88,60.66 -34.71,60.78 -34.54,60.91 -34.41,61.08 -34.29,61.25 -34.23,61.46 -34.16,61.66 -34.17,61.87 -34.17,62.08 -34.25,62.28 -34.32,62.48 -34.45,62.65 -34.59,62.81 -34.59,62.81 -34.59,62.81 -35.30,60.41 -36.01,58.01 -33.69,55.14 -31.38,52.27 -29.00,48.61 -26.63,44.95 -24.25,40.64 -21.87,36.32 -19.88,31.22 -17.89,26.12 -15.93,21.09 -13.96,16.06 -12.00,11.75 -10.04,7.44 -7.50,3.92 -4.96,0.40 -3.08,-0.75 -1.19,-1.91 -0.94,-2.02 -0.70,-2.14 -0.43,-2.19 -0.16,-2.24 0.10,-2.23 0.37,-2.22 0.63,-2.14 0.89,-2.06 1.12,-1.93 1.36,-1.79 1.55,-1.60 1.75,-1.41 1.89,-1.18 2.04,-0.95 2.12,-0.69 2.21,-0.43 2.23,-0.16 2.25,0.10 2.20,0.37 2.16,0.63 2.05,0.88 1.94,1.13 1.78,1.35 1.61,1.57 1.40,1.74 1.19,1.91 1.19,1.91 L 1.19,1.91 Z"></path></g><g transform="translate(806.0000610351562 687.8124847412109) rotate(0 -4 14.800003051757812)" stroke="none"><path fill="#000" d="M 0.72,1.99 Q 0.72,1.99 -1.78,2.97 -4.28,3.94 -5.64,4.76 -6.99,5.57 -8.15,6.54 -9.31,7.50 -10.31,9.09 -11.30,10.69 -12.62,13.80 -13.94,16.92 -14.73,19.54 -15.52,22.16 -15.54,23.29 -15.57,24.43 -14.38,25.03 -13.19,25.64 -11.24,25.56 -9.30,25.47 -6.41,24.93 -3.51,24.39 -0.25,23.15 3.00,21.90 6.13,20.70 9.26,19.49 9.47,19.43 9.67,19.36 9.88,19.37 10.10,19.38 10.30,19.45 10.49,19.52 10.66,19.65 10.83,19.79 10.94,19.97 11.06,20.14 11.11,20.35 11.16,20.56 11.14,20.77 11.13,20.98 11.04,21.17 10.96,21.37 10.82,21.53 10.68,21.69 10.49,21.79 10.31,21.90 10.10,21.94 9.89,21.98 9.68,21.95 9.47,21.92 9.28,21.83 9.09,21.73 8.94,21.58 8.79,21.43 8.69,21.24 8.60,21.05 8.57,20.84 8.54,20.63 8.58,20.42 8.62,20.22 8.72,20.03 8.83,19.85 8.98,19.70 9.14,19.56 9.34,19.48 9.53,19.39 9.74,19.37 9.95,19.36 10.16,19.41 10.37,19.46 10.55,19.57 10.73,19.69 10.86,19.85 10.99,20.02 11.07,20.22 11.14,20.42 11.15,20.63 11.15,20.84 11.09,21.04 11.03,21.25 10.91,21.42 10.78,21.59 10.61,21.72 10.44,21.84 10.44,21.84 10.44,21.84 7.48,23.68 4.51,25.52 0.96,27.13 -2.59,28.74 -6.00,29.52 -9.41,30.30 -12.55,30.07 -15.69,29.83 -17.80,27.93 -19.92,26.02 -20.14,23.41 -20.37,20.79 -19.46,17.84 -18.55,14.89 -16.96,11.40 -15.36,7.90 -13.84,5.84 -12.31,3.78 -10.79,2.64 -9.26,1.50 -7.54,0.62 -5.83,-0.26 -3.27,-1.13 -0.72,-1.99 -0.47,-2.05 -0.22,-2.11 0.02,-2.11 0.28,-2.10 0.53,-2.04 0.78,-1.97 1.00,-1.85 1.23,-1.73 1.42,-1.56 1.61,-1.38 1.75,-1.17 1.89,-0.96 1.98,-0.72 2.07,-0.48 2.09,-0.22 2.12,0.02 2.09,0.28 2.05,0.53 1.96,0.77 1.86,1.01 1.72,1.22 1.57,1.43 1.37,1.59 1.18,1.76 0.95,1.88 0.72,1.99 0.72,1.99 L 0.72,1.99 Z"></path></g><g transform="translate(861.2000122070312 642.2125091552734) rotate(0 10 48)" stroke="none"><path fill="#000" d="M 1.53,0.15 Q 1.53,0.15 1.73,2.43 1.92,4.70 3.86,9.07 5.81,13.43 8.48,18.61 11.15,23.80 13.70,29.81 16.26,35.81 18.30,42.13 20.33,48.44 21.23,54.98 22.13,61.52 22.04,67.86 21.95,74.20 20.23,80.12 18.51,86.05 17.26,89.19 16.01,92.33 13.43,93.61 10.86,94.88 10.68,94.77 10.50,94.65 10.37,94.48 10.24,94.32 10.17,94.12 10.10,93.92 10.09,93.70 10.09,93.49 10.15,93.29 10.22,93.09 10.34,92.91 10.47,92.74 10.64,92.62 10.82,92.50 11.02,92.44 11.22,92.38 11.44,92.39 11.65,92.39 11.85,92.47 12.05,92.54 12.21,92.68 12.37,92.81 12.49,92.99 12.60,93.17 12.65,93.38 12.70,93.59 12.68,93.80 12.66,94.01 12.57,94.20 12.49,94.40 12.34,94.55 12.20,94.71 12.02,94.81 11.83,94.92 11.62,94.96 11.41,94.99 11.20,94.96 10.99,94.93 10.80,94.84 10.61,94.74 10.46,94.59 10.31,94.44 10.22,94.25 10.13,94.05 10.10,93.84 10.08,93.63 10.12,93.42 10.16,93.22 10.27,93.03 10.37,92.85 10.53,92.71 10.69,92.57 10.89,92.48 11.08,92.40 11.30,92.39 11.51,92.37 11.71,92.43 11.92,92.48 11.92,92.48 11.92,92.48 11.67,91.53 11.42,90.59 12.49,87.59 13.57,84.59 15.15,79.33 16.74,74.06 16.85,68.13 16.96,62.20 16.17,56.11 15.37,50.02 13.43,43.93 11.48,37.84 9.01,31.99 6.53,26.13 3.84,20.72 1.15,15.31 -0.84,9.90 -2.84,4.49 -2.19,2.16 -1.53,-0.15 -1.49,-0.33 -1.45,-0.51 -1.37,-0.68 -1.29,-0.85 -1.16,-0.99 -1.04,-1.13 -0.89,-1.24 -0.74,-1.35 -0.57,-1.42 -0.40,-1.49 -0.21,-1.51 -0.03,-1.54 0.15,-1.52 0.33,-1.50 0.51,-1.44 0.68,-1.38 0.84,-1.28 1.00,-1.17 1.12,-1.04 1.25,-0.90 1.34,-0.74 1.43,-0.57 1.48,-0.39 1.52,-0.21 1.53,-0.03 1.53,0.15 1.53,0.15 L 1.53,0.15 Z"></path></g><g transform="translate(861.2000732421875 668.6125030517578) rotate(0 16.4000244140625 6.79998779296875)" stroke="none"><path fill="#000" d="M 1.12,-1.82 Q 1.12,-1.82 4.21,-0.14 7.30,1.52 10.61,3.43 13.93,5.34 17.35,7.05 20.76,8.76 23.74,9.94 26.71,11.12 28.75,11.70 30.78,12.29 32.34,13.03 33.89,13.77 34.09,13.84 34.29,13.91 34.46,14.04 34.62,14.17 34.74,14.35 34.86,14.53 34.91,14.74 34.96,14.94 34.95,15.15 34.93,15.37 34.85,15.56 34.77,15.76 34.63,15.92 34.48,16.08 34.30,16.18 34.12,16.29 33.91,16.33 33.70,16.37 33.49,16.34 33.28,16.32 33.09,16.22 32.90,16.13 32.74,15.98 32.59,15.83 32.50,15.64 32.40,15.45 32.37,15.24 32.34,15.03 32.38,14.82 32.42,14.62 32.52,14.43 32.62,14.24 32.78,14.10 32.94,13.96 33.13,13.87 33.33,13.79 33.54,13.77 33.75,13.75 33.96,13.80 34.16,13.85 34.34,13.96 34.52,14.07 34.66,14.24 34.79,14.40 34.87,14.60 34.94,14.80 34.95,15.01 34.96,15.23 34.90,15.43 34.83,15.63 34.71,15.81 34.59,15.98 34.42,16.11 34.25,16.23 34.04,16.29 33.84,16.36 33.63,16.35 33.42,16.35 33.42,16.35 33.42,16.35 31.61,16.47 29.80,16.60 27.37,16.16 24.93,15.72 21.72,14.50 18.51,13.28 14.95,11.51 11.38,9.74 8.02,7.78 4.65,5.83 1.76,3.82 -1.12,1.82 -1.32,1.66 -1.52,1.50 -1.68,1.29 -1.84,1.09 -1.94,0.85 -2.04,0.62 -2.09,0.36 -2.13,0.11 -2.11,-0.14 -2.10,-0.40 -2.02,-0.64 -1.94,-0.89 -1.80,-1.11 -1.67,-1.33 -1.49,-1.51 -1.30,-1.69 -1.08,-1.82 -0.86,-1.95 -0.61,-2.03 -0.36,-2.10 -0.11,-2.12 0.14,-2.13 0.39,-2.08 0.65,-2.03 0.88,-1.93 1.12,-1.82 1.12,-1.82 L 1.12,-1.82 Z"></path></g><g transform="translate(885.2000732421875 659.8124847412109) rotate(0 -11.20001220703125 17.20001220703125)" stroke="none"><path fill="#000" d="M 1.80,1.16 Q 1.80,1.16 -0.58,5.17 -2.96,9.17 -5.14,13.07 -7.32,16.97 -9.67,20.77 -12.02,24.57 -13.96,27.55 -15.90,30.53 -18.25,32.42 -20.60,34.31 -20.76,34.44 -20.92,34.58 -21.12,34.66 -21.31,34.74 -21.53,34.75 -21.74,34.76 -21.94,34.70 -22.15,34.65 -22.32,34.53 -22.50,34.41 -22.63,34.24 -22.76,34.07 -22.82,33.87 -22.89,33.67 -22.89,33.46 -22.89,33.24 -22.82,33.04 -22.76,32.84 -22.63,32.67 -22.50,32.50 -22.32,32.38 -22.15,32.26 -21.94,32.21 -21.74,32.15 -21.53,32.16 -21.31,32.17 -21.12,32.25 -20.92,32.33 -20.76,32.47 -20.59,32.61 -20.49,32.79 -20.38,32.97 -20.33,33.18 -20.28,33.39 -20.31,33.60 -20.33,33.81 -20.42,34.00 -20.51,34.19 -20.66,34.35 -20.80,34.50 -20.99,34.60 -21.18,34.70 -21.39,34.74 -21.60,34.77 -21.81,34.73 -22.02,34.70 -22.20,34.60 -22.39,34.50 -22.54,34.35 -22.68,34.19 -22.77,34.00 -22.86,33.81 -22.88,33.60 -22.91,33.38 -22.86,33.18 -22.82,32.97 -22.71,32.79 -22.60,32.60 -22.60,32.61 -22.60,32.61 -21.32,30.23 -20.05,27.86 -18.17,24.89 -16.29,21.92 -13.99,18.22 -11.69,14.51 -9.42,10.48 -7.15,6.46 -4.47,2.64 -1.80,-1.16 -1.63,-1.36 -1.47,-1.56 -1.26,-1.71 -1.05,-1.87 -0.81,-1.96 -0.57,-2.06 -0.31,-2.10 -0.06,-2.14 0.19,-2.12 0.45,-2.09 0.69,-2.01 0.94,-1.92 1.15,-1.78 1.37,-1.64 1.55,-1.46 1.72,-1.27 1.85,-1.04 1.98,-0.82 2.05,-0.57 2.12,-0.32 2.13,-0.06 2.13,0.19 2.08,0.44 2.02,0.70 1.91,0.93 1.80,1.16 1.80,1.16 L 1.80,1.16 Z"></path></g><g transform="translate(911.6000366210938 662.2125091552734) rotate(0 4 11.199981689453125)" stroke="none"><path fill="#000" d="M -1.57,-0.62 Q -1.57,-0.62 -1.24,-1.83 -0.92,-3.03 -0.49,-4.03 -0.06,-5.02 0.30,-5.67 0.67,-6.32 0.80,-6.54 0.93,-6.76 1.11,-6.94 1.29,-7.12 1.50,-7.25 1.72,-7.38 1.96,-7.45 2.21,-7.53 2.46,-7.55 2.71,-7.56 2.96,-7.52 3.21,-7.47 3.44,-7.37 3.68,-7.26 3.88,-7.11 4.08,-6.95 4.23,-6.75 4.39,-6.55 4.49,-6.32 4.60,-6.09 4.64,-5.84 4.69,-5.59 4.67,-5.34 4.66,-5.08 4.58,-4.84 4.51,-4.60 4.99,-3.44 5.46,-2.28 5.74,0.59 6.01,3.46 6.57,6.43 7.12,9.40 7.60,12.35 8.08,15.29 8.49,17.91 8.91,20.53 9.17,22.55 9.44,24.57 9.31,26.23 9.18,27.90 9.18,28.11 9.18,28.32 9.11,28.53 9.04,28.73 8.91,28.90 8.78,29.06 8.61,29.18 8.43,29.30 8.23,29.36 8.02,29.41 7.81,29.40 7.60,29.39 7.40,29.31 7.20,29.23 7.04,29.09 6.88,28.95 6.77,28.77 6.66,28.59 6.62,28.38 6.57,28.17 6.60,27.96 6.62,27.75 6.71,27.56 6.80,27.37 6.95,27.21 7.09,27.06 7.28,26.96 7.47,26.86 7.68,26.83 7.89,26.79 8.10,26.83 8.31,26.86 8.50,26.96 8.68,27.06 8.83,27.22 8.97,27.37 9.06,27.57 9.15,27.76 9.17,27.97 9.20,28.18 9.15,28.39 9.10,28.60 8.99,28.78 8.88,28.96 8.72,29.10 8.56,29.24 8.36,29.31 8.16,29.39 7.95,29.40 7.74,29.41 7.53,29.35 7.33,29.30 7.15,29.18 6.98,29.06 6.85,28.89 6.72,28.72 6.65,28.52 6.59,28.32 6.59,28.32 6.59,28.32 5.96,26.86 5.33,25.41 4.77,23.36 4.21,21.31 3.76,18.69 3.31,16.06 2.85,13.17 2.38,10.28 1.79,7.09 1.20,3.89 1.15,0.02 1.10,-3.85 0.88,-5.09 0.67,-6.32 0.80,-6.54 0.93,-6.76 1.11,-6.94 1.29,-7.12 1.50,-7.25 1.72,-7.38 1.96,-7.45 2.21,-7.53 2.46,-7.55 2.71,-7.56 2.96,-7.52 3.21,-7.47 3.44,-7.37 3.67,-7.26 3.87,-7.11 4.07,-6.95 4.23,-6.75 4.39,-6.55 4.49,-6.32 4.60,-6.09 4.64,-5.84 4.69,-5.59 4.67,-5.34 4.66,-5.08 4.58,-4.84 4.51,-4.60 3.64,-3.08 2.76,-1.56 2.16,-0.46 1.57,0.62 1.47,0.80 1.37,0.98 1.23,1.13 1.10,1.28 0.92,1.40 0.75,1.51 0.56,1.58 0.37,1.65 0.17,1.67 -0.03,1.69 -0.23,1.66 -0.43,1.63 -0.62,1.56 -0.81,1.48 -0.97,1.36 -1.14,1.24 -1.27,1.09 -1.41,0.93 -1.50,0.75 -1.59,0.57 -1.63,0.37 -1.68,0.17 -1.68,-0.03 -1.67,-0.23 -1.62,-0.43 -1.57,-0.62 -1.57,-0.62 L -1.57,-0.62 Z"></path></g><g transform="translate(953.2000732421875 651.8125152587891) rotate(0 16 13.599990844726562)" stroke="none"><path fill="#000" d="M -1.12,-1.60 Q -1.12,-1.60 1.19,-3.22 3.51,-4.84 6.42,-5.67 9.32,-6.50 12.69,-6.11 16.05,-5.73 19.38,-3.33 22.70,-0.94 24.41,1.74 26.13,4.42 26.12,7.48 26.12,10.54 24.03,13.03 21.94,15.53 18.36,17.49 14.77,19.46 13.04,19.82 11.32,20.18 13.43,21.51 15.54,22.85 17.82,24.17 20.10,25.50 22.00,26.53 23.89,27.56 25.43,28.50 26.97,29.44 29.21,30.42 31.45,31.39 31.65,31.46 31.86,31.52 32.03,31.64 32.20,31.77 32.32,31.94 32.45,32.11 32.51,32.32 32.57,32.52 32.56,32.73 32.56,32.95 32.48,33.15 32.41,33.34 32.27,33.51 32.14,33.67 31.96,33.79 31.78,33.90 31.57,33.95 31.37,34.00 31.16,33.98 30.94,33.97 30.75,33.88 30.55,33.80 30.40,33.65 30.24,33.51 30.14,33.32 30.03,33.14 29.99,32.93 29.95,32.72 29.98,32.51 30.01,32.30 30.11,32.11 30.20,31.92 30.36,31.77 30.51,31.62 30.70,31.53 30.89,31.44 31.10,31.41 31.31,31.38 31.52,31.42 31.73,31.46 31.91,31.57 32.10,31.67 32.24,31.83 32.38,31.99 32.46,32.19 32.54,32.38 32.56,32.59 32.58,32.81 32.52,33.01 32.47,33.22 32.36,33.40 32.24,33.57 32.07,33.71 31.91,33.84 31.71,33.91 31.51,33.98 31.30,33.99 31.08,33.99 31.08,33.99 31.08,33.99 29.15,34.19 27.22,34.38 25.90,33.93 24.57,33.48 23.09,32.61 21.62,31.74 19.66,30.68 17.70,29.62 15.26,28.19 12.81,26.75 10.20,24.57 7.59,22.39 7.64,20.47 7.69,18.55 10.17,16.97 12.65,15.39 15.72,13.88 18.79,12.37 20.44,11.00 22.09,9.64 22.24,7.96 22.39,6.27 21.21,4.29 20.04,2.31 17.64,0.23 15.24,-1.84 12.73,-2.26 10.22,-2.67 7.95,-2.13 5.68,-1.59 3.40,0.00 1.12,1.60 0.91,1.71 0.70,1.82 0.47,1.88 0.24,1.94 0.01,1.94 -0.22,1.94 -0.45,1.89 -0.68,1.83 -0.89,1.72 -1.10,1.61 -1.27,1.46 -1.45,1.30 -1.59,1.11 -1.72,0.92 -1.81,0.70 -1.89,0.48 -1.92,0.24 -1.95,0.01 -1.93,-0.22 -1.90,-0.45 -1.82,-0.67 -1.73,-0.89 -1.60,-1.09 -1.47,-1.28 -1.29,-1.44 -1.12,-1.60 -1.12,-1.60 L -1.12,-1.60 Z"></path></g><g transform="translate(947.6000366210938 681.4124908447266) rotate(0 35.20001220703125 4.8000030517578125)" stroke="none"><path fill="#000" d="M -1.43,-1.63 Q -1.43,-1.63 0.39,-3.23 2.21,-4.83 0.88,-3.90 -0.43,-2.98 -1.18,-1.47 -1.93,0.03 -2.25,2.36 -2.57,4.69 -1.81,5.89 -1.06,7.10 0.48,7.70 2.03,8.30 5.20,8.45 8.36,8.60 11.24,8.07 14.12,7.53 16.62,6.45 19.12,5.38 20.54,4.32 21.95,3.26 22.63,2.29 23.31,1.33 24.97,0.88 26.64,0.43 27.00,2.19 27.37,3.96 28.01,6.29 28.65,8.63 29.55,10.61 30.44,12.59 30.94,13.55 31.45,14.52 30.08,14.76 28.71,15.00 29.25,14.01 29.78,13.03 30.96,10.85 32.14,8.67 33.86,5.82 35.58,2.97 36.91,1.57 38.25,0.16 40.54,-0.27 42.84,-0.72 43.77,0.19 44.69,1.12 45.85,3.04 47.00,4.96 48.13,6.85 49.25,8.73 49.99,10.07 50.72,11.40 49.65,11.73 48.57,12.06 49.33,10.20 50.09,8.34 51.20,5.92 52.31,3.51 53.47,1.54 54.63,-0.41 54.77,-0.64 54.91,-0.87 55.10,-1.06 55.29,-1.26 55.53,-1.40 55.76,-1.54 56.02,-1.62 56.27,-1.70 56.54,-1.72 56.81,-1.73 57.08,-1.69 57.35,-1.64 57.60,-1.53 57.84,-1.42 58.06,-1.25 58.27,-1.08 58.44,-0.87 58.61,-0.66 58.72,-0.41 58.83,-0.17 58.88,0.09 58.93,0.36 58.91,0.63 58.90,0.90 58.82,1.16 58.74,1.42 59.92,1.29 61.11,1.17 62.13,2.61 63.16,4.04 64.18,5.44 65.19,6.83 66.29,7.65 67.38,8.47 68.86,8.80 70.35,9.13 72.52,9.20 74.70,9.26 74.91,9.27 75.12,9.27 75.32,9.34 75.52,9.41 75.69,9.54 75.86,9.67 75.97,9.85 76.09,10.02 76.15,10.23 76.20,10.44 76.19,10.65 76.17,10.86 76.09,11.06 76.01,11.25 75.87,11.41 75.73,11.57 75.55,11.68 75.37,11.79 75.16,11.83 74.95,11.87 74.74,11.85 74.53,11.82 74.34,11.73 74.14,11.64 73.99,11.49 73.84,11.35 73.74,11.16 73.64,10.97 73.61,10.76 73.58,10.55 73.62,10.34 73.65,10.13 73.76,9.94 73.86,9.76 74.01,9.61 74.17,9.47 74.36,9.38 74.56,9.29 74.77,9.27 74.98,9.25 75.19,9.30 75.39,9.35 75.58,9.46 75.76,9.57 75.89,9.74 76.03,9.90 76.10,10.10 76.18,10.30 76.19,10.51 76.20,10.72 76.14,10.92 76.08,11.13 75.96,11.30 75.84,11.48 75.67,11.60 75.50,11.73 75.29,11.80 75.09,11.86 75.09,11.86 75.09,11.86 72.27,12.69 69.45,13.51 67.01,12.93 64.58,12.35 62.95,11.03 61.32,9.71 60.25,8.23 59.18,6.76 58.54,5.76 57.91,4.77 56.27,2.18 54.63,-0.41 54.77,-0.64 54.91,-0.87 55.10,-1.06 55.29,-1.26 55.53,-1.40 55.76,-1.54 56.02,-1.62 56.27,-1.70 56.54,-1.72 56.81,-1.73 57.08,-1.69 57.35,-1.64 57.59,-1.53 57.84,-1.42 58.06,-1.25 58.27,-1.09 58.44,-0.87 58.61,-0.66 58.72,-0.41 58.83,-0.17 58.88,0.09 58.93,0.36 58.91,0.63 58.90,0.90 58.82,1.16 58.74,1.41 57.59,3.38 56.44,5.35 55.36,7.85 54.27,10.35 53.12,12.47 51.96,14.60 49.63,14.58 47.30,14.55 46.16,12.89 45.02,11.22 43.90,9.30 42.78,7.38 42.14,5.37 41.49,3.36 40.49,4.34 39.49,5.32 37.89,8.09 36.28,10.86 35.05,13.25 33.82,15.64 33.01,16.73 32.19,17.83 29.82,17.55 27.45,17.28 26.68,15.95 25.90,14.62 24.87,12.28 23.84,9.94 23.20,7.52 22.55,5.11 22.20,2.37 21.84,-0.36 23.91,-0.93 25.97,-1.51 26.69,-0.13 27.41,1.24 27.04,2.77 26.67,4.31 25.56,5.48 24.46,6.65 22.65,7.97 20.84,9.28 17.90,10.56 14.97,11.84 11.55,12.50 8.13,13.16 4.06,12.89 0.00,12.62 -2.48,11.14 -4.96,9.67 -6.11,7.07 -7.27,4.48 -6.68,1.11 -6.09,-2.26 -4.68,-4.42 -3.28,-6.58 -1.46,-7.81 0.36,-9.04 2.16,-9.37 3.96,-9.69 5.18,-9.03 6.40,-8.37 6.79,-6.83 7.18,-5.29 6.16,-3.44 5.14,-1.60 3.28,0.01 1.43,1.63 1.21,1.78 0.99,1.93 0.75,2.02 0.50,2.11 0.24,2.14 -0.01,2.17 -0.27,2.14 -0.53,2.10 -0.77,2.01 -1.02,1.91 -1.23,1.76 -1.45,1.61 -1.62,1.42 -1.79,1.22 -1.91,0.99 -2.03,0.75 -2.09,0.50 -2.15,0.24 -2.15,-0.01 -2.15,-0.27 -2.09,-0.52 -2.02,-0.78 -1.90,-1.01 -1.78,-1.24 -1.60,-1.44 -1.43,-1.63 -1.43,-1.63 L -1.43,-1.63 Z"></path></g><g transform="translate(1093.2000732421875 632.6125030517578) rotate(0 3.59991455078125 55.600006103515625)" stroke="none"><path fill="#000" d="M 1.94,0.86 Q 1.94,0.86 -0.52,7.20 -2.98,13.53 -4.51,19.86 -6.04,26.19 -6.68,32.92 -7.33,39.64 -7.15,46.55 -6.97,53.46 -5.99,59.97 -5.01,66.48 -3.47,72.39 -1.93,78.31 0.67,84.87 3.28,91.43 5.65,96.03 8.02,100.64 10.03,103.08 12.04,105.52 14.50,105.38 16.95,105.24 17.16,105.25 17.37,105.26 17.57,105.34 17.77,105.42 17.93,105.55 18.09,105.69 18.20,105.87 18.32,106.05 18.36,106.26 18.41,106.46 18.39,106.68 18.37,106.89 18.28,107.08 18.19,107.27 18.05,107.43 17.90,107.59 17.71,107.69 17.53,107.79 17.32,107.82 17.11,107.86 16.90,107.83 16.69,107.79 16.50,107.69 16.31,107.60 16.16,107.44 16.02,107.29 15.93,107.10 15.84,106.90 15.81,106.69 15.79,106.48 15.83,106.27 15.88,106.07 15.98,105.88 16.09,105.70 16.25,105.56 16.41,105.42 16.61,105.34 16.81,105.26 17.02,105.25 17.23,105.24 17.44,105.29 17.64,105.35 17.82,105.47 18.00,105.59 18.12,105.75 18.25,105.92 18.32,106.12 18.39,106.32 18.39,106.54 18.40,106.75 18.33,106.95 18.26,107.15 18.14,107.32 18.01,107.49 17.83,107.61 17.66,107.73 17.45,107.79 17.25,107.85 17.25,107.85 17.25,107.85 13.82,108.39 10.39,108.93 7.02,106.00 3.65,103.07 0.93,98.29 -1.77,93.50 -4.63,86.63 -7.50,79.76 -9.10,73.54 -10.71,67.33 -11.71,60.46 -12.70,53.59 -12.86,46.34 -13.01,39.08 -12.27,31.96 -11.53,24.83 -9.79,18.06 -8.05,11.30 -4.99,5.21 -1.94,-0.86 -1.81,-1.08 -1.68,-1.30 -1.49,-1.48 -1.31,-1.66 -1.10,-1.80 -0.88,-1.93 -0.63,-2.01 -0.39,-2.08 -0.13,-2.10 0.11,-2.12 0.37,-2.07 0.62,-2.03 0.85,-1.92 1.09,-1.82 1.29,-1.66 1.49,-1.51 1.65,-1.30 1.81,-1.10 1.92,-0.87 2.02,-0.64 2.07,-0.39 2.12,-0.13 2.10,0.11 2.09,0.37 2.01,0.61 1.94,0.86 1.94,0.86 L 1.94,0.86 Z"></path></g><g transform="translate(1071.6000366210938 658.2125091552734) rotate(0 6.4000244140625 23.999984741210938)" stroke="none"><path fill="#000" d="M 1.96,0 Q 1.96,0 2.22,3.22 2.48,6.44 2.26,10.86 2.05,15.28 1.96,20.31 1.86,25.35 1.59,30.08 1.32,34.81 0.98,38.24 0.63,41.67 0.24,43.89 -0.14,46.11 -0.32,46.54 -0.50,46.98 -0.58,47.27 -0.67,47.55 -0.83,47.81 -0.98,48.07 -1.19,48.29 -1.41,48.50 -1.66,48.66 -1.92,48.82 -2.21,48.91 -2.49,49.00 -2.79,49.02 -3.10,49.04 -3.39,48.99 -3.69,48.93 -3.96,48.81 -4.24,48.69 -4.48,48.50 -4.72,48.32 -4.90,48.08 -5.09,47.85 -5.22,47.57 -5.34,47.30 -5.40,47.00 -5.45,46.71 -5.44,46.40 -5.42,46.10 -4.72,43.67 -4.03,41.24 -2.75,38.27 -1.48,35.29 0.04,32.80 1.57,30.30 3.25,28.44 4.93,26.58 6.59,25.63 8.26,24.69 10.34,24.68 12.42,24.67 14.21,26.51 15.99,28.35 16.71,30.84 17.43,33.32 16.94,35.91 16.44,38.50 13.89,41.23 11.34,43.97 8.45,45.36 5.56,46.75 2.20,46.83 -1.15,46.92 -1.36,46.88 -1.57,46.84 -1.75,46.74 -1.94,46.63 -2.08,46.48 -2.22,46.32 -2.31,46.12 -2.39,45.93 -2.41,45.72 -2.43,45.51 -2.38,45.30 -2.33,45.09 -2.21,44.91 -2.10,44.73 -1.94,44.60 -1.77,44.47 -1.57,44.39 -1.37,44.32 -1.16,44.31 -0.95,44.30 -0.74,44.36 -0.54,44.43 -0.37,44.55 -0.19,44.67 -0.07,44.84 0.04,45.02 0.11,45.22 0.17,45.42 0.17,45.63 0.16,45.85 0.09,46.05 0.02,46.25 -0.10,46.41 -0.24,46.58 -0.42,46.69 -0.59,46.81 -0.80,46.86 -1.01,46.91 -1.22,46.90 -1.43,46.88 -1.62,46.80 -1.82,46.72 -1.98,46.57 -2.14,46.43 -2.24,46.25 -2.35,46.06 -2.39,45.86 -2.43,45.65 -2.40,45.44 -2.38,45.23 -2.28,45.04 -2.19,44.84 -2.04,44.69 -1.89,44.54 -1.70,44.45 -1.51,44.35 -1.30,44.32 -1.09,44.29 -1.09,44.29 -1.09,44.29 1.27,43.42 3.64,42.55 5.90,41.58 8.16,40.60 10.15,38.86 12.14,37.11 12.58,35.66 13.02,34.20 12.70,32.59 12.38,30.97 11.28,29.80 10.18,28.63 9.17,29.12 8.15,29.61 6.79,31.13 5.42,32.65 4.10,34.86 2.78,37.08 1.68,39.78 0.59,42.47 0.04,44.73 -0.50,46.98 -0.58,47.27 -0.67,47.55 -0.83,47.81 -0.98,48.07 -1.19,48.29 -1.41,48.50 -1.66,48.66 -1.92,48.82 -2.21,48.91 -2.49,49.00 -2.79,49.02 -3.10,49.04 -3.39,48.99 -3.69,48.93 -3.96,48.81 -4.24,48.69 -4.48,48.50 -4.72,48.32 -4.90,48.08 -5.09,47.85 -5.22,47.57 -5.34,47.30 -5.40,47.00 -5.45,46.71 -5.44,46.41 -5.42,46.10 -5.28,45.66 -5.14,45.21 -4.77,43.18 -4.41,41.15 -4.06,37.84 -3.72,34.52 -3.45,29.88 -3.18,25.25 -3.07,20.13 -2.97,15.02 -2.72,10.73 -2.48,6.43 -2.22,3.21 -1.96,0 -1.94,-0.23 -1.91,-0.47 -1.82,-0.69 -1.74,-0.91 -1.60,-1.11 -1.47,-1.30 -1.29,-1.46 -1.11,-1.62 -0.90,-1.73 -0.69,-1.84 -0.46,-1.89 -0.23,-1.95 0.00,-1.95 0.23,-1.95 0.46,-1.89 0.69,-1.84 0.90,-1.73 1.11,-1.62 1.29,-1.46 1.47,-1.30 1.60,-1.11 1.74,-0.91 1.82,-0.69 1.91,-0.47 1.94,-0.23 1.96,0.00 1.96,0.00 L 1.96,0 Z"></path></g><g transform="translate(1112.4000854492188 661.4124908447266) rotate(0 -16 32.80000305175781)" stroke="none"><path fill="#000" d="M 1.79,1.14 Q 1.79,1.14 0.37,3.79 -1.05,6.43 -2.98,10.62 -4.92,14.81 -7.11,20.47 -9.30,26.12 -11.63,31.81 -13.96,37.50 -17.52,44.60 -21.07,51.70 -22.79,55.34 -24.50,58.98 -26.01,61.37 -27.52,63.77 -28.49,65.12 -29.47,66.46 -29.57,66.09 -29.67,65.72 -29.82,65.94 -29.96,66.16 -30.16,66.34 -30.35,66.51 -30.59,66.64 -30.82,66.76 -31.07,66.83 -31.33,66.89 -31.59,66.90 -31.85,66.90 -32.11,66.84 -32.37,66.78 -32.60,66.66 -32.84,66.54 -33.03,66.37 -33.23,66.20 -33.38,65.98 -33.54,65.77 -33.63,65.52 -33.73,65.28 -33.76,65.02 -33.80,64.75 -33.77,64.49 -33.74,64.23 -33.65,63.98 -33.56,63.74 -33.07,62.55 -32.58,61.37 -32.52,61.16 -32.46,60.96 -32.34,60.78 -32.23,60.60 -32.06,60.48 -31.89,60.35 -31.69,60.28 -31.49,60.21 -31.27,60.21 -31.06,60.21 -30.86,60.28 -30.66,60.34 -30.49,60.47 -30.32,60.60 -30.20,60.78 -30.08,60.95 -30.02,61.16 -29.97,61.36 -29.98,61.57 -29.99,61.79 -30.07,61.98 -30.14,62.18 -30.28,62.34 -30.42,62.51 -30.60,62.62 -30.78,62.72 -30.99,62.77 -31.20,62.82 -31.41,62.79 -31.62,62.77 -31.81,62.68 -32.01,62.59 -32.16,62.45 -32.31,62.30 -32.41,62.12 -32.51,61.93 -32.55,61.72 -32.58,61.51 -32.55,61.30 -32.52,61.09 -32.42,60.90 -32.32,60.71 -32.16,60.57 -32.01,60.42 -31.82,60.33 -31.62,60.24 -31.41,60.22 -31.20,60.19 -30.99,60.24 -30.79,60.28 -30.60,60.39 -30.42,60.50 -30.28,60.67 -30.15,60.83 -30.07,61.02 -29.99,61.22 -29.98,61.43 -29.96,61.65 -29.96,61.65 -29.96,61.65 -29.82,63.68 -29.67,65.72 -29.82,65.94 -29.96,66.16 -30.16,66.34 -30.35,66.51 -30.59,66.64 -30.82,66.76 -31.07,66.83 -31.33,66.89 -31.59,66.90 -31.85,66.90 -32.11,66.84 -32.37,66.78 -32.60,66.66 -32.83,66.54 -33.03,66.37 -33.23,66.20 -33.38,65.98 -33.54,65.77 -33.63,65.52 -33.73,65.28 -33.76,65.02 -33.80,64.75 -33.77,64.49 -33.74,64.23 -33.65,63.98 -33.56,63.74 -32.91,62.25 -32.26,60.77 -30.92,58.67 -29.58,56.57 -27.84,52.88 -26.10,49.18 -22.61,42.27 -19.12,35.36 -16.77,29.74 -14.42,24.11 -12.09,18.29 -9.77,12.48 -7.58,8.08 -5.38,3.68 -3.59,1.26 -1.79,-1.14 -1.63,-1.34 -1.47,-1.54 -1.26,-1.69 -1.06,-1.85 -0.82,-1.95 -0.58,-2.05 -0.33,-2.09 -0.07,-2.13 0.17,-2.11 0.43,-2.08 0.67,-2.00 0.92,-1.92 1.13,-1.78 1.35,-1.64 1.53,-1.46 1.70,-1.27 1.83,-1.05 1.96,-0.83 2.03,-0.58 2.10,-0.33 2.11,-0.07 2.12,0.17 2.07,0.42 2.02,0.68 1.91,0.91 1.79,1.14 1.79,1.14 L 1.79,1.14 Z"></path></g><g transform="translate(1114.0000610351562 708.6125030517578) rotate(0 -4.79998779296875 -1.20001220703125)" stroke="none"><path fill="#000" d="M -1.33,1.00 Q -1.33,1.00 -2.26,0.27 -3.19,-0.44 -5.34,0.03 -7.49,0.51 -7.52,0.72 -7.55,0.93 -7.64,1.12 -7.73,1.31 -7.89,1.46 -8.04,1.61 -8.23,1.71 -8.42,1.80 -8.63,1.83 -8.84,1.86 -9.05,1.82 -9.25,1.78 -9.44,1.68 -9.62,1.57 -9.77,1.41 -9.91,1.25 -9.99,1.06 -10.08,0.86 -10.09,0.65 -10.11,0.44 -10.06,0.23 -10.01,0.03 -9.89,-0.14 -9.78,-0.32 -9.61,-0.45 -9.45,-0.59 -9.25,-0.66 -9.05,-0.73 -8.84,-0.74 -8.62,-0.74 -8.42,-0.68 -8.22,-0.62 -8.05,-0.49 -7.87,-0.37 -7.75,-0.20 -7.62,-0.03 -7.56,0.17 -7.50,0.37 -7.51,0.58 -7.51,0.80 -7.59,0.99 -7.66,1.19 -7.79,1.36 -7.92,1.53 -8.10,1.64 -8.28,1.75 -8.49,1.81 -8.70,1.86 -8.91,1.84 -9.12,1.82 -9.31,1.74 -9.51,1.65 -9.67,1.51 -9.83,1.37 -9.93,1.19 -10.03,1.00 -10.07,0.79 -10.11,0.58 -10.11,0.58 -10.11,0.58 -8.14,-2.16 -6.17,-4.92 -4.35,-5.03 -2.53,-5.15 -1.04,-4.19 0.43,-3.23 0.88,-2.11 1.33,-1.00 1.43,-0.82 1.53,-0.65 1.59,-0.45 1.64,-0.26 1.65,-0.06 1.66,0.13 1.62,0.33 1.58,0.52 1.49,0.71 1.40,0.89 1.28,1.04 1.15,1.20 0.99,1.32 0.83,1.44 0.64,1.52 0.46,1.60 0.26,1.63 0.06,1.66 -0.13,1.65 -0.33,1.63 -0.52,1.57 -0.71,1.50 -0.88,1.39 -1.05,1.29 -1.19,1.14 -1.33,1.00 -1.33,1.00 L -1.33,1.00 Z"></path></g></svg>