<svg version="1.1" xmlns="http://www.w3.org/2000/svg" viewBox="0 0 10020 695.4624938964844" width="10020" height="695.4624938964844">
  <!-- svg-source:excalidraw -->
  
  <defs>
    <style>
      @font-face {
        font-family: "Virgil";
        src: url("https://excalidraw.com/Virgil.woff2");
      }
      @font-face {
        font-family: "Cascadia";
        src: url("https://excalidraw.com/Cascadia.woff2");
      }
    </style>
  </defs>
  <rect x="0" y="0" width="10020" height="695.4624938964844" fill="#fff0"></rect><g stroke-linecap="round" transform="translate(10 10) rotate(0 5000 0.5)"><path d="M-0.52 -0.26 C3022.65 -30.2, 6044.59 -29.2, 9999.32 0.22 M0.38 -0.31 C3948.03 -0.44, 7895.41 0.2, 9999.95 0.08 M10000.08 -0.06 C10000.09 0.27, 10000.05 0.48, 10000.09 0.92 M9999.97 0.01 C9999.95 0.33, 9999.98 0.72, 10000 0.99 M10000.22 1.51 C7095.77 35.76, 4193.15 34.95, -0.25 0.75 M10000.01 1.13 C7827.97 2.74, 5656.23 3.35, -0.33 0.84 M-0.04 1.01 C0 0.63, -0.06 0.15, 0.05 -0.03 M-0.04 0.95 C-0.04 0.73, -0.03 0.59, -0.05 -0.02" stroke="transparent" stroke-width="1" fill="none"></path></g><g transform="translate(798.7999877929688 550.2624816894531) rotate(0 28.4000244140625 52.40000915527344)" stroke="none"><path fill="#000" d="M 1.59,0.79 Q 1.59,0.79 -0.07,4.56 -1.74,8.32 -3.42,11.94 -5.09,15.55 -6.22,19.25 -7.34,22.96 -8.78,26.94 -10.22,30.93 -11.74,35.34 -13.26,39.76 -14.84,43.97 -16.41,48.18 -18.49,52.58 -20.57,56.98 -22.42,59.87 -24.27,62.75 -25.49,64.62 -26.71,66.48 -27.73,67.80 -28.75,69.11 -24.85,70.87 -20.96,72.63 -16.42,75.34 -11.88,78.04 -7.00,80.78 -2.12,83.52 2.72,86.31 7.57,89.10 12.85,92.11 18.14,95.13 22.03,97.59 25.93,100.05 28.91,101.74 31.88,103.44 33.61,104.39 35.34,105.35 36.38,106.03 37.43,106.71 38.84,106.19 40.25,105.67 41.65,103.94 43.06,102.20 46.00,98.21 48.95,94.22 52.26,89.32 55.57,84.42 59.31,79.09 63.05,73.77 67.91,67.77 72.77,61.78 75.98,58.07 79.20,54.37 81.27,52.10 83.33,49.83 84.51,48.78 85.69,47.73 85.08,45.90 84.47,44.06 81.76,40.52 79.04,36.99 75.85,33.23 72.66,29.46 69.25,25.82 65.85,22.17 60.83,18.19 55.80,14.20 51.38,11.12 46.95,8.04 43.27,5.83 39.59,3.62 36.31,2.28 33.02,0.94 30.09,0.16 27.15,-0.62 25.04,-0.95 22.93,-1.28 21.22,-1.67 19.51,-2.06 18.09,-2.28 16.67,-2.49 15.49,-1.31 14.32,-0.12 14.19,0.04 14.07,0.22 13.90,0.34 13.73,0.47 13.53,0.53 13.32,0.60 13.11,0.59 12.90,0.59 12.70,0.52 12.50,0.44 12.33,0.31 12.16,0.18 12.05,0.00 11.93,-0.16 11.88,-0.37 11.83,-0.58 11.84,-0.79 11.86,-1.00 11.94,-1.20 12.02,-1.39 12.16,-1.55 12.30,-1.71 12.49,-1.82 12.67,-1.92 12.88,-1.96 13.09,-2.01 13.30,-1.98 13.51,-1.95 13.70,-1.86 13.89,-1.77 14.04,-1.62 14.19,-1.47 14.29,-1.28 14.39,-1.09 14.42,-0.88 14.45,-0.67 14.41,-0.46 14.37,-0.25 14.27,-0.07 14.16,0.11 14.01,0.25 13.85,0.40 13.66,0.48 13.46,0.57 13.25,0.59 13.04,0.61 12.83,0.56 12.63,0.51 12.45,0.39 12.27,0.28 12.13,0.12 12.00,-0.04 11.92,-0.24 11.85,-0.44 11.84,-0.65 11.83,-0.86 11.89,-1.06 11.95,-1.27 11.95,-1.27 11.95,-1.27 12.85,-3.69 13.75,-6.10 15.45,-6.50 17.16,-6.90 18.84,-6.65 20.52,-6.40 22.07,-6.04 23.63,-5.67 25.97,-5.29 28.31,-4.91 31.51,-4.04 34.71,-3.16 38.29,-1.67 41.87,-0.18 45.69,2.09 49.50,4.38 54.04,7.54 58.59,10.70 63.85,14.91 69.11,19.12 72.59,22.85 76.06,26.58 79.32,30.43 82.58,34.28 85.30,37.83 88.02,41.39 89.19,43.12 90.35,44.86 90.47,46.33 90.59,47.79 89.62,49.44 88.64,51.09 87.63,51.95 86.61,52.82 84.58,55.05 82.56,57.28 79.39,60.93 76.23,64.58 71.49,70.46 66.74,76.35 63.04,81.66 59.34,86.97 55.98,91.95 52.61,96.92 49.57,101.02 46.54,105.11 44.70,107.25 42.87,109.38 40.53,110.50 38.19,111.62 36.54,111.11 34.89,110.59 34.00,109.99 33.10,109.40 31.34,108.43 29.59,107.45 26.53,105.70 23.47,103.95 19.66,101.54 15.85,99.13 10.57,96.10 5.29,93.07 0.45,90.30 -4.37,87.53 -9.31,84.76 -14.24,81.99 -18.72,79.32 -23.21,76.65 -27.05,74.43 -30.89,72.21 -31.86,70.74 -32.82,69.27 -32.59,67.83 -32.35,66.39 -31.41,65.20 -30.47,64.01 -29.25,62.16 -28.02,60.31 -26.30,57.69 -24.57,55.07 -22.56,50.85 -20.54,46.64 -18.98,42.48 -17.43,38.33 -15.89,33.88 -14.36,29.43 -12.95,25.55 -11.55,21.66 -10.31,17.68 -9.06,13.70 -7.34,10.04 -5.61,6.39 -3.60,2.79 -1.59,-0.79 -1.47,-0.97 -1.35,-1.15 -1.19,-1.30 -1.04,-1.44 -0.85,-1.55 -0.66,-1.65 -0.45,-1.70 -0.24,-1.76 -0.03,-1.76 0.18,-1.77 0.38,-1.72 0.59,-1.67 0.79,-1.58 0.98,-1.48 1.14,-1.34 1.31,-1.20 1.43,-1.03 1.56,-0.85 1.64,-0.65 1.72,-0.46 1.75,-0.24 1.78,-0.03 1.76,0.17 1.73,0.39 1.66,0.59 1.59,0.79 1.59,0.79 L 1.59,0.79 Z"></path></g><g transform="translate(769.2000122070312 625.4624938964844) rotate(0 -29.20001220703125 -1.20001220703125)" stroke="none"><path fill="#000" d="M -0.22,1.30 Q -0.22,1.30 -5.59,0.81 -10.95,0.33 -14.51,-0.03 -18.07,-0.41 -22.00,-0.32 -25.94,-0.24 -30.15,0.01 -34.36,0.27 -38.38,0.85 -42.40,1.42 -46.00,1.91 -49.59,2.40 -52.09,2.61 -54.59,2.82 -56.71,2.45 -58.82,2.08 -59.03,2.06 -59.25,2.05 -59.44,1.97 -59.64,1.88 -59.80,1.74 -59.96,1.60 -60.06,1.42 -60.17,1.23 -60.21,1.03 -60.25,0.82 -60.22,0.61 -60.20,0.40 -60.10,0.21 -60.01,0.01 -59.86,-0.13 -59.71,-0.28 -59.52,-0.37 -59.33,-0.47 -59.12,-0.50 -58.91,-0.53 -58.70,-0.49 -58.50,-0.45 -58.31,-0.35 -58.12,-0.25 -57.98,-0.09 -57.84,0.06 -57.75,0.25 -57.67,0.45 -57.65,0.66 -57.63,0.87 -57.68,1.08 -57.73,1.28 -57.84,1.46 -57.96,1.64 -58.12,1.78 -58.28,1.91 -58.48,1.99 -58.68,2.06 -58.89,2.07 -59.11,2.07 -59.31,2.01 -59.51,1.95 -59.69,1.83 -59.86,1.71 -59.99,1.54 -60.11,1.36 -60.18,1.16 -60.24,0.96 -60.24,0.75 -60.23,0.53 -60.16,0.33 -60.09,0.13 -59.96,-0.02 -59.82,-0.19 -59.65,-0.30 -59.47,-0.42 -59.26,-0.47 -59.06,-0.53 -59.06,-0.53 -59.06,-0.53 -57.01,-1.17 -54.97,-1.82 -52.58,-2.00 -50.19,-2.19 -46.61,-2.65 -43.03,-3.10 -38.83,-3.67 -34.63,-4.23 -30.32,-4.49 -26.01,-4.74 -21.80,-4.78 -17.60,-4.83 -13.90,-4.42 -10.20,-4.01 -4.98,-2.65 0.22,-1.30 0.37,-1.25 0.53,-1.20 0.66,-1.12 0.80,-1.04 0.91,-0.93 1.03,-0.82 1.11,-0.68 1.19,-0.55 1.24,-0.40 1.29,-0.24 1.30,-0.09 1.31,0.06 1.29,0.22 1.26,0.38 1.20,0.52 1.13,0.67 1.03,0.79 0.94,0.92 0.81,1.02 0.69,1.12 0.54,1.19 0.40,1.25 0.24,1.28 0.09,1.31 -0.06,1.30 -0.22,1.30 -0.22,1.30 L -0.22,1.30 Z"></path></g><g transform="translate(718 595.0625) rotate(0 17.20001220703125 0.79998779296875)" stroke="none"><path fill="#000" d="M 1.60,0.13 Q 1.60,0.13 1.61,2.91 1.62,5.69 1.52,8.19 1.43,10.70 1.62,12.81 1.80,14.92 1.89,16.09 1.97,17.27 1.96,17.53 1.95,17.78 1.88,18.02 1.81,18.27 1.69,18.49 1.56,18.71 1.38,18.89 1.21,19.07 1.00,19.21 0.78,19.34 0.54,19.43 0.30,19.51 0.05,19.53 -0.19,19.55 -0.44,19.51 -0.69,19.47 -0.92,19.37 -1.16,19.27 -1.36,19.12 -1.56,18.97 -1.72,18.77 -1.88,18.58 -1.99,18.35 -2.10,18.12 -2.15,17.87 -2.21,17.63 -1.95,15.79 -1.69,13.96 -1.59,10.68 -1.49,7.39 -1.45,3.20 -1.40,-0.99 -1.38,-4.15 -1.36,-7.32 -1.59,-9.23 -1.81,-11.15 -1.11,-12.88 -0.41,-14.61 1.71,-13.15 3.84,-11.68 5.77,-8.91 7.70,-6.14 9.42,-3.83 11.14,-1.53 12.48,-0.20 13.81,1.13 14.93,1.83 16.04,2.53 17.36,2.30 18.68,2.08 19.56,0.77 20.44,-0.54 21.57,-2.67 22.71,-4.80 23.64,-7.26 24.57,-9.72 25.45,-11.98 26.34,-14.24 27.02,-15.67 27.70,-17.11 27.52,-16.84 27.35,-16.56 27.46,-16.79 27.56,-17.02 27.72,-17.22 27.88,-17.42 28.08,-17.58 28.28,-17.74 28.51,-17.84 28.74,-17.94 28.99,-17.99 29.24,-18.03 29.49,-18.02 29.75,-18.00 29.99,-17.92 30.23,-17.85 30.45,-17.72 30.66,-17.58 30.84,-17.40 31.02,-17.22 31.15,-17.01 31.28,-16.79 31.36,-16.55 31.43,-16.30 31.45,-16.05 31.46,-15.80 31.42,-15.55 31.37,-15.30 31.53,-12.24 31.69,-9.17 31.70,-5.84 31.71,-2.52 31.95,0.42 32.19,3.36 32.72,5.38 33.25,7.41 33.65,8.67 34.04,9.94 34.75,10.70 35.46,11.46 35.63,11.58 35.80,11.71 35.93,11.88 36.05,12.05 36.11,12.25 36.18,12.46 36.17,12.67 36.16,12.88 36.09,13.08 36.02,13.28 35.89,13.45 35.75,13.61 35.57,13.73 35.39,13.84 35.19,13.89 34.98,13.95 34.77,13.93 34.56,13.91 34.36,13.83 34.17,13.74 34.01,13.60 33.85,13.46 33.75,13.28 33.64,13.09 33.60,12.88 33.56,12.67 33.59,12.46 33.62,12.25 33.71,12.06 33.81,11.87 33.96,11.72 34.11,11.57 34.30,11.48 34.49,11.38 34.70,11.35 34.91,11.32 35.12,11.36 35.33,11.40 35.51,11.51 35.70,11.61 35.84,11.77 35.98,11.93 36.06,12.12 36.15,12.32 36.17,12.53 36.18,12.74 36.13,12.95 36.08,13.15 35.97,13.33 35.85,13.51 35.69,13.65 35.52,13.78 35.32,13.85 35.12,13.93 34.91,13.93 34.70,13.94 34.50,13.88 34.29,13.81 34.29,13.81 34.29,13.81 32.23,12.67 30.16,11.52 29.63,9.99 29.09,8.47 28.50,6.08 27.91,3.70 27.67,0.60 27.44,-2.50 27.43,-5.82 27.42,-9.13 27.39,-12.85 27.35,-16.56 27.46,-16.79 27.56,-17.02 27.72,-17.22 27.88,-17.42 28.08,-17.58 28.28,-17.74 28.51,-17.84 28.74,-17.94 28.99,-17.99 29.24,-18.03 29.49,-18.02 29.75,-18.00 29.99,-17.92 30.23,-17.85 30.45,-17.72 30.66,-17.58 30.84,-17.40 31.02,-17.22 31.15,-17.01 31.28,-16.79 31.36,-16.55 31.43,-16.30 31.45,-16.05 31.46,-15.80 31.42,-15.55 31.37,-15.30 30.81,-14.00 30.26,-12.71 29.39,-10.47 28.52,-8.22 27.49,-5.51 26.45,-2.81 25.14,-0.35 23.82,2.09 22.17,4.00 20.52,5.90 18.53,6.49 16.55,7.09 15.13,6.63 13.71,6.16 12.23,5.17 10.75,4.17 9.22,2.61 7.69,1.04 5.93,-1.31 4.17,-3.68 1.87,-7.43 -0.41,-11.18 1.02,-11.40 2.46,-11.61 2.68,-9.45 2.90,-7.29 2.88,-4.12 2.86,-0.94 2.81,3.29 2.76,7.53 2.63,11.10 2.51,14.67 2.24,15.97 1.97,17.27 1.96,17.53 1.95,17.78 1.88,18.02 1.81,18.27 1.69,18.49 1.56,18.71 1.38,18.89 1.21,19.07 1.00,19.21 0.78,19.34 0.54,19.43 0.30,19.51 0.05,19.53 -0.19,19.55 -0.44,19.51 -0.69,19.47 -0.92,19.37 -1.16,19.27 -1.36,19.12 -1.56,18.97 -1.72,18.77 -1.88,18.58 -1.99,18.35 -2.10,18.12 -2.15,17.87 -2.21,17.63 -2.28,16.45 -2.36,15.27 -2.55,12.90 -2.74,10.54 -2.64,7.94 -2.54,5.34 -2.07,2.60 -1.60,-0.13 -1.56,-0.32 -1.52,-0.51 -1.44,-0.69 -1.36,-0.86 -1.23,-1.01 -1.11,-1.16 -0.95,-1.28 -0.80,-1.40 -0.62,-1.47 -0.44,-1.55 -0.25,-1.58 -0.06,-1.61 0.13,-1.59 0.32,-1.58 0.51,-1.51 0.69,-1.45 0.86,-1.35 1.02,-1.24 1.15,-1.10 1.29,-0.96 1.39,-0.79 1.48,-0.62 1.54,-0.44 1.59,-0.25 1.60,-0.06 1.60,0.13 1.60,0.13 L 1.60,0.13 Z"></path></g><g transform="translate(710.7999877929688 640.6625061035156) rotate(0 42.800018310546875 -1.600006103515625)" stroke="none"><path fill="#000" d="M -0.33,-1.43 Q -0.33,-1.43 2.61,-2.31 5.56,-3.20 9.02,-3.53 12.49,-3.86 17.61,-4.23 22.72,-4.59 27.69,-4.74 32.65,-4.89 37.29,-4.96 41.93,-5.02 46.03,-4.81 50.13,-4.61 54.34,-4.51 58.56,-4.42 61.28,-4.36 63.99,-4.30 65.84,-4.27 67.68,-4.25 69.15,-4.25 70.62,-4.25 72.17,-4.24 73.71,-4.24 76.06,-3.92 78.41,-3.60 80.03,-3.48 81.65,-3.36 82.13,-1.82 82.61,-0.28 82.40,-0.32 82.19,-0.35 82.00,-0.45 81.81,-0.54 81.67,-0.70 81.52,-0.85 81.43,-1.04 81.34,-1.23 81.31,-1.44 81.29,-1.66 81.33,-1.86 81.37,-2.07 81.48,-2.25 81.59,-2.44 81.75,-2.58 81.91,-2.72 82.11,-2.80 82.30,-2.88 82.51,-2.89 82.73,-2.90 82.93,-2.85 83.14,-2.79 83.31,-2.68 83.49,-2.56 83.62,-2.39 83.75,-2.22 83.82,-2.02 83.89,-1.82 83.89,-1.61 83.90,-1.40 83.83,-1.20 83.76,-0.99 83.64,-0.82 83.51,-0.65 83.33,-0.53 83.16,-0.41 82.96,-0.35 82.75,-0.29 82.54,-0.30 82.33,-0.31 82.13,-0.39 81.93,-0.47 81.77,-0.60 81.60,-0.74 81.49,-0.92 81.38,-1.10 81.33,-1.31 81.29,-1.51 81.31,-1.72 81.33,-1.94 81.42,-2.13 81.50,-2.32 81.65,-2.48 81.79,-2.63 81.98,-2.74 82.17,-2.84 82.38,-2.87 82.58,-2.91 82.58,-2.91 82.58,-2.91 82.02,-1.52 81.45,-0.13 79.76,-0.20 78.07,-0.28 75.89,-0.42 73.70,-0.56 72.15,-0.56 70.61,-0.56 69.13,-0.57 67.65,-0.59 65.80,-0.59 63.94,-0.60 61.21,-0.61 58.48,-0.63 54.21,-0.71 49.93,-0.78 45.96,-0.98 41.99,-1.18 37.38,-1.12 32.77,-1.05 27.88,-0.90 22.99,-0.75 17.91,-0.41 12.82,-0.06 9.61,0.18 6.39,0.44 3.36,0.93 0.33,1.43 0.15,1.44 -0.02,1.46 -0.19,1.44 -0.37,1.42 -0.53,1.35 -0.70,1.29 -0.84,1.18 -0.99,1.08 -1.10,0.95 -1.22,0.81 -1.30,0.65 -1.38,0.50 -1.42,0.32 -1.46,0.15 -1.45,-0.02 -1.45,-0.19 -1.41,-0.36 -1.36,-0.54 -1.28,-0.69 -1.19,-0.85 -1.07,-0.98 -0.95,-1.11 -0.81,-1.21 -0.66,-1.31 -0.49,-1.37 -0.33,-1.43 -0.33,-1.43 L -0.33,-1.43 Z"></path></g><g transform="translate(566.7999877929688 630.2624816894531) rotate(0 78.00003051757812 9.600006103515625)" stroke="none"><path fill="#000" d="M 1.63,0.20 Q 1.63,0.20 1.61,2.07 1.59,3.93 1.51,6.69 1.44,9.45 1.39,12.48 1.35,15.51 1.34,19.10 1.33,22.69 1.55,25.27 1.77,27.86 2.07,29.32 2.38,30.79 4.05,31.61 5.73,32.43 8.01,32.15 10.30,31.87 13.40,31.31 16.51,30.75 20.22,30.27 23.92,29.80 28.50,29.36 33.08,28.92 39.68,28.74 46.28,28.55 51.83,28.47 57.38,28.39 62.27,28.35 67.16,28.32 71.82,28.54 76.49,28.76 82.36,29.08 88.24,29.40 93.69,29.53 99.14,29.67 104.49,29.96 109.84,30.26 115.11,30.61 120.37,30.97 124.92,31.35 129.47,31.74 134.33,31.90 139.20,32.07 142.65,32.15 146.11,32.24 148.72,32.27 151.34,32.30 153.01,32.10 154.68,31.89 155.92,31.81 157.17,31.73 157.14,30.20 157.12,28.66 157.14,27.10 157.15,25.53 157.16,23.25 157.17,20.97 157.17,17.01 157.17,13.05 157.17,10.22 157.18,7.38 157.18,5.03 157.18,2.67 157.17,0.75 157.17,-1.16 157.17,-2.66 157.17,-4.17 157.17,-5.27 157.16,-6.37 156.59,-7.35 156.02,-8.33 154.30,-8.32 152.58,-8.31 151.28,-8.57 149.99,-8.82 148.74,-8.90 147.50,-8.98 145.67,-9.27 143.85,-9.55 141.07,-9.88 138.29,-10.22 135.34,-10.36 132.38,-10.50 129.20,-10.79 126.03,-11.09 122.62,-11.44 119.21,-11.80 115.69,-12.18 112.17,-12.56 106.12,-12.94 100.07,-13.33 96.35,-13.50 92.63,-13.66 87.85,-13.73 83.07,-13.79 79.20,-13.82 75.32,-13.84 71.14,-13.85 66.97,-13.87 64.73,-13.87 62.50,-13.87 60.40,-13.88 58.30,-13.88 56.49,-13.88 54.68,-13.88 52.88,-13.66 51.08,-13.44 48.81,-13.33 46.54,-13.22 44.66,-13.18 42.78,-13.14 41.06,-13.13 39.34,-13.11 37.46,-13.10 35.58,-13.09 33.40,-13.09 31.22,-13.09 29.50,-12.86 27.79,-12.64 26.15,-12.32 24.51,-12.01 22.76,-11.86 21.00,-11.70 19.48,-11.42 17.96,-11.14 16.01,-11.01 14.05,-10.87 12.45,-10.60 10.86,-10.33 9.61,-10.20 8.36,-10.07 6.44,-9.99 4.53,-9.92 3.43,-9.90 2.33,-9.89 1.31,-9.59 0.29,-9.29 -0.22,-9.19 -0.74,-9.08 -0.65,-8.89 -0.57,-8.69 -0.55,-8.48 -0.53,-8.27 -0.58,-8.07 -0.63,-7.86 -0.74,-7.68 -0.86,-7.50 -1.02,-7.37 -1.19,-7.23 -1.39,-7.16 -1.59,-7.08 -1.80,-7.08 -2.01,-7.07 -2.21,-7.13 -2.42,-7.19 -2.59,-7.32 -2.76,-7.44 -2.89,-7.61 -3.01,-7.78 -3.08,-7.99 -3.14,-8.19 -3.13,-8.40 -3.13,-8.61 -3.06,-8.81 -2.98,-9.01 -2.85,-9.18 -2.72,-9.35 -2.54,-9.46 -2.36,-9.58 -2.16,-9.63 -1.95,-9.68 -1.74,-9.66 -1.53,-9.65 -1.33,-9.57 -1.14,-9.48 -0.98,-9.34 -0.82,-9.20 -0.71,-9.01 -0.61,-8.83 -0.57,-8.62 -0.53,-8.41 -0.55,-8.20 -0.58,-7.99 -0.68,-7.80 -0.77,-7.61 -0.92,-7.46 -1.07,-7.31 -1.26,-7.21 -1.45,-7.12 -1.66,-7.09 -1.87,-7.06 -2.08,-7.10 -2.29,-7.14 -2.47,-7.24 -2.66,-7.35 -2.80,-7.50 -2.94,-7.66 -2.94,-7.66 -2.94,-7.66 -1.66,-10.53 -0.39,-13.39 0.95,-13.75 2.29,-14.11 3.36,-14.12 4.43,-14.14 6.18,-14.21 7.93,-14.27 9.05,-14.39 10.16,-14.50 11.97,-14.79 13.77,-15.08 15.49,-15.19 17.22,-15.30 18.93,-15.60 20.65,-15.90 22.18,-16.03 23.72,-16.15 25.49,-16.49 27.26,-16.83 29.23,-17.07 31.21,-17.31 33.38,-17.32 35.56,-17.32 37.43,-17.33 39.30,-17.33 40.99,-17.35 42.69,-17.37 44.52,-17.41 46.35,-17.46 48.47,-17.54 50.58,-17.63 52.63,-17.87 54.67,-18.11 56.49,-18.11 58.30,-18.10 60.40,-18.10 62.51,-18.10 64.74,-18.09 66.98,-18.09 71.17,-18.07 75.35,-18.06 79.24,-18.02 83.14,-17.99 87.98,-17.91 92.82,-17.84 96.58,-17.67 100.34,-17.50 106.48,-17.11 112.62,-16.71 116.13,-16.33 119.64,-15.94 123.03,-15.59 126.41,-15.24 129.50,-14.95 132.58,-14.66 135.69,-14.50 138.80,-14.35 141.64,-13.99 144.49,-13.64 146.14,-13.37 147.79,-13.11 150.22,-12.78 152.64,-12.45 154.36,-12.40 156.08,-12.35 157.37,-11.92 158.66,-11.50 159.59,-10.64 160.52,-9.78 160.87,-8.07 161.23,-6.37 161.22,-5.27 161.22,-4.17 161.22,-2.66 161.22,-1.16 161.22,0.76 161.21,2.68 161.21,5.03 161.21,7.39 161.21,10.22 161.21,13.05 161.20,17.02 161.20,20.98 161.19,23.28 161.19,25.57 161.17,27.20 161.15,28.82 161.11,29.94 161.07,31.06 160.84,32.29 160.61,33.51 159.10,34.62 157.59,35.73 156.38,35.84 155.17,35.94 153.23,36.17 151.29,36.40 148.66,36.38 146.03,36.35 142.54,36.30 139.06,36.24 134.09,36.09 129.12,35.93 124.61,35.55 120.09,35.18 114.85,34.83 109.62,34.48 104.33,34.20 99.04,33.92 93.52,33.78 88.01,33.64 82.15,33.31 76.29,32.99 71.74,32.78 67.19,32.57 62.32,32.60 57.44,32.63 51.92,32.71 46.40,32.78 39.94,32.96 33.48,33.14 28.97,33.56 24.46,33.99 20.86,34.45 17.25,34.92 13.98,35.50 10.71,36.07 7.73,36.30 4.75,36.53 2.42,35.68 0.08,34.84 -0.82,33.26 -1.74,31.67 -2.08,29.94 -2.43,28.21 -2.65,25.44 -2.88,22.67 -2.85,19.06 -2.83,15.45 -2.79,12.38 -2.75,9.31 -2.63,6.36 -2.51,3.42 -2.07,1.60 -1.63,-0.20 -1.58,-0.39 -1.54,-0.59 -1.44,-0.76 -1.35,-0.94 -1.22,-1.09 -1.09,-1.23 -0.92,-1.35 -0.76,-1.46 -0.57,-1.53 -0.38,-1.60 -0.19,-1.62 0.00,-1.65 0.20,-1.62 0.40,-1.60 0.58,-1.52 0.77,-1.45 0.93,-1.34 1.09,-1.23 1.23,-1.08 1.36,-0.93 1.45,-0.75 1.54,-0.57 1.59,-0.38 1.63,-0.19 1.63,0.00 1.63,0.20 1.63,0.20 L 1.63,0.20 Z"></path></g><g transform="translate(910.7999877929688 615.0625) rotate(0 -4.79998779296875 -3.600006103515625)" stroke="none"><path fill="#000" d="M -0.80,1.21 Q -0.80,1.21 -2.21,0.33 -3.63,-0.53 -4.48,-1.18 -5.34,-1.83 -6.43,-2.82 -7.53,-3.82 -8.81,-4.87 -10.09,-5.91 -10.23,-6.07 -10.38,-6.23 -10.46,-6.42 -10.55,-6.62 -10.56,-6.83 -10.58,-7.04 -10.53,-7.25 -10.48,-7.45 -10.37,-7.63 -10.26,-7.81 -10.09,-7.95 -9.93,-8.08 -9.73,-8.15 -9.53,-8.23 -9.31,-8.23 -9.10,-8.24 -8.90,-8.18 -8.70,-8.12 -8.52,-8.00 -8.35,-7.87 -8.22,-7.70 -8.10,-7.53 -8.04,-7.33 -7.97,-7.12 -7.98,-6.91 -7.98,-6.70 -8.06,-6.50 -8.13,-6.30 -8.26,-6.13 -8.39,-5.97 -8.57,-5.85 -8.75,-5.74 -8.96,-5.68 -9.16,-5.63 -9.37,-5.65 -9.59,-5.66 -9.78,-5.75 -9.98,-5.83 -10.13,-5.97 -10.29,-6.11 -10.40,-6.30 -10.50,-6.48 -10.55,-6.69 -10.59,-6.90 -10.56,-7.11 -10.53,-7.32 -10.44,-7.51 -10.34,-7.70 -10.19,-7.85 -10.04,-8.00 -9.85,-8.10 -9.66,-8.19 -9.45,-8.22 -9.24,-8.25 -9.03,-8.21 -8.83,-8.17 -8.64,-8.07 -8.46,-7.97 -8.46,-7.97 -8.46,-7.97 -6.50,-6.60 -4.54,-5.24 -3.21,-4.19 -1.88,-3.14 -0.53,-2.17 0.80,-1.21 0.94,-1.09 1.07,-0.98 1.17,-0.84 1.27,-0.69 1.34,-0.53 1.40,-0.37 1.43,-0.19 1.45,-0.02 1.43,0.15 1.42,0.32 1.36,0.49 1.30,0.65 1.20,0.80 1.10,0.94 0.97,1.06 0.84,1.18 0.69,1.27 0.53,1.35 0.36,1.39 0.19,1.44 0.02,1.44 -0.15,1.44 -0.32,1.41 -0.49,1.37 -0.65,1.29 -0.80,1.21 -0.80,1.21 L -0.80,1.21 Z"></path></g><g transform="translate(878 603.0625) rotate(0 57.60003662109375 -0.8000030517578125)" stroke="none"><path fill="#000" d="M 0,-1.75 Q 0,-1.75 4.59,-1.93 9.19,-2.11 12.93,-2.35 16.66,-2.58 22.46,-2.69 28.25,-2.80 35.74,-3.08 43.22,-3.37 51.73,-3.50 60.23,-3.62 68.44,-3.67 76.65,-3.72 83.82,-3.74 90.99,-3.76 97.26,-3.76 103.53,-3.76 106.65,-3.77 109.78,-3.77 112.00,-3.34 114.22,-2.91 114.43,-2.87 114.63,-2.84 114.82,-2.74 115.01,-2.64 115.16,-2.49 115.30,-2.33 115.39,-2.14 115.48,-1.95 115.50,-1.74 115.53,-1.52 115.48,-1.32 115.44,-1.11 115.33,-0.93 115.22,-0.74 115.06,-0.61 114.89,-0.47 114.70,-0.39 114.50,-0.31 114.29,-0.30 114.08,-0.29 113.87,-0.34 113.67,-0.40 113.49,-0.52 113.31,-0.64 113.19,-0.81 113.06,-0.98 112.99,-1.18 112.92,-1.38 112.92,-1.59 112.92,-1.81 112.99,-2.01 113.06,-2.21 113.18,-2.38 113.31,-2.55 113.49,-2.67 113.66,-2.79 113.87,-2.84 114.07,-2.90 114.29,-2.89 114.50,-2.88 114.70,-2.80 114.89,-2.72 115.05,-2.58 115.22,-2.45 115.33,-2.26 115.44,-2.08 115.48,-1.87 115.53,-1.67 115.51,-1.45 115.48,-1.24 115.39,-1.05 115.30,-0.86 115.16,-0.70 115.01,-0.55 114.82,-0.45 114.64,-0.35 114.43,-0.32 114.22,-0.28 114.22,-0.28 114.22,-0.28 112.00,0.15 109.78,0.58 106.66,0.58 103.54,0.59 97.27,0.61 91.01,0.63 83.84,0.65 76.68,0.67 68.49,0.72 60.29,0.77 51.83,0.87 43.38,0.98 35.85,1.23 28.33,1.49 22.62,1.57 16.91,1.66 13.05,1.89 9.20,2.11 4.60,1.93 0,1.75 -0.20,1.72 -0.41,1.70 -0.61,1.62 -0.81,1.55 -0.98,1.43 -1.16,1.31 -1.30,1.15 -1.44,0.99 -1.54,0.80 -1.64,0.62 -1.69,0.41 -1.74,0.21 -1.74,-0.00 -1.74,-0.21 -1.69,-0.41 -1.64,-0.62 -1.54,-0.80 -1.44,-0.99 -1.30,-1.15 -1.16,-1.31 -0.98,-1.43 -0.81,-1.55 -0.61,-1.62 -0.41,-1.70 -0.20,-1.72 0.00,-1.75 0.00,-1.75 L 0,-1.75 Z"></path></g><g transform="translate(922.7999877929688 563.0625) rotate(0 3.20001220703125 12.399993896484375)" stroke="none"><path fill="#000" d="M 1.61,1.07 Q 1.61,1.07 0.24,3.15 -1.12,5.22 -2.31,7.82 -3.50,10.42 -4.27,12.05 -5.05,13.67 -5.38,14.58 -5.71,15.50 -5.83,15.71 -5.96,15.91 -6.14,16.08 -6.31,16.24 -6.52,16.36 -6.73,16.48 -6.96,16.55 -7.19,16.61 -7.44,16.62 -7.68,16.63 -7.91,16.58 -8.15,16.53 -8.37,16.43 -8.58,16.33 -8.77,16.17 -8.96,16.02 -9.10,15.83 -9.24,15.63 -9.34,15.41 -9.43,15.19 -9.47,14.95 -9.51,14.71 -9.49,14.47 -9.47,14.23 -9.39,14.01 -9.31,13.78 -8.79,12.08 -8.26,10.38 -7.30,8.46 -6.34,6.53 -5.49,4.85 -4.64,3.17 -3.75,1.88 -2.86,0.58 -1.97,-0.47 -1.08,-1.52 0.01,-2.16 1.11,-2.80 2.15,-3.06 3.18,-3.31 4.34,-3.19 5.49,-3.06 6.44,-2.19 7.38,-1.32 7.97,0.65 8.57,2.62 9.21,4.92 9.85,7.21 10.58,9.55 11.30,11.88 12.26,14.18 13.22,16.47 13.86,18.21 14.51,19.95 15.02,22.73 15.54,25.50 15.55,25.71 15.57,25.93 15.51,26.13 15.45,26.34 15.33,26.51 15.22,26.69 15.05,26.82 14.88,26.95 14.68,27.02 14.48,27.08 14.26,27.09 14.05,27.09 13.85,27.02 13.65,26.95 13.48,26.82 13.31,26.70 13.19,26.52 13.07,26.35 13.01,26.14 12.95,25.94 12.96,25.72 12.98,25.51 13.05,25.31 13.13,25.12 13.27,24.95 13.40,24.79 13.59,24.68 13.77,24.57 13.98,24.53 14.18,24.48 14.39,24.50 14.61,24.52 14.80,24.61 14.99,24.70 15.15,24.85 15.30,24.99 15.40,25.18 15.50,25.37 15.54,25.58 15.57,25.78 15.54,25.99 15.51,26.20 15.41,26.39 15.31,26.58 15.15,26.73 15.00,26.87 14.81,26.96 14.62,27.05 14.40,27.08 14.19,27.10 13.99,27.06 13.78,27.01 13.60,26.90 13.41,26.79 13.27,26.63 13.14,26.47 13.06,26.27 12.98,26.08 12.98,26.08 12.98,26.08 11.86,23.74 10.74,21.40 10.08,19.74 9.41,18.07 8.36,15.59 7.32,13.12 6.58,10.72 5.84,8.33 5.19,6.00 4.55,3.66 4.29,2.14 4.04,0.63 2.97,0.89 1.90,1.15 1.17,2.02 0.44,2.89 -0.30,3.94 -1.04,4.99 -1.88,6.67 -2.72,8.35 -3.56,10.01 -4.40,11.66 -5.05,13.58 -5.71,15.50 -5.83,15.71 -5.96,15.91 -6.14,16.08 -6.31,16.24 -6.52,16.36 -6.73,16.48 -6.96,16.55 -7.19,16.61 -7.44,16.62 -7.68,16.63 -7.91,16.58 -8.15,16.54 -8.37,16.43 -8.58,16.33 -8.77,16.17 -8.96,16.02 -9.10,15.83 -9.24,15.63 -9.34,15.41 -9.43,15.19 -9.47,14.95 -9.51,14.71 -9.49,14.47 -9.47,14.23 -9.39,14.01 -9.31,13.78 -8.98,12.86 -8.65,11.95 -7.89,10.34 -7.12,8.72 -5.76,5.89 -4.39,3.05 -3.00,0.98 -1.61,-1.07 -1.46,-1.25 -1.31,-1.43 -1.12,-1.57 -0.93,-1.70 -0.71,-1.79 -0.49,-1.88 -0.26,-1.91 -0.03,-1.94 0.20,-1.91 0.43,-1.89 0.65,-1.81 0.87,-1.73 1.07,-1.60 1.26,-1.47 1.42,-1.30 1.58,-1.13 1.69,-0.92 1.80,-0.71 1.86,-0.49 1.92,-0.26 1.93,-0.03 1.93,0.20 1.88,0.43 1.82,0.66 1.72,0.86 1.61,1.07 1.61,1.07 L 1.61,1.07 Z"></path></g><g transform="translate(919.6000366210938 588.6625061035156) rotate(0 24.800018310546875 -2.8000030517578125)" stroke="none"><path fill="#000" d="M -0.38,-1.72 Q -0.38,-1.72 3.74,-2.68 7.88,-3.63 12.47,-4.26 17.06,-4.90 22.71,-5.39 28.35,-5.89 32.80,-6.32 37.24,-6.74 40.55,-6.87 43.86,-7.00 46.19,-6.93 48.51,-6.86 48.72,-6.83 48.93,-6.81 49.13,-6.72 49.32,-6.63 49.47,-6.48 49.63,-6.33 49.73,-6.15 49.82,-5.96 49.86,-5.75 49.89,-5.54 49.85,-5.33 49.82,-5.12 49.72,-4.93 49.62,-4.74 49.46,-4.60 49.31,-4.45 49.12,-4.37 48.92,-4.28 48.71,-4.26 48.50,-4.23 48.29,-4.28 48.08,-4.33 47.90,-4.44 47.72,-4.55 47.58,-4.71 47.45,-4.87 47.37,-5.07 47.29,-5.27 47.28,-5.48 47.27,-5.69 47.33,-5.90 47.39,-6.10 47.51,-6.28 47.63,-6.45 47.80,-6.58 47.97,-6.71 48.17,-6.78 48.37,-6.84 48.58,-6.84 48.80,-6.84 49.00,-6.77 49.20,-6.70 49.37,-6.57 49.54,-6.44 49.65,-6.27 49.77,-6.09 49.83,-5.89 49.88,-5.68 49.87,-5.47 49.86,-5.26 49.78,-5.06 49.70,-4.86 49.56,-4.70 49.42,-4.54 49.24,-4.43 49.06,-4.32 48.85,-4.28 48.64,-4.23 48.64,-4.23 48.64,-4.23 46.35,-3.94 44.06,-3.64 40.82,-3.39 37.59,-3.15 33.14,-2.69 28.68,-2.24 23.12,-1.75 17.56,-1.25 13.12,-0.65 8.67,-0.04 4.53,0.84 0.38,1.72 0.17,1.75 -0.04,1.77 -0.25,1.74 -0.46,1.71 -0.66,1.63 -0.85,1.54 -1.03,1.42 -1.20,1.29 -1.34,1.13 -1.48,0.97 -1.57,0.78 -1.67,0.59 -1.71,0.38 -1.76,0.17 -1.75,-0.04 -1.75,-0.25 -1.69,-0.46 -1.64,-0.66 -1.53,-0.85 -1.43,-1.04 -1.28,-1.19 -1.14,-1.35 -0.96,-1.47 -0.78,-1.58 -0.58,-1.65 -0.38,-1.73 -0.38,-1.73 L -0.38,-1.72 Z"></path></g><g transform="translate(1005.2000732421875 584.6625061035156) rotate(0 -2 22)" stroke="none"><path fill="#000" d="M 1.66,0.30 Q 1.66,0.30 1.36,2.86 1.05,5.41 0.43,10.58 -0.17,15.74 -0.67,20.47 -1.18,25.20 -1.39,29.00 -1.61,32.81 -1.72,35.35 -1.83,37.88 -1.95,40.52 -2.07,43.16 -2.04,43.37 -2.02,43.59 -2.06,43.79 -2.11,44.00 -2.22,44.18 -2.32,44.37 -2.49,44.50 -2.65,44.64 -2.84,44.72 -3.04,44.80 -3.25,44.81 -3.47,44.83 -3.67,44.77 -3.88,44.71 -4.05,44.60 -4.23,44.48 -4.36,44.31 -4.49,44.14 -4.56,43.94 -4.62,43.74 -4.63,43.53 -4.63,43.31 -4.56,43.11 -4.49,42.91 -4.36,42.74 -4.24,42.57 -4.06,42.45 -3.89,42.33 -3.68,42.27 -3.48,42.22 -3.26,42.23 -3.05,42.24 -2.85,42.31 -2.66,42.39 -2.49,42.53 -2.33,42.67 -2.22,42.85 -2.11,43.03 -2.06,43.24 -2.02,43.44 -2.04,43.66 -2.06,43.87 -2.15,44.06 -2.24,44.25 -2.38,44.41 -2.53,44.56 -2.72,44.66 -2.90,44.76 -3.11,44.80 -3.32,44.83 -3.53,44.80 -3.74,44.77 -3.93,44.67 -4.12,44.57 -4.27,44.42 -4.41,44.26 -4.50,44.07 -4.59,43.88 -4.59,43.88 -4.59,43.88 -5.24,40.81 -5.89,37.74 -5.82,35.16 -5.74,32.58 -5.53,28.67 -5.31,24.76 -4.80,19.99 -4.28,15.23 -3.59,9.96 -2.89,4.70 -2.28,2.19 -1.66,-0.30 -1.60,-0.49 -1.54,-0.69 -1.43,-0.86 -1.33,-1.04 -1.19,-1.18 -1.04,-1.33 -0.87,-1.43 -0.69,-1.54 -0.50,-1.60 -0.30,-1.66 -0.10,-1.67 0.10,-1.69 0.30,-1.65 0.50,-1.61 0.68,-1.53 0.87,-1.45 1.03,-1.32 1.19,-1.19 1.32,-1.03 1.44,-0.87 1.53,-0.69 1.61,-0.50 1.65,-0.30 1.69,-0.10 1.67,0.09 1.66,0.30 1.66,0.30 L 1.66,0.30 Z"></path></g><g transform="translate(1002.800048828125 596.6625061035156) rotate(0 66 4.399993896484375)" stroke="none"><path fill="#000" d="M 0.13,-2.08 Q 0.13,-2.08 3.80,-1.83 7.48,-1.59 12.68,-1.51 17.88,-1.43 25.19,-1.16 32.50,-0.89 43.89,-0.31 55.28,0.25 65.20,0.95 75.12,1.66 83.65,1.96 92.19,2.26 99.27,2.39 106.35,2.52 112.23,3.34 118.11,4.15 121.22,4.49 124.34,4.82 126.23,5.22 128.11,5.62 129.87,6.46 131.62,7.30 131.81,7.40 132.00,7.49 132.15,7.64 132.30,7.79 132.39,7.99 132.48,8.18 132.51,8.39 132.54,8.60 132.50,8.81 132.46,9.01 132.35,9.20 132.24,9.38 132.09,9.52 131.93,9.66 131.73,9.75 131.53,9.83 131.32,9.85 131.11,9.86 130.90,9.81 130.70,9.76 130.52,9.64 130.34,9.52 130.21,9.36 130.08,9.19 130.01,8.99 129.93,8.79 129.93,8.58 129.93,8.37 129.99,8.16 130.05,7.96 130.18,7.79 130.30,7.62 130.48,7.50 130.65,7.37 130.85,7.31 131.06,7.25 131.27,7.26 131.48,7.27 131.68,7.34 131.88,7.41 132.05,7.55 132.21,7.68 132.32,7.86 132.44,8.04 132.49,8.25 132.54,8.46 132.52,8.67 132.50,8.88 132.41,9.07 132.33,9.27 132.18,9.43 132.04,9.58 131.86,9.69 131.67,9.79 131.46,9.83 131.25,9.87 131.04,9.84 130.83,9.81 130.83,9.81 130.83,9.81 129.10,9.55 127.37,9.29 125.66,8.96 123.95,8.63 120.78,8.34 117.61,8.04 111.94,7.36 106.27,6.69 99.16,6.57 92.04,6.45 83.43,6.15 74.82,5.85 64.94,5.15 55.07,4.44 43.71,3.86 32.34,3.28 25.07,3.01 17.80,2.74 12.52,2.63 7.23,2.51 3.55,2.29 -0.13,2.08 -0.37,2.03 -0.62,1.99 -0.85,1.88 -1.08,1.78 -1.28,1.62 -1.47,1.47 -1.63,1.27 -1.78,1.07 -1.88,0.84 -1.99,0.61 -2.03,0.36 -2.08,0.12 -2.06,-0.12 -2.05,-0.38 -1.97,-0.62 -1.90,-0.85 -1.76,-1.07 -1.63,-1.28 -1.46,-1.46 -1.28,-1.64 -1.06,-1.77 -0.85,-1.90 -0.61,-1.97 -0.37,-2.05 -0.12,-2.06 0.13,-2.08 0.13,-2.08 L 0.13,-2.08 Z"></path></g><g transform="translate(1006.800048828125 639.0625) rotate(0 64 5.1999969482421875)" stroke="none"><path fill="#000" d="M 0.54,-1.76 Q 0.54,-1.76 3.54,-0.87 6.53,0.00 11.55,0.58 16.57,1.15 23.36,1.87 30.15,2.59 38.09,3.35 46.03,4.12 54.24,4.91 62.44,5.70 73.02,6.28 83.60,6.85 91.77,7.10 99.94,7.35 105.75,7.71 111.55,8.06 115.37,8.22 119.19,8.37 122.81,8.71 126.42,9.04 126.63,9.08 126.84,9.12 127.03,9.23 127.21,9.33 127.35,9.49 127.50,9.65 127.58,9.84 127.67,10.04 127.68,10.25 127.70,10.46 127.65,10.67 127.60,10.87 127.49,11.05 127.37,11.23 127.21,11.36 127.04,11.50 126.84,11.57 126.64,11.65 126.43,11.65 126.22,11.66 126.02,11.60 125.81,11.54 125.64,11.41 125.47,11.29 125.34,11.12 125.22,10.94 125.15,10.74 125.09,10.54 125.10,10.33 125.10,10.11 125.17,9.91 125.25,9.71 125.38,9.55 125.51,9.38 125.69,9.27 125.87,9.15 126.08,9.10 126.28,9.05 126.49,9.07 126.71,9.08 126.90,9.17 127.10,9.25 127.25,9.39 127.41,9.53 127.52,9.72 127.62,9.90 127.66,10.11 127.71,10.32 127.68,10.53 127.65,10.74 127.56,10.93 127.46,11.12 127.31,11.27 127.16,11.42 126.97,11.52 126.78,11.61 126.57,11.64 126.36,11.67 126.36,11.67 126.36,11.67 122.71,11.84 119.06,12.00 115.20,11.87 111.34,11.74 105.59,11.44 99.83,11.13 91.61,10.90 83.40,10.67 72.74,10.12 62.07,9.56 53.86,8.78 45.65,8.00 37.69,7.23 29.73,6.46 22.92,5.73 16.11,5.00 10.76,4.33 5.42,3.67 2.43,2.71 -0.54,1.76 -0.74,1.67 -0.94,1.58 -1.12,1.44 -1.30,1.31 -1.43,1.13 -1.57,0.96 -1.66,0.75 -1.76,0.55 -1.80,0.33 -1.84,0.11 -1.83,-0.10 -1.81,-0.32 -1.75,-0.53 -1.68,-0.75 -1.57,-0.94 -1.45,-1.13 -1.30,-1.29 -1.14,-1.44 -0.95,-1.56 -0.76,-1.68 -0.55,-1.74 -0.33,-1.81 -0.11,-1.82 0.10,-1.84 0.32,-1.80 0.54,-1.76 0.54,-1.76 L 0.54,-1.76 Z"></path></g><g transform="translate(1158.800048828125 619.8624877929688) rotate(0 -89.60003662109375 5.600006103515625)" stroke="none"><path fill="#000" d="M -1.03,1.54 Q -1.03,1.54 -1.73,1.08 -2.44,0.62 -3.17,-0.21 -3.90,-1.05 -4.79,-2.35 -5.68,-3.65 -6.20,-4.58 -6.72,-5.52 -6.84,-6.12 -6.96,-6.73 -7.07,-6.93 -7.18,-7.13 -7.24,-7.36 -7.30,-7.58 -7.30,-7.81 -7.31,-8.04 -7.25,-8.27 -7.20,-8.49 -7.10,-8.70 -7.00,-8.90 -6.85,-9.08 -6.70,-9.25 -6.51,-9.39 -6.32,-9.52 -6.11,-9.61 -5.90,-9.70 -5.67,-9.73 -5.44,-9.76 -5.21,-9.74 -4.98,-9.71 -4.76,-9.64 -4.55,-9.56 -4.35,-9.43 -4.16,-9.30 -4.01,-9.13 -3.85,-8.96 -4.30,-7.51 -4.74,-6.05 -4.99,-4.75 -5.23,-3.44 -5.89,-0.51 -6.55,2.40 -7.06,6.12 -7.58,9.84 -8.03,13.96 -8.48,18.08 -8.66,22.31 -8.85,26.54 -8.93,29.27 -9.02,32.00 -9.05,33.41 -9.09,34.83 -9.55,35.92 -10.01,37.01 -11.02,37.67 -12.03,38.33 -14.31,38.28 -16.60,38.23 -19.14,37.70 -21.68,37.17 -24.85,36.24 -28.01,35.32 -32.00,34.48 -35.99,33.65 -42.54,32.38 -49.09,31.11 -55.52,30.10 -61.95,29.10 -67.91,28.22 -73.87,27.33 -79.18,26.49 -84.48,25.65 -89.68,25.07 -94.87,24.49 -98.73,24.01 -102.58,23.54 -105.83,23.11 -109.08,22.68 -111.42,22.25 -113.76,21.83 -115.90,21.43 -118.04,21.02 -120.61,20.36 -123.18,19.71 -125.58,19.22 -127.98,18.73 -130.47,18.05 -132.96,17.36 -135.11,16.86 -137.25,16.35 -139.10,15.90 -140.95,15.45 -142.47,15.02 -143.98,14.59 -145.28,14.37 -146.58,14.14 -147.94,13.81 -149.30,13.48 -150.85,13.39 -152.41,13.30 -153.66,13.28 -154.92,13.26 -156.96,13.02 -158.99,12.78 -160.23,12.68 -161.47,12.58 -163.03,12.29 -164.60,12.01 -165.82,11.90 -167.04,11.80 -168.42,11.50 -169.80,11.20 -171.26,10.85 -172.73,10.49 -173.91,10.09 -175.09,9.68 -176.71,8.79 -178.33,7.89 -179.23,6.71 -180.12,5.52 -180.48,4.16 -180.85,2.79 -180.97,1.53 -181.09,0.26 -181.14,-0.97 -181.18,-2.20 -180.96,-3.60 -180.73,-5.00 -180.40,-6.47 -180.08,-7.94 -179.70,-9.29 -179.33,-10.64 -178.95,-12.09 -178.57,-13.55 -178.16,-14.89 -177.76,-16.24 -177.35,-17.51 -176.95,-18.77 -176.53,-19.84 -176.10,-20.90 -174.92,-22.36 -173.73,-23.81 -170.32,-24.95 -166.92,-26.10 -164.56,-26.53 -162.21,-26.97 -159.50,-27.18 -156.78,-27.38 -153.79,-27.46 -150.80,-27.55 -146.49,-27.35 -142.17,-27.15 -138.49,-26.84 -134.80,-26.52 -131.32,-25.92 -127.85,-25.31 -124.59,-24.83 -121.34,-24.35 -117.83,-23.68 -114.33,-23.01 -109.79,-21.79 -105.25,-20.57 -100.87,-19.61 -96.50,-18.65 -92.10,-17.78 -87.71,-16.91 -83.10,-16.09 -78.48,-15.26 -73.09,-14.45 -67.70,-13.65 -63.34,-13.07 -58.99,-12.50 -55.29,-12.03 -51.60,-11.56 -48.41,-11.13 -45.22,-10.69 -42.69,-10.27 -40.16,-9.85 -37.50,-9.45 -34.84,-9.04 -32.53,-8.64 -30.22,-8.23 -28.08,-7.83 -25.95,-7.42 -23.89,-7.03 -21.83,-6.63 -19.60,-6.23 -17.36,-5.83 -15.03,-5.43 -12.70,-5.03 -11.30,-4.87 -9.90,-4.70 -8.17,-4.29 -6.44,-3.88 -5.31,-3.50 -4.18,-3.12 -2.68,-2.29 -1.18,-1.46 -0.97,-1.40 -0.77,-1.34 -0.59,-1.22 -0.42,-1.10 -0.29,-0.93 -0.16,-0.76 -0.10,-0.56 -0.03,-0.35 -0.03,-0.14 -0.04,0.06 -0.11,0.26 -0.18,0.46 -0.31,0.63 -0.44,0.80 -0.61,0.92 -0.79,1.03 -1.00,1.09 -1.20,1.14 -1.41,1.13 -1.62,1.12 -1.82,1.04 -2.02,0.96 -2.18,0.82 -2.34,0.68 -2.45,0.49 -2.55,0.31 -2.60,0.10 -2.64,-0.09 -2.62,-0.31 -2.59,-0.52 -2.50,-0.71 -2.41,-0.90 -2.26,-1.05 -2.11,-1.21 -1.93,-1.30 -1.74,-1.40 -1.53,-1.43 -1.32,-1.47 -1.11,-1.43 -0.90,-1.39 -0.71,-1.29 -0.53,-1.19 -0.38,-1.04 -0.24,-0.88 -0.15,-0.69 -0.06,-0.49 -0.04,-0.28 -0.02,-0.07 -0.07,0.13 -0.11,0.33 -0.23,0.52 -0.34,0.70 -0.50,0.83 -0.66,0.97 -0.86,1.05 -1.06,1.12 -1.27,1.13 -1.48,1.14 -1.48,1.14 -1.48,1.14 -3.63,0.92 -5.77,0.70 -6.93,0.30 -8.10,-0.08 -9.24,-0.34 -10.38,-0.59 -11.89,-0.77 -13.40,-0.94 -15.74,-1.35 -18.09,-1.75 -20.36,-2.15 -22.63,-2.55 -24.67,-2.95 -26.72,-3.35 -28.83,-3.75 -30.93,-4.15 -33.20,-4.55 -35.46,-4.95 -38.15,-5.35 -40.83,-5.76 -43.31,-6.17 -45.78,-6.57 -48.95,-7.00 -52.13,-7.43 -55.83,-7.91 -59.53,-8.39 -63.92,-8.97 -68.31,-9.55 -73.76,-10.37 -79.21,-11.18 -83.86,-12.02 -88.52,-12.86 -92.95,-13.73 -97.38,-14.61 -101.86,-15.59 -106.33,-16.58 -110.72,-17.76 -115.11,-18.95 -118.53,-19.60 -121.94,-20.26 -125.25,-20.75 -128.56,-21.23 -131.86,-21.81 -135.16,-22.40 -138.76,-22.71 -142.36,-23.02 -146.53,-23.22 -150.69,-23.41 -153.59,-23.34 -156.49,-23.27 -158.98,-23.10 -161.46,-22.94 -163.76,-22.51 -166.06,-22.09 -167.98,-21.74 -169.90,-21.39 -171.05,-20.94 -172.20,-20.48 -172.61,-19.00 -173.02,-17.52 -173.41,-16.29 -173.80,-15.06 -174.18,-13.78 -174.56,-12.50 -174.95,-11.01 -175.35,-9.52 -175.70,-8.28 -176.06,-7.04 -176.57,-4.68 -177.08,-2.32 -177.04,-1.21 -177.00,-0.09 -176.83,1.65 -176.65,3.40 -175.71,4.30 -174.77,5.20 -173.27,5.86 -171.77,6.53 -170.34,6.87 -168.90,7.22 -167.79,7.47 -166.67,7.73 -165.27,7.86 -163.86,7.99 -162.50,8.25 -161.14,8.51 -159.82,8.61 -158.49,8.72 -156.67,8.95 -154.86,9.18 -152.60,9.25 -150.34,9.31 -148.20,9.69 -146.06,10.08 -144.45,10.36 -142.85,10.64 -141.42,11.05 -139.98,11.47 -138.14,11.91 -136.30,12.36 -134.09,12.89 -131.87,13.41 -129.52,14.07 -127.17,14.73 -124.67,15.24 -122.18,15.75 -119.72,16.36 -117.27,16.97 -115.15,17.38 -113.03,17.78 -110.78,18.19 -108.53,18.60 -105.30,19.03 -102.07,19.47 -98.24,19.95 -94.42,20.43 -89.13,21.02 -83.85,21.62 -78.56,22.45 -73.27,23.28 -67.29,24.17 -61.32,25.05 -54.81,26.06 -48.30,27.07 -41.73,28.35 -35.16,29.64 -31.00,30.50 -26.85,31.36 -23.84,32.25 -20.82,33.14 -18.57,33.63 -16.32,34.12 -14.76,34.37 -13.19,34.63 -13.16,33.25 -13.13,31.88 -13.05,29.12 -12.97,26.35 -12.77,21.99 -12.57,17.64 -12.11,13.46 -11.65,9.28 -11.10,5.37 -10.55,1.47 -9.80,-1.64 -9.04,-4.75 -8.12,-6.82 -7.20,-8.89 -7.08,-7.81 -6.96,-6.73 -7.07,-6.93 -7.18,-7.13 -7.24,-7.36 -7.30,-7.58 -7.30,-7.81 -7.31,-8.04 -7.26,-8.27 -7.20,-8.49 -7.10,-8.70 -7.00,-8.90 -6.85,-9.08 -6.70,-9.25 -6.51,-9.39 -6.32,-9.52 -6.11,-9.61 -5.90,-9.70 -5.67,-9.73 -5.44,-9.76 -5.21,-9.74 -4.98,-9.71 -4.76,-9.64 -4.55,-9.56 -4.35,-9.43 -4.16,-9.30 -4.01,-9.13 -3.85,-8.96 -3.71,-8.29 -3.57,-7.61 -2.64,-6.15 -1.71,-4.69 -1.01,-3.58 -0.31,-2.46 0.35,-2.00 1.03,-1.54 1.20,-1.40 1.37,-1.25 1.50,-1.07 1.63,-0.89 1.71,-0.68 1.79,-0.47 1.82,-0.25 1.86,-0.02 1.83,0.19 1.81,0.41 1.73,0.62 1.66,0.83 1.53,1.02 1.41,1.21 1.24,1.36 1.08,1.51 0.88,1.62 0.68,1.72 0.47,1.78 0.25,1.84 0.02,1.84 -0.19,1.85 -0.41,1.80 -0.63,1.75 -0.83,1.64 -1.03,1.54 -1.03,1.54 L -1.03,1.54 Z"></path></g><g transform="translate(618 621.4624938964844) rotate(0 -7.5999755859375 14.400009155273438)" stroke="none"><path fill="#000" d="M 0,1.66 Q 0,1.66 -2.05,1.75 -4.11,1.84 -5.38,2.27 -6.64,2.70 -8.08,4.31 -9.52,5.92 -10.63,7.49 -11.74,9.05 -12.12,10.40 -12.50,11.76 -11.81,13.21 -11.12,14.67 -9.90,15.11 -8.68,15.56 -6.58,16.01 -4.49,16.47 -2.68,17.20 -0.87,17.93 0.36,18.51 1.60,19.09 2.44,20.86 3.29,22.63 2.55,24.02 1.82,25.41 -0.63,26.79 -3.09,28.18 -5.73,29.16 -8.37,30.14 -10.76,30.58 -13.16,31.01 -15.62,30.14 -18.09,29.28 -18.23,29.12 -18.38,28.96 -18.46,28.77 -18.55,28.58 -18.57,28.36 -18.59,28.15 -18.54,27.95 -18.50,27.74 -18.38,27.56 -18.27,27.38 -18.11,27.24 -17.95,27.11 -17.75,27.03 -17.55,26.95 -17.34,26.94 -17.12,26.94 -16.92,26.99 -16.72,27.05 -16.54,27.18 -16.37,27.30 -16.24,27.47 -16.11,27.64 -16.05,27.84 -15.98,28.04 -15.99,28.25 -15.99,28.47 -16.06,28.67 -16.13,28.87 -16.26,29.04 -16.39,29.20 -16.57,29.32 -16.74,29.44 -16.95,29.49 -17.16,29.55 -17.37,29.53 -17.58,29.52 -17.78,29.44 -17.97,29.36 -18.13,29.22 -18.29,29.08 -18.40,28.89 -18.51,28.71 -18.55,28.50 -18.59,28.29 -18.57,28.08 -18.54,27.87 -18.45,27.68 -18.36,27.49 -18.21,27.34 -18.06,27.18 -17.87,27.09 -17.69,26.99 -17.48,26.96 -17.27,26.93 -17.06,26.96 -16.85,27.00 -16.66,27.10 -16.47,27.20 -16.47,27.20 -16.47,27.20 -15.17,27.11 -13.87,27.01 -11.82,26.65 -9.77,26.30 -7.37,25.42 -4.97,24.54 -2.60,23.56 -0.24,22.57 -1.32,22.11 -2.40,21.65 -3.90,21.02 -5.40,20.39 -7.83,19.81 -10.27,19.24 -12.14,18.33 -14.00,17.42 -15.15,15.85 -16.29,14.28 -16.31,12.44 -16.34,10.59 -15.67,8.67 -15.01,6.75 -13.65,4.94 -12.30,3.13 -10.10,1.13 -7.91,-0.86 -6.03,-1.35 -4.16,-1.84 -2.08,-1.75 0,-1.66 0.19,-1.63 0.39,-1.61 0.58,-1.54 0.77,-1.47 0.93,-1.35 1.10,-1.24 1.23,-1.09 1.36,-0.94 1.46,-0.76 1.55,-0.58 1.60,-0.39 1.64,-0.20 1.64,0.00 1.64,0.20 1.60,0.39 1.55,0.58 1.46,0.76 1.36,0.94 1.23,1.09 1.10,1.24 0.93,1.35 0.77,1.47 0.58,1.54 0.39,1.61 0.19,1.63 -0.00,1.66 -0.00,1.66 L 0,1.66 Z"></path></g><g transform="translate(636.4000244140625 623.0625) rotate(0 0 11.599990844726562)" stroke="none"><path fill="#000" d="M 1.91,0.19 Q 1.91,0.19 1.74,2.49 1.58,4.80 1.50,7.10 1.42,9.39 1.60,11.65 1.78,13.91 2.07,15.76 2.37,17.61 2.19,19.87 2.02,22.13 2.00,22.34 1.99,22.56 1.91,22.75 1.82,22.95 1.68,23.11 1.54,23.26 1.36,23.37 1.17,23.48 0.96,23.52 0.76,23.56 0.54,23.53 0.33,23.50 0.14,23.41 -0.04,23.32 -0.19,23.17 -0.34,23.02 -0.44,22.83 -0.53,22.64 -0.56,22.43 -0.59,22.22 -0.55,22.01 -0.51,21.80 -0.41,21.61 -0.31,21.43 -0.15,21.29 0.00,21.14 0.19,21.06 0.39,20.97 0.60,20.95 0.81,20.94 1.02,20.99 1.22,21.04 1.40,21.15 1.58,21.26 1.72,21.43 1.85,21.59 1.93,21.79 2.00,21.99 2.01,22.20 2.01,22.42 1.95,22.62 1.89,22.82 1.77,23.00 1.65,23.17 1.47,23.29 1.30,23.42 1.10,23.48 0.90,23.55 0.68,23.54 0.47,23.54 0.27,23.46 0.07,23.39 -0.08,23.26 -0.25,23.13 -0.37,22.95 -0.48,22.77 -0.53,22.57 -0.59,22.36 -0.59,22.36 -0.59,22.36 -1.13,20.31 -1.68,18.26 -2.01,16.25 -2.34,14.24 -2.54,11.73 -2.73,9.23 -2.61,6.81 -2.50,4.39 -2.20,2.10 -1.91,-0.19 -1.86,-0.41 -1.81,-0.64 -1.71,-0.85 -1.60,-1.06 -1.45,-1.23 -1.30,-1.41 -1.11,-1.55 -0.93,-1.68 -0.71,-1.77 -0.50,-1.86 -0.27,-1.89 -0.04,-1.92 0.19,-1.90 0.42,-1.88 0.64,-1.80 0.85,-1.72 1.05,-1.59 1.24,-1.46 1.40,-1.29 1.56,-1.12 1.67,-0.92 1.78,-0.72 1.84,-0.49 1.90,-0.27 1.91,-0.04 1.91,0.19 1.91,0.19 L 1.91,0.19 Z"></path></g><g transform="translate(627.6000366210938 640.6625061035156) rotate(0 16.399993896484375 2.79998779296875)" stroke="none"><path fill="#000" d="M -0.30,-1.95 Q -0.30,-1.95 2.69,-2.39 5.68,-2.83 8.41,-3.01 11.14,-3.19 13.22,-3.26 15.29,-3.32 16.87,-3.34 18.45,-3.35 18.65,-3.38 18.85,-3.42 19.07,-3.39 19.30,-3.37 19.50,-3.30 19.71,-3.22 19.90,-3.10 20.09,-2.98 20.24,-2.82 20.39,-2.65 20.50,-2.46 20.60,-2.27 20.66,-2.05 20.72,-1.84 20.72,-1.61 20.73,-1.39 20.68,-1.18 20.63,-0.96 20.53,-0.76 20.44,-0.56 20.29,-0.39 20.15,-0.22 19.97,-0.09 19.79,0.03 19.58,0.11 19.38,0.20 19.16,0.23 18.94,0.26 17.54,0.94 16.14,1.61 15.57,2.72 15.00,3.83 16.22,3.56 17.44,3.30 18.71,2.02 19.99,0.74 21.95,0.22 23.91,-0.28 24.99,0.67 26.07,1.64 27.98,3.02 29.90,4.40 31.20,5.07 32.50,5.73 32.69,5.82 32.88,5.92 33.03,6.07 33.18,6.22 33.28,6.41 33.37,6.60 33.40,6.81 33.43,7.02 33.39,7.23 33.35,7.44 33.24,7.62 33.14,7.81 32.98,7.95 32.82,8.09 32.63,8.18 32.43,8.26 32.22,8.28 32.01,8.29 31.80,8.24 31.59,8.19 31.42,8.08 31.24,7.96 31.10,7.79 30.97,7.63 30.90,7.43 30.83,7.23 30.82,7.02 30.81,6.80 30.88,6.60 30.94,6.40 31.06,6.23 31.19,6.05 31.36,5.93 31.53,5.81 31.74,5.75 31.94,5.68 32.15,5.69 32.37,5.70 32.56,5.77 32.76,5.84 32.93,5.98 33.09,6.11 33.21,6.29 33.32,6.47 33.37,6.67 33.42,6.88 33.41,7.09 33.39,7.30 33.30,7.50 33.22,7.69 33.08,7.85 32.94,8.01 32.75,8.11 32.57,8.22 32.36,8.26 32.15,8.30 31.94,8.27 31.73,8.24 31.73,8.24 31.73,8.24 29.95,7.95 28.16,7.66 26.45,6.73 24.74,5.81 23.78,4.50 22.82,3.19 22.01,4.12 21.21,5.05 19.88,6.00 18.55,6.95 17.45,7.22 16.36,7.50 14.49,7.28 12.62,7.07 11.79,5.98 10.97,4.89 11.32,3.27 11.67,1.66 12.90,0.00 14.14,-1.65 15.43,-2.30 16.73,-2.95 17.79,-3.18 18.85,-3.42 19.07,-3.39 19.30,-3.37 19.50,-3.30 19.71,-3.22 19.90,-3.10 20.09,-2.98 20.24,-2.82 20.39,-2.65 20.50,-2.46 20.60,-2.27 20.66,-2.05 20.72,-1.84 20.72,-1.61 20.73,-1.39 20.68,-1.18 20.63,-0.96 20.53,-0.76 20.44,-0.56 20.29,-0.39 20.15,-0.22 19.97,-0.09 19.79,0.03 19.58,0.11 19.38,0.20 19.16,0.23 18.94,0.26 18.73,0.26 18.53,0.25 16.99,0.31 15.44,0.37 13.43,0.47 11.42,0.57 8.84,0.78 6.27,0.99 3.28,1.47 0.30,1.95 0.06,1.96 -0.17,1.97 -0.40,1.92 -0.64,1.87 -0.85,1.76 -1.07,1.66 -1.25,1.51 -1.43,1.35 -1.58,1.16 -1.72,0.97 -1.81,0.75 -1.90,0.53 -1.94,0.29 -1.97,0.06 -1.95,-0.17 -1.93,-0.41 -1.85,-0.63 -1.78,-0.86 -1.65,-1.06 -1.52,-1.26 -1.34,-1.42 -1.17,-1.59 -0.96,-1.70 -0.76,-1.82 -0.53,-1.89 -0.30,-1.95 -0.30,-1.95 L -0.30,-1.95 Z"></path></g><g transform="translate(662 616.6625061035156) rotate(0 17.20001220703125 22.79998779296875)" stroke="none"><path fill="#000" d="M 1.84,0.61 Q 1.84,0.61 1.22,2.70 0.59,4.78 0.37,7.51 0.14,10.24 0.05,13.73 -0.04,17.22 0.37,21.81 0.78,26.41 1.39,29.69 2.01,32.97 2.88,35.09 3.76,37.21 4.74,38.04 5.71,38.88 7.12,38.98 8.54,39.08 9.79,38.61 11.04,38.14 11.85,37.03 12.66,35.93 13.27,34.63 13.88,33.34 14.25,32.41 14.63,31.49 14.74,31.27 14.86,31.04 15.02,30.85 15.18,30.66 15.39,30.51 15.60,30.37 15.83,30.27 16.06,30.18 16.31,30.15 16.56,30.11 16.81,30.14 17.07,30.16 17.30,30.25 17.54,30.33 17.75,30.47 17.96,30.61 18.13,30.80 18.30,30.99 18.42,31.21 18.54,31.43 18.61,31.67 18.67,31.92 18.67,32.17 18.68,32.42 18.62,32.67 18.57,32.91 18.16,35.66 17.75,38.42 17.61,39.93 17.47,41.45 18.34,42.20 19.21,42.95 20.78,41.82 22.34,40.69 23.51,39.47 24.67,38.24 26.49,36.86 28.31,35.49 29.55,34.68 30.78,33.88 33.26,33.54 35.74,33.19 36.71,34.22 37.68,35.25 38.04,36.33 38.40,37.42 37.25,40.40 36.10,43.38 35.90,43.46 35.70,43.54 35.49,43.56 35.28,43.58 35.07,43.52 34.87,43.47 34.69,43.36 34.51,43.24 34.38,43.07 34.25,42.91 34.18,42.71 34.10,42.51 34.10,42.29 34.10,42.08 34.16,41.88 34.22,41.68 34.35,41.51 34.47,41.33 34.65,41.21 34.82,41.09 35.02,41.03 35.23,40.97 35.44,40.97 35.65,40.98 35.85,41.05 36.05,41.13 36.21,41.26 36.38,41.40 36.49,41.58 36.61,41.76 36.66,41.96 36.71,42.17 36.69,42.38 36.67,42.59 36.58,42.79 36.50,42.98 36.35,43.14 36.21,43.30 36.03,43.40 35.84,43.50 35.63,43.54 35.42,43.58 35.21,43.55 35.00,43.52 34.81,43.43 34.62,43.33 34.47,43.18 34.32,43.03 34.23,42.84 34.14,42.65 34.11,42.43 34.08,42.22 34.12,42.02 34.17,41.81 34.27,41.62 34.38,41.44 34.54,41.30 34.70,41.16 34.70,41.16 34.70,41.16 34.66,40.50 34.63,39.85 33.78,38.51 32.92,37.18 31.80,37.91 30.67,38.64 29.10,39.80 27.54,40.96 26.14,42.44 24.75,43.93 23.02,45.14 21.29,46.34 19.62,46.55 17.94,46.75 16.44,45.87 14.94,45.00 14.12,43.25 13.30,41.50 13.42,39.61 13.54,37.72 13.85,35.89 14.16,34.05 14.39,32.77 14.63,31.49 14.74,31.27 14.86,31.04 15.02,30.85 15.18,30.66 15.39,30.51 15.60,30.37 15.83,30.27 16.06,30.18 16.31,30.15 16.56,30.11 16.81,30.14 17.07,30.16 17.30,30.25 17.54,30.33 17.75,30.47 17.96,30.61 18.13,30.80 18.30,30.99 18.42,31.21 18.54,31.43 18.61,31.67 18.67,31.92 18.67,32.17 18.68,32.42 18.62,32.67 18.57,32.91 18.04,34.02 17.52,35.12 16.65,36.85 15.77,38.57 14.18,40.25 12.59,41.92 10.35,42.58 8.11,43.24 5.63,42.75 3.15,42.26 1.47,40.63 -0.19,39.00 -1.24,36.40 -2.28,33.79 -2.93,30.29 -3.58,26.79 -3.98,21.93 -4.38,17.07 -4.23,13.45 -4.07,9.82 -3.71,6.66 -3.35,3.49 -2.60,1.43 -1.84,-0.61 -1.74,-0.82 -1.64,-1.04 -1.49,-1.22 -1.35,-1.40 -1.16,-1.54 -0.97,-1.68 -0.75,-1.77 -0.54,-1.87 -0.31,-1.90 -0.07,-1.94 0.15,-1.92 0.38,-1.90 0.61,-1.83 0.83,-1.76 1.03,-1.63 1.23,-1.50 1.39,-1.34 1.55,-1.17 1.67,-0.96 1.79,-0.76 1.85,-0.53 1.92,-0.31 1.93,-0.07 1.94,0.15 1.89,0.38 1.84,0.61 1.84,0.61 L 1.84,0.61 Z"></path></g><g transform="translate(647.6000366210938 635.8624877929688) rotate(0 20 -1.5999908447265625)" stroke="none"><path fill="#000" d="M 0,-1.96 Q 0,-1.96 3.44,-2.01 6.89,-2.07 13.15,-2.27 19.41,-2.47 25.24,-3.07 31.06,-3.67 33.59,-3.84 36.12,-4.00 36.33,-4.00 36.54,-3.99 36.74,-3.92 36.94,-3.84 37.11,-3.71 37.27,-3.57 37.38,-3.40 37.50,-3.22 37.55,-3.01 37.60,-2.80 37.58,-2.59 37.56,-2.38 37.48,-2.18 37.40,-1.99 37.25,-1.83 37.11,-1.67 36.93,-1.57 36.74,-1.47 36.53,-1.43 36.32,-1.39 36.11,-1.42 35.90,-1.45 35.71,-1.54 35.52,-1.64 35.37,-1.79 35.22,-1.94 35.13,-2.13 35.03,-2.32 35.01,-2.53 34.98,-2.74 35.02,-2.95 35.06,-3.16 35.16,-3.34 35.27,-3.53 35.43,-3.67 35.59,-3.81 35.78,-3.89 35.98,-3.98 36.19,-3.99 36.40,-4.01 36.61,-3.96 36.81,-3.91 36.99,-3.79 37.17,-3.68 37.30,-3.51 37.44,-3.34 37.51,-3.14 37.58,-2.94 37.59,-2.73 37.59,-2.52 37.53,-2.32 37.47,-2.11 37.34,-1.94 37.22,-1.77 37.04,-1.65 36.87,-1.52 36.67,-1.46 36.46,-1.40 36.46,-1.40 36.46,-1.40 33.98,-0.89 31.50,-0.39 25.53,0.58 19.56,1.55 13.23,1.81 6.90,2.07 3.45,2.01 0,1.96 -0.23,1.93 -0.46,1.90 -0.69,1.82 -0.91,1.73 -1.10,1.60 -1.30,1.46 -1.45,1.29 -1.61,1.11 -1.72,0.90 -1.83,0.69 -1.89,0.46 -1.94,0.23 -1.94,-0.00 -1.94,-0.23 -1.89,-0.46 -1.83,-0.69 -1.72,-0.90 -1.61,-1.11 -1.45,-1.29 -1.30,-1.46 -1.10,-1.60 -0.91,-1.73 -0.69,-1.82 -0.46,-1.90 -0.23,-1.93 0.00,-1.96 0.00,-1.96 L 0,-1.96 Z"></path></g><g transform="translate(814.7999877929688 596.6625061035156) rotate(0 0.800018310546875 12.79998779296875)" stroke="none"><path fill="#000" d="M 1.59,0 Q 1.59,0 1.74,1.83 1.89,3.67 1.91,5.84 1.93,8.00 2.17,11.15 2.42,14.30 2.74,16.76 3.06,19.22 1.69,21.45 0.32,23.68 0.41,23.49 0.50,23.30 0.65,23.14 0.80,22.99 0.99,22.90 1.18,22.80 1.39,22.77 1.60,22.74 1.81,22.77 2.02,22.81 2.20,22.91 2.39,23.01 2.53,23.17 2.68,23.33 2.76,23.52 2.85,23.72 2.87,23.93 2.89,24.14 2.84,24.35 2.79,24.55 2.68,24.73 2.57,24.91 2.40,25.05 2.24,25.18 2.04,25.26 1.84,25.34 1.63,25.34 1.42,25.35 1.21,25.29 1.01,25.23 0.84,25.11 0.66,24.99 0.54,24.82 0.41,24.65 0.35,24.45 0.28,24.24 0.28,24.03 0.29,23.82 0.36,23.62 0.43,23.42 0.56,23.25 0.69,23.08 0.87,22.97 1.05,22.85 1.25,22.80 1.46,22.74 1.67,22.76 1.88,22.77 2.08,22.85 2.27,22.93 2.43,23.07 2.59,23.21 2.70,23.40 2.81,23.58 2.85,23.79 2.89,24.00 2.87,24.21 2.84,24.42 2.84,24.42 2.84,24.42 1.00,22.07 -0.83,19.73 -1.16,17.15 -1.50,14.58 -1.71,11.29 -1.93,8.00 -1.91,5.84 -1.89,3.67 -1.74,1.83 -1.59,0 -1.57,-0.19 -1.54,-0.38 -1.48,-0.56 -1.41,-0.74 -1.30,-0.90 -1.19,-1.05 -1.05,-1.18 -0.90,-1.31 -0.73,-1.40 -0.56,-1.49 -0.37,-1.53 -0.19,-1.58 0.00,-1.58 0.19,-1.58 0.37,-1.53 0.56,-1.49 0.73,-1.40 0.90,-1.31 1.05,-1.18 1.19,-1.05 1.30,-0.90 1.41,-0.74 1.48,-0.56 1.54,-0.38 1.57,-0.19 1.59,0.00 1.59,0.00 L 1.59,0 Z"></path></g><g transform="translate(816.4000244140625 579.0625) rotate(0 0.399993896484375 -1.600006103515625)" stroke="none"><path fill="#000" d="M 1.71,-0.53 Q 1.71,-0.53 1.73,-0.10 1.76,0.32 1.58,0.71 1.41,1.10 1.07,1.37 0.73,1.63 0.31,1.71 -0.10,1.79 -0.51,1.66 -0.92,1.53 -1.23,1.23 -1.53,0.92 -1.66,0.51 -1.79,0.10 -1.71,-0.31 -1.63,-0.73 -1.37,-1.07 -1.10,-1.41 -0.71,-1.58 -0.32,-1.76 0.10,-1.73 0.53,-1.71 0.90,-1.49 1.26,-1.26 1.49,-0.90 L 1.71,-0.53 Z"></path></g><g transform="translate(831.6000366210938 596.6625061035156) rotate(0 5.5999755859375 7.5999908447265625)" stroke="none"><path fill="#000" d="M 1.88,0.17 Q 1.88,0.17 1.67,2.70 1.47,5.23 1.38,7.41 1.30,9.59 1.26,10.76 1.22,11.93 1.19,12.73 1.16,13.52 1.13,13.76 1.09,13.99 1.00,14.21 0.91,14.43 0.78,14.62 0.64,14.81 0.46,14.96 0.28,15.11 0.07,15.22 -0.14,15.32 -0.37,15.37 -0.60,15.42 -0.83,15.42 -1.07,15.41 -1.29,15.35 -1.52,15.29 -1.73,15.17 -1.93,15.06 -2.11,14.90 -2.28,14.74 -2.41,14.54 -2.54,14.34 -2.61,14.12 -2.69,13.90 -2.72,13.66 -2.74,13.43 -2.47,12.04 -2.20,10.65 -1.86,9.29 -1.53,7.94 -1.15,6.43 -0.78,4.92 0.38,3.45 1.54,1.97 2.71,1.86 3.88,1.74 5.46,2.94 7.04,4.14 8.09,5.67 9.15,7.21 9.84,8.60 10.53,10.00 11.03,11.00 11.52,12.00 11.85,12.94 12.17,13.87 12.36,13.97 12.55,14.07 12.70,14.22 12.84,14.37 12.94,14.56 13.03,14.75 13.05,14.97 13.08,15.18 13.03,15.38 12.99,15.59 12.88,15.78 12.78,15.96 12.62,16.10 12.45,16.24 12.26,16.32 12.06,16.40 11.85,16.41 11.64,16.43 11.43,16.37 11.23,16.32 11.05,16.20 10.87,16.08 10.74,15.92 10.61,15.75 10.54,15.55 10.47,15.35 10.47,15.14 10.47,14.92 10.53,14.72 10.60,14.52 10.72,14.35 10.85,14.18 11.03,14.06 11.20,13.93 11.40,13.88 11.61,13.82 11.82,13.83 12.03,13.83 12.23,13.91 12.43,13.99 12.59,14.12 12.76,14.26 12.87,14.44 12.98,14.62 13.03,14.83 13.08,15.03 13.06,15.25 13.03,15.46 12.95,15.65 12.86,15.85 12.72,16.00 12.57,16.16 12.38,16.26 12.20,16.36 11.99,16.40 11.78,16.43 11.57,16.40 11.36,16.37 11.36,16.37 11.36,16.37 9.58,15.10 7.81,13.82 7.31,12.81 6.82,11.81 6.27,10.64 5.72,9.48 4.30,7.68 2.89,5.88 2.52,7.36 2.16,8.83 1.66,11.18 1.16,13.52 1.13,13.76 1.09,13.99 1.00,14.21 0.91,14.43 0.78,14.62 0.64,14.81 0.46,14.96 0.28,15.11 0.07,15.22 -0.14,15.32 -0.37,15.37 -0.60,15.42 -0.83,15.42 -1.07,15.41 -1.29,15.35 -1.52,15.29 -1.73,15.17 -1.93,15.06 -2.11,14.90 -2.28,14.74 -2.41,14.54 -2.54,14.34 -2.61,14.12 -2.69,13.90 -2.72,13.66 -2.74,13.43 -2.72,12.61 -2.70,11.79 -2.66,10.60 -2.61,9.42 -2.50,7.15 -2.39,4.88 -2.13,2.35 -1.88,-0.17 -1.83,-0.39 -1.78,-0.61 -1.68,-0.82 -1.58,-1.02 -1.44,-1.20 -1.29,-1.37 -1.11,-1.51 -0.92,-1.64 -0.71,-1.73 -0.50,-1.82 -0.28,-1.85 -0.05,-1.89 0.17,-1.87 0.39,-1.85 0.61,-1.77 0.82,-1.70 1.02,-1.57 1.21,-1.45 1.36,-1.28 1.52,-1.12 1.63,-0.92 1.74,-0.72 1.80,-0.50 1.87,-0.28 1.87,-0.05 1.88,0.17 1.88,0.17 L 1.88,0.17 Z"></path></g><g transform="translate(1041.2000732421875 608.6625061035156) rotate(0 26.7999267578125 15.199981689453125)" stroke="none"><path fill="#000" d="M -0.30,1.54 Q -0.30,1.54 -1.49,1.47 -2.67,1.40 -3.93,1.29 -5.20,1.19 -6.35,2.32 -7.50,3.45 -8.18,4.73 -8.85,6.00 -9.37,7.61 -9.89,9.21 -10.10,10.72 -10.31,12.23 -10.41,14.43 -10.50,16.63 -10.14,17.99 -9.77,19.35 -8.13,20.62 -6.49,21.89 -4.55,21.78 -2.62,21.66 -1.01,20.57 0.58,19.47 2.34,18.87 4.10,18.26 5.55,19.24 7.00,20.22 7.02,18.90 7.03,17.58 5.61,16.67 4.18,15.76 3.18,15.14 2.17,14.52 1.99,14.35 1.80,14.18 1.66,13.97 1.52,13.77 1.43,13.53 1.34,13.30 1.31,13.05 1.29,12.80 1.32,12.55 1.35,12.30 1.44,12.07 1.53,11.83 1.68,11.63 1.82,11.42 2.01,11.26 2.20,11.09 2.42,10.98 2.64,10.86 2.89,10.81 3.13,10.75 3.38,10.75 3.63,10.75 3.87,10.81 4.12,10.87 4.34,10.99 4.56,11.11 6.16,11.61 7.76,12.10 9.21,12.18 10.65,12.27 12.19,12.31 13.72,12.35 14.88,12.49 16.04,12.64 16.97,13.41 17.90,14.18 18.26,16.22 18.63,18.25 18.70,19.42 18.77,20.59 19.61,21.45 20.45,22.31 21.74,21.52 23.04,20.74 24.24,19.73 25.45,18.72 27.20,18.70 28.95,18.67 30.08,19.24 31.22,19.81 32.32,20.02 33.42,20.23 35.75,20.28 38.08,20.33 38.72,22.12 39.36,23.90 41.12,23.50 42.88,23.11 44.53,22.21 46.17,21.32 47.80,20.85 49.43,20.38 51.15,20.44 52.87,20.51 54.36,21.64 55.85,22.76 57.04,24.17 58.24,25.57 59.50,26.74 60.77,27.91 61.74,28.36 62.70,28.82 64.16,28.95 65.61,29.08 65.82,29.12 66.03,29.15 66.22,29.25 66.41,29.35 66.56,29.50 66.70,29.66 66.79,29.85 66.88,30.04 66.91,30.25 66.93,30.46 66.89,30.67 66.84,30.88 66.73,31.06 66.62,31.24 66.46,31.38 66.30,31.52 66.10,31.60 65.91,31.68 65.69,31.69 65.48,31.70 65.28,31.65 65.07,31.59 64.89,31.47 64.72,31.35 64.59,31.18 64.46,31.02 64.39,30.81 64.32,30.61 64.32,30.40 64.32,30.19 64.39,29.99 64.46,29.79 64.58,29.62 64.71,29.45 64.89,29.33 65.06,29.21 65.27,29.15 65.47,29.09 65.69,29.10 65.90,29.11 66.09,29.19 66.29,29.27 66.45,29.41 66.62,29.54 66.73,29.73 66.84,29.91 66.88,30.12 66.93,30.32 66.91,30.53 66.89,30.75 66.80,30.94 66.71,31.13 66.56,31.29 66.42,31.44 66.23,31.54 66.04,31.64 65.83,31.68 65.62,31.71 65.62,31.71 65.62,31.71 63.56,31.86 61.49,32.00 59.89,31.39 58.29,30.78 56.77,29.45 55.25,28.11 54.20,26.87 53.16,25.63 51.77,24.81 50.39,23.99 49.19,24.32 47.99,24.65 46.24,25.64 44.48,26.63 43.11,27.25 41.73,27.88 40.36,28.11 38.99,28.33 37.88,27.65 36.77,26.98 36.13,25.29 35.49,23.61 34.18,23.75 32.87,23.89 31.20,23.64 29.52,23.40 28.15,22.91 26.78,22.43 25.87,23.30 24.96,24.18 23.71,24.85 22.46,25.52 21.03,25.81 19.59,26.10 17.42,24.67 15.25,23.23 14.93,22.05 14.62,20.86 14.55,19.77 14.48,18.67 14.06,17.51 13.63,16.34 12.03,16.31 10.43,16.28 8.83,16.20 7.22,16.11 4.70,15.32 2.17,14.52 1.99,14.35 1.80,14.18 1.66,13.97 1.52,13.77 1.43,13.53 1.34,13.30 1.32,13.05 1.29,12.80 1.32,12.55 1.35,12.30 1.44,12.07 1.53,11.83 1.68,11.63 1.82,11.42 2.01,11.26 2.20,11.09 2.42,10.98 2.64,10.86 2.89,10.81 3.13,10.75 3.38,10.75 3.63,10.75 3.87,10.81 4.12,10.87 4.34,10.99 4.56,11.11 5.41,11.65 6.26,12.19 7.93,13.29 9.61,14.39 10.29,15.57 10.97,16.76 11.10,17.98 11.23,19.20 10.89,20.30 10.55,21.40 9.61,22.50 8.66,23.59 7.37,23.85 6.07,24.11 4.58,23.37 3.10,22.63 2.05,23.45 1.01,24.27 -0.32,24.98 -1.65,25.70 -3.54,26.03 -5.43,26.36 -6.97,25.95 -8.51,25.54 -10.11,24.55 -11.71,23.56 -12.77,22.02 -13.84,20.48 -14.30,18.48 -14.76,16.48 -14.64,14.03 -14.51,11.58 -14.20,9.72 -13.89,7.87 -13.19,5.87 -12.49,3.88 -11.38,2.11 -10.27,0.34 -9.05,-0.64 -7.84,-1.62 -6.58,-2.15 -5.32,-2.67 -3.62,-2.49 -1.92,-2.32 -0.80,-1.93 0.30,-1.54 0.48,-1.48 0.66,-1.42 0.82,-1.32 0.98,-1.22 1.12,-1.08 1.25,-0.94 1.34,-0.78 1.44,-0.62 1.49,-0.43 1.54,-0.25 1.55,-0.06 1.56,0.12 1.52,0.30 1.49,0.49 1.41,0.66 1.33,0.83 1.21,0.98 1.09,1.12 0.94,1.24 0.79,1.35 0.61,1.43 0.44,1.50 0.25,1.53 0.06,1.56 -0.11,1.55 -0.30,1.54 -0.30,1.54 L -0.30,1.54 Z"></path></g><g transform="translate(1116.4000244140625 604.6625061035156) rotate(0 -2.79998779296875 15.599990844726562)" stroke="none"><path fill="#000" d="M 1.85,0.46 Q 1.85,0.46 1.22,3.23 0.59,6.01 -0.14,9.02 -0.88,12.04 -1.42,15.09 -1.95,18.14 -2.46,21.27 -2.98,24.40 -3.57,27.22 -4.16,30.04 -4.22,30.25 -4.27,30.45 -4.39,30.63 -4.51,30.81 -4.67,30.94 -4.84,31.07 -5.04,31.14 -5.24,31.21 -5.46,31.21 -5.67,31.21 -5.87,31.15 -6.07,31.08 -6.24,30.96 -6.41,30.83 -6.54,30.66 -6.66,30.48 -6.72,30.28 -6.78,30.07 -6.77,29.86 -6.76,29.65 -6.68,29.45 -6.60,29.25 -6.47,29.09 -6.33,28.93 -6.15,28.81 -5.97,28.70 -5.76,28.65 -5.56,28.61 -5.35,28.63 -5.13,28.65 -4.94,28.73 -4.75,28.82 -4.59,28.96 -4.43,29.11 -4.33,29.30 -4.23,29.48 -4.19,29.69 -4.16,29.90 -4.19,30.11 -4.22,30.32 -4.32,30.51 -4.42,30.70 -4.57,30.85 -4.72,30.99 -4.91,31.09 -5.11,31.18 -5.32,31.20 -5.53,31.23 -5.74,31.18 -5.94,31.14 -6.13,31.03 -6.31,30.93 -6.45,30.77 -6.59,30.61 -6.67,30.41 -6.75,30.21 -6.76,30.00 -6.78,29.79 -6.78,29.79 -6.78,29.79 -6.81,26.81 -6.84,23.83 -6.43,20.63 -6.02,17.42 -5.45,14.23 -4.88,11.04 -4.12,8.03 -3.35,5.02 -2.60,2.28 -1.85,-0.46 -1.77,-0.67 -1.69,-0.89 -1.55,-1.08 -1.42,-1.27 -1.25,-1.42 -1.08,-1.57 -0.87,-1.68 -0.67,-1.79 -0.44,-1.84 -0.22,-1.89 0.00,-1.89 0.23,-1.89 0.46,-1.84 0.68,-1.78 0.88,-1.67 1.09,-1.57 1.26,-1.41 1.43,-1.26 1.56,-1.07 1.69,-0.88 1.77,-0.66 1.85,-0.45 1.88,-0.22 1.91,0.00 1.88,0.23 1.85,0.46 1.85,0.46 L 1.85,0.46 Z"></path></g><g transform="translate(1110.800048828125 629.4624938964844) rotate(0 13.5999755859375 26.800003051757812)" stroke="none"><path fill="#000" d="M -0.55,-1.84 Q -0.55,-1.84 1.74,-2.53 4.04,-3.22 5.71,-3.52 7.38,-3.81 9.13,-3.03 10.88,-2.25 11.71,-0.20 12.53,1.84 12.76,4.57 13.00,7.30 12.84,9.02 12.69,10.74 12.36,11.84 12.02,12.95 11.90,13.56 11.78,14.16 11.67,14.39 11.56,14.62 11.40,14.82 11.24,15.02 11.04,15.17 10.84,15.32 10.60,15.42 10.37,15.52 10.12,15.56 9.87,15.61 9.61,15.59 9.36,15.57 9.12,15.49 8.88,15.41 8.66,15.27 8.45,15.13 8.27,14.95 8.10,14.77 7.97,14.55 7.84,14.33 7.77,14.09 7.70,13.84 7.69,13.59 7.68,13.33 7.73,13.09 7.78,12.84 9.13,10.79 10.47,8.73 11.59,7.25 12.70,5.76 13.68,4.61 14.66,3.46 15.65,2.79 16.65,2.12 18.03,2.52 19.41,2.91 19.84,4.35 20.28,5.78 21.72,5.82 23.15,5.85 24.51,5.39 25.87,4.92 26.10,4.91 26.34,4.89 26.57,4.93 26.81,4.97 27.02,5.06 27.24,5.16 27.43,5.30 27.62,5.45 27.77,5.63 27.92,5.81 28.02,6.03 28.12,6.25 28.16,6.48 28.21,6.71 28.20,6.95 28.19,7.19 28.12,7.41 28.05,7.64 27.93,7.84 27.81,8.05 27.64,8.22 27.48,8.39 27.28,8.51 27.08,8.64 26.85,8.71 26.62,8.79 27.63,11.89 28.64,15.00 28.43,20.62 28.21,26.25 27.41,31.96 26.61,37.66 24.76,42.41 22.91,47.15 19.07,50.31 15.22,53.47 10.42,54.97 5.61,56.47 5.40,56.51 5.19,56.56 4.98,56.53 4.77,56.51 4.58,56.42 4.39,56.32 4.24,56.18 4.08,56.03 3.99,55.84 3.89,55.65 3.86,55.44 3.82,55.23 3.86,55.02 3.90,54.81 4.00,54.63 4.10,54.44 4.26,54.29 4.41,54.15 4.61,54.06 4.80,53.98 5.01,53.96 5.22,53.93 5.43,53.98 5.64,54.03 5.82,54.14 6.00,54.25 6.13,54.42 6.27,54.58 6.35,54.78 6.42,54.98 6.43,55.19 6.44,55.40 6.38,55.61 6.32,55.81 6.20,55.98 6.08,56.16 5.91,56.29 5.74,56.41 5.54,56.48 5.34,56.54 5.12,56.54 4.91,56.54 4.71,56.47 4.51,56.40 4.34,56.27 4.17,56.14 4.06,55.96 3.94,55.78 3.89,55.58 3.83,55.37 3.84,55.16 3.86,54.95 3.94,54.75 4.02,54.56 4.16,54.40 4.30,54.23 4.48,54.13 4.67,54.02 4.67,54.02 4.66,54.02 8.67,52.12 12.68,50.22 15.81,47.76 18.94,45.30 20.52,41.15 22.10,37.00 22.87,31.53 23.64,26.06 23.87,20.55 24.09,15.03 24.11,12.23 24.13,9.43 25.00,7.17 25.87,4.92 26.10,4.91 26.34,4.89 26.57,4.93 26.81,4.97 27.02,5.06 27.24,5.16 27.43,5.30 27.62,5.44 27.77,5.63 27.92,5.81 28.02,6.03 28.12,6.25 28.16,6.48 28.21,6.71 28.20,6.95 28.19,7.18 28.12,7.41 28.05,7.64 27.93,7.84 27.81,8.05 27.64,8.22 27.48,8.39 27.28,8.51 27.08,8.64 26.85,8.71 26.62,8.79 25.99,9.10 25.35,9.40 24.12,9.63 22.88,9.87 21.44,9.75 19.99,9.63 18.93,9.18 17.88,8.73 17.82,7.44 17.77,6.15 16.88,7.19 16.00,8.23 14.89,9.71 13.78,11.20 12.78,12.68 11.78,14.16 11.67,14.39 11.56,14.62 11.40,14.82 11.24,15.02 11.04,15.17 10.84,15.32 10.60,15.42 10.37,15.52 10.12,15.56 9.87,15.61 9.61,15.59 9.36,15.57 9.12,15.49 8.88,15.41 8.66,15.27 8.45,15.13 8.27,14.95 8.10,14.77 7.97,14.55 7.84,14.33 7.77,14.09 7.70,13.84 7.69,13.59 7.68,13.33 7.73,13.09 7.78,12.84 8.16,11.58 8.53,10.31 8.68,8.96 8.82,7.61 8.67,5.28 8.51,2.96 8.04,1.42 7.56,-0.11 6.36,0.17 5.15,0.46 2.85,1.15 0.55,1.84 0.32,1.88 0.09,1.92 -0.13,1.90 -0.36,1.89 -0.58,1.82 -0.80,1.74 -1.00,1.62 -1.20,1.50 -1.36,1.33 -1.52,1.17 -1.64,0.97 -1.76,0.77 -1.83,0.54 -1.89,0.32 -1.91,0.09 -1.92,-0.13 -1.87,-0.36 -1.83,-0.59 -1.73,-0.80 -1.63,-1.01 -1.49,-1.19 -1.34,-1.37 -1.16,-1.51 -0.97,-1.65 -0.76,-1.75 -0.55,-1.84 -0.55,-1.84 L -0.55,-1.84 Z"></path></g></svg>