<svg version="1.1" xmlns="http://www.w3.org/2000/svg" viewBox="0 0 10020 734.6125183105469" width="10020" height="734.6125183105469">
  <!-- svg-source:excalidraw -->
  
  <defs>
    <style>
      @font-face {
        font-family: "Virgil";
        src: url("https://excalidraw.com/Virgil.woff2");
      }
      @font-face {
        font-family: "Cascadia";
        src: url("https://excalidraw.com/Cascadia.woff2");
      }
    </style>
  </defs>
  <rect x="0" y="0" width="10020" height="734.6125183105469" fill="#fff0"></rect><g stroke-linecap="round" transform="translate(10 10) rotate(0 5000 0.5)"><path d="M-0.52 -0.26 C3022.65 -30.2, 6044.59 -29.2, 9999.32 0.22 M0.38 -0.31 C3948.03 -0.44, 7895.41 0.2, 9999.95 0.08 M10000.08 -0.06 C10000.09 0.27, 10000.05 0.48, 10000.09 0.92 M9999.97 0.01 C9999.95 0.33, 9999.98 0.72, 10000 0.99 M10000.22 1.51 C7095.77 35.76, 4193.15 34.95, -0.25 0.75 M10000.01 1.13 C7827.97 2.74, 5656.23 3.35, -0.33 0.84 M-0.04 1.01 C0 0.63, -0.06 0.15, 0.05 -0.03 M-0.04 0.95 C-0.04 0.73, -0.03 0.59, -0.05 -0.02" stroke="transparent" stroke-width="1" fill="none"></path></g><g transform="translate(550 535.8125) rotate(0 -4 14)" stroke="none"><path fill="#000" d="M 1.58,0.35 Q 1.58,0.35 1.32,2.46 1.06,4.58 0.41,7.32 -0.22,10.06 -0.72,12.77 -1.21,15.48 -1.91,17.91 -2.62,20.33 -3.14,22.22 -3.67,24.11 -5.02,26.25 -6.37,28.39 -6.49,28.57 -6.61,28.75 -6.78,28.88 -6.94,29.01 -7.14,29.08 -7.35,29.15 -7.56,29.15 -7.77,29.15 -7.97,29.08 -8.17,29.02 -8.34,28.89 -8.51,28.76 -8.63,28.59 -8.76,28.41 -8.81,28.21 -8.87,28.00 -8.86,27.79 -8.85,27.58 -8.78,27.38 -8.70,27.18 -8.56,27.02 -8.43,26.86 -8.24,26.75 -8.06,26.64 -7.86,26.59 -7.65,26.54 -7.44,26.56 -7.23,26.58 -7.03,26.67 -6.84,26.76 -6.68,26.90 -6.53,27.05 -6.43,27.24 -6.33,27.42 -6.29,27.63 -6.25,27.84 -6.29,28.05 -6.32,28.26 -6.42,28.45 -6.52,28.64 -6.67,28.79 -6.82,28.93 -7.01,29.02 -7.21,29.11 -7.42,29.14 -7.63,29.16 -7.84,29.12 -8.04,29.08 -8.23,28.97 -8.41,28.86 -8.55,28.70 -8.69,28.54 -8.77,28.34 -8.85,28.14 -8.86,27.93 -8.87,27.72 -8.82,27.51 -8.76,27.31 -8.76,27.31 -8.76,27.31 -8.18,25.17 -7.59,23.04 -7.08,21.11 -6.58,19.18 -5.92,16.96 -5.27,14.73 -4.75,11.91 -4.23,9.09 -3.56,6.39 -2.90,3.69 -2.24,1.67 -1.58,-0.35 -1.51,-0.53 -1.45,-0.72 -1.34,-0.88 -1.23,-1.04 -1.09,-1.18 -0.95,-1.31 -0.78,-1.40 -0.60,-1.50 -0.42,-1.55 -0.23,-1.60 -0.03,-1.60 0.15,-1.61 0.34,-1.57 0.54,-1.52 0.71,-1.44 0.89,-1.35 1.03,-1.22 1.18,-1.10 1.30,-0.94 1.41,-0.78 1.49,-0.60 1.56,-0.42 1.59,-0.23 1.62,-0.03 1.60,0.15 1.58,0.35 1.58,0.35 L 1.58,0.35 Z"></path></g><g transform="translate(532.4000244140625 535.8125) rotate(0 19.600006103515625 7.600006103515625)" stroke="none"><path fill="#000" d="M -1.22,-1.49 Q -1.22,-1.49 1.32,-3.56 3.88,-5.63 7.99,-7.13 12.11,-8.62 15.81,-9.01 19.52,-9.40 22.94,-8.59 26.36,-7.78 28.94,-5.88 31.53,-3.99 32.97,-1.18 34.42,1.62 33.60,5.45 32.77,9.29 30.62,12.19 28.48,15.08 25.79,16.86 23.10,18.64 20.75,19.62 18.41,20.60 17.22,20.73 16.03,20.85 15.58,21.55 15.14,22.24 14.89,22.28 14.64,22.32 14.38,22.29 14.13,22.27 13.89,22.18 13.66,22.10 13.44,21.96 13.23,21.82 13.06,21.64 12.89,21.45 12.77,21.23 12.64,21.01 12.58,20.76 12.51,20.52 12.51,20.27 12.50,20.01 12.56,19.77 12.61,19.52 12.72,19.29 12.84,19.06 13.00,18.87 13.16,18.68 13.37,18.53 13.57,18.38 13.81,18.29 14.04,18.19 15.77,18.33 17.50,18.47 20.12,18.77 22.74,19.07 25.93,19.44 29.11,19.81 33.35,21.07 37.60,22.32 37.80,22.40 37.99,22.48 38.16,22.61 38.32,22.75 38.43,22.93 38.55,23.11 38.59,23.32 38.64,23.52 38.62,23.73 38.60,23.95 38.52,24.14 38.43,24.33 38.28,24.49 38.14,24.65 37.95,24.75 37.77,24.85 37.56,24.89 37.35,24.92 37.14,24.89 36.93,24.86 36.74,24.76 36.55,24.67 36.40,24.51 36.25,24.36 36.16,24.17 36.07,23.98 36.05,23.77 36.02,23.56 36.06,23.35 36.11,23.14 36.21,22.96 36.32,22.77 36.48,22.63 36.64,22.49 36.84,22.41 37.03,22.33 37.25,22.32 37.46,22.30 37.66,22.36 37.87,22.41 38.05,22.53 38.22,22.65 38.35,22.81 38.48,22.98 38.55,23.18 38.63,23.38 38.63,23.59 38.63,23.81 38.57,24.01 38.50,24.21 38.37,24.38 38.25,24.55 38.07,24.67 37.90,24.80 37.69,24.85 37.49,24.91 37.28,24.91 37.07,24.90 37.07,24.90 37.07,24.90 32.86,24.41 28.65,23.92 25.46,23.58 22.27,23.23 18.70,22.74 15.14,22.24 14.89,22.28 14.64,22.32 14.39,22.29 14.13,22.27 13.89,22.18 13.66,22.10 13.44,21.96 13.23,21.82 13.06,21.64 12.89,21.45 12.77,21.23 12.64,21.01 12.58,20.76 12.51,20.52 12.51,20.27 12.50,20.01 12.56,19.77 12.61,19.52 12.72,19.29 12.84,19.07 13.00,18.87 13.16,18.68 13.37,18.53 13.57,18.38 13.81,18.29 14.04,18.19 13.86,18.11 13.67,18.03 15.27,17.40 16.86,16.77 18.90,15.98 20.94,15.19 23.16,13.88 25.38,12.57 27.20,10.37 29.02,8.16 29.95,5.41 30.88,2.67 29.98,0.80 29.07,-1.06 27.19,-2.58 25.31,-4.11 22.56,-4.85 19.81,-5.59 16.58,-5.30 13.34,-5.01 9.79,-3.82 6.23,-2.64 3.73,-0.57 1.22,1.49 1.02,1.62 0.83,1.74 0.61,1.82 0.38,1.89 0.15,1.91 -0.07,1.93 -0.30,1.89 -0.53,1.86 -0.75,1.77 -0.96,1.67 -1.15,1.53 -1.34,1.39 -1.48,1.21 -1.63,1.03 -1.73,0.82 -1.83,0.61 -1.88,0.38 -1.93,0.15 -1.92,-0.07 -1.91,-0.30 -1.84,-0.53 -1.78,-0.75 -1.66,-0.96 -1.55,-1.16 -1.38,-1.33 -1.22,-1.49 -1.22,-1.49 L -1.22,-1.49 Z"></path></g><g transform="translate(573.2000122070312 556.6124877929688) rotate(0 30.399993896484375 2.0000152587890625)" stroke="none"><path fill="#000" d="M -1.80,-0.60 Q -1.80,-0.60 -1.34,-1.98 -0.88,-3.36 -0.85,-4.83 -0.81,-6.31 -0.75,-6.53 -0.69,-6.75 -0.58,-6.96 -0.47,-7.16 -0.31,-7.33 -0.15,-7.50 0.03,-7.63 0.23,-7.76 0.45,-7.83 0.66,-7.91 0.89,-7.93 1.13,-7.96 1.36,-7.92 1.58,-7.89 1.80,-7.80 2.01,-7.72 2.20,-7.58 2.39,-7.44 2.54,-7.27 2.69,-7.09 2.79,-6.88 2.90,-6.67 2.95,-6.45 3.00,-6.22 2.99,-5.99 2.99,-5.76 1.67,-4.35 0.34,-2.95 -0.06,-1.97 -0.47,-0.98 -0.64,0.20 -0.82,1.39 0.64,2.64 2.10,3.89 3.92,3.99 5.74,4.09 8.05,3.75 10.35,3.40 12.64,2.61 14.92,1.82 16.75,0.84 18.58,-0.14 19.77,-0.98 20.96,-1.82 20.96,-2.24 20.97,-2.65 21.15,-2.82 21.33,-2.99 21.54,-3.11 21.75,-3.23 21.99,-3.30 22.23,-3.36 22.47,-3.37 22.72,-3.38 22.96,-3.33 23.20,-3.28 23.42,-3.17 23.64,-3.06 23.83,-2.91 24.01,-2.75 24.16,-2.55 24.30,-2.35 24.40,-2.13 24.49,-1.90 24.53,-1.66 24.57,-1.42 24.55,-1.17 24.52,-0.93 24.44,-0.70 24.36,-0.46 24.23,-0.26 24.10,-0.05 23.97,1.30 23.84,2.65 24.03,3.77 24.21,4.89 24.63,6.53 25.05,8.17 25.35,6.74 25.66,5.32 26.78,3.89 27.91,2.46 29.49,1.20 31.08,-0.04 32.35,-0.62 33.62,-1.20 35.05,-1.26 36.48,-1.32 37.46,-0.57 38.45,0.17 39.08,1.63 39.71,3.10 38.96,4.05 38.22,5.00 38.99,4.27 39.76,3.53 40.97,2.18 42.18,0.82 43.92,-0.43 45.66,-1.70 47.79,-1.70 49.92,-1.70 51.45,-0.09 52.98,1.51 54.31,3.47 55.65,5.43 57.27,6.21 58.88,6.99 61.05,7.92 63.22,8.84 63.42,8.92 63.61,9.01 63.77,9.15 63.93,9.30 64.03,9.48 64.13,9.67 64.17,9.88 64.21,10.09 64.18,10.30 64.15,10.51 64.05,10.70 63.95,10.89 63.80,11.04 63.65,11.18 63.46,11.28 63.27,11.37 63.06,11.40 62.85,11.42 62.64,11.38 62.43,11.34 62.25,11.23 62.06,11.13 61.92,10.97 61.78,10.81 61.70,10.61 61.62,10.42 61.60,10.20 61.59,9.99 61.64,9.79 61.69,9.58 61.81,9.40 61.93,9.22 62.09,9.09 62.26,8.96 62.46,8.89 62.66,8.82 62.87,8.81 63.08,8.81 63.29,8.88 63.49,8.94 63.66,9.07 63.83,9.19 63.95,9.36 64.08,9.54 64.14,9.74 64.20,9.95 64.19,10.16 64.18,10.37 64.11,10.57 64.03,10.77 63.90,10.93 63.76,11.10 63.58,11.21 63.40,11.32 63.20,11.37 62.99,11.42 62.78,11.40 62.57,11.38 62.57,11.38 62.57,11.38 59.75,11.01 56.93,10.64 54.63,9.30 52.34,7.95 50.97,5.98 49.60,4.00 48.60,2.85 47.59,1.70 46.40,2.60 45.21,3.51 43.84,5.09 42.48,6.67 41.52,7.42 40.56,8.18 38.61,7.42 36.66,6.67 36.21,5.64 35.75,4.61 34.66,3.92 33.57,3.23 32.36,4.13 31.14,5.02 30.01,6.50 28.87,7.97 27.42,9.51 25.96,11.04 24.80,11.24 23.65,11.44 22.19,9.64 20.73,7.85 20.39,6.65 20.05,5.45 19.87,3.84 19.68,2.23 19.85,0.97 20.01,-0.27 20.49,-1.46 20.97,-2.65 21.15,-2.82 21.33,-2.99 21.54,-3.11 21.75,-3.23 21.99,-3.30 22.23,-3.36 22.47,-3.37 22.72,-3.38 22.96,-3.33 23.20,-3.28 23.42,-3.17 23.64,-3.06 23.82,-2.91 24.01,-2.75 24.16,-2.55 24.30,-2.35 24.40,-2.13 24.49,-1.90 24.53,-1.66 24.57,-1.42 24.55,-1.17 24.52,-0.93 24.44,-0.70 24.36,-0.46 24.23,-0.26 24.10,-0.05 24.25,-0.64 24.40,-1.23 23.80,0.03 23.20,1.30 21.80,2.28 20.40,3.25 18.30,4.36 16.20,5.48 13.57,6.39 10.94,7.29 8.17,7.70 5.40,8.10 2.85,7.80 0.31,7.49 -1.88,6.02 -4.09,4.55 -4.42,2.62 -4.75,0.68 -4.36,-1.03 -3.98,-2.75 -2.40,-4.53 -0.81,-6.31 -0.75,-6.53 -0.69,-6.75 -0.58,-6.96 -0.47,-7.16 -0.31,-7.33 -0.15,-7.50 0.03,-7.63 0.23,-7.76 0.45,-7.83 0.66,-7.91 0.89,-7.93 1.13,-7.96 1.35,-7.92 1.58,-7.89 1.80,-7.80 2.01,-7.72 2.20,-7.58 2.39,-7.44 2.54,-7.27 2.69,-7.09 2.79,-6.88 2.90,-6.67 2.95,-6.45 3.00,-6.22 2.99,-5.99 2.99,-5.76 3.11,-5.74 3.23,-5.73 2.98,-3.94 2.72,-2.15 2.26,-0.77 1.80,0.60 1.70,0.81 1.61,1.01 1.46,1.19 1.32,1.37 1.13,1.51 0.95,1.65 0.74,1.74 0.53,1.83 0.30,1.86 0.07,1.90 -0.15,1.88 -0.38,1.86 -0.59,1.79 -0.81,1.72 -1.01,1.59 -1.20,1.47 -1.36,1.31 -1.52,1.14 -1.63,0.94 -1.75,0.74 -1.81,0.52 -1.88,0.30 -1.89,0.07 -1.90,-0.15 -1.85,-0.37 -1.80,-0.60 -1.80,-0.60 L -1.80,-0.60 Z"></path></g><g transform="translate(666.7999877929688 518.2124938964844) rotate(0 -1.5999755859375 40.40000915527344)" stroke="none"><path fill="#000" d="M 0.51,1.54 Q 0.51,1.54 -0.57,2.03 -1.65,2.51 -2.24,4.63 -2.83,6.74 -3.63,11.06 -4.43,15.37 -5.01,20.87 -5.59,26.37 -5.84,32.58 -6.08,38.79 -5.74,45.96 -5.40,53.13 -4.36,58.35 -3.32,63.58 -2.05,67.58 -0.79,71.59 0.94,74.30 2.68,77.02 4.18,78.84 5.69,80.67 5.82,80.84 5.94,81.01 6.01,81.21 6.08,81.41 6.08,81.62 6.08,81.84 6.01,82.04 5.94,82.24 5.81,82.41 5.68,82.58 5.51,82.69 5.33,82.81 5.12,82.87 4.92,82.93 4.71,82.91 4.49,82.90 4.30,82.82 4.10,82.74 3.94,82.60 3.78,82.47 3.67,82.28 3.56,82.10 3.51,81.89 3.47,81.69 3.49,81.47 3.52,81.26 3.61,81.07 3.70,80.88 3.84,80.72 3.99,80.57 4.18,80.47 4.37,80.37 4.58,80.34 4.79,80.31 5.00,80.34 5.21,80.38 5.39,80.48 5.58,80.58 5.73,80.73 5.87,80.89 5.96,81.08 6.05,81.27 6.07,81.48 6.09,81.70 6.05,81.90 6.00,82.11 5.89,82.29 5.78,82.47 5.62,82.61 5.45,82.75 5.26,82.82 5.06,82.90 4.85,82.91 4.63,82.92 4.43,82.87 4.23,82.81 4.05,82.69 3.87,82.57 3.88,82.57 3.88,82.57 1.69,80.88 -0.48,79.18 -2.67,76.09 -4.87,72.99 -6.35,68.73 -7.83,64.47 -8.93,58.92 -10.02,53.36 -10.38,45.98 -10.73,38.60 -10.46,32.24 -10.18,25.87 -9.53,20.18 -8.88,14.48 -7.88,9.77 -6.87,5.07 -5.36,2.19 -3.86,-0.67 -2.18,-1.11 -0.51,-1.54 -0.32,-1.58 -0.13,-1.62 0.06,-1.61 0.26,-1.60 0.45,-1.55 0.63,-1.49 0.80,-1.39 0.97,-1.30 1.12,-1.16 1.26,-1.02 1.36,-0.86 1.47,-0.69 1.53,-0.51 1.59,-0.32 1.61,-0.12 1.62,0.06 1.59,0.26 1.56,0.45 1.48,0.63 1.41,0.81 1.29,0.97 1.17,1.12 1.02,1.25 0.86,1.37 0.69,1.46 0.51,1.54 0.51,1.54 L 0.51,1.54 Z"></path></g><g transform="translate(690.7999877929688 542.2124938964844) rotate(0 2.800018310546875 8.400009155273438)" stroke="none"><path fill="#000" d="M 0.36,1.82 Q 0.36,1.82 -1.84,2.32 -4.05,2.81 -5.26,4.17 -6.47,5.52 -6.95,6.81 -7.44,8.09 -7.68,9.15 -7.93,10.21 -6.13,8.93 -4.34,7.64 -3.11,6.46 -1.88,5.28 -1.14,4.36 -0.40,3.44 -0.04,2.78 0.30,2.11 0.48,1.94 0.65,1.77 0.86,1.64 1.07,1.52 1.31,1.45 1.54,1.38 1.78,1.37 2.03,1.36 2.27,1.41 2.51,1.46 2.73,1.56 2.95,1.66 3.14,1.82 3.33,1.97 3.47,2.17 3.62,2.36 3.72,2.58 3.82,2.81 3.86,3.05 3.90,3.29 3.88,3.53 3.86,3.78 3.78,4.01 3.71,4.24 3.58,4.45 3.45,4.65 3.69,5.88 3.92,7.10 3.86,8.46 3.79,9.81 4.32,10.87 4.84,11.93 6.16,12.66 7.48,13.38 8.94,13.77 10.41,14.15 12.48,13.80 14.56,13.44 14.77,13.41 14.98,13.39 15.19,13.43 15.40,13.48 15.58,13.59 15.76,13.69 15.90,13.86 16.04,14.02 16.12,14.21 16.20,14.41 16.22,14.62 16.23,14.83 16.17,15.04 16.12,15.24 16.00,15.42 15.88,15.60 15.71,15.73 15.55,15.86 15.34,15.93 15.14,16.00 14.93,16.00 14.72,16.00 14.52,15.93 14.31,15.87 14.14,15.74 13.97,15.61 13.85,15.44 13.73,15.26 13.68,15.06 13.62,14.85 13.63,14.64 13.64,14.43 13.71,14.23 13.79,14.03 13.93,13.87 14.06,13.71 14.25,13.60 14.43,13.49 14.63,13.44 14.84,13.39 15.05,13.41 15.26,13.43 15.46,13.52 15.65,13.61 15.81,13.75 15.96,13.90 16.06,14.09 16.16,14.27 16.20,14.48 16.23,14.69 16.20,14.90 16.17,15.11 16.07,15.30 15.97,15.49 15.82,15.64 15.67,15.78 15.47,15.87 15.28,15.96 15.28,15.96 15.28,15.96 12.49,17.00 9.70,18.03 7.45,17.47 5.21,16.90 3.20,15.39 1.20,13.88 0.40,11.84 -0.38,9.80 -0.07,7.30 0.23,4.80 0.27,3.45 0.30,2.11 0.47,1.94 0.65,1.77 0.86,1.64 1.07,1.52 1.31,1.45 1.54,1.38 1.78,1.37 2.03,1.36 2.27,1.41 2.51,1.46 2.73,1.56 2.95,1.66 3.14,1.82 3.33,1.97 3.47,2.17 3.62,2.36 3.72,2.58 3.82,2.81 3.86,3.05 3.90,3.29 3.88,3.53 3.86,3.78 3.78,4.01 3.71,4.24 3.58,4.45 3.45,4.65 3.10,5.32 2.75,5.98 1.83,7.11 0.91,8.24 -0.68,9.73 -2.27,11.21 -4.36,12.31 -6.44,13.42 -8.08,13.36 -9.72,13.30 -10.85,11.52 -11.97,9.75 -11.61,8.08 -11.26,6.40 -10.32,4.51 -9.39,2.61 -7.27,0.81 -5.14,-0.97 -2.75,-1.40 -0.36,-1.82 -0.14,-1.84 0.08,-1.86 0.30,-1.82 0.52,-1.78 0.73,-1.69 0.93,-1.61 1.11,-1.47 1.29,-1.33 1.43,-1.16 1.57,-0.98 1.67,-0.78 1.77,-0.58 1.81,-0.36 1.85,-0.14 1.84,0.08 1.83,0.30 1.77,0.52 1.71,0.73 1.59,0.93 1.48,1.12 1.32,1.28 1.17,1.44 0.98,1.56 0.79,1.68 0.57,1.75 0.36,1.82 0.36,1.82 L 0.36,1.82 Z"></path></g><g transform="translate(710.7999877929688 527.8125) rotate(0 -0.79998779296875 8.399993896484375)" stroke="none"><path fill="#000" d="M 1.75,0.17 Q 1.75,0.17 1.70,2.49 1.65,4.81 1.32,7.42 0.99,10.04 0.85,11.56 0.72,13.08 0.18,14.75 -0.36,16.43 -0.46,16.62 -0.57,16.80 -0.72,16.94 -0.88,17.08 -1.08,17.17 -1.27,17.25 -1.48,17.27 -1.70,17.29 -1.90,17.23 -2.11,17.18 -2.29,17.07 -2.47,16.95 -2.60,16.79 -2.73,16.62 -2.81,16.42 -2.88,16.22 -2.88,16.01 -2.89,15.80 -2.83,15.60 -2.76,15.39 -2.64,15.22 -2.52,15.05 -2.34,14.92 -2.17,14.80 -1.97,14.74 -1.76,14.68 -1.55,14.68 -1.34,14.69 -1.14,14.76 -0.94,14.83 -0.78,14.97 -0.61,15.10 -0.50,15.28 -0.38,15.46 -0.33,15.67 -0.28,15.87 -0.30,16.08 -0.31,16.30 -0.40,16.49 -0.48,16.69 -0.62,16.84 -0.77,17.00 -0.95,17.11 -1.14,17.21 -1.35,17.25 -1.55,17.29 -1.76,17.26 -1.98,17.23 -2.17,17.14 -2.36,17.04 -2.51,16.89 -2.66,16.74 -2.75,16.55 -2.84,16.36 -2.87,16.15 -2.90,15.94 -2.86,15.73 -2.82,15.52 -2.82,15.52 -2.82,15.52 -3.16,14.11 -3.51,12.70 -3.36,11.10 -3.22,9.50 -2.90,6.94 -2.57,4.38 -2.16,2.10 -1.75,-0.17 -1.71,-0.38 -1.66,-0.59 -1.57,-0.78 -1.47,-0.97 -1.33,-1.13 -1.20,-1.29 -1.02,-1.42 -0.85,-1.54 -0.65,-1.62 -0.45,-1.70 -0.24,-1.73 -0.03,-1.76 0.17,-1.74 0.38,-1.72 0.58,-1.65 0.78,-1.58 0.96,-1.46 1.14,-1.34 1.28,-1.19 1.43,-1.03 1.53,-0.84 1.64,-0.66 1.69,-0.45 1.75,-0.25 1.75,-0.03 1.75,0.17 1.75,0.17 L 1.75,0.17 Z"></path></g><g transform="translate(710 526.2124938964844) rotate(0 6.800018310546875 4.800018310546875)" stroke="none"><path fill="#000" d="M -0.66,-1.50 Q -0.66,-1.50 1.35,-2.53 3.38,-3.56 5.39,-4.02 7.40,-4.48 9.39,-4.08 11.38,-3.68 12.70,-1.99 14.01,-0.31 13.97,2.00 13.93,4.33 12.29,6.22 10.66,8.10 8.73,9.30 6.79,10.49 4.05,11.95 1.30,13.40 1.12,13.51 0.94,13.62 0.73,13.67 0.53,13.72 0.32,13.70 0.10,13.68 -0.08,13.59 -0.27,13.50 -0.43,13.36 -0.59,13.22 -0.69,13.03 -0.79,12.84 -0.83,12.63 -0.86,12.42 -0.83,12.21 -0.80,12.00 -0.70,11.81 -0.61,11.63 -0.45,11.48 -0.30,11.33 -0.11,11.24 0.07,11.15 0.28,11.12 0.49,11.10 0.70,11.14 0.91,11.18 1.09,11.29 1.28,11.40 1.42,11.56 1.56,11.72 1.64,11.91 1.72,12.11 1.73,12.32 1.75,12.53 1.69,12.74 1.64,12.94 1.52,13.12 1.40,13.30 1.24,13.43 1.07,13.56 0.87,13.63 0.67,13.70 0.46,13.70 0.24,13.71 0.04,13.64 -0.15,13.58 -0.32,13.45 -0.49,13.32 -0.61,13.15 -0.74,12.97 -0.79,12.77 -0.85,12.57 -0.85,12.35 -0.84,12.14 -0.76,11.94 -0.68,11.74 -0.55,11.58 -0.41,11.42 -0.41,11.42 -0.41,11.42 2.18,9.29 4.78,7.16 6.36,6.24 7.94,5.32 9.15,4.39 10.35,3.46 10.51,2.40 10.67,1.34 9.37,0.29 8.07,-0.75 6.48,-0.43 4.89,-0.11 2.78,0.69 0.66,1.50 0.47,1.55 0.28,1.61 0.09,1.62 -0.10,1.63 -0.30,1.60 -0.49,1.56 -0.67,1.48 -0.85,1.40 -1.01,1.27 -1.16,1.15 -1.28,0.99 -1.41,0.84 -1.49,0.66 -1.57,0.48 -1.60,0.28 -1.64,0.09 -1.62,-0.10 -1.61,-0.30 -1.55,-0.49 -1.49,-0.68 -1.39,-0.85 -1.28,-1.01 -1.14,-1.15 -1.00,-1.29 -0.83,-1.40 -0.66,-1.50 -0.66,-1.50 L -0.66,-1.50 Z"></path></g><g transform="translate(726 536.6124877929688) rotate(0 8 -2.399993896484375)" stroke="none"><path fill="#000" d="M -0.25,-2.04 Q -0.25,-2.04 1.57,-2.31 3.40,-2.59 6.05,-3.49 8.70,-4.39 11.53,-5.01 14.37,-5.62 14.58,-5.66 14.79,-5.69 15.00,-5.66 15.21,-5.63 15.40,-5.53 15.58,-5.43 15.73,-5.28 15.88,-5.13 15.97,-4.93 16.06,-4.74 16.09,-4.53 16.11,-4.32 16.07,-4.11 16.02,-3.90 15.92,-3.72 15.81,-3.54 15.65,-3.40 15.49,-3.26 15.29,-3.18 15.10,-3.10 14.88,-3.09 14.67,-3.07 14.47,-3.13 14.26,-3.18 14.08,-3.30 13.91,-3.42 13.78,-3.58 13.65,-3.75 13.58,-3.95 13.51,-4.15 13.50,-4.37 13.50,-4.58 13.57,-4.78 13.63,-4.98 13.76,-5.15 13.89,-5.32 14.06,-5.44 14.24,-5.57 14.44,-5.62 14.64,-5.68 14.86,-5.67 15.07,-5.66 15.27,-5.59 15.47,-5.51 15.63,-5.37 15.79,-5.24 15.90,-5.06 16.02,-4.88 16.06,-4.67 16.11,-4.46 16.09,-4.25 16.07,-4.04 15.98,-3.85 15.89,-3.65 15.75,-3.50 15.61,-3.34 15.42,-3.24 15.23,-3.14 15.23,-3.14 15.23,-3.14 12.65,-1.86 10.06,-0.59 7.01,0.54 3.95,1.67 2.10,1.85 0.25,2.04 0.00,2.04 -0.24,2.04 -0.48,1.98 -0.72,1.92 -0.94,1.81 -1.16,1.69 -1.34,1.53 -1.53,1.37 -1.67,1.16 -1.81,0.96 -1.90,0.73 -1.99,0.49 -2.02,0.25 -2.05,0.00 -2.02,-0.23 -2.00,-0.48 -1.91,-0.71 -1.82,-0.95 -1.68,-1.15 -1.54,-1.35 -1.36,-1.52 -1.17,-1.69 -0.95,-1.80 -0.73,-1.92 -0.49,-1.98 -0.25,-2.04 -0.25,-2.04 L -0.25,-2.04 Z"></path></g><g transform="translate(758 518.2124938964844) rotate(0 -1.199981689453125 14.400009155273438)" stroke="none"><path fill="#000" d="M 2.07,0.51 Q 2.07,0.51 1.53,3.31 1.00,6.10 0.73,10.51 0.46,14.91 0.46,18.38 0.47,21.84 0.39,24.61 0.32,27.37 0.32,27.58 0.31,27.80 0.24,28.00 0.17,28.20 0.03,28.36 -0.09,28.53 -0.27,28.64 -0.45,28.76 -0.65,28.81 -0.86,28.86 -1.07,28.84 -1.28,28.83 -1.48,28.74 -1.67,28.66 -1.83,28.52 -1.99,28.38 -2.09,28.19 -2.20,28.01 -2.24,27.80 -2.28,27.59 -2.25,27.38 -2.22,27.17 -2.13,26.98 -2.04,26.79 -1.89,26.64 -1.74,26.49 -1.55,26.39 -1.36,26.30 -1.15,26.27 -0.94,26.24 -0.73,26.28 -0.52,26.32 -0.33,26.42 -0.15,26.53 -0.00,26.68 0.13,26.84 0.21,27.04 0.30,27.23 0.31,27.44 0.33,27.66 0.28,27.86 0.23,28.07 0.12,28.25 0.00,28.43 -0.15,28.56 -0.32,28.69 -0.52,28.77 -0.72,28.84 -0.93,28.85 -1.14,28.85 -1.35,28.79 -1.55,28.73 -1.72,28.61 -1.89,28.48 -2.02,28.31 -2.14,28.14 -2.21,27.93 -2.27,27.73 -2.27,27.73 -2.27,27.73 -3.12,24.85 -3.98,21.98 -4.18,18.29 -4.39,14.61 -4.07,9.77 -3.76,4.93 -2.91,2.20 -2.07,-0.51 -1.98,-0.75 -1.88,-0.99 -1.74,-1.21 -1.59,-1.42 -1.40,-1.59 -1.20,-1.76 -0.97,-1.88 -0.75,-2.00 -0.50,-2.06 -0.25,-2.12 0.00,-2.12 0.26,-2.12 0.51,-2.05 0.76,-1.99 0.99,-1.87 1.21,-1.75 1.41,-1.58 1.60,-1.41 1.74,-1.19 1.89,-0.98 1.98,-0.74 2.07,-0.50 2.10,-0.24 2.13,0.00 2.10,0.26 2.07,0.51 2.07,0.51 L 2.07,0.51 Z"></path></g><g transform="translate(685.2000122070312 569.4125061035156) rotate(0 38.79998779296875 -2)" stroke="none"><path fill="#000" d="M 0,-1.80 Q 0,-1.80 3.67,-2.04 7.35,-2.27 12.60,-2.28 17.84,-2.28 24.40,-2.51 30.96,-2.73 37.85,-3.29 44.75,-3.84 52.52,-4.51 60.29,-5.19 65.02,-5.39 69.74,-5.60 73.00,-5.09 76.26,-4.57 76.47,-4.53 76.68,-4.48 76.86,-4.38 77.04,-4.27 77.18,-4.11 77.32,-3.95 77.40,-3.75 77.48,-3.55 77.49,-3.34 77.51,-3.13 77.45,-2.92 77.39,-2.72 77.28,-2.54 77.16,-2.36 76.99,-2.23 76.82,-2.10 76.62,-2.04 76.42,-1.97 76.21,-1.96 76.00,-1.96 75.79,-2.03 75.59,-2.10 75.42,-2.22 75.25,-2.35 75.13,-2.53 75.01,-2.70 74.95,-2.90 74.89,-3.11 74.90,-3.32 74.91,-3.53 74.99,-3.73 75.07,-3.93 75.21,-4.09 75.34,-4.26 75.52,-4.37 75.70,-4.48 75.91,-4.52 76.12,-4.57 76.33,-4.55 76.54,-4.53 76.73,-4.44 76.93,-4.35 77.08,-4.21 77.24,-4.06 77.34,-3.88 77.44,-3.69 77.48,-3.48 77.51,-3.27 77.48,-3.06 77.45,-2.85 77.35,-2.66 77.25,-2.47 77.10,-2.33 76.94,-2.18 76.75,-2.09 76.56,-2.00 76.35,-1.97 76.14,-1.95 76.14,-1.95 76.14,-1.95 73.07,-1.73 69.99,-1.51 65.34,-1.13 60.69,-0.74 52.90,-0.02 45.11,0.69 38.12,1.25 31.12,1.81 24.48,2.05 17.84,2.28 12.60,2.28 7.35,2.27 3.67,2.04 0,1.80 -0.21,1.78 -0.43,1.75 -0.63,1.67 -0.84,1.60 -1.01,1.47 -1.19,1.35 -1.34,1.18 -1.48,1.02 -1.58,0.83 -1.69,0.64 -1.74,0.42 -1.79,0.21 -1.79,-0.00 -1.79,-0.21 -1.74,-0.42 -1.69,-0.64 -1.58,-0.83 -1.48,-1.02 -1.34,-1.19 -1.19,-1.35 -1.01,-1.47 -0.83,-1.60 -0.63,-1.67 -0.43,-1.75 -0.21,-1.78 0.00,-1.80 0.00,-1.80 L 0,-1.80 Z"></path></g><g transform="translate(717.2000122070312 591.8125305175781) rotate(0 7.20001220703125 7.199981689453125)" stroke="none"><path fill="#000" d="M 2.06,0 Q 2.06,0 2.13,3.68 2.20,7.36 1.97,10.61 1.73,13.86 1.40,16.42 1.06,18.99 0.91,20.68 0.76,22.38 0.63,22.89 0.49,23.39 0.44,23.63 0.39,23.87 0.29,24.09 0.19,24.31 0.03,24.50 -0.11,24.68 -0.30,24.83 -0.50,24.98 -0.72,25.07 -0.94,25.17 -1.18,25.21 -1.42,25.25 -1.67,25.23 -1.91,25.21 -2.14,25.13 -2.37,25.05 -2.57,24.93 -2.78,24.80 -2.95,24.62 -3.12,24.45 -3.24,24.24 -3.36,24.03 -3.43,23.79 -3.49,23.56 -3.50,23.32 -3.51,23.07 -3.03,19.69 -2.55,16.31 -2.47,13.01 -2.40,9.70 -2.46,5.30 -2.53,0.90 -2.86,-1.80 -3.20,-4.52 -3.20,-6.23 -3.20,-7.93 -2.08,-9.34 -0.96,-10.74 1.23,-11.33 3.42,-11.91 6.57,-11.62 9.73,-11.33 12.04,-10.11 14.35,-8.90 15.52,-6.85 16.70,-4.80 16.15,-2.68 15.59,-0.57 13.95,1.11 12.30,2.80 10.02,3.74 7.75,4.69 5.20,3.56 2.66,2.42 2.48,2.32 2.29,2.21 2.15,2.05 2.01,1.89 1.93,1.69 1.85,1.50 1.84,1.28 1.82,1.07 1.88,0.87 1.93,0.66 2.05,0.48 2.16,0.31 2.33,0.17 2.50,0.04 2.70,-0.02 2.90,-0.09 3.11,-0.09 3.33,-0.09 3.53,-0.03 3.73,0.03 3.90,0.15 4.07,0.28 4.19,0.45 4.31,0.63 4.37,0.83 4.43,1.04 4.43,1.25 4.42,1.46 4.34,1.66 4.26,1.86 4.13,2.02 3.99,2.19 3.81,2.30 3.63,2.41 3.43,2.46 3.22,2.51 3.01,2.49 2.80,2.47 2.60,2.38 2.41,2.29 2.25,2.15 2.10,2.00 1.99,1.82 1.89,1.63 1.85,1.42 1.82,1.21 1.85,1.00 1.88,0.79 1.98,0.60 2.07,0.41 2.23,0.27 2.38,0.12 2.57,0.03 2.76,-0.05 2.97,-0.08 3.18,-0.11 3.39,-0.06 3.60,-0.02 3.60,-0.02 3.60,-0.02 5.30,0.46 7.00,0.95 8.21,0.31 9.42,-0.33 10.56,-1.29 11.71,-2.26 11.89,-3.83 12.06,-5.40 10.60,-6.29 9.14,-7.17 6.66,-7.50 4.18,-7.83 2.23,-7.45 0.27,-7.06 0.45,-5.94 0.63,-4.81 0.72,-1.93 0.81,0.93 0.67,5.36 0.53,9.79 0.41,13.18 0.30,16.57 0.40,19.98 0.49,23.39 0.44,23.63 0.39,23.87 0.29,24.09 0.19,24.31 0.03,24.50 -0.11,24.68 -0.30,24.83 -0.50,24.98 -0.72,25.07 -0.94,25.17 -1.18,25.21 -1.42,25.25 -1.67,25.23 -1.91,25.21 -2.14,25.13 -2.37,25.05 -2.57,24.93 -2.78,24.80 -2.95,24.62 -3.12,24.45 -3.24,24.24 -3.36,24.03 -3.43,23.79 -3.49,23.56 -3.50,23.32 -3.51,23.07 -3.53,22.55 -3.55,22.03 -3.42,20.22 -3.29,18.41 -2.97,15.98 -2.65,13.54 -2.43,10.45 -2.20,7.35 -2.13,3.67 -2.06,0 -2.03,-0.24 -2.00,-0.49 -1.92,-0.72 -1.83,-0.96 -1.69,-1.16 -1.54,-1.37 -1.36,-1.53 -1.17,-1.70 -0.95,-1.81 -0.73,-1.93 -0.49,-1.99 -0.24,-2.05 0.00,-2.05 0.24,-2.05 0.49,-1.99 0.73,-1.93 0.95,-1.81 1.17,-1.70 1.36,-1.53 1.54,-1.37 1.69,-1.16 1.83,-0.96 1.92,-0.72 2.00,-0.49 2.03,-0.24 2.06,0.00 2.06,0.00 L 2.06,0 Z"></path></g><g transform="translate(802.7999877929688 534.2124938964844) rotate(0 8 29.599990844726562)" stroke="none"><path fill="#000" d="M 1.47,-1.05 Q 1.47,-1.05 2.81,0.42 4.15,1.90 5.89,5.25 7.63,8.60 10.71,17.70 13.79,26.81 15.09,32.09 16.38,37.37 16.94,40.83 17.50,44.30 17.03,47.90 16.56,51.51 15.27,54.34 13.99,57.17 11.48,59.05 8.97,60.93 8.79,61.05 8.62,61.17 8.41,61.22 8.21,61.28 7.99,61.27 7.78,61.25 7.59,61.17 7.39,61.10 7.23,60.96 7.07,60.82 6.96,60.64 6.85,60.45 6.80,60.25 6.76,60.04 6.78,59.83 6.81,59.62 6.90,59.42 6.99,59.23 7.13,59.08 7.28,58.92 7.47,58.82 7.66,58.73 7.87,58.69 8.08,58.66 8.29,58.69 8.50,58.73 8.68,58.83 8.87,58.93 9.02,59.09 9.16,59.24 9.25,59.43 9.34,59.63 9.36,59.84 9.38,60.05 9.34,60.26 9.29,60.46 9.18,60.65 9.07,60.83 8.91,60.96 8.74,61.10 8.54,61.18 8.35,61.26 8.13,61.27 7.92,61.28 7.72,61.22 7.51,61.16 7.34,61.04 7.16,60.92 7.04,60.75 6.91,60.58 6.84,60.38 6.77,60.18 6.77,59.97 6.78,59.75 6.84,59.55 6.91,59.35 7.04,59.18 7.17,59.02 7.17,59.02 7.17,59.02 8.63,57.16 10.10,55.31 11.04,53.07 11.99,50.82 12.44,47.90 12.89,44.98 12.36,41.73 11.84,38.49 10.59,33.39 9.34,28.30 6.43,19.49 3.51,10.69 1.98,7.61 0.44,4.53 -0.51,2.79 -1.47,1.05 -1.58,0.86 -1.68,0.67 -1.74,0.45 -1.79,0.24 -1.80,0.02 -1.80,-0.18 -1.75,-0.40 -1.70,-0.61 -1.60,-0.81 -1.50,-1.00 -1.36,-1.17 -1.22,-1.33 -1.04,-1.46 -0.86,-1.59 -0.66,-1.67 -0.46,-1.75 -0.24,-1.78 -0.02,-1.81 0.18,-1.79 0.40,-1.76 0.61,-1.69 0.81,-1.62 0.99,-1.49 1.18,-1.37 1.32,-1.21 1.47,-1.05 1.47,-1.05 L 1.47,-1.05 Z"></path></g><g transform="translate(838.7999877929688 550.2124938964844) rotate(0 6.4000244140625 0)" stroke="none"><path fill="#000" d="M 0,-2.25 Q 0,-2.25 2.53,-2.19 5.06,-2.13 8.23,-1.72 11.40,-1.31 11.61,-1.27 11.82,-1.24 12.00,-1.14 12.19,-1.04 12.34,-0.89 12.48,-0.73 12.57,-0.54 12.66,-0.35 12.69,-0.14 12.71,0.07 12.66,0.27 12.62,0.48 12.51,0.66 12.40,0.85 12.24,0.98 12.07,1.12 11.88,1.20 11.68,1.28 11.47,1.29 11.25,1.30 11.05,1.24 10.85,1.19 10.67,1.07 10.49,0.95 10.37,0.78 10.24,0.61 10.17,0.41 10.10,0.21 10.10,-0.00 10.10,-0.21 10.17,-0.41 10.24,-0.61 10.37,-0.78 10.49,-0.95 10.67,-1.07 10.85,-1.19 11.05,-1.24 11.26,-1.30 11.47,-1.29 11.68,-1.28 11.88,-1.20 12.07,-1.12 12.24,-0.98 12.40,-0.84 12.51,-0.66 12.62,-0.48 12.66,-0.27 12.71,-0.07 12.69,0.14 12.66,0.35 12.57,0.54 12.48,0.73 12.34,0.89 12.19,1.04 12.00,1.14 11.82,1.24 11.61,1.27 11.40,1.31 11.40,1.31 11.40,1.31 8.23,1.72 5.06,2.13 2.53,2.19 0,2.25 -0.27,2.22 -0.54,2.19 -0.79,2.09 -1.04,1.99 -1.27,1.84 -1.49,1.68 -1.67,1.48 -1.85,1.28 -1.98,1.04 -2.11,0.80 -2.17,0.53 -2.24,0.27 -2.24,-0.00 -2.24,-0.27 -2.17,-0.53 -2.11,-0.80 -1.98,-1.04 -1.85,-1.28 -1.67,-1.48 -1.49,-1.68 -1.27,-1.84 -1.04,-1.99 -0.79,-2.09 -0.53,-2.19 -0.26,-2.22 0.00,-2.25 0.00,-2.25 L 0,-2.25 Z"></path></g><g transform="translate(834.7999877929688 563.8125) rotate(0 10.800018310546875 2)" stroke="none"><path fill="#000" d="M 1.08,-1.73 Q 1.08,-1.73 2.91,-0.66 4.74,0.40 6.92,0.52 9.10,0.65 12.48,0.12 15.85,-0.39 17.44,-0.58 19.02,-0.77 19.23,-0.78 19.44,-0.79 19.65,-0.74 19.85,-0.68 20.03,-0.56 20.21,-0.44 20.34,-0.27 20.46,-0.10 20.53,0.09 20.60,0.29 20.60,0.50 20.60,0.71 20.53,0.92 20.47,1.12 20.34,1.29 20.21,1.46 20.03,1.58 19.86,1.69 19.65,1.75 19.45,1.81 19.24,1.80 19.03,1.79 18.83,1.71 18.63,1.63 18.47,1.49 18.31,1.36 18.20,1.17 18.09,0.99 18.04,0.78 17.99,0.58 18.02,0.37 18.04,0.15 18.13,-0.03 18.22,-0.22 18.36,-0.38 18.51,-0.53 18.70,-0.63 18.88,-0.73 19.09,-0.76 19.30,-0.80 19.51,-0.77 19.72,-0.73 19.91,-0.63 20.10,-0.53 20.24,-0.38 20.39,-0.23 20.48,-0.03 20.57,0.15 20.59,0.36 20.62,0.57 20.57,0.78 20.53,0.99 20.42,1.17 20.31,1.35 20.15,1.49 19.98,1.63 19.79,1.71 19.59,1.79 19.59,1.79 19.59,1.79 18.08,2.29 16.56,2.79 12.65,3.88 8.74,4.98 5.67,4.59 2.61,4.19 0.76,2.96 -1.08,1.73 -1.27,1.57 -1.46,1.42 -1.61,1.22 -1.76,1.03 -1.86,0.80 -1.96,0.57 -2.00,0.33 -2.04,0.09 -2.02,-0.15 -2.00,-0.39 -1.92,-0.63 -1.85,-0.86 -1.72,-1.07 -1.59,-1.28 -1.41,-1.45 -1.23,-1.62 -1.02,-1.75 -0.81,-1.87 -0.57,-1.94 -0.33,-2.01 -0.09,-2.02 0.15,-2.03 0.39,-1.99 0.63,-1.94 0.86,-1.83 1.08,-1.73 1.08,-1.73 L 1.08,-1.73 Z"></path></g><g transform="translate(878.7999877929688 538.2124938964844) rotate(0 0.4000244140625 19.600006103515625)" stroke="none"><path fill="#000" d="M 2.03,0 Q 2.03,0 2.27,4.6 2.52,9.2 2.53,14.14 2.53,19.08 2.65,23.66 2.78,28.23 2.41,32.71 2.05,37.19 2.02,37.41 1.99,37.62 1.90,37.81 1.80,38.00 1.65,38.15 1.50,38.30 1.31,38.39 1.12,38.49 0.91,38.52 0.70,38.55 0.49,38.51 0.29,38.47 0.10,38.37 -0.07,38.26 -0.22,38.11 -0.36,37.95 -0.44,37.75 -0.53,37.56 -0.55,37.35 -0.57,37.13 -0.52,36.93 -0.46,36.72 -0.35,36.54 -0.24,36.36 -0.07,36.23 0.08,36.10 0.28,36.02 0.48,35.95 0.69,35.94 0.91,35.93 1.11,36.00 1.31,36.06 1.49,36.18 1.66,36.30 1.78,36.48 1.91,36.65 1.97,36.85 2.03,37.05 2.03,37.27 2.02,37.48 1.95,37.68 1.88,37.88 1.75,38.04 1.61,38.21 1.44,38.33 1.26,38.44 1.05,38.49 0.85,38.54 0.63,38.53 0.42,38.51 0.23,38.43 0.03,38.35 -0.12,38.20 -0.28,38.06 -0.38,37.88 -0.49,37.69 -0.53,37.49 -0.57,37.28 -0.57,37.28 -0.57,37.28 -1.21,32.87 -1.86,28.46 -2.19,23.77 -2.53,19.09 -2.53,14.14 -2.52,9.2 -2.27,4.6 -2.03,0 -2.00,-0.24 -1.97,-0.48 -1.88,-0.71 -1.79,-0.94 -1.65,-1.14 -1.52,-1.34 -1.33,-1.50 -1.15,-1.67 -0.93,-1.78 -0.72,-1.89 -0.48,-1.95 -0.24,-2.01 0.00,-2.01 0.24,-2.01 0.48,-1.95 0.72,-1.89 0.93,-1.78 1.15,-1.67 1.33,-1.50 1.52,-1.34 1.65,-1.14 1.79,-0.94 1.88,-0.71 1.97,-0.48 2.00,-0.24 2.03,0.00 2.03,0.00 L 2.03,0 Z"></path></g><g transform="translate(561.2000122070312 647.0124816894531) rotate(0 14.399993896484375 23.60003662109375)" stroke="none"><path fill="#000" d="M 1.91,0.31 Q 1.91,0.31 1.50,3.08 1.10,5.85 0.95,8.99 0.81,12.13 0.54,16.29 0.27,20.44 0.15,26.29 0.03,32.13 -0.02,36.46 -0.08,40.80 -0.10,43.33 -0.13,45.87 -0.14,47.17 -0.15,48.48 -0.19,48.75 -0.22,49.01 -0.32,49.26 -0.42,49.51 -0.57,49.73 -0.73,49.95 -0.93,50.13 -1.13,50.31 -1.37,50.43 -1.61,50.55 -1.87,50.61 -2.13,50.67 -2.40,50.67 -2.67,50.67 -2.93,50.60 -3.19,50.54 -3.43,50.41 -3.66,50.28 -3.86,50.10 -4.06,49.92 -4.21,49.70 -4.36,49.48 -4.45,49.23 -4.55,48.97 -4.58,48.71 -4.61,48.44 -3.71,44.85 -2.81,41.27 -2.20,36.31 -1.58,31.36 -1.39,22.13 -1.21,12.89 -1.12,8.52 -1.04,4.15 1.54,1.38 4.13,-1.37 7.83,-2.30 11.54,-3.24 15.58,-2.85 19.62,-2.47 23.47,-0.04 27.32,2.38 28.84,5.57 30.36,8.75 29.04,12.25 27.73,15.74 24.67,18.69 21.62,21.63 18.50,23.99 15.37,26.35 12.94,28.06 10.51,29.77 13.98,30.38 17.45,31.00 21.74,31.26 26.03,31.52 26.24,31.55 26.45,31.58 26.64,31.68 26.83,31.77 26.98,31.92 27.13,32.07 27.22,32.27 27.31,32.46 27.34,32.67 27.37,32.88 27.32,33.09 27.28,33.29 27.18,33.48 27.07,33.66 26.91,33.80 26.75,33.94 26.56,34.03 26.36,34.11 26.15,34.12 25.94,34.14 25.73,34.09 25.52,34.03 25.35,33.92 25.17,33.80 25.04,33.63 24.91,33.47 24.83,33.27 24.76,33.07 24.76,32.86 24.75,32.64 24.82,32.44 24.88,32.24 25.01,32.07 25.13,31.89 25.31,31.77 25.48,31.65 25.68,31.59 25.89,31.53 26.10,31.54 26.31,31.54 26.51,31.62 26.71,31.69 26.87,31.83 27.04,31.96 27.15,32.14 27.26,32.32 27.31,32.53 27.36,32.74 27.34,32.95 27.33,33.16 27.24,33.35 27.15,33.55 27.01,33.71 26.87,33.86 26.68,33.96 26.50,34.07 26.29,34.11 26.08,34.14 26.08,34.14 26.08,34.14 21.56,34.57 17.05,35.00 12.48,34.42 7.92,33.84 6.89,32.43 5.85,31.02 6.89,28.58 7.92,26.13 10.39,24.54 12.85,22.94 15.84,20.77 18.83,18.60 21.50,16.30 24.17,13.99 25.49,11.63 26.82,9.27 25.90,7.34 24.98,5.41 22.00,3.37 19.03,1.33 15.67,0.95 12.31,0.57 9.43,1.08 6.55,1.58 4.45,3.29 2.36,5.00 2.26,8.99 2.15,12.97 1.89,22.33 1.64,31.69 1.21,36.92 0.77,42.15 0.31,45.32 -0.15,48.48 -0.19,48.75 -0.22,49.01 -0.32,49.26 -0.42,49.51 -0.57,49.73 -0.73,49.95 -0.93,50.13 -1.13,50.31 -1.37,50.43 -1.61,50.55 -1.87,50.61 -2.13,50.67 -2.40,50.67 -2.67,50.67 -2.93,50.60 -3.19,50.54 -3.43,50.41 -3.66,50.28 -3.86,50.10 -4.06,49.92 -4.21,49.70 -4.36,49.48 -4.45,49.23 -4.55,48.97 -4.58,48.71 -4.61,48.44 -4.60,47.13 -4.59,45.82 -4.57,43.28 -4.55,40.74 -4.49,36.38 -4.44,32.02 -4.29,26.07 -4.14,20.11 -3.78,15.99 -3.43,11.87 -3.18,8.53 -2.94,5.18 -2.42,2.43 -1.91,-0.31 -1.85,-0.54 -1.78,-0.76 -1.66,-0.97 -1.54,-1.17 -1.38,-1.34 -1.22,-1.51 -1.02,-1.63 -0.82,-1.76 -0.60,-1.83 -0.38,-1.90 -0.14,-1.92 0.08,-1.94 0.31,-1.90 0.54,-1.86 0.76,-1.77 0.97,-1.68 1.16,-1.53 1.35,-1.39 1.50,-1.21 1.64,-1.03 1.74,-0.82 1.84,-0.60 1.89,-0.37 1.93,-0.14 1.92,0.08 1.91,0.31 1.91,0.31 L 1.91,0.31 Z"></path></g><g transform="translate(602.7999877929688 674.2124938964844) rotate(0 24.800018310546875 2.000030517578125)" stroke="none"><path fill="#000" d="M -1.96,-0.84 Q -1.96,-0.84 -1.18,-2.31 -0.40,-3.79 -0.70,-1.54 -1.01,0.70 -0.78,2.23 -0.56,3.75 0.43,4.80 1.42,5.85 2.94,6.46 4.46,7.07 6.26,7.16 8.06,7.24 9.73,6.70 11.39,6.17 12.82,4.56 14.24,2.94 15.17,1.76 16.11,0.58 16.53,-0.18 16.96,-0.94 17.13,-1.12 17.31,-1.29 17.52,-1.42 17.73,-1.55 17.97,-1.62 18.21,-1.69 18.46,-1.71 18.70,-1.72 18.95,-1.67 19.19,-1.63 19.42,-1.52 19.64,-1.42 19.84,-1.27 20.03,-1.11 20.18,-0.92 20.34,-0.72 20.44,-0.49 20.54,-0.27 20.58,-0.02 20.62,0.21 20.61,0.46 20.59,0.71 20.52,0.94 20.44,1.18 20.31,1.39 20.18,1.60 21.29,3.47 22.41,5.33 23.18,3.96 23.95,2.59 24.83,1.27 25.72,-0.04 27.29,-1.14 28.85,-2.23 30.44,-1.98 32.02,-1.73 33.53,-0.46 35.04,0.81 36.07,2.05 37.10,3.30 38.73,1.74 40.35,0.19 41.71,-0.72 43.06,-1.64 45.12,-1.86 47.18,-2.07 49.89,-1.35 52.60,-0.63 52.80,-0.57 53.01,-0.51 53.18,-0.39 53.36,-0.27 53.48,-0.10 53.61,0.06 53.68,0.26 53.75,0.46 53.74,0.67 53.74,0.88 53.67,1.08 53.61,1.29 53.48,1.45 53.35,1.62 53.17,1.74 52.99,1.86 52.79,1.92 52.58,1.97 52.37,1.96 52.16,1.95 51.96,1.87 51.77,1.79 51.60,1.65 51.44,1.51 51.33,1.33 51.23,1.15 51.18,0.94 51.14,0.73 51.16,0.52 51.18,0.31 51.27,0.12 51.36,-0.07 51.51,-0.22 51.66,-0.37 51.85,-0.47 52.03,-0.57 52.24,-0.60 52.45,-0.64 52.66,-0.60 52.87,-0.57 53.06,-0.47 53.25,-0.37 53.39,-0.21 53.54,-0.06 53.63,0.13 53.72,0.32 53.74,0.53 53.76,0.74 53.71,0.95 53.67,1.16 53.56,1.34 53.45,1.52 53.28,1.66 53.12,1.79 52.92,1.87 52.72,1.95 52.51,1.96 52.30,1.97 52.30,1.97 52.30,1.97 49.81,2.10 47.32,2.23 45.49,2.55 43.66,2.86 42.94,3.77 42.22,4.69 40.97,6.26 39.72,7.84 37.83,7.87 35.94,7.90 34.82,7.01 33.70,6.11 32.85,5.06 32.00,4.02 30.64,3.18 29.28,2.34 28.42,3.66 27.56,4.97 26.52,6.57 25.47,8.18 24.67,8.97 23.86,9.77 21.79,9.36 19.72,8.96 18.92,7.77 18.12,6.59 17.53,4.31 16.94,2.03 16.95,0.54 16.96,-0.94 17.13,-1.12 17.31,-1.29 17.52,-1.42 17.73,-1.55 17.97,-1.62 18.21,-1.69 18.46,-1.71 18.70,-1.72 18.95,-1.67 19.19,-1.63 19.42,-1.52 19.64,-1.42 19.84,-1.27 20.03,-1.11 20.18,-0.92 20.34,-0.72 20.44,-0.49 20.54,-0.27 20.58,-0.02 20.62,0.21 20.61,0.46 20.59,0.71 20.52,0.94 20.44,1.18 20.31,1.39 20.18,1.60 19.76,2.37 19.34,3.13 18.27,4.46 17.21,5.79 15.03,7.93 12.84,10.07 10.35,10.79 7.86,11.51 5.28,11.29 2.70,11.07 0.41,9.89 -1.87,8.71 -3.34,6.62 -4.81,4.54 -4.98,1.93 -5.15,-0.66 -4.33,-2.61 -3.51,-4.55 -2.12,-5.76 -0.73,-6.98 0.76,-6.63 2.27,-6.28 2.71,-4.46 3.16,-2.64 2.56,-0.90 1.96,0.84 1.83,1.06 1.70,1.28 1.52,1.47 1.34,1.65 1.12,1.79 0.91,1.93 0.66,2.01 0.42,2.09 0.16,2.11 -0.09,2.13 -0.34,2.09 -0.59,2.05 -0.83,1.94 -1.07,1.84 -1.27,1.69 -1.48,1.53 -1.64,1.33 -1.80,1.13 -1.91,0.90 -2.02,0.67 -2.07,0.41 -2.13,0.16 -2.11,-0.09 -2.10,-0.34 -2.03,-0.59 -1.96,-0.84 -1.96,-0.84 L -1.96,-0.84 Z"></path></g><g transform="translate(713.2000122070312 635.8125305175781) rotate(0 6.79998779296875 44.399993896484375)" stroke="none"><path fill="#000" d="M 2.00,0.34 Q 2.00,0.34 1.16,5.65 0.33,10.95 0.01,18.36 -0.31,25.77 0.01,34.16 0.34,42.55 2.06,52.21 3.78,61.86 5.61,68.21 7.43,74.56 9.39,78.24 11.35,81.92 13.79,83.97 16.23,86.02 16.39,86.16 16.54,86.31 16.64,86.50 16.74,86.69 16.77,86.90 16.80,87.11 16.77,87.32 16.73,87.53 16.63,87.71 16.53,87.90 16.38,88.04 16.22,88.19 16.03,88.28 15.83,88.37 15.62,88.39 15.41,88.41 15.20,88.36 15.00,88.31 14.81,88.20 14.63,88.09 14.50,87.93 14.36,87.77 14.28,87.57 14.21,87.37 14.20,87.16 14.19,86.95 14.24,86.74 14.30,86.54 14.42,86.36 14.54,86.19 14.71,86.06 14.88,85.93 15.08,85.87 15.29,85.80 15.50,85.80 15.71,85.80 15.91,85.87 16.11,85.94 16.28,86.07 16.45,86.20 16.57,86.38 16.69,86.55 16.74,86.76 16.80,86.96 16.78,87.18 16.77,87.39 16.69,87.59 16.61,87.78 16.47,87.94 16.33,88.10 16.15,88.21 15.97,88.32 15.76,88.37 15.55,88.41 15.34,88.39 15.13,88.36 14.94,88.27 14.75,88.18 14.75,88.18 14.75,88.18 11.27,86.16 7.79,84.13 5.38,80.01 2.98,75.89 1.03,69.29 -0.91,62.70 -2.66,52.71 -4.41,42.72 -4.67,34.13 -4.92,25.53 -4.47,17.87 -4.01,10.20 -3.00,4.92 -2.00,-0.34 -1.93,-0.58 -1.85,-0.81 -1.73,-1.02 -1.61,-1.23 -1.43,-1.41 -1.26,-1.58 -1.05,-1.71 -0.85,-1.84 -0.61,-1.91 -0.38,-1.99 -0.13,-2.01 0.10,-2.02 0.34,-1.98 0.58,-1.94 0.81,-1.84 1.03,-1.74 1.22,-1.59 1.42,-1.44 1.57,-1.25 1.72,-1.06 1.83,-0.84 1.93,-0.62 1.97,-0.38 2.02,-0.14 2.01,0.10 2.00,0.34 2.00,0.34 L 2.00,0.34 Z"></path></g><g transform="translate(750.7999877929688 655.8125305175781) rotate(0 5.60003662109375 8.399993896484375)" stroke="none"><path fill="#000" d="M 1.12,1.60 Q 1.12,1.60 -1.13,3.24 -3.39,4.89 -4.60,6.53 -5.81,8.17 -6.50,9.88 -7.20,11.59 -6.71,12.61 -6.23,13.63 -5.03,13.26 -3.84,12.89 -2.28,11.78 -0.71,10.66 0.92,9.26 2.57,7.86 3.96,6.57 5.34,5.28 6.03,4.47 6.73,3.65 6.91,3.47 7.09,3.29 7.30,3.15 7.52,3.02 7.77,2.94 8.01,2.86 8.27,2.84 8.52,2.82 8.78,2.87 9.03,2.91 9.26,3.01 9.50,3.12 9.70,3.27 9.91,3.43 10.07,3.63 10.23,3.83 10.33,4.06 10.44,4.30 10.49,4.55 10.54,4.80 10.53,5.06 10.51,5.31 10.44,5.56 10.37,5.81 10.23,6.03 10.10,6.25 10.15,7.69 10.20,9.13 11.12,10.25 12.04,11.38 13.53,12.03 15.01,12.67 16.45,13.13 17.90,13.58 19.47,14.08 21.04,14.59 21.24,14.65 21.44,14.72 21.61,14.84 21.79,14.97 21.91,15.14 22.03,15.31 22.09,15.52 22.15,15.72 22.14,15.93 22.14,16.15 22.06,16.34 21.99,16.54 21.85,16.71 21.72,16.87 21.54,16.98 21.36,17.10 21.15,17.15 20.94,17.20 20.73,17.18 20.52,17.16 20.33,17.07 20.13,16.99 19.98,16.84 19.82,16.70 19.72,16.52 19.61,16.33 19.57,16.12 19.54,15.91 19.57,15.70 19.60,15.49 19.69,15.30 19.79,15.11 19.94,14.96 20.09,14.81 20.28,14.72 20.47,14.63 20.69,14.60 20.90,14.57 21.10,14.62 21.31,14.66 21.50,14.76 21.68,14.87 21.82,15.03 21.96,15.19 22.04,15.39 22.13,15.58 22.14,15.79 22.16,16.00 22.10,16.21 22.05,16.42 21.94,16.59 21.82,16.77 21.65,16.90 21.49,17.04 21.29,17.11 21.09,17.18 20.87,17.18 20.66,17.19 20.66,17.19 20.66,17.19 18.85,17.20 17.04,17.22 15.06,16.86 13.08,16.50 10.85,15.24 8.61,13.99 7.28,11.72 5.94,9.44 5.98,7.92 6.02,6.40 6.37,5.03 6.73,3.65 6.91,3.47 7.09,3.29 7.30,3.15 7.52,3.02 7.77,2.94 8.01,2.86 8.27,2.84 8.52,2.82 8.78,2.87 9.03,2.91 9.26,3.01 9.50,3.12 9.70,3.27 9.91,3.43 10.07,3.63 10.23,3.83 10.33,4.06 10.44,4.30 10.49,4.55 10.54,4.80 10.53,5.06 10.51,5.31 10.44,5.56 10.37,5.81 10.23,6.03 10.10,6.25 9.74,6.36 9.38,6.47 8.71,7.33 8.03,8.19 6.57,9.52 5.11,10.86 3.30,12.40 1.49,13.93 -0.74,15.39 -2.98,16.85 -5.33,17.12 -7.67,17.39 -9.47,16.14 -11.26,14.89 -11.18,12.39 -11.11,9.90 -10.12,7.75 -9.13,5.60 -7.47,3.57 -5.80,1.54 -3.46,-0.02 -1.12,-1.60 -0.91,-1.71 -0.70,-1.82 -0.47,-1.88 -0.24,-1.94 -0.01,-1.94 0.22,-1.94 0.45,-1.89 0.68,-1.83 0.89,-1.72 1.10,-1.61 1.27,-1.46 1.45,-1.30 1.59,-1.11 1.72,-0.92 1.81,-0.70 1.89,-0.48 1.92,-0.24 1.95,-0.01 1.93,0.22 1.90,0.45 1.82,0.67 1.73,0.89 1.60,1.09 1.47,1.28 1.29,1.44 1.12,1.60 1.12,1.60 L 1.12,1.60 Z"></path></g><g transform="translate(780.4000244140625 637.4125061035156) rotate(0 4.39996337890625 12)" stroke="none"><path fill="#000" d="M 2.15,0.10 Q 2.15,0.10 1.97,4.70 1.78,9.31 1.91,13.24 2.05,17.17 2.33,19.96 2.61,22.74 2.96,24.19 3.31,25.63 3.31,25.90 3.30,26.18 3.23,26.44 3.16,26.70 3.03,26.94 2.90,27.17 2.71,27.37 2.53,27.57 2.30,27.72 2.08,27.87 1.82,27.96 1.57,28.05 1.30,28.08 1.03,28.10 0.76,28.07 0.49,28.03 0.24,27.93 -0.00,27.83 -0.22,27.67 -0.44,27.51 -0.62,27.30 -0.79,27.09 -0.91,26.85 -1.03,26.61 -1.09,26.35 -1.15,26.08 -0.98,24.99 -0.82,23.90 -0.76,21.46 -0.70,19.02 -0.65,15.40 -0.60,11.77 -0.57,8.38 -0.55,5.00 -0.51,2.77 -0.47,0.54 0.74,-1.42 1.97,-3.38 3.89,-4.05 5.81,-4.71 7.74,-4.00 9.68,-3.29 10.64,-1.60 11.60,0.07 11.18,2.77 10.77,5.48 9.21,7.48 7.65,9.49 5.09,10.91 2.53,12.33 2.34,12.43 2.15,12.53 1.94,12.56 1.73,12.60 1.52,12.56 1.31,12.53 1.12,12.43 0.94,12.33 0.79,12.17 0.64,12.02 0.56,11.83 0.47,11.63 0.44,11.42 0.42,11.21 0.47,11.00 0.51,10.80 0.62,10.61 0.73,10.43 0.89,10.29 1.06,10.16 1.25,10.08 1.45,10.00 1.66,9.99 1.88,9.98 2.08,10.04 2.29,10.09 2.46,10.21 2.64,10.33 2.77,10.50 2.89,10.67 2.96,10.87 3.03,11.07 3.03,11.29 3.03,11.50 2.96,11.70 2.89,11.90 2.76,12.07 2.63,12.24 2.46,12.36 2.28,12.48 2.08,12.53 1.87,12.59 1.66,12.58 1.45,12.57 1.25,12.49 1.05,12.41 0.89,12.27 0.73,12.13 0.62,11.95 0.51,11.77 0.47,11.56 0.42,11.35 0.44,11.14 0.47,10.93 0.56,10.74 0.65,10.55 0.79,10.39 0.94,10.24 0.94,10.24 0.94,10.24 2.63,8.43 4.32,6.63 5.46,5.47 6.60,4.31 7.11,2.81 7.62,1.32 6.96,0.33 6.30,-0.64 4.98,0.15 3.66,0.95 3.69,2.98 3.71,5.01 3.72,8.41 3.72,11.80 3.72,15.46 3.71,19.13 3.51,22.38 3.31,25.63 3.31,25.90 3.30,26.18 3.23,26.44 3.16,26.70 3.03,26.94 2.90,27.17 2.71,27.37 2.53,27.57 2.30,27.72 2.08,27.87 1.82,27.96 1.57,28.05 1.30,28.08 1.03,28.10 0.76,28.07 0.49,28.03 0.24,27.93 -0.00,27.83 -0.22,27.67 -0.44,27.51 -0.62,27.30 -0.79,27.10 -0.91,26.85 -1.03,26.61 -1.09,26.35 -1.15,26.08 -1.50,24.64 -1.86,23.19 -2.15,20.26 -2.44,17.32 -2.57,13.20 -2.70,9.08 -2.43,4.49 -2.15,-0.10 -2.11,-0.36 -2.06,-0.62 -1.96,-0.85 -1.85,-1.09 -1.69,-1.30 -1.54,-1.50 -1.33,-1.67 -1.13,-1.83 -0.89,-1.94 -0.66,-2.05 -0.40,-2.10 -0.15,-2.15 0.10,-2.13 0.36,-2.12 0.61,-2.05 0.86,-1.97 1.08,-1.84 1.31,-1.71 1.49,-1.52 1.68,-1.34 1.82,-1.12 1.95,-0.90 2.03,-0.65 2.11,-0.41 2.13,-0.15 2.15,0.10 2.15,0.10 L 2.15,0.10 Z"></path></g><g transform="translate(822 639.0124816894531) rotate(0 -34 40.800018310546875)" stroke="none"><path fill="#000" d="M 1.39,1.59 Q 1.39,1.59 -0.40,3.24 -2.20,4.89 -4.90,8.42 -7.60,11.95 -11.06,16.53 -14.53,21.11 -18.99,26.77 -23.46,32.42 -28.85,38.34 -34.24,44.25 -39.76,49.78 -45.29,55.30 -50.31,61.23 -55.33,67.16 -58.11,71.21 -60.90,75.27 -62.35,77.49 -63.81,79.71 -64.01,79.93 -64.21,80.16 -64.45,80.33 -64.70,80.50 -64.98,80.61 -65.26,80.71 -65.56,80.75 -65.85,80.79 -66.15,80.75 -66.45,80.72 -66.73,80.61 -67.01,80.51 -67.26,80.34 -67.51,80.17 -67.70,79.94 -67.90,79.72 -68.04,79.45 -68.18,79.19 -68.26,78.90 -68.33,78.61 -68.33,78.31 -68.33,78.01 -68.26,77.72 -68.19,77.42 -68.05,77.16 -67.91,76.89 -66.58,74.15 -65.25,71.41 -63.18,68.44 -61.11,65.47 -60.98,65.31 -60.84,65.14 -60.66,65.03 -60.48,64.92 -60.27,64.87 -60.07,64.82 -59.85,64.84 -59.64,64.86 -59.45,64.95 -59.25,65.04 -59.10,65.18 -58.94,65.33 -58.84,65.51 -58.74,65.70 -58.70,65.91 -58.67,66.12 -58.70,66.33 -58.73,66.54 -58.83,66.73 -58.93,66.92 -59.08,67.06 -59.23,67.21 -59.42,67.30 -59.61,67.39 -59.83,67.42 -60.04,67.45 -60.24,67.40 -60.45,67.36 -60.64,67.25 -60.82,67.14 -60.96,66.98 -61.10,66.82 -61.18,66.63 -61.26,66.43 -61.27,66.22 -61.29,66.01 -61.23,65.80 -61.18,65.59 -61.06,65.42 -60.94,65.24 -60.78,65.11 -60.61,64.98 -60.41,64.91 -60.21,64.84 -59.99,64.84 -59.78,64.83 -59.58,64.90 -59.38,64.97 -59.21,65.09 -59.04,65.22 -58.91,65.39 -58.79,65.57 -58.73,65.77 -58.68,65.98 -58.68,66.19 -58.69,66.40 -58.77,66.60 -58.85,66.80 -58.85,66.80 -58.85,66.80 -60.34,69.90 -61.82,73.00 -62.82,76.35 -63.81,79.71 -64.01,79.93 -64.21,80.16 -64.45,80.33 -64.70,80.50 -64.98,80.61 -65.26,80.71 -65.56,80.75 -65.85,80.79 -66.15,80.75 -66.45,80.72 -66.73,80.61 -67.01,80.51 -67.26,80.34 -67.51,80.17 -67.70,79.94 -67.90,79.72 -68.04,79.45 -68.18,79.19 -68.26,78.90 -68.33,78.61 -68.33,78.31 -68.33,78.01 -68.26,77.72 -68.19,77.42 -68.05,77.16 -67.91,76.89 -66.48,74.66 -65.05,72.42 -62.12,68.15 -59.19,63.88 -54.02,57.80 -48.85,51.72 -43.38,46.30 -37.92,40.88 -32.60,35.13 -27.28,29.37 -22.78,23.79 -18.28,18.22 -14.72,13.70 -11.16,9.18 -8.15,5.36 -5.15,1.54 -3.27,-0.02 -1.39,-1.59 -1.18,-1.74 -0.97,-1.88 -0.73,-1.97 -0.49,-2.06 -0.24,-2.09 0.01,-2.12 0.26,-2.09 0.52,-2.05 0.75,-1.96 0.99,-1.87 1.20,-1.72 1.41,-1.58 1.58,-1.38 1.75,-1.19 1.87,-0.96 1.98,-0.74 2.04,-0.49 2.10,-0.24 2.10,0.01 2.10,0.26 2.04,0.51 1.98,0.76 1.86,0.99 1.73,1.21 1.56,1.40 1.39,1.59 1.39,1.59 L 1.39,1.59 Z"></path></g><g transform="translate(822.7999877929688 670.2124938964844) rotate(0 1.20001220703125 12)" stroke="none"><path fill="#000" d="M 1.40,0 Q 1.40,0 1.79,2.76 2.18,5.52 2.19,8.53 2.19,11.54 2.41,13.87 2.64,16.20 2.74,18.19 2.84,20.19 2.86,21.07 2.88,21.95 3.04,22.09 3.20,22.23 3.31,22.42 3.41,22.60 3.45,22.81 3.49,23.02 3.46,23.23 3.43,23.44 3.34,23.63 3.25,23.82 3.09,23.97 2.94,24.12 2.75,24.22 2.56,24.31 2.35,24.34 2.14,24.37 1.93,24.33 1.73,24.29 1.54,24.18 1.36,24.08 1.21,23.92 1.07,23.76 0.99,23.57 0.90,23.37 0.89,23.16 0.87,22.95 0.92,22.74 0.97,22.54 1.09,22.36 1.20,22.18 1.37,22.05 1.53,21.91 1.73,21.84 1.93,21.77 2.14,21.76 2.35,21.76 2.56,21.82 2.76,21.88 2.93,22.00 3.11,22.13 3.23,22.30 3.35,22.47 3.42,22.68 3.48,22.88 3.47,23.09 3.47,23.30 3.39,23.50 3.32,23.70 3.19,23.87 3.06,24.03 2.88,24.15 2.70,24.26 2.49,24.31 2.28,24.37 2.07,24.35 1.86,24.33 1.67,24.25 1.47,24.16 1.47,24.16 1.47,24.16 -0.02,22.29 -1.53,20.43 -1.62,18.52 -1.72,16.61 -1.95,14.08 -2.19,11.54 -2.19,8.53 -2.18,5.52 -1.79,2.76 -1.40,0 -1.38,-0.16 -1.36,-0.33 -1.30,-0.49 -1.24,-0.65 -1.14,-0.79 -1.05,-0.93 -0.92,-1.04 -0.79,-1.15 -0.64,-1.23 -0.49,-1.31 -0.33,-1.35 -0.16,-1.39 0.00,-1.39 0.16,-1.39 0.33,-1.35 0.49,-1.31 0.64,-1.23 0.79,-1.15 0.92,-1.04 1.05,-0.93 1.14,-0.79 1.24,-0.65 1.30,-0.49 1.36,-0.33 1.38,-0.16 1.40,0.00 1.40,0.00 L 1.40,0 Z"></path></g><g transform="translate(823.6000366210938 661.4125061035156) rotate(0 5.999969482421875 10)" stroke="none"><path fill="#000" d="M 0,-2.00 Q 0,-2.00 2.55,-2.01 5.11,-2.02 7.71,-1.05 10.31,-0.07 11.75,0.95 13.18,1.97 14.23,4.14 15.28,6.31 15.16,8.97 15.05,11.63 13.18,14.18 11.31,16.72 9.02,18.47 6.72,20.22 2.20,20.04 -2.30,19.86 -2.48,19.75 -2.66,19.63 -2.79,19.47 -2.93,19.30 -3.00,19.11 -3.08,18.91 -3.08,18.69 -3.09,18.48 -3.03,18.28 -2.97,18.07 -2.85,17.90 -2.72,17.73 -2.55,17.60 -2.38,17.48 -2.18,17.41 -1.97,17.35 -1.76,17.36 -1.55,17.36 -1.35,17.43 -1.15,17.50 -0.98,17.64 -0.82,17.77 -0.70,17.95 -0.59,18.13 -0.53,18.33 -0.48,18.54 -0.50,18.75 -0.51,18.96 -0.60,19.16 -0.68,19.35 -0.82,19.51 -0.96,19.67 -1.14,19.78 -1.33,19.88 -1.54,19.92 -1.75,19.96 -1.96,19.94 -2.17,19.91 -2.36,19.82 -2.55,19.72 -2.70,19.57 -2.85,19.42 -2.95,19.23 -3.04,19.04 -3.07,18.83 -3.10,18.62 -3.06,18.41 -3.02,18.21 -2.92,18.02 -2.82,17.83 -2.66,17.69 -2.50,17.55 -2.31,17.46 -2.11,17.38 -1.90,17.36 -1.69,17.34 -1.48,17.39 -1.28,17.44 -1.28,17.44 -1.28,17.44 1.48,17.10 4.25,16.76 6.14,15.38 8.03,14.00 9.51,12.45 10.99,10.89 11.17,9.31 11.35,7.73 10.94,6.42 10.53,5.10 9.61,4.43 8.70,3.75 6.85,2.89 5.00,2.02 2.50,2.01 0,2.00 -0.23,1.97 -0.47,1.94 -0.70,1.85 -0.93,1.77 -1.12,1.63 -1.32,1.49 -1.48,1.31 -1.64,1.13 -1.76,0.92 -1.87,0.71 -1.93,0.47 -1.98,0.24 -1.98,-0.00 -1.98,-0.24 -1.93,-0.47 -1.87,-0.71 -1.76,-0.92 -1.64,-1.13 -1.48,-1.31 -1.32,-1.49 -1.12,-1.63 -0.93,-1.77 -0.70,-1.85 -0.47,-1.94 -0.23,-1.97 0.00,-2.00 0.00,-2.00 L 0,-2.00 Z"></path></g><g transform="translate(842 621.4125061035156) rotate(0 15.20001220703125 40)" stroke="none"><path fill="#000" d="M 1.70,-1.20 Q 1.70,-1.20 4.55,2.64 7.39,6.49 10.91,11.34 14.43,16.18 17.82,21.78 21.21,27.37 24.58,37.31 27.95,47.26 29.38,54.06 30.80,60.86 30.95,65.51 31.10,70.16 30.91,72.68 30.72,75.19 27.64,75.31 24.55,75.43 24.52,75.22 24.49,75.01 24.52,74.80 24.56,74.59 24.66,74.40 24.76,74.21 24.92,74.07 25.07,73.92 25.26,73.84 25.46,73.75 25.67,73.73 25.88,73.71 26.09,73.75 26.30,73.80 26.48,73.91 26.66,74.02 26.79,74.19 26.93,74.35 27.01,74.55 27.08,74.75 27.09,74.96 27.10,75.17 27.05,75.37 26.99,75.58 26.87,75.75 26.75,75.93 26.58,76.06 26.41,76.18 26.20,76.25 26.00,76.32 25.79,76.31 25.58,76.31 25.38,76.24 25.17,76.17 25.01,76.04 24.84,75.91 24.72,75.74 24.60,75.56 24.55,75.35 24.49,75.15 24.51,74.94 24.52,74.72 24.60,74.53 24.68,74.33 24.82,74.17 24.96,74.01 25.14,73.90 25.32,73.79 25.53,73.75 25.74,73.71 25.95,73.73 26.16,73.75 26.35,73.85 26.55,73.94 26.70,74.08 26.85,74.23 26.95,74.42 27.05,74.61 27.05,74.61 27.05,74.61 26.42,74.63 25.79,74.66 25.95,72.48 26.11,70.30 26.01,66.08 25.91,61.86 24.57,55.34 23.23,48.83 20.10,39.36 16.97,29.89 13.73,24.43 10.50,18.98 7.07,14.06 3.64,9.14 0.96,5.17 -1.70,1.20 -1.82,0.98 -1.94,0.76 -2.01,0.51 -2.07,0.27 -2.07,0.02 -2.07,-0.23 -2.02,-0.47 -1.96,-0.72 -1.84,-0.94 -1.73,-1.17 -1.56,-1.36 -1.40,-1.55 -1.19,-1.69 -0.99,-1.84 -0.75,-1.93 -0.52,-2.02 -0.27,-2.05 -0.02,-2.09 0.22,-2.06 0.47,-2.03 0.71,-1.94 0.95,-1.86 1.16,-1.72 1.37,-1.58 1.54,-1.39 1.70,-1.20 1.70,-1.20 L 1.70,-1.20 Z"></path></g><g transform="translate(886 651.8125305175781) rotate(0 10 1.199981689453125)" stroke="none"><path fill="#000" d="M 0.13,-2.22 Q 0.13,-2.22 4.04,-1.99 7.95,-1.76 11.25,-1.24 14.55,-0.73 16.91,0.07 19.27,0.88 19.47,0.96 19.66,1.04 19.82,1.18 19.98,1.32 20.09,1.50 20.20,1.69 20.24,1.89 20.29,2.10 20.26,2.31 20.24,2.52 20.15,2.72 20.06,2.91 19.91,3.06 19.76,3.21 19.58,3.31 19.39,3.41 19.18,3.44 18.97,3.48 18.76,3.44 18.55,3.40 18.36,3.30 18.17,3.20 18.03,3.05 17.88,2.89 17.80,2.70 17.71,2.50 17.69,2.29 17.67,2.08 17.71,1.87 17.76,1.67 17.87,1.49 17.98,1.31 18.15,1.17 18.31,1.03 18.51,0.96 18.70,0.88 18.92,0.87 19.13,0.86 19.33,0.92 19.54,0.98 19.71,1.10 19.89,1.22 20.01,1.39 20.14,1.56 20.21,1.76 20.27,1.96 20.27,2.17 20.27,2.39 20.20,2.59 20.13,2.79 20.00,2.96 19.87,3.12 19.70,3.24 19.52,3.36 19.31,3.41 19.11,3.47 18.90,3.46 18.68,3.44 18.68,3.44 18.69,3.44 16.43,3.20 14.17,2.96 10.93,2.82 7.68,2.68 3.77,2.45 -0.13,2.22 -0.39,2.17 -0.65,2.12 -0.90,2.01 -1.14,1.90 -1.36,1.74 -1.57,1.57 -1.73,1.36 -1.90,1.15 -2.01,0.91 -2.12,0.66 -2.17,0.40 -2.22,0.13 -2.20,-0.12 -2.19,-0.39 -2.11,-0.65 -2.03,-0.91 -1.89,-1.14 -1.75,-1.37 -1.56,-1.56 -1.37,-1.75 -1.14,-1.89 -0.91,-2.02 -0.66,-2.10 -0.40,-2.19 -0.13,-2.20 0.13,-2.22 0.13,-2.22 L 0.13,-2.22 Z"></path></g><g transform="translate(884.4000244140625 667.0124816894531) rotate(0 11.199981689453125 -2.399993896484375)" stroke="none"><path fill="#000" d="M -0.18,-2.08 Q -0.18,-2.08 2.33,-2.40 4.85,-2.72 7.91,-3.17 10.98,-3.63 15.51,-4.55 20.03,-5.47 20.24,-5.50 20.45,-5.52 20.66,-5.48 20.87,-5.44 21.05,-5.33 21.24,-5.22 21.38,-5.06 21.52,-4.90 21.60,-4.71 21.68,-4.51 21.69,-4.30 21.71,-4.09 21.65,-3.88 21.60,-3.68 21.48,-3.50 21.36,-3.32 21.20,-3.19 21.03,-3.06 20.83,-2.99 20.63,-2.92 20.42,-2.92 20.20,-2.91 20.00,-2.98 19.80,-3.04 19.63,-3.17 19.46,-3.30 19.34,-3.47 19.21,-3.65 19.15,-3.85 19.10,-4.05 19.10,-4.27 19.11,-4.48 19.19,-4.68 19.27,-4.88 19.40,-5.04 19.54,-5.20 19.72,-5.31 19.90,-5.43 20.10,-5.47 20.31,-5.52 20.52,-5.50 20.73,-5.48 20.93,-5.40 21.12,-5.31 21.28,-5.16 21.43,-5.02 21.54,-4.83 21.64,-4.65 21.68,-4.44 21.71,-4.23 21.68,-4.02 21.65,-3.81 21.55,-3.62 21.45,-3.43 21.30,-3.28 21.15,-3.14 20.96,-3.04 20.77,-2.95 20.77,-2.95 20.77,-2.95 16.24,-1.23 11.71,0.48 8.49,1.14 5.26,1.80 2.72,1.94 0.18,2.08 -0.06,2.07 -0.31,2.06 -0.55,2.00 -0.80,1.93 -1.02,1.80 -1.24,1.68 -1.42,1.51 -1.60,1.33 -1.74,1.12 -1.88,0.91 -1.96,0.67 -2.04,0.43 -2.06,0.18 -2.09,-0.06 -2.05,-0.31 -2.01,-0.56 -1.91,-0.79 -1.82,-1.02 -1.67,-1.23 -1.52,-1.43 -1.32,-1.59 -1.13,-1.75 -0.90,-1.86 -0.68,-1.97 -0.43,-2.03 -0.18,-2.08 -0.18,-2.08 L -0.18,-2.08 Z"></path></g><g transform="translate(930.7999877929688 643.0124816894531) rotate(0 2 30.4000244140625)" stroke="none"><path fill="#000" d="M 1.78,0 Q 1.78,0 2.07,2.3 2.35,4.6 2.38,6.72 2.41,8.85 2.65,12.44 2.89,16.03 3.66,21.87 4.42,27.71 4.99,32.55 5.55,37.39 5.77,41.58 6.00,45.77 6.01,49.17 6.01,52.57 4.98,56.06 3.95,59.55 3.88,59.75 3.81,59.95 3.68,60.12 3.55,60.29 3.37,60.40 3.19,60.52 2.99,60.57 2.78,60.63 2.57,60.61 2.36,60.60 2.16,60.52 1.96,60.44 1.80,60.30 1.64,60.16 1.54,59.97 1.43,59.79 1.39,59.58 1.34,59.37 1.37,59.16 1.40,58.95 1.49,58.76 1.58,58.57 1.73,58.42 1.88,58.26 2.06,58.17 2.25,58.07 2.46,58.04 2.67,58.01 2.88,58.04 3.09,58.08 3.28,58.18 3.47,58.28 3.61,58.44 3.75,58.60 3.84,58.79 3.93,58.99 3.95,59.20 3.97,59.41 3.92,59.62 3.87,59.82 3.76,60.00 3.65,60.18 3.48,60.32 3.32,60.45 3.12,60.53 2.92,60.61 2.71,60.61 2.50,60.62 2.29,60.56 2.09,60.50 1.92,60.38 1.74,60.26 1.61,60.09 1.49,59.92 1.42,59.72 1.36,59.51 1.36,59.30 1.36,59.09 1.36,59.09 1.36,59.09 1.52,55.89 1.68,52.68 1.48,49.36 1.28,46.04 1.03,42.00 0.77,37.95 0.20,33.15 -0.35,28.35 -1.16,22.34 -1.97,16.33 -2.19,12.59 -2.41,8.85 -2.38,6.72 -2.35,4.6 -2.07,2.3 -1.78,0 -1.76,-0.21 -1.73,-0.42 -1.66,-0.63 -1.58,-0.83 -1.46,-1.00 -1.33,-1.18 -1.17,-1.33 -1.01,-1.47 -0.82,-1.57 -0.63,-1.67 -0.42,-1.72 -0.21,-1.77 0.00,-1.77 0.21,-1.77 0.42,-1.72 0.63,-1.67 0.82,-1.57 1.01,-1.47 1.17,-1.32 1.33,-1.18 1.46,-1.00 1.58,-0.83 1.66,-0.62 1.73,-0.42 1.76,-0.21 1.78,0.00 1.78,0.00 L 1.78,0 Z"></path></g><g transform="translate(950 642.2124938964844) rotate(0 3.60003662109375 18.399993896484375)" stroke="none"><path fill="#000" d="M -1.02,1.27 Q -1.02,1.27 -2.26,0.53 -3.50,-0.19 -4.75,-0.36 -6.00,-0.53 -7.19,-0.20 -8.39,0.11 -9.68,0.83 -10.97,1.55 -12.26,3.06 -13.55,4.58 -15.45,7.89 -17.35,11.21 -18.61,14.17 -19.87,17.14 -20.37,19.60 -20.86,22.06 -20.62,24.25 -20.38,26.44 -19.67,28.36 -18.96,30.29 -17.45,32.04 -15.93,33.79 -14.58,34.68 -13.22,35.56 -12.00,35.70 -10.78,35.84 -8.95,34.51 -7.13,33.18 -5.65,31.41 -4.17,29.64 -3.14,26.79 -2.10,23.94 -1.64,20.52 -1.18,17.10 -0.98,14.02 -0.77,10.94 -1.17,8.92 -1.57,6.90 -2.12,6.00 -2.67,5.11 -2.74,4.85 -2.81,4.58 -2.82,4.30 -2.82,4.03 -2.76,3.76 -2.70,3.49 -2.58,3.25 -2.46,3.00 -2.28,2.79 -2.10,2.58 -1.88,2.42 -1.65,2.26 -1.40,2.16 -1.14,2.05 -0.87,2.01 -0.60,1.98 -0.32,2.00 -0.05,2.03 0.20,2.12 0.46,2.22 0.69,2.37 0.92,2.52 1.10,2.72 1.29,2.92 1.42,3.17 1.56,3.41 2.52,6.15 3.48,8.89 4.77,12.26 6.06,15.63 7.94,19.51 9.82,23.39 11.93,26.55 14.03,29.70 16.36,31.80 18.69,33.90 20.52,34.99 22.34,36.07 25.68,34.97 29.03,33.87 29.23,33.82 29.44,33.77 29.65,33.79 29.86,33.81 30.06,33.90 30.25,33.99 30.41,34.13 30.56,34.28 30.66,34.46 30.77,34.65 30.80,34.86 30.84,35.07 30.81,35.28 30.78,35.49 30.68,35.68 30.58,35.86 30.43,36.01 30.28,36.16 30.08,36.25 29.89,36.34 29.68,36.37 29.47,36.39 29.26,36.35 29.05,36.31 28.87,36.20 28.69,36.09 28.55,35.93 28.41,35.77 28.33,35.57 28.25,35.38 28.23,35.17 28.22,34.95 28.27,34.75 28.33,34.54 28.45,34.37 28.56,34.19 28.73,34.06 28.90,33.93 29.10,33.86 29.30,33.79 29.51,33.79 29.72,33.78 29.93,33.85 30.13,33.91 30.30,34.04 30.47,34.17 30.59,34.34 30.71,34.52 30.77,34.72 30.83,34.93 30.82,35.14 30.81,35.35 30.74,35.55 30.66,35.75 30.52,35.91 30.39,36.07 30.21,36.18 30.03,36.30 30.03,36.30 30.03,36.30 25.80,38.31 21.57,40.32 18.47,38.97 15.37,37.61 12.62,35.06 9.86,32.52 7.57,29.05 5.28,25.59 3.31,21.49 1.34,17.39 0.07,13.88 -1.19,10.37 -1.93,7.74 -2.67,5.11 -2.74,4.85 -2.81,4.58 -2.82,4.30 -2.82,4.03 -2.76,3.76 -2.70,3.49 -2.58,3.25 -2.46,3.00 -2.28,2.79 -2.10,2.58 -1.88,2.42 -1.65,2.26 -1.40,2.16 -1.14,2.05 -0.87,2.01 -0.60,1.98 -0.32,2.00 -0.05,2.03 0.20,2.12 0.46,2.22 0.69,2.37 0.92,2.52 1.10,2.72 1.29,2.92 1.42,3.17 1.56,3.41 1.66,3.58 1.76,3.76 2.21,4.97 2.66,6.18 3.00,8.69 3.34,11.19 3.12,14.43 2.89,17.66 2.34,21.52 1.80,25.39 0.46,28.86 -0.87,32.32 -2.81,34.59 -4.75,36.86 -7.71,38.54 -10.68,40.23 -13.16,39.87 -15.64,39.52 -17.58,38.16 -19.52,36.80 -21.43,34.37 -23.34,31.93 -24.20,29.41 -25.05,26.88 -25.25,24.02 -25.45,21.16 -24.81,18.23 -24.17,15.30 -22.76,12.08 -21.35,8.85 -19.12,5.18 -16.90,1.51 -14.98,-0.42 -13.07,-2.36 -11.14,-3.27 -9.22,-4.18 -7.19,-4.44 -5.15,-4.71 -3.12,-4.09 -1.09,-3.48 -0.03,-2.37 1.02,-1.27 1.16,-1.13 1.29,-0.99 1.39,-0.82 1.49,-0.65 1.55,-0.46 1.61,-0.27 1.62,-0.08 1.63,0.11 1.59,0.30 1.55,0.50 1.47,0.68 1.39,0.86 1.26,1.01 1.14,1.16 0.98,1.28 0.83,1.40 0.65,1.48 0.47,1.56 0.27,1.60 0.08,1.63 -0.11,1.62 -0.31,1.60 -0.49,1.54 -0.68,1.48 -0.85,1.38 -1.02,1.27 -1.02,1.27 L -1.02,1.27 Z"></path></g><g transform="translate(666.7999877929688 686.2124938964844) rotate(0 0.00005000000000165983 0.00005000000000165983)" stroke="none"><path fill="#000" d="M 1.57,-1.57 Q 1.57,-1.57 1.77,-1.27 1.98,-0.98 2.09,-0.64 2.20,-0.29 2.19,0.05 2.18,0.41 2.05,0.75 1.93,1.09 1.70,1.37 1.48,1.65 1.18,1.84 0.87,2.04 0.52,2.12 0.18,2.21 -0.17,2.18 -0.53,2.15 -0.86,2.01 -1.19,1.87 -1.46,1.63 -1.73,1.39 -1.90,1.07 -2.08,0.76 -2.15,0.41 -2.21,0.05 -2.17,-0.29 -2.12,-0.65 -1.96,-0.97 -1.80,-1.29 -1.54,-1.54 -1.29,-1.80 -0.97,-1.96 -0.65,-2.12 -0.29,-2.17 0.06,-2.21 0.41,-2.15 0.76,-2.08 1.07,-1.90 1.39,-1.73 1.63,-1.46 1.87,-1.19 2.01,-0.86 2.15,-0.53 2.18,-0.17 2.21,0.18 2.12,0.52 2.03,0.87 1.84,1.18 1.65,1.48 1.37,1.70 1.09,1.93 0.75,2.05 0.41,2.18 0.05,2.19 -0.30,2.20 -0.64,2.09 -0.98,1.98 -1.27,1.77 -1.57,1.56 -1.57,1.57 -1.57,1.57 -1.73,1.35 -1.90,1.14 -2.01,0.90 -2.12,0.66 -2.16,0.39 -2.21,0.13 -2.20,-0.13 -2.18,-0.40 -2.10,-0.65 -2.02,-0.91 -1.88,-1.14 -1.74,-1.36 -1.55,-1.55 -1.36,-1.74 -1.14,-1.88 -0.91,-2.02 -0.65,-2.10 -0.40,-2.18 -0.13,-2.20 0.13,-2.21 0.39,-2.16 0.66,-2.12 0.90,-2.01 1.14,-1.90 1.35,-1.73 1.57,-1.57 1.57,-1.57 L 1.57,-1.57 Z"></path></g></svg>