<svg version="1.1" xmlns="http://www.w3.org/2000/svg" viewBox="0 0 10020 673.0125122070312" width="10020" height="673.0125122070312">
  <!-- svg-source:excalidraw -->
  
  <defs>
    <style>
      @font-face {
        font-family: "Virgil";
        src: url("https://excalidraw.com/Virgil.woff2");
      }
      @font-face {
        font-family: "Cascadia";
        src: url("https://excalidraw.com/Cascadia.woff2");
      }
    </style>
  </defs>
  <rect x="0" y="0" width="10020" height="673.0125122070312" fill="#fff0"></rect><g stroke-linecap="round" transform="translate(10 10) rotate(0 5000 0.5)"><path d="M-0.52 -0.26 C3022.65 -30.2, 6044.59 -29.2, 9999.32 0.22 M0.38 -0.31 C3948.03 -0.44, 7895.41 0.2, 9999.95 0.08 M10000.08 -0.06 C10000.09 0.27, 10000.05 0.48, 10000.09 0.92 M9999.97 0.01 C9999.95 0.33, 9999.98 0.72, 10000 0.99 M10000.22 1.51 C7095.77 35.76, 4193.15 34.95, -0.25 0.75 M10000.01 1.13 C7827.97 2.74, 5656.23 3.35, -0.33 0.84 M-0.04 1.01 C0 0.63, -0.06 0.15, 0.05 -0.03 M-0.04 0.95 C-0.04 0.73, -0.03 0.59, -0.05 -0.02" stroke="transparent" stroke-width="1" fill="none"></path></g><g transform="translate(559.6000366210938 527.0125122070312) rotate(0 -6 20.399993896484375)" stroke="none"><path fill="#000" d="M 0.80,1.74 Q 0.80,1.74 -2.21,3.05 -5.24,4.35 -9.92,6.92 -14.61,9.50 -18.00,11.49 -21.39,13.49 -25.12,15.93 -28.85,18.37 -30.66,19.62 -32.47,20.87 -33.10,22.36 -33.72,23.86 -33.44,26.86 -33.17,29.85 -32.83,32.48 -32.50,35.10 -32.27,36.68 -32.05,38.26 -31.19,37.58 -30.33,36.91 -28.78,36.10 -27.23,35.30 -25.49,34.20 -23.76,33.10 -22.41,31.62 -21.07,30.14 -19.73,28.72 -18.39,27.29 -17.59,26.56 -16.79,25.82 -16.07,24.05 -15.35,22.28 -15.00,20.75 -14.65,19.21 -14.68,17.88 -14.71,16.55 -14.55,15.32 -14.38,14.09 -14.01,12.92 -13.63,11.75 -13.26,10.64 -12.89,9.53 -12.75,8.43 -12.62,7.32 -12.50,6.98 -12.38,6.64 -12.18,6.34 -11.98,6.04 -11.72,5.79 -11.45,5.55 -11.13,5.37 -10.82,5.20 -10.47,5.10 -10.12,5.01 -9.76,5.00 -9.40,4.99 -9.04,5.07 -8.69,5.15 -8.37,5.31 -8.04,5.47 -7.77,5.71 -7.49,5.94 -7.28,6.23 -7.07,6.53 -6.93,6.86 -6.80,7.20 -6.75,7.55 -6.70,7.91 -6.73,8.27 -6.77,8.63 -4.40,12.38 -2.04,16.13 0.12,19.64 2.29,23.15 4.08,25.57 5.86,28.00 8.13,30.12 10.39,32.25 11.67,33.39 12.95,34.53 14.37,34.86 15.80,35.19 17.12,34.54 18.44,33.89 20.89,32.91 23.34,31.93 23.75,31.93 24.16,31.93 24.55,32.07 24.94,32.20 25.26,32.45 25.59,32.70 25.82,33.04 26.05,33.38 26.16,33.78 26.26,34.17 26.24,34.58 26.22,34.99 26.06,35.37 25.91,35.75 25.64,36.06 25.38,36.38 25.02,36.59 24.67,36.80 24.27,36.88 23.87,36.97 23.46,36.92 23.05,36.88 22.68,36.70 22.31,36.53 22.01,36.25 21.72,35.96 21.53,35.60 21.33,35.23 21.27,34.83 21.21,34.42 21.27,34.02 21.34,33.62 21.54,33.25 21.73,32.89 22.03,32.61 22.33,32.33 22.70,32.16 23.07,31.99 23.48,31.95 23.89,31.90 24.29,31.99 24.69,32.08 25.04,32.30 25.39,32.51 25.66,32.82 25.92,33.14 26.07,33.52 26.22,33.90 26.24,34.31 26.26,34.72 26.15,35.12 26.04,35.51 25.81,35.85 25.58,36.19 25.25,36.43 24.92,36.68 24.53,36.81 24.14,36.94 24.14,36.94 24.14,36.94 22.94,37.46 21.74,37.98 20.06,38.34 18.37,38.70 16.77,39.04 15.18,39.38 14.01,39.02 12.85,38.67 11.68,37.96 10.51,37.24 9.27,36.06 8.02,34.89 5.43,32.65 2.83,30.41 0.76,27.98 -1.29,25.55 -3.86,21.96 -6.42,18.37 -8.21,15.23 -10.00,12.08 -11.31,9.70 -12.62,7.32 -12.50,6.98 -12.38,6.64 -12.18,6.34 -11.98,6.04 -11.72,5.79 -11.45,5.55 -11.13,5.37 -10.82,5.20 -10.47,5.10 -10.12,5.01 -9.76,5.00 -9.40,4.99 -9.04,5.07 -8.69,5.15 -8.37,5.31 -8.04,5.47 -7.77,5.71 -7.49,5.94 -7.28,6.23 -7.07,6.53 -6.93,6.86 -6.80,7.20 -6.75,7.55 -6.70,7.91 -6.73,8.27 -6.77,8.63 -7.08,9.99 -7.40,11.35 -7.76,12.46 -8.13,13.57 -8.78,15.63 -9.42,17.69 -9.65,18.94 -9.88,20.20 -10.18,21.29 -10.49,22.38 -11.53,24.10 -12.57,25.82 -14.22,27.74 -15.86,29.66 -17.14,31.04 -18.42,32.43 -19.98,34.32 -21.54,36.21 -23.39,37.63 -25.24,39.06 -26.72,39.85 -28.20,40.65 -30.16,41.46 -32.13,42.28 -33.48,41.57 -34.84,40.87 -35.24,39.79 -35.65,38.71 -35.76,37.16 -35.87,35.62 -36.34,33.05 -36.81,30.48 -37.31,27.90 -37.81,25.31 -37.56,24.01 -37.30,22.72 -36.69,21.43 -36.08,20.14 -35.11,19.33 -34.14,18.52 -32.31,17.21 -30.49,15.89 -26.74,13.36 -22.99,10.84 -19.61,8.74 -16.22,6.64 -11.47,3.90 -6.71,1.16 -3.76,-0.29 -0.80,-1.74 -0.58,-1.81 -0.36,-1.88 -0.13,-1.90 0.09,-1.92 0.32,-1.88 0.55,-1.84 0.76,-1.74 0.97,-1.65 1.16,-1.51 1.34,-1.37 1.49,-1.19 1.63,-1.01 1.73,-0.80 1.83,-0.58 1.87,-0.36 1.91,-0.13 1.90,0.09 1.89,0.32 1.82,0.55 1.76,0.77 1.64,0.97 1.52,1.17 1.36,1.33 1.20,1.50 1.00,1.62 0.80,1.74 0.80,1.74 L 0.80,1.74 Z"></path></g><g transform="translate(601.2000122070312 538.2125244140625) rotate(0 -22.79998779296875 57.19999694824219)" stroke="none"><path fill="#000" d="M 1.40,0.67 Q 1.40,0.67 -1.61,6.87 -4.63,13.06 -6.60,17.51 -8.57,21.95 -11.48,29.34 -14.39,36.73 -17.02,42.89 -19.66,49.05 -21.00,52.56 -22.34,56.06 -23.85,59.43 -25.36,62.81 -27.14,67.19 -28.92,71.58 -29.88,74.99 -30.85,78.41 -32.69,82.51 -34.52,86.61 -35.95,91.23 -37.38,95.85 -38.23,98.75 -39.07,101.66 -40.39,104.59 -41.70,107.52 -42.42,109.23 -43.14,110.93 -45.10,111.62 -47.06,112.30 -47.05,112.06 -47.03,111.82 -46.94,111.60 -46.84,111.38 -46.68,111.20 -46.52,111.02 -46.31,110.90 -46.11,110.78 -45.87,110.73 -45.63,110.68 -45.39,110.71 -45.15,110.74 -44.94,110.85 -44.72,110.95 -44.55,111.12 -44.38,111.29 -44.27,111.51 -44.16,111.72 -44.12,111.96 -44.09,112.20 -44.13,112.44 -44.18,112.67 -44.29,112.88 -44.41,113.09 -44.59,113.26 -44.77,113.42 -44.99,113.52 -45.21,113.61 -45.45,113.64 -45.69,113.66 -45.92,113.60 -46.16,113.55 -46.36,113.42 -46.56,113.29 -46.72,113.10 -46.87,112.92 -46.96,112.69 -47.04,112.46 -47.05,112.22 -47.06,111.98 -46.99,111.75 -46.92,111.52 -46.78,111.32 -46.64,111.13 -46.45,110.98 -46.25,110.84 -46.02,110.77 -45.79,110.70 -45.55,110.70 -45.31,110.70 -45.08,110.79 -44.86,110.87 -44.67,111.02 -44.48,111.17 -44.35,111.37 -44.21,111.57 -44.15,111.80 -44.09,112.04 -44.09,112.04 -44.09,112.04 -44.93,110.88 -45.76,109.72 -44.93,108.08 -44.10,106.44 -42.86,103.68 -41.61,100.91 -40.76,97.99 -39.91,95.06 -38.43,90.29 -36.95,85.52 -35.18,81.60 -33.42,77.68 -32.41,74.13 -31.40,70.57 -29.61,66.14 -27.83,61.71 -26.36,58.40 -24.89,55.09 -23.55,51.53 -22.20,47.97 -19.61,41.84 -17.02,35.71 -14.12,28.25 -11.22,20.79 -9.27,16.28 -7.32,11.77 -4.36,5.54 -1.40,-0.67 -1.30,-0.83 -1.20,-0.99 -1.06,-1.12 -0.93,-1.25 -0.76,-1.34 -0.60,-1.44 -0.42,-1.49 -0.24,-1.54 -0.05,-1.54 0.13,-1.55 0.31,-1.51 0.50,-1.47 0.67,-1.39 0.84,-1.31 0.98,-1.19 1.13,-1.07 1.24,-0.92 1.35,-0.77 1.43,-0.59 1.50,-0.42 1.53,-0.23 1.56,-0.05 1.54,0.13 1.52,0.32 1.46,0.49 1.40,0.67 1.40,0.67 L 1.40,0.67 Z"></path></g><g transform="translate(622 582.2125244140625) rotate(0 19.20001220703125 40.399993896484375)" stroke="none"><path fill="#000" d="M 1.84,0.08 Q 1.84,0.08 1.54,5.14 1.24,10.19 1.09,15.54 0.94,20.89 0.86,25.23 0.78,29.58 0.73,33.49 0.68,37.41 0.88,40.16 1.08,42.92 1.22,44.83 1.35,46.73 1.50,48.00 1.65,49.28 1.69,53.94 1.74,58.61 1.68,62.92 1.62,67.22 1.58,70.67 1.54,74.11 1.60,75.80 1.66,77.49 1.79,78.62 1.92,79.74 1.90,79.97 1.87,80.20 1.79,80.42 1.70,80.63 1.57,80.83 1.44,81.02 1.27,81.17 1.09,81.33 0.89,81.43 0.68,81.54 0.45,81.60 0.23,81.65 0.00,81.65 -0.23,81.65 -0.45,81.60 -0.68,81.54 -0.88,81.43 -1.09,81.33 -1.26,81.17 -1.44,81.02 -1.57,80.83 -1.70,80.64 -1.79,80.42 -1.87,80.20 -1.90,79.97 -1.92,79.74 -2.06,78.56 -2.20,77.38 -2.17,75.60 -2.13,73.81 -1.54,71.48 -0.95,69.15 -0.22,65.97 0.50,62.79 1.07,59.85 1.63,56.91 1.77,55.43 1.91,53.95 2.17,52.01 2.42,50.07 3.18,49.06 3.93,48.06 5.18,47.02 6.44,45.99 8.93,44.49 11.42,42.99 13.21,42.08 15.01,41.17 16.87,40.69 18.73,40.22 19.96,39.97 21.20,39.73 23.69,39.54 26.19,39.36 28.18,40.45 30.18,41.53 32.40,43.20 34.62,44.87 36.23,46.03 37.84,47.18 39.15,48.45 40.47,49.71 41.16,50.56 41.85,51.41 42.26,53.05 42.67,54.69 42.30,56.56 41.93,58.43 41.54,59.95 41.15,61.48 40.71,63.24 40.28,64.99 39.89,66.34 39.51,67.69 38.80,68.95 38.10,70.20 36.82,71.65 35.55,73.10 34.52,73.52 33.49,73.95 31.24,74.25 28.99,74.54 25.91,74.58 22.83,74.63 20.17,74.60 17.52,74.57 15.01,74.52 12.50,74.47 10.75,74.51 8.99,74.55 7.33,74.60 5.66,74.64 3.72,74.51 1.78,74.38 -1.22,73.58 -4.24,72.78 -4.42,72.44 -4.60,72.09 -4.65,71.70 -4.71,71.31 -4.65,70.92 -4.58,70.54 -4.39,70.19 -4.20,69.85 -3.91,69.58 -3.62,69.31 -3.27,69.15 -2.91,68.99 -2.52,68.96 -2.13,68.92 -1.74,69.01 -1.36,69.10 -1.03,69.30 -0.69,69.51 -0.44,69.81 -0.19,70.12 -0.05,70.48 0.08,70.85 0.10,71.24 0.11,71.63 0.00,72.01 -0.10,72.39 -0.32,72.71 -0.55,73.03 -0.86,73.26 -1.18,73.50 -1.55,73.62 -1.93,73.74 -2.32,73.73 -2.71,73.73 -3.08,73.60 -3.45,73.47 -3.76,73.23 -4.07,72.99 -4.29,72.66 -4.50,72.33 -4.60,71.95 -4.70,71.57 -4.68,71.18 -4.65,70.79 -4.50,70.43 -4.35,70.06 -4.09,69.77 -3.83,69.47 -3.50,69.27 -3.16,69.07 -2.77,69.00 -2.39,68.92 -2.00,68.96 -1.61,69.01 -1.25,69.18 -0.90,69.35 -0.62,69.62 -0.34,69.90 -0.34,69.90 -0.34,69.90 0.26,69.78 0.87,69.67 2.07,69.98 3.27,70.29 4.46,70.61 5.65,70.94 7.31,70.97 8.97,71.00 10.72,71.02 12.46,71.03 14.94,70.93 17.42,70.82 20.01,70.66 22.60,70.49 25.37,70.21 28.13,69.93 30.88,69.45 33.63,68.97 34.44,67.62 35.26,66.27 35.67,65.17 36.08,64.07 36.43,62.22 36.78,60.38 37.17,58.84 37.56,57.30 37.93,56.29 38.30,55.27 38.00,53.86 37.70,52.45 36.70,51.38 35.70,50.32 34.02,49.25 32.35,48.18 30.09,46.78 27.83,45.38 26.86,44.65 25.89,43.91 23.83,43.93 21.78,43.94 20.70,44.01 19.62,44.09 18.22,44.37 16.81,44.64 15.24,45.51 13.67,46.38 11.49,47.98 9.31,49.57 7.84,50.57 6.37,51.57 5.91,53.01 5.44,54.46 5.15,55.96 4.86,57.47 4.40,60.48 3.95,63.49 3.37,66.72 2.79,69.96 2.46,71.90 2.13,73.83 2.17,75.61 2.20,77.38 2.06,78.56 1.92,79.74 1.90,79.97 1.87,80.20 1.79,80.42 1.70,80.63 1.57,80.83 1.44,81.02 1.27,81.17 1.09,81.33 0.89,81.43 0.68,81.54 0.45,81.60 0.23,81.65 0.00,81.65 -0.23,81.65 -0.45,81.60 -0.68,81.54 -0.88,81.43 -1.09,81.33 -1.26,81.17 -1.44,81.02 -1.57,80.83 -1.70,80.64 -1.79,80.42 -1.87,80.20 -1.90,79.97 -1.92,79.74 -1.79,78.62 -1.66,77.49 -1.60,75.80 -1.54,74.11 -1.59,70.67 -1.63,67.23 -1.69,62.92 -1.76,58.61 -1.76,54.00 -1.77,49.38 -1.70,48.13 -1.63,46.88 -1.69,45.01 -1.74,43.14 -1.99,40.27 -2.23,37.39 -2.24,33.47 -2.25,29.55 -2.25,25.19 -2.25,20.83 -2.20,15.43 -2.16,10.04 -2.00,4.97 -1.84,-0.08 -1.80,-0.30 -1.77,-0.52 -1.68,-0.72 -1.59,-0.93 -1.46,-1.10 -1.32,-1.28 -1.15,-1.42 -0.97,-1.56 -0.77,-1.66 -0.57,-1.75 -0.35,-1.79 -0.13,-1.84 0.08,-1.83 0.30,-1.82 0.51,-1.75 0.73,-1.69 0.92,-1.58 1.11,-1.47 1.27,-1.31 1.43,-1.16 1.55,-0.97 1.67,-0.78 1.74,-0.57 1.81,-0.36 1.82,-0.13 1.84,0.08 1.84,0.08 L 1.84,0.08 Z"></path></g></svg>