<svg version="1.1" xmlns="http://www.w3.org/2000/svg" viewBox="0 0 10020 718.6125183105469" width="10020" height="718.6125183105469">
  <!-- svg-source:excalidraw -->
  
  <defs>
    <style>
      @font-face {
        font-family: "Virgil";
        src: url("https://excalidraw.com/Virgil.woff2");
      }
      @font-face {
        font-family: "Cascadia";
        src: url("https://excalidraw.com/Cascadia.woff2");
      }
    </style>
  </defs>
  <rect x="0" y="0" width="10020" height="718.6125183105469" fill="#fff0"></rect><g stroke-linecap="round" transform="translate(10 10) rotate(0 5000 0.5)"><path d="M-0.52 -0.26 C3022.65 -30.2, 6044.59 -29.2, 9999.32 0.22 M0.38 -0.31 C3948.03 -0.44, 7895.41 0.2, 9999.95 0.08 M10000.08 -0.06 C10000.09 0.27, 10000.05 0.48, 10000.09 0.92 M9999.97 0.01 C9999.95 0.33, 9999.98 0.72, 10000 0.99 M10000.22 1.51 C7095.77 35.76, 4193.15 34.95, -0.25 0.75 M10000.01 1.13 C7827.97 2.74, 5656.23 3.35, -0.33 0.84 M-0.04 1.01 C0 0.63, -0.06 0.15, 0.05 -0.03 M-0.04 0.95 C-0.04 0.73, -0.03 0.59, -0.05 -0.02" stroke="transparent" stroke-width="1" fill="none"></path></g><g transform="translate(793.2000122070312 546.2124938964844) rotate(0 0 2)" stroke="none"><path fill="#000" d="M 1.62,0 Q 1.62,0 0.15,0.48 -1.31,0.97 -1.27,0.76 -1.24,0.55 -1.14,0.37 -1.04,0.18 -0.89,0.03 -0.73,-0.10 -0.54,-0.19 -0.35,-0.28 -0.14,-0.31 0.07,-0.33 0.27,-0.28 0.48,-0.24 0.66,-0.13 0.85,-0.02 0.98,0.13 1.12,0.30 1.20,0.49 1.28,0.69 1.29,0.90 1.30,1.11 1.24,1.32 1.19,1.52 1.07,1.70 0.95,1.88 0.78,2.00 0.61,2.13 0.41,2.20 0.21,2.27 -0.00,2.27 -0.21,2.27 -0.41,2.20 -0.61,2.13 -0.78,2.00 -0.95,1.88 -1.07,1.70 -1.19,1.52 -1.24,1.32 -1.30,1.11 -1.29,0.90 -1.28,0.69 -1.20,0.49 -1.12,0.30 -0.98,0.13 -0.84,-0.02 -0.66,-0.13 -0.48,-0.24 -0.27,-0.28 -0.07,-0.33 0.14,-0.31 0.35,-0.28 0.54,-0.19 0.73,-0.10 0.89,0.03 1.04,0.18 1.14,0.37 1.24,0.55 1.27,0.76 1.31,0.97 1.31,0.97 1.31,0.97 -0.15,0.48 -1.62,0 -1.60,-0.19 -1.57,-0.38 -1.50,-0.57 -1.43,-0.75 -1.32,-0.91 -1.21,-1.07 -1.06,-1.20 -0.92,-1.33 -0.74,-1.42 -0.57,-1.51 -0.38,-1.56 -0.19,-1.61 0.00,-1.61 0.19,-1.61 0.38,-1.56 0.57,-1.51 0.74,-1.42 0.92,-1.33 1.06,-1.20 1.21,-1.07 1.32,-0.91 1.43,-0.75 1.50,-0.57 1.57,-0.38 1.60,-0.19 1.62,0.00 1.62,0.00 L 1.62,0 Z"></path></g><g transform="translate(830 569.4125061035156) rotate(0 19.20001220703125 67.20001220703125)" stroke="none"><path fill="#000" d="M 1.50,0.64 Q 1.50,0.64 1.03,2.34 0.55,4.04 -0.88,7.08 -2.32,10.12 -4.07,13.71 -5.82,17.29 -8.20,21.42 -10.57,25.54 -13.19,29.82 -15.81,34.10 -18.79,38.28 -21.77,42.46 -25.32,47.23 -28.87,52.00 -31.54,55.42 -34.21,58.83 -35.78,60.94 -37.35,63.06 -38.22,64.37 -39.10,65.69 -39.87,66.46 -40.64,67.23 -39.57,68.21 -38.50,69.20 -36.80,71.17 -35.10,73.15 -32.07,76.75 -29.05,80.36 -23.40,86.94 -17.75,93.51 -12.39,99.26 -7.03,105.02 -2.43,110.02 2.15,115.01 5.95,119.21 9.75,123.41 12.72,126.55 15.70,129.69 17.88,131.94 20.06,134.20 21.41,134.06 22.76,133.93 23.72,132.77 24.69,131.61 25.56,130.44 26.44,129.27 27.52,127.82 28.60,126.38 30.24,124.36 31.89,122.34 35.45,119.07 39.01,115.81 42.88,113.02 46.74,110.23 50.65,107.46 54.56,104.68 58.30,102.12 62.04,99.56 65.20,97.14 68.35,94.73 70.77,92.39 73.20,90.05 74.63,88.21 76.05,86.36 76.88,85.13 77.71,83.89 78.10,82.85 78.49,81.81 77.87,80.02 77.25,78.22 75.53,76.37 73.81,74.53 72.08,72.31 70.34,70.08 66.92,66.24 63.50,62.40 59.94,58.19 56.38,53.98 52.38,49.71 48.39,45.44 44.61,41.55 40.84,37.67 36.54,34.01 32.24,30.36 28.97,27.37 25.70,24.39 22.93,21.73 20.16,19.07 18.06,17.02 15.97,14.97 14.15,13.18 12.34,11.39 10.88,9.94 9.42,8.49 8.43,7.72 7.44,6.96 6.59,5.98 5.74,5.00 4.86,3.71 3.98,2.43 3.04,1.08 2.11,-0.26 1.49,-1.33 0.87,-2.40 0.86,-2.40 0.85,-2.40 0.63,-2.54 0.41,-2.68 0.23,-2.87 0.04,-3.05 -0.08,-3.28 -0.21,-3.51 -0.28,-3.76 -0.36,-4.01 -0.37,-4.27 -0.38,-4.53 -0.33,-4.79 -0.28,-5.05 -0.17,-5.28 -0.06,-5.52 0.09,-5.73 0.26,-5.93 0.47,-6.09 0.68,-6.25 0.92,-6.35 1.16,-6.46 1.42,-6.50 1.67,-6.54 1.94,-6.52 2.20,-6.50 2.45,-6.42 2.69,-6.34 2.29,-3.66 1.89,-0.99 1.77,-0.81 1.65,-0.63 1.48,-0.50 1.31,-0.37 1.11,-0.30 0.91,-0.23 0.70,-0.23 0.49,-0.23 0.29,-0.30 0.08,-0.36 -0.08,-0.49 -0.25,-0.62 -0.37,-0.79 -0.49,-0.97 -0.55,-1.17 -0.61,-1.38 -0.60,-1.59 -0.59,-1.80 -0.51,-2.00 -0.43,-2.20 -0.30,-2.36 -0.16,-2.52 0.01,-2.63 0.19,-2.74 0.40,-2.79 0.61,-2.84 0.82,-2.82 1.03,-2.80 1.22,-2.71 1.42,-2.62 1.57,-2.48 1.73,-2.33 1.83,-2.14 1.93,-1.96 1.97,-1.75 2.00,-1.54 1.97,-1.33 1.94,-1.12 1.84,-0.93 1.74,-0.74 1.59,-0.59 1.43,-0.45 1.24,-0.36 1.05,-0.27 0.84,-0.24 0.63,-0.22 0.42,-0.26 0.21,-0.30 0.03,-0.41 -0.14,-0.52 -0.28,-0.68 -0.42,-0.84 -0.50,-1.04 -0.58,-1.24 -0.59,-1.45 -0.61,-1.66 -0.55,-1.86 -0.50,-2.07 -0.50,-2.07 -0.50,-2.07 0.17,-2.24 0.85,-2.40 0.63,-2.54 0.41,-2.68 0.23,-2.87 0.04,-3.05 -0.08,-3.28 -0.21,-3.51 -0.28,-3.76 -0.36,-4.01 -0.37,-4.27 -0.38,-4.53 -0.33,-4.79 -0.28,-5.05 -0.17,-5.28 -0.06,-5.52 0.09,-5.73 0.26,-5.93 0.47,-6.09 0.68,-6.25 0.92,-6.35 1.16,-6.46 1.42,-6.50 1.67,-6.54 1.94,-6.52 2.20,-6.50 2.45,-6.42 2.69,-6.34 3.43,-5.45 4.17,-4.56 4.87,-3.73 5.56,-2.90 6.45,-1.62 7.34,-0.34 8.05,0.55 8.77,1.45 9.45,2.50 10.14,3.54 11.32,4.46 12.49,5.39 13.94,6.84 15.40,8.29 17.20,10.07 19.01,11.86 21.09,13.89 23.18,15.92 25.92,18.54 28.65,21.17 31.86,24.11 35.06,27.05 39.50,30.85 43.94,34.66 47.74,38.57 51.54,42.49 55.61,46.84 59.68,51.19 63.21,55.35 66.73,59.52 70.25,63.48 73.76,67.43 75.34,69.49 76.92,71.55 78.16,72.85 79.40,74.14 80.52,75.64 81.64,77.14 82.55,79.03 83.46,80.91 83.04,81.97 82.63,83.04 81.96,84.68 81.28,86.31 80.35,87.66 79.43,89.00 77.80,91.06 76.18,93.12 73.59,95.63 70.99,98.15 67.76,100.67 64.53,103.19 60.82,105.73 57.11,108.28 53.21,111.04 49.32,113.80 45.66,116.44 42.00,119.08 38.67,122.11 35.35,125.14 33.78,127.11 32.21,129.07 31.13,130.51 30.06,131.95 29.12,133.24 28.17,134.52 27.02,135.89 25.87,137.25 24.60,138.30 23.33,139.35 21.74,139.55 20.14,139.75 18.40,138.63 16.65,137.50 14.45,135.23 12.25,132.95 9.24,129.77 6.23,126.59 2.45,122.41 -1.33,118.22 -5.92,113.24 -10.50,108.26 -15.93,102.43 -21.35,96.60 -27.01,90.00 -32.67,83.40 -35.68,79.82 -38.69,76.24 -40.37,74.28 -42.05,72.33 -42.85,71.42 -43.65,70.51 -44.41,69.00 -45.18,67.50 -45.03,66.43 -44.89,65.37 -43.95,64.21 -43.02,63.06 -42.08,61.65 -41.14,60.23 -39.53,58.08 -37.92,55.93 -35.27,52.56 -32.62,49.19 -29.06,44.49 -25.50,39.79 -22.58,35.76 -19.66,31.73 -17.05,27.51 -14.44,23.28 -12.10,19.32 -9.76,15.35 -7.98,11.79 -6.21,8.24 -4.76,5.31 -3.31,2.39 -2.41,0.87 -1.50,-0.64 -1.40,-0.81 -1.30,-0.98 -1.17,-1.13 -1.03,-1.27 -0.86,-1.37 -0.69,-1.48 -0.51,-1.54 -0.32,-1.60 -0.12,-1.62 0.06,-1.63 0.26,-1.60 0.45,-1.57 0.64,-1.49 0.82,-1.41 0.98,-1.29 1.13,-1.18 1.26,-1.02 1.38,-0.87 1.47,-0.69 1.55,-0.51 1.59,-0.32 1.63,-0.12 1.62,0.06 1.61,0.26 1.56,0.45 1.50,0.64 1.50,0.64 L 1.50,0.64 Z"></path></g><g transform="translate(783.6000366210938 640.6125183105469) rotate(0 -24.800018310546875 -11.20001220703125)" stroke="none"><path fill="#000" d="M -1.32,-0.33 Q -1.32,-0.33 -1.17,-1.30 -1.02,-2.28 -2.87,-3.03 -4.72,-3.78 -6.04,-4.14 -7.36,-4.51 -9.65,-5.39 -11.95,-6.28 -14.52,-7.34 -17.08,-8.39 -19.59,-9.54 -22.09,-10.69 -24.66,-11.59 -27.22,-12.48 -29.81,-13.58 -32.40,-14.69 -34.99,-15.57 -37.59,-16.45 -39.61,-17.05 -41.62,-17.66 -43.39,-18.14 -45.16,-18.63 -46.84,-18.89 -48.53,-19.15 -49.29,-20.05 -50.05,-20.94 -50.20,-20.78 -50.35,-20.63 -50.53,-20.53 -50.72,-20.43 -50.93,-20.40 -51.14,-20.36 -51.35,-20.40 -51.56,-20.43 -51.75,-20.53 -51.94,-20.63 -52.08,-20.79 -52.23,-20.94 -52.32,-21.13 -52.41,-21.33 -52.43,-21.54 -52.45,-21.75 -52.41,-21.96 -52.36,-22.16 -52.25,-22.35 -52.14,-22.53 -51.98,-22.67 -51.82,-22.80 -51.62,-22.88 -51.42,-22.96 -51.21,-22.97 -51.00,-22.98 -50.79,-22.92 -50.59,-22.87 -50.41,-22.75 -50.24,-22.63 -50.11,-22.46 -49.98,-22.29 -49.91,-22.09 -49.84,-21.89 -49.84,-21.67 -49.84,-21.46 -49.91,-21.26 -49.98,-21.06 -50.11,-20.89 -50.24,-20.72 -50.41,-20.60 -50.59,-20.48 -50.80,-20.43 -51.00,-20.37 -51.21,-20.38 -51.42,-20.39 -51.62,-20.47 -51.82,-20.55 -51.98,-20.69 -52.14,-20.83 -52.25,-21.01 -52.36,-21.19 -52.41,-21.40 -52.45,-21.61 -52.43,-21.82 -52.40,-22.03 -52.32,-22.22 -52.23,-22.42 -52.23,-22.42 -52.23,-22.41 -49.14,-22.98 -46.05,-23.55 -44.99,-23.33 -43.93,-23.10 -42.10,-22.60 -40.28,-22.09 -38.18,-21.45 -36.09,-20.81 -33.33,-19.84 -30.58,-18.87 -28.15,-17.80 -25.71,-16.72 -22.97,-15.73 -20.22,-14.73 -17.81,-13.61 -15.39,-12.48 -12.87,-11.43 -10.35,-10.38 -8.25,-9.55 -6.16,-8.72 -4.71,-8.30 -3.27,-7.88 -2.17,-7.47 -1.06,-7.07 -0.02,-6.61 1.00,-6.15 1.99,-5.05 2.99,-3.94 2.46,-2.67 1.94,-1.39 1.63,-0.53 1.32,0.33 1.26,0.48 1.21,0.64 1.11,0.77 1.02,0.91 0.89,1.02 0.77,1.12 0.62,1.20 0.48,1.28 0.32,1.32 0.16,1.35 -0.00,1.35 -0.16,1.35 -0.32,1.31 -0.48,1.27 -0.63,1.20 -0.78,1.12 -0.90,1.01 -1.02,0.90 -1.12,0.76 -1.21,0.63 -1.27,0.47 -1.33,0.32 -1.34,0.15 -1.36,-0.00 -1.34,-0.16 -1.32,-0.33 -1.32,-0.33 L -1.32,-0.33 Z"></path></g><g transform="translate(910.7999877929688 647.8124694824219) rotate(0 54.4000244140625 -0.39996337890625)" stroke="none"><path fill="#000" d="M 0,1.41 Q 0,1.41 -0.91,1.65 -1.83,1.90 -2.06,1.87 -2.29,1.84 -2.50,1.76 -2.72,1.68 -2.91,1.55 -3.10,1.42 -3.25,1.25 -3.40,1.08 -3.51,0.87 -3.61,0.67 -3.67,0.45 -3.72,0.22 -3.72,-0.00 -3.72,-0.22 -3.67,-0.45 -3.61,-0.67 -3.51,-0.87 -3.40,-1.08 -3.25,-1.25 -3.10,-1.42 -2.91,-1.55 -2.72,-1.68 -2.50,-1.76 -2.29,-1.84 -2.06,-1.87 -1.83,-1.90 2.47,-1.52 6.79,-1.15 12.44,-0.75 18.10,-0.35 28.98,-0.17 39.86,0.01 50.20,-0.29 60.55,-0.61 69.31,-1.21 78.06,-1.81 85.25,-2.31 92.44,-2.80 98.28,-3.01 104.13,-3.23 106.56,-2.61 108.99,-1.99 108.85,-2.15 108.71,-2.31 108.64,-2.51 108.56,-2.71 108.55,-2.92 108.54,-3.13 108.60,-3.34 108.66,-3.54 108.78,-3.72 108.90,-3.89 109.07,-4.02 109.24,-4.14 109.44,-4.21 109.64,-4.28 109.86,-4.27 110.07,-4.27 110.27,-4.20 110.47,-4.13 110.64,-4.00 110.81,-3.87 110.92,-3.70 111.04,-3.52 111.10,-3.31 111.15,-3.11 111.14,-2.90 111.12,-2.69 111.04,-2.49 110.96,-2.29 110.83,-2.13 110.69,-1.97 110.50,-1.86 110.32,-1.75 110.11,-1.71 109.90,-1.67 109.69,-1.69 109.48,-1.72 109.29,-1.81 109.10,-1.90 108.95,-2.05 108.79,-2.19 108.69,-2.38 108.60,-2.57 108.56,-2.78 108.53,-2.99 108.57,-3.20 108.60,-3.41 108.71,-3.60 108.81,-3.78 108.96,-3.93 109.12,-4.07 109.31,-4.16 109.51,-4.25 109.72,-4.27 109.93,-4.29 110.14,-4.24 110.34,-4.19 110.52,-4.08 110.70,-3.97 110.70,-3.97 110.70,-3.97 107.49,-1.66 104.27,0.65 98.49,0.85 92.71,1.06 85.52,1.56 78.34,2.06 69.52,2.70 60.69,3.34 50.24,3.79 39.79,4.24 28.78,4.07 17.78,3.90 11.99,3.44 6.19,2.99 2.17,2.44 -1.83,1.90 -2.06,1.87 -2.29,1.84 -2.50,1.76 -2.72,1.68 -2.91,1.55 -3.10,1.42 -3.25,1.25 -3.40,1.08 -3.51,0.87 -3.61,0.67 -3.67,0.45 -3.72,0.22 -3.72,0.00 -3.72,-0.22 -3.67,-0.45 -3.61,-0.67 -3.51,-0.87 -3.40,-1.08 -3.25,-1.25 -3.10,-1.42 -2.91,-1.55 -2.72,-1.68 -2.50,-1.76 -2.29,-1.84 -2.06,-1.87 -1.83,-1.90 -0.91,-1.65 0,-1.41 0.16,-1.39 0.33,-1.37 0.49,-1.31 0.65,-1.25 0.79,-1.15 0.93,-1.05 1.05,-0.93 1.16,-0.80 1.24,-0.65 1.32,-0.50 1.36,-0.33 1.40,-0.17 1.40,0.00 1.40,0.17 1.36,0.33 1.32,0.50 1.24,0.65 1.16,0.80 1.05,0.93 0.93,1.05 0.79,1.15 0.65,1.25 0.49,1.31 0.33,1.37 0.16,1.39 -0.00,1.41 -0.00,1.41 L 0,1.41 Z"></path></g><g transform="translate(892.4000244140625 631.0124816894531) rotate(0 66 -2.39996337890625)" stroke="none"><path fill="#000" d="M 0.44,-1.55 Q 0.44,-1.55 2.07,-1.19 3.70,-0.82 7.64,-0.75 11.58,-0.67 19.02,-0.85 26.46,-1.02 31.91,-1.31 37.37,-1.60 47.73,-2.41 58.09,-3.23 68.02,-4.03 77.95,-4.83 86.99,-5.63 96.04,-6.42 103.61,-6.76 111.18,-7.10 116.46,-7.24 121.75,-7.39 124.31,-6.24 126.86,-5.08 126.70,-5.21 126.53,-5.34 126.41,-5.52 126.29,-5.69 126.23,-5.90 126.17,-6.10 126.19,-6.31 126.20,-6.53 126.28,-6.72 126.36,-6.92 126.49,-7.08 126.63,-7.24 126.81,-7.35 126.99,-7.46 127.20,-7.51 127.41,-7.55 127.62,-7.53 127.83,-7.51 128.03,-7.42 128.22,-7.33 128.37,-7.18 128.53,-7.04 128.63,-6.85 128.73,-6.66 128.76,-6.45 128.79,-6.24 128.76,-6.03 128.72,-5.82 128.62,-5.64 128.53,-5.45 128.37,-5.30 128.22,-5.16 128.02,-5.07 127.83,-4.98 127.62,-4.95 127.41,-4.93 127.20,-4.98 126.99,-5.02 126.81,-5.13 126.63,-5.24 126.49,-5.41 126.35,-5.57 126.28,-5.76 126.20,-5.96 126.19,-6.17 126.17,-6.39 126.23,-6.59 126.29,-6.80 126.41,-6.97 126.53,-7.15 126.70,-7.28 126.87,-7.40 127.07,-7.47 127.27,-7.54 127.48,-7.54 127.69,-7.54 127.90,-7.47 128.10,-7.40 128.10,-7.40 128.10,-7.40 124.98,-5.39 121.86,-3.37 116.61,-3.23 111.36,-3.08 103.88,-2.74 96.39,-2.39 87.33,-1.58 78.28,-0.77 68.34,0.03 58.41,0.83 48.00,1.65 37.59,2.47 32.06,2.76 26.54,3.05 18.96,3.17 11.39,3.30 7.06,2.98 2.73,2.66 1.14,2.11 -0.44,1.55 -0.62,1.48 -0.80,1.40 -0.96,1.29 -1.11,1.17 -1.24,1.02 -1.36,0.87 -1.45,0.69 -1.53,0.51 -1.57,0.32 -1.61,0.13 -1.60,-0.05 -1.60,-0.25 -1.54,-0.44 -1.49,-0.63 -1.39,-0.79 -1.29,-0.96 -1.16,-1.11 -1.03,-1.25 -0.86,-1.35 -0.70,-1.46 -0.51,-1.52 -0.32,-1.58 -0.13,-1.60 0.05,-1.62 0.25,-1.58 0.44,-1.55 0.44,-1.55 L 0.44,-1.55 Z"></path></g><g transform="translate(584.4000244140625 596.6125183105469) rotate(0 75.60000610351562 16.79998779296875)" stroke="none"><path fill="#000" d="M 1.73,0.31 Q 1.73,0.31 1.38,2.86 1.02,5.41 0.15,8.45 -0.70,11.49 -1.98,15.73 -3.25,19.97 -4.01,23.09 -4.76,26.21 -5.08,28.16 -5.39,30.11 -1.63,31.23 2.11,32.34 7.24,32.53 12.36,32.72 18.96,33.04 25.56,33.35 33.42,33.72 41.28,34.08 52.22,34.69 63.16,35.31 72.68,36.27 82.21,37.22 90.18,38.32 98.16,39.42 104.79,40.58 111.42,41.74 116.54,42.70 121.65,43.65 125.91,44.52 130.16,45.39 132.60,45.74 135.03,46.10 136.29,46.25 137.55,46.41 138.66,45.40 139.76,44.40 140.39,43.34 141.01,42.28 142.00,40.44 142.98,38.59 144.27,35.15 145.56,31.70 146.55,27.55 147.54,23.40 148.67,18.82 149.81,14.24 150.98,9.96 152.16,5.69 153.12,2.27 154.08,-1.14 154.97,-3.58 155.86,-6.03 154.07,-5.95 152.28,-5.88 149.44,-5.87 146.59,-5.86 142.86,-5.85 139.12,-5.85 133.16,-5.85 127.20,-5.84 120.07,-5.84 112.94,-5.84 105.01,-6.30 97.09,-6.77 85.70,-7.42 74.31,-8.08 67.84,-8.59 61.36,-9.10 57.27,-9.31 53.17,-9.52 47.74,-9.84 42.30,-10.17 37.95,-10.30 33.60,-10.44 29.85,-10.73 26.10,-11.02 23.18,-11.14 20.27,-11.26 18.34,-11.31 16.41,-11.37 15.31,-11.40 14.21,-11.44 13.16,-11.81 12.12,-12.18 10.81,-12.48 9.49,-12.79 7.76,-12.90 6.03,-13.01 4.18,-13.03 2.33,-13.06 1.14,-13.06 -0.04,-13.07 -0.29,-13.10 -0.55,-13.13 -0.79,-13.23 -1.03,-13.32 -1.24,-13.46 -1.45,-13.61 -1.61,-13.80 -1.78,-14.00 -1.90,-14.22 -2.02,-14.45 -2.08,-14.70 -2.14,-14.95 -2.14,-15.20 -2.14,-15.46 -2.07,-15.71 -2.01,-15.96 -1.89,-16.18 -1.77,-16.41 -1.60,-16.60 -1.43,-16.79 -1.22,-16.93 -1.01,-17.08 -0.77,-17.17 -0.53,-17.26 -0.27,-17.29 -0.02,-17.32 0.92,-16.80 1.88,-16.28 3.83,-14.59 5.78,-12.90 5.86,-12.70 5.94,-12.51 5.95,-12.29 5.96,-12.08 5.90,-11.88 5.84,-11.67 5.72,-11.50 5.60,-11.32 5.43,-11.20 5.26,-11.07 5.06,-11.00 4.86,-10.93 4.65,-10.94 4.43,-10.94 4.23,-11.01 4.03,-11.07 3.86,-11.20 3.70,-11.33 3.58,-11.51 3.46,-11.69 3.40,-11.89 3.35,-12.10 3.36,-12.31 3.37,-12.52 3.45,-12.72 3.53,-12.92 3.67,-13.08 3.81,-13.24 3.99,-13.35 4.18,-13.45 4.38,-13.50 4.59,-13.54 4.80,-13.52 5.01,-13.50 5.21,-13.40 5.40,-13.31 5.55,-13.17 5.70,-13.02 5.80,-12.83 5.90,-12.64 5.93,-12.43 5.97,-12.22 5.93,-12.01 5.90,-11.81 5.80,-11.62 5.70,-11.43 5.54,-11.29 5.38,-11.14 5.19,-11.05 5.00,-10.96 4.79,-10.94 4.58,-10.92 4.37,-10.97 4.16,-11.01 3.98,-11.13 3.80,-11.24 3.66,-11.40 3.53,-11.56 3.53,-11.56 3.53,-11.56 1.74,-12.32 -0.04,-13.07 -0.29,-13.10 -0.55,-13.13 -0.79,-13.23 -1.03,-13.32 -1.24,-13.46 -1.45,-13.61 -1.61,-13.80 -1.78,-14.00 -1.90,-14.22 -2.02,-14.45 -2.08,-14.70 -2.14,-14.95 -2.14,-15.20 -2.14,-15.46 -2.07,-15.71 -2.01,-15.96 -1.89,-16.18 -1.77,-16.41 -1.60,-16.60 -1.43,-16.79 -1.22,-16.93 -1.01,-17.08 -0.77,-17.17 -0.53,-17.26 -0.27,-17.29 -0.02,-17.32 1.17,-17.31 2.36,-17.31 3.43,-17.30 4.49,-17.29 6.33,-17.22 8.17,-17.15 9.41,-17.01 10.65,-16.87 11.88,-16.59 13.11,-16.31 14.82,-15.99 16.53,-15.67 18.49,-15.62 20.45,-15.57 23.44,-15.44 26.43,-15.32 30.08,-15.03 33.74,-14.75 38.14,-14.61 42.55,-14.47 47.98,-14.15 53.40,-13.83 57.55,-13.61 61.70,-13.39 68.13,-12.88 74.56,-12.37 85.95,-11.72 97.34,-11.07 105.14,-10.61 112.94,-10.16 120.07,-10.16 127.20,-10.15 133.16,-10.15 139.11,-10.15 142.85,-10.15 146.58,-10.16 149.41,-10.16 152.23,-10.17 154.00,-10.19 155.76,-10.21 157.09,-10.04 158.43,-9.87 159.37,-8.51 160.31,-7.15 160.14,-5.85 159.97,-4.55 159.12,-2.25 158.28,0.03 157.32,3.44 156.37,6.85 155.21,11.07 154.05,15.29 152.92,19.86 151.79,24.43 150.71,28.84 149.64,33.24 148.23,36.93 146.82,40.63 145.78,42.59 144.74,44.56 143.18,46.67 141.63,48.78 140.53,49.66 139.44,50.55 138.23,50.63 137.03,50.72 135.71,50.56 134.40,50.40 131.85,50.03 129.30,49.65 125.07,48.79 120.85,47.93 115.76,46.98 110.67,46.03 104.12,44.88 97.56,43.74 89.67,42.65 81.77,41.56 72.34,40.61 62.91,39.66 51.99,39.05 41.07,38.44 33.21,38.07 25.35,37.70 18.77,37.39 12.19,37.08 6.87,36.87 1.55,36.66 -2.44,36.05 -6.44,35.45 -7.73,34.39 -9.01,33.32 -9.32,31.39 -9.62,29.45 -9.27,27.32 -8.92,25.19 -8.11,21.95 -7.31,18.72 -5.99,14.50 -4.67,10.28 -3.76,7.49 -2.86,4.70 -2.30,2.19 -1.73,-0.31 -1.67,-0.51 -1.61,-0.72 -1.50,-0.90 -1.39,-1.08 -1.24,-1.23 -1.09,-1.38 -0.90,-1.49 -0.72,-1.60 -0.52,-1.67 -0.32,-1.73 -0.10,-1.74 0.10,-1.76 0.31,-1.72 0.52,-1.68 0.71,-1.59 0.91,-1.51 1.07,-1.38 1.24,-1.24 1.37,-1.08 1.50,-0.91 1.59,-0.72 1.68,-0.52 1.72,-0.31 1.76,-0.10 1.74,0.10 1.73,0.31 1.73,0.31 L 1.73,0.31 Z"></path></g><g transform="translate(600.4000244140625 603.8124694824219) rotate(0 17.199981689453125 -3.5999755859375)" stroke="none"><path fill="#000" d="M -0.53,-1.59 Q -0.53,-1.59 1.49,-2.40 3.52,-3.21 6.72,-4.20 9.92,-5.19 14.84,-6.10 19.75,-7.01 23.42,-7.58 27.09,-8.16 29.40,-8.27 31.70,-8.39 33.42,-8.41 35.13,-8.43 35.34,-8.42 35.56,-8.40 35.75,-8.32 35.95,-8.24 36.11,-8.10 36.27,-7.96 36.37,-7.78 36.48,-7.59 36.52,-7.38 36.56,-7.18 36.54,-6.97 36.51,-6.75 36.42,-6.56 36.33,-6.37 36.18,-6.22 36.03,-6.07 35.84,-5.97 35.65,-5.88 35.44,-5.84 35.23,-5.81 35.02,-5.85 34.81,-5.89 34.63,-5.99 34.44,-6.09 34.30,-6.25 34.15,-6.41 34.07,-6.60 33.98,-6.80 33.96,-7.01 33.94,-7.22 33.99,-7.43 34.04,-7.63 34.15,-7.81 34.27,-7.99 34.43,-8.13 34.59,-8.26 34.79,-8.34 34.99,-8.41 35.20,-8.42 35.42,-8.43 35.62,-8.37 35.82,-8.31 36.00,-8.19 36.17,-8.06 36.30,-7.89 36.42,-7.72 36.49,-7.52 36.55,-7.32 36.55,-7.10 36.54,-6.89 36.47,-6.69 36.40,-6.49 36.27,-6.33 36.14,-6.16 35.96,-6.04 35.78,-5.93 35.58,-5.87 35.37,-5.82 35.37,-5.82 35.37,-5.82 33.72,-5.53 32.06,-5.24 29.88,-4.85 27.71,-4.45 24.08,-3.82 20.45,-3.19 15.76,-2.34 11.07,-1.49 7.91,-0.51 4.75,0.45 2.64,1.02 0.53,1.59 0.33,1.63 0.13,1.67 -0.06,1.66 -0.27,1.66 -0.46,1.60 -0.66,1.54 -0.83,1.44 -1.01,1.34 -1.15,1.20 -1.30,1.06 -1.41,0.89 -1.52,0.72 -1.58,0.52 -1.64,0.33 -1.66,0.13 -1.68,-0.06 -1.64,-0.26 -1.61,-0.46 -1.53,-0.65 -1.45,-0.84 -1.33,-1.00 -1.21,-1.16 -1.05,-1.29 -0.89,-1.42 -0.71,-1.50 -0.53,-1.59 -0.53,-1.59 L -0.53,-1.59 Z"></path></g><g transform="translate(621.2000122070312 603.0124816894531) rotate(0 -1.600006103515625 12)" stroke="none"><path fill="#000" d="M 1.53,0.12 Q 1.53,0.12 1.50,2.90 1.46,5.68 1.37,8.19 1.29,10.70 1.25,13.14 1.21,15.59 0.95,17.46 0.69,19.33 -0.80,21.74 -2.30,24.16 -2.48,24.26 -2.66,24.37 -2.87,24.41 -3.08,24.45 -3.29,24.43 -3.50,24.40 -3.69,24.31 -3.88,24.22 -4.04,24.07 -4.19,23.92 -4.28,23.73 -4.38,23.54 -4.41,23.33 -4.44,23.12 -4.41,22.91 -4.37,22.70 -4.27,22.52 -4.16,22.33 -4.01,22.19 -3.85,22.04 -3.66,21.96 -3.46,21.87 -3.25,21.85 -3.04,21.83 -2.83,21.88 -2.63,21.93 -2.45,22.04 -2.27,22.15 -2.13,22.32 -2.00,22.48 -1.92,22.68 -1.84,22.88 -1.84,23.09 -1.83,23.30 -1.89,23.51 -1.95,23.71 -2.07,23.88 -2.19,24.06 -2.36,24.19 -2.53,24.31 -2.73,24.38 -2.94,24.44 -3.15,24.44 -3.36,24.43 -3.56,24.36 -3.76,24.29 -3.93,24.16 -4.10,24.03 -4.21,23.85 -4.33,23.68 -4.38,23.47 -4.44,23.26 -4.42,23.05 -4.41,22.84 -4.33,22.64 -4.25,22.45 -4.11,22.29 -3.97,22.13 -3.97,22.13 -3.97,22.13 -3.56,20.43 -3.16,18.73 -2.92,17.12 -2.69,15.52 -2.64,13.03 -2.60,10.55 -2.49,7.95 -2.38,5.35 -1.96,2.61 -1.53,-0.12 -1.49,-0.31 -1.46,-0.49 -1.38,-0.65 -1.30,-0.82 -1.18,-0.97 -1.06,-1.11 -0.91,-1.22 -0.76,-1.33 -0.59,-1.40 -0.42,-1.48 -0.24,-1.51 -0.05,-1.54 0.12,-1.52 0.31,-1.50 0.48,-1.45 0.66,-1.39 0.82,-1.29 0.97,-1.19 1.10,-1.05 1.23,-0.92 1.32,-0.76 1.41,-0.60 1.47,-0.42 1.52,-0.24 1.52,-0.05 1.53,0.12 1.53,0.12 L 1.53,0.12 Z"></path></g><g transform="translate(632.4000244140625 617.4125061035156) rotate(0 7.199981689453125 1.999969482421875)" stroke="none"><path fill="#000" d="M -1.70,-0.85 Q -1.70,-0.85 -0.94,-2.19 -0.18,-3.53 -0.13,-4.41 -0.09,-5.29 0.01,-5.50 0.12,-5.71 0.27,-5.89 0.42,-6.07 0.62,-6.21 0.81,-6.34 1.03,-6.43 1.25,-6.52 1.48,-6.55 1.72,-6.58 1.95,-6.56 2.19,-6.53 2.41,-6.45 2.63,-6.38 2.83,-6.24 3.03,-6.11 3.19,-5.94 3.35,-5.76 3.46,-5.56 3.57,-5.35 3.63,-5.12 3.69,-4.89 3.70,-4.66 3.70,-4.42 3.65,-4.19 3.60,-3.96 2.56,-2.21 1.52,-0.45 0.71,1.26 -0.08,2.98 -0.38,4.26 -0.69,5.53 1.11,5.50 2.92,5.47 4.99,4.39 7.05,3.32 8.58,2.20 10.11,1.09 11.26,0.11 12.40,-0.85 12.59,-0.96 12.79,-1.07 13.00,-1.13 13.22,-1.19 13.44,-1.20 13.66,-1.20 13.88,-1.16 14.10,-1.11 14.30,-1.01 14.50,-0.91 14.67,-0.77 14.84,-0.63 14.97,-0.45 15.10,-0.27 15.19,-0.06 15.27,0.13 15.31,0.35 15.34,0.57 15.32,0.79 15.30,1.01 15.23,1.23 15.15,1.44 15.03,1.62 14.91,1.81 14.75,1.96 14.59,2.11 13.52,3.09 12.45,4.07 11.68,5.08 10.91,6.08 9.49,5.87 8.07,5.66 9.15,4.74 10.23,3.83 11.66,2.89 13.09,1.94 15.73,1.87 18.37,1.80 18.63,4.65 18.88,7.51 18.86,7.72 18.84,7.93 18.75,8.12 18.66,8.32 18.52,8.47 18.38,8.63 18.19,8.73 18.00,8.83 17.79,8.87 17.58,8.91 17.37,8.88 17.16,8.84 16.98,8.75 16.79,8.65 16.64,8.50 16.49,8.35 16.40,8.15 16.31,7.96 16.28,7.75 16.26,7.54 16.30,7.33 16.34,7.12 16.45,6.94 16.56,6.76 16.72,6.62 16.88,6.48 17.07,6.40 17.27,6.32 17.48,6.30 17.69,6.29 17.90,6.34 18.10,6.40 18.28,6.51 18.46,6.63 18.59,6.80 18.72,6.97 18.79,7.17 18.86,7.37 18.86,7.58 18.87,7.79 18.80,7.99 18.74,8.20 18.61,8.37 18.48,8.54 18.31,8.66 18.13,8.78 17.93,8.84 17.73,8.90 17.51,8.89 17.30,8.88 17.10,8.80 16.91,8.73 16.74,8.59 16.58,8.46 16.47,8.28 16.35,8.10 16.31,7.89 16.26,7.68 16.26,7.68 16.26,7.68 15.73,6.46 15.19,5.23 14.11,5.90 13.02,6.57 10.97,7.87 8.92,9.17 7.62,7.86 6.32,6.55 7.01,5.02 7.71,3.48 8.71,2.31 9.71,1.14 11.06,0.14 12.40,-0.85 12.59,-0.96 12.79,-1.07 13.00,-1.13 13.22,-1.19 13.44,-1.20 13.66,-1.20 13.88,-1.16 14.10,-1.11 14.30,-1.01 14.50,-0.91 14.67,-0.77 14.84,-0.63 14.97,-0.45 15.10,-0.27 15.19,-0.06 15.27,0.13 15.31,0.35 15.34,0.57 15.32,0.79 15.30,1.01 15.23,1.23 15.15,1.44 15.03,1.62 14.91,1.81 14.75,1.96 14.59,2.11 13.43,3.07 12.27,4.03 10.55,5.31 8.82,6.58 6.48,7.88 4.14,9.18 1.66,9.78 -0.80,10.39 -2.53,9.35 -4.26,8.30 -4.44,6.42 -4.61,4.54 -4.17,2.89 -3.74,1.25 -2.80,-0.65 -1.87,-2.55 -0.98,-3.92 -0.09,-5.28 0.01,-5.50 0.12,-5.71 0.27,-5.89 0.42,-6.07 0.62,-6.20 0.81,-6.34 1.03,-6.43 1.25,-6.52 1.48,-6.55 1.72,-6.58 1.95,-6.56 2.19,-6.53 2.41,-6.46 2.63,-6.38 2.83,-6.24 3.03,-6.11 3.19,-5.94 3.35,-5.76 3.46,-5.56 3.57,-5.35 3.63,-5.12 3.69,-4.89 3.70,-4.66 3.70,-4.42 3.65,-4.19 3.60,-3.96 3.52,-4.34 3.44,-4.73 3.19,-3.35 2.94,-1.98 2.32,-0.56 1.70,0.85 1.58,1.04 1.45,1.23 1.28,1.39 1.11,1.55 0.91,1.66 0.71,1.77 0.48,1.83 0.26,1.89 0.03,1.89 -0.19,1.89 -0.41,1.84 -0.64,1.79 -0.84,1.69 -1.05,1.59 -1.22,1.44 -1.40,1.29 -1.53,1.10 -1.67,0.92 -1.75,0.70 -1.84,0.49 -1.87,0.26 -1.90,0.03 -1.88,-0.19 -1.86,-0.42 -1.78,-0.63 -1.70,-0.85 -1.70,-0.85 L -1.70,-0.85 Z"></path></g><g transform="translate(660.4000244140625 619.0124816894531) rotate(0 3.600006103515625 4)" stroke="none"><path fill="#000" d="M 1.62,1.01 Q 1.62,1.01 0.52,2.80 -0.57,4.59 1.91,4.40 4.40,4.20 6.97,3.33 9.54,2.46 9.75,2.41 9.96,2.36 10.17,2.38 10.38,2.40 10.57,2.49 10.77,2.57 10.92,2.72 11.08,2.86 11.18,3.05 11.28,3.24 11.32,3.44 11.36,3.65 11.33,3.86 11.29,4.07 11.20,4.26 11.10,4.45 10.95,4.60 10.79,4.75 10.60,4.84 10.41,4.93 10.20,4.96 9.99,4.98 9.78,4.94 9.57,4.90 9.39,4.79 9.21,4.68 9.07,4.52 8.93,4.36 8.85,4.16 8.77,3.97 8.75,3.76 8.74,3.54 8.79,3.34 8.85,3.13 8.96,2.96 9.08,2.78 9.25,2.65 9.42,2.52 9.62,2.45 9.82,2.38 10.03,2.37 10.24,2.37 10.44,2.44 10.65,2.50 10.82,2.63 10.99,2.76 11.11,2.93 11.23,3.10 11.29,3.31 11.35,3.51 11.34,3.72 11.33,3.94 11.25,4.14 11.18,4.33 11.04,4.50 10.91,4.66 10.73,4.77 10.54,4.88 10.55,4.88 10.55,4.88 7.90,6.16 5.25,7.44 2.07,8.21 -1.10,8.99 -2.47,8.01 -3.83,7.03 -3.93,4.89 -4.02,2.76 -2.82,0.87 -1.62,-1.01 -1.47,-1.19 -1.33,-1.37 -1.14,-1.51 -0.96,-1.65 -0.75,-1.74 -0.54,-1.83 -0.31,-1.87 -0.08,-1.91 0.14,-1.89 0.37,-1.87 0.59,-1.80 0.81,-1.73 1.00,-1.61 1.20,-1.48 1.36,-1.32 1.52,-1.15 1.63,-0.95 1.75,-0.75 1.82,-0.53 1.88,-0.31 1.89,-0.08 1.90,0.14 1.86,0.37 1.81,0.59 1.72,0.80 1.62,1.01 1.62,1.01 L 1.62,1.01 Z"></path></g><g transform="translate(678 603.8124694824219) rotate(0 22.000030517578125 14)" stroke="none"><path fill="#000" d="M 0.53,1.25 Q 0.53,1.25 -0.86,2.10 -2.27,2.94 -2.77,4.27 -3.27,5.59 -3.26,8.67 -3.26,11.75 -2.86,14.66 -2.47,17.57 -2.07,19.99 -1.67,22.42 -1.53,23.88 -1.40,25.34 -0.84,26.08 -0.28,26.81 -0.28,27.07 -0.28,27.32 -0.35,27.57 -0.41,27.82 -0.53,28.04 -0.65,28.27 -0.82,28.46 -0.99,28.65 -1.20,28.79 -1.41,28.93 -1.65,29.02 -1.89,29.11 -2.15,29.14 -2.40,29.17 -2.65,29.13 -2.91,29.10 -3.14,29.01 -3.38,28.91 -3.59,28.77 -3.80,28.62 -3.97,28.43 -4.13,28.23 -4.25,28.01 -4.37,27.78 -4.43,27.53 -4.48,27.28 -3.46,25.76 -2.44,24.24 -1.53,23.15 -0.62,22.07 0.25,20.91 1.12,19.74 2.99,19.04 4.85,18.35 5.87,18.87 6.89,19.39 7.66,20.85 8.43,22.30 9.64,23.38 10.84,24.46 12.71,24.01 14.58,23.56 15.38,22.51 16.18,21.46 16.75,20.36 17.32,19.27 17.53,18.95 17.74,18.63 17.89,18.42 18.04,18.22 18.23,18.05 18.42,17.89 18.64,17.78 18.87,17.66 19.11,17.61 19.36,17.55 19.61,17.56 19.86,17.56 20.10,17.62 20.35,17.69 20.57,17.81 20.79,17.93 20.97,18.10 21.16,18.27 21.30,18.48 21.44,18.69 21.52,18.92 21.61,19.16 21.63,19.41 21.66,19.66 21.62,19.91 21.59,20.16 21.50,20.39 21.40,20.63 22.08,21.84 22.76,23.05 23.86,23.85 24.97,24.65 27.23,23.31 29.49,21.98 31.21,21.29 32.93,20.59 34.77,20.27 36.60,19.95 39.76,20.78 42.92,21.62 46.09,22.79 49.26,23.96 49.45,24.04 49.65,24.13 49.80,24.27 49.96,24.41 50.07,24.60 50.17,24.78 50.21,24.99 50.25,25.20 50.22,25.41 50.20,25.62 50.10,25.81 50.01,26.00 49.86,26.15 49.71,26.30 49.52,26.40 49.33,26.49 49.12,26.52 48.91,26.55 48.70,26.51 48.49,26.47 48.30,26.36 48.12,26.26 47.98,26.10 47.83,25.94 47.75,25.75 47.67,25.55 47.65,25.34 47.63,25.13 47.68,24.92 47.73,24.72 47.85,24.54 47.96,24.36 48.13,24.23 48.29,24.09 48.49,24.02 48.69,23.95 48.90,23.94 49.12,23.93 49.32,24.00 49.52,24.06 49.69,24.18 49.87,24.31 49.99,24.48 50.12,24.65 50.18,24.85 50.24,25.06 50.24,25.27 50.23,25.48 50.16,25.68 50.08,25.88 49.95,26.05 49.82,26.21 49.64,26.33 49.46,26.44 49.25,26.49 49.05,26.54 48.84,26.53 48.62,26.51 48.62,26.51 48.62,26.51 45.19,26.04 41.76,25.58 39.42,24.80 37.09,24.02 35.76,24.22 34.42,24.42 33.00,24.96 31.58,25.51 29.88,26.49 28.18,27.48 26.22,28.02 24.25,28.56 22.47,27.88 20.68,27.19 19.80,26.00 18.92,24.81 18.32,23.38 17.73,21.96 17.73,20.29 17.74,18.63 17.89,18.42 18.04,18.22 18.23,18.05 18.42,17.89 18.64,17.78 18.87,17.66 19.11,17.61 19.36,17.55 19.61,17.56 19.86,17.56 20.10,17.62 20.35,17.69 20.57,17.81 20.79,17.93 20.97,18.10 21.16,18.27 21.30,18.48 21.44,18.69 21.52,18.92 21.61,19.16 21.63,19.41 21.66,19.66 21.62,19.91 21.59,20.16 21.50,20.39 21.40,20.63 21.04,20.89 20.68,21.15 19.91,22.51 19.14,23.87 17.88,25.34 16.61,26.81 14.74,27.79 12.87,28.76 10.77,28.41 8.67,28.07 7.40,27.17 6.13,26.27 5.20,24.23 4.28,22.19 3.40,23.42 2.52,24.65 1.11,25.73 -0.28,26.81 -0.28,27.07 -0.28,27.32 -0.35,27.57 -0.41,27.82 -0.53,28.04 -0.65,28.27 -0.82,28.46 -0.99,28.65 -1.20,28.79 -1.41,28.93 -1.65,29.02 -1.89,29.11 -2.15,29.14 -2.40,29.17 -2.65,29.13 -2.91,29.10 -3.14,29.01 -3.38,28.91 -3.59,28.77 -3.80,28.62 -3.97,28.43 -4.13,28.23 -4.25,28.01 -4.37,27.78 -4.43,27.53 -4.48,27.28 -4.99,26.74 -5.49,26.19 -5.69,24.64 -5.89,23.10 -6.29,20.60 -6.68,18.10 -7.07,14.84 -7.46,11.57 -7.14,7.71 -6.81,3.86 -5.49,1.83 -4.16,-0.18 -2.35,-0.72 -0.53,-1.25 -0.37,-1.30 -0.22,-1.34 -0.05,-1.35 0.10,-1.36 0.26,-1.32 0.42,-1.29 0.57,-1.22 0.72,-1.15 0.85,-1.05 0.98,-0.94 1.08,-0.81 1.18,-0.68 1.24,-0.53 1.31,-0.38 1.33,-0.22 1.36,-0.05 1.35,0.10 1.33,0.27 1.28,0.42 1.23,0.58 1.14,0.72 1.05,0.86 0.94,0.97 0.82,1.08 0.68,1.17 0.53,1.25 0.53,1.25 L 0.53,1.25 Z"></path></g><g transform="translate(1030 621.4125061035156) rotate(0 -0.39996337890625 -2.800018310546875)" stroke="none"><path fill="#000" d="M 1.44,-0.45 Q 1.44,-0.45 1.46,-0.08 1.49,0.27 1.34,0.60 1.19,0.93 0.90,1.15 0.62,1.38 0.26,1.44 -0.09,1.51 -0.43,1.40 -0.78,1.29 -1.04,1.04 -1.29,0.78 -1.40,0.43 -1.51,0.09 -1.44,-0.26 -1.38,-0.62 -1.15,-0.90 -0.93,-1.19 -0.60,-1.34 -0.27,-1.49 0.08,-1.46 0.45,-1.44 0.76,-1.25 1.07,-1.07 1.25,-0.76 L 1.44,-0.45 Z"></path></g><g transform="translate(1027.5999755859375 606.2124938964844) rotate(0 50.800048828125 32.800018310546875)" stroke="none"><path fill="#000" d="M -0.51,1.29 Q -0.51,1.29 -1.47,1.03 -2.42,0.78 -2.91,3.68 -3.39,6.58 -4.80,11.54 -6.20,16.50 -7.73,21.39 -9.25,26.27 -11.06,31.15 -12.86,36.04 -14.80,40.24 -16.75,44.44 -18.24,47.79 -19.74,51.14 -20.64,52.86 -21.53,54.58 -19.17,55.11 -16.81,55.63 -13.97,56.03 -11.13,56.42 -7.48,56.58 -3.84,56.74 1.21,57.05 6.27,57.35 12.32,57.71 18.38,58.07 27.40,58.68 36.42,59.29 44.87,60.02 53.32,60.74 61.06,61.51 68.80,62.27 75.51,62.83 82.22,63.39 88.75,63.86 95.28,64.32 99.42,64.52 103.55,64.72 106.45,64.80 109.34,64.89 111.26,64.92 113.18,64.96 114.46,64.98 115.73,64.99 116.84,65.09 117.95,65.18 117.82,63.22 117.70,61.25 117.75,59.06 117.80,56.87 118.30,52.15 118.80,47.43 119.25,42.49 119.70,37.55 120.36,32.86 121.02,28.17 121.76,24.31 122.50,20.44 123.04,17.46 123.58,14.47 123.57,13.17 123.56,11.86 121.58,11.19 119.60,10.51 117.47,10.40 115.34,10.28 112.77,10.21 110.20,10.15 106.97,9.88 103.73,9.62 99.90,9.52 96.07,9.41 91.40,9.13 86.73,8.86 79.90,8.29 73.07,7.72 67.20,7.25 61.32,6.79 55.88,6.59 50.43,6.39 45.36,6.30 40.29,6.22 34.45,6.18 28.62,6.14 24.02,5.90 19.41,5.65 15.67,5.56 11.92,5.46 8.87,5.18 5.81,4.90 2.99,4.79 0.16,4.68 -1.85,4.40 -3.87,4.12 -4.92,4.00 -5.96,3.88 -6.21,3.81 -6.46,3.74 -6.68,3.62 -6.90,3.49 -7.09,3.32 -7.28,3.14 -7.42,2.93 -7.56,2.71 -7.65,2.47 -7.73,2.23 -7.76,1.97 -7.78,1.72 -7.74,1.46 -7.71,1.21 -7.61,0.97 -7.51,0.74 -7.36,0.53 -7.21,0.32 -7.02,0.15 -6.82,-0.00 -6.59,-0.11 -6.36,-0.23 -6.11,-0.28 -5.86,-0.34 -5.60,-0.33 -5.34,-0.33 -4.58,0.81 -3.81,1.96 -4.04,2.52 -4.26,3.08 -4.27,3.24 -4.27,3.40 -4.32,3.56 -4.36,3.72 -4.44,3.86 -4.52,4.00 -4.63,4.12 -4.74,4.24 -4.88,4.32 -5.01,4.41 -5.17,4.47 -5.32,4.52 -5.48,4.53 -5.64,4.55 -5.80,4.52 -5.96,4.50 -6.11,4.44 -6.26,4.38 -6.40,4.28 -6.53,4.18 -6.63,4.06 -6.74,3.94 -6.81,3.79 -6.88,3.64 -6.91,3.49 -6.95,3.33 -4.99,1.77 -3.03,0.22 -2.83,0.14 -2.63,0.07 -2.42,0.06 -2.21,0.06 -2.00,0.12 -1.80,0.18 -1.63,0.30 -1.46,0.43 -1.33,0.60 -1.21,0.77 -1.14,0.97 -1.08,1.17 -1.08,1.39 -1.09,1.60 -1.16,1.80 -1.23,2.00 -1.37,2.17 -1.50,2.33 -1.68,2.45 -1.85,2.56 -2.06,2.61 -2.27,2.67 -2.48,2.65 -2.69,2.63 -2.89,2.55 -3.08,2.47 -3.24,2.33 -3.40,2.19 -3.50,2.00 -3.61,1.82 -3.65,1.61 -3.69,1.40 -3.66,1.19 -3.64,0.98 -3.54,0.79 -3.45,0.60 -3.30,0.45 -3.15,0.29 -2.96,0.20 -2.77,0.10 -2.56,0.07 -2.35,0.05 -2.14,0.08 -1.93,0.12 -1.75,0.23 -1.56,0.33 -1.42,0.49 -1.28,0.65 -1.19,0.84 -1.11,1.04 -1.09,1.25 -1.07,1.46 -1.12,1.67 -1.17,1.87 -1.28,2.05 -1.40,2.23 -1.56,2.36 -1.73,2.50 -1.73,2.50 -1.73,2.50 -3.00,2.79 -4.26,3.08 -4.27,3.24 -4.27,3.40 -4.32,3.56 -4.36,3.72 -4.44,3.86 -4.52,4.00 -4.63,4.12 -4.74,4.24 -4.88,4.32 -5.01,4.41 -5.17,4.47 -5.32,4.52 -5.48,4.53 -5.64,4.55 -5.80,4.52 -5.96,4.50 -6.11,4.44 -6.26,4.38 -6.40,4.28 -6.53,4.18 -6.63,4.06 -6.74,3.94 -6.81,3.79 -6.88,3.64 -6.91,3.49 -6.95,3.33 -7.19,2.81 -7.43,2.30 -6.70,3.09 -5.96,3.88 -6.21,3.81 -6.46,3.74 -6.68,3.62 -6.90,3.49 -7.09,3.32 -7.28,3.14 -7.42,2.93 -7.56,2.71 -7.65,2.47 -7.73,2.23 -7.76,1.97 -7.78,1.72 -7.75,1.47 -7.71,1.21 -7.61,0.97 -7.51,0.74 -7.36,0.53 -7.21,0.32 -7.02,0.15 -6.82,-0.00 -6.59,-0.11 -6.36,-0.23 -6.11,-0.28 -5.86,-0.34 -5.60,-0.33 -5.34,-0.33 -4.30,-0.21 -3.26,-0.09 -1.46,0.18 0.34,0.45 3.27,0.58 6.20,0.70 9.12,0.97 12.03,1.24 15.84,1.35 19.64,1.46 24.14,1.71 28.65,1.95 34.50,1.99 40.36,2.03 45.47,2.11 50.59,2.20 56.12,2.40 61.66,2.61 67.54,3.09 73.43,3.58 80.20,4.17 86.98,4.75 91.58,5.03 96.19,5.30 100.13,5.42 104.06,5.53 107.19,5.79 110.31,6.04 112.96,6.11 115.62,6.18 118.20,6.39 120.79,6.59 122.85,7.37 124.92,8.16 125.84,8.84 126.77,9.52 127.20,10.65 127.63,11.78 127.62,13.48 127.60,15.19 127.06,18.20 126.52,21.22 125.79,24.97 125.07,28.73 124.44,33.32 123.81,37.91 123.39,42.89 122.97,47.86 122.50,52.41 122.04,56.97 122.00,59.27 121.95,61.58 121.54,64.15 121.12,66.72 119.96,67.96 118.79,69.20 117.23,69.28 115.68,69.35 114.39,69.34 113.10,69.33 111.16,69.29 109.22,69.25 106.28,69.17 103.34,69.08 99.16,68.89 94.97,68.69 88.42,68.22 81.86,67.75 75.11,67.20 68.36,66.65 60.65,65.89 52.95,65.12 44.53,64.40 36.12,63.69 27.12,63.07 18.12,62.46 12.06,62.10 6.01,61.74 0.98,61.45 -4.04,61.15 -7.89,60.97 -11.74,60.79 -14.63,60.38 -17.53,59.98 -20.24,59.48 -22.94,58.99 -24.13,58.30 -25.31,57.61 -25.73,56.63 -26.16,55.64 -25.82,54.07 -25.49,52.51 -24.65,50.91 -23.81,49.32 -22.30,45.94 -20.79,42.57 -18.90,38.53 -17.01,34.49 -15.22,29.72 -13.43,24.96 -11.90,20.13 -10.38,15.30 -8.93,10.39 -7.49,5.48 -6.73,2.86 -5.96,0.23 -5.16,-0.89 -4.36,-2.02 -3.27,-2.32 -2.17,-2.62 -0.82,-1.95 0.51,-1.29 0.66,-1.21 0.81,-1.13 0.93,-1.01 1.05,-0.90 1.15,-0.76 1.24,-0.62 1.29,-0.46 1.35,-0.30 1.37,-0.14 1.39,0.02 1.36,0.19 1.34,0.35 1.28,0.51 1.21,0.66 1.12,0.80 1.02,0.94 0.89,1.05 0.76,1.15 0.61,1.23 0.46,1.30 0.30,1.34 0.14,1.38 -0.02,1.38 -0.19,1.37 -0.35,1.33 -0.51,1.29 -0.51,1.29 L -0.51,1.29 Z"></path></g><g transform="translate(1035.5999755859375 637.4125061035156) rotate(0 -15.199951171875 2.79998779296875)" stroke="none"><path fill="#000" d="M -1.63,0.23 Q -1.63,0.23 -1.96,-1.36 -2.29,-2.95 -2.86,-4.46 -3.43,-5.97 -4.89,-6.53 -6.36,-7.09 -8.43,-6.35 -10.51,-5.61 -11.65,-4.71 -12.79,-3.81 -13.67,-2.82 -14.55,-1.84 -12.45,-1.08 -10.35,-0.33 -8.84,0.68 -7.32,1.70 -6.04,3.23 -4.76,4.76 -3.97,6.17 -3.19,7.58 -2.80,9.07 -2.42,10.57 -2.84,12.09 -3.26,13.62 -5.00,14.57 -6.75,15.52 -9.14,16.03 -11.54,16.54 -15.35,16.06 -19.15,15.57 -22.09,14.86 -25.03,14.15 -26.79,13.52 -28.54,12.88 -28.57,9.86 -28.60,6.83 -28.44,6.69 -28.28,6.55 -28.08,6.47 -27.88,6.39 -27.67,6.37 -27.46,6.36 -27.25,6.41 -27.05,6.47 -26.87,6.58 -26.69,6.70 -26.56,6.87 -26.43,7.03 -26.36,7.23 -26.29,7.43 -26.29,7.65 -26.28,7.86 -26.35,8.06 -26.41,8.26 -26.54,8.43 -26.67,8.61 -26.84,8.73 -27.01,8.85 -27.22,8.91 -27.42,8.97 -27.64,8.96 -27.85,8.95 -28.05,8.88 -28.24,8.80 -28.41,8.66 -28.57,8.53 -28.68,8.35 -28.80,8.17 -28.84,7.96 -28.89,7.75 -28.87,7.54 -28.85,7.33 -28.77,7.14 -28.68,6.94 -28.54,6.79 -28.39,6.63 -28.21,6.53 -28.02,6.43 -27.81,6.39 -27.60,6.35 -27.39,6.38 -27.18,6.41 -26.99,6.51 -26.80,6.61 -26.65,6.76 -26.51,6.91 -26.41,7.10 -26.32,7.30 -26.30,7.51 -26.27,7.72 -26.31,7.93 -26.36,8.13 -26.46,8.32 -26.57,8.50 -26.57,8.50 -26.57,8.50 -26.93,8.97 -27.30,9.43 -25.71,9.83 -24.11,10.22 -21.34,10.85 -18.57,11.48 -15.44,11.98 -12.30,12.48 -10.26,12.07 -8.23,11.65 -7.52,10.58 -6.81,9.51 -7.39,8.41 -7.97,7.32 -8.81,6.19 -9.66,5.07 -10.97,4.18 -12.29,3.29 -13.31,2.73 -14.32,2.18 -15.71,1.66 -17.11,1.14 -17.94,-0.72 -18.78,-2.59 -18.19,-3.61 -17.61,-4.64 -16.44,-5.87 -15.27,-7.11 -13.76,-8.19 -12.24,-9.27 -10.37,-10.05 -8.50,-10.84 -6.71,-10.80 -4.93,-10.75 -3.72,-10.21 -2.50,-9.66 -0.90,-7.85 0.68,-6.03 1.03,-4.75 1.37,-3.48 1.50,-1.85 1.63,-0.23 1.63,-0.03 1.63,0.16 1.59,0.35 1.55,0.55 1.46,0.72 1.37,0.90 1.24,1.05 1.11,1.20 0.95,1.32 0.79,1.44 0.61,1.51 0.42,1.59 0.23,1.61 0.03,1.64 -0.16,1.62 -0.36,1.60 -0.54,1.54 -0.73,1.47 -0.90,1.36 -1.06,1.25 -1.20,1.10 -1.33,0.96 -1.43,0.78 -1.52,0.61 -1.57,0.42 -1.63,0.23 -1.63,0.23 L -1.63,0.23 Z"></path></g><g transform="translate(1038 627.0124816894531) rotate(0 1.60003662109375 14)" stroke="none"><path fill="#000" d="M 1.73,-0.34 Q 1.73,-0.34 2.29,1.93 2.85,4.21 3.08,6.91 3.30,9.62 3.39,12.14 3.48,14.66 3.52,17.58 3.55,20.49 3.56,22.41 3.57,24.33 3.80,25.63 4.04,26.93 4.14,27.12 4.24,27.31 4.27,27.52 4.30,27.73 4.26,27.94 4.23,28.15 4.13,28.34 4.02,28.52 3.87,28.67 3.71,28.81 3.52,28.90 3.33,28.98 3.11,29.01 2.90,29.03 2.70,28.98 2.49,28.93 2.31,28.82 2.13,28.71 1.99,28.54 1.85,28.38 1.78,28.18 1.70,27.98 1.69,27.77 1.68,27.56 1.74,27.36 1.80,27.15 1.92,26.98 2.04,26.80 2.21,26.68 2.38,26.55 2.59,26.48 2.79,26.42 3.00,26.42 3.21,26.42 3.41,26.49 3.62,26.56 3.78,26.69 3.95,26.82 4.07,27.00 4.19,27.18 4.24,27.38 4.29,27.59 4.28,27.80 4.27,28.01 4.19,28.21 4.11,28.41 3.97,28.57 3.83,28.73 3.64,28.83 3.46,28.94 3.25,28.98 3.04,29.03 2.83,29.00 2.62,28.98 2.43,28.89 2.24,28.79 2.09,28.65 1.93,28.50 1.93,28.50 1.93,28.50 0.76,26.44 -0.41,24.38 -0.43,22.46 -0.46,20.54 -0.49,17.67 -0.53,14.80 -0.61,12.36 -0.68,9.92 -0.85,7.45 -1.01,4.98 -1.37,2.66 -1.73,0.34 -1.75,0.13 -1.77,-0.07 -1.73,-0.28 -1.70,-0.49 -1.61,-0.69 -1.53,-0.89 -1.40,-1.06 -1.27,-1.23 -1.10,-1.36 -0.94,-1.50 -0.74,-1.59 -0.55,-1.68 -0.34,-1.72 -0.13,-1.76 0.07,-1.75 0.29,-1.74 0.49,-1.68 0.70,-1.62 0.88,-1.51 1.07,-1.41 1.22,-1.26 1.37,-1.11 1.49,-0.93 1.60,-0.75 1.67,-0.55 1.73,-0.34 1.73,-0.34 L 1.73,-0.34 Z"></path></g><g transform="translate(1038 643.0124816894531) rotate(0 55.60003662109375 2.399993896484375)" stroke="none"><path fill="#000" d="M -0.37,-1.88 Q -0.37,-1.88 1.92,-2.31 4.23,-2.74 6.22,-2.90 8.21,-3.06 11.38,-3.13 14.56,-3.20 17.17,-2.99 19.78,-2.78 21.69,-1.65 23.59,-0.52 24.76,1.04 25.93,2.61 26.44,4.63 26.95,6.66 26.90,8.55 26.86,10.44 28.41,9.93 29.96,9.43 31.79,8.76 33.62,8.10 34.66,7.81 35.70,7.52 36.95,7.60 38.20,7.69 39.15,8.49 40.10,9.30 41.77,9.86 43.44,10.42 45.76,10.34 48.09,10.27 50.75,10.02 53.40,9.77 55.67,9.47 57.93,9.16 59.37,8.81 60.82,8.46 61.02,8.45 61.23,8.45 61.43,8.49 61.63,8.54 61.82,8.63 62.00,8.72 62.16,8.85 62.32,8.98 62.44,9.15 62.56,9.32 62.64,9.51 62.71,9.70 62.74,9.90 62.77,10.11 62.75,10.31 62.73,10.52 62.67,10.71 62.60,10.90 62.49,11.08 62.37,11.25 62.22,11.39 62.07,11.53 61.89,11.63 61.71,11.73 61.51,11.78 61.31,11.84 60.02,11.43 58.73,11.03 57.56,10.97 56.38,10.90 54.78,11.07 53.19,11.24 51.60,11.55 50.01,11.87 48.68,12.54 47.34,13.22 47.11,13.26 46.89,13.30 46.67,13.29 46.44,13.27 46.23,13.20 46.01,13.14 45.82,13.02 45.63,12.90 45.47,12.74 45.31,12.58 45.19,12.38 45.08,12.19 45.01,11.97 44.95,11.76 44.93,11.53 44.92,11.31 44.96,11.08 45.01,10.86 45.10,10.66 45.19,10.45 45.33,10.27 45.47,10.10 45.65,9.96 45.83,9.82 46.04,9.73 46.25,9.64 47.87,9.80 49.49,9.95 51.31,9.39 53.13,8.82 55.53,7.71 57.92,6.61 60.42,4.42 62.91,2.22 64.33,-0.39 65.76,-3.01 66.34,-6.04 66.93,-9.08 66.73,-10.89 66.54,-12.70 65.88,-11.37 65.22,-10.04 64.76,-7.56 64.29,-5.09 63.87,-1.06 63.44,2.95 63.25,6.25 63.07,9.55 63.19,11.72 63.31,13.90 64.80,14.39 66.28,14.88 67.58,14.29 68.89,13.70 70.38,12.79 71.87,11.88 72.93,11.05 73.99,10.23 74.22,10.05 74.44,9.86 74.64,9.74 74.84,9.63 75.07,9.56 75.29,9.49 75.53,9.48 75.76,9.47 75.99,9.52 76.22,9.56 76.43,9.66 76.64,9.76 76.82,9.91 77.00,10.05 77.14,10.24 77.29,10.42 77.38,10.64 77.47,10.85 77.51,11.08 77.55,11.31 77.53,11.55 77.51,11.78 77.44,12.00 77.37,12.22 77.25,12.42 77.12,12.62 76.95,12.78 76.79,12.95 76.37,14.44 75.96,15.93 75.99,16.77 76.03,17.60 75.95,17.82 75.87,18.04 75.74,18.23 75.61,18.43 75.44,18.58 75.27,18.74 75.07,18.85 74.87,18.96 74.64,19.02 74.42,19.08 74.19,19.09 73.96,19.09 73.73,19.04 73.50,18.99 73.30,18.89 73.09,18.79 72.91,18.63 72.73,18.48 72.60,18.30 72.46,18.11 72.38,17.89 72.29,17.68 72.26,17.45 72.23,17.22 72.25,16.99 72.27,16.76 73.58,15.43 74.89,14.10 76.36,13.76 77.82,13.43 78.98,13.97 80.15,14.51 81.78,15.03 83.42,15.55 85.35,14.43 87.29,13.30 88.33,11.78 89.36,10.27 90.97,6.70 92.58,3.14 93.48,-0.35 94.39,-3.86 95.01,-6.97 95.63,-10.08 95.89,-11.89 96.14,-13.70 96.22,-13.91 96.29,-14.13 96.41,-14.32 96.53,-14.52 96.69,-14.67 96.86,-14.83 97.05,-14.95 97.25,-15.06 97.47,-15.13 97.69,-15.19 97.91,-15.20 98.14,-15.21 98.37,-15.17 98.59,-15.12 98.79,-15.02 99.00,-14.93 99.18,-14.78 99.35,-14.64 99.49,-14.46 99.63,-14.28 99.72,-14.07 99.81,-13.86 99.85,-13.63 99.88,-13.41 99.87,-13.18 99.85,-12.96 99.50,-11.93 99.16,-10.90 98.90,-8.25 98.64,-5.59 98.26,-1.86 97.87,1.86 97.48,5.31 97.09,8.76 96.92,11.76 96.76,14.77 96.89,16.31 97.02,17.86 99.80,16.77 102.58,15.68 104.38,14.02 106.18,12.36 107.25,11.37 108.32,10.38 108.74,10.19 109.17,10.01 109.36,9.87 109.56,9.72 109.78,9.63 110.00,9.54 110.24,9.51 110.48,9.47 110.72,9.49 110.96,9.52 111.19,9.60 111.42,9.68 111.62,9.81 111.82,9.94 111.99,10.12 112.15,10.30 112.27,10.51 112.39,10.72 112.45,10.95 112.51,11.18 112.52,11.43 112.52,11.67 112.47,11.90 112.42,12.14 112.31,12.36 112.21,12.57 112.05,12.76 111.89,12.94 111.27,15.17 110.64,17.40 109.84,18.54 109.03,19.69 106.98,20.74 104.93,21.80 104.73,21.86 104.52,21.92 104.31,21.92 104.10,21.91 103.90,21.84 103.70,21.77 103.53,21.63 103.37,21.50 103.25,21.32 103.14,21.14 103.09,20.94 103.03,20.73 103.05,20.52 103.07,20.31 103.15,20.11 103.23,19.92 103.37,19.76 103.52,19.60 103.70,19.50 103.89,19.39 104.09,19.35 104.30,19.31 104.51,19.34 104.72,19.36 104.91,19.46 105.11,19.55 105.26,19.70 105.41,19.85 105.50,20.04 105.60,20.23 105.63,20.44 105.66,20.65 105.62,20.86 105.58,21.07 105.47,21.26 105.37,21.44 105.21,21.58 105.05,21.73 104.86,21.81 104.66,21.90 104.45,21.91 104.24,21.93 104.03,21.88 103.83,21.83 103.65,21.72 103.47,21.60 103.33,21.44 103.20,21.27 103.13,21.07 103.05,20.87 103.05,20.66 103.04,20.45 103.10,20.24 103.16,20.04 103.29,19.87 103.41,19.70 103.58,19.57 103.76,19.45 103.76,19.45 103.76,19.45 105.40,17.58 107.04,15.72 107.54,14.69 108.04,13.66 108.60,11.83 109.17,10.01 109.36,9.87 109.56,9.72 109.78,9.63 110.00,9.54 110.24,9.51 110.48,9.47 110.72,9.49 110.96,9.52 111.19,9.60 111.42,9.68 111.62,9.81 111.82,9.94 111.99,10.12 112.15,10.30 112.27,10.51 112.39,10.72 112.45,10.95 112.51,11.18 112.52,11.43 112.52,11.67 112.47,11.90 112.42,12.14 112.31,12.36 112.21,12.57 112.05,12.76 111.89,12.94 111.42,13.13 110.94,13.33 109.90,14.31 108.85,15.29 106.75,17.18 104.65,19.06 101.69,20.67 98.74,22.28 96.67,21.70 94.61,21.11 93.76,19.81 92.90,18.51 92.71,16.53 92.52,14.54 92.70,11.41 92.87,8.27 93.27,4.85 93.67,1.42 94.07,-2.35 94.46,-6.14 95.30,-9.92 96.14,-13.70 96.22,-13.91 96.29,-14.13 96.41,-14.32 96.53,-14.52 96.69,-14.67 96.86,-14.83 97.05,-14.95 97.25,-15.06 97.47,-15.13 97.69,-15.19 97.91,-15.20 98.14,-15.21 98.36,-15.17 98.59,-15.12 98.79,-15.02 99.00,-14.93 99.18,-14.78 99.35,-14.64 99.49,-14.46 99.63,-14.28 99.72,-14.07 99.81,-13.86 99.85,-13.63 99.88,-13.41 99.87,-13.18 99.85,-12.96 99.57,-11.15 99.28,-9.35 98.64,-6.14 97.99,-2.92 97.00,0.88 96.01,4.69 94.22,8.59 92.44,12.50 90.92,14.48 89.39,16.47 87.83,17.45 86.27,18.43 84.78,18.92 83.29,19.42 82.10,19.32 80.91,19.23 79.89,18.89 78.87,18.54 77.45,18.07 76.03,17.60 75.95,17.82 75.87,18.04 75.74,18.23 75.61,18.43 75.44,18.58 75.27,18.74 75.07,18.85 74.87,18.96 74.64,19.02 74.42,19.08 74.19,19.09 73.96,19.09 73.73,19.04 73.50,18.99 73.30,18.89 73.09,18.79 72.91,18.63 72.74,18.48 72.60,18.30 72.46,18.11 72.38,17.89 72.29,17.68 72.26,17.45 72.23,17.22 72.25,16.99 72.27,16.76 72.27,15.71 72.27,14.66 72.62,13.63 72.98,12.59 73.71,11.23 74.44,9.86 74.64,9.74 74.84,9.63 75.07,9.56 75.29,9.49 75.52,9.48 75.76,9.47 75.99,9.52 76.22,9.56 76.43,9.66 76.64,9.76 76.82,9.91 77.00,10.05 77.14,10.24 77.29,10.42 77.38,10.64 77.47,10.85 77.51,11.08 77.55,11.31 77.53,11.55 77.51,11.78 77.44,12.00 77.37,12.22 77.25,12.42 77.12,12.62 76.95,12.78 76.79,12.95 76.50,13.04 76.20,13.14 74.97,14.07 73.74,14.99 71.99,16.02 70.25,17.05 68.27,17.79 66.28,18.53 64.11,18.27 61.94,18.01 60.69,16.18 59.44,14.36 59.26,11.84 59.09,9.32 59.29,5.92 59.48,2.51 59.96,-1.66 60.43,-5.85 61.01,-8.62 61.58,-11.38 63.35,-14.09 65.11,-16.80 66.87,-16.25 68.64,-15.71 69.30,-14.42 69.96,-13.14 70.10,-10.78 70.25,-8.43 69.48,-4.91 68.70,-1.40 66.93,1.64 65.15,4.69 62.28,7.19 59.41,9.68 56.76,10.94 54.11,12.21 50.73,12.72 47.34,13.22 47.11,13.26 46.89,13.30 46.67,13.29 46.44,13.27 46.23,13.20 46.01,13.14 45.82,13.02 45.63,12.90 45.47,12.74 45.31,12.58 45.19,12.38 45.08,12.19 45.01,11.97 44.95,11.76 44.93,11.53 44.92,11.31 44.96,11.08 45.01,10.86 45.10,10.66 45.19,10.45 45.33,10.27 45.47,10.10 45.65,9.96 45.83,9.82 46.04,9.73 46.25,9.64 46.40,9.30 46.55,8.97 47.94,8.51 49.33,8.04 51.09,7.76 52.85,7.48 54.82,7.33 56.78,7.18 58.80,7.82 60.82,8.46 61.02,8.45 61.23,8.45 61.43,8.49 61.63,8.54 61.82,8.63 62.00,8.72 62.16,8.85 62.32,8.98 62.44,9.15 62.56,9.32 62.64,9.51 62.71,9.70 62.74,9.90 62.77,10.11 62.75,10.31 62.73,10.51 62.67,10.71 62.60,10.90 62.49,11.08 62.37,11.25 62.22,11.39 62.07,11.53 61.89,11.63 61.71,11.73 61.51,11.78 61.31,11.84 59.88,12.23 58.44,12.63 56.09,13.00 53.74,13.38 50.96,13.64 48.18,13.90 45.28,13.94 42.38,13.99 40.96,13.55 39.54,13.11 38.11,11.68 36.69,10.24 35.75,10.80 34.81,11.36 33.15,11.96 31.48,12.56 29.26,13.63 27.03,14.71 25.86,14.59 24.69,14.47 23.82,12.37 22.95,10.27 23.05,8.86 23.14,7.44 22.91,6.02 22.68,4.60 22.11,3.48 21.53,2.36 20.42,1.48 19.30,0.60 16.98,0.42 14.65,0.24 11.61,0.34 8.57,0.44 6.76,0.67 4.96,0.90 2.67,1.39 0.37,1.88 0.14,1.90 -0.08,1.91 -0.31,1.88 -0.54,1.84 -0.75,1.75 -0.96,1.65 -1.15,1.51 -1.33,1.37 -1.48,1.19 -1.62,1.01 -1.72,0.81 -1.82,0.60 -1.86,0.37 -1.91,0.14 -1.90,-0.08 -1.89,-0.31 -1.82,-0.53 -1.76,-0.75 -1.64,-0.95 -1.53,-1.15 -1.36,-1.32 -1.20,-1.49 -1.01,-1.61 -0.81,-1.73 -0.59,-1.81 -0.37,-1.88 -0.37,-1.88 L -0.37,-1.88 Z"></path></g><g transform="translate(1120.4000244140625 638.2124938964844) rotate(0 13.5999755859375 -0.79998779296875)" stroke="none"><path fill="#000" d="M 0,-1.97 Q 0,-1.97 4.82,-1.95 9.65,-1.93 14.62,-2.23 19.59,-2.53 21.75,-2.57 23.91,-2.61 24.12,-2.60 24.33,-2.58 24.53,-2.50 24.72,-2.42 24.88,-2.28 25.04,-2.14 25.15,-1.95 25.26,-1.77 25.30,-1.56 25.34,-1.35 25.31,-1.14 25.29,-0.93 25.19,-0.74 25.10,-0.55 24.95,-0.40 24.80,-0.25 24.61,-0.15 24.42,-0.05 24.21,-0.02 24.00,0.00 23.79,-0.03 23.59,-0.07 23.40,-0.17 23.21,-0.27 23.07,-0.43 22.93,-0.59 22.84,-0.78 22.76,-0.98 22.74,-1.19 22.72,-1.40 22.77,-1.61 22.82,-1.81 22.93,-1.99 23.04,-2.17 23.21,-2.31 23.37,-2.44 23.57,-2.52 23.77,-2.59 23.98,-2.60 24.19,-2.61 24.40,-2.55 24.60,-2.49 24.77,-2.37 24.95,-2.24 25.07,-2.07 25.20,-1.90 25.26,-1.70 25.33,-1.50 25.32,-1.28 25.32,-1.07 25.25,-0.87 25.18,-0.67 25.04,-0.50 24.91,-0.34 24.74,-0.22 24.56,-0.10 24.35,-0.05 24.15,-0.00 24.15,-0.00 24.15,-0.00 22.02,0.34 19.89,0.69 14.77,1.31 9.66,1.93 4.83,1.95 0,1.97 -0.23,1.94 -0.47,1.91 -0.69,1.83 -0.91,1.74 -1.11,1.61 -1.31,1.47 -1.46,1.30 -1.62,1.12 -1.73,0.91 -1.84,0.70 -1.90,0.46 -1.96,0.23 -1.96,-0.00 -1.96,-0.23 -1.90,-0.46 -1.84,-0.70 -1.73,-0.91 -1.62,-1.12 -1.46,-1.30 -1.31,-1.47 -1.11,-1.61 -0.91,-1.74 -0.69,-1.83 -0.47,-1.91 -0.23,-1.94 0.00,-1.97 0.00,-1.97 L 0,-1.97 Z"></path></g><g transform="translate(823.6000366210938 637.4125061035156) rotate(0 9.999969482421875 8.399993896484375)" stroke="none"><path fill="#000" d="M 1.61,0.32 Q 1.61,0.32 0.95,3.77 0.28,7.23 0.00,9.33 -0.28,11.44 -0.41,12.12 -0.55,12.81 -0.60,13.00 -0.65,13.20 -0.75,13.38 -0.84,13.55 -0.98,13.70 -1.12,13.85 -1.28,13.97 -1.45,14.08 -1.64,14.15 -1.83,14.22 -2.03,14.24 -2.23,14.26 -2.44,14.23 -2.64,14.20 -2.82,14.13 -3.01,14.06 -3.18,13.94 -3.34,13.82 -3.47,13.67 -3.61,13.51 -3.70,13.33 -3.79,13.15 -3.83,12.96 -3.88,12.76 -3.88,12.56 -3.87,12.35 -3.03,11.58 -2.18,10.81 -1.13,8.96 -0.08,7.12 0.39,6.06 0.87,5.00 1.65,3.91 2.42,2.81 3.53,1.81 4.63,0.81 5.97,-0.15 7.30,-1.12 9.11,-0.87 10.91,-0.61 11.44,0.50 11.97,1.63 12.66,3.96 13.34,6.29 14.14,8.11 14.94,9.93 15.68,11.08 16.43,12.23 17.30,13.05 18.17,13.87 20.11,14.63 22.05,15.39 22.25,15.46 22.45,15.54 22.62,15.67 22.78,15.81 22.90,15.98 23.01,16.16 23.06,16.37 23.11,16.58 23.10,16.79 23.08,17.00 22.99,17.19 22.91,17.39 22.77,17.55 22.62,17.71 22.44,17.81 22.25,17.91 22.05,17.95 21.84,17.99 21.63,17.96 21.42,17.94 21.23,17.84 21.04,17.75 20.89,17.60 20.74,17.44 20.64,17.25 20.55,17.06 20.52,16.85 20.49,16.64 20.53,16.43 20.57,16.23 20.68,16.04 20.78,15.86 20.94,15.71 21.10,15.57 21.29,15.49 21.49,15.41 21.70,15.39 21.91,15.37 22.12,15.42 22.33,15.48 22.50,15.59 22.68,15.70 22.82,15.87 22.95,16.04 23.02,16.24 23.09,16.44 23.10,16.65 23.10,16.86 23.04,17.06 22.98,17.27 22.86,17.44 22.73,17.61 22.56,17.73 22.39,17.86 22.18,17.92 21.98,17.98 21.77,17.98 21.55,17.97 21.55,17.97 21.55,17.97 18.55,17.36 15.55,16.74 14.35,15.54 13.15,14.34 12.25,12.91 11.36,11.48 10.48,9.39 9.59,7.30 9.25,5.97 8.91,4.64 8.85,3.26 8.79,1.87 7.82,2.60 6.85,3.33 5.39,4.88 3.92,6.43 3.32,7.69 2.72,8.96 2.00,10.06 1.27,11.16 0.36,11.99 -0.55,12.81 -0.60,13.00 -0.65,13.20 -0.75,13.38 -0.84,13.55 -0.98,13.70 -1.12,13.85 -1.28,13.97 -1.45,14.08 -1.64,14.15 -1.83,14.22 -2.03,14.24 -2.23,14.26 -2.44,14.23 -2.64,14.20 -2.82,14.13 -3.01,14.06 -3.18,13.94 -3.34,13.82 -3.47,13.67 -3.61,13.51 -3.70,13.33 -3.79,13.15 -3.83,12.96 -3.88,12.76 -3.88,12.56 -3.87,12.35 -3.76,11.67 -3.64,10.98 -3.34,8.77 -3.04,6.56 -2.33,3.12 -1.61,-0.32 -1.55,-0.51 -1.49,-0.70 -1.38,-0.86 -1.27,-1.03 -1.13,-1.17 -0.99,-1.31 -0.82,-1.41 -0.65,-1.51 -0.46,-1.56 -0.27,-1.62 -0.07,-1.63 0.12,-1.64 0.32,-1.60 0.51,-1.56 0.69,-1.47 0.87,-1.39 1.02,-1.27 1.18,-1.14 1.30,-0.98 1.42,-0.82 1.50,-0.64 1.58,-0.46 1.61,-0.26 1.64,-0.07 1.63,0.12 1.61,0.32 1.61,0.32 L 1.61,0.32 Z"></path></g><g transform="translate(826.7999877929688 617.4125061035156) rotate(0 -0.399993896484375 16)" stroke="none"><path fill="#000" d="M 1.59,0.11 Q 1.59,0.11 1.58,3.34 1.56,6.58 1.49,9.98 1.41,13.37 1.37,17.34 1.32,21.32 1.50,23.84 1.67,26.37 1.46,28.65 1.25,30.93 1.23,31.14 1.20,31.35 1.12,31.55 1.03,31.74 0.88,31.90 0.74,32.05 0.55,32.15 0.36,32.25 0.15,32.29 -0.05,32.32 -0.26,32.29 -0.47,32.25 -0.66,32.15 -0.84,32.06 -0.99,31.90 -1.14,31.75 -1.23,31.56 -1.32,31.36 -1.34,31.15 -1.36,30.94 -1.32,30.73 -1.27,30.53 -1.16,30.34 -1.06,30.16 -0.89,30.02 -0.73,29.88 -0.54,29.80 -0.34,29.73 -0.13,29.71 0.08,29.70 0.28,29.76 0.49,29.81 0.66,29.93 0.84,30.05 0.97,30.22 1.10,30.39 1.17,30.59 1.23,30.79 1.23,31.00 1.23,31.22 1.17,31.42 1.10,31.62 0.97,31.79 0.84,31.96 0.67,32.08 0.49,32.20 0.29,32.26 0.08,32.31 -0.12,32.30 -0.33,32.29 -0.53,32.21 -0.73,32.13 -0.89,32.00 -1.05,31.86 -1.16,31.68 -1.27,31.50 -1.32,31.29 -1.36,31.08 -1.36,31.08 -1.36,31.08 -1.83,28.89 -2.30,26.69 -2.55,23.98 -2.80,21.27 -2.76,17.26 -2.72,13.25 -2.60,9.77 -2.48,6.29 -2.04,3.09 -1.59,-0.11 -1.55,-0.30 -1.52,-0.49 -1.44,-0.66 -1.36,-0.84 -1.23,-0.99 -1.11,-1.14 -0.96,-1.26 -0.81,-1.37 -0.63,-1.45 -0.45,-1.53 -0.26,-1.56 -0.07,-1.59 0.11,-1.58 0.30,-1.57 0.48,-1.51 0.67,-1.45 0.83,-1.35 1.00,-1.24 1.13,-1.11 1.27,-0.97 1.36,-0.80 1.46,-0.64 1.52,-0.45 1.57,-0.27 1.58,-0.07 1.59,0.11 1.59,0.11 L 1.59,0.11 Z"></path></g><g transform="translate(868.4000244140625 644.6125183105469) rotate(0 8.399993896484375 3.999969482421875)" stroke="none"><path fill="#000" d="M -0.98,1.30 Q -0.98,1.30 -1.96,0.69 -2.94,0.07 -3.94,-1.01 -4.95,-2.11 -6.32,-2.71 -7.70,-3.31 -9.00,-2.20 -10.30,-1.09 -11.40,0.42 -12.50,1.94 -12.87,3.29 -13.25,4.63 -13.45,5.71 -13.66,6.78 -12.57,6.52 -11.48,6.26 -10.51,5.47 -9.53,4.68 -8.38,3.47 -7.24,2.27 -6.29,1.09 -5.34,-0.08 -4.87,-1.07 -4.40,-2.06 -4.29,-2.25 -4.17,-2.45 -4.01,-2.62 -3.86,-2.78 -3.66,-2.90 -3.47,-3.02 -3.25,-3.09 -3.04,-3.17 -2.81,-3.18 -2.58,-3.20 -2.36,-3.16 -2.13,-3.13 -1.92,-3.04 -1.71,-2.95 -1.53,-2.81 -1.35,-2.67 -1.20,-2.49 -1.06,-2.32 -0.96,-2.11 -0.87,-1.91 -0.82,-1.68 -0.78,-1.46 -0.79,-1.23 -0.80,-1.00 -0.86,-0.78 -0.92,-0.56 -0.95,0.68 -0.98,1.93 -0.82,3.28 -0.66,4.64 -1.33,5.68 -1.99,6.72 -0.95,4.96 0.08,3.20 0.26,1.38 0.44,-0.43 0.52,-1.49 0.61,-2.55 0.55,-2.78 0.50,-3.02 0.54,-3.24 0.59,-3.46 0.69,-3.66 0.78,-3.86 0.92,-4.03 1.07,-4.20 1.25,-4.33 1.42,-4.46 1.63,-4.55 1.84,-4.63 2.06,-4.67 2.28,-4.70 2.50,-4.68 2.72,-4.66 2.93,-4.59 3.14,-4.52 3.33,-4.40 3.51,-4.28 3.67,-4.12 3.82,-3.95 3.93,-3.76 4.04,-3.57 4.10,-3.35 4.16,-3.14 4.17,-2.92 4.17,-2.69 4.97,-0.79 5.76,1.10 6.67,3.05 7.57,5.00 8.65,7.22 9.73,9.44 11.04,6.07 12.35,2.71 12.92,0.65 13.48,-1.40 13.99,-2.63 14.50,-3.87 15.35,-4.68 16.21,-5.49 17.51,-5.31 18.81,-5.13 19.46,-3.30 20.12,-1.48 20.99,-0.57 21.87,0.33 23.65,-0.19 25.44,-0.72 26.35,-1.27 27.26,-1.83 28.15,-2.59 29.04,-3.35 29.20,-3.43 29.37,-3.51 29.54,-3.55 29.72,-3.59 29.90,-3.58 30.08,-3.58 30.26,-3.53 30.43,-3.48 30.59,-3.40 30.75,-3.31 30.88,-3.19 31.02,-3.06 31.12,-2.91 31.22,-2.76 31.28,-2.59 31.34,-2.42 31.36,-2.24 31.37,-2.06 31.35,-1.88 31.32,-1.70 31.25,-1.53 31.19,-1.36 31.08,-1.21 30.97,-1.07 30.83,-0.95 30.70,-0.83 29.64,-1.08 28.58,-1.33 28.10,-0.22 27.62,0.87 27.42,2.20 27.22,3.53 27.23,4.74 27.25,5.94 29.60,6.67 31.95,7.39 32.16,7.44 32.36,7.50 32.54,7.62 32.72,7.74 32.84,7.90 32.97,8.07 33.04,8.27 33.11,8.47 33.11,8.69 33.11,8.90 33.05,9.10 32.98,9.30 32.85,9.47 32.73,9.64 32.55,9.76 32.37,9.88 32.17,9.94 31.97,10.00 31.75,9.99 31.54,9.98 31.34,9.90 31.15,9.82 30.98,9.69 30.82,9.55 30.71,9.37 30.60,9.19 30.55,8.98 30.51,8.77 30.53,8.56 30.55,8.35 30.64,8.16 30.73,7.96 30.87,7.81 31.02,7.65 31.20,7.55 31.39,7.45 31.60,7.42 31.81,7.38 32.02,7.41 32.23,7.45 32.42,7.55 32.61,7.64 32.75,7.80 32.90,7.95 32.99,8.14 33.08,8.34 33.11,8.55 33.13,8.76 33.08,8.97 33.04,9.17 32.93,9.36 32.82,9.54 32.66,9.68 32.50,9.82 32.30,9.90 32.11,9.98 31.89,9.99 31.68,10.00 31.68,10.00 31.68,10.00 29.00,9.85 26.31,9.70 25.00,8.27 23.69,6.85 23.54,4.81 23.39,2.77 23.88,0.78 24.36,-1.19 25.65,-2.65 26.94,-4.11 27.99,-3.73 29.04,-3.35 29.20,-3.43 29.37,-3.51 29.54,-3.55 29.72,-3.59 29.90,-3.58 30.08,-3.58 30.26,-3.53 30.43,-3.48 30.59,-3.40 30.75,-3.31 30.88,-3.19 31.02,-3.06 31.12,-2.91 31.22,-2.76 31.28,-2.59 31.34,-2.42 31.36,-2.24 31.37,-2.06 31.35,-1.88 31.32,-1.70 31.25,-1.53 31.19,-1.36 31.08,-1.21 30.97,-1.07 30.83,-0.95 30.70,-0.83 29.79,-0.09 28.89,0.64 27.74,1.43 26.59,2.23 25.07,2.86 23.56,3.48 22.20,3.60 20.85,3.72 19.78,3.29 18.71,2.85 17.90,1.92 17.09,0.99 17.39,-0.72 17.70,-2.44 17.27,-1.46 16.84,-0.47 16.27,1.60 15.69,3.69 14.88,6.57 14.06,9.45 12.94,11.31 11.81,13.16 10.64,13.49 9.47,13.82 7.86,12.48 6.25,11.14 5.16,8.88 4.07,6.62 3.11,4.54 2.16,2.46 1.58,0.89 1.00,-0.66 0.75,-1.84 0.50,-3.02 0.54,-3.24 0.59,-3.46 0.68,-3.66 0.78,-3.86 0.92,-4.03 1.07,-4.20 1.25,-4.33 1.42,-4.46 1.63,-4.55 1.84,-4.63 2.06,-4.67 2.28,-4.70 2.50,-4.68 2.72,-4.66 2.93,-4.59 3.14,-4.52 3.33,-4.40 3.51,-4.28 3.67,-4.12 3.82,-3.95 3.93,-3.76 4.04,-3.57 4.10,-3.35 4.16,-3.14 4.17,-2.92 4.17,-2.69 4.04,-2.47 3.90,-2.25 3.79,-1.16 3.68,-0.06 3.41,2.11 3.14,4.29 2.46,6.04 1.79,7.79 1.02,8.61 0.26,9.43 -1.76,8.61 -3.80,7.78 -4.18,6.39 -4.56,5.00 -4.69,3.13 -4.82,1.27 -4.61,-0.39 -4.40,-2.06 -4.29,-2.25 -4.17,-2.45 -4.01,-2.62 -3.86,-2.78 -3.66,-2.90 -3.47,-3.02 -3.25,-3.09 -3.04,-3.17 -2.81,-3.18 -2.58,-3.20 -2.36,-3.16 -2.13,-3.13 -1.92,-3.04 -1.71,-2.95 -1.53,-2.81 -1.35,-2.67 -1.20,-2.50 -1.06,-2.32 -0.96,-2.11 -0.87,-1.91 -0.82,-1.68 -0.78,-1.46 -0.79,-1.23 -0.80,-1.00 -0.86,-0.78 -0.92,-0.56 -1.13,-0.36 -1.33,-0.16 -1.87,1.02 -2.42,2.20 -3.47,3.53 -4.53,4.86 -5.94,6.32 -7.35,7.77 -9.14,8.92 -10.93,10.06 -13.11,10.03 -15.29,9.99 -16.44,8.44 -17.59,6.88 -17.38,5.12 -17.18,3.36 -16.50,1.45 -15.82,-0.45 -14.43,-2.25 -13.04,-4.04 -11.27,-5.42 -9.50,-6.81 -8.16,-6.94 -6.82,-7.07 -5.43,-6.62 -4.05,-6.18 -3.09,-5.37 -2.13,-4.57 -1.43,-3.70 -0.73,-2.83 0.12,-2.07 0.98,-1.30 1.12,-1.17 1.26,-1.03 1.37,-0.86 1.47,-0.70 1.54,-0.51 1.60,-0.32 1.61,-0.13 1.63,0.06 1.60,0.25 1.57,0.45 1.49,0.63 1.41,0.81 1.29,0.97 1.18,1.13 1.02,1.25 0.87,1.38 0.69,1.46 0.51,1.55 0.32,1.59 0.13,1.63 -0.06,1.62 -0.26,1.61 -0.45,1.56 -0.64,1.50 -0.81,1.40 -0.98,1.30 -0.98,1.30 L -0.98,1.30 Z"></path></g></svg>