<svg version="1.1" xmlns="http://www.w3.org/2000/svg" viewBox="0 0 10020 749.7125244140625" width="10020" height="749.7125244140625">
  <!-- svg-source:excalidraw -->
  
  <defs>
    <style>
      @font-face {
        font-family: "Virgil";
        src: url("https://excalidraw.com/Virgil.woff2");
      }
      @font-face {
        font-family: "Cascadia";
        src: url("https://excalidraw.com/Cascadia.woff2");
      }
    </style>
  </defs>
  <rect x="0" y="0" width="10020" height="749.7125244140625" fill="#fff0"></rect><g stroke-linecap="round" transform="translate(10 10) rotate(0 5000 0.5)"><path d="M-0.52 -0.26 C3022.65 -30.2, 6044.59 -29.2, 9999.32 0.22 M0.38 -0.31 C3948.03 -0.44, 7895.41 0.2, 9999.95 0.08 M10000.08 -0.06 C10000.09 0.27, 10000.05 0.48, 10000.09 0.92 M9999.97 0.01 C9999.95 0.33, 9999.98 0.72, 10000 0.99 M10000.22 1.51 C7095.77 35.76, 4193.15 34.95, -0.25 0.75 M10000.01 1.13 C7827.97 2.74, 5656.23 3.35, -0.33 0.84 M-0.04 1.01 C0 0.63, -0.06 0.15, 0.05 -0.03 M-0.04 0.95 C-0.04 0.73, -0.03 0.59, -0.05 -0.02" stroke="transparent" stroke-width="1" fill="none"></path></g><g transform="translate(564.4000244140625 590.9125061035156) rotate(0 57.20001220703125 42.40000915527344)" stroke="none"><path fill="#000" d="M 0.75,-1.76 Q 0.75,-1.76 2.39,-1.14 4.03,-0.51 8.31,0.88 12.60,2.28 17.87,3.80 23.13,5.32 29.49,6.89 35.84,8.45 42.68,10.05 49.52,11.66 56.79,13.27 64.06,14.88 73.59,16.94 83.12,19.00 90.87,20.80 98.61,22.60 104.74,24.54 110.86,26.47 115.50,27.97 120.15,29.48 123.36,30.83 126.56,32.19 128.19,33.02 129.81,33.85 130.85,35.28 131.89,36.71 130.95,38.89 130.00,41.08 129.31,42.58 128.62,44.09 127.19,47.92 125.76,51.76 124.45,55.68 123.15,59.60 121.90,63.36 120.65,67.11 119.41,70.36 118.17,73.61 117.20,76.33 116.23,79.05 115.31,81.01 114.39,82.96 113.61,83.98 112.83,84.99 111.40,85.20 109.97,85.41 109.02,84.67 108.07,83.94 106.23,82.60 104.39,81.26 102.74,80.58 101.09,79.90 98.29,78.89 95.50,77.89 90.20,76.33 84.91,74.76 79.20,73.17 73.49,71.58 67.17,70.00 60.85,68.41 53.97,66.34 47.09,64.28 38.37,61.09 29.65,57.91 23.16,55.16 16.67,52.41 11.65,50.33 6.62,48.26 3.02,46.42 -0.57,44.58 -2.98,43.35 -5.39,42.12 -6.99,41.08 -8.58,40.04 -9.91,39.59 -11.24,39.15 -12.53,38.52 -13.83,37.88 -15.00,37.15 -16.17,36.41 -17.13,35.88 -18.09,35.35 -17.91,33.02 -17.72,30.69 -16.83,29.12 -15.93,27.56 -14.62,25.49 -13.31,23.43 -11.15,20.04 -8.99,16.65 -6.59,13.93 -4.19,11.20 -2.28,9.16 -0.36,7.12 0.91,5.79 2.19,4.46 3.08,3.80 3.98,3.13 4.40,3.06 4.82,2.99 4.95,2.84 5.09,2.69 5.25,2.58 5.42,2.47 5.61,2.39 5.80,2.32 6.00,2.30 6.20,2.28 6.40,2.30 6.60,2.33 6.79,2.40 6.97,2.47 7.14,2.59 7.30,2.70 7.44,2.85 7.57,3.01 7.66,3.18 7.76,3.36 7.80,3.56 7.85,3.76 7.85,3.96 7.85,4.16 7.80,4.35 7.75,4.55 7.66,4.73 7.56,4.91 4.74,3.84 1.92,2.78 1.76,2.64 1.60,2.50 1.50,2.31 1.40,2.13 1.36,1.92 1.32,1.71 1.34,1.50 1.37,1.29 1.47,1.10 1.56,0.91 1.71,0.76 1.86,0.61 2.05,0.51 2.24,0.42 2.45,0.39 2.66,0.36 2.87,0.40 3.08,0.44 3.27,0.55 3.45,0.65 3.59,0.81 3.73,0.97 3.82,1.16 3.90,1.36 3.92,1.57 3.94,1.78 3.89,1.99 3.83,2.19 3.72,2.37 3.61,2.55 3.44,2.69 3.27,2.82 3.08,2.89 2.88,2.97 2.66,2.97 2.45,2.98 2.25,2.91 2.04,2.85 1.87,2.73 1.70,2.60 1.58,2.43 1.45,2.26 1.39,2.06 1.33,1.85 1.33,1.64 1.34,1.43 1.41,1.23 1.48,1.03 1.62,0.86 1.75,0.70 1.93,0.58 2.11,0.47 2.31,0.42 2.52,0.37 2.73,0.38 2.94,0.40 3.14,0.48 3.33,0.57 3.33,0.57 3.33,0.57 4.08,1.78 4.82,2.99 4.95,2.84 5.09,2.69 5.25,2.58 5.42,2.47 5.61,2.39 5.80,2.32 6.00,2.30 6.20,2.28 6.40,2.30 6.60,2.33 6.79,2.40 6.97,2.47 7.14,2.59 7.30,2.70 7.44,2.85 7.57,3.01 7.66,3.18 7.76,3.36 7.80,3.56 7.85,3.76 7.85,3.96 7.85,4.16 7.80,4.35 7.75,4.55 7.66,4.73 7.56,4.91 6.41,6.17 5.26,7.43 4.00,8.73 2.75,10.04 0.88,12.05 -0.99,14.05 -3.18,16.50 -5.38,18.96 -7.53,22.35 -9.69,25.74 -10.96,27.71 -12.22,29.69 -12.81,31.64 -13.39,33.59 -11.85,34.28 -10.31,34.97 -9.25,35.22 -8.20,35.47 -7.21,35.96 -6.21,36.45 -4.83,37.37 -3.45,38.30 -1.03,39.52 1.38,40.75 4.82,42.51 8.26,44.28 13.31,46.37 18.35,48.45 24.74,51.16 31.13,53.87 39.72,57.03 48.31,60.20 55.10,62.25 61.89,64.30 68.26,65.91 74.62,67.52 80.36,69.12 86.11,70.72 91.51,72.32 96.92,73.93 99.83,74.98 102.75,76.02 104.78,76.92 106.81,77.81 107.94,78.62 109.07,79.43 109.83,80.29 110.59,81.14 111.42,79.39 112.26,77.63 113.24,74.87 114.23,72.11 115.44,68.94 116.64,65.78 117.89,62.02 119.15,58.27 120.48,54.27 121.82,50.27 123.36,46.28 124.90,42.29 126.44,39.84 127.97,37.39 126.49,36.63 125.00,35.87 121.96,34.57 118.92,33.27 114.29,31.77 109.66,30.26 103.68,28.37 97.71,26.48 90.00,24.69 82.28,22.90 72.74,20.85 63.20,18.79 55.90,17.22 48.60,15.64 41.72,14.07 34.85,12.49 28.41,10.91 21.97,9.34 16.63,7.79 11.29,6.24 6.85,4.76 2.40,3.27 0.82,2.52 -0.75,1.76 -0.95,1.65 -1.15,1.53 -1.32,1.37 -1.49,1.21 -1.61,1.01 -1.73,0.82 -1.81,0.60 -1.88,0.38 -1.90,0.14 -1.92,-0.08 -1.88,-0.31 -1.84,-0.53 -1.75,-0.75 -1.66,-0.96 -1.52,-1.15 -1.38,-1.33 -1.20,-1.48 -1.02,-1.62 -0.81,-1.72 -0.60,-1.82 -0.37,-1.87 -0.15,-1.91 0.08,-1.90 0.31,-1.89 0.53,-1.83 0.75,-1.76 0.75,-1.76 L 0.75,-1.76 Z"></path></g><g transform="translate(696.4000244140625 651.7125244140625) rotate(0 103.19998168945312 19.5999755859375)" stroke="none"><path fill="#000" d="M 0.35,-1.43 Q 0.35,-1.43 2.24,-1.17 4.14,-0.92 7.19,-0.28 10.24,0.35 14.68,0.84 19.11,1.34 26.31,2.05 33.50,2.76 39.55,3.29 45.60,3.82 50.25,4.27 54.91,4.72 58.29,5.12 61.67,5.53 63.64,5.92 65.61,6.32 66.80,6.60 67.98,6.89 68.50,8.55 69.02,10.22 67.79,10.82 66.57,11.42 65.28,11.47 64.00,11.51 63.55,11.53 63.10,11.55 62.86,11.53 62.63,11.50 62.41,11.42 62.18,11.34 61.99,11.21 61.79,11.08 61.63,10.91 61.47,10.73 61.35,10.53 61.24,10.32 61.18,10.09 61.12,9.86 61.11,9.63 61.11,9.39 61.16,9.16 61.21,8.93 61.32,8.72 61.43,8.51 61.58,8.33 61.73,8.15 61.92,8.01 62.12,7.87 62.34,7.78 62.56,7.69 62.79,7.66 63.02,7.63 64.09,6.42 65.15,5.22 66.83,4.14 68.52,3.06 70.91,1.87 73.31,0.68 77.00,-1.38 80.70,-3.44 84.10,-5.47 87.51,-7.49 91.01,-9.72 94.51,-11.96 98.32,-14.30 102.13,-16.65 107.04,-19.08 111.95,-21.51 115.89,-23.24 119.82,-24.96 123.15,-26.17 126.47,-27.38 129.25,-28.35 132.03,-29.32 134.26,-29.77 136.50,-30.22 137.52,-30.60 138.54,-30.97 139.60,-30.93 140.66,-30.90 142.07,-29.70 143.47,-28.50 145.77,-25.48 148.07,-22.46 151.02,-19.22 153.97,-15.98 157.53,-12.29 161.08,-8.60 165.08,-5.01 169.07,-1.41 174.67,3.33 180.27,8.09 186.84,14.30 193.41,20.52 196.42,23.37 199.43,26.22 201.63,28.37 203.84,30.51 205.07,31.95 206.31,33.39 206.93,34.44 207.55,35.50 207.17,36.98 206.80,38.46 205.47,39.05 204.14,39.64 202.37,39.91 200.61,40.17 198.74,41.11 196.87,42.05 193.94,43.62 191.01,45.18 185.56,47.73 180.11,50.28 174.79,52.51 169.46,54.75 163.96,56.86 158.46,58.96 153.56,60.56 148.65,62.16 144.72,63.31 140.78,64.45 137.69,65.17 134.59,65.90 132.78,66.21 130.96,66.53 129.88,66.86 128.80,67.18 127.69,67.37 126.58,67.55 124.77,68.14 122.96,68.73 121.46,69.32 119.95,69.91 117.72,70.36 115.49,70.80 114.42,70.84 113.34,70.88 112.29,70.37 111.25,69.86 110.70,68.86 110.16,67.86 108.86,65.92 107.55,63.99 106.44,62.24 105.33,60.50 103.77,58.47 102.21,56.45 99.92,53.50 97.62,50.54 95.73,48.14 93.84,45.74 92.09,43.29 90.33,40.85 88.67,38.43 87.00,36.01 85.19,33.66 83.37,31.30 81.42,28.65 79.47,26.00 77.92,23.69 76.38,21.39 75.24,19.45 74.10,17.51 73.58,16.37 73.05,15.24 71.79,13.91 70.53,12.58 69.75,11.23 68.96,9.89 68.27,7.98 67.59,6.07 67.42,5.94 67.25,5.81 67.14,5.63 67.02,5.45 66.96,5.25 66.91,5.04 66.93,4.83 66.94,4.62 67.02,4.42 67.10,4.22 67.24,4.06 67.38,3.90 67.57,3.80 67.75,3.69 67.96,3.65 68.17,3.61 68.38,3.63 68.59,3.66 68.78,3.75 68.97,3.84 69.12,3.99 69.28,4.14 69.37,4.33 69.47,4.52 69.50,4.73 69.53,4.94 69.49,5.15 69.46,5.35 69.35,5.54 69.25,5.73 69.10,5.87 68.94,6.01 68.75,6.10 68.55,6.19 68.34,6.21 68.13,6.23 67.92,6.18 67.72,6.13 67.53,6.02 67.35,5.91 67.22,5.74 67.08,5.58 67.01,5.38 66.93,5.18 66.92,4.97 66.92,4.76 66.97,4.55 67.03,4.35 67.16,4.17 67.28,4.00 67.45,3.87 67.62,3.75 67.82,3.68 68.02,3.62 68.24,3.62 68.45,3.62 68.65,3.70 68.85,3.77 68.85,3.77 68.85,3.77 70.81,5.86 72.77,7.96 73.37,8.91 73.96,9.87 75.35,11.03 76.74,12.20 77.35,13.72 77.95,15.25 79.02,17.08 80.09,18.91 81.57,21.14 83.05,23.36 84.97,25.97 86.90,28.58 88.79,31.03 90.68,33.48 92.32,35.86 93.96,38.25 95.65,40.61 97.35,42.98 99.25,45.40 101.15,47.81 103.44,50.79 105.73,53.76 107.39,55.95 109.05,58.14 110.10,59.81 111.15,61.48 112.11,62.87 113.08,64.27 113.24,65.41 113.41,66.55 115.13,66.39 116.84,66.24 117.92,65.92 118.99,65.60 120.18,65.10 121.37,64.61 122.41,64.22 123.45,63.82 125.50,63.38 127.55,62.95 128.88,62.56 130.21,62.17 131.90,61.88 133.58,61.59 136.57,60.89 139.55,60.20 143.42,59.08 147.29,57.96 152.09,56.40 156.89,54.84 162.32,52.76 167.76,50.68 173.00,48.48 178.25,46.28 183.60,43.80 188.96,41.32 191.97,39.72 194.97,38.12 197.34,37.01 199.71,35.91 201.37,36.04 203.04,36.16 201.95,34.87 200.86,33.58 198.66,31.46 196.47,29.34 193.47,26.49 190.46,23.64 183.96,17.52 177.46,11.40 171.80,6.62 166.14,1.83 162.03,-1.85 157.92,-5.55 154.32,-9.28 150.71,-13.01 147.63,-16.41 144.56,-19.80 142.15,-23.41 139.74,-27.03 138.52,-26.59 137.30,-26.16 135.34,-25.79 133.38,-25.42 130.62,-24.47 127.87,-23.52 124.66,-22.36 121.45,-21.21 117.60,-19.54 113.74,-17.86 108.99,-15.55 104.23,-13.24 100.44,-10.91 96.65,-8.59 93.10,-6.33 89.54,-4.07 86.09,-2.02 82.64,0.02 78.86,2.14 75.08,4.26 72.87,5.34 70.66,6.41 69.09,7.42 67.52,8.42 66.18,9.14 64.84,9.86 63.97,10.71 63.10,11.55 62.86,11.53 62.63,11.50 62.41,11.42 62.18,11.34 61.99,11.21 61.79,11.08 61.63,10.91 61.47,10.73 61.35,10.53 61.24,10.32 61.18,10.09 61.12,9.86 61.11,9.63 61.11,9.39 61.16,9.16 61.21,8.93 61.32,8.72 61.43,8.51 61.58,8.33 61.73,8.15 61.92,8.01 62.12,7.87 62.34,7.78 62.56,7.69 62.79,7.66 63.02,7.63 63.47,7.64 63.93,7.65 65.14,7.86 66.35,8.07 65.58,9.07 64.80,10.06 63.00,9.64 61.20,9.22 57.88,8.78 54.55,8.34 49.92,7.89 45.29,7.44 39.22,6.93 33.16,6.43 25.92,5.79 18.68,5.15 14.06,4.63 9.44,4.10 6.33,3.43 3.21,2.76 1.43,2.09 -0.35,1.43 -0.52,1.36 -0.69,1.30 -0.83,1.20 -0.98,1.10 -1.09,0.96 -1.21,0.83 -1.29,0.67 -1.38,0.51 -1.42,0.34 -1.46,0.17 -1.46,-0.00 -1.46,-0.18 -1.42,-0.35 -1.37,-0.52 -1.29,-0.68 -1.21,-0.84 -1.09,-0.97 -0.97,-1.10 -0.82,-1.20 -0.68,-1.30 -0.51,-1.37 -0.34,-1.43 -0.17,-1.45 0.00,-1.47 0.18,-1.45 0.35,-1.43 0.35,-1.43 L 0.35,-1.43 Z"></path></g><g transform="translate(896.4000244140625 681.3125) rotate(0 53.5999755859375 3.600006103515625)" stroke="none"><path fill="#000" d="M 0.19,-1.62 Q 0.19,-1.62 5.97,-1.15 11.74,-0.68 19.45,0.06 27.16,0.81 36.16,1.41 45.16,2.00 54.05,2.50 62.94,3.00 72.46,3.41 81.99,3.82 88.10,3.95 94.21,4.07 97.72,4.13 101.24,4.18 103.10,4.45 104.96,4.71 105.47,4.82 105.97,4.92 106.22,4.99 106.47,5.06 106.69,5.19 106.91,5.31 107.10,5.49 107.29,5.66 107.43,5.88 107.57,6.10 107.65,6.34 107.74,6.58 107.76,6.84 107.78,7.09 107.74,7.35 107.71,7.60 107.61,7.84 107.51,8.08 107.36,8.29 107.20,8.49 107.01,8.66 106.81,8.82 106.58,8.93 106.35,9.05 106.09,9.10 105.84,9.15 105.59,9.15 105.33,9.14 104.18,9.21 103.02,9.29 99.74,8.90 96.46,8.51 96.25,8.47 96.04,8.44 95.85,8.34 95.66,8.24 95.52,8.09 95.37,7.93 95.28,7.74 95.19,7.55 95.17,7.34 95.15,7.12 95.19,6.92 95.24,6.71 95.35,6.53 95.46,6.34 95.62,6.21 95.78,6.07 95.98,5.99 96.18,5.91 96.39,5.90 96.60,5.89 96.81,5.95 97.01,6.00 97.19,6.12 97.36,6.24 97.49,6.41 97.62,6.58 97.69,6.78 97.76,6.98 97.76,7.19 97.76,7.41 97.69,7.61 97.62,7.81 97.49,7.98 97.36,8.15 97.19,8.27 97.01,8.39 96.81,8.44 96.60,8.50 96.39,8.49 96.18,8.48 95.98,8.40 95.78,8.32 95.62,8.18 95.46,8.04 95.35,7.86 95.24,7.68 95.19,7.47 95.15,7.27 95.17,7.05 95.19,6.84 95.28,6.65 95.37,6.46 95.52,6.30 95.66,6.15 95.85,6.05 96.04,5.95 96.25,5.92 96.46,5.88 96.46,5.88 96.46,5.88 100.12,5.47 103.79,5.05 104.88,4.99 105.97,4.92 106.22,4.99 106.47,5.06 106.69,5.19 106.91,5.31 107.10,5.49 107.29,5.66 107.43,5.88 107.57,6.10 107.65,6.34 107.74,6.58 107.76,6.84 107.78,7.09 107.74,7.35 107.71,7.60 107.61,7.84 107.51,8.08 107.36,8.28 107.20,8.49 107.01,8.66 106.81,8.82 106.58,8.93 106.35,9.05 106.09,9.10 105.84,9.15 105.59,9.15 105.33,9.14 104.83,9.02 104.32,8.90 102.73,8.64 101.14,8.38 97.61,8.28 94.08,8.18 87.95,7.94 81.82,7.70 72.28,7.26 62.74,6.82 53.83,6.39 44.92,5.96 35.84,5.46 26.76,4.95 19.00,4.20 11.25,3.44 5.52,2.53 -0.19,1.62 -0.38,1.57 -0.57,1.52 -0.75,1.43 -0.92,1.34 -1.07,1.21 -1.22,1.08 -1.33,0.92 -1.44,0.76 -1.51,0.57 -1.58,0.39 -1.60,0.19 -1.63,0.00 -1.60,-0.19 -1.58,-0.38 -1.51,-0.57 -1.44,-0.75 -1.33,-0.91 -1.22,-1.08 -1.07,-1.21 -0.92,-1.34 -0.75,-1.43 -0.58,-1.52 -0.38,-1.57 -0.19,-1.62 -0.00,-1.62 0.19,-1.62 0.19,-1.62 L 0.19,-1.62 Z"></path></g><g transform="translate(1010 694.9125366210938) rotate(0 55.60003662109375 7.999969482421875)" stroke="none"><path fill="#000" d="M -1.35,0.16 Q -1.35,0.16 -1.90,-1.63 -2.45,-3.43 -2.57,-5.19 -2.69,-6.96 -3.17,-9.14 -3.66,-11.31 -4.31,-13.36 -4.96,-15.41 -5.49,-17.53 -6.02,-19.65 -6.26,-21.32 -6.50,-23.00 -6.60,-24.42 -6.70,-25.85 -5.99,-27.61 -5.27,-29.37 -3.34,-29.41 -1.41,-29.44 -0.01,-28.85 1.37,-28.26 3.83,-27.62 6.28,-26.98 9.21,-26.23 12.15,-25.48 15.88,-24.71 19.62,-23.94 24.13,-23.39 28.65,-22.84 36.15,-21.68 43.66,-20.51 50.50,-19.57 57.34,-18.62 63.93,-17.75 70.51,-16.89 76.77,-16.06 83.02,-15.24 88.50,-14.19 93.97,-13.14 98.89,-11.76 103.81,-10.38 106.84,-9.32 109.88,-8.27 111.64,-7.59 113.41,-6.91 114.38,-6.27 115.34,-5.63 116.51,-4.29 117.67,-2.95 117.88,-0.30 118.09,2.35 118.12,6.27 118.15,10.20 118.16,14.40 118.17,18.59 118.17,22.45 118.18,26.30 118.18,29.32 118.18,32.33 118.18,34.77 118.18,37.20 118.18,38.92 118.18,40.65 117.84,42.68 117.50,44.72 116.56,45.48 115.62,46.24 114.44,46.27 113.27,46.30 111.70,45.75 110.13,45.19 106.86,44.31 103.59,43.43 99.15,42.12 94.71,40.81 89.18,39.34 83.65,37.87 77.84,36.31 72.03,34.76 64.72,32.73 57.40,30.70 51.73,28.91 46.06,27.13 41.42,25.92 36.78,24.72 32.41,23.27 28.05,21.81 25.83,21.22 23.62,20.63 22.26,20.62 20.90,20.61 18.63,20.60 16.35,20.59 14.90,20.34 13.45,20.09 12.15,19.74 10.84,19.39 9.59,19.01 8.34,18.63 6.95,18.01 5.57,17.39 4.44,16.59 3.31,15.79 2.19,15.51 1.06,15.24 -0.07,14.74 -1.21,14.25 -2.09,13.29 -2.96,12.34 -3.02,11.19 -3.08,10.03 -2.17,7.99 -1.26,5.94 -0.09,3.28 1.07,0.62 2.32,-1.52 3.56,-3.67 4.60,-5.07 5.65,-6.48 6.86,-7.66 8.08,-8.85 8.22,-9.01 8.36,-9.17 8.54,-9.27 8.73,-9.38 8.94,-9.42 9.14,-9.46 9.35,-9.44 9.57,-9.41 9.76,-9.32 9.95,-9.23 10.10,-9.08 10.25,-8.93 10.35,-8.74 10.44,-8.55 10.48,-8.34 10.51,-8.13 10.47,-7.92 10.43,-7.71 10.33,-7.53 10.23,-7.34 10.07,-7.20 9.91,-7.05 9.72,-6.97 9.52,-6.88 9.31,-6.86 9.10,-6.84 8.89,-6.89 8.69,-6.94 8.51,-7.05 8.33,-7.16 8.19,-7.33 8.06,-7.49 7.98,-7.69 7.91,-7.89 7.90,-8.10 7.89,-8.31 7.95,-8.52 8.01,-8.72 8.13,-8.90 8.25,-9.07 8.43,-9.20 8.60,-9.32 8.80,-9.39 9.00,-9.45 9.21,-9.45 9.43,-9.44 9.63,-9.37 9.83,-9.30 9.99,-9.17 10.16,-9.04 10.28,-8.86 10.39,-8.68 10.45,-8.48 10.50,-8.27 10.49,-8.06 10.47,-7.85 10.39,-7.65 10.31,-7.46 10.31,-7.46 10.31,-7.46 9.70,-5.72 9.09,-3.98 8.21,-2.73 7.33,-1.48 6.20,0.45 5.07,2.39 3.91,5.02 2.75,7.65 1.40,8.92 0.05,10.18 1.89,10.91 3.73,11.63 5.48,12.56 7.24,13.49 8.43,13.97 9.63,14.45 10.80,14.81 11.97,15.17 13.11,15.48 14.25,15.78 15.31,15.99 16.37,16.21 17.70,16.21 19.03,16.21 20.66,16.23 22.30,16.25 23.51,16.31 24.73,16.37 27.09,17.00 29.44,17.63 33.66,19.05 37.89,20.47 42.64,21.71 47.38,22.94 52.98,24.73 58.57,26.51 65.86,28.56 73.14,30.60 78.95,32.14 84.76,33.68 90.35,35.16 95.94,36.64 100.33,37.94 104.72,39.24 108.17,40.17 111.61,41.10 112.59,42.04 113.57,42.98 113.69,41.81 113.81,40.65 113.81,38.92 113.81,37.20 113.81,34.77 113.81,32.34 113.81,29.32 113.81,26.30 113.81,22.45 113.81,18.60 113.81,14.41 113.80,10.22 113.81,6.32 113.81,2.42 114.06,0.71 114.30,-0.99 113.09,-2.02 111.88,-3.06 110.20,-3.73 108.52,-4.39 105.61,-5.42 102.70,-6.44 97.95,-7.79 93.20,-9.13 87.84,-10.17 82.49,-11.20 76.23,-12.03 69.98,-12.86 63.38,-13.72 56.78,-14.59 49.91,-15.54 43.04,-16.50 35.59,-17.65 28.15,-18.81 23.47,-19.38 18.80,-19.96 14.97,-20.75 11.14,-21.54 8.19,-22.29 5.24,-23.04 2.50,-23.78 -0.23,-24.52 -1.42,-25.33 -2.61,-26.13 -2.52,-24.85 -2.44,-23.56 -2.24,-22.11 -2.04,-20.65 -1.54,-18.65 -1.04,-16.64 -0.35,-14.41 0.34,-12.18 0.86,-9.69 1.38,-7.20 1.46,-5.56 1.53,-3.92 1.44,-2.04 1.35,-0.16 1.35,-0.00 1.35,0.15 1.31,0.31 1.27,0.47 1.19,0.62 1.12,0.76 1.01,0.89 0.90,1.01 0.77,1.10 0.63,1.20 0.48,1.26 0.33,1.32 0.16,1.34 0.00,1.36 -0.15,1.34 -0.32,1.32 -0.47,1.26 -0.62,1.20 -0.76,1.11 -0.89,1.02 -1.00,0.89 -1.11,0.77 -1.19,0.63 -1.27,0.48 -1.31,0.32 -1.35,0.16 -1.35,0.16 L -1.35,0.16 Z"></path></g><g transform="translate(730 625.3125) rotate(0 14.800018310546875 -10.399978637695312)" stroke="none"><path fill="#000" d="M -1.40,-0.70 Q -1.40,-0.70 -0.95,-2.20 -0.50,-3.69 0.67,-6.72 1.85,-9.75 3.07,-12.50 4.30,-15.25 5.03,-17.05 5.76,-18.86 6.07,-20.10 6.38,-21.34 6.51,-21.56 6.63,-21.79 6.80,-21.97 6.97,-22.16 7.18,-22.30 7.39,-22.44 7.63,-22.52 7.87,-22.60 8.12,-22.63 8.37,-22.65 8.62,-22.62 8.87,-22.58 9.11,-22.49 9.34,-22.39 9.55,-22.25 9.75,-22.10 9.91,-21.91 10.08,-21.71 10.19,-21.49 10.30,-21.26 10.36,-21.01 10.41,-20.77 10.41,-20.52 10.40,-20.26 10.34,-20.02 10.27,-19.77 10.75,-18.42 11.23,-17.06 11.36,-15.15 11.50,-13.24 12.30,-11.73 13.10,-10.22 14.40,-10.62 15.70,-11.02 17.19,-12.00 18.69,-12.97 20.24,-14.27 21.78,-15.57 23.14,-16.81 24.50,-18.05 25.16,-19.10 25.83,-20.16 26.41,-20.68 26.98,-21.19 27.15,-21.39 27.31,-21.58 27.52,-21.73 27.73,-21.88 27.96,-21.97 28.20,-22.06 28.45,-22.10 28.71,-22.13 28.96,-22.11 29.21,-22.08 29.45,-21.99 29.69,-21.91 29.90,-21.76 30.11,-21.62 30.29,-21.43 30.46,-21.25 30.58,-21.02 30.70,-20.80 30.77,-20.55 30.83,-20.31 30.83,-20.05 30.84,-19.80 30.78,-19.55 30.72,-19.30 30.61,-19.07 30.49,-18.85 30.45,-17.68 30.41,-16.51 29.84,-14.10 29.27,-11.70 28.81,-9.59 28.35,-7.49 28.17,-5.99 27.99,-4.49 27.91,-3.19 27.83,-1.89 27.61,-0.80 27.39,0.28 27.58,0.38 27.77,0.47 27.92,0.62 28.07,0.78 28.16,0.97 28.25,1.16 28.28,1.37 28.30,1.58 28.26,1.79 28.22,2.00 28.11,2.18 28.01,2.36 27.85,2.50 27.69,2.64 27.49,2.73 27.29,2.81 27.08,2.82 26.87,2.84 26.66,2.78 26.46,2.73 26.28,2.61 26.10,2.50 25.97,2.33 25.84,2.16 25.77,1.96 25.70,1.76 25.69,1.55 25.69,1.34 25.76,1.14 25.82,0.93 25.95,0.76 26.07,0.59 26.25,0.47 26.42,0.35 26.62,0.29 26.83,0.23 27.04,0.23 27.25,0.24 27.45,0.32 27.65,0.39 27.81,0.53 27.98,0.66 28.09,0.84 28.20,1.02 28.25,1.23 28.30,1.44 28.28,1.65 28.26,1.86 28.18,2.06 28.09,2.25 27.95,2.41 27.80,2.56 27.62,2.67 27.43,2.77 27.22,2.81 27.01,2.84 26.80,2.81 26.59,2.78 26.59,2.78 26.59,2.78 25.10,0.31 23.60,-2.15 23.69,-3.58 23.78,-5.01 23.99,-6.70 24.21,-8.39 24.68,-10.54 25.15,-12.69 25.68,-14.87 26.21,-17.06 26.60,-19.13 26.98,-21.19 27.15,-21.39 27.31,-21.58 27.52,-21.73 27.73,-21.88 27.96,-21.97 28.20,-22.06 28.45,-22.10 28.71,-22.13 28.96,-22.11 29.21,-22.08 29.45,-21.99 29.69,-21.91 29.90,-21.76 30.11,-21.62 30.29,-21.43 30.46,-21.25 30.58,-21.02 30.70,-20.80 30.77,-20.55 30.83,-20.31 30.83,-20.05 30.84,-19.80 30.78,-19.55 30.72,-19.30 30.61,-19.07 30.49,-18.85 29.91,-18.32 29.32,-17.79 28.34,-16.37 27.36,-14.96 25.92,-13.64 24.48,-12.33 22.70,-10.86 20.92,-9.39 18.90,-8.18 16.89,-6.98 15.01,-6.56 13.13,-6.14 12.06,-6.45 10.98,-6.76 9.74,-8.28 8.51,-9.80 7.92,-11.35 7.33,-12.89 7.22,-14.60 7.11,-16.30 6.86,-17.70 6.61,-19.10 6.50,-20.22 6.38,-21.34 6.51,-21.56 6.63,-21.79 6.80,-21.97 6.97,-22.16 7.18,-22.30 7.39,-22.44 7.63,-22.52 7.87,-22.60 8.12,-22.63 8.37,-22.65 8.62,-22.62 8.87,-22.58 9.11,-22.49 9.34,-22.39 9.55,-22.25 9.75,-22.10 9.91,-21.91 10.08,-21.71 10.19,-21.49 10.30,-21.26 10.36,-21.01 10.41,-20.77 10.41,-20.52 10.40,-20.26 10.34,-20.02 10.27,-19.77 9.96,-18.54 9.64,-17.30 8.88,-15.42 8.12,-13.55 6.94,-10.89 5.75,-8.23 4.51,-5.02 3.26,-1.82 2.33,-0.55 1.40,0.70 1.30,0.86 1.19,1.01 1.05,1.14 0.91,1.27 0.75,1.36 0.58,1.45 0.40,1.50 0.21,1.55 0.03,1.55 -0.15,1.56 -0.34,1.52 -0.52,1.47 -0.69,1.39 -0.86,1.31 -1.01,1.18 -1.15,1.06 -1.26,0.91 -1.37,0.75 -1.44,0.58 -1.51,0.40 -1.54,0.21 -1.57,0.03 -1.55,-0.15 -1.53,-0.34 -1.46,-0.52 -1.40,-0.70 -1.40,-0.70 L -1.40,-0.70 Z"></path></g><g transform="translate(906.7999877929688 626.9125366210938) rotate(0 13.200042724609375 8.79998779296875)" stroke="none"><path fill="#000" d="M 1.96,0.71 Q 1.96,0.71 1.10,3.26 0.25,5.82 -0.59,8.26 -1.43,10.70 -2.00,12.81 -2.57,14.93 -3.05,16.58 -3.54,18.23 -3.98,19.38 -4.42,20.53 -4.52,20.78 -4.63,21.02 -4.79,21.24 -4.96,21.45 -5.17,21.62 -5.37,21.79 -5.62,21.90 -5.86,22.01 -6.12,22.07 -6.39,22.12 -6.66,22.10 -6.92,22.09 -7.18,22.02 -7.44,21.94 -7.67,21.80 -7.90,21.67 -8.09,21.48 -8.29,21.29 -8.43,21.07 -8.57,20.84 -8.65,20.58 -8.74,20.33 -8.76,20.06 -8.78,19.79 -8.73,19.53 -8.69,19.26 -8.22,15.44 -7.75,11.61 -7.55,8.74 -7.34,5.86 -7.25,3.25 -7.15,0.64 -6.87,-1.29 -6.59,-3.23 -5.90,-5.21 -5.20,-7.19 -3.98,-7.72 -2.77,-8.24 -1.23,-7.82 0.30,-7.40 3.54,-4.51 6.79,-1.62 9.52,1.70 12.25,5.03 15.62,8.63 18.99,12.24 21.08,14.21 23.17,16.17 25.14,17.64 27.10,19.11 28.44,20.00 29.77,20.88 29.97,21.07 30.16,21.26 30.31,21.49 30.45,21.72 30.54,21.97 30.63,22.23 30.65,22.50 30.67,22.77 30.63,23.04 30.58,23.31 30.48,23.56 30.37,23.81 30.21,24.02 30.04,24.24 29.83,24.41 29.62,24.58 29.38,24.70 29.13,24.82 28.87,24.87 28.60,24.93 28.33,24.91 28.06,24.90 27.80,24.83 27.54,24.75 27.30,24.62 27.07,24.48 27.18,20.30 27.29,16.12 27.51,12.65 27.74,9.17 28.08,5.98 28.42,2.80 28.80,0.47 29.17,-1.84 30.74,-3.96 32.31,-6.09 32.47,-6.23 32.62,-6.37 32.82,-6.46 33.01,-6.55 33.22,-6.57 33.44,-6.59 33.64,-6.54 33.85,-6.49 34.03,-6.38 34.21,-6.27 34.35,-6.10 34.48,-5.94 34.56,-5.74 34.63,-5.54 34.64,-5.33 34.65,-5.12 34.59,-4.91 34.53,-4.71 34.41,-4.54 34.29,-4.36 34.12,-4.24 33.95,-4.11 33.74,-4.04 33.54,-3.98 33.33,-3.98 33.12,-3.98 32.92,-4.06 32.72,-4.13 32.55,-4.26 32.38,-4.39 32.26,-4.56 32.15,-4.74 32.09,-4.95 32.04,-5.15 32.05,-5.37 32.07,-5.58 32.15,-5.77 32.23,-5.97 32.37,-6.13 32.51,-6.29 32.69,-6.40 32.88,-6.50 33.09,-6.55 33.29,-6.59 33.50,-6.56 33.72,-6.54 33.91,-6.45 34.10,-6.35 34.25,-6.21 34.40,-6.06 34.50,-5.87 34.60,-5.68 34.63,-5.47 34.66,-5.26 34.62,-5.05 34.59,-4.84 34.48,-4.65 34.38,-4.47 34.38,-4.47 34.38,-4.47 34.05,-2.78 33.72,-1.08 33.35,1.10 32.99,3.28 32.67,6.38 32.34,9.48 32.08,13.22 31.82,16.95 30.80,18.92 29.77,20.88 29.97,21.07 30.16,21.26 30.31,21.49 30.45,21.72 30.54,21.97 30.63,22.23 30.65,22.50 30.67,22.77 30.63,23.04 30.58,23.31 30.48,23.56 30.37,23.81 30.21,24.02 30.04,24.24 29.83,24.41 29.62,24.58 29.38,24.70 29.13,24.82 28.87,24.87 28.60,24.93 28.33,24.91 28.06,24.90 27.80,24.83 27.54,24.75 27.30,24.62 27.07,24.48 25.73,23.59 24.40,22.71 22.24,21.08 20.08,19.45 17.89,17.38 15.70,15.31 12.24,11.59 8.78,7.86 6.26,4.76 3.75,1.66 0.77,-0.45 -2.19,-2.58 -2.46,-0.89 -2.72,0.80 -2.81,3.50 -2.91,6.19 -3.15,9.32 -3.39,12.44 -3.90,15.13 -4.42,17.81 -4.42,19.17 -4.42,20.53 -4.52,20.78 -4.63,21.02 -4.79,21.24 -4.96,21.45 -5.17,21.62 -5.37,21.79 -5.62,21.90 -5.86,22.01 -6.12,22.06 -6.39,22.12 -6.66,22.10 -6.92,22.09 -7.18,22.02 -7.44,21.94 -7.67,21.80 -7.90,21.67 -8.09,21.48 -8.29,21.29 -8.43,21.07 -8.57,20.84 -8.65,20.58 -8.74,20.33 -8.76,20.06 -8.78,19.79 -8.73,19.53 -8.69,19.26 -8.26,18.11 -7.83,16.96 -7.35,15.37 -6.87,13.77 -6.26,11.50 -5.64,9.24 -4.79,6.76 -3.93,4.29 -2.94,1.79 -1.96,-0.71 -1.85,-0.94 -1.73,-1.16 -1.57,-1.35 -1.40,-1.54 -1.20,-1.69 -0.99,-1.83 -0.76,-1.93 -0.52,-2.02 -0.27,-2.05 -0.02,-2.09 0.22,-2.06 0.47,-2.03 0.70,-1.95 0.94,-1.86 1.15,-1.72 1.36,-1.58 1.53,-1.39 1.70,-1.21 1.82,-0.99 1.94,-0.76 2.00,-0.52 2.07,-0.28 2.07,-0.02 2.08,0.22 2.02,0.46 1.96,0.71 1.96,0.71 L 1.96,0.71 Z"></path></g><g transform="translate(584.4000244140625 611.7124938964844) rotate(0 -9.20001220703125 10.000015258789062)" stroke="none"><path fill="#000" d="M 0,1.55 Q 0,1.55 -1.82,1.68 -3.64,1.81 -5.27,2.48 -6.90,3.15 -8.58,3.89 -10.25,4.62 -11.14,5.67 -12.03,6.73 -10.57,8.23 -9.12,9.74 -7.49,11.38 -5.86,13.03 -4.70,14.20 -3.54,15.37 -3.05,17.40 -2.55,19.43 -3.33,20.37 -4.12,21.32 -5.88,21.99 -7.63,22.67 -9.59,22.92 -11.55,23.18 -13.53,23.26 -15.51,23.34 -17.50,21.68 -19.49,20.01 -19.53,19.80 -19.57,19.60 -19.55,19.39 -19.53,19.17 -19.43,18.98 -19.34,18.79 -19.20,18.64 -19.05,18.48 -18.86,18.39 -18.67,18.29 -18.46,18.25 -18.25,18.22 -18.04,18.26 -17.83,18.29 -17.65,18.39 -17.46,18.50 -17.31,18.65 -17.17,18.81 -17.08,19.00 -16.99,19.19 -16.97,19.40 -16.95,19.62 -17.00,19.82 -17.05,20.03 -17.16,20.21 -17.27,20.39 -17.43,20.53 -17.59,20.67 -17.79,20.74 -17.99,20.82 -18.20,20.83 -18.41,20.84 -18.62,20.78 -18.82,20.72 -19.00,20.60 -19.17,20.48 -19.30,20.31 -19.43,20.14 -19.49,19.94 -19.56,19.74 -19.56,19.53 -19.56,19.31 -19.49,19.11 -19.42,18.91 -19.29,18.74 -19.16,18.57 -18.98,18.46 -18.80,18.34 -18.60,18.28 -18.39,18.23 -18.18,18.24 -17.97,18.25 -17.77,18.33 -17.58,18.42 -17.42,18.55 -17.25,18.69 -17.15,18.88 -17.04,19.06 -17.04,19.06 -17.04,19.06 -16.35,19.32 -15.66,19.58 -13.84,19.48 -12.01,19.38 -10.44,19.21 -8.86,19.05 -7.56,18.52 -6.26,18.00 -7.41,16.85 -8.56,15.70 -10.20,14.05 -11.84,12.39 -13.15,10.98 -14.47,9.56 -15.01,7.90 -15.54,6.24 -14.89,4.65 -14.23,3.05 -13.01,2.10 -11.79,1.14 -9.98,0.37 -8.17,-0.39 -5.94,-1.10 -3.71,-1.81 -1.85,-1.68 0,-1.55 0.18,-1.53 0.37,-1.51 0.54,-1.44 0.72,-1.37 0.87,-1.27 1.03,-1.16 1.15,-1.02 1.28,-0.88 1.36,-0.71 1.45,-0.55 1.50,-0.36 1.54,-0.18 1.54,0.00 1.54,0.18 1.50,0.36 1.45,0.55 1.36,0.71 1.28,0.88 1.15,1.02 1.03,1.16 0.87,1.27 0.72,1.37 0.54,1.44 0.37,1.51 0.18,1.53 -0.00,1.55 -0.00,1.55 L 0,1.55 Z"></path></g><g transform="translate(602.7999877929688 602.9125061035156) rotate(0 -5.199981689453125 17.199996948242188)" stroke="none"><path fill="#000" d="M 1.75,0.47 Q 1.75,0.47 1.10,3.01 0.45,5.56 -0.52,8.74 -1.51,11.92 -2.36,15.07 -3.22,18.22 -4.05,21.18 -4.88,24.15 -5.70,27.02 -6.52,29.89 -7.67,31.93 -8.81,33.97 -8.92,34.15 -9.03,34.33 -9.19,34.47 -9.36,34.61 -9.55,34.69 -9.75,34.77 -9.96,34.78 -10.17,34.79 -10.38,34.73 -10.58,34.68 -10.76,34.56 -10.94,34.44 -11.06,34.27 -11.19,34.10 -11.26,33.90 -11.33,33.70 -11.33,33.49 -11.33,33.27 -11.26,33.07 -11.19,32.87 -11.07,32.70 -10.94,32.53 -10.76,32.41 -10.59,32.29 -10.38,32.24 -10.18,32.18 -9.96,32.19 -9.75,32.20 -9.55,32.28 -9.36,32.36 -9.19,32.50 -9.03,32.63 -8.92,32.82 -8.81,33.00 -8.77,33.21 -8.72,33.41 -8.74,33.62 -8.77,33.84 -8.86,34.03 -8.95,34.22 -9.09,34.38 -9.24,34.53 -9.43,34.63 -9.61,34.73 -9.82,34.76 -10.03,34.80 -10.24,34.76 -10.45,34.73 -10.64,34.63 -10.83,34.53 -10.97,34.38 -11.12,34.22 -11.21,34.03 -11.30,33.84 -11.32,33.63 -11.34,33.41 -11.30,33.21 -11.25,33.00 -11.25,33.00 -11.25,33.00 -10.76,30.91 -10.26,28.82 -9.45,25.96 -8.65,23.09 -7.81,20.13 -6.98,17.18 -6.08,13.98 -5.18,10.77 -4.19,7.66 -3.21,4.55 -2.48,2.04 -1.75,-0.47 -1.66,-0.68 -1.58,-0.88 -1.45,-1.05 -1.32,-1.23 -1.16,-1.37 -0.99,-1.51 -0.79,-1.61 -0.60,-1.71 -0.38,-1.75 -0.17,-1.80 0.04,-1.80 0.26,-1.79 0.47,-1.73 0.68,-1.68 0.87,-1.57 1.06,-1.46 1.22,-1.31 1.38,-1.16 1.50,-0.98 1.62,-0.80 1.69,-0.59 1.77,-0.39 1.79,-0.17 1.81,0.04 1.78,0.26 1.75,0.47 1.75,0.47 L 1.75,0.47 Z"></path></g><g transform="translate(593.2000122070312 626.1124877929688) rotate(0 46.399993896484375 5.6000213623046875)" stroke="none"><path fill="#000" d="M 0,-1.82 Q 0,-1.82 2.30,-1.87 4.60,-1.91 6.22,-1.66 7.84,-1.41 9.11,-0.72 10.37,-0.02 11.07,0.99 11.78,2.02 12.05,3.32 12.32,4.61 14.58,4.19 16.83,3.76 18.55,4.06 20.27,4.35 21.97,4.72 23.67,5.09 24.74,4.94 25.82,4.80 26.83,4.36 27.84,3.92 29.09,2.79 30.33,1.66 30.53,1.56 30.72,1.46 30.93,1.40 31.15,1.35 31.37,1.35 31.59,1.35 31.80,1.40 32.02,1.45 32.21,1.56 32.41,1.66 32.57,1.80 32.74,1.95 32.87,2.13 32.99,2.31 33.07,2.52 33.15,2.72 33.18,2.94 33.20,3.16 33.18,3.38 33.15,3.60 33.07,3.80 33.00,4.01 32.87,4.19 32.75,4.37 32.58,4.52 32.42,4.67 31.31,4.60 30.20,4.54 28.31,6.02 26.42,7.50 25.53,8.45 24.64,9.40 24.34,10.23 24.04,11.06 23.89,11.25 23.73,11.44 23.53,11.58 23.33,11.73 23.11,11.82 22.88,11.92 22.64,11.95 22.40,11.99 22.15,11.97 21.91,11.94 21.68,11.86 21.45,11.78 21.24,11.65 21.04,11.52 20.87,11.34 20.70,11.16 20.58,10.95 20.46,10.74 20.39,10.50 20.33,10.26 20.32,10.02 20.31,9.77 20.37,9.53 20.42,9.30 20.52,9.08 20.63,8.86 22.78,7.89 24.93,6.93 26.84,5.86 28.76,4.78 30.66,3.25 32.55,1.71 34.18,-0.42 35.81,-2.56 36.91,-5.16 38.01,-7.76 38.21,-10.74 38.41,-13.71 38.04,-15.34 37.68,-16.98 37.73,-17.22 37.78,-17.46 37.89,-17.68 37.99,-17.90 38.15,-18.08 38.30,-18.27 38.50,-18.42 38.69,-18.56 38.92,-18.66 39.15,-18.75 39.39,-18.79 39.63,-18.82 39.87,-18.80 40.11,-18.78 40.34,-18.70 40.58,-18.62 40.78,-18.49 40.99,-18.36 41.15,-18.18 41.32,-18.01 41.44,-17.79 41.56,-17.58 41.63,-17.35 41.69,-17.11 41.70,-16.87 41.71,-16.62 39.82,-14.77 37.94,-12.92 37.33,-11.59 36.73,-10.26 35.77,-6.11 34.81,-1.97 33.91,2.16 33.01,6.30 32.63,9.57 32.26,12.84 32.10,15.35 31.95,17.86 32.87,18.52 33.79,19.17 35.07,18.28 36.36,17.38 37.87,15.95 39.38,14.52 40.52,13.21 41.66,11.90 41.84,11.75 42.01,11.60 42.20,11.43 42.39,11.26 42.61,11.14 42.83,11.02 43.07,10.96 43.32,10.90 43.57,10.89 43.82,10.89 44.07,10.95 44.31,11.00 44.54,11.12 44.76,11.23 44.95,11.40 45.15,11.56 45.29,11.77 45.44,11.98 45.53,12.21 45.62,12.45 45.65,12.70 45.69,12.95 45.66,13.20 45.63,13.45 45.55,13.68 45.46,13.92 45.32,14.13 45.18,14.34 44.34,16.18 43.50,18.03 43.06,19.09 42.61,20.15 43.66,19.12 44.71,18.08 45.79,17.46 46.86,16.83 48.40,16.29 49.95,15.76 51.08,15.68 52.22,15.60 53.61,16.33 55.00,17.06 56.56,17.08 58.12,17.10 60.30,16.95 62.47,16.79 64.06,16.31 65.66,15.84 67.35,14.83 69.04,13.83 70.99,11.04 72.94,8.26 73.93,5.10 74.91,1.95 75.33,-1.59 75.75,-5.14 75.92,-8.04 76.08,-10.94 75.67,-12.90 75.26,-14.86 75.30,-15.11 75.35,-15.36 75.46,-15.58 75.56,-15.81 75.72,-16.01 75.88,-16.21 76.08,-16.36 76.28,-16.51 76.51,-16.62 76.74,-16.72 76.99,-16.76 77.24,-16.80 77.49,-16.79 77.74,-16.77 77.98,-16.69 78.22,-16.61 78.44,-16.48 78.65,-16.35 78.83,-16.17 79.00,-15.99 79.13,-15.77 79.26,-15.55 79.33,-15.31 79.41,-15.07 79.42,-14.82 79.43,-14.57 78.71,-12.02 77.98,-9.48 77.61,-5.35 77.24,-1.21 76.88,4.91 76.51,11.04 76.34,15.47 76.18,19.89 76.11,22.68 76.03,25.46 77.08,26.19 78.13,26.93 79.46,25.86 80.79,24.79 82.82,22.63 84.84,20.48 86.41,18.42 87.97,16.35 88.86,15.02 89.75,13.69 90.11,13.32 90.48,12.95 90.64,12.76 90.80,12.57 91.01,12.42 91.22,12.28 91.45,12.18 91.69,12.09 91.94,12.06 92.19,12.02 92.44,12.05 92.69,12.08 92.93,12.16 93.16,12.25 93.37,12.39 93.58,12.53 93.75,12.72 93.92,12.90 94.05,13.12 94.17,13.35 94.23,13.59 94.29,13.84 94.30,14.09 94.30,14.34 94.24,14.59 94.19,14.83 94.07,15.06 93.96,15.28 94.41,17.70 94.87,20.11 94.90,21.92 94.93,23.72 94.52,26.13 94.10,28.53 94.07,28.74 94.03,28.95 93.94,29.14 93.84,29.33 93.69,29.47 93.53,29.62 93.34,29.71 93.15,29.80 92.94,29.83 92.73,29.85 92.52,29.81 92.31,29.76 92.13,29.66 91.94,29.55 91.81,29.39 91.67,29.23 91.59,29.03 91.51,28.83 91.49,28.62 91.48,28.41 91.54,28.20 91.59,28.00 91.71,27.82 91.83,27.64 91.99,27.51 92.16,27.38 92.36,27.32 92.56,27.25 92.78,27.24 92.99,27.24 93.19,27.31 93.39,27.38 93.56,27.50 93.73,27.63 93.85,27.81 93.97,27.98 94.03,28.18 94.09,28.39 94.08,28.60 94.07,28.81 93.99,29.01 93.92,29.21 93.78,29.37 93.64,29.54 93.46,29.65 93.28,29.76 93.07,29.80 92.87,29.85 92.66,29.83 92.44,29.81 92.25,29.72 92.06,29.63 91.90,29.49 91.75,29.34 91.65,29.16 91.55,28.97 91.51,28.76 91.47,28.55 91.47,28.55 91.47,28.55 91.02,26.17 90.57,23.79 90.54,22.03 90.51,20.26 90.46,18.37 90.40,16.47 90.44,14.71 90.48,12.95 90.64,12.76 90.80,12.57 91.01,12.42 91.22,12.28 91.45,12.18 91.69,12.09 91.94,12.06 92.19,12.02 92.44,12.05 92.69,12.08 92.93,12.16 93.16,12.25 93.37,12.39 93.58,12.53 93.75,12.72 93.92,12.90 94.05,13.12 94.17,13.35 94.23,13.59 94.29,13.84 94.30,14.09 94.30,14.34 94.24,14.59 94.19,14.83 94.07,15.06 93.96,15.28 93.54,15.63 93.12,15.97 92.17,17.39 91.22,18.80 89.54,21.04 87.86,23.28 85.51,25.85 83.15,28.41 80.65,29.78 78.16,31.15 75.71,30.47 73.25,29.79 72.31,27.60 71.37,25.41 71.44,22.56 71.51,19.72 71.69,15.23 71.86,10.74 72.29,4.54 72.72,-1.64 73.15,-5.93 73.57,-10.22 74.41,-12.54 75.26,-14.86 75.30,-15.11 75.35,-15.36 75.46,-15.58 75.56,-15.81 75.72,-16.01 75.88,-16.21 76.08,-16.36 76.28,-16.51 76.51,-16.62 76.74,-16.72 76.99,-16.76 77.24,-16.80 77.49,-16.79 77.74,-16.77 77.98,-16.69 78.22,-16.61 78.44,-16.48 78.65,-16.35 78.83,-16.17 79.00,-15.99 79.13,-15.77 79.26,-15.55 79.33,-15.31 79.41,-15.07 79.42,-14.82 79.43,-14.57 79.76,-12.63 80.09,-10.69 79.84,-7.66 79.58,-4.64 79.02,-0.73 78.46,3.16 77.13,6.71 75.80,10.27 73.39,13.52 70.98,16.78 68.91,18.09 66.83,19.39 64.98,20.03 63.12,20.67 60.56,20.94 57.99,21.21 56.31,21.11 54.62,21.02 53.09,20.37 51.55,19.73 50.23,20.05 48.92,20.36 47.68,21.08 46.44,21.81 45.05,22.40 43.66,22.99 41.43,22.58 39.19,22.18 39.34,19.36 39.49,16.55 40.09,15.05 40.68,13.56 41.35,12.58 42.01,11.60 42.20,11.43 42.39,11.26 42.61,11.14 42.83,11.02 43.07,10.96 43.32,10.90 43.57,10.89 43.82,10.89 44.07,10.95 44.31,11.00 44.54,11.12 44.76,11.23 44.95,11.40 45.15,11.56 45.29,11.77 45.44,11.98 45.53,12.21 45.62,12.45 45.65,12.70 45.69,12.95 45.66,13.20 45.63,13.45 45.55,13.68 45.46,13.92 45.32,14.13 45.18,14.34 44.81,14.43 44.45,14.52 43.23,15.93 42.02,17.34 40.15,19.06 38.29,20.79 35.96,21.91 33.63,23.03 31.53,22.40 29.42,21.78 28.58,19.73 27.73,17.68 27.90,15.02 28.08,12.36 28.48,8.88 28.88,5.39 29.80,1.21 30.72,-2.96 31.89,-7.57 33.06,-12.18 34.21,-14.13 35.36,-16.08 36.52,-16.53 37.68,-16.98 37.73,-17.22 37.78,-17.46 37.89,-17.68 37.99,-17.90 38.15,-18.08 38.30,-18.27 38.50,-18.42 38.69,-18.56 38.92,-18.66 39.15,-18.75 39.39,-18.79 39.63,-18.82 39.87,-18.80 40.11,-18.78 40.34,-18.70 40.58,-18.62 40.78,-18.49 40.99,-18.36 41.15,-18.18 41.32,-18.01 41.44,-17.79 41.56,-17.58 41.63,-17.35 41.69,-17.11 41.70,-16.87 41.71,-16.62 42.02,-15.02 42.33,-13.41 41.96,-9.85 41.58,-6.29 40.25,-3.25 38.91,-0.21 36.97,2.26 35.03,4.74 32.87,6.49 30.71,8.24 28.48,9.48 26.25,10.73 25.15,10.89 24.04,11.06 23.89,11.25 23.73,11.44 23.53,11.58 23.33,11.73 23.11,11.82 22.88,11.92 22.64,11.95 22.40,11.99 22.15,11.97 21.91,11.94 21.68,11.86 21.45,11.78 21.24,11.65 21.04,11.52 20.87,11.34 20.70,11.16 20.58,10.95 20.46,10.74 20.39,10.50 20.33,10.26 20.32,10.02 20.31,9.77 20.37,9.54 20.42,9.30 20.52,9.08 20.63,8.86 20.55,8.72 20.46,8.59 21.07,7.57 21.68,6.56 22.90,5.33 24.12,4.10 25.63,3.11 27.14,2.13 28.73,1.89 30.33,1.66 30.53,1.56 30.72,1.46 30.93,1.40 31.15,1.35 31.37,1.35 31.59,1.35 31.80,1.40 32.02,1.45 32.21,1.56 32.41,1.66 32.57,1.80 32.74,1.95 32.87,2.13 32.99,2.31 33.07,2.52 33.15,2.72 33.18,2.94 33.20,3.16 33.18,3.38 33.15,3.60 33.07,3.80 33.00,4.01 32.87,4.19 32.75,4.37 32.58,4.52 32.42,4.67 32.00,5.17 31.57,5.67 30.43,6.45 29.28,7.24 27.81,7.87 26.34,8.49 24.83,8.69 23.31,8.89 20.73,8.08 18.14,7.27 17.12,7.71 16.10,8.15 14.89,8.85 13.68,9.55 11.32,9.62 8.95,9.69 8.49,7.48 8.02,5.27 7.56,3.80 7.10,2.33 5.84,2.12 4.59,1.91 2.29,1.87 0,1.82 -0.21,1.80 -0.43,1.77 -0.64,1.69 -0.84,1.61 -1.03,1.49 -1.21,1.36 -1.35,1.20 -1.50,1.03 -1.60,0.84 -1.71,0.64 -1.76,0.43 -1.81,0.22 -1.81,-0.00 -1.81,-0.22 -1.76,-0.43 -1.70,-0.64 -1.60,-0.84 -1.50,-1.03 -1.35,-1.20 -1.21,-1.36 -1.03,-1.49 -0.84,-1.61 -0.64,-1.69 -0.43,-1.77 -0.21,-1.80 0.00,-1.82 0.00,-1.82 L 0,-1.82 Z"></path></g><g transform="translate(651.6000366210938 621.3125) rotate(0 29.5999755859375 2.800018310546875)" stroke="none"><path fill="#000" d="M 0.42,-2.14 Q 0.42,-2.14 3.90,-1.56 7.37,-0.98 11.28,-0.47 15.20,0.03 22.60,0.75 30.00,1.47 38.40,2.21 46.81,2.94 50.39,3.45 53.96,3.96 54.17,4.00 54.38,4.05 54.56,4.16 54.74,4.27 54.88,4.44 55.01,4.60 55.09,4.80 55.17,5.00 55.18,5.21 55.19,5.42 55.13,5.62 55.07,5.83 54.95,6.00 54.83,6.18 54.66,6.31 54.49,6.43 54.29,6.50 54.09,6.57 53.87,6.56 53.66,6.56 53.46,6.49 53.26,6.42 53.09,6.29 52.92,6.16 52.80,5.99 52.69,5.81 52.63,5.61 52.58,5.40 52.59,5.19 52.60,4.98 52.68,4.78 52.76,4.58 52.90,4.42 53.04,4.26 53.22,4.15 53.41,4.04 53.61,4.00 53.82,3.96 54.03,3.98 54.24,4.01 54.44,4.10 54.63,4.19 54.78,4.33 54.93,4.48 55.03,4.67 55.13,4.86 55.16,5.07 55.20,5.28 55.16,5.49 55.12,5.70 55.02,5.88 54.92,6.07 54.77,6.22 54.61,6.36 54.42,6.45 54.22,6.54 54.01,6.56 53.80,6.58 53.80,6.58 53.80,6.58 50.19,6.64 46.58,6.71 38.08,6.40 29.57,6.10 22.07,5.46 14.57,4.81 10.50,4.27 6.42,3.74 2.99,2.94 -0.42,2.14 -0.68,2.06 -0.93,1.98 -1.15,1.84 -1.37,1.70 -1.56,1.51 -1.74,1.32 -1.87,1.09 -2.01,0.86 -2.08,0.61 -2.16,0.35 -2.17,0.09 -2.18,-0.16 -2.13,-0.42 -2.08,-0.68 -1.96,-0.92 -1.85,-1.16 -1.68,-1.36 -1.52,-1.57 -1.31,-1.73 -1.10,-1.89 -0.86,-1.99 -0.61,-2.10 -0.35,-2.14 -0.09,-2.18 0.16,-2.16 0.42,-2.14 0.42,-2.14 L 0.42,-2.14 Z"></path></g><g transform="translate(1028.4000244140625 674.9125366210938) rotate(0 9.20001220703125 14.39996337890625)" stroke="none"><path fill="#000" d="M 1.49,0 Q 1.49,0 1.71,1.15 1.93,2.3 1.93,3.47 1.94,4.65 1.98,6.99 2.03,9.33 2.04,11.48 2.04,13.62 2.05,15.46 2.05,17.29 2.06,18.99 2.07,20.68 2.08,22.56 2.09,24.43 2.09,25.68 2.09,26.94 2.10,27.80 2.12,28.66 2.09,28.91 2.06,29.16 1.97,29.40 1.87,29.64 1.73,29.85 1.58,30.06 1.39,30.23 1.20,30.40 0.97,30.52 0.75,30.64 0.50,30.70 0.25,30.76 -0.00,30.76 -0.25,30.76 -0.50,30.70 -0.75,30.64 -0.97,30.52 -1.20,30.40 -1.39,30.23 -1.58,30.06 -1.73,29.85 -1.88,29.64 -1.97,29.40 -2.06,29.16 -2.09,28.91 -2.12,28.66 -1.31,27.45 -0.50,26.25 0.58,25.18 1.67,24.12 4.07,22.48 6.48,20.85 7.86,20.26 9.25,19.68 10.24,19.23 11.22,18.78 12.41,18.32 13.60,17.87 14.79,17.64 15.99,17.42 17.60,18.16 19.21,18.90 19.68,19.93 20.15,20.96 20.14,23.01 20.13,25.06 19.22,26.13 18.30,27.20 17.12,27.79 15.94,28.39 14.76,28.85 13.58,29.31 11.47,28.91 9.37,28.52 9.19,28.41 9.00,28.30 8.86,28.14 8.72,27.98 8.64,27.78 8.56,27.59 8.55,27.37 8.54,27.16 8.59,26.96 8.65,26.75 8.76,26.57 8.88,26.40 9.05,26.27 9.22,26.14 9.42,26.07 9.62,26.00 9.83,25.99 10.04,25.99 10.24,26.06 10.45,26.12 10.62,26.25 10.79,26.38 10.91,26.55 11.03,26.73 11.09,26.93 11.15,27.14 11.14,27.35 11.13,27.56 11.05,27.76 10.98,27.96 10.84,28.12 10.70,28.28 10.52,28.39 10.34,28.51 10.13,28.55 9.93,28.60 9.72,28.58 9.50,28.56 9.31,28.47 9.12,28.39 8.96,28.24 8.81,28.10 8.70,27.91 8.60,27.72 8.57,27.51 8.53,27.30 8.56,27.09 8.59,26.88 8.69,26.70 8.79,26.51 8.94,26.36 9.10,26.21 9.29,26.12 9.48,26.03 9.69,26.00 9.90,25.98 10.11,26.02 10.32,26.07 10.32,26.07 10.32,26.07 11.20,25.74 12.08,25.42 13.11,25.02 14.14,24.62 15.36,24.25 16.57,23.88 15.82,22.83 15.08,21.79 14.02,22.19 12.97,22.59 11.92,23.07 10.88,23.54 9.65,24.06 8.42,24.57 6.52,25.85 4.63,27.12 3.37,27.89 2.12,28.66 2.09,28.91 2.06,29.16 1.97,29.40 1.88,29.64 1.73,29.85 1.58,30.06 1.39,30.23 1.20,30.40 0.97,30.52 0.75,30.64 0.50,30.70 0.25,30.76 0.00,30.76 -0.25,30.76 -0.50,30.70 -0.75,30.64 -0.97,30.52 -1.20,30.40 -1.39,30.23 -1.58,30.06 -1.73,29.85 -1.87,29.64 -1.97,29.40 -2.06,29.16 -2.09,28.91 -2.12,28.66 -2.10,27.80 -2.09,26.94 -2.09,25.68 -2.09,24.43 -2.08,22.56 -2.07,20.68 -2.06,18.99 -2.05,17.29 -2.05,15.46 -2.04,13.62 -2.04,11.48 -2.03,9.33 -1.98,6.99 -1.94,4.65 -1.93,3.47 -1.93,2.3 -1.71,1.15 -1.49,0 -1.47,-0.17 -1.45,-0.35 -1.39,-0.52 -1.32,-0.69 -1.22,-0.84 -1.12,-0.99 -0.98,-1.11 -0.85,-1.23 -0.69,-1.31 -0.53,-1.40 -0.35,-1.44 -0.18,-1.48 0.00,-1.48 0.18,-1.48 0.35,-1.44 0.53,-1.40 0.69,-1.31 0.85,-1.23 0.98,-1.11 1.12,-0.99 1.22,-0.84 1.32,-0.69 1.39,-0.52 1.45,-0.35 1.47,-0.17 1.49,0.00 1.49,0.00 L 1.49,0 Z"></path></g><g transform="translate(1055.5999755859375 695.7125244140625) rotate(0 2.800048828125 2.79998779296875)" stroke="none"><path fill="#000" d="M 1.63,0 Q 1.63,0 1.79,1.60 1.94,3.21 2.31,4.37 2.67,5.53 3.92,5.74 5.18,5.95 6.00,4.80 6.82,3.64 6.42,2.56 6.02,1.47 4.17,0.62 2.33,-0.22 0.99,-0.95 -0.35,-1.68 -0.18,-1.55 -0.01,-1.42 0.10,-1.24 0.22,-1.06 0.27,-0.86 0.33,-0.65 0.31,-0.44 0.30,-0.23 0.22,-0.03 0.14,0.15 0.00,0.31 -0.13,0.47 -0.31,0.58 -0.50,0.69 -0.70,0.73 -0.91,0.78 -1.12,0.75 -1.33,0.73 -1.53,0.64 -1.72,0.55 -1.87,0.40 -2.02,0.25 -2.12,0.06 -2.22,-0.12 -2.25,-0.33 -2.28,-0.54 -2.25,-0.75 -2.21,-0.95 -2.11,-1.14 -2.01,-1.33 -1.85,-1.47 -1.70,-1.62 -1.50,-1.71 -1.31,-1.79 -1.10,-1.81 -0.89,-1.83 -0.68,-1.79 -0.47,-1.74 -0.29,-1.63 -0.11,-1.52 0.01,-1.35 0.15,-1.19 0.23,-0.99 0.30,-0.79 0.31,-0.58 0.32,-0.37 0.26,-0.17 0.21,0.03 0.08,0.20 -0.03,0.38 -0.20,0.51 -0.37,0.63 -0.57,0.70 -0.77,0.76 -0.98,0.76 -1.20,0.76 -1.40,0.69 -1.60,0.62 -1.60,0.62 -1.60,0.62 -0.33,-1.62 0.93,-3.87 2.06,-3.70 3.20,-3.54 4.82,-3.02 6.45,-2.49 7.56,-1.52 8.68,-0.55 9.44,0.73 10.20,2.02 10.12,3.20 10.04,4.37 8.80,6.51 7.57,8.64 6.29,9.15 5.01,9.66 3.89,9.52 2.78,9.38 1.43,8.86 0.08,8.34 -0.85,7.11 -1.79,5.88 -1.87,4.55 -1.94,3.21 -1.79,1.60 -1.63,0 -1.60,-0.19 -1.58,-0.39 -1.51,-0.57 -1.44,-0.75 -1.33,-0.92 -1.22,-1.08 -1.07,-1.21 -0.92,-1.34 -0.75,-1.43 -0.57,-1.52 -0.38,-1.57 -0.19,-1.62 0.00,-1.62 0.19,-1.62 0.38,-1.57 0.57,-1.52 0.75,-1.43 0.92,-1.34 1.07,-1.21 1.22,-1.08 1.33,-0.92 1.44,-0.75 1.51,-0.57 1.58,-0.39 1.60,-0.19 1.63,0.00 1.63,0.00 L 1.63,0 Z"></path></g><g transform="translate(1070.800048828125 698.9125366210938) rotate(0 0 2.79998779296875)" stroke="none"><path fill="#000" d="M 1.54,0.77 Q 1.54,0.77 0.94,2.19 0.34,3.61 0.02,5.08 -0.30,6.55 0.94,5.29 2.18,4.02 2.83,2.33 3.47,0.63 1.44,0.18 -0.59,-0.26 -1.06,-1.02 -1.54,-1.79 -1.35,-1.70 -1.15,-1.61 -1.00,-1.46 -0.84,-1.32 -0.75,-1.13 -0.65,-0.94 -0.61,-0.73 -0.58,-0.52 -0.61,-0.31 -0.65,-0.10 -0.75,0.08 -0.85,0.26 -1.00,0.41 -1.15,0.56 -1.35,0.64 -1.54,0.73 -1.75,0.76 -1.96,0.78 -2.17,0.73 -2.38,0.69 -2.56,0.58 -2.74,0.47 -2.88,0.31 -3.02,0.15 -3.09,-0.04 -3.17,-0.24 -3.18,-0.45 -3.20,-0.66 -3.14,-0.87 -3.08,-1.07 -2.96,-1.25 -2.84,-1.43 -2.67,-1.55 -2.51,-1.68 -2.30,-1.75 -2.10,-1.82 -1.89,-1.82 -1.68,-1.82 -1.48,-1.75 -1.27,-1.68 -1.11,-1.55 -0.94,-1.42 -0.82,-1.25 -0.70,-1.07 -0.64,-0.87 -0.58,-0.66 -0.60,-0.45 -0.61,-0.24 -0.69,-0.04 -0.77,0.15 -0.90,0.31 -1.04,0.47 -1.22,0.58 -1.40,0.69 -1.61,0.73 -1.82,0.78 -2.03,0.76 -2.24,0.73 -2.24,0.73 -2.24,0.73 -2.70,-1.46 -3.15,-3.66 -1.65,-3.84 -0.15,-4.03 1.43,-3.80 3.02,-3.57 4.44,-2.79 5.85,-2.01 6.36,-0.43 6.88,1.13 6.45,2.58 6.03,4.02 5.20,5.28 4.37,6.53 3.22,7.56 2.07,8.58 0.84,9.14 -0.37,9.70 -2.22,8.63 -4.08,7.57 -3.96,5.94 -3.84,4.32 -3.47,3.11 -3.10,1.90 -2.32,0.56 -1.54,-0.77 -1.43,-0.94 -1.31,-1.12 -1.16,-1.26 -1.01,-1.40 -0.82,-1.50 -0.64,-1.60 -0.44,-1.65 -0.24,-1.71 -0.03,-1.71 0.17,-1.72 0.37,-1.67 0.58,-1.62 0.76,-1.53 0.95,-1.44 1.11,-1.30 1.27,-1.17 1.39,-1.00 1.51,-0.83 1.59,-0.64 1.67,-0.44 1.69,-0.24 1.72,-0.03 1.70,0.17 1.68,0.38 1.61,0.57 1.54,0.77 1.54,0.77 L 1.54,0.77 Z"></path></g><g transform="translate(1090.800048828125 687.7125244140625) rotate(0 -3.60003662109375 14)" stroke="none"><path fill="#000" d="M 1.97,0.21 Q 1.97,0.21 1.79,2.29 1.60,4.37 0.78,7.26 -0.02,10.16 -0.83,12.71 -1.63,15.27 -2.44,17.54 -3.25,19.81 -3.80,21.63 -4.36,23.44 -5.96,24.19 -7.55,24.93 -7.39,24.80 -7.23,24.66 -7.04,24.58 -6.84,24.50 -6.63,24.48 -6.41,24.47 -6.21,24.53 -6.00,24.58 -5.83,24.70 -5.65,24.82 -5.52,24.99 -5.39,25.15 -5.32,25.35 -5.25,25.56 -5.25,25.77 -5.25,25.98 -5.32,26.18 -5.38,26.38 -5.51,26.55 -5.64,26.72 -5.81,26.84 -5.99,26.96 -6.19,27.02 -6.40,27.08 -6.61,27.07 -6.82,27.06 -7.02,26.98 -7.22,26.91 -7.38,26.77 -7.54,26.63 -7.65,26.45 -7.76,26.27 -7.81,26.06 -7.86,25.86 -7.84,25.65 -7.82,25.43 -7.73,25.24 -7.64,25.05 -7.49,24.89 -7.35,24.74 -7.16,24.64 -6.98,24.54 -6.77,24.50 -6.56,24.46 -6.35,24.50 -6.14,24.53 -5.95,24.63 -5.76,24.73 -5.61,24.88 -5.47,25.03 -5.38,25.22 -5.28,25.42 -5.26,25.63 -5.24,25.84 -5.28,26.05 -5.32,26.25 -5.43,26.44 -5.54,26.62 -5.54,26.62 -5.54,26.62 -6.95,24.42 -8.35,22.23 -7.77,20.31 -7.18,18.40 -6.40,16.21 -5.61,14.02 -4.83,11.51 -4.04,8.99 -3.28,6.45 -2.52,3.90 -2.25,1.84 -1.97,-0.21 -1.91,-0.45 -1.86,-0.68 -1.75,-0.89 -1.64,-1.11 -1.48,-1.29 -1.33,-1.47 -1.13,-1.61 -0.94,-1.74 -0.71,-1.83 -0.49,-1.92 -0.25,-1.95 -0.02,-1.98 0.21,-1.95 0.45,-1.93 0.68,-1.85 0.90,-1.76 1.10,-1.63 1.30,-1.49 1.46,-1.32 1.62,-1.14 1.73,-0.93 1.84,-0.72 1.90,-0.49 1.96,-0.25 1.97,-0.01 1.97,0.21 1.97,0.21 L 1.97,0.21 Z"></path></g><g transform="translate(1115.5999755859375 698.9125366210938) rotate(0 -9.199951171875 8.399993896484375)" stroke="none"><path fill="#000" d="M 0.33,1.68 Q 0.33,1.68 -1.94,2.23 -4.22,2.77 -6.10,3.20 -7.97,3.63 -9.68,4.05 -11.40,4.47 -13.71,5.10 -16.02,5.74 -17.94,6.26 -19.86,6.77 -21.04,7.20 -22.22,7.62 -20.39,7.60 -18.56,7.59 -16.80,8.06 -15.03,8.53 -12.83,9.23 -10.62,9.93 -8.89,10.73 -7.16,11.52 -6.00,12.07 -4.85,12.62 -3.03,13.51 -1.21,14.41 0.73,12.61 2.67,10.80 3.80,9.49 4.92,8.18 4.79,8.30 4.66,8.41 4.82,8.25 4.99,8.10 5.18,7.98 5.38,7.87 5.59,7.80 5.81,7.74 6.04,7.73 6.26,7.72 6.49,7.76 6.71,7.80 6.91,7.90 7.12,7.99 7.29,8.14 7.47,8.28 7.61,8.46 7.75,8.64 7.84,8.84 7.93,9.05 7.96,9.28 8.00,9.50 7.99,9.72 7.97,9.95 7.90,10.17 7.83,10.38 7.71,10.57 7.59,10.77 7.32,12.26 7.05,13.76 5.44,15.61 3.83,17.46 1.99,17.69 0.15,17.92 -0.05,17.93 -0.26,17.95 -0.47,17.89 -0.67,17.84 -0.85,17.72 -1.03,17.61 -1.16,17.44 -1.29,17.27 -1.36,17.07 -1.43,16.87 -1.43,16.66 -1.44,16.45 -1.37,16.24 -1.31,16.04 -1.18,15.87 -1.05,15.70 -0.88,15.58 -0.71,15.46 -0.50,15.40 -0.30,15.34 -0.08,15.35 0.12,15.35 0.32,15.43 0.51,15.51 0.68,15.64 0.84,15.78 0.95,15.96 1.07,16.14 1.11,16.34 1.16,16.55 1.14,16.76 1.12,16.97 1.04,17.17 0.95,17.36 0.81,17.52 0.66,17.67 0.48,17.78 0.29,17.88 0.08,17.92 -0.12,17.95 -0.33,17.92 -0.54,17.89 -0.73,17.79 -0.92,17.70 -1.07,17.54 -1.21,17.39 -1.31,17.20 -1.40,17.01 -1.42,16.80 -1.45,16.59 -1.41,16.38 -1.36,16.17 -1.26,15.99 -1.15,15.80 -0.99,15.66 -0.83,15.52 -0.63,15.44 -0.44,15.36 -0.44,15.36 -0.44,15.36 1.21,14.63 2.86,13.89 3.40,12.50 3.93,11.11 4.30,9.76 4.66,8.41 4.82,8.25 4.99,8.10 5.18,7.98 5.38,7.87 5.59,7.80 5.81,7.74 6.04,7.73 6.26,7.72 6.48,7.76 6.71,7.80 6.91,7.90 7.12,7.99 7.29,8.14 7.47,8.28 7.61,8.46 7.75,8.64 7.84,8.84 7.93,9.05 7.96,9.28 8.00,9.50 7.99,9.72 7.97,9.95 7.90,10.17 7.83,10.38 7.71,10.57 7.59,10.77 7.10,10.87 6.61,10.98 5.95,12.15 5.29,13.32 3.69,15.12 2.08,16.91 -0.42,17.42 -2.93,17.92 -4.73,17.04 -6.53,16.15 -7.66,15.61 -8.80,15.07 -10.29,14.37 -11.79,13.67 -13.92,13.03 -16.06,12.38 -18.02,11.86 -19.97,11.33 -21.80,10.63 -23.62,9.93 -24.56,9.09 -25.51,8.25 -25.51,6.93 -25.52,5.61 -24.56,4.74 -23.60,3.86 -22.23,3.40 -20.86,2.94 -18.95,2.45 -17.04,1.97 -14.67,1.34 -12.29,0.71 -10.55,0.31 -8.81,-0.09 -6.89,-0.51 -4.97,-0.93 -2.65,-1.31 -0.33,-1.68 -0.13,-1.70 0.07,-1.71 0.28,-1.68 0.48,-1.64 0.67,-1.56 0.86,-1.48 1.03,-1.35 1.19,-1.23 1.32,-1.07 1.45,-0.91 1.54,-0.72 1.63,-0.53 1.67,-0.33 1.71,-0.13 1.70,0.07 1.69,0.28 1.63,0.48 1.57,0.68 1.47,0.85 1.36,1.03 1.22,1.18 1.08,1.33 0.90,1.44 0.73,1.55 0.53,1.62 0.33,1.68 0.33,1.68 L 0.33,1.68 Z"></path></g><g transform="translate(795.6000366210938 655.7125244140625) rotate(0 32.39996337890625 15.199981689453125)" stroke="none"><path fill="#000" d="M 1.52,0.38 Q 1.52,0.38 1.22,2.26 0.91,4.14 0.25,6.15 -0.39,8.16 -1.36,10.65 -2.32,13.13 -3.16,15.53 -3.99,17.92 -4.78,20.73 -5.57,23.54 -6.18,25.06 -6.79,26.59 -6.56,27.28 -6.34,27.97 -6.45,28.19 -6.56,28.42 -6.72,28.61 -6.88,28.81 -7.08,28.95 -7.29,29.10 -7.52,29.20 -7.75,29.29 -8.00,29.33 -8.25,29.37 -8.50,29.35 -8.75,29.32 -8.99,29.24 -9.23,29.16 -9.44,29.02 -9.65,28.88 -9.82,28.70 -9.99,28.52 -10.12,28.30 -10.24,28.08 -10.31,27.83 -10.37,27.59 -10.38,27.34 -10.39,27.09 -10.34,26.84 -10.28,26.60 -7.53,24.27 -4.78,21.94 -3.55,20.94 -2.32,19.93 -0.94,19.16 0.42,18.39 1.99,17.89 3.55,17.39 5.26,17.80 6.97,18.22 7.53,19.17 8.09,20.13 8.91,21.36 9.74,22.59 11.06,22.91 12.39,23.24 14.27,22.52 16.15,21.81 16.88,20.24 17.61,18.66 16.52,20.20 15.44,21.73 17.47,20.73 19.51,19.73 20.48,19.13 21.45,18.53 23.00,18.10 24.55,17.67 25.62,19.55 26.70,21.43 27.32,22.72 27.94,24.02 29.37,23.66 30.80,23.31 32.11,22.21 33.42,21.12 34.63,19.77 35.85,18.42 37.29,17.41 38.73,16.39 40.17,16.84 41.62,17.29 42.11,18.80 42.60,20.31 42.90,22.44 43.21,24.56 43.55,25.80 43.89,27.04 45.63,25.54 47.38,24.03 48.77,22.35 50.17,20.66 50.96,19.51 51.74,18.35 53.64,17.91 55.53,17.46 56.29,18.48 57.04,19.50 58.51,20.12 59.98,20.75 61.75,20.89 63.53,21.03 66.11,21.00 68.69,20.97 70.92,20.73 73.15,20.49 73.36,20.48 73.57,20.48 73.77,20.54 73.98,20.61 74.15,20.73 74.32,20.86 74.44,21.03 74.56,21.21 74.62,21.41 74.68,21.61 74.68,21.83 74.67,22.04 74.59,22.24 74.52,22.44 74.38,22.60 74.25,22.77 74.07,22.88 73.89,22.99 73.68,23.04 73.47,23.09 73.26,23.07 73.05,23.05 72.86,22.96 72.66,22.88 72.51,22.73 72.35,22.59 72.25,22.40 72.14,22.22 72.11,22.01 72.07,21.80 72.10,21.59 72.13,21.38 72.23,21.19 72.32,21.00 72.47,20.85 72.63,20.70 72.82,20.61 73.01,20.52 73.22,20.49 73.43,20.47 73.64,20.51 73.85,20.55 74.03,20.66 74.21,20.76 74.35,20.92 74.50,21.08 74.58,21.28 74.66,21.48 74.67,21.69 74.69,21.90 74.64,22.10 74.58,22.31 74.47,22.49 74.35,22.67 74.18,22.80 74.02,22.93 73.82,23.00 73.61,23.07 73.62,23.07 73.62,23.07 71.24,23.66 68.87,24.26 66.02,24.52 63.18,24.78 60.84,24.53 58.50,24.28 57.30,23.75 56.10,23.22 55.36,21.80 54.63,20.38 53.78,21.62 52.93,22.86 51.56,24.64 50.19,26.42 48.21,28.63 46.24,30.84 45.19,31.11 44.15,31.37 42.82,30.99 41.49,30.62 40.66,29.37 39.84,28.13 39.45,26.65 39.07,25.17 38.87,23.09 38.68,21.01 37.29,22.54 35.89,24.06 34.30,25.40 32.72,26.73 31.06,27.56 29.40,28.38 28.08,28.27 26.76,28.16 25.75,27.42 24.73,26.68 23.96,25.60 23.18,24.52 23.33,23.14 23.47,21.77 22.37,22.46 21.27,23.14 19.06,24.25 16.85,25.36 15.21,25.47 13.57,25.58 12.58,25.02 11.59,24.46 11.24,22.75 10.90,21.05 11.52,20.04 12.14,19.04 12.96,18.07 13.78,17.10 15.06,16.13 16.33,15.15 17.67,14.85 19.01,14.56 20.13,15.26 21.25,15.97 21.29,17.90 21.34,19.83 20.82,21.25 20.31,22.68 19.20,23.94 18.09,25.20 16.34,26.11 14.60,27.02 13.13,27.17 11.65,27.33 10.27,27.01 8.90,26.70 7.15,25.19 5.40,23.68 4.91,22.52 4.42,21.35 3.39,21.66 2.36,21.96 1.30,22.52 0.24,23.08 -1.01,24.12 -2.27,25.16 -4.30,26.56 -6.34,27.97 -6.45,28.19 -6.56,28.42 -6.72,28.61 -6.88,28.80 -7.08,28.95 -7.29,29.10 -7.52,29.20 -7.75,29.29 -8.00,29.33 -8.25,29.37 -8.50,29.35 -8.75,29.32 -8.99,29.24 -9.23,29.16 -9.44,29.02 -9.65,28.88 -9.82,28.70 -9.99,28.52 -10.12,28.30 -10.24,28.08 -10.31,27.83 -10.37,27.59 -10.38,27.34 -10.39,27.09 -10.34,26.84 -10.28,26.60 -10.48,26.32 -10.68,26.04 -10.12,24.21 -9.56,22.38 -8.69,19.46 -7.83,16.53 -6.91,14.10 -6.00,11.67 -5.03,9.29 -4.06,6.92 -3.41,5.07 -2.75,3.21 -2.14,1.41 -1.52,-0.38 -1.45,-0.55 -1.38,-0.73 -1.28,-0.89 -1.17,-1.04 -1.03,-1.17 -0.88,-1.29 -0.72,-1.38 -0.55,-1.47 -0.36,-1.51 -0.18,-1.56 0.00,-1.55 0.19,-1.55 0.37,-1.51 0.56,-1.46 0.72,-1.37 0.89,-1.28 1.03,-1.16 1.17,-1.03 1.28,-0.88 1.39,-0.72 1.45,-0.54 1.52,-0.37 1.54,-0.18 1.57,0.00 1.54,0.19 1.52,0.38 1.52,0.38 L 1.52,0.38 Z"></path></g><g transform="translate(873.2000122070312 673.3125) rotate(0 -5.20001220703125 7.20001220703125)" stroke="none"><path fill="#000" d="M 0.72,1.34 Q 0.72,1.34 -2.09,3.18 -4.90,5.02 -6.02,6.45 -7.14,7.89 -3.72,10.22 -0.29,12.55 -0.11,12.66 0.06,12.77 0.20,12.93 0.34,13.09 0.42,13.29 0.49,13.48 0.51,13.70 0.52,13.91 0.46,14.11 0.41,14.32 0.29,14.49 0.17,14.67 0.00,14.80 -0.16,14.93 -0.36,15.00 -0.56,15.07 -0.77,15.07 -0.99,15.07 -1.19,15.00 -1.39,14.93 -1.56,14.80 -1.73,14.68 -1.85,14.50 -1.97,14.33 -2.02,14.12 -2.08,13.92 -2.07,13.70 -2.06,13.49 -1.98,13.29 -1.90,13.10 -1.77,12.93 -1.63,12.77 -1.45,12.66 -1.27,12.55 -1.06,12.51 -0.85,12.46 -0.64,12.48 -0.43,12.50 -0.24,12.59 -0.04,12.68 0.10,12.83 0.26,12.97 0.36,13.16 0.46,13.35 0.49,13.56 0.53,13.77 0.49,13.98 0.46,14.19 0.36,14.37 0.26,14.56 0.11,14.71 -0.04,14.86 -0.23,14.95 -0.42,15.04 -0.63,15.06 -0.84,15.08 -1.05,15.04 -1.26,14.99 -1.26,14.99 -1.26,14.99 -5.37,13.52 -9.48,12.05 -10.15,9.42 -10.82,6.80 -8.93,4.11 -7.05,1.41 -3.88,0.03 -0.72,-1.34 -0.55,-1.41 -0.38,-1.47 -0.19,-1.50 -0.01,-1.52 0.16,-1.50 0.34,-1.48 0.52,-1.42 0.69,-1.35 0.84,-1.25 1.00,-1.15 1.12,-1.01 1.24,-0.88 1.33,-0.71 1.42,-0.55 1.46,-0.37 1.51,-0.20 1.51,-0.01 1.51,0.16 1.47,0.34 1.43,0.52 1.34,0.69 1.26,0.85 1.14,0.99 1.02,1.13 0.87,1.23 0.72,1.34 0.72,1.34 L 0.72,1.34 Z"></path></g></svg>