<svg version="1.1" xmlns="http://www.w3.org/2000/svg" viewBox="0 0 712.7999877929688 563.9999847412109">
  <!-- svg-source:excalidraw -->
  
  <defs>
    <style>
      @font-face {
        font-family: "Virgil";
        src: url("https://unpkg.com/@zsviczian/excalidraw@0.12.0-obsidian-10/dist/excalidraw-assets/Virgil.woff2");
      }
      @font-face {
        font-family: "Cascadia";
        src: url("https://unpkg.com/@zsviczian/excalidraw@0.12.0-obsidian-10/dist/excalidraw-assets/Cascadia.woff2");
      }
    </style>
  </defs>
  <rect x="0" y="0" width="712.7999877929688" height="563.9999847412109" fill="#ffffff"></rect><g transform="translate(65.199951171875 118.80000305175781) rotate(0 121.60000610351562 -18.400001525878906)" stroke="none"><path fill="#000000" d="M -1.86,0.53 Q -1.86,0.53 -2.34,-1.07 -2.81,-2.67 -2.95,-4.06 -3.10,-5.44 -2.50,-6.42 -1.91,-7.39 6.03,-9.45 13.97,-11.51 27.34,-13.93 40.71,-16.34 58.13,-18.98 75.54,-21.63 94.22,-24.12 112.90,-26.62 131.23,-28.36 149.55,-30.11 169.75,-31.93 189.95,-33.76 204.06,-34.92 218.18,-36.08 225.78,-36.71 233.39,-37.33 236.64,-37.48 239.89,-37.62 240.10,-37.61 240.31,-37.59 240.51,-37.51 240.70,-37.43 240.87,-37.29 241.03,-37.16 241.13,-36.97 241.24,-36.79 241.29,-36.58 241.33,-36.37 241.31,-36.16 241.28,-35.95 241.19,-35.76 241.10,-35.57 240.95,-35.41 240.81,-35.26 240.62,-35.16 240.43,-35.07 240.22,-35.03 240.01,-35.00 239.80,-35.04 239.59,-35.07 239.40,-35.17 239.22,-35.27 239.07,-35.43 238.93,-35.58 238.84,-35.78 238.75,-35.97 238.73,-36.18 238.71,-36.39 238.76,-36.60 238.80,-36.81 238.91,-36.99 239.02,-37.17 239.19,-37.31 239.35,-37.44 239.55,-37.52 239.75,-37.60 239.96,-37.61 240.17,-37.62 240.38,-37.56 240.58,-37.50 240.75,-37.38 240.93,-37.26 241.06,-37.09 241.18,-36.92 241.25,-36.72 241.32,-36.51 241.31,-36.30 241.31,-36.09 241.24,-35.89 241.17,-35.69 241.04,-35.52 240.91,-35.35 240.74,-35.23 240.56,-35.12 240.36,-35.06 240.15,-35.01 240.15,-35.01 240.15,-35.01 236.94,-34.50 233.73,-33.99 226.13,-33.08 218.53,-32.17 204.44,-30.80 190.35,-29.43 170.17,-27.47 149.99,-25.51 131.75,-23.76 113.52,-22.01 94.88,-19.52 76.23,-17.03 58.87,-14.45 41.51,-11.86 28.25,-9.54 14.98,-7.23 7.98,-5.49 0.97,-3.76 1.42,-2.14 1.86,-0.53 1.90,-0.30 1.94,-0.07 1.92,0.16 1.90,0.39 1.82,0.61 1.75,0.84 1.62,1.03 1.50,1.23 1.33,1.39 1.16,1.55 0.95,1.67 0.75,1.79 0.53,1.85 0.30,1.92 0.07,1.92 -0.16,1.93 -0.39,1.88 -0.62,1.84 -0.83,1.74 -1.04,1.63 -1.22,1.49 -1.40,1.34 -1.54,1.15 -1.68,0.96 -1.77,0.74 -1.86,0.53 -1.86,0.53 L -1.86,0.53 Z"></path></g><g transform="translate(62.79998779296875 118.80000305175781) rotate(0 135.5999755859375 49.59999084472656)" stroke="none"><path fill="#000000" d="M -1.47,0 Q -1.47,0 -1.63,-2.30 -1.79,-4.60 -1.60,-6.40 -1.41,-8.20 -1.06,-9.36 -0.71,-10.51 1.26,-11.56 3.24,-12.60 4.32,-11.88 5.39,-11.17 6.58,-8.78 7.77,-6.38 8.75,0.31 9.73,7.02 10.12,14.67 10.50,22.32 10.66,30.85 10.83,39.39 10.43,47.67 10.04,55.96 9.41,65.45 8.78,74.94 8.51,81.70 8.24,88.45 8.59,93.27 8.93,98.09 9.88,100.75 10.82,103.40 12.73,104.68 14.63,105.97 19.52,106.52 24.40,107.07 30.90,107.14 37.41,107.21 46.17,107.02 54.93,106.82 66.05,106.74 77.17,106.66 95.72,107.08 114.27,107.51 132.02,107.70 149.76,107.90 166.05,108.03 182.33,108.16 196.34,107.77 210.36,107.37 221.58,106.53 232.79,105.69 242.62,104.69 252.44,103.70 257.73,102.90 263.03,102.11 265.33,101.89 267.62,101.67 267.83,101.67 268.05,101.67 268.25,101.74 268.45,101.80 268.62,101.93 268.79,102.06 268.91,102.23 269.03,102.41 269.09,102.61 269.15,102.82 269.14,103.03 269.13,103.24 269.05,103.44 268.97,103.64 268.84,103.80 268.70,103.96 268.52,104.07 268.34,104.18 268.13,104.23 267.92,104.28 267.71,104.26 267.50,104.23 267.31,104.15 267.11,104.06 266.96,103.91 266.80,103.77 266.70,103.58 266.60,103.39 266.57,103.19 266.53,102.98 266.56,102.77 266.60,102.56 266.69,102.37 266.79,102.18 266.95,102.03 267.10,101.88 267.29,101.79 267.48,101.70 267.69,101.68 267.91,101.66 268.11,101.70 268.32,101.74 268.50,101.85 268.69,101.96 268.83,102.12 268.96,102.28 269.04,102.48 269.12,102.68 269.14,102.89 269.15,103.10 269.09,103.31 269.04,103.51 268.92,103.69 268.80,103.86 268.63,103.99 268.47,104.12 268.26,104.19 268.06,104.26 268.06,104.26 268.06,104.26 265.83,104.82 263.59,105.37 258.21,106.40 252.84,107.43 242.97,108.55 233.10,109.68 221.79,110.58 210.48,111.48 196.40,111.94 182.31,112.40 166.01,112.38 149.72,112.36 131.94,112.19 114.17,112.02 95.69,111.60 77.20,111.17 66.12,111.26 55.03,111.34 46.19,111.53 37.35,111.73 30.57,111.63 23.79,111.53 17.98,110.60 12.18,109.66 9.50,107.45 6.81,105.25 5.62,101.85 4.44,98.45 4.08,93.36 3.73,88.28 4.00,81.46 4.27,74.65 4.89,65.20 5.52,55.75 5.91,47.61 6.30,39.47 6.15,31.00 6.00,22.54 5.65,15.07 5.30,7.61 4.55,1.49 3.79,-4.63 3.06,-6.15 2.33,-7.66 2.06,-6.13 1.79,-4.59 1.63,-2.29 1.47,0 1.45,0.17 1.43,0.35 1.37,0.52 1.31,0.68 1.20,0.83 1.10,0.98 0.97,1.09 0.84,1.21 0.68,1.30 0.52,1.38 0.35,1.42 0.17,1.46 -0.00,1.46 -0.17,1.46 -0.35,1.42 -0.52,1.38 -0.68,1.30 -0.84,1.21 -0.97,1.09 -1.10,0.98 -1.20,0.83 -1.31,0.68 -1.37,0.52 -1.43,0.35 -1.45,0.17 -1.47,-0.00 -1.47,-0.00 L -1.47,0 Z"></path></g><g transform="translate(312.39996337890625 82) rotate(0 7.2000732421875 68.80000305175781)" stroke="none"><path fill="#000000" d="M 1.56,-0.58 Q 1.56,-0.58 2.52,1.15 3.48,2.89 4.82,10.31 6.17,17.72 6.94,26.87 7.70,36.02 8.02,46.14 8.35,56.25 8.47,67.68 8.60,79.11 9.34,87.31 10.08,95.51 11.06,101.48 12.04,107.45 13.32,112.22 14.61,116.98 15.16,119.32 15.72,121.65 16.11,124.33 16.51,127.01 16.34,129.92 16.17,132.83 15.26,135.29 14.35,137.75 14.26,137.94 14.17,138.13 14.02,138.29 13.87,138.44 13.68,138.54 13.49,138.63 13.28,138.66 13.07,138.70 12.86,138.66 12.65,138.62 12.47,138.52 12.28,138.42 12.14,138.26 11.99,138.10 11.91,137.91 11.82,137.72 11.80,137.50 11.78,137.29 11.83,137.09 11.88,136.88 11.99,136.70 12.10,136.52 12.27,136.38 12.43,136.25 12.63,136.17 12.83,136.10 13.04,136.09 13.25,136.08 13.46,136.14 13.66,136.20 13.83,136.32 14.01,136.44 14.13,136.61 14.26,136.78 14.33,136.99 14.39,137.19 14.39,137.40 14.38,137.61 14.31,137.81 14.24,138.01 14.11,138.18 13.98,138.35 13.80,138.47 13.63,138.58 13.42,138.64 13.21,138.69 13.00,138.68 12.79,138.66 12.59,138.58 12.40,138.50 12.24,138.36 12.08,138.22 11.97,138.03 11.86,137.85 11.82,137.64 11.78,137.43 11.81,137.22 11.83,137.01 11.83,137.01 11.83,137.01 12.27,134.88 12.70,132.75 12.59,130.24 12.48,127.73 11.93,125.23 11.38,122.73 10.79,120.47 10.20,118.20 8.79,113.22 7.38,108.23 6.34,102.09 5.30,95.95 4.55,87.56 3.79,79.17 3.65,67.79 3.51,56.41 3.20,46.41 2.88,36.42 2.16,27.47 1.43,18.52 0.35,11.49 -0.72,4.46 -1.14,2.52 -1.56,0.58 -1.60,0.39 -1.65,0.19 -1.65,-0.00 -1.65,-0.20 -1.60,-0.40 -1.55,-0.59 -1.46,-0.77 -1.36,-0.95 -1.23,-1.10 -1.10,-1.25 -0.93,-1.36 -0.76,-1.48 -0.58,-1.55 -0.39,-1.62 -0.19,-1.64 0.00,-1.66 0.20,-1.64 0.40,-1.61 0.59,-1.54 0.78,-1.47 0.94,-1.35 1.11,-1.24 1.24,-1.09 1.37,-0.94 1.46,-0.76 1.56,-0.58 1.56,-0.58 L 1.56,-0.58 Z"></path></g><g transform="translate(31.5999755859375 57.19999694824219) rotate(0 193.20001220703125 77.5999984741211)" stroke="none"><path fill="#000000" d="M -1.63,0.32 Q -1.63,0.32 -2.12,-2.41 -2.61,-5.15 -0.55,-7.33 1.49,-9.52 7.21,-11.60 12.92,-13.68 27.30,-16.62 41.68,-19.56 59.05,-22.41 76.42,-25.25 96.21,-28.30 116.00,-31.35 142.61,-34.72 169.22,-38.08 191.34,-40.66 213.45,-43.23 232.32,-44.78 251.18,-46.33 266.80,-47.21 282.42,-48.09 295.08,-48.22 307.73,-48.35 317.77,-47.70 327.81,-47.06 336.13,-45.15 344.44,-43.23 349.45,-41.23 354.46,-39.22 357.95,-36.38 361.43,-33.54 364.87,-28.02 368.31,-22.51 370.69,-15.93 373.08,-9.36 375.01,-1.24 376.94,6.86 378.67,16.06 380.41,25.26 382.29,34.89 384.17,44.52 385.89,54.16 387.61,63.79 388.81,75.09 390.01,86.38 390.29,94.68 390.57,102.98 389.29,110.83 388.02,118.67 386.29,124.14 384.57,129.60 382.66,133.82 380.74,138.04 378.75,141.49 376.76,144.94 374.46,147.87 372.17,150.80 369.50,153.27 366.84,155.74 362.49,159.31 358.14,162.87 354.45,165.76 350.76,168.66 347.84,171.02 344.91,173.39 342.29,175.54 339.67,177.69 336.42,180.03 333.18,182.37 330.32,183.89 327.45,185.40 325.17,186.69 322.88,187.98 320.68,189.02 318.48,190.07 313.74,191.48 308.99,192.89 306.11,193.70 303.22,194.51 299.22,195.54 295.22,196.58 290.72,197.49 286.21,198.41 281.77,199.25 277.34,200.10 272.93,200.91 268.51,201.73 265.25,202.31 261.99,202.89 258.47,203.25 254.96,203.60 251.42,203.26 247.88,202.93 247.67,202.89 247.46,202.85 247.27,202.75 247.09,202.65 246.94,202.49 246.80,202.34 246.71,202.14 246.63,201.95 246.61,201.74 246.58,201.53 246.63,201.32 246.68,201.11 246.79,200.93 246.90,200.75 247.07,200.61 247.23,200.48 247.43,200.40 247.63,200.33 247.84,200.32 248.05,200.31 248.26,200.37 248.46,200.43 248.63,200.55 248.81,200.67 248.94,200.84 249.06,201.01 249.13,201.21 249.19,201.42 249.19,201.63 249.19,201.84 249.12,202.04 249.05,202.24 248.92,202.41 248.79,202.58 248.61,202.69 248.43,202.81 248.23,202.87 248.02,202.92 247.81,202.91 247.60,202.89 247.40,202.81 247.20,202.73 247.04,202.59 246.88,202.45 246.78,202.27 246.67,202.08 246.63,201.88 246.58,201.67 246.61,201.46 246.63,201.25 246.73,201.05 246.82,200.86 246.96,200.71 247.11,200.56 247.30,200.46 247.49,200.36 247.70,200.33 247.91,200.30 247.91,200.30 247.91,200.30 251.17,200.04 254.44,199.78 257.83,199.19 261.22,198.59 264.47,198.01 267.71,197.44 272.12,196.62 276.52,195.81 280.93,194.97 285.34,194.13 289.74,193.24 294.13,192.36 298.09,191.33 302.05,190.31 304.90,189.51 307.76,188.71 312.19,187.42 316.61,186.12 318.68,185.15 320.74,184.17 323.08,182.85 325.42,181.54 328.03,180.18 330.63,178.83 333.76,176.57 336.90,174.32 339.53,172.15 342.17,169.99 345.12,167.61 348.07,165.22 351.72,162.36 355.37,159.50 359.63,156.01 363.88,152.53 366.31,150.31 368.75,148.10 370.86,145.42 372.98,142.74 374.87,139.49 376.77,136.23 378.59,132.25 380.41,128.28 382.06,123.12 383.71,117.95 384.95,110.53 386.20,103.11 385.93,94.98 385.66,86.84 384.48,75.70 383.29,64.56 381.57,54.97 379.85,45.37 377.97,35.72 376.09,26.07 374.38,16.97 372.67,7.87 370.82,-0.01 368.97,-7.90 366.79,-14.09 364.61,-20.28 361.64,-25.31 358.67,-30.34 355.75,-32.83 352.82,-35.33 348.15,-37.22 343.48,-39.10 335.51,-40.94 327.54,-42.78 317.66,-43.39 307.79,-44.00 295.23,-43.84 282.67,-43.67 267.11,-42.76 251.55,-41.86 232.77,-40.29 213.98,-38.73 191.89,-36.15 169.79,-33.57 143.24,-30.21 116.70,-26.85 96.92,-23.81 77.14,-20.78 59.85,-17.98 42.56,-15.17 28.44,-12.39 14.32,-9.61 9.23,-7.98 4.15,-6.34 2.46,-5.19 0.77,-4.04 1.20,-2.18 1.63,-0.32 1.65,-0.12 1.67,0.07 1.63,0.27 1.60,0.47 1.52,0.65 1.44,0.84 1.32,1.00 1.20,1.16 1.04,1.28 0.88,1.41 0.70,1.50 0.52,1.58 0.32,1.62 0.12,1.66 -0.07,1.65 -0.27,1.64 -0.46,1.59 -0.66,1.53 -0.83,1.43 -1.00,1.33 -1.15,1.19 -1.29,1.05 -1.40,0.88 -1.51,0.71 -1.57,0.51 -1.63,0.32 -1.63,0.32 L -1.63,0.32 Z"></path></g><g transform="translate(10.79998779296875 58.80000305175781) rotate(0 192.39999389648438 96.79999542236328)" stroke="none"><path fill="#000000" d="M 1.51,-0.75 Q 1.51,-0.75 2.13,0.05 2.75,0.87 3.66,1.76 4.57,2.65 3.73,2.52 2.88,2.40 2.97,2.18 3.06,1.97 3.20,1.78 3.34,1.59 3.51,1.44 3.69,1.29 3.90,1.19 4.11,1.09 4.34,1.04 4.57,0.99 4.80,1.00 5.03,1.00 5.26,1.07 5.48,1.13 5.69,1.24 5.89,1.36 6.06,1.52 6.23,1.68 6.36,1.87 6.48,2.07 6.56,2.29 6.64,2.51 6.66,2.74 6.68,2.97 6.64,3.20 6.61,3.44 6.98,4.71 7.34,5.99 7.49,9.12 7.63,12.26 8.15,16.44 8.67,20.62 9.36,26.11 10.06,31.59 11.06,40.85 12.05,50.10 12.95,59.79 13.85,69.48 15.15,79.99 16.46,90.51 17.92,100.72 19.39,110.93 21.38,120.26 23.37,129.59 26.05,139.03 28.72,148.47 30.56,155.05 32.40,161.63 34.08,166.42 35.75,171.21 37.36,175.04 38.97,178.87 41.55,182.07 44.12,185.28 47.47,186.93 50.82,188.57 55.32,189.52 59.82,190.48 65.78,190.66 71.75,190.85 79.56,190.49 87.38,190.12 96.70,189.50 106.02,188.89 118.54,188.40 131.05,187.91 141.26,188.17 151.47,188.42 161.11,189.00 170.75,189.58 184.46,190.05 198.17,190.52 210.19,190.73 222.22,190.93 232.85,191.03 243.48,191.12 253.06,191.17 262.64,191.21 271.51,190.99 280.38,190.77 288.95,190.22 297.51,189.68 308.23,188.31 318.95,186.94 327.63,185.46 336.31,183.98 343.66,182.44 351.01,180.90 358.08,179.56 365.16,178.22 370.02,177.42 374.88,176.61 377.76,175.85 380.63,175.08 380.51,175.43 380.39,175.77 380.25,175.61 380.12,175.45 380.04,175.25 379.96,175.06 379.95,174.84 379.94,174.63 379.99,174.43 380.05,174.22 380.17,174.05 380.29,173.87 380.46,173.74 380.63,173.61 380.83,173.55 381.03,173.48 381.24,173.48 381.46,173.48 381.66,173.55 381.86,173.62 382.03,173.74 382.20,173.87 382.32,174.05 382.43,174.23 382.49,174.43 382.55,174.63 382.54,174.85 382.52,175.06 382.44,175.26 382.37,175.45 382.23,175.62 382.09,175.78 381.91,175.89 381.73,176.00 381.52,176.04 381.31,176.09 381.10,176.06 380.89,176.04 380.70,175.95 380.50,175.86 380.35,175.71 380.19,175.57 380.10,175.38 380.00,175.19 379.96,174.98 379.93,174.77 379.96,174.56 380.00,174.35 380.10,174.17 380.20,173.98 380.35,173.83 380.51,173.69 380.70,173.60 380.89,173.51 381.10,173.49 381.31,173.46 381.52,173.51 381.73,173.56 381.91,173.67 382.09,173.78 382.09,173.78 382.09,173.78 381.93,176.53 381.76,179.29 378.69,180.12 375.61,180.96 370.80,181.76 365.99,182.57 358.96,183.93 351.94,185.30 344.51,186.89 337.08,188.47 328.31,190.01 319.54,191.54 308.68,192.94 297.81,194.34 289.15,194.90 280.49,195.45 271.56,195.66 262.62,195.87 253.03,195.84 243.45,195.82 232.80,195.74 222.14,195.67 210.07,195.47 198.00,195.28 184.24,194.81 170.47,194.34 160.91,193.78 151.35,193.22 141.30,192.98 131.24,192.74 118.79,193.23 106.34,193.72 96.97,194.34 87.61,194.95 79.59,195.32 71.58,195.69 65.19,195.44 58.79,195.19 53.70,194.02 48.62,192.86 44.55,190.61 40.49,188.36 37.53,184.57 34.56,180.77 32.89,176.78 31.21,172.80 29.49,167.86 27.77,162.92 25.94,156.35 24.11,149.78 21.40,140.18 18.69,130.58 16.67,121.10 14.65,111.61 13.18,101.35 11.71,91.09 10.44,80.50 9.16,69.90 8.30,60.25 7.45,50.59 6.49,41.37 5.54,32.15 4.88,26.64 4.23,21.14 3.74,16.78 3.25,12.41 3.19,9.51 3.12,6.60 3.00,4.50 2.88,2.40 2.97,2.18 3.06,1.97 3.20,1.78 3.34,1.59 3.51,1.44 3.69,1.29 3.90,1.19 4.11,1.09 4.34,1.04 4.57,0.99 4.80,1.00 5.03,1.00 5.26,1.07 5.48,1.13 5.69,1.24 5.89,1.36 6.06,1.52 6.23,1.68 6.36,1.87 6.48,2.07 6.56,2.29 6.64,2.51 6.66,2.74 6.68,2.97 6.64,3.20 6.61,3.44 6.57,3.78 6.52,4.13 5.44,5.12 4.35,6.11 2.58,5.34 0.82,4.56 -0.04,3.68 -0.91,2.80 -1.21,1.78 -1.51,0.75 -1.58,0.56 -1.65,0.37 -1.67,0.17 -1.69,-0.03 -1.66,-0.23 -1.63,-0.43 -1.56,-0.62 -1.48,-0.81 -1.36,-0.98 -1.24,-1.15 -1.09,-1.28 -0.93,-1.41 -0.75,-1.50 -0.57,-1.59 -0.37,-1.64 -0.17,-1.68 0.03,-1.68 0.23,-1.68 0.43,-1.62 0.63,-1.57 0.81,-1.47 0.99,-1.37 1.14,-1.23 1.29,-1.10 1.40,-0.92 1.51,-0.75 1.51,-0.75 L 1.51,-0.75 Z"></path></g><g transform="translate(102 129.1999969482422) rotate(0 1.5999755859375 11.600006103515625)" stroke="none"><path fill="#000000" d="M 1.65,-0.55 Q 1.65,-0.55 2.28,0.77 2.92,2.09 3.38,4.67 3.85,7.24 4.24,10.39 4.64,13.54 4.52,18.47 4.40,23.40 4.37,23.61 4.35,23.82 4.26,24.01 4.17,24.21 4.02,24.36 3.88,24.51 3.69,24.61 3.50,24.71 3.29,24.75 3.08,24.78 2.87,24.74 2.66,24.71 2.48,24.61 2.29,24.51 2.14,24.36 2.00,24.20 1.91,24.01 1.82,23.81 1.80,23.60 1.77,23.39 1.82,23.18 1.87,22.98 1.98,22.80 2.09,22.61 2.25,22.48 2.41,22.34 2.61,22.26 2.81,22.18 3.02,22.17 3.23,22.16 3.44,22.22 3.64,22.28 3.82,22.40 3.99,22.52 4.12,22.69 4.25,22.85 4.31,23.06 4.38,23.26 4.38,23.47 4.38,23.68 4.31,23.88 4.24,24.08 4.11,24.25 3.99,24.42 3.81,24.54 3.63,24.66 3.43,24.72 3.22,24.77 3.01,24.76 2.80,24.75 2.60,24.67 2.40,24.59 2.24,24.45 2.08,24.31 1.97,24.13 1.86,23.95 1.82,23.74 1.77,23.53 1.77,23.53 1.77,23.53 1.16,18.81 0.54,14.08 0.11,11.03 -0.31,7.97 -0.69,5.70 -1.08,3.42 -1.36,1.98 -1.65,0.55 -1.69,0.34 -1.73,0.13 -1.72,-0.07 -1.71,-0.27 -1.65,-0.48 -1.60,-0.68 -1.49,-0.86 -1.39,-1.04 -1.24,-1.19 -1.09,-1.34 -0.92,-1.46 -0.74,-1.57 -0.54,-1.63 -0.34,-1.70 -0.13,-1.72 0.07,-1.73 0.27,-1.70 0.48,-1.67 0.67,-1.58 0.87,-1.50 1.03,-1.38 1.20,-1.25 1.33,-1.09 1.47,-0.92 1.56,-0.73 1.65,-0.55 1.65,-0.55 L 1.65,-0.55 Z"></path></g><g transform="translate(90 120.40000915527344) rotate(0 27.199981689453125 12)" stroke="none"><path fill="#000000" d="M -0.75,-1.95 Q -0.75,-1.95 3.38,-3.56 7.52,-5.17 11.55,-5.91 15.57,-6.64 21.48,-6.95 27.39,-7.25 34.51,-5.50 41.64,-3.75 45.75,-1.50 49.86,0.75 51.57,3.99 53.29,7.23 51.55,10.30 49.81,13.36 45.85,16.31 41.90,19.27 35.77,22.12 29.65,24.97 25.70,26.60 21.75,28.23 18.85,28.78 15.96,29.33 15.76,29.25 15.56,29.18 15.40,29.04 15.23,28.91 15.12,28.73 15.00,28.55 14.95,28.35 14.90,28.14 14.92,27.93 14.94,27.72 15.02,27.52 15.11,27.33 15.25,27.17 15.39,27.01 15.58,26.91 15.76,26.80 15.97,26.76 16.18,26.72 16.39,26.75 16.60,26.78 16.79,26.88 16.98,26.97 17.13,27.12 17.28,27.28 17.37,27.47 17.47,27.66 17.50,27.87 17.52,28.08 17.48,28.29 17.44,28.50 17.34,28.68 17.23,28.86 17.07,29.01 16.91,29.15 16.72,29.23 16.52,29.31 16.31,29.33 16.10,29.35 15.89,29.29 15.69,29.24 15.51,29.13 15.33,29.01 15.20,28.85 15.07,28.68 14.99,28.48 14.92,28.28 14.92,28.07 14.91,27.85 14.97,27.65 15.04,27.45 15.16,27.28 15.29,27.10 15.46,26.98 15.63,26.86 15.84,26.80 16.04,26.74 16.25,26.74 16.46,26.75 16.46,26.75 16.46,26.75 18.33,25.64 20.20,24.53 24.06,22.89 27.93,21.26 33.70,18.59 39.48,15.92 42.96,13.47 46.43,11.01 48.11,8.92 49.79,6.83 48.71,5.51 47.64,4.20 44.11,2.24 40.59,0.28 34.07,-1.40 27.55,-3.08 21.92,-2.80 16.30,-2.52 12.66,-1.89 9.03,-1.26 4.89,0.34 0.75,1.95 0.51,2.01 0.26,2.07 0.01,2.07 -0.23,2.07 -0.48,2.02 -0.72,1.96 -0.94,1.84 -1.17,1.73 -1.36,1.56 -1.55,1.40 -1.69,1.19 -1.84,0.98 -1.93,0.75 -2.02,0.51 -2.05,0.26 -2.09,0.01 -2.06,-0.23 -2.03,-0.48 -1.94,-0.72 -1.86,-0.95 -1.71,-1.16 -1.57,-1.37 -1.39,-1.54 -1.20,-1.71 -0.98,-1.83 -0.75,-1.95 -0.75,-1.95 L -0.75,-1.95 Z"></path></g><g transform="translate(150 116.40000915527344) rotate(0 4.799957275390625 14)" stroke="none"><path fill="#000000" d="M 1.61,0.93 Q 1.61,0.93 0.12,3.68 -1.36,6.43 -1.23,8.73 -1.10,11.04 -0.23,13.26 0.62,15.49 1.47,17.71 2.31,19.93 2.90,21.12 3.49,22.30 3.55,22.54 3.61,22.79 3.61,23.05 3.61,23.30 3.55,23.55 3.49,23.79 3.38,24.02 3.26,24.24 3.09,24.44 2.92,24.63 2.71,24.77 2.50,24.92 2.26,25.01 2.03,25.10 1.77,25.13 1.52,25.16 1.27,25.13 1.02,25.10 0.78,25.01 0.54,24.92 0.33,24.77 0.12,24.63 -0.04,24.44 -0.21,24.25 -0.32,24.02 -0.44,23.80 -1.09,21.66 -1.73,19.52 -2.29,16.23 -2.85,12.94 -3.31,8.32 -3.76,3.71 -3.49,0.41 -3.22,-2.88 -2.26,-4.83 -1.31,-6.78 0.09,-7.79 1.50,-8.81 3.75,-8.55 5.99,-8.29 7.03,-6.22 8.07,-4.15 7.97,-1.34 7.87,1.45 6.80,3.96 5.73,6.46 4.77,7.43 3.80,8.41 5.50,8.54 7.20,8.68 9.71,9.09 12.21,9.51 14.65,11.78 17.09,14.06 18.14,16.97 19.18,19.89 18.61,22.63 18.03,25.38 15.95,27.86 13.88,30.35 10.29,32.37 6.69,34.39 2.50,35.47 -1.68,36.55 -4.92,34.78 -8.15,33.02 -8.21,32.82 -8.28,32.61 -8.27,32.40 -8.27,32.19 -8.19,31.99 -8.12,31.79 -7.99,31.63 -7.85,31.46 -7.67,31.35 -7.49,31.23 -7.29,31.18 -7.08,31.13 -6.87,31.15 -6.66,31.16 -6.46,31.25 -6.27,31.33 -6.11,31.47 -5.95,31.62 -5.85,31.80 -5.74,31.99 -5.70,32.19 -5.66,32.40 -5.69,32.61 -5.72,32.82 -5.81,33.01 -5.91,33.21 -6.06,33.36 -6.21,33.51 -6.40,33.60 -6.59,33.69 -6.80,33.72 -7.01,33.75 -7.22,33.71 -7.43,33.67 -7.61,33.57 -7.80,33.46 -7.94,33.30 -8.08,33.14 -8.17,32.95 -8.25,32.75 -8.27,32.54 -8.28,32.33 -8.23,32.12 -8.18,31.92 -8.07,31.74 -7.95,31.56 -7.79,31.43 -7.62,31.29 -7.42,31.22 -7.22,31.15 -7.01,31.14 -6.80,31.14 -6.59,31.20 -6.39,31.26 -6.22,31.39 -6.05,31.51 -5.92,31.68 -5.80,31.86 -5.80,31.86 -5.80,31.86 -4.23,32.18 -2.66,32.50 1.02,31.58 4.70,30.66 7.75,29.08 10.79,27.49 12.42,25.81 14.05,24.13 14.61,22.48 15.17,20.84 14.57,18.84 13.97,16.85 12.54,15.14 11.10,13.44 8.82,13.14 6.54,12.85 4.22,12.27 1.89,11.70 1.14,10.46 0.39,9.23 1.18,6.98 1.98,4.74 2.88,2.91 3.79,1.09 4.00,-0.86 4.22,-2.82 3.18,-3.74 2.13,-4.66 1.48,-3.53 0.82,-2.40 0.56,0.45 0.30,3.32 0.74,7.79 1.19,12.26 1.66,15.21 2.14,18.15 2.82,20.22 3.49,22.30 3.55,22.54 3.61,22.79 3.61,23.05 3.61,23.30 3.55,23.55 3.49,23.79 3.38,24.02 3.26,24.24 3.09,24.44 2.92,24.63 2.71,24.77 2.50,24.91 2.26,25.01 2.03,25.10 1.77,25.13 1.52,25.16 1.27,25.13 1.02,25.10 0.78,25.01 0.54,24.92 0.33,24.77 0.12,24.63 -0.04,24.44 -0.21,24.25 -0.32,24.02 -0.44,23.80 -1.04,22.62 -1.63,21.44 -2.49,19.18 -3.35,16.92 -4.33,14.03 -5.31,11.13 -5.19,7.86 -5.07,4.60 -3.34,1.83 -1.61,-0.93 -1.47,-1.11 -1.33,-1.29 -1.16,-1.43 -0.98,-1.57 -0.78,-1.67 -0.58,-1.77 -0.36,-1.81 -0.14,-1.85 0.08,-1.84 0.30,-1.83 0.52,-1.77 0.73,-1.71 0.93,-1.59 1.12,-1.48 1.28,-1.32 1.44,-1.17 1.56,-0.98 1.68,-0.79 1.75,-0.57 1.82,-0.36 1.84,-0.14 1.86,0.08 1.82,0.30 1.78,0.52 1.69,0.73 1.61,0.93 1.61,0.93 L 1.61,0.93 Z"></path></g><g transform="translate(136.39996337890625 196.40000915527344) rotate(0 18.4000244140625 11.199981689453125)" stroke="none"><path fill="#000000" d="M -1.82,0.52 Q -1.82,0.52 -2.28,-1.08 -2.73,-2.70 -3.08,-4.36 -3.43,-6.02 -3.51,-8.42 -3.58,-10.81 -3.61,-12.07 -3.63,-13.32 -4.22,-14.60 -4.80,-15.89 -6.07,-16.40 -7.34,-16.92 -9.21,-17.43 -11.08,-17.93 -13.07,-17.91 -15.06,-17.88 -16.64,-17.48 -18.22,-17.08 -19.01,-15.94 -19.79,-14.80 -18.22,-14.01 -16.66,-13.22 -13.80,-12.11 -10.94,-10.99 -7.60,-9.79 -4.26,-8.58 -0.62,-6.62 3.02,-4.65 5.23,-2.82 7.45,-0.99 7.71,1.40 7.98,3.80 5.74,6.14 3.51,8.48 -0.63,10.12 -4.78,11.77 -9.11,12.66 -13.43,13.56 -16.75,13.93 -20.08,14.29 -21.10,13.77 -22.12,13.25 -22.37,13.25 -22.62,13.25 -22.86,13.19 -23.10,13.12 -23.33,13.01 -23.55,12.89 -23.73,12.72 -23.92,12.55 -24.06,12.35 -24.20,12.14 -24.29,11.91 -24.37,11.67 -24.40,11.42 -24.43,11.17 -24.40,10.93 -24.37,10.68 -24.28,10.44 -24.19,10.21 -24.04,10.01 -23.90,9.80 -23.71,9.64 -23.52,9.47 -23.30,9.36 -23.08,9.24 -22.84,9.18 -22.59,9.13 -21.52,7.99 -20.46,6.86 -15.58,4.95 -10.70,3.05 -6.12,1.82 -1.54,0.60 2.56,0.06 6.66,-0.46 9.87,-0.46 13.08,-0.45 15.30,0.03 17.51,0.52 18.74,0.99 19.96,1.47 21.22,2.00 22.49,2.54 24.96,0.90 27.43,-0.73 28.71,-2.21 29.98,-3.69 30.59,-4.62 31.19,-5.54 31.37,-5.71 31.55,-5.87 31.76,-5.98 31.98,-6.09 32.21,-6.15 32.44,-6.21 32.69,-6.21 32.93,-6.22 33.16,-6.16 33.40,-6.10 33.61,-5.99 33.82,-5.88 34.01,-5.73 34.19,-5.57 34.33,-5.37 34.46,-5.17 34.55,-4.95 34.64,-4.72 34.67,-4.48 34.70,-4.24 34.67,-4.00 34.65,-3.77 34.56,-3.54 34.48,-3.31 34.34,-3.11 34.21,-2.91 34.89,-0.71 35.57,1.49 35.63,5.90 35.69,10.31 36.17,14.12 36.64,17.93 36.85,21.74 37.06,25.56 36.44,29.67 35.82,33.78 35.07,36.48 34.31,39.18 32.62,41.10 30.93,43.02 29.49,42.42 28.04,41.82 27.57,39.37 27.10,36.92 28.67,30.62 30.24,24.32 32.57,18.25 34.89,12.17 37.29,7.48 39.70,2.78 41.66,-0.18 43.63,-3.16 44.99,-4.73 46.35,-6.31 47.92,-6.86 49.49,-7.41 50.97,-6.63 52.44,-5.86 53.89,-4.58 55.34,-3.30 57.04,-1.88 58.73,-0.47 60.05,0.98 61.37,2.44 61.75,4.40 62.13,6.36 61.08,7.90 60.03,9.44 57.11,10.02 54.19,10.61 53.98,10.62 53.76,10.64 53.56,10.59 53.35,10.54 53.17,10.42 53.00,10.30 52.86,10.14 52.73,9.97 52.66,9.77 52.59,9.57 52.58,9.36 52.58,9.15 52.64,8.95 52.70,8.74 52.83,8.57 52.95,8.40 53.12,8.28 53.30,8.15 53.50,8.09 53.70,8.03 53.92,8.04 54.13,8.04 54.33,8.12 54.53,8.19 54.69,8.32 54.86,8.46 54.97,8.64 55.08,8.82 55.14,9.02 55.19,9.23 55.17,9.44 55.15,9.65 55.06,9.85 54.98,10.04 54.84,10.20 54.69,10.36 54.51,10.46 54.32,10.57 54.11,10.60 53.91,10.64 53.70,10.61 53.49,10.58 53.30,10.49 53.11,10.39 52.96,10.24 52.81,10.09 52.71,9.90 52.62,9.71 52.59,9.50 52.56,9.29 52.60,9.08 52.65,8.87 52.75,8.69 52.86,8.50 53.02,8.36 53.17,8.22 53.37,8.14 53.56,8.06 53.56,8.06 53.56,8.06 55.93,6.47 58.30,4.89 57.23,3.74 56.16,2.59 54.40,1.11 52.65,-0.36 50.86,-2.07 49.07,-3.79 47.89,-2.45 46.70,-1.11 44.84,1.66 42.98,4.45 40.71,8.98 38.44,13.51 36.26,19.40 34.09,25.30 32.64,30.93 31.19,36.55 31.19,38.35 31.19,40.14 30.69,39.07 30.20,38.00 30.87,35.56 31.55,33.11 32.14,29.44 32.72,25.78 32.53,22.11 32.33,18.45 31.85,14.41 31.36,10.36 31.33,6.03 31.30,1.71 31.28,-0.18 31.26,-2.07 31.23,-3.81 31.19,-5.54 31.37,-5.71 31.55,-5.87 31.76,-5.98 31.98,-6.09 32.21,-6.15 32.44,-6.21 32.69,-6.21 32.93,-6.22 33.16,-6.16 33.40,-6.10 33.61,-5.99 33.82,-5.88 34.01,-5.73 34.19,-5.57 34.33,-5.37 34.46,-5.17 34.55,-4.95 34.64,-4.72 34.67,-4.48 34.70,-4.24 34.67,-4.01 34.65,-3.77 34.56,-3.54 34.48,-3.31 34.34,-3.11 34.21,-2.91 33.60,-1.99 33.00,-1.07 31.42,0.70 29.85,2.49 27.18,4.35 24.52,6.21 23.10,6.37 21.67,6.53 20.61,6.24 19.55,5.95 18.07,5.22 16.58,4.49 14.81,4.05 13.04,3.61 10.11,3.59 7.18,3.57 3.34,4.05 -0.49,4.53 -4.88,5.70 -9.26,6.87 -13.56,8.44 -17.86,10.00 -19.99,11.63 -22.12,13.25 -22.37,13.25 -22.62,13.25 -22.86,13.19 -23.10,13.12 -23.33,13.01 -23.55,12.89 -23.73,12.72 -23.92,12.55 -24.06,12.35 -24.20,12.14 -24.29,11.91 -24.37,11.67 -24.40,11.42 -24.43,11.17 -24.40,10.93 -24.37,10.68 -24.28,10.44 -24.19,10.21 -24.04,10.01 -23.90,9.80 -23.71,9.64 -23.52,9.47 -23.30,9.36 -23.08,9.24 -22.84,9.18 -22.59,9.13 -21.40,9.68 -20.20,10.23 -17.23,9.87 -14.25,9.51 -10.25,8.71 -6.24,7.91 -2.70,6.63 0.83,5.36 2.61,3.36 4.38,1.37 2.69,0.20 1.01,-0.95 -2.34,-2.77 -5.70,-4.60 -9.11,-5.82 -12.52,-7.05 -15.80,-8.41 -19.08,-9.76 -21.13,-11.54 -23.18,-13.31 -23.06,-15.65 -22.94,-17.98 -21.18,-19.51 -19.41,-21.05 -17.23,-21.55 -15.05,-22.05 -12.52,-21.99 -9.99,-21.93 -7.73,-21.27 -5.46,-20.60 -3.50,-19.45 -1.53,-18.30 -0.80,-17.06 -0.06,-15.83 0.19,-14.60 0.45,-13.36 0.44,-12.11 0.43,-10.86 0.45,-8.70 0.48,-6.54 0.69,-5.14 0.89,-3.73 1.36,-2.13 1.82,-0.52 1.86,-0.29 1.89,-0.06 1.87,0.15 1.85,0.38 1.78,0.60 1.71,0.82 1.58,1.01 1.46,1.20 1.30,1.36 1.13,1.52 0.93,1.63 0.73,1.74 0.51,1.81 0.29,1.87 0.06,1.88 -0.15,1.89 -0.38,1.84 -0.60,1.79 -0.81,1.70 -1.02,1.60 -1.19,1.45 -1.37,1.31 -1.51,1.12 -1.64,0.94 -1.73,0.73 -1.82,0.52 -1.82,0.52 L -1.82,0.52 Z"></path></g><g transform="translate(208.39996337890625 163.59999084472656) rotate(0 35.20001220703125 20.400009155273438)" stroke="none"><path fill="#000000" d="M 2.23,0.58 Q 2.23,0.58 1.10,4.96 -0.03,9.33 -0.49,13.77 -0.95,18.21 -0.74,22.28 -0.52,26.36 -0.04,29.43 0.44,32.51 0.80,34.64 1.17,36.78 0.09,38.65 -0.99,40.51 -2.30,40.71 -3.61,40.91 -5.23,40.05 -6.85,39.18 -7.18,37.27 -7.51,35.35 -5.64,33.74 -3.77,32.13 -0.12,30.37 3.53,28.61 7.60,26.95 11.68,25.29 14.73,23.93 17.79,22.57 19.44,21.60 21.10,20.62 21.64,19.93 22.18,19.24 22.41,19.14 22.63,19.04 22.88,19.00 23.12,18.95 23.36,18.97 23.61,18.99 23.84,19.06 24.08,19.14 24.29,19.27 24.50,19.40 24.67,19.57 24.84,19.75 24.97,19.96 25.09,20.17 25.16,20.41 25.23,20.65 25.25,20.89 25.26,21.14 25.21,21.38 25.16,21.62 25.06,21.84 24.96,22.07 24.80,22.26 24.65,22.45 24.46,22.60 24.26,22.75 22.85,22.53 21.45,22.31 19.89,23.12 18.33,23.92 16.86,25.45 15.38,26.98 14.60,28.60 13.83,30.23 13.48,31.71 13.12,33.18 14.80,33.92 16.47,34.67 19.03,34.20 21.60,33.74 24.26,32.72 26.92,31.69 29.01,29.80 31.10,27.90 32.02,26.87 32.95,25.84 33.37,25.13 33.79,24.41 33.98,24.24 34.17,24.07 34.40,23.96 34.63,23.84 34.88,23.78 35.13,23.73 35.38,23.73 35.64,23.73 35.89,23.80 36.14,23.86 36.36,23.98 36.59,24.10 36.78,24.27 36.96,24.45 37.11,24.66 37.25,24.87 37.34,25.11 37.43,25.35 37.45,25.61 37.48,25.86 37.45,26.11 37.42,26.37 37.32,26.61 37.23,26.84 37.08,27.05 36.93,27.26 36.52,28.36 36.11,29.47 36.20,30.30 36.29,31.13 36.21,31.38 36.13,31.63 35.99,31.85 35.85,32.08 35.67,32.26 35.48,32.44 35.25,32.58 35.03,32.71 34.77,32.79 34.52,32.86 34.26,32.88 34.00,32.89 33.74,32.84 33.48,32.79 33.24,32.68 33.00,32.57 32.80,32.41 32.59,32.24 32.43,32.03 32.27,31.83 32.16,31.58 32.06,31.34 32.01,31.08 31.97,30.82 31.99,30.56 32.00,30.30 34.12,28.40 36.23,26.50 37.66,25.51 39.09,24.51 40.90,23.37 42.71,22.24 44.70,22.13 46.68,22.03 47.53,22.76 48.38,23.49 48.93,24.92 49.49,26.34 49.69,27.42 49.88,28.49 50.20,28.95 50.52,29.40 50.53,29.67 50.55,29.93 50.50,30.19 50.45,30.46 50.34,30.70 50.23,30.94 50.06,31.15 49.90,31.36 49.69,31.52 49.48,31.68 49.24,31.79 49.00,31.90 48.73,31.95 48.47,31.99 48.21,31.98 47.94,31.96 47.69,31.88 47.44,31.80 47.21,31.66 46.98,31.52 46.79,31.34 46.61,31.15 46.47,30.92 46.33,30.69 46.26,30.44 46.18,30.18 47.35,28.44 48.52,26.70 50.43,24.63 52.33,22.56 54.16,20.88 55.98,19.21 58.23,18.18 60.48,17.16 62.51,18.14 64.54,19.11 66.55,21.33 68.57,23.54 70.49,25.44 72.41,27.35 74.49,27.77 76.56,28.18 76.77,28.24 76.97,28.29 77.15,28.41 77.33,28.52 77.46,28.69 77.59,28.85 77.66,29.05 77.74,29.26 77.74,29.47 77.74,29.68 77.68,29.88 77.62,30.09 77.49,30.26 77.36,30.43 77.19,30.55 77.02,30.67 76.81,30.73 76.61,30.79 76.40,30.79 76.19,30.78 75.99,30.70 75.79,30.63 75.62,30.49 75.46,30.36 75.35,30.18 75.23,30.00 75.18,29.79 75.13,29.59 75.15,29.37 75.17,29.16 75.26,28.97 75.34,28.77 75.49,28.62 75.63,28.46 75.82,28.36 76.00,28.25 76.21,28.22 76.42,28.18 76.63,28.21 76.84,28.24 77.03,28.34 77.22,28.43 77.37,28.58 77.52,28.73 77.61,28.93 77.70,29.12 77.73,29.33 77.76,29.54 77.71,29.75 77.67,29.96 77.57,30.14 77.46,30.32 77.30,30.46 77.14,30.60 76.95,30.69 76.75,30.77 76.54,30.78 76.33,30.80 76.33,30.80 76.33,30.80 73.18,30.74 70.04,30.69 67.67,28.57 65.30,26.44 63.71,24.59 62.13,22.74 60.48,22.54 58.83,22.33 57.15,23.87 55.47,25.41 52.99,27.41 50.52,29.40 50.53,29.67 50.55,29.93 50.50,30.19 50.45,30.46 50.34,30.70 50.23,30.94 50.06,31.15 49.90,31.36 49.69,31.52 49.48,31.68 49.24,31.79 49.00,31.90 48.73,31.95 48.47,31.99 48.21,31.98 47.94,31.96 47.69,31.88 47.44,31.80 47.21,31.66 46.98,31.52 46.79,31.34 46.61,31.15 46.47,30.92 46.33,30.69 46.26,30.44 46.18,30.18 45.89,29.83 45.60,29.47 45.26,27.65 44.92,25.84 43.23,26.92 41.54,28.00 40.16,28.98 38.79,29.96 37.54,30.54 36.29,31.13 36.21,31.38 36.13,31.63 35.99,31.85 35.85,32.07 35.67,32.26 35.48,32.44 35.25,32.58 35.03,32.71 34.77,32.79 34.52,32.86 34.26,32.88 34.00,32.89 33.74,32.84 33.48,32.79 33.24,32.68 33.00,32.57 32.80,32.41 32.59,32.24 32.43,32.03 32.27,31.83 32.16,31.58 32.06,31.34 32.01,31.08 31.97,30.82 31.99,30.56 32.00,30.30 31.84,30.12 31.68,29.94 31.89,28.76 32.10,27.58 32.95,26.00 33.79,24.41 33.98,24.24 34.17,24.07 34.40,23.96 34.63,23.84 34.88,23.78 35.13,23.73 35.38,23.73 35.64,23.73 35.89,23.80 36.14,23.86 36.36,23.98 36.59,24.10 36.78,24.27 36.96,24.45 37.11,24.66 37.25,24.87 37.34,25.11 37.43,25.35 37.45,25.61 37.48,25.86 37.45,26.11 37.42,26.37 37.32,26.61 37.23,26.84 37.08,27.05 36.93,27.26 36.49,27.95 36.05,28.64 34.96,29.85 33.86,31.05 31.19,33.32 28.52,35.59 25.39,36.80 22.27,38.00 18.79,38.45 15.32,38.90 13.11,37.98 10.91,37.05 9.92,35.05 8.93,33.05 9.43,30.62 9.94,28.20 11.18,26.06 12.41,23.93 14.59,22.02 16.78,20.11 19.48,19.67 22.18,19.24 22.41,19.14 22.63,19.04 22.88,19.00 23.12,18.95 23.36,18.97 23.61,18.99 23.84,19.06 24.08,19.14 24.29,19.27 24.50,19.40 24.67,19.57 24.84,19.75 24.97,19.96 25.09,20.17 25.16,20.41 25.23,20.64 25.25,20.89 25.26,21.14 25.21,21.38 25.16,21.62 25.06,21.84 24.96,22.07 24.80,22.26 24.65,22.45 24.46,22.60 24.26,22.75 23.76,23.41 23.25,24.07 21.36,25.19 19.47,26.31 16.35,27.72 13.23,29.12 9.27,30.73 5.31,32.34 1.37,34.75 -2.56,37.16 -3.14,35.20 -3.71,33.25 -4.36,29.94 -5.01,26.63 -5.30,22.18 -5.60,17.73 -5.08,12.94 -4.56,8.14 -3.40,3.77 -2.23,-0.58 -2.13,-0.84 -2.03,-1.10 -1.86,-1.33 -1.70,-1.56 -1.49,-1.74 -1.28,-1.92 -1.03,-2.04 -0.78,-2.17 -0.51,-2.23 -0.24,-2.30 0.03,-2.29 0.31,-2.29 0.58,-2.22 0.85,-2.14 1.09,-2.01 1.34,-1.88 1.54,-1.69 1.75,-1.50 1.91,-1.27 2.06,-1.04 2.15,-0.78 2.25,-0.51 2.28,-0.24 2.31,0.03 2.27,0.31 2.23,0.58 2.23,0.58 L 2.23,0.58 Z"></path></g><g transform="translate(535.6000366210938 109.19999694824219) rotate(0 -18.800048828125 12.000007629394531)" stroke="none"><path fill="#000000" d="M -0.51,1.81 Q -0.51,1.81 -2.45,0.63 -4.39,-0.54 -4.75,-2.14 -5.12,-3.75 -3.85,-6.12 -2.57,-8.50 -0.66,-11.23 1.24,-13.96 2.68,-16.42 4.11,-18.87 4.86,-20.90 5.60,-22.92 5.22,-24.77 4.84,-26.62 4.18,-27.67 3.52,-28.71 1.18,-28.59 -1.16,-28.48 -3.45,-26.18 -5.75,-23.88 -6.90,-21.33 -8.05,-18.79 -7.65,-16.22 -7.25,-13.65 -5.39,-10.64 -3.53,-7.64 -0.44,-3.29 2.64,1.05 4.92,4.59 7.19,8.13 8.22,11.24 9.25,14.35 7.94,17.24 6.62,20.13 2.30,22.61 -2.00,25.08 -9.25,26.54 -16.50,27.99 -22.37,28.36 -28.24,28.72 -32.61,27.68 -36.98,26.63 -40.26,24.10 -43.54,21.57 -45.03,17.14 -46.51,12.70 -45.82,9.07 -45.12,5.43 -42.24,2.97 -39.36,0.51 -35.30,-0.49 -31.24,-1.50 -27.00,-0.10 -22.76,1.30 -19.40,7.24 -16.04,13.19 -14.71,19.74 -13.38,26.30 -12.83,32.30 -12.29,38.30 -12.11,42.68 -11.92,47.06 -11.17,50.88 -10.42,54.70 -10.40,54.91 -10.38,55.12 -10.42,55.33 -10.47,55.54 -10.57,55.72 -10.68,55.90 -10.84,56.04 -11.00,56.18 -11.20,56.26 -11.40,56.34 -11.61,56.35 -11.82,56.36 -12.03,56.31 -12.23,56.25 -12.41,56.13 -12.59,56.02 -12.72,55.85 -12.85,55.68 -12.91,55.48 -12.98,55.28 -12.98,55.06 -12.99,54.85 -12.92,54.65 -12.85,54.45 -12.72,54.28 -12.60,54.11 -12.42,53.99 -12.25,53.87 -12.04,53.81 -11.84,53.75 -11.63,53.76 -11.41,53.77 -11.22,53.85 -11.02,53.93 -10.85,54.06 -10.69,54.20 -10.58,54.38 -10.47,54.56 -10.42,54.77 -10.38,54.98 -10.40,55.19 -10.42,55.40 -10.51,55.59 -10.60,55.79 -10.74,55.94 -10.89,56.10 -11.07,56.20 -11.26,56.30 -11.47,56.33 -11.68,56.37 -11.89,56.34 -12.10,56.30 -12.29,56.21 -12.48,56.11 -12.62,55.95 -12.77,55.80 -12.86,55.61 -12.95,55.42 -12.95,55.42 -12.95,55.42 -14.44,51.35 -15.93,47.29 -16.19,42.98 -16.45,38.67 -16.96,32.89 -17.48,27.10 -18.62,21.09 -19.76,15.07 -22.23,9.83 -24.70,4.59 -27.68,3.50 -30.66,2.40 -33.84,3.08 -37.03,3.77 -39.28,5.29 -41.54,6.81 -42.11,9.29 -42.68,11.77 -41.72,15.25 -40.77,18.72 -38.31,20.72 -35.86,22.72 -32.14,23.68 -28.43,24.64 -22.85,24.31 -17.28,23.98 -10.58,22.72 -3.88,21.46 -0.27,19.70 3.32,17.95 4.42,16.30 5.51,14.65 4.62,12.49 3.74,10.34 1.49,6.90 -0.74,3.46 -3.93,-1.04 -7.12,-5.54 -9.23,-9.29 -11.33,-13.05 -11.60,-16.64 -11.87,-20.23 -10.27,-23.53 -8.66,-26.82 -5.57,-29.59 -2.47,-32.37 0.15,-32.90 2.78,-33.42 4.85,-32.21 6.92,-31.00 7.91,-29.15 8.90,-27.30 9.17,-24.50 9.44,-21.71 8.46,-19.30 7.49,-16.89 5.95,-14.31 4.42,-11.73 2.59,-9.13 0.77,-6.52 -0.26,-4.99 -1.29,-3.46 -1.66,-2.38 -2.04,-1.29 -0.76,-1.55 0.51,-1.81 0.72,-1.72 0.93,-1.63 1.11,-1.50 1.30,-1.36 1.44,-1.18 1.58,-1.01 1.68,-0.80 1.78,-0.60 1.83,-0.38 1.87,-0.15 1.87,0.06 1.86,0.29 1.79,0.51 1.73,0.73 1.62,0.92 1.51,1.12 1.35,1.29 1.19,1.45 1.00,1.57 0.81,1.70 0.59,1.77 0.38,1.84 0.15,1.86 -0.06,1.88 -0.29,1.84 -0.51,1.81 -0.51,1.81 L -0.51,1.81 Z"></path></g><g transform="translate(552.3999633789062 125.19999694824219) rotate(0 37.2000732421875 -12.800003051757812)" stroke="none"><path fill="#000000" d="M -1.72,-0.86 Q -1.72,-0.86 -0.83,-2.71 0.05,-4.56 0.62,-6.35 1.18,-8.14 1.41,-9.94 1.63,-11.74 1.51,-13.04 1.38,-14.35 2.81,-14.67 4.24,-15.00 3.59,-13.45 2.95,-11.89 2.51,-9.37 2.06,-6.85 2.05,-4.39 2.04,-1.92 2.94,-0.84 3.85,0.22 5.24,0.60 6.63,0.97 8.52,0.56 10.41,0.14 13.80,-2.35 17.19,-4.85 19.53,-8.05 21.87,-11.25 23.08,-14.26 24.30,-17.27 23.95,-19.05 23.61,-20.84 22.88,-21.71 22.16,-22.58 23.04,-20.35 23.92,-18.12 25.44,-16.71 26.96,-15.29 29.08,-13.17 31.20,-11.06 32.73,-9.75 34.27,-8.44 35.35,-6.99 36.43,-5.53 36.42,-4.42 36.41,-3.31 37.32,-5.98 38.23,-8.65 39.41,-10.43 40.58,-12.21 41.54,-13.64 42.49,-15.08 43.88,-16.18 45.27,-17.28 47.08,-17.53 48.89,-17.77 50.86,-16.52 52.83,-15.27 55.03,-12.31 57.24,-9.35 58.60,-6.92 59.97,-4.49 60.42,-3.52 60.86,-2.54 61.02,-4.47 61.17,-6.41 62.56,-9.81 63.95,-13.22 64.99,-16.47 66.02,-19.72 66.71,-22.03 67.39,-24.34 68.25,-25.98 69.12,-27.63 71.63,-29.08 74.15,-30.52 74.35,-30.59 74.55,-30.66 74.76,-30.66 74.98,-30.67 75.18,-30.60 75.38,-30.54 75.55,-30.41 75.72,-30.28 75.84,-30.11 75.97,-29.94 76.03,-29.73 76.09,-29.53 76.08,-29.32 76.07,-29.10 75.99,-28.90 75.92,-28.71 75.78,-28.54 75.64,-28.38 75.46,-28.27 75.28,-28.16 75.08,-28.11 74.87,-28.06 74.66,-28.08 74.45,-28.10 74.25,-28.19 74.06,-28.27 73.90,-28.42 73.75,-28.56 73.64,-28.75 73.54,-28.93 73.51,-29.14 73.47,-29.35 73.50,-29.56 73.53,-29.77 73.63,-29.96 73.73,-30.15 73.88,-30.30 74.03,-30.45 74.22,-30.54 74.41,-30.63 74.63,-30.66 74.84,-30.68 75.04,-30.64 75.25,-30.59 75.44,-30.49 75.62,-30.38 75.76,-30.22 75.90,-30.06 75.98,-29.86 76.06,-29.67 76.07,-29.46 76.09,-29.24 76.03,-29.04 75.98,-28.83 75.86,-28.65 75.75,-28.48 75.58,-28.35 75.41,-28.22 75.41,-28.22 75.41,-28.22 74.03,-26.94 72.66,-25.67 72.02,-24.41 71.39,-23.15 70.71,-20.80 70.03,-18.44 68.95,-15.04 67.86,-11.64 66.43,-8.05 64.99,-4.46 63.46,-1.96 61.93,0.53 60.17,0.53 58.41,0.54 57.29,-0.91 56.17,-2.37 54.94,-4.60 53.70,-6.82 51.94,-9.39 50.19,-11.96 49.34,-12.91 48.49,-13.85 47.20,-13.29 45.91,-12.72 44.99,-11.32 44.07,-9.91 42.98,-8.26 41.89,-6.62 40.80,-4.65 39.71,-2.67 37.40,-1.30 35.09,0.06 33.99,-1.47 32.89,-3.01 32.15,-4.09 31.42,-5.16 29.78,-6.57 28.13,-7.98 26.01,-10.10 23.90,-12.21 21.95,-14.25 20.01,-16.28 19.12,-18.72 18.24,-21.15 18.74,-22.74 19.24,-24.32 21.31,-24.85 23.39,-25.38 25.23,-23.63 27.07,-21.88 27.45,-19.02 27.84,-16.15 26.44,-12.55 25.05,-8.95 22.33,-5.26 19.62,-1.56 15.44,1.32 11.27,4.21 8.35,4.59 5.44,4.96 3.09,3.94 0.74,2.92 -0.64,0.71 -2.03,-1.48 -2.04,-4.57 -2.05,-7.65 -1.41,-10.63 -0.76,-13.60 0.07,-15.23 0.91,-16.85 2.62,-16.91 4.33,-16.97 4.84,-15.85 5.35,-14.72 5.47,-12.98 5.58,-11.23 5.27,-9.08 4.97,-6.94 4.29,-4.86 3.62,-2.79 2.67,-0.96 1.72,0.86 1.59,1.05 1.46,1.24 1.29,1.40 1.12,1.56 0.92,1.67 0.71,1.78 0.49,1.84 0.26,1.90 0.03,1.91 -0.19,1.91 -0.42,1.86 -0.64,1.81 -0.85,1.71 -1.06,1.60 -1.24,1.45 -1.41,1.30 -1.55,1.11 -1.68,0.92 -1.77,0.71 -1.86,0.49 -1.89,0.26 -1.92,0.03 -1.90,-0.19 -1.87,-0.42 -1.80,-0.64 -1.72,-0.86 -1.72,-0.86 L -1.72,-0.86 Z"></path></g><g transform="translate(631.6000366210938 114.00001525878906) rotate(0 18.79998779296875 4)" stroke="none"><path fill="#000000" d="M -1.89,0.51 Q -1.89,0.51 -2.55,-1.98 -3.21,-4.47 -3.75,-5.13 -4.29,-5.78 -4.32,-6.01 -4.36,-6.24 -4.33,-6.47 -4.31,-6.70 -4.23,-6.92 -4.16,-7.14 -4.03,-7.34 -3.90,-7.53 -3.73,-7.69 -3.56,-7.85 -3.36,-7.96 -3.15,-8.08 -2.93,-8.14 -2.70,-8.20 -2.47,-8.20 -2.24,-8.21 -2.01,-8.16 -1.78,-8.11 -1.57,-8.01 -1.36,-7.90 -1.18,-7.75 -1.01,-7.60 -0.87,-7.41 -0.73,-7.23 -0.64,-7.01 -0.56,-6.79 -0.95,-4.87 -1.35,-2.94 -1.46,-0.55 -1.57,1.84 -1.20,4.77 -0.84,7.71 0.00,8.80 0.84,9.90 2.88,9.25 4.91,8.60 7.25,5.21 9.59,1.83 10.83,-1.14 12.06,-4.12 12.58,-6.24 13.11,-8.35 13.34,-9.55 13.58,-10.75 13.67,-10.99 13.76,-11.22 13.91,-11.43 14.05,-11.64 14.25,-11.81 14.44,-11.98 14.67,-12.10 14.89,-12.22 15.14,-12.28 15.39,-12.34 15.65,-12.34 15.90,-12.34 16.15,-12.27 16.40,-12.21 16.62,-12.09 16.85,-11.97 17.04,-11.80 17.23,-11.63 17.38,-11.42 17.52,-11.21 17.61,-10.97 17.70,-10.73 17.73,-10.47 17.76,-10.22 17.73,-9.96 17.70,-9.71 16.91,-8.96 16.13,-8.21 15.24,-5.55 14.35,-2.88 13.87,-0.01 13.38,2.86 14.04,5.36 14.70,7.85 16.37,9.83 18.04,11.81 21.67,13.48 25.30,15.16 29.83,15.32 34.36,15.48 36.44,15.84 38.53,16.20 38.74,16.24 38.95,16.28 39.13,16.38 39.32,16.49 39.46,16.65 39.60,16.80 39.69,17.00 39.77,17.19 39.79,17.41 39.81,17.62 39.75,17.82 39.70,18.03 39.59,18.21 39.47,18.39 39.31,18.52 39.14,18.65 38.94,18.73 38.74,18.80 38.53,18.81 38.32,18.81 38.12,18.75 37.91,18.69 37.74,18.56 37.57,18.44 37.44,18.27 37.32,18.09 37.26,17.89 37.20,17.69 37.20,17.47 37.21,17.26 37.28,17.06 37.35,16.86 37.49,16.70 37.62,16.53 37.80,16.42 37.98,16.30 38.18,16.25 38.39,16.20 38.60,16.22 38.81,16.24 39.01,16.32 39.20,16.40 39.36,16.55 39.52,16.69 39.62,16.87 39.73,17.06 39.77,17.27 39.81,17.48 39.78,17.69 39.75,17.90 39.66,18.09 39.56,18.28 39.41,18.43 39.26,18.58 39.07,18.67 38.88,18.77 38.67,18.79 38.46,18.82 38.46,18.82 38.46,18.82 36.36,19.07 34.25,19.31 28.92,19.20 23.58,19.09 19.15,16.89 14.73,14.68 12.59,11.85 10.46,9.03 9.75,5.63 9.04,2.24 9.66,-1.17 10.29,-4.58 11.93,-7.66 13.58,-10.75 13.67,-10.99 13.76,-11.22 13.91,-11.43 14.05,-11.64 14.25,-11.81 14.44,-11.98 14.67,-12.10 14.89,-12.22 15.14,-12.28 15.39,-12.34 15.65,-12.34 15.90,-12.34 16.15,-12.27 16.40,-12.21 16.62,-12.09 16.85,-11.97 17.04,-11.80 17.23,-11.63 17.38,-11.42 17.52,-11.21 17.61,-10.97 17.70,-10.73 17.73,-10.47 17.76,-10.22 17.73,-9.97 17.70,-9.71 17.45,-8.52 17.20,-7.33 16.58,-4.90 15.96,-2.48 14.50,0.88 13.05,4.26 10.15,8.24 7.25,12.23 4.81,13.39 2.37,14.55 -0.03,13.58 -2.44,12.60 -3.75,10.52 -5.07,8.44 -5.46,4.99 -5.85,1.54 -5.07,-2.11 -4.29,-5.78 -4.32,-6.01 -4.36,-6.24 -4.33,-6.47 -4.31,-6.70 -4.23,-6.92 -4.16,-7.14 -4.03,-7.34 -3.90,-7.53 -3.73,-7.69 -3.56,-7.85 -3.36,-7.96 -3.15,-8.08 -2.93,-8.14 -2.70,-8.20 -2.47,-8.20 -2.24,-8.21 -2.01,-8.16 -1.78,-8.11 -1.57,-8.01 -1.36,-7.90 -1.18,-7.75 -1.01,-7.60 -0.87,-7.41 -0.73,-7.23 -0.64,-7.01 -0.56,-6.79 -0.05,-6.21 0.45,-5.64 1.17,-3.07 1.89,-0.51 1.92,-0.28 1.96,-0.04 1.93,0.18 1.91,0.42 1.83,0.64 1.75,0.86 1.62,1.06 1.50,1.26 1.32,1.42 1.15,1.58 0.94,1.70 0.74,1.81 0.51,1.87 0.28,1.94 0.04,1.94 -0.18,1.95 -0.41,1.90 -0.65,1.85 -0.86,1.74 -1.07,1.64 -1.25,1.48 -1.43,1.33 -1.57,1.14 -1.71,0.95 -1.80,0.73 -1.89,0.51 -1.89,0.51 L -1.89,0.51 Z"></path></g><g transform="translate(524.3999633789062 336.40000915527344) rotate(0 36.800048828125 -0.399993896484375)" stroke="none"><path fill="#000000" d="M 1.55,1.13 Q 1.55,1.13 -0.94,4.60 -3.45,8.06 -4.40,10.46 -5.36,12.87 -5.92,17.66 -6.48,22.46 -6.52,26.97 -6.57,31.49 -5.53,34.46 -4.49,37.43 -2.23,39.36 0.01,41.30 3.44,42.29 6.86,43.28 12.36,42.16 17.87,41.04 22.58,37.98 27.29,34.92 31.56,30.29 35.82,25.67 39.44,19.67 43.06,13.67 45.93,4.14 48.80,-5.37 50.03,-13.74 51.26,-22.10 50.85,-28.50 50.45,-34.90 49.57,-38.44 48.69,-41.98 48.08,-43.33 47.47,-44.69 47.44,-44.96 47.41,-45.23 47.45,-45.50 47.49,-45.77 47.59,-46.02 47.69,-46.28 47.85,-46.50 48.00,-46.72 48.21,-46.90 48.42,-47.07 48.66,-47.20 48.91,-47.32 49.17,-47.38 49.44,-47.44 49.71,-47.44 49.98,-47.43 50.24,-47.36 50.51,-47.29 50.75,-47.16 50.99,-47.03 51.19,-46.85 51.39,-46.66 51.54,-46.44 51.69,-46.21 51.78,-45.95 51.87,-45.70 51.15,-42.71 50.42,-39.73 49.99,-33.86 49.56,-27.98 49.84,-14.48 50.12,-0.98 50.68,7.04 51.24,15.06 52.37,21.12 53.50,27.18 54.61,30.58 55.73,33.97 55.12,35.06 54.50,36.15 56.18,35.29 57.86,34.44 60.14,31.61 62.41,28.78 64.93,24.74 67.45,20.70 70.01,19.83 72.57,18.95 74.72,20.38 76.86,21.80 78.65,24.46 80.44,27.11 81.35,28.25 82.25,29.40 82.45,29.34 82.65,29.27 82.87,29.28 83.08,29.29 83.28,29.36 83.48,29.43 83.64,29.57 83.81,29.70 83.92,29.88 84.04,30.06 84.09,30.26 84.14,30.47 84.12,30.68 84.11,30.89 84.02,31.09 83.94,31.28 83.80,31.44 83.65,31.60 83.47,31.70 83.28,31.81 83.08,31.85 82.87,31.89 82.66,31.86 82.45,31.83 82.26,31.74 82.07,31.64 81.91,31.49 81.76,31.34 81.67,31.15 81.58,30.96 81.55,30.75 81.52,30.54 81.56,30.33 81.60,30.12 81.70,29.94 81.81,29.75 81.97,29.61 82.12,29.47 82.32,29.39 82.51,29.30 82.73,29.28 82.94,29.27 83.14,29.32 83.35,29.37 83.53,29.48 83.71,29.60 83.84,29.76 83.97,29.93 84.05,30.13 84.12,30.33 84.13,30.54 84.13,30.75 84.07,30.96 84.01,31.16 83.88,31.33 83.76,31.50 83.59,31.63 83.41,31.75 83.41,31.75 83.42,31.75 79.94,30.74 76.46,29.73 75.08,27.55 73.70,25.37 72.25,24.38 70.79,23.38 68.34,27.52 65.89,31.66 62.96,35.09 60.04,38.52 58.14,39.41 56.24,40.30 53.70,37.90 51.16,35.51 49.92,31.80 48.67,28.09 47.48,21.75 46.30,15.41 45.74,7.25 45.18,-0.90 44.99,-14.65 44.80,-28.40 45.44,-34.70 46.08,-40.99 46.77,-42.84 47.47,-44.69 47.44,-44.96 47.41,-45.23 47.45,-45.50 47.49,-45.77 47.59,-46.02 47.69,-46.28 47.85,-46.50 48.00,-46.72 48.21,-46.90 48.42,-47.07 48.66,-47.20 48.90,-47.32 49.17,-47.38 49.44,-47.44 49.71,-47.44 49.98,-47.43 50.24,-47.36 50.51,-47.29 50.75,-47.16 50.99,-47.03 51.19,-46.85 51.39,-46.66 51.54,-46.44 51.69,-46.21 51.78,-45.95 51.87,-45.70 52.45,-44.34 53.03,-42.99 53.85,-39.07 54.68,-35.15 55.04,-28.33 55.40,-21.51 54.11,-12.83 52.81,-4.16 49.75,5.82 46.69,15.82 42.83,22.19 38.98,28.57 34.33,33.58 29.67,38.60 24.22,41.98 18.77,45.36 12.27,46.42 5.77,47.48 1.51,46.01 -2.75,44.55 -5.58,41.78 -8.42,39.02 -9.63,35.26 -10.84,31.51 -10.76,26.70 -10.68,21.89 -9.86,16.64 -9.05,11.39 -7.86,8.56 -6.66,5.73 -4.11,2.29 -1.55,-1.13 -1.39,-1.30 -1.23,-1.47 -1.04,-1.60 -0.84,-1.73 -0.62,-1.80 -0.40,-1.88 -0.17,-1.90 0.05,-1.92 0.28,-1.89 0.51,-1.85 0.72,-1.76 0.94,-1.68 1.13,-1.54 1.31,-1.40 1.46,-1.22 1.61,-1.04 1.71,-0.84 1.82,-0.63 1.86,-0.40 1.91,-0.17 1.91,0.05 1.90,0.28 1.84,0.51 1.78,0.73 1.66,0.93 1.55,1.13 1.55,1.13 L 1.55,1.13 Z"></path></g><g transform="translate(596.3999633789062 333.1999969482422) rotate(0 0.4000244140625 0)" stroke="none"><path fill="#000000" d="M 2.10,-0.65 Q 2.10,-0.65 2.13,-0.12 2.16,0.39 1.95,0.87 1.73,1.35 1.31,1.68 0.90,2.00 0.38,2.10 -0.13,2.19 -0.63,2.04 -1.14,1.88 -1.51,1.51 -1.88,1.13 -2.04,0.63 -2.19,0.13 -2.10,-0.38 -2.00,-0.90 -1.68,-1.31 -1.35,-1.73 -0.87,-1.95 -0.39,-2.16 0.12,-2.13 0.65,-2.10 1.10,-1.83 1.55,-1.55 1.83,-1.10 L 2.10,-0.65 Z"></path></g><g transform="translate(606.7999877929688 362.80003356933594) rotate(0 30.4000244140625 -30.400039672851562)" stroke="none"><path fill="#000000" d="M -2.00,-0.54 Q -2.00,-0.54 -1.15,-3.03 -0.30,-5.51 0.28,-7.90 0.87,-10.30 1.07,-11.57 1.27,-12.85 1.33,-13.04 1.40,-13.22 1.50,-13.39 1.61,-13.56 1.75,-13.69 1.90,-13.83 2.07,-13.92 2.24,-14.02 2.43,-14.07 2.62,-14.13 2.81,-14.13 3.01,-14.14 3.20,-14.10 3.40,-14.06 3.57,-13.97 3.75,-13.88 3.90,-13.76 4.05,-13.63 4.17,-13.47 4.29,-13.32 4.36,-13.13 4.44,-12.95 4.47,-12.76 4.50,-12.56 4.48,-12.37 4.46,-12.17 4.57,-9.65 4.67,-7.12 4.40,-4.09 4.13,-1.06 4.65,1.69 5.17,4.46 6.16,5.50 7.16,6.55 9.60,5.29 12.03,4.03 13.61,1.75 15.19,-0.52 16.58,-2.56 17.97,-4.60 20.20,-5.33 22.42,-6.06 23.79,-4.23 25.17,-2.41 26.23,-2.32 27.29,-2.22 28.84,-2.63 30.39,-3.03 33.08,-3.48 35.78,-3.92 37.65,-4.12 39.52,-4.33 41.41,-4.17 43.30,-4.02 44.88,-3.95 46.46,-3.89 48.85,-4.07 51.23,-4.25 53.08,-5.12 54.93,-5.99 55.98,-7.44 57.04,-8.90 57.59,-11.55 58.14,-14.20 58.55,-18.37 58.97,-22.53 58.43,-31.17 57.89,-39.81 56.65,-48.52 55.41,-57.23 53.80,-63.85 52.19,-70.46 51.00,-73.89 49.82,-77.31 49.09,-78.80 48.36,-80.30 48.31,-80.57 48.27,-80.85 48.29,-81.13 48.31,-81.42 48.39,-81.68 48.48,-81.95 48.63,-82.19 48.78,-82.43 48.98,-82.63 49.18,-82.83 49.42,-82.97 49.67,-83.11 49.94,-83.19 50.21,-83.27 50.49,-83.29 50.77,-83.30 51.05,-83.25 51.32,-83.19 51.58,-83.08 51.83,-82.96 52.05,-82.78 52.27,-82.60 52.45,-82.38 52.62,-82.16 52.73,-81.90 52.84,-81.64 52.32,-79.48 51.80,-77.31 51.23,-71.22 50.67,-65.13 50.43,-55.39 50.19,-45.65 49.83,-34.80 49.48,-23.95 49.43,-12.26 49.38,-0.57 49.76,5.95 50.15,12.48 49.96,14.78 49.77,17.09 49.96,17.17 50.16,17.25 50.32,17.38 50.48,17.52 50.59,17.71 50.70,17.89 50.74,18.10 50.79,18.30 50.77,18.51 50.74,18.73 50.65,18.92 50.56,19.11 50.41,19.26 50.27,19.42 50.08,19.52 49.89,19.62 49.68,19.65 49.47,19.68 49.26,19.65 49.05,19.61 48.86,19.51 48.68,19.41 48.53,19.26 48.39,19.10 48.30,18.91 48.21,18.71 48.19,18.50 48.17,18.29 48.21,18.08 48.26,17.88 48.37,17.69 48.48,17.51 48.64,17.38 48.81,17.24 49.00,17.16 49.20,17.08 49.41,17.07 49.63,17.06 49.83,17.12 50.03,17.18 50.21,17.30 50.39,17.42 50.51,17.59 50.64,17.76 50.71,17.96 50.77,18.16 50.77,18.37 50.77,18.59 50.70,18.79 50.63,18.99 50.51,19.16 50.38,19.33 50.20,19.44 50.02,19.56 49.82,19.62 49.61,19.67 49.40,19.66 49.19,19.65 49.19,19.65 49.19,19.65 47.58,16.22 45.98,12.80 45.38,6.13 44.78,-0.53 44.57,-12.33 44.36,-24.12 44.70,-34.96 45.05,-45.80 45.39,-55.73 45.73,-65.66 47.05,-72.98 48.36,-80.30 48.31,-80.57 48.27,-80.85 48.29,-81.13 48.31,-81.41 48.39,-81.68 48.48,-81.95 48.63,-82.19 48.78,-82.43 48.98,-82.63 49.18,-82.83 49.42,-82.97 49.67,-83.11 49.94,-83.19 50.21,-83.27 50.49,-83.29 50.77,-83.30 51.05,-83.25 51.32,-83.19 51.58,-83.08 51.83,-82.96 52.05,-82.78 52.27,-82.60 52.45,-82.38 52.62,-82.16 52.73,-81.90 52.84,-81.64 53.48,-80.12 54.11,-78.60 55.05,-74.93 55.99,-71.27 57.21,-64.45 58.43,-57.64 59.53,-48.81 60.63,-39.99 61.25,-31.18 61.87,-22.36 61.78,-17.94 61.69,-13.52 61.04,-10.03 60.39,-6.55 58.64,-4.39 56.88,-2.23 54.27,-1.08 51.66,0.05 48.97,0.27 46.29,0.49 44.59,0.42 42.90,0.36 41.42,0.20 39.93,0.04 38.19,0.19 36.45,0.34 33.90,0.72 31.35,1.10 29.20,1.55 27.06,2.00 24.90,1.48 22.73,0.95 21.87,-0.69 21.01,-2.34 19.56,-0.43 18.10,1.48 16.24,4.17 14.37,6.86 12.00,8.60 9.64,10.33 7.18,9.99 4.73,9.64 2.95,7.57 1.17,5.50 0.57,2.02 -0.02,-1.45 0.33,-4.46 0.68,-7.46 0.97,-10.16 1.27,-12.85 1.33,-13.04 1.40,-13.22 1.50,-13.39 1.61,-13.56 1.75,-13.69 1.90,-13.83 2.07,-13.92 2.24,-14.02 2.43,-14.07 2.62,-14.13 2.81,-14.13 3.01,-14.14 3.20,-14.10 3.40,-14.06 3.57,-13.97 3.75,-13.88 3.90,-13.76 4.05,-13.63 4.17,-13.47 4.29,-13.32 4.36,-13.13 4.44,-12.95 4.47,-12.76 4.50,-12.56 4.48,-12.37 4.46,-12.17 4.22,-10.90 3.97,-9.64 3.51,-7.12 3.06,-4.60 2.53,-2.02 2.00,0.54 1.91,0.78 1.81,1.01 1.67,1.21 1.52,1.41 1.33,1.58 1.14,1.74 0.91,1.85 0.69,1.96 0.44,2.01 0.20,2.07 -0.05,2.06 -0.30,2.06 -0.54,1.99 -0.78,1.92 -1.00,1.80 -1.22,1.68 -1.40,1.51 -1.59,1.34 -1.72,1.13 -1.86,0.92 -1.95,0.68 -2.03,0.44 -2.05,0.19 -2.08,-0.05 -2.04,-0.29 -2.00,-0.54 -2.00,-0.54 L -2.00,-0.54 Z"></path></g><g transform="translate(626.7999877929688 325.1999969482422) rotate(0 38 -12.800003051757812)" stroke="none"><path fill="#000000" d="M -0.37,-2.27 Q -0.37,-2.27 2.36,-2.80 5.11,-3.33 15.57,-6.47 26.02,-9.62 33.52,-11.87 41.02,-14.13 50.20,-17.19 59.37,-20.25 64.02,-21.99 68.67,-23.72 70.62,-24.60 72.57,-25.49 72.78,-25.54 72.98,-25.60 73.19,-25.58 73.41,-25.57 73.60,-25.49 73.80,-25.41 73.96,-25.27 74.12,-25.13 74.23,-24.95 74.34,-24.77 74.38,-24.56 74.43,-24.35 74.40,-24.14 74.38,-23.93 74.29,-23.74 74.20,-23.54 74.05,-23.39 73.90,-23.24 73.71,-23.14 73.52,-23.04 73.31,-23.01 73.10,-22.98 72.89,-23.01 72.68,-23.05 72.50,-23.15 72.31,-23.25 72.17,-23.41 72.02,-23.56 71.93,-23.75 71.85,-23.95 71.82,-24.16 71.80,-24.37 71.85,-24.58 71.90,-24.79 72.01,-24.97 72.12,-25.15 72.28,-25.28 72.45,-25.42 72.64,-25.50 72.84,-25.57 73.05,-25.58 73.27,-25.59 73.47,-25.54 73.68,-25.48 73.85,-25.36 74.02,-25.24 74.15,-25.07 74.28,-24.90 74.35,-24.69 74.41,-24.49 74.41,-24.28 74.41,-24.07 74.34,-23.87 74.27,-23.66 74.14,-23.50 74.01,-23.33 73.83,-23.21 73.66,-23.09 73.66,-23.09 73.66,-23.09 71.71,-22.21 69.76,-21.32 65.24,-18.90 60.72,-16.48 51.56,-13.01 42.41,-9.54 34.91,-7.25 27.42,-4.96 16.67,-1.73 5.92,1.49 3.15,1.88 0.37,2.27 0.10,2.29 -0.17,2.30 -0.44,2.24 -0.72,2.19 -0.97,2.07 -1.22,1.95 -1.44,1.78 -1.65,1.60 -1.82,1.38 -1.99,1.16 -2.10,0.90 -2.21,0.65 -2.26,0.37 -2.30,0.10 -2.28,-0.17 -2.26,-0.45 -2.17,-0.71 -2.09,-0.98 -1.94,-1.21 -1.79,-1.45 -1.59,-1.64 -1.39,-1.84 -1.15,-1.98 -0.91,-2.12 -0.64,-2.20 -0.37,-2.27 -0.37,-2.27 L -0.37,-2.27 Z"></path></g><g transform="translate(183.5999755859375 260.40000915527344) rotate(0 -3.20001220703125 54.39997863769531)" stroke="none"><path fill="#000000" d="M -1.41,0.54 Q -1.41,0.54 -2.62,-2.42 -3.83,-5.38 -4.76,-7.00 -5.68,-8.62 -6.35,-9.56 -7.03,-10.51 -7.11,-10.71 -7.19,-10.91 -7.22,-11.12 -7.25,-11.34 -7.22,-11.55 -7.20,-11.76 -7.13,-11.97 -7.06,-12.17 -6.94,-12.35 -6.82,-12.53 -6.66,-12.67 -6.50,-12.82 -6.31,-12.92 -6.12,-13.03 -5.91,-13.08 -5.71,-13.14 -5.49,-13.14 -5.28,-13.14 -5.07,-13.10 -4.86,-13.05 -4.66,-12.95 -4.47,-12.86 -4.31,-12.72 -4.14,-12.58 -4.02,-12.40 -3.89,-12.23 -4.28,-10.25 -4.67,-8.27 -4.74,-4.15 -4.82,-0.03 -4.85,12.15 -4.89,24.33 -4.47,37.54 -4.05,50.74 -3.24,63.47 -2.44,76.19 -1.28,87.33 -0.13,98.47 0.54,105.07 1.21,111.67 1.41,114.49 1.61,117.30 1.60,117.51 1.59,117.73 1.51,117.92 1.44,118.12 1.30,118.29 1.17,118.45 0.98,118.56 0.80,118.67 0.60,118.72 0.39,118.77 0.18,118.75 -0.02,118.72 -0.22,118.64 -0.41,118.55 -0.57,118.40 -0.72,118.26 -0.82,118.07 -0.92,117.89 -0.96,117.68 -1.00,117.47 -0.96,117.26 -0.93,117.05 -0.83,116.86 -0.74,116.67 -0.58,116.52 -0.43,116.38 -0.24,116.28 -0.05,116.19 0.15,116.17 0.37,116.14 0.57,116.19 0.78,116.23 0.96,116.34 1.15,116.45 1.29,116.61 1.43,116.77 1.51,116.97 1.59,117.16 1.60,117.37 1.61,117.59 1.56,117.79 1.50,118.00 1.39,118.17 1.27,118.35 1.10,118.48 0.93,118.61 0.73,118.68 0.53,118.75 0.32,118.75 0.11,118.75 -0.09,118.69 -0.29,118.62 -0.46,118.49 -0.63,118.37 -0.75,118.19 -0.87,118.02 -0.93,117.81 -0.99,117.61 -0.99,117.61 -0.99,117.61 -1.45,114.83 -1.91,112.04 -2.79,105.46 -3.68,98.88 -5.10,87.68 -6.52,76.47 -7.46,63.68 -8.39,50.88 -8.81,37.59 -9.24,24.30 -9.09,12.03 -8.94,-0.23 -7.98,-5.37 -7.03,-10.51 -7.11,-10.71 -7.19,-10.91 -7.22,-11.12 -7.25,-11.34 -7.22,-11.55 -7.20,-11.76 -7.13,-11.97 -7.06,-12.17 -6.94,-12.35 -6.82,-12.53 -6.66,-12.67 -6.50,-12.82 -6.31,-12.92 -6.12,-13.03 -5.91,-13.08 -5.71,-13.14 -5.49,-13.14 -5.28,-13.14 -5.07,-13.10 -4.86,-13.05 -4.66,-12.95 -4.47,-12.86 -4.31,-12.72 -4.14,-12.58 -4.02,-12.40 -3.89,-12.23 -3.30,-11.24 -2.70,-10.25 -1.73,-8.41 -0.76,-6.57 0.32,-3.55 1.41,-0.54 1.45,-0.36 1.50,-0.18 1.50,-0.00 1.50,0.17 1.46,0.35 1.42,0.53 1.33,0.69 1.25,0.85 1.13,0.99 1.01,1.13 0.86,1.23 0.71,1.33 0.54,1.40 0.36,1.47 0.18,1.49 0.00,1.51 -0.17,1.49 -0.35,1.47 -0.52,1.40 -0.69,1.34 -0.84,1.24 -1.00,1.13 -1.12,1.00 -1.24,0.86 -1.32,0.70 -1.41,0.54 -1.41,0.54 L -1.41,0.54 Z"></path></g><g transform="translate(177.199951171875 258.8000030517578) rotate(0 -9.5999755859375 11.199996948242188)" stroke="none"><path fill="#000000" d="M -0.71,1.42 Q -0.71,1.42 -2.60,0.61 -4.49,-0.19 -6.01,0.10 -7.52,0.41 -9.33,3.89 -11.15,7.38 -12.70,10.96 -14.24,14.54 -15.12,17.36 -15.99,20.18 -15.45,21.79 -14.90,23.40 -14.75,23.55 -14.60,23.70 -14.50,23.88 -14.40,24.07 -14.37,24.28 -14.34,24.49 -14.37,24.70 -14.41,24.91 -14.51,25.10 -14.61,25.29 -14.76,25.43 -14.92,25.58 -15.11,25.66 -15.31,25.75 -15.52,25.77 -15.73,25.79 -15.94,25.75 -16.14,25.70 -16.32,25.59 -16.51,25.48 -16.64,25.31 -16.78,25.15 -16.86,24.95 -16.93,24.76 -16.94,24.54 -16.95,24.33 -16.89,24.13 -16.84,23.92 -16.72,23.75 -16.60,23.57 -16.43,23.45 -16.26,23.32 -16.05,23.25 -15.85,23.19 -15.64,23.19 -15.43,23.19 -15.23,23.26 -15.02,23.33 -14.86,23.46 -14.69,23.59 -14.57,23.76 -14.45,23.94 -14.40,24.15 -14.34,24.35 -14.35,24.56 -14.37,24.77 -14.45,24.97 -14.53,25.17 -14.67,25.33 -14.81,25.49 -14.99,25.60 -15.17,25.71 -15.38,25.75 -15.59,25.79 -15.80,25.77 -16.01,25.75 -16.20,25.66 -16.39,25.56 -16.39,25.56 -16.39,25.56 -18.06,22.34 -19.72,19.11 -18.78,16.05 -17.83,12.99 -16.19,9.23 -14.55,5.46 -12.11,1.41 -9.67,-2.64 -7.90,-3.49 -6.13,-4.34 -4.49,-3.91 -2.86,-3.48 -1.07,-2.45 0.71,-1.42 0.87,-1.31 1.03,-1.20 1.15,-1.06 1.28,-0.92 1.38,-0.76 1.47,-0.59 1.52,-0.40 1.57,-0.22 1.57,-0.03 1.58,0.16 1.53,0.34 1.49,0.53 1.41,0.70 1.32,0.87 1.20,1.02 1.07,1.16 0.92,1.28 0.76,1.39 0.58,1.46 0.41,1.53 0.22,1.56 0.03,1.58 -0.15,1.56 -0.34,1.54 -0.53,1.48 -0.71,1.42 -0.71,1.42 L -0.71,1.42 Z"></path></g><g transform="translate(186 248.40000915527344) rotate(0 19.199981689453125 11.199996948242188)" stroke="none"><path fill="#000000" d="M 1.91,0.38 Q 1.91,0.38 1.48,2.60 1.06,4.82 2.39,7.99 3.71,11.15 7.41,13.48 11.12,15.80 17.31,17.12 23.51,18.43 28.19,18.69 32.86,18.96 34.92,19.18 36.98,19.40 37.19,19.44 37.40,19.48 37.58,19.58 37.77,19.69 37.91,19.85 38.05,20.00 38.14,20.20 38.22,20.40 38.24,20.61 38.25,20.82 38.20,21.02 38.15,21.23 38.04,21.41 37.92,21.59 37.76,21.72 37.59,21.86 37.39,21.93 37.19,22.00 36.98,22.01 36.77,22.01 36.56,21.95 36.36,21.89 36.19,21.76 36.02,21.64 35.89,21.47 35.77,21.29 35.71,21.09 35.64,20.89 35.65,20.68 35.66,20.46 35.73,20.26 35.80,20.07 35.94,19.90 36.07,19.73 36.25,19.62 36.43,19.51 36.63,19.45 36.84,19.40 37.05,19.42 37.26,19.44 37.46,19.52 37.65,19.61 37.81,19.75 37.97,19.89 38.07,20.07 38.18,20.26 38.22,20.47 38.26,20.68 38.23,20.89 38.20,21.10 38.11,21.29 38.01,21.48 37.86,21.63 37.71,21.78 37.52,21.87 37.33,21.97 37.12,22.00 36.91,22.02 36.91,22.02 36.91,22.02 34.84,22.13 32.77,22.24 27.74,22.24 22.71,22.24 15.80,20.77 8.90,19.29 4.50,16.14 0.10,12.99 -1.40,8.68 -2.90,4.37 -2.40,1.99 -1.91,-0.38 -1.83,-0.60 -1.76,-0.82 -1.63,-1.02 -1.51,-1.22 -1.34,-1.38 -1.17,-1.55 -0.97,-1.67 -0.77,-1.78 -0.54,-1.85 -0.32,-1.92 -0.08,-1.93 0.14,-1.94 0.37,-1.89 0.60,-1.85 0.82,-1.75 1.03,-1.65 1.21,-1.50 1.39,-1.35 1.54,-1.16 1.68,-0.98 1.77,-0.76 1.86,-0.54 1.90,-0.31 1.94,-0.08 1.92,0.14 1.91,0.38 1.91,0.38 L 1.91,0.38 Z"></path></g><g transform="translate(68.39996337890625 382.80003356933594) rotate(0 149.20001220703125 -18)" stroke="none"><path fill="#000000" d="M -0.71,-1.86 Q -0.71,-1.86 4.10,-3.74 8.92,-5.62 13.79,-7.11 18.67,-8.61 33.22,-11.80 47.76,-14.98 65.04,-17.28 82.31,-19.57 101.88,-20.77 121.45,-21.97 142.18,-22.71 162.91,-23.44 188.70,-25.10 214.49,-26.75 233.25,-28.61 252.01,-30.46 264.33,-32.15 276.65,-33.84 282.80,-34.89 288.95,-35.93 291.61,-36.23 294.27,-36.54 294.48,-36.54 294.69,-36.55 294.90,-36.49 295.10,-36.43 295.27,-36.30 295.45,-36.18 295.57,-36.00 295.69,-35.83 295.76,-35.63 295.82,-35.43 295.81,-35.21 295.81,-35.00 295.73,-34.80 295.66,-34.60 295.53,-34.44 295.40,-34.27 295.22,-34.16 295.04,-34.04 294.83,-33.99 294.62,-33.94 294.41,-33.96 294.20,-33.97 294.01,-34.06 293.81,-34.14 293.65,-34.28 293.49,-34.42 293.39,-34.61 293.29,-34.79 293.24,-35.00 293.20,-35.21 293.23,-35.42 293.26,-35.63 293.36,-35.82 293.45,-36.01 293.60,-36.16 293.75,-36.31 293.94,-36.41 294.13,-36.50 294.34,-36.53 294.55,-36.56 294.76,-36.52 294.97,-36.48 295.15,-36.38 295.34,-36.27 295.48,-36.11 295.62,-35.96 295.71,-35.76 295.79,-35.57 295.81,-35.35 295.83,-35.14 295.78,-34.94 295.72,-34.73 295.61,-34.55 295.50,-34.37 295.33,-34.24 295.16,-34.11 294.96,-34.03 294.77,-33.96 294.77,-33.96 294.77,-33.96 292.18,-33.25 289.60,-32.55 283.40,-31.21 277.20,-29.88 264.81,-28.14 252.42,-26.40 233.59,-24.52 214.76,-22.63 188.91,-20.90 163.06,-19.17 142.39,-18.43 121.71,-17.70 102.29,-16.51 82.87,-15.33 65.76,-13.10 48.66,-10.88 34.27,-7.75 19.89,-4.63 15.14,-3.18 10.39,-1.73 5.55,0.06 0.71,1.86 0.47,1.92 0.24,1.98 0.00,1.98 -0.23,1.98 -0.47,1.92 -0.70,1.87 -0.92,1.75 -1.13,1.64 -1.31,1.48 -1.49,1.32 -1.63,1.13 -1.76,0.93 -1.85,0.70 -1.94,0.48 -1.97,0.24 -1.99,0.00 -1.97,-0.23 -1.94,-0.47 -1.85,-0.70 -1.77,-0.92 -1.63,-1.12 -1.49,-1.32 -1.31,-1.48 -1.13,-1.64 -0.92,-1.75 -0.71,-1.86 -0.71,-1.86 L -0.71,-1.86 Z"></path></g><g transform="translate(93.199951171875 381.1999969482422) rotate(0 -3.5999755859375 0.399993896484375)" stroke="none"><path fill="#000000" d="M 1.57,-0.49 Q 1.57,-0.49 1.59,-0.09 1.62,0.29 1.46,0.65 1.29,1.01 0.98,1.26 0.67,1.50 0.28,1.57 -0.09,1.64 -0.47,1.52 -0.85,1.41 -1.13,1.13 -1.41,0.85 -1.52,0.47 -1.64,0.09 -1.57,-0.28 -1.50,-0.67 -1.26,-0.98 -1.01,-1.29 -0.65,-1.46 -0.29,-1.62 0.09,-1.59 0.49,-1.57 0.82,-1.37 1.16,-1.16 1.37,-0.82 L 1.57,-0.49 Z"></path></g><g transform="translate(75.5999755859375 383.6000213623047) rotate(0 137.60000610351562 85.19998168945312)" stroke="none"><path fill="#000000" d="M 1.46,0.36 Q 1.46,0.36 1.24,2.26 1.01,4.16 -0.00,11.08 -1.02,18.00 -1.91,27.81 -2.79,37.61 -3.63,50.29 -4.46,62.97 -5.50,80.78 -6.55,98.59 -7.46,112.38 -8.37,126.17 -8.52,135.41 -8.67,144.64 -7.01,150.25 -5.35,155.85 -1.52,158.83 2.30,161.82 13.28,163.53 24.26,165.25 38.88,166.07 53.51,166.89 72.62,167.25 91.73,167.62 114.77,167.11 137.81,166.59 169.66,164.45 201.51,162.31 226.14,161.13 250.76,159.95 261.21,159.37 271.67,158.79 271.88,158.81 272.09,158.83 272.28,158.92 272.48,159.01 272.63,159.15 272.79,159.30 272.89,159.49 272.99,159.67 273.02,159.88 273.06,160.09 273.02,160.30 272.99,160.51 272.89,160.70 272.79,160.89 272.64,161.04 272.48,161.18 272.29,161.27 272.10,161.36 271.89,161.39 271.68,161.41 271.47,161.36 271.26,161.32 271.08,161.21 270.90,161.10 270.76,160.94 270.62,160.78 270.54,160.58 270.46,160.39 270.45,160.17 270.44,159.96 270.49,159.76 270.55,159.55 270.67,159.38 270.79,159.20 270.95,159.07 271.12,158.94 271.32,158.87 271.53,158.80 271.74,158.80 271.95,158.80 272.15,158.87 272.35,158.94 272.52,159.06 272.69,159.19 272.81,159.37 272.93,159.54 272.99,159.75 273.05,159.95 273.04,160.16 273.03,160.38 272.95,160.57 272.87,160.77 272.73,160.93 272.60,161.10 272.42,161.21 272.23,161.32 272.03,161.36 271.82,161.41 271.82,161.41 271.82,161.41 261.37,162.05 250.92,162.69 226.35,164.39 201.78,166.08 169.85,168.54 137.91,170.99 114.78,171.57 91.64,172.14 72.45,171.80 53.26,171.47 38.37,170.63 23.49,169.80 11.58,167.64 -0.33,165.48 -4.91,161.50 -9.49,157.52 -11.37,151.08 -13.26,144.63 -13.10,135.25 -12.94,125.87 -12.03,112.09 -11.13,98.32 -10.06,80.49 -8.99,62.66 -8.12,49.93 -7.24,37.19 -6.25,27.26 -5.27,17.32 -4.06,10.26 -2.85,3.19 -2.16,1.41 -1.46,-0.36 -1.40,-0.53 -1.33,-0.70 -1.23,-0.85 -1.12,-1.00 -0.99,-1.12 -0.85,-1.24 -0.69,-1.33 -0.53,-1.41 -0.35,-1.45 -0.17,-1.50 0.00,-1.50 0.18,-1.50 0.36,-1.45 0.54,-1.41 0.70,-1.32 0.86,-1.24 0.99,-1.12 1.13,-0.99 1.23,-0.84 1.34,-0.69 1.40,-0.52 1.46,-0.35 1.49,-0.17 1.51,0.00 1.48,0.18 1.46,0.36 1.46,0.36 L 1.46,0.36 Z"></path></g><g transform="translate(386.79998779296875 528.4000091552734) rotate(0 -2.4000244140625 -19.600006103515625)" stroke="none"><path fill="#000000" d="M -1.40,0.43 Q -1.40,0.43 -2.64,-3.21 -3.87,-6.86 -4.60,-10.10 -5.32,-13.35 -5.61,-18.74 -5.90,-24.13 -5.76,-28.50 -5.62,-32.87 -5.50,-34.69 -5.37,-36.52 -5.33,-36.73 -5.29,-36.94 -5.19,-37.12 -5.08,-37.31 -4.93,-37.45 -4.77,-37.59 -4.57,-37.68 -4.38,-37.76 -4.17,-37.78 -3.96,-37.80 -3.75,-37.75 -3.54,-37.70 -3.36,-37.58 -3.18,-37.47 -3.05,-37.31 -2.92,-37.14 -2.84,-36.94 -2.77,-36.74 -2.76,-36.53 -2.76,-36.32 -2.82,-36.11 -2.88,-35.91 -3.00,-35.74 -3.13,-35.57 -3.30,-35.44 -3.47,-35.32 -3.67,-35.25 -3.88,-35.19 -4.09,-35.19 -4.30,-35.20 -4.50,-35.27 -4.70,-35.34 -4.87,-35.48 -5.03,-35.61 -5.15,-35.79 -5.26,-35.97 -5.31,-36.17 -5.37,-36.38 -5.35,-36.59 -5.33,-36.80 -5.25,-37.00 -5.17,-37.19 -5.03,-37.35 -4.88,-37.51 -4.70,-37.62 -4.52,-37.72 -4.31,-37.76 -4.10,-37.80 -3.89,-37.78 -3.68,-37.75 -3.49,-37.65 -3.30,-37.56 -3.14,-37.41 -2.99,-37.26 -2.90,-37.07 -2.80,-36.88 -2.77,-36.67 -2.74,-36.46 -2.74,-36.46 -2.74,-36.46 -2.70,-34.63 -2.66,-32.80 -2.73,-28.55 -2.79,-24.31 -2.46,-19.19 -2.14,-14.06 -1.43,-10.95 -0.72,-7.85 0.34,-4.14 1.40,-0.43 1.43,-0.26 1.46,-0.09 1.45,0.08 1.44,0.26 1.39,0.43 1.34,0.60 1.25,0.75 1.15,0.90 1.03,1.03 0.90,1.15 0.75,1.25 0.60,1.34 0.43,1.39 0.26,1.44 0.08,1.45 -0.08,1.46 -0.26,1.43 -0.43,1.40 -0.59,1.33 -0.76,1.26 -0.90,1.15 -1.04,1.04 -1.14,0.90 -1.25,0.76 -1.33,0.60 -1.40,0.43 -1.40,0.43 L -1.40,0.43 Z"></path></g><g transform="translate(369.99993896484375 345.99998474121094) rotate(0 -17.199951171875 89.60002136230469)" stroke="none"><path fill="#000000" d="M -1.47,0.14 Q -1.47,0.14 -1.77,-2.14 -2.07,-4.43 -2.20,-5.65 -2.32,-6.87 -2.54,-8.18 -2.76,-9.48 -2.74,-9.72 -2.73,-9.96 -2.66,-10.19 -2.58,-10.41 -2.46,-10.62 -2.33,-10.82 -2.16,-10.99 -1.99,-11.16 -1.78,-11.29 -1.58,-11.41 -1.35,-11.48 -1.12,-11.55 -0.88,-11.56 -0.64,-11.58 -0.40,-11.53 -0.17,-11.49 0.04,-11.39 0.26,-11.29 0.45,-11.14 0.64,-10.99 0.78,-10.80 0.93,-10.61 1.03,-10.39 1.13,-10.17 1.17,-9.94 1.21,-9.70 1.28,-8.03 1.34,-6.36 1.61,-1.60 1.88,3.16 2.45,11.16 3.02,19.17 3.97,29.92 4.91,40.67 6.00,53.30 7.08,65.93 7.77,81.47 8.46,97.00 8.74,107.97 9.03,118.94 8.91,126.63 8.79,134.33 8.74,139.87 8.70,145.41 8.68,150.29 8.66,155.18 8.65,158.17 8.64,161.17 8.64,162.67 8.63,164.18 8.59,165.27 8.55,166.37 8.54,167.83 8.53,169.28 8.52,170.98 8.51,172.68 8.51,175.01 8.50,177.35 8.50,178.57 8.50,179.79 8.50,181.00 8.50,182.21 8.46,183.84 8.43,185.46 7.61,186.77 6.79,188.07 5.65,188.70 4.50,189.32 2.41,189.99 0.31,190.66 -6.30,190.91 -12.92,191.17 -21.17,191.09 -29.42,191.02 -32.92,190.93 -36.41,190.84 -36.62,190.81 -36.83,190.77 -37.02,190.68 -37.21,190.58 -37.36,190.43 -37.51,190.28 -37.60,190.08 -37.69,189.89 -37.72,189.68 -37.74,189.47 -37.70,189.26 -37.66,189.05 -37.55,188.87 -37.44,188.69 -37.28,188.55 -37.12,188.41 -36.93,188.33 -36.73,188.25 -36.52,188.23 -36.31,188.22 -36.10,188.27 -35.90,188.32 -35.72,188.44 -35.54,188.56 -35.41,188.73 -35.28,188.89 -35.21,189.09 -35.14,189.29 -35.13,189.51 -35.13,189.72 -35.20,189.92 -35.26,190.12 -35.39,190.29 -35.51,190.47 -35.69,190.59 -35.86,190.71 -36.07,190.77 -36.27,190.83 -36.48,190.82 -36.70,190.81 -36.89,190.73 -37.09,190.66 -37.26,190.52 -37.42,190.39 -37.53,190.21 -37.64,190.03 -37.69,189.82 -37.74,189.61 -37.72,189.40 -37.70,189.19 -37.61,189.00 -37.53,188.80 -37.38,188.65 -37.24,188.49 -37.05,188.39 -36.87,188.29 -36.66,188.25 -36.45,188.21 -36.45,188.21 -36.45,188.21 -32.96,188.02 -29.46,187.84 -21.27,187.54 -13.08,187.24 -7.00,186.96 -0.91,186.68 1.72,185.86 4.36,185.03 4.33,183.62 4.29,182.21 4.29,181.00 4.29,179.79 4.29,178.57 4.29,177.35 4.28,175.01 4.28,172.68 4.27,170.98 4.26,169.28 4.25,167.82 4.25,166.37 4.21,165.27 4.17,164.17 4.17,162.66 4.17,161.16 4.18,158.16 4.19,155.16 4.21,150.27 4.22,145.37 4.27,139.82 4.31,134.26 4.40,126.66 4.49,119.07 4.19,108.13 3.89,97.20 3.20,81.76 2.50,66.32 1.42,53.70 0.34,41.07 -0.56,30.27 -1.47,19.48 -2.01,11.42 -2.55,3.37 -2.73,-1.50 -2.92,-6.38 -2.84,-7.93 -2.76,-9.48 -2.74,-9.72 -2.73,-9.96 -2.66,-10.19 -2.58,-10.41 -2.46,-10.62 -2.33,-10.82 -2.16,-10.99 -1.99,-11.16 -1.78,-11.29 -1.58,-11.41 -1.35,-11.48 -1.12,-11.55 -0.88,-11.56 -0.64,-11.58 -0.40,-11.53 -0.17,-11.49 0.04,-11.39 0.26,-11.29 0.45,-11.14 0.64,-10.99 0.78,-10.80 0.93,-10.61 1.03,-10.39 1.13,-10.17 1.17,-9.94 1.21,-9.70 1.11,-8.42 1.01,-7.15 1.08,-5.95 1.15,-4.76 1.31,-2.45 1.47,-0.14 1.47,0.03 1.46,0.20 1.42,0.38 1.37,0.55 1.28,0.71 1.20,0.86 1.08,0.99 0.95,1.13 0.81,1.22 0.66,1.32 0.49,1.38 0.32,1.44 0.14,1.46 -0.03,1.48 -0.20,1.45 -0.38,1.43 -0.55,1.36 -0.71,1.29 -0.86,1.19 -1.00,1.08 -1.12,0.95 -1.23,0.81 -1.31,0.65 -1.39,0.49 -1.43,0.32 -1.47,0.14 -1.47,0.14 L -1.47,0.14 Z"></path></g><g transform="translate(111.5999755859375 400.40000915527344) rotate(0 91.20001220703125 -9.20001220703125)" stroke="none"><path fill="#000000" d="M -0.39,-1.58 Q -0.39,-1.58 2.35,-2.29 5.11,-3.00 11.10,-4.51 17.10,-6.02 24.29,-7.37 31.49,-8.73 39.63,-9.77 47.78,-10.80 57.03,-11.48 66.27,-12.16 76.66,-12.45 87.05,-12.75 101.55,-13.32 116.06,-13.89 128.41,-14.76 140.76,-15.64 151.06,-16.63 161.37,-17.61 167.36,-18.21 173.36,-18.81 175.92,-19.04 178.48,-19.26 178.69,-19.25 178.90,-19.24 179.10,-19.17 179.30,-19.09 179.46,-18.95 179.62,-18.82 179.73,-18.64 179.84,-18.45 179.89,-18.25 179.94,-18.04 179.92,-17.83 179.90,-17.62 179.81,-17.42 179.72,-17.23 179.57,-17.07 179.43,-16.92 179.24,-16.82 179.06,-16.72 178.85,-16.68 178.64,-16.65 178.43,-16.68 178.22,-16.71 178.03,-16.81 177.84,-16.91 177.69,-17.06 177.55,-17.22 177.45,-17.41 177.36,-17.60 177.34,-17.81 177.32,-18.02 177.36,-18.23 177.40,-18.44 177.51,-18.62 177.62,-18.80 177.78,-18.94 177.94,-19.08 178.14,-19.16 178.34,-19.24 178.55,-19.25 178.76,-19.27 178.97,-19.21 179.17,-19.16 179.35,-19.04 179.52,-18.92 179.65,-18.75 179.78,-18.58 179.85,-18.38 179.92,-18.18 179.92,-17.97 179.92,-17.76 179.86,-17.55 179.79,-17.35 179.66,-17.18 179.54,-17.01 179.36,-16.89 179.19,-16.77 178.98,-16.71 178.78,-16.66 178.78,-16.66 178.78,-16.66 176.24,-16.29 173.70,-15.93 167.70,-15.15 161.71,-14.36 151.37,-13.17 141.03,-11.98 128.62,-10.99 116.21,-9.99 101.68,-9.40 87.15,-8.81 76.85,-8.54 66.55,-8.27 57.40,-7.63 48.26,-6.99 40.21,-6.00 32.16,-5.01 25.05,-3.76 17.94,-2.51 11.93,-1.13 5.92,0.24 3.16,0.91 0.39,1.58 0.20,1.60 0.00,1.63 -0.19,1.60 -0.38,1.58 -0.56,1.51 -0.75,1.44 -0.91,1.33 -1.07,1.22 -1.20,1.07 -1.34,0.93 -1.43,0.75 -1.52,0.58 -1.57,0.39 -1.61,0.20 -1.62,0.00 -1.62,-0.19 -1.57,-0.38 -1.52,-0.57 -1.43,-0.74 -1.34,-0.92 -1.21,-1.07 -1.08,-1.21 -0.92,-1.33 -0.76,-1.44 -0.57,-1.51 -0.39,-1.58 -0.39,-1.58 L -0.39,-1.58 Z"></path></g><g transform="translate(90.79998779296875 401.99998474121094) rotate(0 100.39999389648438 23.600006103515625)" stroke="none"><path fill="#000000" d="M 1.03,-1.29 Q 1.03,-1.29 3.47,0.37 5.90,2.05 8.16,4.56 10.42,7.07 12.36,10.32 14.31,13.56 16.22,16.70 18.14,19.84 21.01,24.13 23.87,28.43 26.87,32.01 29.86,35.59 33.25,37.88 36.64,40.17 41.12,41.56 45.61,42.94 52.05,43.77 58.48,44.60 70.12,44.51 81.76,44.41 93.63,43.92 105.50,43.43 117.70,43.01 129.90,42.59 142.00,42.47 154.11,42.35 167.53,42.47 180.96,42.60 186.66,42.66 192.36,42.73 192.57,42.76 192.78,42.80 192.97,42.90 193.16,42.99 193.30,43.15 193.45,43.30 193.54,43.49 193.63,43.69 193.65,43.90 193.68,44.11 193.63,44.32 193.59,44.52 193.48,44.71 193.37,44.89 193.21,45.03 193.05,45.17 192.85,45.25 192.66,45.33 192.44,45.34 192.23,45.35 192.03,45.30 191.82,45.24 191.65,45.12 191.47,45.00 191.34,44.84 191.21,44.67 191.14,44.47 191.07,44.27 191.07,44.05 191.07,43.84 191.14,43.64 191.20,43.44 191.33,43.27 191.46,43.10 191.63,42.98 191.81,42.86 192.01,42.80 192.22,42.74 192.43,42.75 192.64,42.76 192.84,42.84 193.04,42.92 193.20,43.05 193.36,43.19 193.47,43.37 193.58,43.55 193.63,43.76 193.68,43.97 193.66,44.18 193.63,44.39 193.55,44.58 193.46,44.78 193.31,44.93 193.17,45.09 192.98,45.19 192.79,45.29 192.58,45.32 192.37,45.36 192.37,45.36 192.38,45.36 186.67,45.49 180.97,45.63 167.57,45.91 154.17,46.20 142.11,46.45 130.05,46.71 117.86,47.17 105.68,47.63 93.74,48.13 81.79,48.64 69.86,48.72 57.94,48.80 51.14,47.88 44.34,46.97 39.32,45.32 34.29,43.67 30.48,40.99 26.66,38.32 23.52,34.54 20.38,30.76 17.47,26.40 14.55,22.03 12.62,18.87 10.69,15.70 8.99,12.77 7.28,9.85 5.28,7.57 3.29,5.30 1.12,3.30 -1.03,1.29 -1.17,1.15 -1.31,1.01 -1.41,0.83 -1.52,0.66 -1.57,0.47 -1.63,0.28 -1.64,0.08 -1.65,-0.11 -1.61,-0.31 -1.58,-0.51 -1.49,-0.69 -1.41,-0.87 -1.28,-1.03 -1.16,-1.18 -1.00,-1.30 -0.84,-1.43 -0.66,-1.51 -0.47,-1.59 -0.28,-1.62 -0.08,-1.65 0.11,-1.64 0.31,-1.63 0.50,-1.56 0.69,-1.50 0.86,-1.40 1.03,-1.29 1.03,-1.29 L 1.03,-1.29 Z"></path></g><g transform="translate(313.99993896484375 372.40000915527344) rotate(0 -39.999969482421875 31.600006103515625)" stroke="none"><path fill="#000000" d="M 1.68,-0.08 Q 1.68,-0.08 2.15,4.50 2.61,9.09 2.71,14.06 2.82,19.04 2.86,25.07 2.90,31.09 2.45,35.84 2.00,40.58 0.82,44.18 -0.35,47.79 -2.91,50.73 -5.48,53.67 -11.43,56.14 -17.38,58.61 -24.56,59.84 -31.75,61.07 -39.85,61.75 -47.96,62.44 -55.98,63.07 -64.00,63.70 -68.81,63.93 -73.62,64.16 -75.66,64.23 -77.70,64.30 -77.91,64.28 -78.12,64.26 -78.32,64.17 -78.51,64.09 -78.67,63.94 -78.82,63.80 -78.93,63.61 -79.03,63.43 -79.07,63.22 -79.10,63.01 -79.07,62.80 -79.04,62.59 -78.94,62.40 -78.85,62.21 -78.69,62.06 -78.54,61.91 -78.35,61.82 -78.16,61.73 -77.95,61.70 -77.74,61.68 -77.53,61.72 -77.32,61.76 -77.14,61.87 -76.95,61.98 -76.81,62.14 -76.67,62.30 -76.59,62.49 -76.51,62.69 -76.50,62.90 -76.48,63.11 -76.54,63.32 -76.59,63.52 -76.71,63.70 -76.82,63.88 -76.99,64.01 -77.16,64.14 -77.36,64.21 -77.56,64.28 -77.77,64.28 -77.98,64.29 -78.19,64.22 -78.39,64.16 -78.56,64.03 -78.73,63.91 -78.85,63.73 -78.97,63.56 -79.03,63.35 -79.09,63.15 -79.08,62.94 -79.08,62.72 -79.00,62.53 -78.92,62.33 -78.79,62.16 -78.65,62.00 -78.47,61.89 -78.29,61.78 -78.09,61.73 -77.88,61.68 -77.88,61.68 -77.88,61.68 -75.85,61.47 -73.82,61.26 -69.07,60.83 -64.31,60.41 -56.31,59.50 -48.31,58.58 -40.37,57.80 -32.43,57.03 -25.67,55.89 -18.91,54.75 -13.69,52.73 -8.48,50.72 -6.42,48.51 -4.36,46.31 -3.33,43.22 -2.29,40.14 -1.86,35.63 -1.42,31.12 -1.46,25.12 -1.51,19.13 -1.60,14.22 -1.69,9.30 -1.69,4.69 -1.68,0.08 -1.67,-0.11 -1.65,-0.32 -1.59,-0.51 -1.53,-0.70 -1.42,-0.88 -1.31,-1.05 -1.17,-1.19 -1.02,-1.34 -0.85,-1.44 -0.67,-1.54 -0.48,-1.60 -0.28,-1.66 -0.08,-1.67 0.11,-1.68 0.31,-1.64 0.51,-1.60 0.70,-1.52 0.88,-1.43 1.04,-1.30 1.20,-1.18 1.33,-1.02 1.45,-0.85 1.53,-0.67 1.61,-0.48 1.65,-0.28 1.68,-0.08 1.68,-0.08 L 1.68,-0.08 Z"></path></g><g transform="translate(146.79998779296875 421.1999969482422) rotate(0 9.199981689453125 -7.20001220703125)" stroke="none"><path fill="#000000" d="M 1.83,0.32 Q 1.83,0.32 1.18,4.24 0.53,8.15 0.25,10.68 -0.02,13.20 -0.10,14.07 -0.17,14.94 -0.23,15.19 -0.28,15.43 -0.40,15.65 -0.51,15.87 -0.67,16.05 -0.84,16.24 -1.04,16.38 -1.24,16.53 -1.47,16.61 -1.70,16.70 -1.95,16.74 -2.19,16.77 -2.44,16.74 -2.69,16.71 -2.92,16.63 -3.15,16.54 -3.36,16.40 -3.56,16.26 -3.73,16.08 -3.89,15.89 -4.01,15.67 -4.13,15.46 -4.19,15.22 -4.25,14.98 -4.25,14.73 -4.25,14.48 -4.09,12.79 -3.93,11.09 -2.91,5.69 -1.90,0.28 -1.01,-4.94 -0.13,-10.17 0.46,-15.12 1.06,-20.06 1.81,-23.46 2.55,-26.86 4.94,-28.87 7.33,-30.87 8.84,-30.08 10.35,-29.28 12.62,-25.89 14.90,-22.49 16.73,-18.02 18.57,-13.56 19.81,-9.08 21.05,-4.60 21.51,0.19 21.97,4.99 20.98,8.66 19.98,12.33 19.91,12.53 19.83,12.72 19.70,12.89 19.57,13.05 19.39,13.17 19.21,13.28 19.00,13.33 18.79,13.38 18.58,13.37 18.37,13.35 18.18,13.26 17.98,13.18 17.82,13.04 17.67,12.89 17.56,12.71 17.46,12.52 17.42,12.31 17.38,12.11 17.41,11.90 17.44,11.68 17.53,11.49 17.63,11.30 17.78,11.15 17.93,11.01 18.12,10.91 18.31,10.82 18.52,10.79 18.73,10.76 18.94,10.80 19.15,10.84 19.33,10.95 19.52,11.05 19.66,11.21 19.80,11.37 19.88,11.57 19.97,11.76 19.98,11.97 20.00,12.19 19.95,12.39 19.90,12.60 19.78,12.78 19.67,12.95 19.50,13.09 19.33,13.22 19.13,13.29 18.93,13.36 18.72,13.37 18.51,13.37 18.31,13.31 18.10,13.25 17.93,13.12 17.76,13.00 17.64,12.83 17.51,12.65 17.45,12.45 17.39,12.25 17.40,12.03 17.40,11.82 17.40,11.82 17.40,11.82 17.75,8.59 18.10,5.36 17.54,0.94 16.98,-3.48 15.81,-7.72 14.65,-11.96 12.99,-16.11 11.33,-20.25 8.92,-23.06 6.51,-25.86 5.83,-22.71 5.14,-19.57 4.53,-14.53 3.92,-9.49 3.04,-4.22 2.15,1.04 1.18,6.29 0.21,11.53 0.01,13.24 -0.17,14.94 -0.23,15.19 -0.28,15.43 -0.40,15.65 -0.51,15.87 -0.67,16.05 -0.84,16.24 -1.04,16.38 -1.24,16.53 -1.47,16.61 -1.70,16.70 -1.95,16.74 -2.19,16.77 -2.44,16.74 -2.69,16.71 -2.92,16.63 -3.15,16.54 -3.36,16.40 -3.56,16.26 -3.73,16.08 -3.89,15.89 -4.01,15.67 -4.13,15.46 -4.19,15.22 -4.25,14.98 -4.25,14.73 -4.25,14.48 -4.08,13.62 -3.90,12.76 -3.60,10.12 -3.29,7.48 -2.56,3.57 -1.83,-0.32 -1.76,-0.53 -1.70,-0.75 -1.58,-0.94 -1.47,-1.13 -1.31,-1.29 -1.15,-1.45 -0.96,-1.57 -0.77,-1.69 -0.56,-1.75 -0.34,-1.82 -0.12,-1.84 0.10,-1.85 0.32,-1.81 0.54,-1.77 0.74,-1.68 0.95,-1.59 1.12,-1.46 1.30,-1.32 1.44,-1.14 1.58,-0.97 1.67,-0.76 1.77,-0.56 1.81,-0.34 1.85,-0.12 1.84,0.09 1.83,0.32 1.83,0.32 L 1.83,0.32 Z"></path></g><g transform="translate(134 425.1999969482422) rotate(0 30.399993896484375 7.20001220703125)" stroke="none"><path fill="#000000" d="M -1.11,-1.73 Q -1.11,-1.73 2.07,-3.85 5.25,-5.98 8.32,-7.59 11.38,-9.19 15.49,-11.00 19.59,-12.80 23.43,-14.26 27.28,-15.71 30.04,-16.78 32.79,-17.85 34.52,-18.54 36.25,-19.23 37.87,-18.66 39.49,-18.09 40.14,-16.32 40.79,-14.55 40.98,-11.01 41.17,-7.47 41.47,-3.07 41.77,1.31 42.80,7.69 43.83,14.07 44.50,18.91 45.16,23.76 45.44,27.02 45.72,30.27 45.83,31.86 45.94,33.45 45.94,33.71 45.93,33.97 45.86,34.22 45.79,34.47 45.66,34.69 45.53,34.91 45.36,35.10 45.18,35.29 44.96,35.43 44.75,35.57 44.50,35.65 44.26,35.73 44.00,35.76 43.75,35.78 43.49,35.74 43.24,35.70 43.00,35.60 42.76,35.50 42.56,35.35 42.35,35.20 42.18,35.00 42.02,34.80 41.91,34.57 41.79,34.34 41.74,34.09 41.69,33.83 40.94,32.04 40.19,30.24 39.59,25.18 38.98,20.12 38.72,13.40 38.47,6.68 38.59,0.58 38.71,-5.51 39.49,-10.11 40.27,-14.71 42.53,-17.38 44.80,-20.04 47.46,-19.96 50.12,-19.88 53.09,-17.51 56.05,-15.14 58.03,-12.00 60.00,-8.86 59.60,-5.14 59.19,-1.42 56.41,1.03 53.63,3.48 49.91,4.46 46.20,5.45 43.71,5.25 41.23,5.05 39.68,3.66 38.13,2.27 37.99,2.11 37.85,1.95 37.76,1.76 37.68,1.56 37.67,1.35 37.65,1.14 37.70,0.93 37.76,0.73 37.87,0.55 37.99,0.37 38.16,0.24 38.32,0.11 38.52,0.04 38.72,-0.03 38.93,-0.03 39.15,-0.03 39.35,0.02 39.55,0.08 39.72,0.21 39.90,0.34 40.02,0.51 40.14,0.68 40.20,0.89 40.26,1.09 40.25,1.30 40.25,1.51 40.17,1.71 40.10,1.91 39.96,2.08 39.83,2.24 39.65,2.35 39.47,2.47 39.26,2.52 39.06,2.57 38.84,2.55 38.63,2.53 38.44,2.44 38.24,2.36 38.09,2.21 37.93,2.07 37.83,1.88 37.72,1.70 37.68,1.49 37.65,1.28 37.68,1.07 37.71,0.86 37.80,0.67 37.90,0.48 38.05,0.33 38.20,0.18 38.39,0.09 38.58,0.00 38.80,-0.02 39.01,-0.05 39.21,-0.00 39.42,0.03 39.61,0.13 39.79,0.24 39.79,0.24 39.79,0.24 40.80,0.94 41.81,1.64 43.56,1.66 45.30,1.67 48.28,0.97 51.27,0.28 53.43,-1.20 55.59,-2.69 56.00,-5.00 56.41,-7.31 54.87,-9.70 53.34,-12.09 51.30,-14.08 49.26,-16.07 47.72,-16.50 46.18,-16.93 45.05,-15.39 43.93,-13.85 43.22,-9.64 42.52,-5.42 42.40,0.55 42.28,6.54 42.53,13.09 42.78,19.65 43.37,24.18 43.97,28.71 44.96,31.08 45.94,33.45 45.94,33.71 45.93,33.97 45.86,34.22 45.79,34.47 45.66,34.69 45.53,34.91 45.36,35.10 45.18,35.29 44.96,35.43 44.75,35.57 44.50,35.65 44.26,35.73 44.00,35.76 43.75,35.78 43.49,35.74 43.24,35.70 43.00,35.60 42.76,35.50 42.56,35.35 42.35,35.20 42.18,35.00 42.02,34.80 41.91,34.57 41.79,34.34 41.74,34.09 41.69,33.83 41.56,32.24 41.43,30.66 41.13,27.51 40.84,24.36 40.16,19.56 39.49,14.76 38.44,8.18 37.39,1.59 37.12,-2.85 36.85,-7.31 37.08,-11.41 37.31,-15.52 35.78,-14.83 34.25,-14.14 31.49,-13.05 28.73,-11.95 25.01,-10.49 21.30,-9.02 17.35,-7.19 13.40,-5.35 10.51,-3.82 7.62,-2.29 4.36,-0.28 1.11,1.73 0.88,1.83 0.66,1.94 0.42,1.99 0.18,2.05 -0.06,2.04 -0.31,2.03 -0.55,1.96 -0.79,1.89 -1.00,1.77 -1.22,1.65 -1.40,1.48 -1.58,1.31 -1.71,1.10 -1.85,0.89 -1.93,0.66 -2.01,0.42 -2.03,0.17 -2.05,-0.06 -2.01,-0.31 -1.98,-0.55 -1.88,-0.78 -1.79,-1.01 -1.64,-1.21 -1.49,-1.41 -1.30,-1.57 -1.11,-1.73 -1.11,-1.73 L -1.11,-1.73 Z"></path></g><g transform="translate(201.199951171875 406.80003356933594) rotate(0 6.4000244140625 16.79998779296875)" stroke="none"><path fill="#000000" d="M 1.85,0.46 Q 1.85,0.46 1.25,3.24 0.66,6.03 -0.04,9.69 -0.76,13.35 -1.06,17.78 -1.35,22.20 -1.26,27.03 -1.16,31.87 -0.91,34.65 -0.66,37.44 -0.69,37.69 -0.71,37.95 -0.80,38.19 -0.89,38.43 -1.03,38.65 -1.17,38.86 -1.36,39.04 -1.55,39.21 -1.77,39.33 -2.00,39.46 -2.25,39.52 -2.50,39.59 -2.75,39.60 -3.01,39.60 -3.26,39.54 -3.51,39.49 -3.74,39.37 -3.97,39.26 -4.17,39.09 -4.36,38.92 -4.51,38.71 -4.66,38.50 -4.76,38.27 -4.86,38.03 -4.89,37.77 -4.93,37.52 -5.00,35.05 -5.06,32.58 -5.07,27.80 -5.07,23.02 -5.08,17.32 -5.09,11.62 -4.39,6.74 -3.69,1.87 -2.13,-1.36 -0.58,-4.61 1.88,-6.23 4.35,-7.84 7.49,-6.80 10.64,-5.76 12.79,-3.18 14.94,-0.60 16.08,2.34 17.21,5.29 16.49,8.55 15.76,11.81 13.16,14.73 10.56,17.64 8.15,19.11 5.73,20.58 4.83,20.63 3.93,20.68 3.72,20.77 3.52,20.86 3.29,20.91 3.07,20.95 2.84,20.93 2.61,20.92 2.39,20.85 2.17,20.78 1.98,20.66 1.78,20.55 1.62,20.38 1.46,20.22 1.34,20.03 1.22,19.83 1.16,19.61 1.09,19.40 1.07,19.17 1.06,18.94 1.10,18.71 1.14,18.49 1.24,18.28 1.33,18.07 1.47,17.89 1.61,17.71 1.79,17.57 1.97,17.43 2.93,15.12 3.89,12.81 3.99,12.63 4.10,12.44 4.26,12.30 4.42,12.16 4.61,12.08 4.81,11.99 5.02,11.98 5.23,11.96 5.44,12.01 5.64,12.07 5.82,12.18 6.00,12.30 6.13,12.46 6.26,12.63 6.34,12.83 6.41,13.03 6.41,13.24 6.42,13.46 6.35,13.66 6.29,13.86 6.17,14.03 6.04,14.20 5.87,14.33 5.69,14.45 5.49,14.51 5.29,14.57 5.07,14.57 4.86,14.56 4.66,14.48 4.46,14.41 4.30,14.28 4.13,14.14 4.02,13.96 3.91,13.78 3.86,13.58 3.81,13.37 3.83,13.16 3.85,12.95 3.93,12.75 4.02,12.56 4.16,12.40 4.30,12.24 4.49,12.14 4.67,12.03 4.88,12.00 5.09,11.96 5.30,11.99 5.51,12.02 5.70,12.11 5.89,12.21 6.04,12.36 6.19,12.51 6.28,12.70 6.38,12.89 6.40,13.10 6.43,13.31 6.39,13.52 6.35,13.73 6.35,13.73 6.35,13.73 5.14,17.20 3.93,20.68 3.73,20.77 3.52,20.86 3.29,20.91 3.07,20.95 2.84,20.93 2.61,20.92 2.39,20.85 2.17,20.78 1.98,20.66 1.78,20.55 1.62,20.38 1.46,20.22 1.34,20.03 1.22,19.83 1.16,19.61 1.09,19.40 1.07,19.17 1.06,18.94 1.10,18.71 1.14,18.49 1.24,18.28 1.33,18.07 1.47,17.89 1.61,17.71 1.79,17.57 1.97,17.43 2.91,17.29 3.85,17.15 5.76,16.01 7.66,14.86 9.82,12.71 11.98,10.56 12.72,8.41 13.45,6.25 12.60,4.03 11.76,1.80 10.32,-0.21 8.89,-2.23 6.86,-3.35 4.84,-4.47 3.78,-3.60 2.72,-2.73 1.40,-0.12 0.07,2.47 -0.58,7.04 -1.24,11.61 -1.21,17.30 -1.17,22.98 -1.08,27.69 -0.99,32.39 -0.82,34.91 -0.66,37.44 -0.69,37.69 -0.71,37.95 -0.80,38.19 -0.89,38.43 -1.03,38.65 -1.17,38.86 -1.36,39.04 -1.55,39.21 -1.77,39.33 -2.00,39.46 -2.25,39.52 -2.50,39.59 -2.75,39.60 -3.01,39.60 -3.26,39.54 -3.51,39.49 -3.74,39.37 -3.97,39.26 -4.17,39.09 -4.36,38.92 -4.51,38.71 -4.66,38.51 -4.76,38.27 -4.86,38.03 -4.89,37.77 -4.93,37.52 -5.22,34.73 -5.50,31.95 -5.60,26.92 -5.69,21.90 -5.35,17.19 -5.01,12.49 -4.21,8.75 -3.42,5.00 -2.63,2.27 -1.85,-0.46 -1.77,-0.67 -1.68,-0.89 -1.55,-1.08 -1.42,-1.27 -1.25,-1.42 -1.07,-1.57 -0.87,-1.68 -0.67,-1.78 -0.44,-1.84 -0.22,-1.89 0.00,-1.89 0.23,-1.89 0.45,-1.83 0.68,-1.78 0.88,-1.67 1.09,-1.56 1.26,-1.41 1.43,-1.26 1.56,-1.07 1.69,-0.88 1.77,-0.66 1.85,-0.45 1.88,-0.22 1.90,0.00 1.88,0.23 1.85,0.46 1.85,0.46 L 1.85,0.46 Z"></path></g><g transform="translate(226 384.40000915527344) rotate(0 20 18)" stroke="none"><path fill="#000000" d="M 1.78,0 Q 1.78,0 2.00,4.6 2.23,9.2 2.24,13.45 2.25,17.70 2.47,21.05 2.70,24.39 3.23,26.57 3.76,28.76 2.71,29.02 1.66,29.28 2.72,28.85 3.78,28.42 5.08,26.68 6.38,24.94 7.95,22.55 9.53,20.16 10.43,19.11 11.34,18.05 11.50,17.86 11.65,17.67 11.85,17.53 12.05,17.38 12.28,17.29 12.50,17.20 12.74,17.16 12.99,17.12 13.23,17.15 13.47,17.17 13.70,17.25 13.94,17.33 14.14,17.46 14.35,17.60 14.51,17.77 14.68,17.95 14.80,18.17 14.92,18.38 14.99,18.62 15.05,18.85 15.06,19.10 15.07,19.34 15.01,19.58 14.96,19.82 14.85,20.04 14.75,20.26 15.76,22.26 16.78,24.26 16.97,26.95 17.16,29.64 17.45,31.30 17.73,32.97 18.09,33.73 18.46,34.50 18.47,34.77 18.48,35.04 18.43,35.30 18.38,35.56 18.26,35.81 18.15,36.05 17.98,36.26 17.81,36.47 17.60,36.63 17.39,36.79 17.14,36.90 16.90,37.00 16.63,37.05 16.37,37.09 16.10,37.07 15.83,37.05 15.58,36.97 15.33,36.89 15.10,36.74 14.87,36.60 14.69,36.41 14.50,36.22 14.36,35.99 14.23,35.76 14.15,35.50 14.08,35.24 15.17,33.83 16.27,32.41 16.91,31.01 17.55,29.62 18.78,27.81 20.02,26.00 21.86,25.21 23.70,24.42 25.68,25.14 27.66,25.86 29.72,27.12 31.78,28.39 33.50,29.34 35.22,30.30 36.41,30.93 37.61,31.57 38.15,31.51 38.70,31.45 38.87,31.32 39.04,31.19 39.24,31.13 39.44,31.06 39.66,31.06 39.87,31.06 40.07,31.13 40.27,31.20 40.44,31.33 40.61,31.45 40.73,31.63 40.85,31.81 40.90,32.01 40.96,32.22 40.95,32.43 40.93,32.64 40.85,32.84 40.78,33.04 40.64,33.20 40.50,33.36 40.32,33.47 40.13,33.58 39.93,33.62 39.72,33.67 39.51,33.64 39.30,33.62 39.10,33.53 38.91,33.44 38.76,33.29 38.60,33.15 38.51,32.96 38.41,32.77 38.37,32.56 38.34,32.35 38.37,32.14 38.41,31.93 38.51,31.74 38.61,31.56 38.76,31.41 38.92,31.27 39.11,31.18 39.30,31.09 39.52,31.07 39.73,31.04 39.93,31.09 40.14,31.14 40.32,31.25 40.51,31.36 40.64,31.52 40.78,31.68 40.86,31.88 40.94,32.08 40.95,32.29 40.96,32.50 40.90,32.71 40.84,32.91 40.72,33.09 40.60,33.26 40.60,33.26 40.60,33.26 38.11,34.29 35.61,35.31 34.39,34.65 33.16,34.00 31.36,32.99 29.56,31.99 27.66,30.80 25.76,29.61 24.45,29.07 23.14,28.53 22.18,30.06 21.23,31.60 19.84,33.05 18.46,34.50 18.47,34.77 18.48,35.04 18.43,35.30 18.38,35.56 18.26,35.81 18.15,36.05 17.98,36.26 17.81,36.47 17.60,36.63 17.39,36.79 17.14,36.90 16.90,37.00 16.63,37.05 16.37,37.09 16.10,37.07 15.84,37.05 15.58,36.97 15.33,36.89 15.10,36.74 14.87,36.60 14.69,36.41 14.50,36.22 14.36,35.99 14.23,35.76 14.15,35.50 14.08,35.24 13.72,34.50 13.37,33.75 13.05,31.84 12.73,29.93 12.59,27.47 12.44,25.01 12.31,23.15 12.17,21.28 11.76,19.67 11.34,18.05 11.50,17.86 11.65,17.67 11.85,17.53 12.05,17.38 12.27,17.29 12.50,17.20 12.74,17.16 12.99,17.12 13.23,17.15 13.47,17.17 13.70,17.25 13.94,17.33 14.14,17.46 14.35,17.60 14.51,17.77 14.68,17.95 14.80,18.17 14.92,18.38 14.99,18.62 15.05,18.85 15.06,19.10 15.07,19.34 15.01,19.58 14.96,19.82 14.85,20.04 14.75,20.26 13.82,21.31 12.90,22.36 11.25,24.93 9.61,27.50 7.66,29.86 5.70,32.22 4.52,32.77 3.34,33.32 1.37,31.57 -0.60,29.81 -1.19,27.25 -1.78,24.70 -2.01,21.20 -2.25,17.71 -2.24,13.45 -2.23,9.2 -2.00,4.6 -1.78,0 -1.76,-0.21 -1.73,-0.42 -1.65,-0.62 -1.58,-0.83 -1.45,-1.00 -1.33,-1.18 -1.17,-1.32 -1.01,-1.47 -0.82,-1.57 -0.63,-1.67 -0.42,-1.72 -0.21,-1.77 0.00,-1.77 0.21,-1.77 0.42,-1.72 0.63,-1.67 0.82,-1.57 1.01,-1.47 1.17,-1.32 1.33,-1.18 1.45,-1.00 1.58,-0.83 1.65,-0.62 1.73,-0.42 1.76,-0.21 1.78,0.00 1.78,0.00 L 1.78,0 Z"></path></g><g transform="translate(290 409.1999969482422) rotate(0 0.00005000000000165983 0.00005000000000165983)" stroke="none"><path fill="#000000" d="M 2.12,-2.12 Q 2.12,-2.12 2.40,-1.73 2.69,-1.33 2.83,-0.87 2.97,-0.40 2.96,0.08 2.95,0.56 2.78,1.02 2.61,1.47 2.31,1.85 2.00,2.23 1.59,2.49 1.18,2.76 0.71,2.87 0.24,2.99 -0.24,2.95 -0.72,2.91 -1.17,2.72 -1.61,2.53 -1.98,2.20 -2.34,1.88 -2.58,1.45 -2.82,1.03 -2.91,0.55 -3.00,0.08 -2.93,-0.40 -2.87,-0.88 -2.65,-1.31 -2.44,-1.75 -2.09,-2.09 -1.75,-2.44 -1.31,-2.65 -0.88,-2.87 -0.39,-2.93 0.08,-3.00 0.55,-2.91 1.03,-2.82 1.46,-2.58 1.88,-2.34 2.20,-1.97 2.53,-1.61 2.72,-1.17 2.91,-0.72 2.95,-0.23 2.99,0.24 2.87,0.71 2.76,1.18 2.49,1.59 2.23,2.00 1.85,2.31 1.47,2.61 1.02,2.78 0.56,2.95 0.07,2.96 -0.40,2.97 -0.87,2.83 -1.33,2.69 -1.73,2.40 -2.12,2.12 -2.12,2.12 -2.12,2.12 -2.34,1.83 -2.57,1.55 -2.72,1.22 -2.86,0.89 -2.93,0.53 -2.99,0.18 -2.97,-0.18 -2.95,-0.54 -2.84,-0.88 -2.74,-1.23 -2.55,-1.54 -2.36,-1.85 -2.10,-2.10 -1.85,-2.36 -1.54,-2.55 -1.23,-2.74 -0.88,-2.84 -0.54,-2.95 -0.17,-2.97 0.18,-2.99 0.53,-2.93 0.89,-2.86 1.22,-2.72 1.55,-2.57 1.84,-2.34 2.12,-2.12 2.12,-2.12 L 2.12,-2.12 Z"></path></g><g transform="translate(158 491.6000213623047) rotate(0 88.79998779296875 11.600006103515625)" stroke="none"><path fill="#000000" d="M -1.48,0.74 Q -1.48,0.74 -2.42,-1.08 -3.37,-2.91 -4.19,-4.02 -5.02,-5.14 -6.02,-6.32 -7.01,-7.50 -9.14,-7.86 -11.27,-8.21 -12.67,-7.45 -14.07,-6.68 -16.07,-5.25 -18.06,-3.82 -19.67,-1.76 -21.28,0.29 -22.33,4.34 -23.38,8.39 -22.96,12.63 -22.55,16.87 -20.02,20.70 -17.49,24.52 -11.81,28.11 -6.13,31.71 6.25,35.06 18.63,38.42 31.71,40.34 44.78,42.26 58.13,43.08 71.47,43.89 84.91,43.56 98.34,43.23 112.04,41.50 125.74,39.77 141.20,36.74 156.65,33.71 167.10,31.03 177.55,28.35 184.20,25.86 190.86,23.37 194.35,21.15 197.84,18.93 198.66,15.71 199.47,12.50 198.17,9.62 196.87,6.75 193.78,4.03 190.69,1.30 186.42,-1.50 182.14,-4.32 177.15,-6.88 172.16,-9.45 165.95,-11.90 159.74,-14.35 154.15,-16.07 148.55,-17.79 142.35,-18.96 136.14,-20.14 128.75,-20.64 121.36,-21.13 111.32,-21.35 101.27,-21.57 93.08,-21.66 84.89,-21.76 79.20,-21.34 73.50,-20.92 69.22,-20.51 64.95,-20.11 60.88,-19.48 56.82,-18.85 50.53,-17.45 44.25,-16.04 40.15,-15.20 36.05,-14.37 31.58,-13.33 27.11,-12.29 21.54,-10.93 15.96,-9.57 11.26,-8.52 6.56,-7.48 2.99,-6.58 -0.57,-5.69 -3.27,-5.07 -5.96,-4.45 -8.01,-3.96 -10.06,-3.47 -12.11,-3.02 -14.15,-2.58 -15.65,-2.17 -17.15,-1.77 -18.46,-1.38 -19.76,-0.99 -20.27,1.11 -20.78,3.23 -21.24,4.79 -21.69,6.36 -22.09,9.00 -22.49,11.64 -22.57,14.04 -22.65,16.43 -22.73,19.46 -22.82,22.50 -22.83,22.71 -22.85,22.92 -22.93,23.12 -23.01,23.31 -23.15,23.47 -23.29,23.63 -23.47,23.74 -23.66,23.85 -23.86,23.89 -24.07,23.93 -24.28,23.91 -24.49,23.88 -24.69,23.79 -24.88,23.70 -25.03,23.55 -25.18,23.40 -25.28,23.21 -25.38,23.02 -25.41,22.81 -25.44,22.60 -25.40,22.39 -25.36,22.18 -25.26,22.00 -25.16,21.81 -25.00,21.67 -24.85,21.52 -24.65,21.44 -24.46,21.35 -24.25,21.33 -24.04,21.31 -23.83,21.36 -23.62,21.41 -23.44,21.52 -23.26,21.63 -23.13,21.80 -22.99,21.96 -22.91,22.16 -22.84,22.36 -22.83,22.57 -22.82,22.78 -22.88,22.98 -22.94,23.19 -23.06,23.36 -23.18,23.54 -23.36,23.66 -23.53,23.79 -23.73,23.85 -23.93,23.92 -24.14,23.92 -24.36,23.91 -24.56,23.84 -24.76,23.77 -24.92,23.64 -25.09,23.51 -25.21,23.33 -25.32,23.16 -25.38,22.95 -25.43,22.74 -25.43,22.74 -25.43,22.75 -26.11,19.55 -26.79,16.34 -26.76,13.86 -26.73,11.37 -26.55,9.14 -26.37,6.91 -25.92,5.24 -25.47,3.57 -24.95,2.12 -24.43,0.67 -24.14,-0.87 -23.86,-2.43 -22.45,-3.72 -21.04,-5.00 -19.65,-5.43 -18.25,-5.85 -16.65,-6.28 -15.05,-6.71 -13.05,-7.14 -11.04,-7.57 -8.97,-8.07 -6.91,-8.56 -4.25,-9.16 -1.59,-9.77 2.03,-10.68 5.65,-11.58 10.31,-12.62 14.96,-13.65 20.56,-15.02 26.16,-16.39 30.68,-17.44 35.21,-18.49 39.27,-19.32 43.33,-20.15 49.75,-21.58 56.18,-23.01 60.36,-23.65 64.55,-24.29 68.87,-24.70 73.19,-25.11 79.07,-25.54 84.94,-25.96 93.15,-25.87 101.36,-25.78 111.51,-25.56 121.65,-25.34 129.29,-24.82 136.93,-24.29 143.36,-23.06 149.80,-21.83 155.54,-20.05 161.29,-18.27 167.69,-15.73 174.09,-13.20 179.28,-10.52 184.47,-7.84 189.02,-4.82 193.56,-1.80 197.13,1.62 200.71,5.05 202.11,9.09 203.51,13.13 202.02,17.52 200.52,21.90 196.43,24.58 192.33,27.26 185.45,29.80 178.57,32.35 168.00,35.02 157.44,37.69 141.84,40.74 126.25,43.80 112.35,45.58 98.45,47.36 84.83,47.71 71.21,48.06 57.70,47.22 44.18,46.39 30.85,44.42 17.53,42.45 4.59,38.82 -8.33,35.20 -14.60,31.02 -20.87,26.85 -23.74,22.14 -26.60,17.43 -26.97,12.40 -27.34,7.37 -25.91,2.61 -24.47,-2.14 -22.40,-4.58 -20.34,-7.02 -18.00,-8.60 -15.67,-10.18 -13.39,-11.09 -11.11,-11.99 -9.16,-11.74 -7.22,-11.49 -5.79,-10.77 -4.35,-10.05 -3.20,-8.61 -2.05,-7.17 -1.18,-5.81 -0.30,-4.44 0.58,-2.59 1.48,-0.74 1.54,-0.55 1.61,-0.36 1.63,-0.16 1.65,0.03 1.62,0.23 1.60,0.42 1.52,0.61 1.45,0.79 1.33,0.96 1.21,1.12 1.06,1.25 0.91,1.38 0.73,1.47 0.55,1.56 0.36,1.60 0.16,1.64 -0.03,1.64 -0.23,1.64 -0.42,1.58 -0.61,1.53 -0.79,1.44 -0.96,1.34 -1.11,1.20 -1.26,1.07 -1.37,0.90 -1.48,0.74 -1.48,0.74 L -1.48,0.74 Z"></path></g><g transform="translate(185.199951171875 507.6000213623047) rotate(0 17.600006103515625 5.199981689453125)" stroke="none"><path fill="#000000" d="M -1.69,0.24 Q -1.69,0.24 -2.07,-1.34 -2.45,-2.93 -2.46,-3.17 -2.46,-3.42 -2.41,-3.65 -2.36,-3.89 -2.25,-4.11 -2.14,-4.33 -1.98,-4.51 -1.82,-4.70 -1.63,-4.84 -1.43,-4.98 -1.20,-5.07 -0.98,-5.16 -0.74,-5.20 -0.50,-5.23 -0.26,-5.21 -0.01,-5.18 0.21,-5.10 0.43,-5.02 0.64,-4.89 0.84,-4.75 1.01,-4.57 1.17,-4.40 1.29,-4.18 1.41,-3.97 1.47,-3.73 1.53,-3.50 1.93,-2.24 2.34,-0.99 3.21,2.10 4.08,5.21 5.56,8.94 7.04,12.68 8.99,16.00 10.94,19.33 12.63,21.60 14.31,23.88 16.37,23.49 18.43,23.11 20.58,20.15 22.73,17.18 24.32,12.83 25.90,8.48 26.81,2.14 27.72,-4.20 28.36,-8.15 29.00,-12.11 29.27,-14.00 29.54,-15.89 29.96,-16.68 30.38,-17.47 30.44,-17.69 30.50,-17.92 30.62,-18.12 30.73,-18.32 30.88,-18.49 31.04,-18.66 31.23,-18.79 31.43,-18.92 31.65,-19.00 31.86,-19.07 32.09,-19.10 32.32,-19.12 32.55,-19.09 32.78,-19.05 33.00,-18.97 33.21,-18.88 33.40,-18.75 33.59,-18.61 33.74,-18.43 33.89,-18.26 33.99,-18.05 34.09,-17.84 34.14,-17.62 34.20,-17.39 34.19,-17.16 34.19,-16.93 35.26,-15.68 36.33,-14.44 36.44,-14.25 36.55,-14.07 36.59,-13.86 36.64,-13.66 36.61,-13.45 36.59,-13.23 36.50,-13.04 36.41,-12.85 36.26,-12.70 36.12,-12.54 35.93,-12.44 35.74,-12.34 35.53,-12.31 35.32,-12.28 35.11,-12.31 34.90,-12.35 34.71,-12.45 34.53,-12.55 34.38,-12.70 34.23,-12.86 34.15,-13.05 34.06,-13.24 34.04,-13.46 34.01,-13.67 34.06,-13.87 34.11,-14.08 34.22,-14.26 34.33,-14.45 34.49,-14.58 34.65,-14.72 34.85,-14.80 35.05,-14.87 35.26,-14.88 35.47,-14.90 35.68,-14.84 35.88,-14.78 36.06,-14.66 36.23,-14.54 36.36,-14.37 36.49,-14.20 36.55,-14.00 36.62,-13.80 36.62,-13.58 36.62,-13.37 36.55,-13.17 36.48,-12.97 36.35,-12.80 36.22,-12.63 36.05,-12.51 35.87,-12.40 35.67,-12.34 35.46,-12.28 35.25,-12.30 35.04,-12.31 34.84,-12.39 34.64,-12.47 34.48,-12.61 34.32,-12.74 34.32,-12.74 34.32,-12.74 32.35,-15.11 30.38,-17.47 30.44,-17.69 30.50,-17.92 30.62,-18.12 30.73,-18.32 30.88,-18.49 31.04,-18.66 31.23,-18.79 31.43,-18.92 31.65,-19.00 31.86,-19.07 32.09,-19.10 32.32,-19.12 32.55,-19.09 32.78,-19.05 33.00,-18.97 33.21,-18.88 33.40,-18.75 33.59,-18.61 33.74,-18.43 33.89,-18.26 33.99,-18.05 34.09,-17.84 34.14,-17.62 34.20,-17.39 34.19,-17.16 34.19,-16.93 33.92,-16.10 33.65,-15.27 33.38,-13.36 33.11,-11.44 32.47,-7.52 31.84,-3.60 30.83,3.16 29.83,9.92 28.00,14.79 26.16,19.65 23.51,23.20 20.86,26.76 18.46,27.97 16.06,29.17 13.44,27.90 10.82,26.62 8.95,24.10 7.08,21.58 4.98,17.94 2.89,14.31 1.35,10.34 -0.17,6.36 -0.99,3.23 -1.81,0.09 -2.13,-1.42 -2.45,-2.93 -2.46,-3.17 -2.46,-3.42 -2.41,-3.65 -2.36,-3.89 -2.25,-4.11 -2.14,-4.33 -1.98,-4.51 -1.82,-4.70 -1.63,-4.84 -1.43,-4.98 -1.20,-5.07 -0.98,-5.16 -0.74,-5.20 -0.50,-5.23 -0.26,-5.21 -0.01,-5.18 0.21,-5.10 0.43,-5.02 0.64,-4.89 0.84,-4.75 1.01,-4.57 1.17,-4.40 1.29,-4.18 1.41,-3.97 1.47,-3.74 1.53,-3.50 1.61,-1.87 1.69,-0.24 1.69,-0.03 1.70,0.17 1.65,0.37 1.61,0.57 1.52,0.75 1.42,0.94 1.29,1.09 1.16,1.25 0.99,1.37 0.82,1.49 0.63,1.57 0.44,1.65 0.24,1.68 0.03,1.71 -0.16,1.69 -0.37,1.67 -0.56,1.60 -0.76,1.53 -0.93,1.41 -1.10,1.30 -1.24,1.15 -1.38,1.00 -1.48,0.82 -1.58,0.64 -1.64,0.44 -1.69,0.24 -1.69,0.24 L -1.69,0.24 Z"></path></g><g transform="translate(239.5999755859375 504.40000915527344) rotate(0 27.999969482421875 7.20001220703125)" stroke="none"><path fill="#000000" d="M -1.60,0.91 Q -1.60,0.91 -2.54,-0.67 -3.48,-2.26 -4.12,1.20 -4.76,4.67 -4.65,6.40 -4.54,8.13 -3.69,9.47 -2.84,10.81 -1.65,12.04 -0.46,13.28 0.71,14.26 1.88,15.25 2.41,15.93 2.94,16.61 3.11,16.80 3.28,16.98 3.40,17.20 3.52,17.41 3.58,17.65 3.65,17.89 3.65,18.14 3.66,18.39 3.60,18.63 3.55,18.88 3.44,19.10 3.33,19.32 3.17,19.51 3.00,19.70 2.80,19.84 2.60,19.99 2.37,20.08 2.14,20.18 1.89,20.21 1.65,20.25 1.40,20.22 1.15,20.20 0.92,20.11 0.69,20.03 0.48,19.89 0.27,19.76 -1.62,20.74 -3.52,21.72 -5.27,21.83 -7.02,21.93 -7.95,21.75 -8.89,21.57 -9.14,21.55 -9.39,21.53 -9.63,21.46 -9.87,21.38 -10.09,21.25 -10.30,21.12 -10.48,20.94 -10.66,20.76 -10.79,20.54 -10.92,20.33 -10.99,20.09 -11.06,19.84 -11.08,19.59 -11.09,19.34 -11.05,19.09 -11.00,18.84 -10.89,18.62 -10.79,18.39 -10.63,18.19 -10.48,17.99 -10.28,17.84 -10.08,17.68 -9.85,17.58 -9.62,17.48 -9.37,17.43 -9.12,17.39 -6.87,15.73 -4.61,14.06 -1.94,12.71 0.73,11.35 3.85,9.44 6.98,7.53 8.62,5.92 10.27,4.32 11.11,2.86 11.95,1.41 12.27,0.23 12.60,-0.93 12.77,-1.76 12.95,-2.58 13.05,-2.81 13.15,-3.04 13.30,-3.23 13.46,-3.43 13.65,-3.59 13.85,-3.74 14.07,-3.84 14.30,-3.95 14.55,-3.99 14.79,-4.04 15.04,-4.03 15.29,-4.01 15.53,-3.94 15.77,-3.87 15.98,-3.74 16.19,-3.61 16.37,-3.44 16.55,-3.26 16.68,-3.05 16.81,-2.84 16.88,-2.60 16.96,-2.36 16.98,-2.11 16.99,-1.86 16.95,-1.62 16.91,-1.37 16.50,0.49 16.10,2.37 15.99,4.33 15.88,6.30 16.54,7.35 17.19,8.39 18.30,8.71 19.41,9.02 21.09,9.24 22.76,9.46 24.25,8.76 25.73,8.06 27.37,5.95 29.01,3.83 29.96,1.67 30.91,-0.49 31.38,-1.97 31.84,-3.45 31.97,-3.66 32.10,-3.87 32.27,-4.05 32.45,-4.23 32.66,-4.35 32.87,-4.48 33.11,-4.56 33.34,-4.63 33.59,-4.64 33.84,-4.66 34.08,-4.61 34.33,-4.57 34.55,-4.47 34.78,-4.37 34.98,-4.21 35.17,-4.06 35.32,-3.86 35.48,-3.67 35.58,-3.44 35.68,-3.22 35.73,-2.97 35.77,-2.73 35.75,-2.48 35.74,-2.23 35.67,-2.00 35.59,-1.76 35.66,-0.06 35.73,1.64 36.17,3.45 36.60,5.27 37.62,7.01 38.63,8.76 39.66,10.14 40.68,11.52 42.87,12.34 45.05,13.17 47.72,13.58 50.40,14.00 53.07,14.00 55.73,14.01 59.91,13.07 64.09,12.12 64.30,12.10 64.51,12.07 64.72,12.11 64.93,12.15 65.12,12.25 65.30,12.36 65.44,12.52 65.58,12.68 65.67,12.87 65.75,13.07 65.77,13.28 65.79,13.49 65.73,13.70 65.68,13.90 65.57,14.08 65.45,14.26 65.29,14.39 65.12,14.52 64.92,14.60 64.72,14.67 64.51,14.68 64.30,14.68 64.09,14.62 63.89,14.56 63.72,14.43 63.55,14.31 63.42,14.13 63.30,13.96 63.24,13.76 63.17,13.56 63.18,13.34 63.19,13.13 63.26,12.93 63.33,12.73 63.47,12.57 63.60,12.40 63.78,12.29 63.96,12.17 64.17,12.12 64.37,12.07 64.58,12.09 64.80,12.11 64.99,12.19 65.19,12.28 65.34,12.42 65.50,12.56 65.61,12.74 65.71,12.93 65.75,13.14 65.79,13.35 65.76,13.56 65.73,13.77 65.64,13.96 65.54,14.15 65.39,14.30 65.24,14.45 65.05,14.54 64.86,14.64 64.86,14.64 64.86,14.64 60.34,16.35 55.82,18.06 52.77,18.12 49.73,18.19 46.54,17.65 43.36,17.12 40.41,15.70 37.47,14.28 36.17,12.56 34.87,10.84 33.66,8.53 32.45,6.23 31.97,3.93 31.50,1.62 31.67,-0.91 31.84,-3.45 31.97,-3.66 32.09,-3.87 32.27,-4.05 32.45,-4.23 32.66,-4.35 32.87,-4.48 33.11,-4.56 33.34,-4.63 33.59,-4.64 33.84,-4.66 34.08,-4.61 34.33,-4.57 34.55,-4.47 34.78,-4.37 34.98,-4.21 35.17,-4.06 35.32,-3.87 35.48,-3.67 35.58,-3.44 35.68,-3.22 35.73,-2.97 35.77,-2.73 35.75,-2.48 35.74,-2.23 35.67,-2.00 35.59,-1.76 35.14,-0.28 34.68,1.19 33.47,3.84 32.26,6.48 29.88,9.18 27.51,11.88 24.98,12.77 22.44,13.66 20.06,13.30 17.69,12.93 15.76,11.86 13.83,10.79 12.76,8.59 11.68,6.38 11.82,3.94 11.96,1.50 12.45,-0.53 12.95,-2.58 13.05,-2.81 13.15,-3.04 13.30,-3.23 13.46,-3.43 13.65,-3.59 13.85,-3.74 14.07,-3.84 14.30,-3.95 14.55,-3.99 14.79,-4.04 15.04,-4.03 15.29,-4.01 15.53,-3.94 15.77,-3.87 15.98,-3.74 16.19,-3.61 16.37,-3.44 16.55,-3.26 16.68,-3.05 16.81,-2.84 16.88,-2.60 16.96,-2.36 16.98,-2.11 16.99,-1.86 16.95,-1.62 16.91,-1.37 16.72,-0.55 16.53,0.26 16.00,1.88 15.47,3.50 14.31,5.37 13.14,7.25 11.14,9.14 9.15,11.04 5.88,13.04 2.60,15.04 -0.03,16.39 -2.68,17.73 -4.35,18.57 -6.03,19.41 -7.46,20.49 -8.89,21.57 -9.14,21.55 -9.39,21.53 -9.63,21.46 -9.87,21.38 -10.09,21.25 -10.30,21.12 -10.48,20.94 -10.66,20.76 -10.79,20.54 -10.92,20.33 -10.99,20.09 -11.06,19.84 -11.08,19.59 -11.09,19.34 -11.05,19.09 -11.00,18.84 -10.89,18.62 -10.79,18.39 -10.63,18.19 -10.48,17.99 -10.28,17.84 -10.08,17.68 -9.85,17.58 -9.62,17.48 -9.37,17.43 -9.12,17.39 -8.17,17.58 -7.22,17.78 -5.63,17.70 -4.03,17.62 -2.61,17.51 -1.19,17.40 0.87,17.01 2.94,16.61 3.11,16.80 3.28,16.98 3.40,17.20 3.52,17.41 3.58,17.65 3.65,17.89 3.65,18.14 3.66,18.39 3.60,18.63 3.55,18.88 3.44,19.10 3.33,19.32 3.17,19.51 3.00,19.70 2.80,19.84 2.60,19.99 2.37,20.08 2.14,20.18 1.89,20.21 1.65,20.25 1.40,20.22 1.15,20.20 0.92,20.11 0.69,20.03 0.48,19.89 0.27,19.76 -0.26,19.07 -0.79,18.38 -2.13,17.23 -3.47,16.09 -4.94,14.46 -6.42,12.84 -7.51,10.69 -8.59,8.55 -8.72,6.42 -8.84,4.30 -8.45,1.09 -8.06,-2.10 -7.01,-3.87 -5.96,-5.64 -4.22,-5.89 -2.48,-6.15 -1.33,-5.16 -0.19,-4.17 0.70,-2.54 1.60,-0.91 1.68,-0.70 1.77,-0.50 1.80,-0.28 1.84,-0.06 1.82,0.15 1.80,0.37 1.73,0.58 1.66,0.79 1.54,0.98 1.42,1.17 1.26,1.32 1.10,1.47 0.90,1.58 0.71,1.69 0.50,1.75 0.28,1.82 0.06,1.82 -0.15,1.83 -0.37,1.79 -0.59,1.74 -0.79,1.64 -0.99,1.55 -1.16,1.41 -1.33,1.27 -1.46,1.09 -1.60,0.91 -1.60,0.91 L -1.60,0.91 Z"></path></g></svg>